G04 #@! TF.GenerationSoftware,KiCad,Pcbnew,5.1.10-88a1d61d58~90~ubuntu20.04.1*
G04 #@! TF.CreationDate,2021-10-22T15:45:46-05:00*
G04 #@! TF.ProjectId,power-share,706f7765-722d-4736-9861-72652e6b6963,rev?*
G04 #@! TF.SameCoordinates,Original*
G04 #@! TF.FileFunction,Legend,Top*
G04 #@! TF.FilePolarity,Positive*
%FSLAX46Y46*%
G04 Gerber Fmt 4.6, Leading zero omitted, Abs format (unit mm)*
G04 Created by KiCad (PCBNEW 5.1.10-88a1d61d58~90~ubuntu20.04.1) date 2021-10-22 15:45:46*
%MOMM*%
%LPD*%
G01*
G04 APERTURE LIST*
%ADD10C,0.150000*%
%ADD11C,0.100000*%
%ADD12C,0.180000*%
%ADD13C,0.120000*%
%ADD14C,0.300000*%
%ADD15C,0.010000*%
%ADD16C,0.203200*%
%ADD17C,0.127000*%
%ADD18C,0.800000*%
%ADD19C,6.400000*%
%ADD20R,3.400000X2.710000*%
%ADD21R,0.600000X1.550000*%
%ADD22O,3.500000X3.100000*%
%ADD23R,5.400000X2.900000*%
%ADD24C,1.800860*%
%ADD25R,1.400000X2.100000*%
%ADD26R,2.100000X1.400000*%
G04 APERTURE END LIST*
D10*
X96680952Y-114552380D02*
X96680952Y-115266666D01*
X96633333Y-115409523D01*
X96538095Y-115504761D01*
X96395238Y-115552380D01*
X96300000Y-115552380D01*
X97633333Y-115552380D02*
X97157142Y-115552380D01*
X97157142Y-114552380D01*
X98538095Y-115457142D02*
X98490476Y-115504761D01*
X98347619Y-115552380D01*
X98252380Y-115552380D01*
X98109523Y-115504761D01*
X98014285Y-115409523D01*
X97966666Y-115314285D01*
X97919047Y-115123809D01*
X97919047Y-114980952D01*
X97966666Y-114790476D01*
X98014285Y-114695238D01*
X98109523Y-114600000D01*
X98252380Y-114552380D01*
X98347619Y-114552380D01*
X98490476Y-114600000D01*
X98538095Y-114647619D01*
X99252380Y-114552380D02*
X99252380Y-115266666D01*
X99204761Y-115409523D01*
X99109523Y-115504761D01*
X98966666Y-115552380D01*
X98871428Y-115552380D01*
X100204761Y-115552380D02*
X99728571Y-115552380D01*
X99728571Y-114552380D01*
X101109523Y-115457142D02*
X101061904Y-115504761D01*
X100919047Y-115552380D01*
X100823809Y-115552380D01*
X100680952Y-115504761D01*
X100585714Y-115409523D01*
X100538095Y-115314285D01*
X100490476Y-115123809D01*
X100490476Y-114980952D01*
X100538095Y-114790476D01*
X100585714Y-114695238D01*
X100680952Y-114600000D01*
X100823809Y-114552380D01*
X100919047Y-114552380D01*
X101061904Y-114600000D01*
X101109523Y-114647619D01*
X101823809Y-114552380D02*
X101823809Y-115266666D01*
X101776190Y-115409523D01*
X101680952Y-115504761D01*
X101538095Y-115552380D01*
X101442857Y-115552380D01*
X102776190Y-115552380D02*
X102300000Y-115552380D01*
X102300000Y-114552380D01*
X103680952Y-115457142D02*
X103633333Y-115504761D01*
X103490476Y-115552380D01*
X103395238Y-115552380D01*
X103252380Y-115504761D01*
X103157142Y-115409523D01*
X103109523Y-115314285D01*
X103061904Y-115123809D01*
X103061904Y-114980952D01*
X103109523Y-114790476D01*
X103157142Y-114695238D01*
X103252380Y-114600000D01*
X103395238Y-114552380D01*
X103490476Y-114552380D01*
X103633333Y-114600000D01*
X103680952Y-114647619D01*
X104395238Y-114552380D02*
X104395238Y-115266666D01*
X104347619Y-115409523D01*
X104252380Y-115504761D01*
X104109523Y-115552380D01*
X104014285Y-115552380D01*
X105347619Y-115552380D02*
X104871428Y-115552380D01*
X104871428Y-114552380D01*
X106252380Y-115457142D02*
X106204761Y-115504761D01*
X106061904Y-115552380D01*
X105966666Y-115552380D01*
X105823809Y-115504761D01*
X105728571Y-115409523D01*
X105680952Y-115314285D01*
X105633333Y-115123809D01*
X105633333Y-114980952D01*
X105680952Y-114790476D01*
X105728571Y-114695238D01*
X105823809Y-114600000D01*
X105966666Y-114552380D01*
X106061904Y-114552380D01*
X106204761Y-114600000D01*
X106252380Y-114647619D01*
D11*
X117007857Y-104057142D02*
X117093571Y-104085714D01*
X117122142Y-104114285D01*
X117150714Y-104171428D01*
X117150714Y-104257142D01*
X117122142Y-104314285D01*
X117093571Y-104342857D01*
X117036428Y-104371428D01*
X116807857Y-104371428D01*
X116807857Y-103771428D01*
X117007857Y-103771428D01*
X117065000Y-103800000D01*
X117093571Y-103828571D01*
X117122142Y-103885714D01*
X117122142Y-103942857D01*
X117093571Y-104000000D01*
X117065000Y-104028571D01*
X117007857Y-104057142D01*
X116807857Y-104057142D01*
X117407857Y-104371428D02*
X117407857Y-103971428D01*
X117407857Y-103771428D02*
X117379285Y-103800000D01*
X117407857Y-103828571D01*
X117436428Y-103800000D01*
X117407857Y-103771428D01*
X117407857Y-103828571D01*
X117779285Y-104371428D02*
X117722142Y-104342857D01*
X117693571Y-104314285D01*
X117665000Y-104257142D01*
X117665000Y-104085714D01*
X117693571Y-104028571D01*
X117722142Y-104000000D01*
X117779285Y-103971428D01*
X117865000Y-103971428D01*
X117922142Y-104000000D01*
X117950714Y-104028571D01*
X117979285Y-104085714D01*
X117979285Y-104257142D01*
X117950714Y-104314285D01*
X117922142Y-104342857D01*
X117865000Y-104371428D01*
X117779285Y-104371428D01*
X118322142Y-104371428D02*
X118265000Y-104342857D01*
X118236428Y-104285714D01*
X118236428Y-103771428D01*
X118636428Y-104371428D02*
X118579285Y-104342857D01*
X118550714Y-104314285D01*
X118522142Y-104257142D01*
X118522142Y-104085714D01*
X118550714Y-104028571D01*
X118579285Y-104000000D01*
X118636428Y-103971428D01*
X118722142Y-103971428D01*
X118779285Y-104000000D01*
X118807857Y-104028571D01*
X118836428Y-104085714D01*
X118836428Y-104257142D01*
X118807857Y-104314285D01*
X118779285Y-104342857D01*
X118722142Y-104371428D01*
X118636428Y-104371428D01*
X119350714Y-103971428D02*
X119350714Y-104457142D01*
X119322142Y-104514285D01*
X119293571Y-104542857D01*
X119236428Y-104571428D01*
X119150714Y-104571428D01*
X119093571Y-104542857D01*
X119350714Y-104342857D02*
X119293571Y-104371428D01*
X119179285Y-104371428D01*
X119122142Y-104342857D01*
X119093571Y-104314285D01*
X119065000Y-104257142D01*
X119065000Y-104085714D01*
X119093571Y-104028571D01*
X119122142Y-104000000D01*
X119179285Y-103971428D01*
X119293571Y-103971428D01*
X119350714Y-104000000D01*
X119636428Y-104371428D02*
X119636428Y-103971428D01*
X119636428Y-103771428D02*
X119607857Y-103800000D01*
X119636428Y-103828571D01*
X119665000Y-103800000D01*
X119636428Y-103771428D01*
X119636428Y-103828571D01*
X120179285Y-104342857D02*
X120122142Y-104371428D01*
X120007857Y-104371428D01*
X119950714Y-104342857D01*
X119922142Y-104314285D01*
X119893571Y-104257142D01*
X119893571Y-104085714D01*
X119922142Y-104028571D01*
X119950714Y-104000000D01*
X120007857Y-103971428D01*
X120122142Y-103971428D01*
X120179285Y-104000000D01*
X120693571Y-104371428D02*
X120693571Y-104057142D01*
X120665000Y-104000000D01*
X120607857Y-103971428D01*
X120493571Y-103971428D01*
X120436428Y-104000000D01*
X120693571Y-104342857D02*
X120636428Y-104371428D01*
X120493571Y-104371428D01*
X120436428Y-104342857D01*
X120407857Y-104285714D01*
X120407857Y-104228571D01*
X120436428Y-104171428D01*
X120493571Y-104142857D01*
X120636428Y-104142857D01*
X120693571Y-104114285D01*
X121065000Y-104371428D02*
X121007857Y-104342857D01*
X120979285Y-104285714D01*
X120979285Y-103771428D01*
X122007857Y-104371428D02*
X122007857Y-104057142D01*
X121979285Y-104000000D01*
X121922142Y-103971428D01*
X121807857Y-103971428D01*
X121750714Y-104000000D01*
X122007857Y-104342857D02*
X121950714Y-104371428D01*
X121807857Y-104371428D01*
X121750714Y-104342857D01*
X121722142Y-104285714D01*
X121722142Y-104228571D01*
X121750714Y-104171428D01*
X121807857Y-104142857D01*
X121950714Y-104142857D01*
X122007857Y-104114285D01*
X122293571Y-103971428D02*
X122293571Y-104371428D01*
X122293571Y-104028571D02*
X122322142Y-104000000D01*
X122379285Y-103971428D01*
X122465000Y-103971428D01*
X122522142Y-104000000D01*
X122550714Y-104057142D01*
X122550714Y-104371428D01*
X123093571Y-104371428D02*
X123093571Y-103771428D01*
X123093571Y-104342857D02*
X123036428Y-104371428D01*
X122922142Y-104371428D01*
X122865000Y-104342857D01*
X122836428Y-104314285D01*
X122807857Y-104257142D01*
X122807857Y-104085714D01*
X122836428Y-104028571D01*
X122865000Y-104000000D01*
X122922142Y-103971428D01*
X123036428Y-103971428D01*
X123093571Y-104000000D01*
X123807857Y-104200000D02*
X124093571Y-104200000D01*
X123750714Y-104371428D02*
X123950714Y-103771428D01*
X124150714Y-104371428D01*
X124607857Y-103971428D02*
X124607857Y-104457142D01*
X124579285Y-104514285D01*
X124550714Y-104542857D01*
X124493571Y-104571428D01*
X124407857Y-104571428D01*
X124350714Y-104542857D01*
X124607857Y-104342857D02*
X124550714Y-104371428D01*
X124436428Y-104371428D01*
X124379285Y-104342857D01*
X124350714Y-104314285D01*
X124322142Y-104257142D01*
X124322142Y-104085714D01*
X124350714Y-104028571D01*
X124379285Y-104000000D01*
X124436428Y-103971428D01*
X124550714Y-103971428D01*
X124607857Y-104000000D01*
X124893571Y-104371428D02*
X124893571Y-103971428D01*
X124893571Y-104085714D02*
X124922142Y-104028571D01*
X124950714Y-104000000D01*
X125007857Y-103971428D01*
X125065000Y-103971428D01*
X125265000Y-104371428D02*
X125265000Y-103971428D01*
X125265000Y-103771428D02*
X125236428Y-103800000D01*
X125265000Y-103828571D01*
X125293571Y-103800000D01*
X125265000Y-103771428D01*
X125265000Y-103828571D01*
X125807857Y-104342857D02*
X125750714Y-104371428D01*
X125636428Y-104371428D01*
X125579285Y-104342857D01*
X125550714Y-104314285D01*
X125522142Y-104257142D01*
X125522142Y-104085714D01*
X125550714Y-104028571D01*
X125579285Y-104000000D01*
X125636428Y-103971428D01*
X125750714Y-103971428D01*
X125807857Y-104000000D01*
X126322142Y-103971428D02*
X126322142Y-104371428D01*
X126065000Y-103971428D02*
X126065000Y-104285714D01*
X126093571Y-104342857D01*
X126150714Y-104371428D01*
X126236428Y-104371428D01*
X126293571Y-104342857D01*
X126322142Y-104314285D01*
X126693571Y-104371428D02*
X126636428Y-104342857D01*
X126607857Y-104285714D01*
X126607857Y-103771428D01*
X126836428Y-103971428D02*
X127065000Y-103971428D01*
X126922142Y-103771428D02*
X126922142Y-104285714D01*
X126950714Y-104342857D01*
X127007857Y-104371428D01*
X127065000Y-104371428D01*
X127522142Y-103971428D02*
X127522142Y-104371428D01*
X127265000Y-103971428D02*
X127265000Y-104285714D01*
X127293571Y-104342857D01*
X127350714Y-104371428D01*
X127436428Y-104371428D01*
X127493571Y-104342857D01*
X127522142Y-104314285D01*
X127807857Y-104371428D02*
X127807857Y-103971428D01*
X127807857Y-104085714D02*
X127836428Y-104028571D01*
X127865000Y-104000000D01*
X127922142Y-103971428D01*
X127979285Y-103971428D01*
X128436428Y-104371428D02*
X128436428Y-104057142D01*
X128407857Y-104000000D01*
X128350714Y-103971428D01*
X128236428Y-103971428D01*
X128179285Y-104000000D01*
X128436428Y-104342857D02*
X128379285Y-104371428D01*
X128236428Y-104371428D01*
X128179285Y-104342857D01*
X128150714Y-104285714D01*
X128150714Y-104228571D01*
X128179285Y-104171428D01*
X128236428Y-104142857D01*
X128379285Y-104142857D01*
X128436428Y-104114285D01*
X128807857Y-104371428D02*
X128750714Y-104342857D01*
X128722142Y-104285714D01*
X128722142Y-103771428D01*
X116807857Y-105057142D02*
X117007857Y-105057142D01*
X117093571Y-105371428D02*
X116807857Y-105371428D01*
X116807857Y-104771428D01*
X117093571Y-104771428D01*
X117350714Y-104971428D02*
X117350714Y-105371428D01*
X117350714Y-105028571D02*
X117379285Y-105000000D01*
X117436428Y-104971428D01*
X117522142Y-104971428D01*
X117579285Y-105000000D01*
X117607857Y-105057142D01*
X117607857Y-105371428D01*
X118150714Y-104971428D02*
X118150714Y-105457142D01*
X118122142Y-105514285D01*
X118093571Y-105542857D01*
X118036428Y-105571428D01*
X117950714Y-105571428D01*
X117893571Y-105542857D01*
X118150714Y-105342857D02*
X118093571Y-105371428D01*
X117979285Y-105371428D01*
X117922142Y-105342857D01*
X117893571Y-105314285D01*
X117865000Y-105257142D01*
X117865000Y-105085714D01*
X117893571Y-105028571D01*
X117922142Y-105000000D01*
X117979285Y-104971428D01*
X118093571Y-104971428D01*
X118150714Y-105000000D01*
X118436428Y-105371428D02*
X118436428Y-104971428D01*
X118436428Y-104771428D02*
X118407857Y-104800000D01*
X118436428Y-104828571D01*
X118465000Y-104800000D01*
X118436428Y-104771428D01*
X118436428Y-104828571D01*
X118722142Y-104971428D02*
X118722142Y-105371428D01*
X118722142Y-105028571D02*
X118750714Y-105000000D01*
X118807857Y-104971428D01*
X118893571Y-104971428D01*
X118950714Y-105000000D01*
X118979285Y-105057142D01*
X118979285Y-105371428D01*
X119493571Y-105342857D02*
X119436428Y-105371428D01*
X119322142Y-105371428D01*
X119265000Y-105342857D01*
X119236428Y-105285714D01*
X119236428Y-105057142D01*
X119265000Y-105000000D01*
X119322142Y-104971428D01*
X119436428Y-104971428D01*
X119493571Y-105000000D01*
X119522142Y-105057142D01*
X119522142Y-105114285D01*
X119236428Y-105171428D01*
X120007857Y-105342857D02*
X119950714Y-105371428D01*
X119836428Y-105371428D01*
X119779285Y-105342857D01*
X119750714Y-105285714D01*
X119750714Y-105057142D01*
X119779285Y-105000000D01*
X119836428Y-104971428D01*
X119950714Y-104971428D01*
X120007857Y-105000000D01*
X120036428Y-105057142D01*
X120036428Y-105114285D01*
X119750714Y-105171428D01*
X120293571Y-105371428D02*
X120293571Y-104971428D01*
X120293571Y-105085714D02*
X120322142Y-105028571D01*
X120350714Y-105000000D01*
X120407857Y-104971428D01*
X120465000Y-104971428D01*
X120665000Y-105371428D02*
X120665000Y-104971428D01*
X120665000Y-104771428D02*
X120636428Y-104800000D01*
X120665000Y-104828571D01*
X120693571Y-104800000D01*
X120665000Y-104771428D01*
X120665000Y-104828571D01*
X120950714Y-104971428D02*
X120950714Y-105371428D01*
X120950714Y-105028571D02*
X120979285Y-105000000D01*
X121036428Y-104971428D01*
X121122142Y-104971428D01*
X121179285Y-105000000D01*
X121207857Y-105057142D01*
X121207857Y-105371428D01*
X121750714Y-104971428D02*
X121750714Y-105457142D01*
X121722142Y-105514285D01*
X121693571Y-105542857D01*
X121636428Y-105571428D01*
X121550714Y-105571428D01*
X121493571Y-105542857D01*
X121750714Y-105342857D02*
X121693571Y-105371428D01*
X121579285Y-105371428D01*
X121522142Y-105342857D01*
X121493571Y-105314285D01*
X121465000Y-105257142D01*
X121465000Y-105085714D01*
X121493571Y-105028571D01*
X121522142Y-105000000D01*
X121579285Y-104971428D01*
X121693571Y-104971428D01*
X121750714Y-105000000D01*
D12*
X116869380Y-103133333D02*
X117250333Y-103133333D01*
X116793190Y-103361904D02*
X117059857Y-102561904D01*
X117326523Y-103361904D01*
X117897952Y-103323809D02*
X117821761Y-103361904D01*
X117669380Y-103361904D01*
X117593190Y-103323809D01*
X117555095Y-103247619D01*
X117555095Y-102942857D01*
X117593190Y-102866666D01*
X117669380Y-102828571D01*
X117821761Y-102828571D01*
X117897952Y-102866666D01*
X117936047Y-102942857D01*
X117936047Y-103019047D01*
X117555095Y-103095238D01*
X118278904Y-103361904D02*
X118278904Y-102828571D01*
X118278904Y-102980952D02*
X118317000Y-102904761D01*
X118355095Y-102866666D01*
X118431285Y-102828571D01*
X118507476Y-102828571D01*
X118888428Y-103361904D02*
X118812238Y-103323809D01*
X118774142Y-103285714D01*
X118736047Y-103209523D01*
X118736047Y-102980952D01*
X118774142Y-102904761D01*
X118812238Y-102866666D01*
X118888428Y-102828571D01*
X119002714Y-102828571D01*
X119078904Y-102866666D01*
X119117000Y-102904761D01*
X119155095Y-102980952D01*
X119155095Y-103209523D01*
X119117000Y-103285714D01*
X119078904Y-103323809D01*
X119002714Y-103361904D01*
X118888428Y-103361904D01*
X119459857Y-103323809D02*
X119536047Y-103361904D01*
X119688428Y-103361904D01*
X119764619Y-103323809D01*
X119802714Y-103247619D01*
X119802714Y-103209523D01*
X119764619Y-103133333D01*
X119688428Y-103095238D01*
X119574142Y-103095238D01*
X119497952Y-103057142D01*
X119459857Y-102980952D01*
X119459857Y-102942857D01*
X119497952Y-102866666D01*
X119574142Y-102828571D01*
X119688428Y-102828571D01*
X119764619Y-102866666D01*
X120259857Y-103361904D02*
X120183666Y-103323809D01*
X120145571Y-103285714D01*
X120107476Y-103209523D01*
X120107476Y-102980952D01*
X120145571Y-102904761D01*
X120183666Y-102866666D01*
X120259857Y-102828571D01*
X120374142Y-102828571D01*
X120450333Y-102866666D01*
X120488428Y-102904761D01*
X120526523Y-102980952D01*
X120526523Y-103209523D01*
X120488428Y-103285714D01*
X120450333Y-103323809D01*
X120374142Y-103361904D01*
X120259857Y-103361904D01*
X120983666Y-103361904D02*
X120907476Y-103323809D01*
X120869380Y-103247619D01*
X120869380Y-102561904D01*
X121783666Y-102561904D02*
X122240809Y-102561904D01*
X122012238Y-103361904D02*
X122012238Y-102561904D01*
X122812238Y-103323809D02*
X122736047Y-103361904D01*
X122583666Y-103361904D01*
X122507476Y-103323809D01*
X122469380Y-103247619D01*
X122469380Y-102942857D01*
X122507476Y-102866666D01*
X122583666Y-102828571D01*
X122736047Y-102828571D01*
X122812238Y-102866666D01*
X122850333Y-102942857D01*
X122850333Y-103019047D01*
X122469380Y-103095238D01*
X123536047Y-103323809D02*
X123459857Y-103361904D01*
X123307476Y-103361904D01*
X123231285Y-103323809D01*
X123193190Y-103285714D01*
X123155095Y-103209523D01*
X123155095Y-102980952D01*
X123193190Y-102904761D01*
X123231285Y-102866666D01*
X123307476Y-102828571D01*
X123459857Y-102828571D01*
X123536047Y-102866666D01*
X123878904Y-103361904D02*
X123878904Y-102561904D01*
X124221761Y-103361904D02*
X124221761Y-102942857D01*
X124183666Y-102866666D01*
X124107476Y-102828571D01*
X123993190Y-102828571D01*
X123917000Y-102866666D01*
X123878904Y-102904761D01*
X124602714Y-102828571D02*
X124602714Y-103361904D01*
X124602714Y-102904761D02*
X124640809Y-102866666D01*
X124717000Y-102828571D01*
X124831285Y-102828571D01*
X124907476Y-102866666D01*
X124945571Y-102942857D01*
X124945571Y-103361904D01*
X125440809Y-103361904D02*
X125364619Y-103323809D01*
X125326523Y-103285714D01*
X125288428Y-103209523D01*
X125288428Y-102980952D01*
X125326523Y-102904761D01*
X125364619Y-102866666D01*
X125440809Y-102828571D01*
X125555095Y-102828571D01*
X125631285Y-102866666D01*
X125669380Y-102904761D01*
X125707476Y-102980952D01*
X125707476Y-103209523D01*
X125669380Y-103285714D01*
X125631285Y-103323809D01*
X125555095Y-103361904D01*
X125440809Y-103361904D01*
X126164619Y-103361904D02*
X126088428Y-103323809D01*
X126050333Y-103247619D01*
X126050333Y-102561904D01*
X126583666Y-103361904D02*
X126507476Y-103323809D01*
X126469380Y-103285714D01*
X126431285Y-103209523D01*
X126431285Y-102980952D01*
X126469380Y-102904761D01*
X126507476Y-102866666D01*
X126583666Y-102828571D01*
X126697952Y-102828571D01*
X126774142Y-102866666D01*
X126812238Y-102904761D01*
X126850333Y-102980952D01*
X126850333Y-103209523D01*
X126812238Y-103285714D01*
X126774142Y-103323809D01*
X126697952Y-103361904D01*
X126583666Y-103361904D01*
X127536047Y-102828571D02*
X127536047Y-103476190D01*
X127497952Y-103552380D01*
X127459857Y-103590476D01*
X127383666Y-103628571D01*
X127269380Y-103628571D01*
X127193190Y-103590476D01*
X127536047Y-103323809D02*
X127459857Y-103361904D01*
X127307476Y-103361904D01*
X127231285Y-103323809D01*
X127193190Y-103285714D01*
X127155095Y-103209523D01*
X127155095Y-102980952D01*
X127193190Y-102904761D01*
X127231285Y-102866666D01*
X127307476Y-102828571D01*
X127459857Y-102828571D01*
X127536047Y-102866666D01*
X127840809Y-102828571D02*
X128031285Y-103361904D01*
X128221761Y-102828571D02*
X128031285Y-103361904D01*
X127955095Y-103552380D01*
X127917000Y-103590476D01*
X127840809Y-103628571D01*
X129517000Y-103361904D02*
X129136047Y-103361904D01*
X129136047Y-102561904D01*
X130126523Y-103361904D02*
X130126523Y-102942857D01*
X130088428Y-102866666D01*
X130012238Y-102828571D01*
X129859857Y-102828571D01*
X129783666Y-102866666D01*
X130126523Y-103323809D02*
X130050333Y-103361904D01*
X129859857Y-103361904D01*
X129783666Y-103323809D01*
X129745571Y-103247619D01*
X129745571Y-103171428D01*
X129783666Y-103095238D01*
X129859857Y-103057142D01*
X130050333Y-103057142D01*
X130126523Y-103019047D01*
X130507476Y-103361904D02*
X130507476Y-102561904D01*
X130507476Y-102866666D02*
X130583666Y-102828571D01*
X130736047Y-102828571D01*
X130812238Y-102866666D01*
X130850333Y-102904761D01*
X130888428Y-102980952D01*
X130888428Y-103209523D01*
X130850333Y-103285714D01*
X130812238Y-103323809D01*
X130736047Y-103361904D01*
X130583666Y-103361904D01*
X130507476Y-103323809D01*
D13*
X123400000Y-129000000D02*
X123400000Y-134600000D01*
D10*
X126547619Y-131585714D02*
X126547619Y-132252380D01*
X126309523Y-131204761D02*
X126071428Y-131919047D01*
X126690476Y-131919047D01*
X127071428Y-132157142D02*
X127119047Y-132204761D01*
X127071428Y-132252380D01*
X127023809Y-132204761D01*
X127071428Y-132157142D01*
X127071428Y-132252380D01*
X127738095Y-131252380D02*
X127833333Y-131252380D01*
X127928571Y-131300000D01*
X127976190Y-131347619D01*
X128023809Y-131442857D01*
X128071428Y-131633333D01*
X128071428Y-131871428D01*
X128023809Y-132061904D01*
X127976190Y-132157142D01*
X127928571Y-132204761D01*
X127833333Y-132252380D01*
X127738095Y-132252380D01*
X127642857Y-132204761D01*
X127595238Y-132157142D01*
X127547619Y-132061904D01*
X127500000Y-131871428D01*
X127500000Y-131633333D01*
X127547619Y-131442857D01*
X127595238Y-131347619D01*
X127642857Y-131300000D01*
X127738095Y-131252380D01*
X128357142Y-131252380D02*
X128690476Y-132252380D01*
X129023809Y-131252380D01*
D11*
G36*
X131000000Y-134500000D02*
G01*
X126000000Y-134500000D01*
X126000000Y-133000000D01*
X131000000Y-133000000D01*
X131000000Y-134500000D01*
G37*
X131000000Y-134500000D02*
X126000000Y-134500000D01*
X126000000Y-133000000D01*
X131000000Y-133000000D01*
X131000000Y-134500000D01*
G36*
X125500000Y-134500000D02*
G01*
X124000000Y-134500000D01*
X124000000Y-133000000D01*
X125500000Y-133000000D01*
X125500000Y-134500000D01*
G37*
X125500000Y-134500000D02*
X124000000Y-134500000D01*
X124000000Y-133000000D01*
X125500000Y-133000000D01*
X125500000Y-134500000D01*
G36*
X125500000Y-132500000D02*
G01*
X124000000Y-132500000D01*
X124000000Y-131000000D01*
X125500000Y-131000000D01*
X125500000Y-132500000D01*
G37*
X125500000Y-132500000D02*
X124000000Y-132500000D01*
X124000000Y-131000000D01*
X125500000Y-131000000D01*
X125500000Y-132500000D01*
G36*
X125500000Y-130500000D02*
G01*
X124000000Y-130500000D01*
X124000000Y-129000000D01*
X125500000Y-129000000D01*
X125500000Y-130500000D01*
G37*
X125500000Y-130500000D02*
X124000000Y-130500000D01*
X124000000Y-129000000D01*
X125500000Y-129000000D01*
X125500000Y-130500000D01*
D10*
X126023809Y-129252380D02*
X126642857Y-129252380D01*
X126309523Y-129633333D01*
X126452380Y-129633333D01*
X126547619Y-129680952D01*
X126595238Y-129728571D01*
X126642857Y-129823809D01*
X126642857Y-130061904D01*
X126595238Y-130157142D01*
X126547619Y-130204761D01*
X126452380Y-130252380D01*
X126166666Y-130252380D01*
X126071428Y-130204761D01*
X126023809Y-130157142D01*
X127071428Y-130157142D02*
X127119047Y-130204761D01*
X127071428Y-130252380D01*
X127023809Y-130204761D01*
X127071428Y-130157142D01*
X127071428Y-130252380D01*
X127690476Y-129680952D02*
X127595238Y-129633333D01*
X127547619Y-129585714D01*
X127500000Y-129490476D01*
X127500000Y-129442857D01*
X127547619Y-129347619D01*
X127595238Y-129300000D01*
X127690476Y-129252380D01*
X127880952Y-129252380D01*
X127976190Y-129300000D01*
X128023809Y-129347619D01*
X128071428Y-129442857D01*
X128071428Y-129490476D01*
X128023809Y-129585714D01*
X127976190Y-129633333D01*
X127880952Y-129680952D01*
X127690476Y-129680952D01*
X127595238Y-129728571D01*
X127547619Y-129776190D01*
X127500000Y-129871428D01*
X127500000Y-130061904D01*
X127547619Y-130157142D01*
X127595238Y-130204761D01*
X127690476Y-130252380D01*
X127880952Y-130252380D01*
X127976190Y-130204761D01*
X128023809Y-130157142D01*
X128071428Y-130061904D01*
X128071428Y-129871428D01*
X128023809Y-129776190D01*
X127976190Y-129728571D01*
X127880952Y-129680952D01*
X128357142Y-129252380D02*
X128690476Y-130252380D01*
X129023809Y-129252380D01*
X118376190Y-129252380D02*
X118566666Y-129252380D01*
X118661904Y-129300000D01*
X118757142Y-129395238D01*
X118804761Y-129585714D01*
X118804761Y-129919047D01*
X118757142Y-130109523D01*
X118661904Y-130204761D01*
X118566666Y-130252380D01*
X118376190Y-130252380D01*
X118280952Y-130204761D01*
X118185714Y-130109523D01*
X118138095Y-129919047D01*
X118138095Y-129585714D01*
X118185714Y-129395238D01*
X118280952Y-129300000D01*
X118376190Y-129252380D01*
X119661904Y-129585714D02*
X119661904Y-130252380D01*
X119233333Y-129585714D02*
X119233333Y-130109523D01*
X119280952Y-130204761D01*
X119376190Y-130252380D01*
X119519047Y-130252380D01*
X119614285Y-130204761D01*
X119661904Y-130157142D01*
X119995238Y-129585714D02*
X120376190Y-129585714D01*
X120138095Y-129252380D02*
X120138095Y-130109523D01*
X120185714Y-130204761D01*
X120280952Y-130252380D01*
X120376190Y-130252380D01*
X120709523Y-129585714D02*
X120709523Y-130585714D01*
X120709523Y-129633333D02*
X120804761Y-129585714D01*
X120995238Y-129585714D01*
X121090476Y-129633333D01*
X121138095Y-129680952D01*
X121185714Y-129776190D01*
X121185714Y-130061904D01*
X121138095Y-130157142D01*
X121090476Y-130204761D01*
X120995238Y-130252380D01*
X120804761Y-130252380D01*
X120709523Y-130204761D01*
X122042857Y-129585714D02*
X122042857Y-130252380D01*
X121614285Y-129585714D02*
X121614285Y-130109523D01*
X121661904Y-130204761D01*
X121757142Y-130252380D01*
X121900000Y-130252380D01*
X121995238Y-130204761D01*
X122042857Y-130157142D01*
X122376190Y-129585714D02*
X122757142Y-129585714D01*
X122519047Y-129252380D02*
X122519047Y-130109523D01*
X122566666Y-130204761D01*
X122661904Y-130252380D01*
X122757142Y-130252380D01*
X108976190Y-131627380D02*
X108976190Y-130627380D01*
X109452380Y-130960714D02*
X109452380Y-131627380D01*
X109452380Y-131055952D02*
X109500000Y-131008333D01*
X109595238Y-130960714D01*
X109738095Y-130960714D01*
X109833333Y-131008333D01*
X109880952Y-131103571D01*
X109880952Y-131627380D01*
X110357142Y-130960714D02*
X110357142Y-131960714D01*
X110357142Y-131008333D02*
X110452380Y-130960714D01*
X110642857Y-130960714D01*
X110738095Y-131008333D01*
X110785714Y-131055952D01*
X110833333Y-131151190D01*
X110833333Y-131436904D01*
X110785714Y-131532142D01*
X110738095Y-131579761D01*
X110642857Y-131627380D01*
X110452380Y-131627380D01*
X110357142Y-131579761D01*
X111690476Y-130960714D02*
X111690476Y-131627380D01*
X111261904Y-130960714D02*
X111261904Y-131484523D01*
X111309523Y-131579761D01*
X111404761Y-131627380D01*
X111547619Y-131627380D01*
X111642857Y-131579761D01*
X111690476Y-131532142D01*
X112023809Y-130960714D02*
X112404761Y-130960714D01*
X112166666Y-130627380D02*
X112166666Y-131484523D01*
X112214285Y-131579761D01*
X112309523Y-131627380D01*
X112404761Y-131627380D01*
X112738095Y-131532142D02*
X112785714Y-131579761D01*
X112738095Y-131627380D01*
X112690476Y-131579761D01*
X112738095Y-131532142D01*
X112738095Y-131627380D01*
X112738095Y-131008333D02*
X112785714Y-131055952D01*
X112738095Y-131103571D01*
X112690476Y-131055952D01*
X112738095Y-131008333D01*
X112738095Y-131103571D01*
X113928571Y-130722619D02*
X113976190Y-130675000D01*
X114071428Y-130627380D01*
X114309523Y-130627380D01*
X114404761Y-130675000D01*
X114452380Y-130722619D01*
X114500000Y-130817857D01*
X114500000Y-130913095D01*
X114452380Y-131055952D01*
X113880952Y-131627380D01*
X114500000Y-131627380D01*
X115357142Y-130960714D02*
X115357142Y-131627380D01*
X115119047Y-130579761D02*
X114880952Y-131294047D01*
X115500000Y-131294047D01*
X115738095Y-130627380D02*
X116071428Y-131627380D01*
X116404761Y-130627380D01*
X108714285Y-133658333D02*
X108666666Y-133610714D01*
X108571428Y-133467857D01*
X108523809Y-133372619D01*
X108476190Y-133229761D01*
X108428571Y-132991666D01*
X108428571Y-132801190D01*
X108476190Y-132563095D01*
X108523809Y-132420238D01*
X108571428Y-132325000D01*
X108666666Y-132182142D01*
X108714285Y-132134523D01*
X109619047Y-133277380D02*
X109047619Y-133277380D01*
X109333333Y-133277380D02*
X109333333Y-132277380D01*
X109238095Y-132420238D01*
X109142857Y-132515476D01*
X109047619Y-132563095D01*
X110238095Y-132277380D02*
X110333333Y-132277380D01*
X110428571Y-132325000D01*
X110476190Y-132372619D01*
X110523809Y-132467857D01*
X110571428Y-132658333D01*
X110571428Y-132896428D01*
X110523809Y-133086904D01*
X110476190Y-133182142D01*
X110428571Y-133229761D01*
X110333333Y-133277380D01*
X110238095Y-133277380D01*
X110142857Y-133229761D01*
X110095238Y-133182142D01*
X110047619Y-133086904D01*
X110000000Y-132896428D01*
X110000000Y-132658333D01*
X110047619Y-132467857D01*
X110095238Y-132372619D01*
X110142857Y-132325000D01*
X110238095Y-132277380D01*
X110857142Y-132277380D02*
X111190476Y-133277380D01*
X111523809Y-132277380D01*
X112619047Y-132896428D02*
X113380952Y-132896428D01*
X114523809Y-132277380D02*
X115142857Y-132277380D01*
X114809523Y-132658333D01*
X114952380Y-132658333D01*
X115047619Y-132705952D01*
X115095238Y-132753571D01*
X115142857Y-132848809D01*
X115142857Y-133086904D01*
X115095238Y-133182142D01*
X115047619Y-133229761D01*
X114952380Y-133277380D01*
X114666666Y-133277380D01*
X114571428Y-133229761D01*
X114523809Y-133182142D01*
X115761904Y-132277380D02*
X115857142Y-132277380D01*
X115952380Y-132325000D01*
X116000000Y-132372619D01*
X116047619Y-132467857D01*
X116095238Y-132658333D01*
X116095238Y-132896428D01*
X116047619Y-133086904D01*
X116000000Y-133182142D01*
X115952380Y-133229761D01*
X115857142Y-133277380D01*
X115761904Y-133277380D01*
X115666666Y-133229761D01*
X115619047Y-133182142D01*
X115571428Y-133086904D01*
X115523809Y-132896428D01*
X115523809Y-132658333D01*
X115571428Y-132467857D01*
X115619047Y-132372619D01*
X115666666Y-132325000D01*
X115761904Y-132277380D01*
X116380952Y-132277380D02*
X116714285Y-133277380D01*
X117047619Y-132277380D01*
X117285714Y-133658333D02*
X117333333Y-133610714D01*
X117428571Y-133467857D01*
X117476190Y-133372619D01*
X117523809Y-133229761D01*
X117571428Y-132991666D01*
X117571428Y-132801190D01*
X117523809Y-132563095D01*
X117476190Y-132420238D01*
X117428571Y-132325000D01*
X117333333Y-132182142D01*
X117285714Y-132134523D01*
D14*
X86428571Y-112107142D02*
X87571428Y-112107142D01*
X86428571Y-110107142D02*
X87571428Y-110107142D01*
X87000000Y-110678571D02*
X87000000Y-109535714D01*
D13*
X91700000Y-118000000D02*
X91700000Y-117100000D01*
X91700000Y-119900000D02*
X91700000Y-119000000D01*
X86300000Y-117100000D02*
X91700000Y-117100000D01*
X86300000Y-119900000D02*
X86300000Y-117100000D01*
X91700000Y-119900000D02*
X86300000Y-119900000D01*
X91700000Y-119000000D02*
G75*
G02*
X91700000Y-118000000I0J500000D01*
G01*
D15*
G36*
X108509735Y-123824283D02*
G01*
X108530295Y-123764119D01*
X108564318Y-123701115D01*
X108581526Y-123674469D01*
X108614148Y-123629991D01*
X108654311Y-123583497D01*
X108703898Y-123533180D01*
X108764790Y-123477235D01*
X108838867Y-123413855D01*
X108928011Y-123341234D01*
X108931402Y-123338523D01*
X108991075Y-123289406D01*
X109058784Y-123231342D01*
X109128279Y-123169833D01*
X109193309Y-123110382D01*
X109230057Y-123075609D01*
X109334098Y-122977254D01*
X109427435Y-122893310D01*
X109512117Y-122822369D01*
X109590194Y-122763022D01*
X109663715Y-122713861D01*
X109734728Y-122673477D01*
X109805284Y-122640463D01*
X109877431Y-122613409D01*
X109923253Y-122599186D01*
X109978237Y-122585790D01*
X110040554Y-122574344D01*
X110097627Y-122567121D01*
X110102896Y-122566693D01*
X110193805Y-122559830D01*
X110244964Y-122495989D01*
X110317744Y-122416687D01*
X110406201Y-122339031D01*
X110505737Y-122266020D01*
X110611753Y-122200652D01*
X110719652Y-122145922D01*
X110824836Y-122104829D01*
X110862161Y-122093676D01*
X110923602Y-122081364D01*
X110996466Y-122073555D01*
X111074382Y-122070344D01*
X111150978Y-122071823D01*
X111219881Y-122078086D01*
X111269344Y-122087697D01*
X111304010Y-122096654D01*
X111327098Y-122099695D01*
X111346640Y-122096240D01*
X111370664Y-122085708D01*
X111383161Y-122079467D01*
X111473853Y-122044204D01*
X111576057Y-122022412D01*
X111686278Y-122013863D01*
X111801021Y-122018329D01*
X111916790Y-122035582D01*
X112030092Y-122065392D01*
X112137431Y-122107531D01*
X112185581Y-122131945D01*
X112285421Y-122195159D01*
X112368022Y-122265380D01*
X112432635Y-122341787D01*
X112478507Y-122423561D01*
X112495471Y-122470505D01*
X112508732Y-122536842D01*
X112507885Y-122602937D01*
X112497357Y-122660251D01*
X112482219Y-122712010D01*
X112462203Y-122758401D01*
X112435043Y-122802378D01*
X112398475Y-122846894D01*
X112350235Y-122894902D01*
X112288058Y-122949356D01*
X112254226Y-122977322D01*
X112189283Y-123031690D01*
X112137904Y-123078399D01*
X112096770Y-123121100D01*
X112062565Y-123163443D01*
X112031971Y-123209079D01*
X112010758Y-123245238D01*
X111971560Y-123305429D01*
X111926733Y-123353487D01*
X111871050Y-123394206D01*
X111814917Y-123424845D01*
X111758344Y-123454216D01*
X111714504Y-123481855D01*
X111680767Y-123511332D01*
X111654505Y-123546217D01*
X111633089Y-123590082D01*
X111613890Y-123646494D01*
X111594280Y-123719026D01*
X111592177Y-123727375D01*
X111559117Y-123841111D01*
X111520835Y-123937015D01*
X111475871Y-124017223D01*
X111422766Y-124083873D01*
X111360058Y-124139102D01*
X111286287Y-124185045D01*
X111275639Y-124190533D01*
X111189544Y-124233960D01*
X111140278Y-124353261D01*
X111065491Y-124515778D01*
X110982871Y-124660227D01*
X110892577Y-124786420D01*
X110794768Y-124894169D01*
X110689604Y-124983287D01*
X110577242Y-125053584D01*
X110528213Y-125077331D01*
X110495071Y-125093248D01*
X110470711Y-125107181D01*
X110459816Y-125116410D01*
X110459633Y-125117138D01*
X110454102Y-125136625D01*
X110439851Y-125168569D01*
X110419365Y-125208476D01*
X110395130Y-125251852D01*
X110369632Y-125294205D01*
X110345356Y-125331041D01*
X110329644Y-125352102D01*
X110279783Y-125413604D01*
X110273653Y-125535512D01*
X110267754Y-125614433D01*
X110257583Y-125693504D01*
X110242327Y-125776921D01*
X110221174Y-125868882D01*
X110193309Y-125973582D01*
X110179127Y-126023339D01*
X110153841Y-126108253D01*
X110131541Y-126177075D01*
X110110714Y-126233532D01*
X110089846Y-126281347D01*
X110067425Y-126324246D01*
X110041938Y-126365952D01*
X110036666Y-126373985D01*
X109982891Y-126444755D01*
X109924862Y-126499430D01*
X109858094Y-126542232D01*
X109857744Y-126542416D01*
X109829549Y-126556057D01*
X109803981Y-126564475D01*
X109774533Y-126568895D01*
X109734699Y-126570543D01*
X109719216Y-126570639D01*
X109719216Y-126478345D01*
X109782630Y-126462627D01*
X109842915Y-126428614D01*
X109898561Y-126377319D01*
X109948059Y-126309754D01*
X109975473Y-126259156D01*
X109996841Y-126207677D01*
X110019677Y-126140509D01*
X110042940Y-126062014D01*
X110065589Y-125976551D01*
X110086584Y-125888482D01*
X110104885Y-125802167D01*
X110119451Y-125721967D01*
X110129242Y-125652244D01*
X110133205Y-125598034D01*
X110134240Y-125539708D01*
X110084086Y-125570568D01*
X110050072Y-125589025D01*
X110005376Y-125609979D01*
X109958578Y-125629457D01*
X109949466Y-125632921D01*
X109857863Y-125657871D01*
X109752235Y-125670032D01*
X109676291Y-125669563D01*
X109676291Y-125571546D01*
X109738212Y-125570516D01*
X109786596Y-125566803D01*
X109828135Y-125559629D01*
X109865000Y-125549635D01*
X109960251Y-125511556D01*
X110054179Y-125458112D01*
X110140134Y-125393548D01*
X110199006Y-125336392D01*
X110220174Y-125310928D01*
X110244792Y-125278298D01*
X110269816Y-125242962D01*
X110292196Y-125209378D01*
X110308888Y-125182004D01*
X110316844Y-125165300D01*
X110317120Y-125163548D01*
X110307595Y-125160905D01*
X110281561Y-125158727D01*
X110242827Y-125157221D01*
X110195202Y-125156591D01*
X110187580Y-125156584D01*
X110106979Y-125155067D01*
X110037234Y-125149612D01*
X109970311Y-125139062D01*
X109898179Y-125122261D01*
X109843188Y-125107003D01*
X109802208Y-125094223D01*
X109757355Y-125078781D01*
X109712465Y-125062192D01*
X109671373Y-125045972D01*
X109637913Y-125031636D01*
X109615919Y-125020700D01*
X109609228Y-125014678D01*
X109609310Y-125014584D01*
X109620122Y-125015251D01*
X109646339Y-125020043D01*
X109683663Y-125028109D01*
X109715395Y-125035562D01*
X109876198Y-125066774D01*
X110027273Y-125080163D01*
X110168672Y-125075720D01*
X110300450Y-125053433D01*
X110422660Y-125013290D01*
X110535355Y-124955281D01*
X110638588Y-124879393D01*
X110691316Y-124830068D01*
X110741050Y-124774542D01*
X110794611Y-124705952D01*
X110847917Y-124629950D01*
X110896888Y-124552190D01*
X110916086Y-124518739D01*
X110932620Y-124487493D01*
X110952591Y-124447594D01*
X110974084Y-124403150D01*
X110995182Y-124358266D01*
X111013971Y-124317049D01*
X111028533Y-124283607D01*
X111036954Y-124262045D01*
X111038273Y-124256820D01*
X111029597Y-124251457D01*
X111023240Y-124250780D01*
X111023240Y-124141496D01*
X111121880Y-124133317D01*
X111208784Y-124108680D01*
X111284516Y-124067302D01*
X111349638Y-124008900D01*
X111389435Y-123957405D01*
X111411445Y-123922146D01*
X111429698Y-123886455D01*
X111445685Y-123846202D01*
X111460896Y-123797258D01*
X111476820Y-123735489D01*
X111490105Y-123678371D01*
X111502283Y-123629225D01*
X111515589Y-123583132D01*
X111528097Y-123546445D01*
X111534946Y-123530533D01*
X111555474Y-123490295D01*
X111507797Y-123494688D01*
X111480440Y-123494212D01*
X111480440Y-123355120D01*
X111485520Y-123350040D01*
X111480440Y-123344960D01*
X111475360Y-123350040D01*
X111480440Y-123355120D01*
X111480440Y-123494212D01*
X111453228Y-123493738D01*
X111439800Y-123491568D01*
X111439800Y-123416080D01*
X111444880Y-123411000D01*
X111439800Y-123405920D01*
X111434720Y-123411000D01*
X111439800Y-123416080D01*
X111439800Y-123491568D01*
X111387911Y-123483180D01*
X111318140Y-123464470D01*
X111250211Y-123439061D01*
X111232756Y-123431124D01*
X111191421Y-123409256D01*
X111153421Y-123383473D01*
X111113364Y-123349684D01*
X111068622Y-123306572D01*
X111027133Y-123263712D01*
X110996280Y-123227694D01*
X110971385Y-123192004D01*
X110947770Y-123150131D01*
X110928341Y-123111280D01*
X110875279Y-122979819D01*
X110841321Y-122844116D01*
X110826812Y-122706246D01*
X110832098Y-122568281D01*
X110834597Y-122547870D01*
X110842306Y-122494834D01*
X110848538Y-122462038D01*
X110853257Y-122449456D01*
X110856428Y-122457060D01*
X110858017Y-122484821D01*
X110857988Y-122532713D01*
X110857314Y-122565877D01*
X110862171Y-122708555D01*
X110883778Y-122843106D01*
X110921664Y-122968275D01*
X110975356Y-123082808D01*
X111044383Y-123185450D01*
X111122067Y-123269266D01*
X111179972Y-123315474D01*
X111244616Y-123354736D01*
X111310103Y-123384016D01*
X111370532Y-123400278D01*
X111378840Y-123401412D01*
X111429640Y-123407302D01*
X111380597Y-123381161D01*
X111299918Y-123332800D01*
X111234950Y-123281470D01*
X111204888Y-123251439D01*
X111181134Y-123223248D01*
X111157090Y-123190787D01*
X111135560Y-123158421D01*
X111119345Y-123130518D01*
X111111246Y-123111442D01*
X111111528Y-123105965D01*
X111119389Y-123111044D01*
X111135596Y-123128627D01*
X111154941Y-123152729D01*
X111184063Y-123185472D01*
X111221941Y-123220912D01*
X111257872Y-123249499D01*
X111294682Y-123273398D01*
X111336274Y-123296728D01*
X111378071Y-123317353D01*
X111415496Y-123333138D01*
X111443972Y-123341947D01*
X111457254Y-123342529D01*
X111455147Y-123335254D01*
X111439866Y-123319374D01*
X111414665Y-123298243D01*
X111413040Y-123296983D01*
X111353502Y-123242641D01*
X111300556Y-123178418D01*
X111258741Y-123110424D01*
X111237306Y-123060314D01*
X111228607Y-123033706D01*
X111226755Y-123024101D01*
X111231981Y-123029288D01*
X111239459Y-123039797D01*
X111287472Y-123105625D01*
X111330871Y-123157505D01*
X111374004Y-123199726D01*
X111421218Y-123236575D01*
X111472621Y-123269795D01*
X111556081Y-123310422D01*
X111641227Y-123331883D01*
X111702824Y-123336070D01*
X111772653Y-123327244D01*
X111831975Y-123301184D01*
X111879970Y-123258519D01*
X111915819Y-123199878D01*
X111929750Y-123162080D01*
X111940861Y-123105403D01*
X111945392Y-123034465D01*
X111943368Y-122954224D01*
X111934813Y-122869636D01*
X111928068Y-122827114D01*
X111911573Y-122725582D01*
X111901770Y-122640208D01*
X111898760Y-122567929D01*
X111902643Y-122505682D01*
X111913516Y-122450405D01*
X111931481Y-122399034D01*
X111942743Y-122374680D01*
X111963667Y-122334620D01*
X111980585Y-122305873D01*
X111992298Y-122289563D01*
X111997604Y-122286810D01*
X111995303Y-122298736D01*
X111984195Y-122326464D01*
X111976664Y-122342985D01*
X111955575Y-122392619D01*
X111941263Y-122439255D01*
X111933708Y-122486504D01*
X111932887Y-122537976D01*
X111938776Y-122597283D01*
X111951355Y-122668035D01*
X111970599Y-122753844D01*
X111974028Y-122768107D01*
X111991051Y-122837065D01*
X112004383Y-122886194D01*
X112014658Y-122915426D01*
X112022513Y-122924693D01*
X112028583Y-122913928D01*
X112033503Y-122883061D01*
X112037907Y-122832024D01*
X112042432Y-122760760D01*
X112050214Y-122628680D01*
X112064597Y-122689640D01*
X112070872Y-122726804D01*
X112075862Y-122776333D01*
X112078872Y-122830279D01*
X112079430Y-122858960D01*
X112079809Y-122902840D01*
X112080485Y-122937757D01*
X112081356Y-122959659D01*
X112082128Y-122965085D01*
X112086539Y-122955200D01*
X112096052Y-122931262D01*
X112108684Y-122898265D01*
X112109866Y-122895129D01*
X112124519Y-122847071D01*
X112137012Y-122785530D01*
X112147902Y-122707586D01*
X112151293Y-122677243D01*
X112159791Y-122600306D01*
X112166909Y-122543273D01*
X112172787Y-122505787D01*
X112177565Y-122487490D01*
X112181382Y-122488022D01*
X112184377Y-122507026D01*
X112186692Y-122544144D01*
X112188045Y-122582960D01*
X112189241Y-122642020D01*
X112189714Y-122703404D01*
X112189440Y-122759020D01*
X112188672Y-122793780D01*
X112188101Y-122832151D01*
X112189143Y-122861286D01*
X112191571Y-122876461D01*
X112192671Y-122877600D01*
X112205180Y-122870962D01*
X112227673Y-122853570D01*
X112255939Y-122829212D01*
X112285767Y-122801673D01*
X112312946Y-122774739D01*
X112333263Y-122752197D01*
X112335960Y-122748776D01*
X112372113Y-122686503D01*
X112392848Y-122617377D01*
X112397209Y-122546672D01*
X112384572Y-122480630D01*
X112353009Y-122416518D01*
X112303589Y-122353332D01*
X112238755Y-122292896D01*
X112160951Y-122237037D01*
X112072619Y-122187580D01*
X111976203Y-122146351D01*
X111907160Y-122123915D01*
X111869237Y-122114141D01*
X111832983Y-122107509D01*
X111792923Y-122103470D01*
X111743582Y-122101474D01*
X111679487Y-122100973D01*
X111678560Y-122100974D01*
X111617027Y-122101450D01*
X111570995Y-122103088D01*
X111535651Y-122106414D01*
X111506187Y-122111952D01*
X111477791Y-122120229D01*
X111466352Y-122124177D01*
X111373158Y-122165695D01*
X111296085Y-122218614D01*
X111234734Y-122283544D01*
X111188706Y-122361099D01*
X111157603Y-122451889D01*
X111141027Y-122556528D01*
X111137869Y-122628680D01*
X111137168Y-122740440D01*
X111122991Y-122689640D01*
X111115388Y-122647982D01*
X111111975Y-122591245D01*
X111112606Y-122516997D01*
X111112609Y-122516920D01*
X111115015Y-122460209D01*
X111118775Y-122417965D01*
X111124851Y-122384338D01*
X111134204Y-122353481D01*
X111143333Y-122330114D01*
X111161363Y-122290903D01*
X111181137Y-122254263D01*
X111195811Y-122231732D01*
X111211711Y-122209878D01*
X111220648Y-122195640D01*
X111221360Y-122193629D01*
X111212210Y-122189591D01*
X111188208Y-122183408D01*
X111154520Y-122176410D01*
X111154032Y-122176318D01*
X111098405Y-122169990D01*
X111030729Y-122168537D01*
X110958590Y-122171607D01*
X110889575Y-122178850D01*
X110831270Y-122189913D01*
X110825120Y-122191545D01*
X110743293Y-122220501D01*
X110654371Y-122263081D01*
X110563149Y-122316433D01*
X110474422Y-122377705D01*
X110392987Y-122444043D01*
X110378506Y-122457196D01*
X110293151Y-122549706D01*
X110224101Y-122653333D01*
X110171693Y-122766629D01*
X110136264Y-122888146D01*
X110118151Y-123016435D01*
X110117690Y-123150046D01*
X110135220Y-123287531D01*
X110160727Y-123393533D01*
X110203483Y-123511976D01*
X110260677Y-123625052D01*
X110330436Y-123731135D01*
X110410885Y-123828600D01*
X110500150Y-123915822D01*
X110596357Y-123991175D01*
X110697632Y-124053036D01*
X110802102Y-124099778D01*
X110907891Y-124129776D01*
X111013127Y-124141405D01*
X111023240Y-124141496D01*
X111023240Y-124250780D01*
X111008423Y-124249201D01*
X111008206Y-124249200D01*
X110983552Y-124247296D01*
X110946480Y-124242269D01*
X110904462Y-124235153D01*
X110898986Y-124234121D01*
X110849535Y-124224985D01*
X110791430Y-124214706D01*
X110736087Y-124205297D01*
X110728600Y-124204064D01*
X110633958Y-124184657D01*
X110541108Y-124157056D01*
X110444230Y-124119292D01*
X110352680Y-124076904D01*
X110220532Y-124001344D01*
X110102819Y-123911578D01*
X109999872Y-123807955D01*
X109912021Y-123690825D01*
X109839597Y-123560535D01*
X109817781Y-123511478D01*
X109786238Y-123431482D01*
X109763476Y-123361232D01*
X109748053Y-123293879D01*
X109738527Y-123222575D01*
X109733455Y-123140471D01*
X109732423Y-123106200D01*
X109731284Y-123050876D01*
X109731131Y-123013661D01*
X109732243Y-122994874D01*
X109734899Y-122994831D01*
X109739381Y-123013852D01*
X109745967Y-123052254D01*
X109754938Y-123110354D01*
X109758808Y-123136179D01*
X109788440Y-123268229D01*
X109836613Y-123397704D01*
X109901549Y-123522047D01*
X109981470Y-123638698D01*
X110074596Y-123745099D01*
X110179150Y-123838690D01*
X110293354Y-123916915D01*
X110306975Y-123924781D01*
X110357265Y-123952732D01*
X110391070Y-123969867D01*
X110409179Y-123976065D01*
X110412387Y-123971202D01*
X110401483Y-123955158D01*
X110377261Y-123927811D01*
X110365938Y-123915710D01*
X110267890Y-123797942D01*
X110186028Y-123670519D01*
X110121014Y-123535421D01*
X110073511Y-123394629D01*
X110044181Y-123250123D01*
X110033688Y-123103885D01*
X110042693Y-122957893D01*
X110043481Y-122951996D01*
X110052209Y-122905745D01*
X110066658Y-122847680D01*
X110084786Y-122784766D01*
X110104550Y-122723968D01*
X110123910Y-122672250D01*
X110129033Y-122660225D01*
X110132120Y-122650439D01*
X110127936Y-122645343D01*
X110112712Y-122644237D01*
X110082677Y-122646417D01*
X110064378Y-122648179D01*
X109944446Y-122669957D01*
X109823685Y-122711501D01*
X109703189Y-122772347D01*
X109585088Y-122851251D01*
X109552988Y-122876827D01*
X109509459Y-122913610D01*
X109457742Y-122958747D01*
X109401077Y-123009387D01*
X109342706Y-123062675D01*
X109304564Y-123098153D01*
X109248494Y-123150379D01*
X109193615Y-123200847D01*
X109142789Y-123246972D01*
X109098877Y-123286174D01*
X109064740Y-123315869D01*
X109047539Y-123330137D01*
X108952154Y-123406711D01*
X108871777Y-123473023D01*
X108804855Y-123530587D01*
X108749840Y-123580920D01*
X108705180Y-123625537D01*
X108669324Y-123665954D01*
X108640722Y-123703688D01*
X108617824Y-123740253D01*
X108606855Y-123760900D01*
X108578879Y-123827098D01*
X108564790Y-123889588D01*
X108563733Y-123955328D01*
X108574086Y-124027456D01*
X108606480Y-124139254D01*
X108657792Y-124246853D01*
X108726884Y-124349305D01*
X108812615Y-124445664D01*
X108913846Y-124534984D01*
X109029439Y-124616318D01*
X109158253Y-124688721D01*
X109299149Y-124751245D01*
X109450988Y-124802944D01*
X109534800Y-124825459D01*
X109608524Y-124840650D01*
X109679553Y-124849984D01*
X109744208Y-124853355D01*
X109798813Y-124850656D01*
X109839691Y-124841779D01*
X109854235Y-124834731D01*
X109872510Y-124820027D01*
X109879018Y-124803195D01*
X109877208Y-124775609D01*
X109869999Y-124746689D01*
X109854896Y-124714185D01*
X109830509Y-124676185D01*
X109795448Y-124630774D01*
X109748323Y-124576039D01*
X109687746Y-124510066D01*
X109673061Y-124494474D01*
X109569425Y-124377799D01*
X109483637Y-124265037D01*
X109414362Y-124153402D01*
X109360265Y-124040103D01*
X109320012Y-123922354D01*
X109292266Y-123797366D01*
X109275911Y-123665000D01*
X109273847Y-123628140D01*
X109275401Y-123610649D01*
X109280676Y-123612647D01*
X109289774Y-123634251D01*
X109302800Y-123675579D01*
X109311364Y-123705640D01*
X109359901Y-123851710D01*
X109421796Y-123991071D01*
X109494774Y-124118955D01*
X109538668Y-124182475D01*
X109564035Y-124214277D01*
X109600667Y-124256943D01*
X109645434Y-124306993D01*
X109695208Y-124360949D01*
X109746859Y-124415330D01*
X109763449Y-124432434D01*
X109830060Y-124501833D01*
X109882948Y-124559941D01*
X109923509Y-124609040D01*
X109953144Y-124651412D01*
X109973250Y-124689339D01*
X109985227Y-124725102D01*
X109990472Y-124760982D01*
X109990384Y-124799262D01*
X109990197Y-124802364D01*
X109986307Y-124841672D01*
X109979028Y-124868196D01*
X109965736Y-124889458D01*
X109955969Y-124900516D01*
X109928378Y-124924775D01*
X109898606Y-124943904D01*
X109893266Y-124946412D01*
X109861745Y-124954299D01*
X109815384Y-124958838D01*
X109759382Y-124960060D01*
X109698936Y-124957997D01*
X109639243Y-124952679D01*
X109587711Y-124944589D01*
X109528822Y-124930467D01*
X109458115Y-124910049D01*
X109381514Y-124885361D01*
X109304943Y-124858428D01*
X109234324Y-124831276D01*
X109175583Y-124805932D01*
X109159400Y-124798102D01*
X109086385Y-124757986D01*
X109008791Y-124709528D01*
X108933277Y-124657227D01*
X108866498Y-124605586D01*
X108837241Y-124580310D01*
X108807350Y-124554168D01*
X108782639Y-124534382D01*
X108767260Y-124524211D01*
X108764992Y-124523520D01*
X108756482Y-124532240D01*
X108744313Y-124554851D01*
X108733826Y-124579633D01*
X108704424Y-124684153D01*
X108694184Y-124791672D01*
X108702618Y-124900012D01*
X108729239Y-125006998D01*
X108773558Y-125110451D01*
X108835089Y-125208194D01*
X108889159Y-125273149D01*
X108984778Y-125361225D01*
X109093701Y-125434231D01*
X109215374Y-125491955D01*
X109349242Y-125534187D01*
X109494751Y-125560719D01*
X109651346Y-125571338D01*
X109676291Y-125571546D01*
X109676291Y-125669563D01*
X109634430Y-125669303D01*
X109515171Y-125656910D01*
X109442764Y-125643942D01*
X109366403Y-125626224D01*
X109291915Y-125605406D01*
X109225126Y-125583138D01*
X109171864Y-125561069D01*
X109165515Y-125557935D01*
X109140729Y-125546795D01*
X109124489Y-125542171D01*
X109121865Y-125542669D01*
X109120559Y-125554735D01*
X109121783Y-125582637D01*
X109125068Y-125622110D01*
X109129941Y-125668892D01*
X109135932Y-125718721D01*
X109142570Y-125767335D01*
X109149384Y-125810470D01*
X109154386Y-125836947D01*
X109188083Y-125963991D01*
X109232967Y-126080423D01*
X109287954Y-126184862D01*
X109351960Y-126275925D01*
X109423903Y-126352229D01*
X109502699Y-126412392D01*
X109587264Y-126455032D01*
X109654181Y-126474756D01*
X109719216Y-126478345D01*
X109719216Y-126570639D01*
X109707520Y-126570712D01*
X109660877Y-126570221D01*
X109627192Y-126567597D01*
X109599108Y-126561194D01*
X109569268Y-126549369D01*
X109532581Y-126531609D01*
X109435151Y-126471734D01*
X109348153Y-126395045D01*
X109272043Y-126302433D01*
X109207278Y-126194784D01*
X109154313Y-126072990D01*
X109113602Y-125937937D01*
X109085603Y-125790515D01*
X109070770Y-125631612D01*
X109070723Y-125630657D01*
X109064515Y-125503353D01*
X109014083Y-125473177D01*
X108964223Y-125437842D01*
X108909237Y-125389779D01*
X108854029Y-125333931D01*
X108803504Y-125275241D01*
X108764460Y-125221586D01*
X108706426Y-125118476D01*
X108667259Y-125015360D01*
X108645836Y-124908579D01*
X108640720Y-124818161D01*
X108646124Y-124722472D01*
X108663486Y-124636254D01*
X108694528Y-124551419D01*
X108700264Y-124538760D01*
X108728497Y-124477800D01*
X108680216Y-124416356D01*
X108606441Y-124307547D01*
X108551689Y-124193445D01*
X108516358Y-124075056D01*
X108501371Y-123963619D01*
X108500729Y-123888490D01*
X108509735Y-123824283D01*
G37*
X108509735Y-123824283D02*
X108530295Y-123764119D01*
X108564318Y-123701115D01*
X108581526Y-123674469D01*
X108614148Y-123629991D01*
X108654311Y-123583497D01*
X108703898Y-123533180D01*
X108764790Y-123477235D01*
X108838867Y-123413855D01*
X108928011Y-123341234D01*
X108931402Y-123338523D01*
X108991075Y-123289406D01*
X109058784Y-123231342D01*
X109128279Y-123169833D01*
X109193309Y-123110382D01*
X109230057Y-123075609D01*
X109334098Y-122977254D01*
X109427435Y-122893310D01*
X109512117Y-122822369D01*
X109590194Y-122763022D01*
X109663715Y-122713861D01*
X109734728Y-122673477D01*
X109805284Y-122640463D01*
X109877431Y-122613409D01*
X109923253Y-122599186D01*
X109978237Y-122585790D01*
X110040554Y-122574344D01*
X110097627Y-122567121D01*
X110102896Y-122566693D01*
X110193805Y-122559830D01*
X110244964Y-122495989D01*
X110317744Y-122416687D01*
X110406201Y-122339031D01*
X110505737Y-122266020D01*
X110611753Y-122200652D01*
X110719652Y-122145922D01*
X110824836Y-122104829D01*
X110862161Y-122093676D01*
X110923602Y-122081364D01*
X110996466Y-122073555D01*
X111074382Y-122070344D01*
X111150978Y-122071823D01*
X111219881Y-122078086D01*
X111269344Y-122087697D01*
X111304010Y-122096654D01*
X111327098Y-122099695D01*
X111346640Y-122096240D01*
X111370664Y-122085708D01*
X111383161Y-122079467D01*
X111473853Y-122044204D01*
X111576057Y-122022412D01*
X111686278Y-122013863D01*
X111801021Y-122018329D01*
X111916790Y-122035582D01*
X112030092Y-122065392D01*
X112137431Y-122107531D01*
X112185581Y-122131945D01*
X112285421Y-122195159D01*
X112368022Y-122265380D01*
X112432635Y-122341787D01*
X112478507Y-122423561D01*
X112495471Y-122470505D01*
X112508732Y-122536842D01*
X112507885Y-122602937D01*
X112497357Y-122660251D01*
X112482219Y-122712010D01*
X112462203Y-122758401D01*
X112435043Y-122802378D01*
X112398475Y-122846894D01*
X112350235Y-122894902D01*
X112288058Y-122949356D01*
X112254226Y-122977322D01*
X112189283Y-123031690D01*
X112137904Y-123078399D01*
X112096770Y-123121100D01*
X112062565Y-123163443D01*
X112031971Y-123209079D01*
X112010758Y-123245238D01*
X111971560Y-123305429D01*
X111926733Y-123353487D01*
X111871050Y-123394206D01*
X111814917Y-123424845D01*
X111758344Y-123454216D01*
X111714504Y-123481855D01*
X111680767Y-123511332D01*
X111654505Y-123546217D01*
X111633089Y-123590082D01*
X111613890Y-123646494D01*
X111594280Y-123719026D01*
X111592177Y-123727375D01*
X111559117Y-123841111D01*
X111520835Y-123937015D01*
X111475871Y-124017223D01*
X111422766Y-124083873D01*
X111360058Y-124139102D01*
X111286287Y-124185045D01*
X111275639Y-124190533D01*
X111189544Y-124233960D01*
X111140278Y-124353261D01*
X111065491Y-124515778D01*
X110982871Y-124660227D01*
X110892577Y-124786420D01*
X110794768Y-124894169D01*
X110689604Y-124983287D01*
X110577242Y-125053584D01*
X110528213Y-125077331D01*
X110495071Y-125093248D01*
X110470711Y-125107181D01*
X110459816Y-125116410D01*
X110459633Y-125117138D01*
X110454102Y-125136625D01*
X110439851Y-125168569D01*
X110419365Y-125208476D01*
X110395130Y-125251852D01*
X110369632Y-125294205D01*
X110345356Y-125331041D01*
X110329644Y-125352102D01*
X110279783Y-125413604D01*
X110273653Y-125535512D01*
X110267754Y-125614433D01*
X110257583Y-125693504D01*
X110242327Y-125776921D01*
X110221174Y-125868882D01*
X110193309Y-125973582D01*
X110179127Y-126023339D01*
X110153841Y-126108253D01*
X110131541Y-126177075D01*
X110110714Y-126233532D01*
X110089846Y-126281347D01*
X110067425Y-126324246D01*
X110041938Y-126365952D01*
X110036666Y-126373985D01*
X109982891Y-126444755D01*
X109924862Y-126499430D01*
X109858094Y-126542232D01*
X109857744Y-126542416D01*
X109829549Y-126556057D01*
X109803981Y-126564475D01*
X109774533Y-126568895D01*
X109734699Y-126570543D01*
X109719216Y-126570639D01*
X109719216Y-126478345D01*
X109782630Y-126462627D01*
X109842915Y-126428614D01*
X109898561Y-126377319D01*
X109948059Y-126309754D01*
X109975473Y-126259156D01*
X109996841Y-126207677D01*
X110019677Y-126140509D01*
X110042940Y-126062014D01*
X110065589Y-125976551D01*
X110086584Y-125888482D01*
X110104885Y-125802167D01*
X110119451Y-125721967D01*
X110129242Y-125652244D01*
X110133205Y-125598034D01*
X110134240Y-125539708D01*
X110084086Y-125570568D01*
X110050072Y-125589025D01*
X110005376Y-125609979D01*
X109958578Y-125629457D01*
X109949466Y-125632921D01*
X109857863Y-125657871D01*
X109752235Y-125670032D01*
X109676291Y-125669563D01*
X109676291Y-125571546D01*
X109738212Y-125570516D01*
X109786596Y-125566803D01*
X109828135Y-125559629D01*
X109865000Y-125549635D01*
X109960251Y-125511556D01*
X110054179Y-125458112D01*
X110140134Y-125393548D01*
X110199006Y-125336392D01*
X110220174Y-125310928D01*
X110244792Y-125278298D01*
X110269816Y-125242962D01*
X110292196Y-125209378D01*
X110308888Y-125182004D01*
X110316844Y-125165300D01*
X110317120Y-125163548D01*
X110307595Y-125160905D01*
X110281561Y-125158727D01*
X110242827Y-125157221D01*
X110195202Y-125156591D01*
X110187580Y-125156584D01*
X110106979Y-125155067D01*
X110037234Y-125149612D01*
X109970311Y-125139062D01*
X109898179Y-125122261D01*
X109843188Y-125107003D01*
X109802208Y-125094223D01*
X109757355Y-125078781D01*
X109712465Y-125062192D01*
X109671373Y-125045972D01*
X109637913Y-125031636D01*
X109615919Y-125020700D01*
X109609228Y-125014678D01*
X109609310Y-125014584D01*
X109620122Y-125015251D01*
X109646339Y-125020043D01*
X109683663Y-125028109D01*
X109715395Y-125035562D01*
X109876198Y-125066774D01*
X110027273Y-125080163D01*
X110168672Y-125075720D01*
X110300450Y-125053433D01*
X110422660Y-125013290D01*
X110535355Y-124955281D01*
X110638588Y-124879393D01*
X110691316Y-124830068D01*
X110741050Y-124774542D01*
X110794611Y-124705952D01*
X110847917Y-124629950D01*
X110896888Y-124552190D01*
X110916086Y-124518739D01*
X110932620Y-124487493D01*
X110952591Y-124447594D01*
X110974084Y-124403150D01*
X110995182Y-124358266D01*
X111013971Y-124317049D01*
X111028533Y-124283607D01*
X111036954Y-124262045D01*
X111038273Y-124256820D01*
X111029597Y-124251457D01*
X111023240Y-124250780D01*
X111023240Y-124141496D01*
X111121880Y-124133317D01*
X111208784Y-124108680D01*
X111284516Y-124067302D01*
X111349638Y-124008900D01*
X111389435Y-123957405D01*
X111411445Y-123922146D01*
X111429698Y-123886455D01*
X111445685Y-123846202D01*
X111460896Y-123797258D01*
X111476820Y-123735489D01*
X111490105Y-123678371D01*
X111502283Y-123629225D01*
X111515589Y-123583132D01*
X111528097Y-123546445D01*
X111534946Y-123530533D01*
X111555474Y-123490295D01*
X111507797Y-123494688D01*
X111480440Y-123494212D01*
X111480440Y-123355120D01*
X111485520Y-123350040D01*
X111480440Y-123344960D01*
X111475360Y-123350040D01*
X111480440Y-123355120D01*
X111480440Y-123494212D01*
X111453228Y-123493738D01*
X111439800Y-123491568D01*
X111439800Y-123416080D01*
X111444880Y-123411000D01*
X111439800Y-123405920D01*
X111434720Y-123411000D01*
X111439800Y-123416080D01*
X111439800Y-123491568D01*
X111387911Y-123483180D01*
X111318140Y-123464470D01*
X111250211Y-123439061D01*
X111232756Y-123431124D01*
X111191421Y-123409256D01*
X111153421Y-123383473D01*
X111113364Y-123349684D01*
X111068622Y-123306572D01*
X111027133Y-123263712D01*
X110996280Y-123227694D01*
X110971385Y-123192004D01*
X110947770Y-123150131D01*
X110928341Y-123111280D01*
X110875279Y-122979819D01*
X110841321Y-122844116D01*
X110826812Y-122706246D01*
X110832098Y-122568281D01*
X110834597Y-122547870D01*
X110842306Y-122494834D01*
X110848538Y-122462038D01*
X110853257Y-122449456D01*
X110856428Y-122457060D01*
X110858017Y-122484821D01*
X110857988Y-122532713D01*
X110857314Y-122565877D01*
X110862171Y-122708555D01*
X110883778Y-122843106D01*
X110921664Y-122968275D01*
X110975356Y-123082808D01*
X111044383Y-123185450D01*
X111122067Y-123269266D01*
X111179972Y-123315474D01*
X111244616Y-123354736D01*
X111310103Y-123384016D01*
X111370532Y-123400278D01*
X111378840Y-123401412D01*
X111429640Y-123407302D01*
X111380597Y-123381161D01*
X111299918Y-123332800D01*
X111234950Y-123281470D01*
X111204888Y-123251439D01*
X111181134Y-123223248D01*
X111157090Y-123190787D01*
X111135560Y-123158421D01*
X111119345Y-123130518D01*
X111111246Y-123111442D01*
X111111528Y-123105965D01*
X111119389Y-123111044D01*
X111135596Y-123128627D01*
X111154941Y-123152729D01*
X111184063Y-123185472D01*
X111221941Y-123220912D01*
X111257872Y-123249499D01*
X111294682Y-123273398D01*
X111336274Y-123296728D01*
X111378071Y-123317353D01*
X111415496Y-123333138D01*
X111443972Y-123341947D01*
X111457254Y-123342529D01*
X111455147Y-123335254D01*
X111439866Y-123319374D01*
X111414665Y-123298243D01*
X111413040Y-123296983D01*
X111353502Y-123242641D01*
X111300556Y-123178418D01*
X111258741Y-123110424D01*
X111237306Y-123060314D01*
X111228607Y-123033706D01*
X111226755Y-123024101D01*
X111231981Y-123029288D01*
X111239459Y-123039797D01*
X111287472Y-123105625D01*
X111330871Y-123157505D01*
X111374004Y-123199726D01*
X111421218Y-123236575D01*
X111472621Y-123269795D01*
X111556081Y-123310422D01*
X111641227Y-123331883D01*
X111702824Y-123336070D01*
X111772653Y-123327244D01*
X111831975Y-123301184D01*
X111879970Y-123258519D01*
X111915819Y-123199878D01*
X111929750Y-123162080D01*
X111940861Y-123105403D01*
X111945392Y-123034465D01*
X111943368Y-122954224D01*
X111934813Y-122869636D01*
X111928068Y-122827114D01*
X111911573Y-122725582D01*
X111901770Y-122640208D01*
X111898760Y-122567929D01*
X111902643Y-122505682D01*
X111913516Y-122450405D01*
X111931481Y-122399034D01*
X111942743Y-122374680D01*
X111963667Y-122334620D01*
X111980585Y-122305873D01*
X111992298Y-122289563D01*
X111997604Y-122286810D01*
X111995303Y-122298736D01*
X111984195Y-122326464D01*
X111976664Y-122342985D01*
X111955575Y-122392619D01*
X111941263Y-122439255D01*
X111933708Y-122486504D01*
X111932887Y-122537976D01*
X111938776Y-122597283D01*
X111951355Y-122668035D01*
X111970599Y-122753844D01*
X111974028Y-122768107D01*
X111991051Y-122837065D01*
X112004383Y-122886194D01*
X112014658Y-122915426D01*
X112022513Y-122924693D01*
X112028583Y-122913928D01*
X112033503Y-122883061D01*
X112037907Y-122832024D01*
X112042432Y-122760760D01*
X112050214Y-122628680D01*
X112064597Y-122689640D01*
X112070872Y-122726804D01*
X112075862Y-122776333D01*
X112078872Y-122830279D01*
X112079430Y-122858960D01*
X112079809Y-122902840D01*
X112080485Y-122937757D01*
X112081356Y-122959659D01*
X112082128Y-122965085D01*
X112086539Y-122955200D01*
X112096052Y-122931262D01*
X112108684Y-122898265D01*
X112109866Y-122895129D01*
X112124519Y-122847071D01*
X112137012Y-122785530D01*
X112147902Y-122707586D01*
X112151293Y-122677243D01*
X112159791Y-122600306D01*
X112166909Y-122543273D01*
X112172787Y-122505787D01*
X112177565Y-122487490D01*
X112181382Y-122488022D01*
X112184377Y-122507026D01*
X112186692Y-122544144D01*
X112188045Y-122582960D01*
X112189241Y-122642020D01*
X112189714Y-122703404D01*
X112189440Y-122759020D01*
X112188672Y-122793780D01*
X112188101Y-122832151D01*
X112189143Y-122861286D01*
X112191571Y-122876461D01*
X112192671Y-122877600D01*
X112205180Y-122870962D01*
X112227673Y-122853570D01*
X112255939Y-122829212D01*
X112285767Y-122801673D01*
X112312946Y-122774739D01*
X112333263Y-122752197D01*
X112335960Y-122748776D01*
X112372113Y-122686503D01*
X112392848Y-122617377D01*
X112397209Y-122546672D01*
X112384572Y-122480630D01*
X112353009Y-122416518D01*
X112303589Y-122353332D01*
X112238755Y-122292896D01*
X112160951Y-122237037D01*
X112072619Y-122187580D01*
X111976203Y-122146351D01*
X111907160Y-122123915D01*
X111869237Y-122114141D01*
X111832983Y-122107509D01*
X111792923Y-122103470D01*
X111743582Y-122101474D01*
X111679487Y-122100973D01*
X111678560Y-122100974D01*
X111617027Y-122101450D01*
X111570995Y-122103088D01*
X111535651Y-122106414D01*
X111506187Y-122111952D01*
X111477791Y-122120229D01*
X111466352Y-122124177D01*
X111373158Y-122165695D01*
X111296085Y-122218614D01*
X111234734Y-122283544D01*
X111188706Y-122361099D01*
X111157603Y-122451889D01*
X111141027Y-122556528D01*
X111137869Y-122628680D01*
X111137168Y-122740440D01*
X111122991Y-122689640D01*
X111115388Y-122647982D01*
X111111975Y-122591245D01*
X111112606Y-122516997D01*
X111112609Y-122516920D01*
X111115015Y-122460209D01*
X111118775Y-122417965D01*
X111124851Y-122384338D01*
X111134204Y-122353481D01*
X111143333Y-122330114D01*
X111161363Y-122290903D01*
X111181137Y-122254263D01*
X111195811Y-122231732D01*
X111211711Y-122209878D01*
X111220648Y-122195640D01*
X111221360Y-122193629D01*
X111212210Y-122189591D01*
X111188208Y-122183408D01*
X111154520Y-122176410D01*
X111154032Y-122176318D01*
X111098405Y-122169990D01*
X111030729Y-122168537D01*
X110958590Y-122171607D01*
X110889575Y-122178850D01*
X110831270Y-122189913D01*
X110825120Y-122191545D01*
X110743293Y-122220501D01*
X110654371Y-122263081D01*
X110563149Y-122316433D01*
X110474422Y-122377705D01*
X110392987Y-122444043D01*
X110378506Y-122457196D01*
X110293151Y-122549706D01*
X110224101Y-122653333D01*
X110171693Y-122766629D01*
X110136264Y-122888146D01*
X110118151Y-123016435D01*
X110117690Y-123150046D01*
X110135220Y-123287531D01*
X110160727Y-123393533D01*
X110203483Y-123511976D01*
X110260677Y-123625052D01*
X110330436Y-123731135D01*
X110410885Y-123828600D01*
X110500150Y-123915822D01*
X110596357Y-123991175D01*
X110697632Y-124053036D01*
X110802102Y-124099778D01*
X110907891Y-124129776D01*
X111013127Y-124141405D01*
X111023240Y-124141496D01*
X111023240Y-124250780D01*
X111008423Y-124249201D01*
X111008206Y-124249200D01*
X110983552Y-124247296D01*
X110946480Y-124242269D01*
X110904462Y-124235153D01*
X110898986Y-124234121D01*
X110849535Y-124224985D01*
X110791430Y-124214706D01*
X110736087Y-124205297D01*
X110728600Y-124204064D01*
X110633958Y-124184657D01*
X110541108Y-124157056D01*
X110444230Y-124119292D01*
X110352680Y-124076904D01*
X110220532Y-124001344D01*
X110102819Y-123911578D01*
X109999872Y-123807955D01*
X109912021Y-123690825D01*
X109839597Y-123560535D01*
X109817781Y-123511478D01*
X109786238Y-123431482D01*
X109763476Y-123361232D01*
X109748053Y-123293879D01*
X109738527Y-123222575D01*
X109733455Y-123140471D01*
X109732423Y-123106200D01*
X109731284Y-123050876D01*
X109731131Y-123013661D01*
X109732243Y-122994874D01*
X109734899Y-122994831D01*
X109739381Y-123013852D01*
X109745967Y-123052254D01*
X109754938Y-123110354D01*
X109758808Y-123136179D01*
X109788440Y-123268229D01*
X109836613Y-123397704D01*
X109901549Y-123522047D01*
X109981470Y-123638698D01*
X110074596Y-123745099D01*
X110179150Y-123838690D01*
X110293354Y-123916915D01*
X110306975Y-123924781D01*
X110357265Y-123952732D01*
X110391070Y-123969867D01*
X110409179Y-123976065D01*
X110412387Y-123971202D01*
X110401483Y-123955158D01*
X110377261Y-123927811D01*
X110365938Y-123915710D01*
X110267890Y-123797942D01*
X110186028Y-123670519D01*
X110121014Y-123535421D01*
X110073511Y-123394629D01*
X110044181Y-123250123D01*
X110033688Y-123103885D01*
X110042693Y-122957893D01*
X110043481Y-122951996D01*
X110052209Y-122905745D01*
X110066658Y-122847680D01*
X110084786Y-122784766D01*
X110104550Y-122723968D01*
X110123910Y-122672250D01*
X110129033Y-122660225D01*
X110132120Y-122650439D01*
X110127936Y-122645343D01*
X110112712Y-122644237D01*
X110082677Y-122646417D01*
X110064378Y-122648179D01*
X109944446Y-122669957D01*
X109823685Y-122711501D01*
X109703189Y-122772347D01*
X109585088Y-122851251D01*
X109552988Y-122876827D01*
X109509459Y-122913610D01*
X109457742Y-122958747D01*
X109401077Y-123009387D01*
X109342706Y-123062675D01*
X109304564Y-123098153D01*
X109248494Y-123150379D01*
X109193615Y-123200847D01*
X109142789Y-123246972D01*
X109098877Y-123286174D01*
X109064740Y-123315869D01*
X109047539Y-123330137D01*
X108952154Y-123406711D01*
X108871777Y-123473023D01*
X108804855Y-123530587D01*
X108749840Y-123580920D01*
X108705180Y-123625537D01*
X108669324Y-123665954D01*
X108640722Y-123703688D01*
X108617824Y-123740253D01*
X108606855Y-123760900D01*
X108578879Y-123827098D01*
X108564790Y-123889588D01*
X108563733Y-123955328D01*
X108574086Y-124027456D01*
X108606480Y-124139254D01*
X108657792Y-124246853D01*
X108726884Y-124349305D01*
X108812615Y-124445664D01*
X108913846Y-124534984D01*
X109029439Y-124616318D01*
X109158253Y-124688721D01*
X109299149Y-124751245D01*
X109450988Y-124802944D01*
X109534800Y-124825459D01*
X109608524Y-124840650D01*
X109679553Y-124849984D01*
X109744208Y-124853355D01*
X109798813Y-124850656D01*
X109839691Y-124841779D01*
X109854235Y-124834731D01*
X109872510Y-124820027D01*
X109879018Y-124803195D01*
X109877208Y-124775609D01*
X109869999Y-124746689D01*
X109854896Y-124714185D01*
X109830509Y-124676185D01*
X109795448Y-124630774D01*
X109748323Y-124576039D01*
X109687746Y-124510066D01*
X109673061Y-124494474D01*
X109569425Y-124377799D01*
X109483637Y-124265037D01*
X109414362Y-124153402D01*
X109360265Y-124040103D01*
X109320012Y-123922354D01*
X109292266Y-123797366D01*
X109275911Y-123665000D01*
X109273847Y-123628140D01*
X109275401Y-123610649D01*
X109280676Y-123612647D01*
X109289774Y-123634251D01*
X109302800Y-123675579D01*
X109311364Y-123705640D01*
X109359901Y-123851710D01*
X109421796Y-123991071D01*
X109494774Y-124118955D01*
X109538668Y-124182475D01*
X109564035Y-124214277D01*
X109600667Y-124256943D01*
X109645434Y-124306993D01*
X109695208Y-124360949D01*
X109746859Y-124415330D01*
X109763449Y-124432434D01*
X109830060Y-124501833D01*
X109882948Y-124559941D01*
X109923509Y-124609040D01*
X109953144Y-124651412D01*
X109973250Y-124689339D01*
X109985227Y-124725102D01*
X109990472Y-124760982D01*
X109990384Y-124799262D01*
X109990197Y-124802364D01*
X109986307Y-124841672D01*
X109979028Y-124868196D01*
X109965736Y-124889458D01*
X109955969Y-124900516D01*
X109928378Y-124924775D01*
X109898606Y-124943904D01*
X109893266Y-124946412D01*
X109861745Y-124954299D01*
X109815384Y-124958838D01*
X109759382Y-124960060D01*
X109698936Y-124957997D01*
X109639243Y-124952679D01*
X109587711Y-124944589D01*
X109528822Y-124930467D01*
X109458115Y-124910049D01*
X109381514Y-124885361D01*
X109304943Y-124858428D01*
X109234324Y-124831276D01*
X109175583Y-124805932D01*
X109159400Y-124798102D01*
X109086385Y-124757986D01*
X109008791Y-124709528D01*
X108933277Y-124657227D01*
X108866498Y-124605586D01*
X108837241Y-124580310D01*
X108807350Y-124554168D01*
X108782639Y-124534382D01*
X108767260Y-124524211D01*
X108764992Y-124523520D01*
X108756482Y-124532240D01*
X108744313Y-124554851D01*
X108733826Y-124579633D01*
X108704424Y-124684153D01*
X108694184Y-124791672D01*
X108702618Y-124900012D01*
X108729239Y-125006998D01*
X108773558Y-125110451D01*
X108835089Y-125208194D01*
X108889159Y-125273149D01*
X108984778Y-125361225D01*
X109093701Y-125434231D01*
X109215374Y-125491955D01*
X109349242Y-125534187D01*
X109494751Y-125560719D01*
X109651346Y-125571338D01*
X109676291Y-125571546D01*
X109676291Y-125669563D01*
X109634430Y-125669303D01*
X109515171Y-125656910D01*
X109442764Y-125643942D01*
X109366403Y-125626224D01*
X109291915Y-125605406D01*
X109225126Y-125583138D01*
X109171864Y-125561069D01*
X109165515Y-125557935D01*
X109140729Y-125546795D01*
X109124489Y-125542171D01*
X109121865Y-125542669D01*
X109120559Y-125554735D01*
X109121783Y-125582637D01*
X109125068Y-125622110D01*
X109129941Y-125668892D01*
X109135932Y-125718721D01*
X109142570Y-125767335D01*
X109149384Y-125810470D01*
X109154386Y-125836947D01*
X109188083Y-125963991D01*
X109232967Y-126080423D01*
X109287954Y-126184862D01*
X109351960Y-126275925D01*
X109423903Y-126352229D01*
X109502699Y-126412392D01*
X109587264Y-126455032D01*
X109654181Y-126474756D01*
X109719216Y-126478345D01*
X109719216Y-126570639D01*
X109707520Y-126570712D01*
X109660877Y-126570221D01*
X109627192Y-126567597D01*
X109599108Y-126561194D01*
X109569268Y-126549369D01*
X109532581Y-126531609D01*
X109435151Y-126471734D01*
X109348153Y-126395045D01*
X109272043Y-126302433D01*
X109207278Y-126194784D01*
X109154313Y-126072990D01*
X109113602Y-125937937D01*
X109085603Y-125790515D01*
X109070770Y-125631612D01*
X109070723Y-125630657D01*
X109064515Y-125503353D01*
X109014083Y-125473177D01*
X108964223Y-125437842D01*
X108909237Y-125389779D01*
X108854029Y-125333931D01*
X108803504Y-125275241D01*
X108764460Y-125221586D01*
X108706426Y-125118476D01*
X108667259Y-125015360D01*
X108645836Y-124908579D01*
X108640720Y-124818161D01*
X108646124Y-124722472D01*
X108663486Y-124636254D01*
X108694528Y-124551419D01*
X108700264Y-124538760D01*
X108728497Y-124477800D01*
X108680216Y-124416356D01*
X108606441Y-124307547D01*
X108551689Y-124193445D01*
X108516358Y-124075056D01*
X108501371Y-123963619D01*
X108500729Y-123888490D01*
X108509735Y-123824283D01*
G36*
X109018995Y-123561179D02*
G01*
X109021538Y-123541864D01*
X109025355Y-123524163D01*
X109028708Y-123517936D01*
X109032696Y-123525273D01*
X109038419Y-123548267D01*
X109046976Y-123589011D01*
X109047401Y-123591077D01*
X109089406Y-123747401D01*
X109149108Y-123893966D01*
X109226285Y-124030344D01*
X109320716Y-124156106D01*
X109364369Y-124204500D01*
X109392940Y-124235551D01*
X109414007Y-124260360D01*
X109425119Y-124275909D01*
X109425489Y-124279680D01*
X109406853Y-124273069D01*
X109377502Y-124255192D01*
X109341255Y-124228984D01*
X109301928Y-124197382D01*
X109263342Y-124163320D01*
X109229313Y-124129735D01*
X109226412Y-124126628D01*
X109179925Y-124068563D01*
X109134177Y-123997497D01*
X109092941Y-123920371D01*
X109059989Y-123844123D01*
X109041746Y-123786920D01*
X109029962Y-123729566D01*
X109021877Y-123668398D01*
X109018039Y-123610056D01*
X109018995Y-123561179D01*
G37*
X109018995Y-123561179D02*
X109021538Y-123541864D01*
X109025355Y-123524163D01*
X109028708Y-123517936D01*
X109032696Y-123525273D01*
X109038419Y-123548267D01*
X109046976Y-123589011D01*
X109047401Y-123591077D01*
X109089406Y-123747401D01*
X109149108Y-123893966D01*
X109226285Y-124030344D01*
X109320716Y-124156106D01*
X109364369Y-124204500D01*
X109392940Y-124235551D01*
X109414007Y-124260360D01*
X109425119Y-124275909D01*
X109425489Y-124279680D01*
X109406853Y-124273069D01*
X109377502Y-124255192D01*
X109341255Y-124228984D01*
X109301928Y-124197382D01*
X109263342Y-124163320D01*
X109229313Y-124129735D01*
X109226412Y-124126628D01*
X109179925Y-124068563D01*
X109134177Y-123997497D01*
X109092941Y-123920371D01*
X109059989Y-123844123D01*
X109041746Y-123786920D01*
X109029962Y-123729566D01*
X109021877Y-123668398D01*
X109018039Y-123610056D01*
X109018995Y-123561179D01*
G36*
X112709525Y-99874151D02*
G01*
X116135350Y-99877350D01*
X116141746Y-106792500D01*
X109283700Y-106792500D01*
X109283700Y-104087400D01*
X110147300Y-104087400D01*
X110147300Y-104443000D01*
X110833100Y-104443000D01*
X110833100Y-104088860D01*
X110783402Y-104084955D01*
X110733705Y-104081050D01*
X110772475Y-103988975D01*
X110811246Y-103896900D01*
X111392962Y-103896900D01*
X111430531Y-103980633D01*
X111449000Y-104023296D01*
X111462408Y-104057122D01*
X111468063Y-104075289D01*
X111468100Y-104075883D01*
X111456830Y-104083096D01*
X111428678Y-104087106D01*
X111417300Y-104087400D01*
X111366500Y-104087400D01*
X111366500Y-104443000D01*
X112052300Y-104443000D01*
X112052300Y-104087400D01*
X111958408Y-104087400D01*
X111900594Y-104085249D01*
X111867218Y-104078733D01*
X111858072Y-104071525D01*
X111851835Y-104056921D01*
X111836537Y-104021416D01*
X111813219Y-103967416D01*
X111782921Y-103897326D01*
X111746682Y-103813550D01*
X111705543Y-103718494D01*
X111660543Y-103614562D01*
X111621764Y-103525029D01*
X111574578Y-103415843D01*
X111530653Y-103313696D01*
X111490999Y-103220971D01*
X111456622Y-103140049D01*
X111428532Y-103073311D01*
X111407736Y-103023137D01*
X111395242Y-102991911D01*
X111391900Y-102982104D01*
X111403065Y-102973971D01*
X111430520Y-102969906D01*
X111436350Y-102969800D01*
X111480800Y-102969800D01*
X111480800Y-102626900D01*
X110718800Y-102626900D01*
X110718800Y-102969800D01*
X110770958Y-102969800D01*
X110803667Y-102971373D01*
X110816490Y-102977918D01*
X110814898Y-102992025D01*
X110808310Y-103007954D01*
X110792698Y-103044774D01*
X110769103Y-103100054D01*
X110738568Y-103171363D01*
X110702133Y-103256272D01*
X110660841Y-103352350D01*
X110615733Y-103457167D01*
X110575414Y-103550748D01*
X110344150Y-104087247D01*
X110245725Y-104087323D01*
X110147300Y-104087400D01*
X109283700Y-104087400D01*
X109283700Y-101255300D01*
X110706100Y-101255300D01*
X110706100Y-102385600D01*
X111480800Y-102385600D01*
X111480800Y-101953800D01*
X112319000Y-101953800D01*
X112319000Y-104684300D01*
X111874500Y-104684300D01*
X111874500Y-105459000D01*
X113525500Y-105459000D01*
X113525500Y-104684300D01*
X113081000Y-104684300D01*
X113081000Y-104087400D01*
X113347700Y-104087400D01*
X113347700Y-104443000D01*
X113982700Y-104443000D01*
X113982700Y-104087400D01*
X113843000Y-104087400D01*
X113843000Y-103697509D01*
X113843377Y-103581879D01*
X113844483Y-103485741D01*
X113846281Y-103410300D01*
X113848731Y-103356760D01*
X113851794Y-103326326D01*
X113855042Y-103319684D01*
X113863097Y-103333484D01*
X113880865Y-103367613D01*
X113907069Y-103419503D01*
X113940432Y-103486582D01*
X113979678Y-103566281D01*
X114023528Y-103656031D01*
X114070708Y-103753262D01*
X114078749Y-103769900D01*
X114126228Y-103867969D01*
X114170434Y-103958873D01*
X114210115Y-104040065D01*
X114244016Y-104108997D01*
X114270883Y-104163121D01*
X114289463Y-104199889D01*
X114298503Y-104216753D01*
X114299004Y-104217462D01*
X114306215Y-104208513D01*
X114323182Y-104179018D01*
X114348690Y-104131340D01*
X114381524Y-104067839D01*
X114420467Y-103990878D01*
X114464303Y-103902818D01*
X114511817Y-103806022D01*
X114529322Y-103770040D01*
X114577964Y-103670288D01*
X114623387Y-103578038D01*
X114664362Y-103495718D01*
X114699661Y-103425754D01*
X114728055Y-103370575D01*
X114748317Y-103332608D01*
X114759218Y-103314280D01*
X114760575Y-103312953D01*
X114762942Y-103325075D01*
X114765094Y-103359521D01*
X114766957Y-103413214D01*
X114768453Y-103483079D01*
X114769508Y-103566039D01*
X114770046Y-103659020D01*
X114770100Y-103700050D01*
X114770100Y-104087400D01*
X114630400Y-104087400D01*
X114630400Y-104443000D01*
X115265400Y-104443000D01*
X115265400Y-104087400D01*
X115125700Y-104087400D01*
X115125700Y-102982500D01*
X115265400Y-102982500D01*
X115265400Y-102626423D01*
X114976883Y-102629836D01*
X114688367Y-102633250D01*
X114502441Y-103019997D01*
X114458035Y-103111797D01*
X114416762Y-103196035D01*
X114379974Y-103270030D01*
X114349028Y-103331104D01*
X114325275Y-103376576D01*
X114310069Y-103403767D01*
X114305119Y-103410543D01*
X114297146Y-103400416D01*
X114279638Y-103369923D01*
X114253928Y-103321653D01*
X114221349Y-103258197D01*
X114183235Y-103182145D01*
X114140920Y-103096088D01*
X114104382Y-103020621D01*
X113915041Y-102626900D01*
X113360400Y-102626900D01*
X113360400Y-102982500D01*
X113487400Y-102982500D01*
X113487400Y-104087400D01*
X113347700Y-104087400D01*
X113081000Y-104087400D01*
X113081000Y-101953800D01*
X113919200Y-101953800D01*
X113919200Y-102385600D01*
X114693900Y-102385600D01*
X114693900Y-101255300D01*
X110706100Y-101255300D01*
X109283700Y-101255300D01*
X109283700Y-99870953D01*
X112709525Y-99874151D01*
G37*
X112709525Y-99874151D02*
X116135350Y-99877350D01*
X116141746Y-106792500D01*
X109283700Y-106792500D01*
X109283700Y-104087400D01*
X110147300Y-104087400D01*
X110147300Y-104443000D01*
X110833100Y-104443000D01*
X110833100Y-104088860D01*
X110783402Y-104084955D01*
X110733705Y-104081050D01*
X110772475Y-103988975D01*
X110811246Y-103896900D01*
X111392962Y-103896900D01*
X111430531Y-103980633D01*
X111449000Y-104023296D01*
X111462408Y-104057122D01*
X111468063Y-104075289D01*
X111468100Y-104075883D01*
X111456830Y-104083096D01*
X111428678Y-104087106D01*
X111417300Y-104087400D01*
X111366500Y-104087400D01*
X111366500Y-104443000D01*
X112052300Y-104443000D01*
X112052300Y-104087400D01*
X111958408Y-104087400D01*
X111900594Y-104085249D01*
X111867218Y-104078733D01*
X111858072Y-104071525D01*
X111851835Y-104056921D01*
X111836537Y-104021416D01*
X111813219Y-103967416D01*
X111782921Y-103897326D01*
X111746682Y-103813550D01*
X111705543Y-103718494D01*
X111660543Y-103614562D01*
X111621764Y-103525029D01*
X111574578Y-103415843D01*
X111530653Y-103313696D01*
X111490999Y-103220971D01*
X111456622Y-103140049D01*
X111428532Y-103073311D01*
X111407736Y-103023137D01*
X111395242Y-102991911D01*
X111391900Y-102982104D01*
X111403065Y-102973971D01*
X111430520Y-102969906D01*
X111436350Y-102969800D01*
X111480800Y-102969800D01*
X111480800Y-102626900D01*
X110718800Y-102626900D01*
X110718800Y-102969800D01*
X110770958Y-102969800D01*
X110803667Y-102971373D01*
X110816490Y-102977918D01*
X110814898Y-102992025D01*
X110808310Y-103007954D01*
X110792698Y-103044774D01*
X110769103Y-103100054D01*
X110738568Y-103171363D01*
X110702133Y-103256272D01*
X110660841Y-103352350D01*
X110615733Y-103457167D01*
X110575414Y-103550748D01*
X110344150Y-104087247D01*
X110245725Y-104087323D01*
X110147300Y-104087400D01*
X109283700Y-104087400D01*
X109283700Y-101255300D01*
X110706100Y-101255300D01*
X110706100Y-102385600D01*
X111480800Y-102385600D01*
X111480800Y-101953800D01*
X112319000Y-101953800D01*
X112319000Y-104684300D01*
X111874500Y-104684300D01*
X111874500Y-105459000D01*
X113525500Y-105459000D01*
X113525500Y-104684300D01*
X113081000Y-104684300D01*
X113081000Y-104087400D01*
X113347700Y-104087400D01*
X113347700Y-104443000D01*
X113982700Y-104443000D01*
X113982700Y-104087400D01*
X113843000Y-104087400D01*
X113843000Y-103697509D01*
X113843377Y-103581879D01*
X113844483Y-103485741D01*
X113846281Y-103410300D01*
X113848731Y-103356760D01*
X113851794Y-103326326D01*
X113855042Y-103319684D01*
X113863097Y-103333484D01*
X113880865Y-103367613D01*
X113907069Y-103419503D01*
X113940432Y-103486582D01*
X113979678Y-103566281D01*
X114023528Y-103656031D01*
X114070708Y-103753262D01*
X114078749Y-103769900D01*
X114126228Y-103867969D01*
X114170434Y-103958873D01*
X114210115Y-104040065D01*
X114244016Y-104108997D01*
X114270883Y-104163121D01*
X114289463Y-104199889D01*
X114298503Y-104216753D01*
X114299004Y-104217462D01*
X114306215Y-104208513D01*
X114323182Y-104179018D01*
X114348690Y-104131340D01*
X114381524Y-104067839D01*
X114420467Y-103990878D01*
X114464303Y-103902818D01*
X114511817Y-103806022D01*
X114529322Y-103770040D01*
X114577964Y-103670288D01*
X114623387Y-103578038D01*
X114664362Y-103495718D01*
X114699661Y-103425754D01*
X114728055Y-103370575D01*
X114748317Y-103332608D01*
X114759218Y-103314280D01*
X114760575Y-103312953D01*
X114762942Y-103325075D01*
X114765094Y-103359521D01*
X114766957Y-103413214D01*
X114768453Y-103483079D01*
X114769508Y-103566039D01*
X114770046Y-103659020D01*
X114770100Y-103700050D01*
X114770100Y-104087400D01*
X114630400Y-104087400D01*
X114630400Y-104443000D01*
X115265400Y-104443000D01*
X115265400Y-104087400D01*
X115125700Y-104087400D01*
X115125700Y-102982500D01*
X115265400Y-102982500D01*
X115265400Y-102626423D01*
X114976883Y-102629836D01*
X114688367Y-102633250D01*
X114502441Y-103019997D01*
X114458035Y-103111797D01*
X114416762Y-103196035D01*
X114379974Y-103270030D01*
X114349028Y-103331104D01*
X114325275Y-103376576D01*
X114310069Y-103403767D01*
X114305119Y-103410543D01*
X114297146Y-103400416D01*
X114279638Y-103369923D01*
X114253928Y-103321653D01*
X114221349Y-103258197D01*
X114183235Y-103182145D01*
X114140920Y-103096088D01*
X114104382Y-103020621D01*
X113915041Y-102626900D01*
X113360400Y-102626900D01*
X113360400Y-102982500D01*
X113487400Y-102982500D01*
X113487400Y-104087400D01*
X113347700Y-104087400D01*
X113081000Y-104087400D01*
X113081000Y-101953800D01*
X113919200Y-101953800D01*
X113919200Y-102385600D01*
X114693900Y-102385600D01*
X114693900Y-101255300D01*
X110706100Y-101255300D01*
X109283700Y-101255300D01*
X109283700Y-99870953D01*
X112709525Y-99874151D01*
G36*
X116557019Y-106522325D02*
G01*
X116585116Y-106534545D01*
X116612641Y-106560925D01*
X116643592Y-106611706D01*
X116650446Y-106665111D01*
X116633153Y-106717055D01*
X116614775Y-106741940D01*
X116571608Y-106773951D01*
X116520358Y-106788431D01*
X116470252Y-106783009D01*
X116464129Y-106780644D01*
X116419883Y-106749461D01*
X116392759Y-106704803D01*
X116384037Y-106653047D01*
X116384265Y-106651954D01*
X116412774Y-106651954D01*
X116423365Y-106699601D01*
X116454416Y-106739254D01*
X116496078Y-106758912D01*
X116542020Y-106757505D01*
X116585915Y-106733963D01*
X116592261Y-106728135D01*
X116614173Y-106690458D01*
X116618380Y-106644412D01*
X116605476Y-106599245D01*
X116582028Y-106568902D01*
X116538212Y-106543200D01*
X116495054Y-106542769D01*
X116455537Y-106564054D01*
X116423939Y-106603592D01*
X116412774Y-106651954D01*
X116384265Y-106651954D01*
X116394995Y-106600573D01*
X116420058Y-106560925D01*
X116448001Y-106534247D01*
X116476200Y-106522219D01*
X116516350Y-106519450D01*
X116557019Y-106522325D01*
G37*
X116557019Y-106522325D02*
X116585116Y-106534545D01*
X116612641Y-106560925D01*
X116643592Y-106611706D01*
X116650446Y-106665111D01*
X116633153Y-106717055D01*
X116614775Y-106741940D01*
X116571608Y-106773951D01*
X116520358Y-106788431D01*
X116470252Y-106783009D01*
X116464129Y-106780644D01*
X116419883Y-106749461D01*
X116392759Y-106704803D01*
X116384037Y-106653047D01*
X116384265Y-106651954D01*
X116412774Y-106651954D01*
X116423365Y-106699601D01*
X116454416Y-106739254D01*
X116496078Y-106758912D01*
X116542020Y-106757505D01*
X116585915Y-106733963D01*
X116592261Y-106728135D01*
X116614173Y-106690458D01*
X116618380Y-106644412D01*
X116605476Y-106599245D01*
X116582028Y-106568902D01*
X116538212Y-106543200D01*
X116495054Y-106542769D01*
X116455537Y-106564054D01*
X116423939Y-106603592D01*
X116412774Y-106651954D01*
X116384265Y-106651954D01*
X116394995Y-106600573D01*
X116420058Y-106560925D01*
X116448001Y-106534247D01*
X116476200Y-106522219D01*
X116516350Y-106519450D01*
X116557019Y-106522325D01*
G36*
X113373100Y-105062465D02*
G01*
X113372943Y-105138052D01*
X113372506Y-105204099D01*
X113371840Y-105256732D01*
X113370995Y-105292079D01*
X113370022Y-105306267D01*
X113369925Y-105306374D01*
X113360088Y-105298014D01*
X113336280Y-105275746D01*
X113302636Y-105243475D01*
X113281025Y-105222472D01*
X113195300Y-105138796D01*
X113195300Y-104994768D01*
X113284200Y-104906550D01*
X113373100Y-104818331D01*
X113373100Y-105062465D01*
G37*
X113373100Y-105062465D02*
X113372943Y-105138052D01*
X113372506Y-105204099D01*
X113371840Y-105256732D01*
X113370995Y-105292079D01*
X113370022Y-105306267D01*
X113369925Y-105306374D01*
X113360088Y-105298014D01*
X113336280Y-105275746D01*
X113302636Y-105243475D01*
X113281025Y-105222472D01*
X113195300Y-105138796D01*
X113195300Y-104994768D01*
X113284200Y-104906550D01*
X113373100Y-104818331D01*
X113373100Y-105062465D01*
G36*
X112852400Y-101706149D02*
G01*
X112941300Y-101794368D01*
X112941300Y-104843731D01*
X112852400Y-104931950D01*
X112763500Y-105020168D01*
X112763500Y-101617931D01*
X112852400Y-101706149D01*
G37*
X112852400Y-101706149D02*
X112941300Y-101794368D01*
X112941300Y-104843731D01*
X112852400Y-104931950D01*
X112763500Y-105020168D01*
X112763500Y-101617931D01*
X112852400Y-101706149D01*
G36*
X114541500Y-101862065D02*
G01*
X114541388Y-101957877D01*
X114541072Y-102044951D01*
X114540580Y-102120196D01*
X114539941Y-102180518D01*
X114539182Y-102222824D01*
X114538332Y-102244022D01*
X114537984Y-102245900D01*
X114528137Y-102237499D01*
X114504546Y-102214921D01*
X114471275Y-102182097D01*
X114449084Y-102159856D01*
X114363700Y-102073812D01*
X114363700Y-101654668D01*
X114452600Y-101566450D01*
X114541500Y-101478231D01*
X114541500Y-101862065D01*
G37*
X114541500Y-101862065D02*
X114541388Y-101957877D01*
X114541072Y-102044951D01*
X114540580Y-102120196D01*
X114539941Y-102180518D01*
X114539182Y-102222824D01*
X114538332Y-102244022D01*
X114537984Y-102245900D01*
X114528137Y-102237499D01*
X114504546Y-102214921D01*
X114471275Y-102182097D01*
X114449084Y-102159856D01*
X114363700Y-102073812D01*
X114363700Y-101654668D01*
X114452600Y-101566450D01*
X114541500Y-101478231D01*
X114541500Y-101862065D01*
G36*
X112735339Y-101395227D02*
G01*
X112919538Y-101395371D01*
X113101241Y-101395608D01*
X113278704Y-101395936D01*
X113450184Y-101396356D01*
X113613937Y-101396867D01*
X113768220Y-101397468D01*
X113911290Y-101398158D01*
X114041403Y-101398938D01*
X114156816Y-101399807D01*
X114255786Y-101400763D01*
X114336568Y-101401807D01*
X114397420Y-101402938D01*
X114436599Y-101404156D01*
X114452361Y-101405459D01*
X114452600Y-101405645D01*
X114443166Y-101417437D01*
X114417739Y-101440697D01*
X114380629Y-101471628D01*
X114351644Y-101494545D01*
X114250689Y-101572799D01*
X112640319Y-101572299D01*
X111029950Y-101571799D01*
X110944002Y-101492924D01*
X110906317Y-101457348D01*
X110877088Y-101427864D01*
X110860510Y-101408799D01*
X110858277Y-101404525D01*
X110870717Y-101403217D01*
X110906811Y-101402010D01*
X110964816Y-101400903D01*
X111042989Y-101399896D01*
X111139586Y-101398988D01*
X111252864Y-101398178D01*
X111381079Y-101397466D01*
X111522488Y-101396851D01*
X111675347Y-101396333D01*
X111837914Y-101395911D01*
X112008445Y-101395585D01*
X112185196Y-101395354D01*
X112366425Y-101395218D01*
X112550387Y-101395176D01*
X112735339Y-101395227D01*
G37*
X112735339Y-101395227D02*
X112919538Y-101395371D01*
X113101241Y-101395608D01*
X113278704Y-101395936D01*
X113450184Y-101396356D01*
X113613937Y-101396867D01*
X113768220Y-101397468D01*
X113911290Y-101398158D01*
X114041403Y-101398938D01*
X114156816Y-101399807D01*
X114255786Y-101400763D01*
X114336568Y-101401807D01*
X114397420Y-101402938D01*
X114436599Y-101404156D01*
X114452361Y-101405459D01*
X114452600Y-101405645D01*
X114443166Y-101417437D01*
X114417739Y-101440697D01*
X114380629Y-101471628D01*
X114351644Y-101494545D01*
X114250689Y-101572799D01*
X112640319Y-101572299D01*
X111029950Y-101571799D01*
X110944002Y-101492924D01*
X110906317Y-101457348D01*
X110877088Y-101427864D01*
X110860510Y-101408799D01*
X110858277Y-101404525D01*
X110870717Y-101403217D01*
X110906811Y-101402010D01*
X110964816Y-101400903D01*
X111042989Y-101399896D01*
X111139586Y-101398988D01*
X111252864Y-101398178D01*
X111381079Y-101397466D01*
X111522488Y-101396851D01*
X111675347Y-101396333D01*
X111837914Y-101395911D01*
X112008445Y-101395585D01*
X112185196Y-101395354D01*
X112366425Y-101395218D01*
X112550387Y-101395176D01*
X112735339Y-101395227D01*
G36*
X111106177Y-103248127D02*
G01*
X111118336Y-103266972D01*
X111136737Y-103303479D01*
X111162172Y-103359292D01*
X111195436Y-103436053D01*
X111222499Y-103500025D01*
X111239840Y-103541300D01*
X111106320Y-103541300D01*
X111051540Y-103540674D01*
X111007647Y-103538982D01*
X110979885Y-103536502D01*
X110972800Y-103534237D01*
X110977681Y-103519242D01*
X110990662Y-103486853D01*
X111009248Y-103442764D01*
X111030943Y-103392664D01*
X111053253Y-103342247D01*
X111073681Y-103297204D01*
X111089733Y-103263225D01*
X111098914Y-103246004D01*
X111099465Y-103245302D01*
X111106177Y-103248127D01*
G37*
X111106177Y-103248127D02*
X111118336Y-103266972D01*
X111136737Y-103303479D01*
X111162172Y-103359292D01*
X111195436Y-103436053D01*
X111222499Y-103500025D01*
X111239840Y-103541300D01*
X111106320Y-103541300D01*
X111051540Y-103540674D01*
X111007647Y-103538982D01*
X110979885Y-103536502D01*
X110972800Y-103534237D01*
X110977681Y-103519242D01*
X110990662Y-103486853D01*
X111009248Y-103442764D01*
X111030943Y-103392664D01*
X111053253Y-103342247D01*
X111073681Y-103297204D01*
X111089733Y-103263225D01*
X111098914Y-103246004D01*
X111099465Y-103245302D01*
X111106177Y-103248127D01*
G36*
X116513175Y-106579044D02*
G01*
X116548163Y-106583749D01*
X116565167Y-106594035D01*
X116571436Y-106613263D01*
X116568445Y-106640745D01*
X116558736Y-106654151D01*
X116548251Y-106666116D01*
X116554511Y-106685062D01*
X116558504Y-106691749D01*
X116569972Y-106717120D01*
X116565536Y-106725940D01*
X116549110Y-106717546D01*
X116528944Y-106696753D01*
X116498213Y-106659150D01*
X116497756Y-106694075D01*
X116491251Y-106721888D01*
X116478250Y-106729000D01*
X116467234Y-106723190D01*
X116461294Y-106702576D01*
X116459246Y-106662376D01*
X116459200Y-106652069D01*
X116459200Y-106621050D01*
X116497300Y-106621050D01*
X116507887Y-106636564D01*
X116522700Y-106640100D01*
X116543385Y-106632159D01*
X116548100Y-106621050D01*
X116537512Y-106605535D01*
X116522700Y-106602000D01*
X116502014Y-106609940D01*
X116497300Y-106621050D01*
X116459200Y-106621050D01*
X116459200Y-106575139D01*
X116513175Y-106579044D01*
G37*
X116513175Y-106579044D02*
X116548163Y-106583749D01*
X116565167Y-106594035D01*
X116571436Y-106613263D01*
X116568445Y-106640745D01*
X116558736Y-106654151D01*
X116548251Y-106666116D01*
X116554511Y-106685062D01*
X116558504Y-106691749D01*
X116569972Y-106717120D01*
X116565536Y-106725940D01*
X116549110Y-106717546D01*
X116528944Y-106696753D01*
X116498213Y-106659150D01*
X116497756Y-106694075D01*
X116491251Y-106721888D01*
X116478250Y-106729000D01*
X116467234Y-106723190D01*
X116461294Y-106702576D01*
X116459246Y-106662376D01*
X116459200Y-106652069D01*
X116459200Y-106621050D01*
X116497300Y-106621050D01*
X116507887Y-106636564D01*
X116522700Y-106640100D01*
X116543385Y-106632159D01*
X116548100Y-106621050D01*
X116537512Y-106605535D01*
X116522700Y-106602000D01*
X116502014Y-106609940D01*
X116497300Y-106621050D01*
X116459200Y-106621050D01*
X116459200Y-106575139D01*
X116513175Y-106579044D01*
D13*
X115000000Y-128470000D02*
X115000000Y-108530000D01*
X115000000Y-108530000D02*
X120000000Y-108530000D01*
X120000000Y-108530000D02*
X120000000Y-128470000D01*
X120000000Y-128470000D02*
X115000000Y-128470000D01*
X115000000Y-124440000D02*
X120000000Y-124440000D01*
X104900000Y-109850000D02*
X107650000Y-109850000D01*
X104900000Y-122650000D02*
X107650000Y-122650000D01*
X96150000Y-109850000D02*
X98900000Y-109850000D01*
X108300000Y-110500000D02*
X108300000Y-122000000D01*
X96150000Y-122650000D02*
X98900000Y-122650000D01*
X95500000Y-122000000D02*
X95500000Y-110500000D01*
X95500000Y-110500000D02*
G75*
G02*
X96150000Y-109850000I650000J0D01*
G01*
X107650000Y-109850000D02*
G75*
G02*
X108300000Y-110500000I0J-650000D01*
G01*
X108300000Y-122000000D02*
G75*
G02*
X107650000Y-122650000I-650000J0D01*
G01*
X96150000Y-122650000D02*
G75*
G02*
X95500000Y-122000000I0J650000D01*
G01*
X93183335Y-114940000D02*
X92951665Y-114940000D01*
X93183335Y-115660000D02*
X92951665Y-115660000D01*
X89590000Y-124488748D02*
X89590000Y-126811252D01*
X93010000Y-124488748D02*
X93010000Y-126811252D01*
X102510000Y-124050000D02*
X101510000Y-124050000D01*
X102010000Y-123550000D02*
X102010000Y-124550000D01*
X96304437Y-124790000D02*
X95240000Y-125854437D01*
X102695563Y-124790000D02*
X103760000Y-125854437D01*
X102695563Y-124790000D02*
X101010000Y-124790000D01*
X96304437Y-124790000D02*
X97990000Y-124790000D01*
X95240000Y-125854437D02*
X95240000Y-133310000D01*
X103760000Y-125854437D02*
X103760000Y-133310000D01*
X103760000Y-133310000D02*
X101010000Y-133310000D01*
X95240000Y-133310000D02*
X97990000Y-133310000D01*
X91877500Y-111412258D02*
X91877500Y-110937742D01*
X92922500Y-111412258D02*
X92922500Y-110937742D01*
X94522500Y-110937742D02*
X94522500Y-111412258D01*
X93477500Y-110937742D02*
X93477500Y-111412258D01*
X87712258Y-123622500D02*
X87237742Y-123622500D01*
X87712258Y-122577500D02*
X87237742Y-122577500D01*
X87762258Y-125622500D02*
X87287742Y-125622500D01*
X87762258Y-124577500D02*
X87287742Y-124577500D01*
D16*
X90597660Y-113948940D02*
X83000520Y-113948940D01*
X83000520Y-113948940D02*
X83000520Y-108051060D01*
X83000520Y-108051060D02*
X90597660Y-108051060D01*
X90597660Y-113948940D02*
X90597660Y-113298700D01*
X90597660Y-108051060D02*
X90597660Y-108701300D01*
X90597660Y-113298700D02*
X89000000Y-113298700D01*
X90597660Y-108701300D02*
X89000000Y-108701300D01*
D13*
X94720000Y-105140000D02*
X94720000Y-107860000D01*
X94720000Y-107860000D02*
X99700000Y-107860000D01*
X94720000Y-105140000D02*
X99700000Y-105140000D01*
X92140000Y-122380000D02*
X94860000Y-122380000D01*
X94860000Y-122380000D02*
X94860000Y-117400000D01*
X92140000Y-122380000D02*
X92140000Y-117400000D01*
X107435000Y-109260000D02*
X107435000Y-108060000D01*
X107435000Y-104740000D02*
X107435000Y-105940000D01*
X103979437Y-104740000D02*
X107435000Y-104740000D01*
X103979437Y-109260000D02*
X107435000Y-109260000D01*
X102915000Y-108195563D02*
X102915000Y-108060000D01*
X102915000Y-105804437D02*
X102915000Y-105940000D01*
X102915000Y-105804437D02*
X103979437Y-104740000D01*
X102915000Y-108195563D02*
X103979437Y-109260000D01*
X132000000Y-108530000D02*
X132000000Y-128470000D01*
X132000000Y-128470000D02*
X127000000Y-128470000D01*
X127000000Y-128470000D02*
X127000000Y-108530000D01*
X127000000Y-108530000D02*
X132000000Y-108530000D01*
X132000000Y-112560000D02*
X127000000Y-112560000D01*
D10*
X92157380Y-119261904D02*
X92966904Y-119261904D01*
X93062142Y-119214285D01*
X93109761Y-119166666D01*
X93157380Y-119071428D01*
X93157380Y-118880952D01*
X93109761Y-118785714D01*
X93062142Y-118738095D01*
X92966904Y-118690476D01*
X92157380Y-118690476D01*
X93157380Y-117690476D02*
X93157380Y-118261904D01*
X93157380Y-117976190D02*
X92157380Y-117976190D01*
X92300238Y-118071428D01*
X92395476Y-118166666D01*
X92443095Y-118261904D01*
X121452380Y-119238095D02*
X120452380Y-119238095D01*
X120452380Y-118857142D01*
X120500000Y-118761904D01*
X120547619Y-118714285D01*
X120642857Y-118666666D01*
X120785714Y-118666666D01*
X120880952Y-118714285D01*
X120928571Y-118761904D01*
X120976190Y-118857142D01*
X120976190Y-119238095D01*
X120547619Y-118285714D02*
X120500000Y-118238095D01*
X120452380Y-118142857D01*
X120452380Y-117904761D01*
X120500000Y-117809523D01*
X120547619Y-117761904D01*
X120642857Y-117714285D01*
X120738095Y-117714285D01*
X120880952Y-117761904D01*
X121452380Y-118333333D01*
X121452380Y-117714285D01*
X96552380Y-124166666D02*
X96552380Y-124642857D01*
X95552380Y-124642857D01*
X96552380Y-123309523D02*
X96552380Y-123880952D01*
X96552380Y-123595238D02*
X95552380Y-123595238D01*
X95695238Y-123690476D01*
X95790476Y-123785714D01*
X95838095Y-123880952D01*
X92900833Y-114457142D02*
X92853214Y-114504761D01*
X92710357Y-114552380D01*
X92615119Y-114552380D01*
X92472261Y-114504761D01*
X92377023Y-114409523D01*
X92329404Y-114314285D01*
X92281785Y-114123809D01*
X92281785Y-113980952D01*
X92329404Y-113790476D01*
X92377023Y-113695238D01*
X92472261Y-113600000D01*
X92615119Y-113552380D01*
X92710357Y-113552380D01*
X92853214Y-113600000D01*
X92900833Y-113647619D01*
X93234166Y-113552380D02*
X93853214Y-113552380D01*
X93519880Y-113933333D01*
X93662738Y-113933333D01*
X93757976Y-113980952D01*
X93805595Y-114028571D01*
X93853214Y-114123809D01*
X93853214Y-114361904D01*
X93805595Y-114457142D01*
X93757976Y-114504761D01*
X93662738Y-114552380D01*
X93377023Y-114552380D01*
X93281785Y-114504761D01*
X93234166Y-114457142D01*
X91457142Y-129966666D02*
X91504761Y-130014285D01*
X91552380Y-130157142D01*
X91552380Y-130252380D01*
X91504761Y-130395238D01*
X91409523Y-130490476D01*
X91314285Y-130538095D01*
X91123809Y-130585714D01*
X90980952Y-130585714D01*
X90790476Y-130538095D01*
X90695238Y-130490476D01*
X90600000Y-130395238D01*
X90552380Y-130252380D01*
X90552380Y-130157142D01*
X90600000Y-130014285D01*
X90647619Y-129966666D01*
X90647619Y-129585714D02*
X90600000Y-129538095D01*
X90552380Y-129442857D01*
X90552380Y-129204761D01*
X90600000Y-129109523D01*
X90647619Y-129061904D01*
X90742857Y-129014285D01*
X90838095Y-129014285D01*
X90980952Y-129061904D01*
X91552380Y-129633333D01*
X91552380Y-129014285D01*
X105057142Y-129216666D02*
X105104761Y-129264285D01*
X105152380Y-129407142D01*
X105152380Y-129502380D01*
X105104761Y-129645238D01*
X105009523Y-129740476D01*
X104914285Y-129788095D01*
X104723809Y-129835714D01*
X104580952Y-129835714D01*
X104390476Y-129788095D01*
X104295238Y-129740476D01*
X104200000Y-129645238D01*
X104152380Y-129502380D01*
X104152380Y-129407142D01*
X104200000Y-129264285D01*
X104247619Y-129216666D01*
X105152380Y-128264285D02*
X105152380Y-128835714D01*
X105152380Y-128550000D02*
X104152380Y-128550000D01*
X104295238Y-128645238D01*
X104390476Y-128740476D01*
X104438095Y-128835714D01*
X92952380Y-108666666D02*
X92476190Y-109000000D01*
X92952380Y-109238095D02*
X91952380Y-109238095D01*
X91952380Y-108857142D01*
X92000000Y-108761904D01*
X92047619Y-108714285D01*
X92142857Y-108666666D01*
X92285714Y-108666666D01*
X92380952Y-108714285D01*
X92428571Y-108761904D01*
X92476190Y-108857142D01*
X92476190Y-109238095D01*
X92285714Y-107809523D02*
X92952380Y-107809523D01*
X91904761Y-108047619D02*
X92619047Y-108285714D01*
X92619047Y-107666666D01*
X94452380Y-108666666D02*
X93976190Y-109000000D01*
X94452380Y-109238095D02*
X93452380Y-109238095D01*
X93452380Y-108857142D01*
X93500000Y-108761904D01*
X93547619Y-108714285D01*
X93642857Y-108666666D01*
X93785714Y-108666666D01*
X93880952Y-108714285D01*
X93928571Y-108761904D01*
X93976190Y-108857142D01*
X93976190Y-109238095D01*
X93452380Y-108333333D02*
X93452380Y-107714285D01*
X93833333Y-108047619D01*
X93833333Y-107904761D01*
X93880952Y-107809523D01*
X93928571Y-107761904D01*
X94023809Y-107714285D01*
X94261904Y-107714285D01*
X94357142Y-107761904D01*
X94404761Y-107809523D01*
X94452380Y-107904761D01*
X94452380Y-108190476D01*
X94404761Y-108285714D01*
X94357142Y-108333333D01*
X85652380Y-123266666D02*
X85176190Y-123600000D01*
X85652380Y-123838095D02*
X84652380Y-123838095D01*
X84652380Y-123457142D01*
X84700000Y-123361904D01*
X84747619Y-123314285D01*
X84842857Y-123266666D01*
X84985714Y-123266666D01*
X85080952Y-123314285D01*
X85128571Y-123361904D01*
X85176190Y-123457142D01*
X85176190Y-123838095D01*
X84747619Y-122885714D02*
X84700000Y-122838095D01*
X84652380Y-122742857D01*
X84652380Y-122504761D01*
X84700000Y-122409523D01*
X84747619Y-122361904D01*
X84842857Y-122314285D01*
X84938095Y-122314285D01*
X85080952Y-122361904D01*
X85652380Y-122933333D01*
X85652380Y-122314285D01*
X85652380Y-125466666D02*
X85176190Y-125800000D01*
X85652380Y-126038095D02*
X84652380Y-126038095D01*
X84652380Y-125657142D01*
X84700000Y-125561904D01*
X84747619Y-125514285D01*
X84842857Y-125466666D01*
X84985714Y-125466666D01*
X85080952Y-125514285D01*
X85128571Y-125561904D01*
X85176190Y-125657142D01*
X85176190Y-126038095D01*
X85652380Y-124514285D02*
X85652380Y-125085714D01*
X85652380Y-124800000D02*
X84652380Y-124800000D01*
X84795238Y-124895238D01*
X84890476Y-124990476D01*
X84938095Y-125085714D01*
D17*
X83796800Y-114666171D02*
X83796800Y-115101600D01*
X83767771Y-115188685D01*
X83709714Y-115246742D01*
X83622628Y-115275771D01*
X83564571Y-115275771D01*
X84406400Y-115275771D02*
X84058057Y-115275771D01*
X84232228Y-115275771D02*
X84232228Y-114666171D01*
X84174171Y-114753257D01*
X84116114Y-114811314D01*
X84058057Y-114840342D01*
D10*
X97061904Y-104952380D02*
X97061904Y-103952380D01*
X97300000Y-103952380D01*
X97442857Y-104000000D01*
X97538095Y-104095238D01*
X97585714Y-104190476D01*
X97633333Y-104380952D01*
X97633333Y-104523809D01*
X97585714Y-104714285D01*
X97538095Y-104809523D01*
X97442857Y-104904761D01*
X97300000Y-104952380D01*
X97061904Y-104952380D01*
X98014285Y-104047619D02*
X98061904Y-104000000D01*
X98157142Y-103952380D01*
X98395238Y-103952380D01*
X98490476Y-104000000D01*
X98538095Y-104047619D01*
X98585714Y-104142857D01*
X98585714Y-104238095D01*
X98538095Y-104380952D01*
X97966666Y-104952380D01*
X98585714Y-104952380D01*
X94452380Y-124238095D02*
X93452380Y-124238095D01*
X93452380Y-124000000D01*
X93500000Y-123857142D01*
X93595238Y-123761904D01*
X93690476Y-123714285D01*
X93880952Y-123666666D01*
X94023809Y-123666666D01*
X94214285Y-123714285D01*
X94309523Y-123761904D01*
X94404761Y-123857142D01*
X94452380Y-124000000D01*
X94452380Y-124238095D01*
X94452380Y-122714285D02*
X94452380Y-123285714D01*
X94452380Y-123000000D02*
X93452380Y-123000000D01*
X93595238Y-123095238D01*
X93690476Y-123190476D01*
X93738095Y-123285714D01*
X104933333Y-104157142D02*
X104885714Y-104204761D01*
X104742857Y-104252380D01*
X104647619Y-104252380D01*
X104504761Y-104204761D01*
X104409523Y-104109523D01*
X104361904Y-104014285D01*
X104314285Y-103823809D01*
X104314285Y-103680952D01*
X104361904Y-103490476D01*
X104409523Y-103395238D01*
X104504761Y-103300000D01*
X104647619Y-103252380D01*
X104742857Y-103252380D01*
X104885714Y-103300000D01*
X104933333Y-103347619D01*
X105790476Y-103585714D02*
X105790476Y-104252380D01*
X105552380Y-103204761D02*
X105314285Y-103919047D01*
X105933333Y-103919047D01*
X126452380Y-119238095D02*
X125452380Y-119238095D01*
X125452380Y-118857142D01*
X125500000Y-118761904D01*
X125547619Y-118714285D01*
X125642857Y-118666666D01*
X125785714Y-118666666D01*
X125880952Y-118714285D01*
X125928571Y-118761904D01*
X125976190Y-118857142D01*
X125976190Y-119238095D01*
X126452380Y-117714285D02*
X126452380Y-118285714D01*
X126452380Y-118000000D02*
X125452380Y-118000000D01*
X125595238Y-118095238D01*
X125690476Y-118190476D01*
X125738095Y-118285714D01*
%LPC*%
D18*
X136697056Y-101302944D03*
X135000000Y-100600000D03*
X133302944Y-101302944D03*
X132600000Y-103000000D03*
X133302944Y-104697056D03*
X135000000Y-105400000D03*
X136697056Y-104697056D03*
X137400000Y-103000000D03*
D19*
X135000000Y-103000000D03*
D20*
X89000000Y-118500000D03*
D21*
X87095000Y-115800000D03*
X87095000Y-121200000D03*
X88365000Y-115800000D03*
X88365000Y-121200000D03*
X89635000Y-115800000D03*
X89635000Y-121200000D03*
X90905000Y-115800000D03*
X90905000Y-121200000D03*
D18*
X136697056Y-129302944D03*
X135000000Y-128600000D03*
X133302944Y-129302944D03*
X132600000Y-131000000D03*
X133302944Y-132697056D03*
X135000000Y-133400000D03*
X136697056Y-132697056D03*
X137400000Y-131000000D03*
D19*
X135000000Y-131000000D03*
D18*
X87697056Y-129302944D03*
X86000000Y-128600000D03*
X84302944Y-129302944D03*
X83600000Y-131000000D03*
X84302944Y-132697056D03*
X86000000Y-133400000D03*
X87697056Y-132697056D03*
X88400000Y-131000000D03*
D19*
X86000000Y-131000000D03*
D18*
X87697056Y-101302944D03*
X86000000Y-100600000D03*
X84302944Y-101302944D03*
X83600000Y-103000000D03*
X84302944Y-104697056D03*
X86000000Y-105400000D03*
X87697056Y-104697056D03*
X88400000Y-103000000D03*
D19*
X86000000Y-103000000D03*
D22*
X117500000Y-126420000D03*
X117500000Y-122460000D03*
X117500000Y-118500000D03*
X117500000Y-114540000D03*
X117500000Y-110580000D03*
D23*
X101900000Y-121100000D03*
X101900000Y-111400000D03*
G36*
G01*
X92867500Y-115145000D02*
X92867500Y-115455000D01*
G75*
G02*
X92712500Y-115610000I-155000J0D01*
G01*
X92287500Y-115610000D01*
G75*
G02*
X92132500Y-115455000I0J155000D01*
G01*
X92132500Y-115145000D01*
G75*
G02*
X92287500Y-114990000I155000J0D01*
G01*
X92712500Y-114990000D01*
G75*
G02*
X92867500Y-115145000I0J-155000D01*
G01*
G37*
G36*
G01*
X94002500Y-115145000D02*
X94002500Y-115455000D01*
G75*
G02*
X93847500Y-115610000I-155000J0D01*
G01*
X93422500Y-115610000D01*
G75*
G02*
X93267500Y-115455000I0J155000D01*
G01*
X93267500Y-115145000D01*
G75*
G02*
X93422500Y-114990000I155000J0D01*
G01*
X93847500Y-114990000D01*
G75*
G02*
X94002500Y-115145000I0J-155000D01*
G01*
G37*
G36*
G01*
X89849999Y-127000000D02*
X92750001Y-127000000D01*
G75*
G02*
X93000000Y-127249999I0J-249999D01*
G01*
X93000000Y-128150001D01*
G75*
G02*
X92750001Y-128400000I-249999J0D01*
G01*
X89849999Y-128400000D01*
G75*
G02*
X89600000Y-128150001I0J249999D01*
G01*
X89600000Y-127249999D01*
G75*
G02*
X89849999Y-127000000I249999J0D01*
G01*
G37*
G36*
G01*
X89849999Y-122900000D02*
X92750001Y-122900000D01*
G75*
G02*
X93000000Y-123149999I0J-249999D01*
G01*
X93000000Y-124050001D01*
G75*
G02*
X92750001Y-124300000I-249999J0D01*
G01*
X89849999Y-124300000D01*
G75*
G02*
X89600000Y-124050001I0J249999D01*
G01*
X89600000Y-123149999D01*
G75*
G02*
X89849999Y-122900000I249999J0D01*
G01*
G37*
G36*
G01*
X98500000Y-130100000D02*
X100500000Y-130100000D01*
G75*
G02*
X100750000Y-130350000I0J-250000D01*
G01*
X100750000Y-133850000D01*
G75*
G02*
X100500000Y-134100000I-250000J0D01*
G01*
X98500000Y-134100000D01*
G75*
G02*
X98250000Y-133850000I0J250000D01*
G01*
X98250000Y-130350000D01*
G75*
G02*
X98500000Y-130100000I250000J0D01*
G01*
G37*
G36*
G01*
X98500000Y-124000000D02*
X100500000Y-124000000D01*
G75*
G02*
X100750000Y-124250000I0J-250000D01*
G01*
X100750000Y-127750000D01*
G75*
G02*
X100500000Y-128000000I-250000J0D01*
G01*
X98500000Y-128000000D01*
G75*
G02*
X98250000Y-127750000I0J250000D01*
G01*
X98250000Y-124250000D01*
G75*
G02*
X98500000Y-124000000I250000J0D01*
G01*
G37*
G36*
G01*
X92675000Y-110750000D02*
X92125000Y-110750000D01*
G75*
G02*
X91925000Y-110550000I0J200000D01*
G01*
X91925000Y-110150000D01*
G75*
G02*
X92125000Y-109950000I200000J0D01*
G01*
X92675000Y-109950000D01*
G75*
G02*
X92875000Y-110150000I0J-200000D01*
G01*
X92875000Y-110550000D01*
G75*
G02*
X92675000Y-110750000I-200000J0D01*
G01*
G37*
G36*
G01*
X92675000Y-112400000D02*
X92125000Y-112400000D01*
G75*
G02*
X91925000Y-112200000I0J200000D01*
G01*
X91925000Y-111800000D01*
G75*
G02*
X92125000Y-111600000I200000J0D01*
G01*
X92675000Y-111600000D01*
G75*
G02*
X92875000Y-111800000I0J-200000D01*
G01*
X92875000Y-112200000D01*
G75*
G02*
X92675000Y-112400000I-200000J0D01*
G01*
G37*
G36*
G01*
X93725000Y-111600000D02*
X94275000Y-111600000D01*
G75*
G02*
X94475000Y-111800000I0J-200000D01*
G01*
X94475000Y-112200000D01*
G75*
G02*
X94275000Y-112400000I-200000J0D01*
G01*
X93725000Y-112400000D01*
G75*
G02*
X93525000Y-112200000I0J200000D01*
G01*
X93525000Y-111800000D01*
G75*
G02*
X93725000Y-111600000I200000J0D01*
G01*
G37*
G36*
G01*
X93725000Y-109950000D02*
X94275000Y-109950000D01*
G75*
G02*
X94475000Y-110150000I0J-200000D01*
G01*
X94475000Y-110550000D01*
G75*
G02*
X94275000Y-110750000I-200000J0D01*
G01*
X93725000Y-110750000D01*
G75*
G02*
X93525000Y-110550000I0J200000D01*
G01*
X93525000Y-110150000D01*
G75*
G02*
X93725000Y-109950000I200000J0D01*
G01*
G37*
G36*
G01*
X87050000Y-122825000D02*
X87050000Y-123375000D01*
G75*
G02*
X86850000Y-123575000I-200000J0D01*
G01*
X86450000Y-123575000D01*
G75*
G02*
X86250000Y-123375000I0J200000D01*
G01*
X86250000Y-122825000D01*
G75*
G02*
X86450000Y-122625000I200000J0D01*
G01*
X86850000Y-122625000D01*
G75*
G02*
X87050000Y-122825000I0J-200000D01*
G01*
G37*
G36*
G01*
X88700000Y-122825000D02*
X88700000Y-123375000D01*
G75*
G02*
X88500000Y-123575000I-200000J0D01*
G01*
X88100000Y-123575000D01*
G75*
G02*
X87900000Y-123375000I0J200000D01*
G01*
X87900000Y-122825000D01*
G75*
G02*
X88100000Y-122625000I200000J0D01*
G01*
X88500000Y-122625000D01*
G75*
G02*
X88700000Y-122825000I0J-200000D01*
G01*
G37*
G36*
G01*
X87100000Y-124825000D02*
X87100000Y-125375000D01*
G75*
G02*
X86900000Y-125575000I-200000J0D01*
G01*
X86500000Y-125575000D01*
G75*
G02*
X86300000Y-125375000I0J200000D01*
G01*
X86300000Y-124825000D01*
G75*
G02*
X86500000Y-124625000I200000J0D01*
G01*
X86900000Y-124625000D01*
G75*
G02*
X87100000Y-124825000I0J-200000D01*
G01*
G37*
G36*
G01*
X88750000Y-124825000D02*
X88750000Y-125375000D01*
G75*
G02*
X88550000Y-125575000I-200000J0D01*
G01*
X88150000Y-125575000D01*
G75*
G02*
X87950000Y-125375000I0J200000D01*
G01*
X87950000Y-124825000D01*
G75*
G02*
X88150000Y-124625000I200000J0D01*
G01*
X88550000Y-124625000D01*
G75*
G02*
X88750000Y-124825000I0J-200000D01*
G01*
G37*
D24*
X89000000Y-110001780D03*
X89000000Y-111998220D03*
D25*
X100000000Y-106500000D03*
X95600000Y-106500000D03*
D26*
X93500000Y-117100000D03*
X93500000Y-121500000D03*
G36*
G01*
X105525000Y-107550000D02*
X105525000Y-106450000D01*
G75*
G02*
X105775000Y-106200000I250000J0D01*
G01*
X107925000Y-106200000D01*
G75*
G02*
X108175000Y-106450000I0J-250000D01*
G01*
X108175000Y-107550000D01*
G75*
G02*
X107925000Y-107800000I-250000J0D01*
G01*
X105775000Y-107800000D01*
G75*
G02*
X105525000Y-107550000I0J250000D01*
G01*
G37*
G36*
G01*
X102175000Y-107550000D02*
X102175000Y-106450000D01*
G75*
G02*
X102425000Y-106200000I250000J0D01*
G01*
X104575000Y-106200000D01*
G75*
G02*
X104825000Y-106450000I0J-250000D01*
G01*
X104825000Y-107550000D01*
G75*
G02*
X104575000Y-107800000I-250000J0D01*
G01*
X102425000Y-107800000D01*
G75*
G02*
X102175000Y-107550000I0J250000D01*
G01*
G37*
D22*
X129500000Y-110580000D03*
X129500000Y-114540000D03*
X129500000Y-118500000D03*
X129500000Y-122460000D03*
X129500000Y-126420000D03*
M02*
