G04 #@! TF.GenerationSoftware,KiCad,Pcbnew,5.1.10-88a1d61d58~90~ubuntu20.04.1*
G04 #@! TF.CreationDate,2021-10-22T15:45:46-05:00*
G04 #@! TF.ProjectId,power-share,706f7765-722d-4736-9861-72652e6b6963,rev?*
G04 #@! TF.SameCoordinates,Original*
G04 #@! TF.FileFunction,Legend,Bot*
G04 #@! TF.FilePolarity,Positive*
%FSLAX46Y46*%
G04 Gerber Fmt 4.6, Leading zero omitted, Abs format (unit mm)*
G04 Created by KiCad (PCBNEW 5.1.10-88a1d61d58~90~ubuntu20.04.1) date 2021-10-22 15:45:46*
%MOMM*%
%LPD*%
G01*
G04 APERTURE LIST*
%ADD10C,0.150000*%
%ADD11C,0.120000*%
%ADD12C,0.200000*%
%ADD13C,0.100000*%
%ADD14C,0.010000*%
%ADD15C,0.800000*%
%ADD16C,6.400000*%
%ADD17O,3.500000X3.100000*%
%ADD18C,1.800860*%
G04 APERTURE END LIST*
D10*
X128609523Y-134052380D02*
X128609523Y-133052380D01*
X128276190Y-133766666D01*
X127942857Y-133052380D01*
X127942857Y-134052380D01*
X127561904Y-133052380D02*
X126942857Y-133052380D01*
X127276190Y-133433333D01*
X127133333Y-133433333D01*
X127038095Y-133480952D01*
X126990476Y-133528571D01*
X126942857Y-133623809D01*
X126942857Y-133861904D01*
X126990476Y-133957142D01*
X127038095Y-134004761D01*
X127133333Y-134052380D01*
X127419047Y-134052380D01*
X127514285Y-134004761D01*
X127561904Y-133957142D01*
D11*
X131300000Y-134100000D02*
X129000000Y-131800000D01*
X131240175Y-132900000D02*
G75*
G03*
X131240175Y-132900000I-1140175J0D01*
G01*
D12*
X121885714Y-106542857D02*
X121885714Y-105342857D01*
X121428571Y-105342857D01*
X121314285Y-105400000D01*
X121257142Y-105457142D01*
X121200000Y-105571428D01*
X121200000Y-105742857D01*
X121257142Y-105857142D01*
X121314285Y-105914285D01*
X121428571Y-105971428D01*
X121885714Y-105971428D01*
X120514285Y-106542857D02*
X120628571Y-106485714D01*
X120685714Y-106428571D01*
X120742857Y-106314285D01*
X120742857Y-105971428D01*
X120685714Y-105857142D01*
X120628571Y-105800000D01*
X120514285Y-105742857D01*
X120342857Y-105742857D01*
X120228571Y-105800000D01*
X120171428Y-105857142D01*
X120114285Y-105971428D01*
X120114285Y-106314285D01*
X120171428Y-106428571D01*
X120228571Y-106485714D01*
X120342857Y-106542857D01*
X120514285Y-106542857D01*
X119714285Y-105742857D02*
X119485714Y-106542857D01*
X119257142Y-105971428D01*
X119028571Y-106542857D01*
X118800000Y-105742857D01*
X117885714Y-106485714D02*
X118000000Y-106542857D01*
X118228571Y-106542857D01*
X118342857Y-106485714D01*
X118400000Y-106371428D01*
X118400000Y-105914285D01*
X118342857Y-105800000D01*
X118228571Y-105742857D01*
X118000000Y-105742857D01*
X117885714Y-105800000D01*
X117828571Y-105914285D01*
X117828571Y-106028571D01*
X118400000Y-106142857D01*
X117314285Y-106542857D02*
X117314285Y-105742857D01*
X117314285Y-105971428D02*
X117257142Y-105857142D01*
X117200000Y-105800000D01*
X117085714Y-105742857D01*
X116971428Y-105742857D01*
X116571428Y-106085714D02*
X115657142Y-106085714D01*
X115142857Y-106485714D02*
X114971428Y-106542857D01*
X114685714Y-106542857D01*
X114571428Y-106485714D01*
X114514285Y-106428571D01*
X114457142Y-106314285D01*
X114457142Y-106200000D01*
X114514285Y-106085714D01*
X114571428Y-106028571D01*
X114685714Y-105971428D01*
X114914285Y-105914285D01*
X115028571Y-105857142D01*
X115085714Y-105800000D01*
X115142857Y-105685714D01*
X115142857Y-105571428D01*
X115085714Y-105457142D01*
X115028571Y-105400000D01*
X114914285Y-105342857D01*
X114628571Y-105342857D01*
X114457142Y-105400000D01*
X113942857Y-106542857D02*
X113942857Y-105342857D01*
X113428571Y-106542857D02*
X113428571Y-105914285D01*
X113485714Y-105800000D01*
X113600000Y-105742857D01*
X113771428Y-105742857D01*
X113885714Y-105800000D01*
X113942857Y-105857142D01*
X112342857Y-106542857D02*
X112342857Y-105914285D01*
X112400000Y-105800000D01*
X112514285Y-105742857D01*
X112742857Y-105742857D01*
X112857142Y-105800000D01*
X112342857Y-106485714D02*
X112457142Y-106542857D01*
X112742857Y-106542857D01*
X112857142Y-106485714D01*
X112914285Y-106371428D01*
X112914285Y-106257142D01*
X112857142Y-106142857D01*
X112742857Y-106085714D01*
X112457142Y-106085714D01*
X112342857Y-106028571D01*
X111771428Y-106542857D02*
X111771428Y-105742857D01*
X111771428Y-105971428D02*
X111714285Y-105857142D01*
X111657142Y-105800000D01*
X111542857Y-105742857D01*
X111428571Y-105742857D01*
X111028571Y-106542857D02*
X111028571Y-105742857D01*
X111028571Y-105342857D02*
X111085714Y-105400000D01*
X111028571Y-105457142D01*
X110971428Y-105400000D01*
X111028571Y-105342857D01*
X111028571Y-105457142D01*
X110457142Y-105742857D02*
X110457142Y-106542857D01*
X110457142Y-105857142D02*
X110400000Y-105800000D01*
X110285714Y-105742857D01*
X110114285Y-105742857D01*
X110000000Y-105800000D01*
X109942857Y-105914285D01*
X109942857Y-106542857D01*
X108857142Y-105742857D02*
X108857142Y-106714285D01*
X108914285Y-106828571D01*
X108971428Y-106885714D01*
X109085714Y-106942857D01*
X109257142Y-106942857D01*
X109371428Y-106885714D01*
X108857142Y-106485714D02*
X108971428Y-106542857D01*
X109200000Y-106542857D01*
X109314285Y-106485714D01*
X109371428Y-106428571D01*
X109428571Y-106314285D01*
X109428571Y-105971428D01*
X109371428Y-105857142D01*
X109314285Y-105800000D01*
X109200000Y-105742857D01*
X108971428Y-105742857D01*
X108857142Y-105800000D01*
X106685714Y-106542857D02*
X107085714Y-105971428D01*
X107371428Y-106542857D02*
X107371428Y-105342857D01*
X106914285Y-105342857D01*
X106800000Y-105400000D01*
X106742857Y-105457142D01*
X106685714Y-105571428D01*
X106685714Y-105742857D01*
X106742857Y-105857142D01*
X106800000Y-105914285D01*
X106914285Y-105971428D01*
X107371428Y-105971428D01*
X105714285Y-106485714D02*
X105828571Y-106542857D01*
X106057142Y-106542857D01*
X106171428Y-106485714D01*
X106228571Y-106371428D01*
X106228571Y-105914285D01*
X106171428Y-105800000D01*
X106057142Y-105742857D01*
X105828571Y-105742857D01*
X105714285Y-105800000D01*
X105657142Y-105914285D01*
X105657142Y-106028571D01*
X106228571Y-106142857D01*
X104628571Y-105742857D02*
X104628571Y-106714285D01*
X104685714Y-106828571D01*
X104742857Y-106885714D01*
X104857142Y-106942857D01*
X105028571Y-106942857D01*
X105142857Y-106885714D01*
X104628571Y-106485714D02*
X104742857Y-106542857D01*
X104971428Y-106542857D01*
X105085714Y-106485714D01*
X105142857Y-106428571D01*
X105200000Y-106314285D01*
X105200000Y-105971428D01*
X105142857Y-105857142D01*
X105085714Y-105800000D01*
X104971428Y-105742857D01*
X104742857Y-105742857D01*
X104628571Y-105800000D01*
X103542857Y-105742857D02*
X103542857Y-106542857D01*
X104057142Y-105742857D02*
X104057142Y-106371428D01*
X104000000Y-106485714D01*
X103885714Y-106542857D01*
X103714285Y-106542857D01*
X103600000Y-106485714D01*
X103542857Y-106428571D01*
X102800000Y-106542857D02*
X102914285Y-106485714D01*
X102971428Y-106371428D01*
X102971428Y-105342857D01*
X101828571Y-106542857D02*
X101828571Y-105914285D01*
X101885714Y-105800000D01*
X102000000Y-105742857D01*
X102228571Y-105742857D01*
X102342857Y-105800000D01*
X101828571Y-106485714D02*
X101942857Y-106542857D01*
X102228571Y-106542857D01*
X102342857Y-106485714D01*
X102400000Y-106371428D01*
X102400000Y-106257142D01*
X102342857Y-106142857D01*
X102228571Y-106085714D01*
X101942857Y-106085714D01*
X101828571Y-106028571D01*
X101428571Y-105742857D02*
X100971428Y-105742857D01*
X101257142Y-105342857D02*
X101257142Y-106371428D01*
X101200000Y-106485714D01*
X101085714Y-106542857D01*
X100971428Y-106542857D01*
X100400000Y-106542857D02*
X100514285Y-106485714D01*
X100571428Y-106428571D01*
X100628571Y-106314285D01*
X100628571Y-105971428D01*
X100571428Y-105857142D01*
X100514285Y-105800000D01*
X100400000Y-105742857D01*
X100228571Y-105742857D01*
X100114285Y-105800000D01*
X100057142Y-105857142D01*
X100000000Y-105971428D01*
X100000000Y-106314285D01*
X100057142Y-106428571D01*
X100114285Y-106485714D01*
X100228571Y-106542857D01*
X100400000Y-106542857D01*
X99485714Y-106542857D02*
X99485714Y-105742857D01*
X99485714Y-105971428D02*
X99428571Y-105857142D01*
X99371428Y-105800000D01*
X99257142Y-105742857D01*
X99142857Y-105742857D01*
D11*
X91465000Y-106161252D02*
X91465000Y-105638748D01*
X92935000Y-106161252D02*
X92935000Y-105638748D01*
X95415000Y-110261252D02*
X95415000Y-109738748D01*
X96885000Y-110261252D02*
X96885000Y-109738748D01*
X89890000Y-106065580D02*
X89890000Y-105784420D01*
X90910000Y-106065580D02*
X90910000Y-105784420D01*
X97390000Y-110265580D02*
X97390000Y-109984420D01*
X98410000Y-110265580D02*
X98410000Y-109984420D01*
D13*
G36*
X127336175Y-100758006D02*
G01*
X127336175Y-103651886D01*
X126474212Y-101394659D01*
X126213763Y-101394659D01*
X125350250Y-103651886D01*
X125655658Y-103651886D01*
X125871148Y-103062775D01*
X126816827Y-103062775D01*
X127029217Y-103651886D01*
X127336175Y-103651886D01*
X127336175Y-100758006D01*
X127848806Y-100758006D01*
X128048956Y-100767839D01*
X128247179Y-100797242D01*
X128441565Y-100845933D01*
X128630243Y-100913443D01*
X128811395Y-100999122D01*
X128983277Y-101102144D01*
X129144233Y-101221517D01*
X129292714Y-101356092D01*
X129427288Y-101504573D01*
X129546662Y-101665529D01*
X129649684Y-101837411D01*
X129735362Y-102018563D01*
X129802872Y-102207240D01*
X129851563Y-102401627D01*
X129880967Y-102599850D01*
X129890800Y-102800000D01*
X129880967Y-103000150D01*
X129851563Y-103198373D01*
X129802872Y-103392760D01*
X129735362Y-103581437D01*
X129649684Y-103762589D01*
X124395270Y-103682892D01*
X124608521Y-103658001D01*
X124793523Y-103583329D01*
X124950274Y-103458875D01*
X125069130Y-103292735D01*
X125140444Y-103093005D01*
X125164215Y-102859686D01*
X125164215Y-102806976D01*
X125140379Y-102570750D01*
X125068872Y-102361267D01*
X124954538Y-102186472D01*
X124802221Y-102054309D01*
X124623744Y-101971175D01*
X124430926Y-101943463D01*
X124229044Y-101967407D01*
X124059545Y-102039237D01*
X123922430Y-102158954D01*
X123821661Y-102323285D01*
X123761200Y-102528957D01*
X123741046Y-102775970D01*
X123741046Y-102895343D01*
X123409283Y-103651886D01*
X123409283Y-101974469D01*
X123130231Y-101974469D01*
X123125580Y-102168256D01*
X122955047Y-101999661D01*
X122725604Y-101943463D01*
X122598480Y-101965167D01*
X122598480Y-102231818D01*
X122739557Y-102220966D01*
X122907505Y-102247665D01*
X123035146Y-102327764D01*
X123122479Y-102461261D01*
X122410895Y-102797675D01*
X122386671Y-102563580D01*
X122314001Y-102354291D01*
X122198117Y-102179883D01*
X122044250Y-102050433D01*
X121859184Y-101970206D01*
X121649701Y-101943463D01*
X121435846Y-101969818D01*
X121251103Y-102048883D01*
X121095471Y-102180658D01*
X120977907Y-102356186D01*
X120907369Y-102566509D01*
X120883856Y-102811627D01*
X120883856Y-102831781D01*
X120907304Y-103064131D01*
X120977649Y-103271289D01*
X120572053Y-103279234D01*
X120593951Y-103135638D01*
X120307147Y-103135638D01*
X120274397Y-103264894D01*
X120191650Y-103364307D01*
X120066658Y-103427675D01*
X119907171Y-103448798D01*
X119760475Y-103432326D01*
X119645947Y-103382910D01*
X119547503Y-103206952D01*
X119635095Y-103026343D01*
X119755243Y-102966463D01*
X119940503Y-102915497D01*
X120135840Y-102864337D01*
X120286218Y-102803876D01*
X120475354Y-102648846D01*
X120536590Y-102434906D01*
X120492988Y-102244608D01*
X120362182Y-102086090D01*
X120163551Y-101979120D01*
X119916473Y-101943463D01*
X119658156Y-101980283D01*
X119453711Y-102090741D01*
X119320579Y-102258560D01*
X119276202Y-102467462D01*
X119564557Y-102467462D01*
X119664551Y-102264374D01*
X119777528Y-102200424D01*
X119916473Y-102179108D01*
X120056000Y-102196161D01*
X120161419Y-102247321D01*
X120249786Y-102425604D01*
X120167621Y-102582184D01*
X120052318Y-102633731D01*
X119870740Y-102682953D01*
X119676372Y-102735663D01*
X119522699Y-102797675D01*
X118963043Y-102797675D01*
X118938820Y-102563580D01*
X118866150Y-102354291D01*
X118750265Y-102179883D01*
X118596399Y-102050433D01*
X118411333Y-101970206D01*
X118201849Y-101943463D01*
X117987995Y-101969818D01*
X117803252Y-102048883D01*
X117647619Y-102180658D01*
X117530056Y-102356186D01*
X117459517Y-102566509D01*
X117436004Y-102811627D01*
X117436004Y-102831781D01*
X117459453Y-103064131D01*
X117529797Y-103271289D01*
X117643744Y-103444341D01*
X117797998Y-103574371D01*
X117985390Y-103655762D01*
X118198749Y-103682892D01*
X118411742Y-103656537D01*
X118595968Y-103577472D01*
X118751428Y-103445697D01*
X118868992Y-103270514D01*
X118939530Y-103061224D01*
X118963043Y-102817828D01*
X118963043Y-102797675D01*
X119522699Y-102797675D01*
X119325036Y-102958130D01*
X119260699Y-103186798D01*
X119305658Y-103389305D01*
X119440533Y-103547241D01*
X119647110Y-103648979D01*
X119907171Y-103682892D01*
X120097082Y-103665063D01*
X120263739Y-103611578D01*
X120401909Y-103526118D01*
X120506360Y-103412366D01*
X120572053Y-103279234D01*
X120977649Y-103271289D01*
X121091595Y-103444341D01*
X121245849Y-103574371D01*
X121433241Y-103655762D01*
X121646600Y-103682892D01*
X121859593Y-103656537D01*
X122043820Y-103577472D01*
X122199280Y-103445697D01*
X122316843Y-103270514D01*
X122387382Y-103061224D01*
X122410895Y-102817828D01*
X122410895Y-102797675D01*
X123122479Y-102461261D01*
X123122479Y-103651886D01*
X123409283Y-103651886D01*
X123741046Y-102895343D01*
X124877411Y-102895343D01*
X124838072Y-103119554D01*
X124732458Y-103296094D01*
X124574910Y-103410622D01*
X124379767Y-103448798D01*
X124239465Y-103433295D01*
X124122418Y-103386786D01*
X123937933Y-103222455D01*
X123762750Y-103358881D01*
X123881347Y-103500636D01*
X124026300Y-103601889D01*
X124197607Y-103662641D01*
X124395270Y-103682892D01*
X129649684Y-103762589D01*
X129546662Y-103934471D01*
X116764728Y-103651886D01*
X117051532Y-103651886D01*
X117051532Y-101270636D01*
X116764728Y-101270636D01*
X115660919Y-101639606D01*
X115660919Y-101394659D01*
X113915289Y-101394659D01*
X113915289Y-101639606D01*
X114640826Y-101639606D01*
X114640826Y-103651886D01*
X114936932Y-103651886D01*
X114936932Y-101639606D01*
X115660919Y-101639606D01*
X116764728Y-101270636D01*
X116764728Y-103651886D01*
X129546662Y-103934471D01*
X129427288Y-104095427D01*
X112929303Y-103682892D01*
X113142554Y-103658001D01*
X113327556Y-103583329D01*
X113484308Y-103458875D01*
X113603163Y-103292735D01*
X113674477Y-103093005D01*
X113698248Y-102859686D01*
X113698248Y-102806976D01*
X113674412Y-102570750D01*
X113602905Y-102361267D01*
X113488571Y-102186472D01*
X113336255Y-102054309D01*
X113157777Y-101971175D01*
X112964960Y-101943463D01*
X112763077Y-101967407D01*
X112593578Y-102039237D01*
X112456463Y-102158954D01*
X112355694Y-102323285D01*
X112295233Y-102528957D01*
X112017731Y-102780621D01*
X111995251Y-102549240D01*
X111927814Y-102344989D01*
X111818324Y-102175620D01*
X111669690Y-102048883D01*
X111486174Y-101969818D01*
X111272040Y-101943463D01*
X111094531Y-101962239D01*
X110938210Y-102018566D01*
X110803076Y-102112445D01*
X110659868Y-102306619D01*
X110603863Y-102551178D01*
X110281402Y-103651886D01*
X110281402Y-101270636D01*
X109994598Y-101270636D01*
X109994598Y-102177557D01*
X109854727Y-102047505D01*
X109689363Y-101969474D01*
X109498504Y-101943463D01*
X109306888Y-101967462D01*
X109157440Y-102039457D01*
X109050160Y-102159450D01*
X108985047Y-102327440D01*
X108962103Y-102543427D01*
X108532672Y-103651886D01*
X108532672Y-101974469D01*
X108261371Y-101974469D01*
X108252069Y-102185309D01*
X108110820Y-102050950D01*
X107943388Y-101970335D01*
X107749774Y-101943463D01*
X107558158Y-101967462D01*
X107408710Y-102039457D01*
X107301429Y-102159450D01*
X107236317Y-102327440D01*
X107213373Y-102543427D01*
X106856805Y-102797675D01*
X106832582Y-102563580D01*
X106759912Y-102354291D01*
X106644028Y-102179883D01*
X106490161Y-102050433D01*
X106305095Y-101970206D01*
X106095611Y-101943463D01*
X105881757Y-101969818D01*
X105697014Y-102048883D01*
X105541382Y-102180658D01*
X105423818Y-102356186D01*
X105353279Y-102566509D01*
X105329767Y-102811627D01*
X105329767Y-102831781D01*
X105353215Y-103064131D01*
X105423559Y-103271289D01*
X105537506Y-103444341D01*
X105691760Y-103574371D01*
X105879152Y-103655762D01*
X106092511Y-103682892D01*
X106305504Y-103656537D01*
X106489730Y-103577472D01*
X106645190Y-103445697D01*
X106762754Y-103270514D01*
X106833292Y-103061224D01*
X106856805Y-102817828D01*
X106856805Y-102797675D01*
X107213373Y-102543427D01*
X107213373Y-103651886D01*
X107500177Y-103651886D01*
X107500177Y-102541876D01*
X107521687Y-102384134D01*
X107583117Y-102273676D01*
X107687181Y-102208563D01*
X107836590Y-102186859D01*
X107967590Y-102205463D01*
X108081537Y-102261273D01*
X108245868Y-102456610D01*
X108245868Y-103651886D01*
X108532672Y-103651886D01*
X108962103Y-102543427D01*
X108962103Y-103651886D01*
X109248907Y-103651886D01*
X109248907Y-102541876D01*
X109270418Y-102384134D01*
X109331848Y-102273676D01*
X109435911Y-102208563D01*
X109585321Y-102186859D01*
X109716321Y-102205463D01*
X109830267Y-102261273D01*
X109994598Y-102456610D01*
X109994598Y-103651886D01*
X110281402Y-103651886D01*
X110603863Y-102551178D01*
X110875165Y-102551178D01*
X110912178Y-102402931D01*
X110998413Y-102283752D01*
X111122243Y-102205269D01*
X111272040Y-102179108D01*
X111466020Y-102218446D01*
X111610779Y-102336462D01*
X111700889Y-102528893D01*
X111730926Y-102791473D01*
X111730926Y-102845734D01*
X111701083Y-103102307D01*
X111611554Y-103292218D01*
X111466601Y-103409653D01*
X111270489Y-103448798D01*
X111126700Y-103425543D01*
X111002289Y-103355780D01*
X110913147Y-103251135D01*
X110875165Y-103123236D01*
X110603863Y-103123236D01*
X110632544Y-103263925D01*
X110703082Y-103397638D01*
X110809859Y-103514685D01*
X110947253Y-103605377D01*
X111104414Y-103663513D01*
X111270489Y-103682892D01*
X111483310Y-103657484D01*
X111664953Y-103581262D01*
X111815417Y-103454224D01*
X111927814Y-103283089D01*
X111995251Y-103074574D01*
X112017731Y-102828680D01*
X112017731Y-102780621D01*
X112295233Y-102528957D01*
X112275079Y-102775970D01*
X112275079Y-102895343D01*
X113411444Y-102895343D01*
X113372105Y-103119554D01*
X113266492Y-103296094D01*
X113108943Y-103410622D01*
X112913800Y-103448798D01*
X112773498Y-103433295D01*
X112656451Y-103386786D01*
X112471966Y-103222455D01*
X112296783Y-103358881D01*
X112415381Y-103500636D01*
X112560333Y-103601889D01*
X112731640Y-103662641D01*
X112929303Y-103682892D01*
X129427288Y-104095427D01*
X129292714Y-104243908D01*
X104658490Y-103651886D01*
X104945294Y-103651886D01*
X104945294Y-101270636D01*
X104658490Y-101270636D01*
X104275567Y-102797675D01*
X104251344Y-102563580D01*
X104178674Y-102354291D01*
X104062790Y-102179883D01*
X103908923Y-102050433D01*
X103723857Y-101970206D01*
X103514374Y-101943463D01*
X103300519Y-101969818D01*
X103115776Y-102048883D01*
X102960144Y-102180658D01*
X102842580Y-102356186D01*
X102772042Y-102566509D01*
X102457074Y-102799225D01*
X102436920Y-102555570D01*
X102376459Y-102347573D01*
X102275690Y-102175232D01*
X102141675Y-102046471D01*
X101981478Y-101969215D01*
X101795099Y-101943463D01*
X101605446Y-101967579D01*
X101445766Y-102039926D01*
X101316058Y-102160504D01*
X101302106Y-101974469D01*
X101040106Y-101974469D01*
X101040106Y-103611578D01*
X101061552Y-103813289D01*
X101125889Y-103984338D01*
X101233117Y-104124725D01*
X101376520Y-104228939D01*
X101549377Y-104291468D01*
X101751690Y-104312311D01*
X101931137Y-104292932D01*
X102106708Y-104234796D01*
X102259799Y-104142941D01*
X102371808Y-104022406D01*
X102222980Y-103850323D01*
X102090860Y-103976931D01*
X101940482Y-104052895D01*
X101771844Y-104078217D01*
X101585615Y-104048761D01*
X101445508Y-103960394D01*
X101357722Y-103818542D01*
X101328461Y-103628632D01*
X101328461Y-103484454D01*
X101457135Y-103594697D01*
X101613714Y-103660843D01*
X101798199Y-103682892D01*
X101982081Y-103656537D01*
X102140986Y-103577472D01*
X102274914Y-103445697D01*
X102376114Y-103268447D01*
X102436834Y-103052956D01*
X102457074Y-102799225D01*
X102772042Y-102566509D01*
X102748529Y-102811627D01*
X102748529Y-102831781D01*
X102771977Y-103064131D01*
X102842322Y-103271289D01*
X102956268Y-103444341D01*
X103110522Y-103574371D01*
X103297914Y-103655762D01*
X103511273Y-103682892D01*
X103724266Y-103656537D01*
X103908493Y-103577472D01*
X104063952Y-103445697D01*
X104181516Y-103270514D01*
X104252055Y-103061224D01*
X104275567Y-102817828D01*
X104275567Y-102797675D01*
X104658490Y-101270636D01*
X104658490Y-103651886D01*
X129292714Y-104243908D01*
X129144233Y-104378483D01*
X128983277Y-104497856D01*
X128811395Y-104600878D01*
X128630243Y-104686557D01*
X128441565Y-104754067D01*
X128247179Y-104802758D01*
X128048956Y-104832161D01*
X127848806Y-104841994D01*
X127336175Y-104841994D01*
X93463824Y-104841994D01*
X100035516Y-103910785D01*
X100160401Y-104143329D01*
X100326282Y-104282855D01*
X100533160Y-104329364D01*
X100587420Y-104324713D01*
X100694391Y-104304559D01*
X100694391Y-104072015D01*
X100616876Y-104078217D01*
X100389758Y-104019305D01*
X100315538Y-103935977D01*
X100255658Y-103803815D01*
X100192096Y-103633282D01*
X100790509Y-101974469D01*
X100477350Y-101974469D01*
X100058771Y-103231757D01*
X99668097Y-101974469D01*
X99361139Y-101974469D01*
X98274383Y-103651886D01*
X98274383Y-101394659D01*
X97975177Y-101394659D01*
X97975177Y-103408490D01*
X96905475Y-103408490D01*
X96905475Y-103651886D01*
X98274383Y-103651886D01*
X99361139Y-101974469D01*
X100035516Y-103910785D01*
X93463824Y-104841994D01*
X92951194Y-104841994D01*
X95575323Y-103651886D01*
X95615631Y-103475153D01*
X95757569Y-103590563D01*
X95916732Y-103659810D01*
X96093121Y-103682892D01*
X96318883Y-103647816D01*
X96500073Y-103542590D01*
X96619252Y-103383492D01*
X96658978Y-103186798D01*
X96609175Y-102954060D01*
X96459765Y-102779846D01*
X96308956Y-102699317D01*
X96122146Y-102651000D01*
X95899335Y-102634894D01*
X95620282Y-102634894D01*
X95620282Y-102503119D01*
X95642761Y-102368050D01*
X95710199Y-102263599D01*
X95821432Y-102196742D01*
X95975299Y-102174457D01*
X96116376Y-102193835D01*
X96232648Y-102251971D01*
X96336517Y-102439557D01*
X96624872Y-102439557D01*
X96602586Y-102316115D01*
X96535730Y-102196936D01*
X96430697Y-102092097D01*
X96293884Y-102011676D01*
X96133623Y-101960516D01*
X95958246Y-101943463D01*
X95699734Y-101979701D01*
X95504010Y-102088416D01*
X95379211Y-102260692D01*
X95333478Y-102487616D01*
X95333478Y-103259662D01*
X95318750Y-103467014D01*
X95274566Y-103627081D01*
X95274566Y-103651886D01*
X95575323Y-103651886D01*
X92951194Y-104841994D01*
X92751044Y-104832161D01*
X93463824Y-102831781D01*
X93483461Y-103071301D01*
X93542372Y-103277232D01*
X93640558Y-103449573D01*
X93771816Y-103579194D01*
X93929946Y-103656968D01*
X94114947Y-103682892D01*
X94310801Y-103657915D01*
X94474615Y-103582984D01*
X94606390Y-103458099D01*
X94620343Y-103651886D01*
X94883893Y-103651886D01*
X94883893Y-101270636D01*
X94597088Y-101270636D01*
X94597088Y-102158954D01*
X94466692Y-102039237D01*
X94307011Y-101967407D01*
X94118048Y-101943463D01*
X93928998Y-101969129D01*
X93769060Y-102046127D01*
X93638232Y-102174457D01*
X93541339Y-102347401D01*
X93483203Y-102558240D01*
X93463824Y-102806976D01*
X93463824Y-102831781D01*
X92751044Y-104832161D01*
X92552821Y-104802758D01*
X92358435Y-104754067D01*
X92169757Y-104686557D01*
X91988605Y-104600878D01*
X91816723Y-104497856D01*
X91655767Y-104378483D01*
X91507286Y-104243908D01*
X91372711Y-104095427D01*
X91253338Y-103934471D01*
X91150316Y-103762589D01*
X91064638Y-103581437D01*
X90997128Y-103392760D01*
X90948437Y-103198373D01*
X90919033Y-103000150D01*
X90909200Y-102800000D01*
X90919033Y-102599850D01*
X90948437Y-102401627D01*
X90997128Y-102207240D01*
X91064638Y-102018563D01*
X91150316Y-101837411D01*
X91253338Y-101665529D01*
X91372711Y-101504573D01*
X91507286Y-101356092D01*
X91655767Y-101221517D01*
X91816723Y-101102144D01*
X91988605Y-100999122D01*
X92169757Y-100913443D01*
X92358435Y-100845933D01*
X92552821Y-100797242D01*
X92751044Y-100767839D01*
X92951194Y-100758006D01*
X93463824Y-100758006D01*
X127336175Y-100758006D01*
G37*
G36*
X103987213Y-102831781D02*
G01*
X103954851Y-103083316D01*
X103857763Y-103279816D01*
X103706416Y-103406552D01*
X103511273Y-103448798D01*
X103315161Y-103405971D01*
X103164007Y-103277490D01*
X103067502Y-103071883D01*
X103035333Y-102797675D01*
X103068083Y-102547884D01*
X103166333Y-102350415D01*
X103318843Y-102221935D01*
X103514374Y-102179108D01*
X103706222Y-102221353D01*
X103856988Y-102348090D01*
X103954657Y-102553503D01*
X103987213Y-102831781D01*
G37*
G36*
X106568451Y-102831781D02*
G01*
X106536088Y-103083316D01*
X106439001Y-103279816D01*
X106287654Y-103406552D01*
X106092511Y-103448798D01*
X105896399Y-103405971D01*
X105745245Y-103277490D01*
X105648739Y-103071883D01*
X105616571Y-102797675D01*
X105649321Y-102547884D01*
X105747571Y-102350415D01*
X105900081Y-102221935D01*
X106095611Y-102179108D01*
X106287460Y-102221353D01*
X106438226Y-102348090D01*
X106535895Y-102553503D01*
X106568451Y-102831781D01*
G37*
G36*
X122122540Y-102831781D02*
G01*
X122090178Y-103083316D01*
X121993091Y-103279816D01*
X121841743Y-103406552D01*
X121646600Y-103448798D01*
X121450488Y-103405971D01*
X121299335Y-103277490D01*
X121202829Y-103071883D01*
X121170660Y-102797675D01*
X121203410Y-102547884D01*
X121301660Y-102350415D01*
X121454170Y-102221935D01*
X121649701Y-102179108D01*
X121841549Y-102221353D01*
X121992315Y-102348090D01*
X122089984Y-102553503D01*
X122122540Y-102831781D01*
G37*
G36*
X118674689Y-102831781D02*
G01*
X118642326Y-103083316D01*
X118545239Y-103279816D01*
X118393892Y-103406552D01*
X118198749Y-103448798D01*
X118002637Y-103405971D01*
X117851483Y-103277490D01*
X117754977Y-103071883D01*
X117722809Y-102797675D01*
X117755559Y-102547884D01*
X117853808Y-102350415D01*
X118006318Y-102221935D01*
X118201849Y-102179108D01*
X118393698Y-102221353D01*
X118544464Y-102348090D01*
X118642132Y-102553503D01*
X118674689Y-102831781D01*
G37*
G36*
X93750628Y-102799225D02*
G01*
X93778921Y-102539551D01*
X93863800Y-102346539D01*
X94001776Y-102226779D01*
X94189361Y-102186859D01*
X94360755Y-102216142D01*
X94496664Y-102303992D01*
X94597088Y-102450409D01*
X94597088Y-103175946D01*
X94492874Y-103322363D01*
X94355932Y-103410213D01*
X94186261Y-103439496D01*
X94002939Y-103399576D01*
X93865350Y-103279816D01*
X93779309Y-103079828D01*
X93750628Y-102799225D01*
G37*
G36*
X102168719Y-102831781D02*
G01*
X102139651Y-103085060D01*
X102052447Y-103277490D01*
X101912921Y-103398994D01*
X101726886Y-103439496D01*
X101562038Y-103412107D01*
X101429230Y-103329942D01*
X101328461Y-103192999D01*
X101328461Y-102427155D01*
X101430952Y-102293657D01*
X101562727Y-102213559D01*
X101723785Y-102186859D01*
X101910208Y-102227554D01*
X102050897Y-102349640D01*
X102139264Y-102551566D01*
X102168719Y-102831781D01*
G37*
G36*
X126726910Y-102817828D02*
G01*
X125959515Y-102817828D01*
X126343988Y-101762079D01*
X126726910Y-102817828D01*
G37*
G36*
X124430926Y-102179108D02*
G01*
X124590606Y-102210695D01*
X124722381Y-102305457D01*
X124817724Y-102457191D01*
X124868109Y-102659698D01*
X124027850Y-102659698D01*
X124027850Y-102637994D01*
X124063507Y-102444014D01*
X124145672Y-102299255D01*
X124269696Y-102209145D01*
X124430926Y-102179108D01*
G37*
G36*
X112964960Y-102179108D02*
G01*
X113124640Y-102210695D01*
X113256415Y-102305457D01*
X113351758Y-102457191D01*
X113402142Y-102659698D01*
X112561883Y-102659698D01*
X112561883Y-102637994D01*
X112597540Y-102444014D01*
X112679706Y-102299255D01*
X112803729Y-102209145D01*
X112964960Y-102179108D01*
G37*
G36*
X96051263Y-103433295D02*
G01*
X95919876Y-103415854D01*
X95795465Y-103363531D01*
X95620282Y-103182147D01*
X95620282Y-102837982D01*
X95845074Y-102837982D01*
X96075680Y-102857264D01*
X96240399Y-102915109D01*
X96339230Y-103011518D01*
X96372174Y-103146490D01*
X96282257Y-103357330D01*
X96051263Y-103433295D01*
G37*
D14*
G36*
X94334774Y-126990161D02*
G01*
X94293431Y-127025393D01*
X94250969Y-127075535D01*
X94209661Y-127137513D01*
X94171783Y-127208254D01*
X94139607Y-127284688D01*
X94115409Y-127363740D01*
X94113909Y-127369987D01*
X94104694Y-127415582D01*
X94094639Y-127475324D01*
X94085578Y-127538101D01*
X94083595Y-127553675D01*
X94076376Y-127608398D01*
X94069583Y-127643575D01*
X94060994Y-127664921D01*
X94048391Y-127678152D01*
X94031406Y-127688038D01*
X93931383Y-127743933D01*
X93829252Y-127809300D01*
X93730241Y-127880209D01*
X93639579Y-127952728D01*
X93562497Y-128022929D01*
X93509607Y-128080205D01*
X93475896Y-128114404D01*
X93434638Y-128147547D01*
X93422903Y-128155422D01*
X93391583Y-128173920D01*
X93340906Y-128202273D01*
X93274117Y-128238748D01*
X93194461Y-128281608D01*
X93105181Y-128329120D01*
X93009523Y-128379547D01*
X92910731Y-128431155D01*
X92812049Y-128482210D01*
X92805900Y-128485373D01*
X92702375Y-128540996D01*
X92621448Y-128590181D01*
X92561560Y-128634347D01*
X92521157Y-128674914D01*
X92498680Y-128713299D01*
X92492573Y-128750923D01*
X92494937Y-128768849D01*
X92511342Y-128808383D01*
X92545373Y-128861557D01*
X92595217Y-128925661D01*
X92617189Y-128951476D01*
X92637501Y-128978192D01*
X92665514Y-129019340D01*
X92696163Y-129067391D01*
X92705842Y-129083232D01*
X92737768Y-129133851D01*
X92766561Y-129170992D01*
X92797114Y-129197092D01*
X92834322Y-129214586D01*
X92883081Y-129225911D01*
X92948283Y-129233502D01*
X93018181Y-129238699D01*
X93158946Y-129248164D01*
X93276484Y-129256285D01*
X93372921Y-129263302D01*
X93450379Y-129269450D01*
X93510983Y-129274966D01*
X93556858Y-129280088D01*
X93590127Y-129285054D01*
X93612915Y-129290099D01*
X93627347Y-129295460D01*
X93635545Y-129301376D01*
X93639623Y-129308048D01*
X93638621Y-129330508D01*
X93627736Y-129370387D01*
X93609066Y-129422705D01*
X93584710Y-129482487D01*
X93556767Y-129544753D01*
X93527334Y-129604527D01*
X93498512Y-129656830D01*
X93480626Y-129685160D01*
X93393559Y-129831380D01*
X93328068Y-129981884D01*
X93285337Y-130133472D01*
X93267895Y-130259358D01*
X93264019Y-130334971D01*
X93265106Y-130388299D01*
X93271738Y-130422076D01*
X93284497Y-130439034D01*
X93303967Y-130441910D01*
X93306710Y-130441452D01*
X93336449Y-130435767D01*
X93342759Y-130779808D01*
X93346102Y-130918587D01*
X93350664Y-131033930D01*
X93356558Y-131127779D01*
X93363899Y-131202075D01*
X93370136Y-131244500D01*
X93377749Y-131285253D01*
X93388764Y-131340497D01*
X93402227Y-131405820D01*
X93417184Y-131476808D01*
X93432681Y-131549050D01*
X93447763Y-131618132D01*
X93461477Y-131679642D01*
X93472868Y-131729168D01*
X93480983Y-131762297D01*
X93484738Y-131774507D01*
X93497077Y-131773430D01*
X93524050Y-131766838D01*
X93527078Y-131765980D01*
X93545096Y-131761369D01*
X93557925Y-131762028D01*
X93566898Y-131771579D01*
X93573350Y-131793644D01*
X93578612Y-131831846D01*
X93584018Y-131889807D01*
X93587407Y-131929896D01*
X93597800Y-132007899D01*
X93616087Y-132100359D01*
X93640050Y-132198434D01*
X93667468Y-132293280D01*
X93696123Y-132376056D01*
X93704845Y-132397730D01*
X93731756Y-132456642D01*
X93764924Y-132521633D01*
X93800852Y-132586564D01*
X93836043Y-132645296D01*
X93866998Y-132691691D01*
X93885636Y-132715027D01*
X93912335Y-132743684D01*
X93958717Y-132705452D01*
X93992696Y-132681659D01*
X94013734Y-132677515D01*
X94018275Y-132680403D01*
X94023051Y-132697863D01*
X94026554Y-132736742D01*
X94028840Y-132793096D01*
X94029966Y-132862977D01*
X94029988Y-132942442D01*
X94028963Y-133027545D01*
X94026947Y-133114339D01*
X94023996Y-133198880D01*
X94020167Y-133277221D01*
X94015516Y-133345418D01*
X94010099Y-133399524D01*
X94007765Y-133416118D01*
X93997065Y-133476774D01*
X93986608Y-133517640D01*
X93974551Y-133544236D01*
X93959047Y-133562086D01*
X93958952Y-133562168D01*
X93938146Y-133576616D01*
X93899354Y-133600511D01*
X93846958Y-133631268D01*
X93785343Y-133666301D01*
X93736126Y-133693603D01*
X93651050Y-133741534D01*
X93585396Y-133782058D01*
X93535489Y-133818345D01*
X93497656Y-133853563D01*
X93468224Y-133890881D01*
X93443521Y-133933469D01*
X93433004Y-133955119D01*
X93409744Y-134013301D01*
X93403172Y-134058324D01*
X93414414Y-134097106D01*
X93444595Y-134136561D01*
X93465950Y-134157593D01*
X93517234Y-134201267D01*
X93561291Y-134227459D01*
X93605251Y-134239643D01*
X93638577Y-134241700D01*
X93661722Y-134242470D01*
X93675097Y-134247927D01*
X93679717Y-134262790D01*
X93676597Y-134291777D01*
X93666750Y-134339608D01*
X93663150Y-134356000D01*
X93650391Y-134417813D01*
X93645189Y-134460747D01*
X93648873Y-134490545D01*
X93662775Y-134512954D01*
X93688224Y-134533716D01*
X93707204Y-134546245D01*
X93812521Y-134602149D01*
X93915384Y-134632977D01*
X94016359Y-134638869D01*
X94056850Y-134634193D01*
X94116594Y-134621001D01*
X94187854Y-134600362D01*
X94262165Y-134575203D01*
X94331060Y-134548447D01*
X94386076Y-134523021D01*
X94398570Y-134516113D01*
X94433117Y-134492709D01*
X94478744Y-134457490D01*
X94528179Y-134416204D01*
X94554845Y-134392551D01*
X94593364Y-134356063D01*
X94626783Y-134320246D01*
X94656884Y-134281901D01*
X94685454Y-134237830D01*
X94714278Y-134184835D01*
X94745141Y-134119717D01*
X94779828Y-134039277D01*
X94820124Y-133940318D01*
X94851685Y-133860700D01*
X94886934Y-133771200D01*
X94923941Y-133677285D01*
X94959977Y-133585873D01*
X94992315Y-133503883D01*
X95018228Y-133438231D01*
X95019406Y-133435250D01*
X95059501Y-133340594D01*
X95102102Y-133255773D01*
X95152925Y-133170013D01*
X95191237Y-133111400D01*
X95233325Y-133047253D01*
X95274184Y-132982364D01*
X95309742Y-132923369D01*
X95335926Y-132876909D01*
X95340612Y-132867869D01*
X95363144Y-132825595D01*
X95382993Y-132792579D01*
X95396262Y-132775246D01*
X95397264Y-132774501D01*
X95411755Y-132779107D01*
X95439576Y-132798561D01*
X95476317Y-132829536D01*
X95502355Y-132853756D01*
X95575976Y-132921161D01*
X95643469Y-132973962D01*
X95713629Y-133018106D01*
X95795255Y-133059542D01*
X95830089Y-133075363D01*
X95895967Y-133106243D01*
X95970376Y-133143631D01*
X96040143Y-133180846D01*
X96059209Y-133191555D01*
X96122097Y-133229620D01*
X96190270Y-133274585D01*
X96260909Y-133324190D01*
X96331200Y-133376174D01*
X96398327Y-133428276D01*
X96459472Y-133478235D01*
X96511821Y-133523790D01*
X96552556Y-133562680D01*
X96578862Y-133592645D01*
X96587923Y-133611423D01*
X96586523Y-133614910D01*
X96563549Y-133624591D01*
X96515524Y-133632927D01*
X96442762Y-133639894D01*
X96345578Y-133645464D01*
X96224287Y-133649613D01*
X96148415Y-133651261D01*
X96015650Y-133655151D01*
X95905211Y-133662122D01*
X95814122Y-133672976D01*
X95739412Y-133688514D01*
X95678106Y-133709539D01*
X95627232Y-133736851D01*
X95583818Y-133771252D01*
X95544888Y-133813545D01*
X95544432Y-133814108D01*
X95508251Y-133860895D01*
X95487480Y-133894683D01*
X95480150Y-133921001D01*
X95484295Y-133945377D01*
X95491803Y-133962013D01*
X95526478Y-134015411D01*
X95570304Y-134063680D01*
X95615828Y-134099143D01*
X95633998Y-134108512D01*
X95664890Y-134127370D01*
X95689477Y-134158605D01*
X95707143Y-134193638D01*
X95733986Y-134241693D01*
X95768397Y-134288260D01*
X95786012Y-134307111D01*
X95835302Y-134349955D01*
X95889919Y-134391125D01*
X95943827Y-134426630D01*
X95990992Y-134452479D01*
X96023929Y-134464432D01*
X96048185Y-134465141D01*
X96093204Y-134462908D01*
X96154561Y-134458093D01*
X96227835Y-134451054D01*
X96308603Y-134442150D01*
X96330150Y-134439590D01*
X96418414Y-134429953D01*
X96524985Y-134419934D01*
X96642788Y-134410101D01*
X96764747Y-134401020D01*
X96883789Y-134393258D01*
X96965150Y-134388731D01*
X97077165Y-134382820D01*
X97167366Y-134377438D01*
X97239324Y-134372218D01*
X97296609Y-134366791D01*
X97342793Y-134360789D01*
X97381445Y-134353845D01*
X97416137Y-134345589D01*
X97435050Y-134340290D01*
X97478278Y-134328417D01*
X97516635Y-134320426D01*
X97556525Y-134315769D01*
X97604349Y-134313901D01*
X97666511Y-134314275D01*
X97723975Y-134315632D01*
X97789677Y-134318077D01*
X97845309Y-134321402D01*
X97886444Y-134325244D01*
X97908656Y-134329239D01*
X97911300Y-134331037D01*
X97903801Y-134346559D01*
X97885187Y-134372205D01*
X97879223Y-134379473D01*
X97859639Y-134406616D01*
X97857792Y-134422510D01*
X97863348Y-134428072D01*
X97880566Y-134431507D01*
X97919024Y-134434916D01*
X97974562Y-134438070D01*
X98043021Y-134440737D01*
X98120241Y-134442689D01*
X98130654Y-134442877D01*
X98219646Y-134444148D01*
X98287874Y-134444284D01*
X98339962Y-134442991D01*
X98380530Y-134439971D01*
X98414202Y-134434929D01*
X98445600Y-134427570D01*
X98467204Y-134421336D01*
X98524316Y-134407237D01*
X98586692Y-134398994D01*
X98662871Y-134395624D01*
X98692350Y-134395414D01*
X98820067Y-134389640D01*
X98940719Y-134371127D01*
X99066107Y-134337929D01*
X99092400Y-134329485D01*
X99123283Y-134320357D01*
X99156660Y-134313100D01*
X99196502Y-134307323D01*
X99246777Y-134302639D01*
X99311457Y-134298657D01*
X99394510Y-134294988D01*
X99473400Y-134292135D01*
X99588943Y-134287538D01*
X99681633Y-134282316D01*
X99754015Y-134276258D01*
X99808634Y-134269149D01*
X99848035Y-134260777D01*
X99848050Y-134260773D01*
X99974550Y-134216115D01*
X100080008Y-134157965D01*
X100164912Y-134085616D01*
X100229750Y-133998361D01*
X100275007Y-133895494D01*
X100301172Y-133776308D01*
X100308730Y-133640095D01*
X100308306Y-133625828D01*
X100098104Y-133625828D01*
X100094548Y-133709446D01*
X100085615Y-133780932D01*
X100078390Y-133812147D01*
X100042516Y-133891149D01*
X99984859Y-133959774D01*
X99907201Y-134017119D01*
X99811325Y-134062283D01*
X99699013Y-134094364D01*
X99572048Y-134112460D01*
X99476943Y-134116322D01*
X99418688Y-134115826D01*
X99369663Y-134114229D01*
X99335531Y-134111790D01*
X99322427Y-134109231D01*
X99304776Y-134105610D01*
X99268733Y-134102660D01*
X99221306Y-134100907D01*
X99209083Y-134100724D01*
X99146175Y-134102177D01*
X99098340Y-134109218D01*
X99055557Y-134123504D01*
X99046100Y-134127660D01*
X98937104Y-134169967D01*
X98826647Y-134199732D01*
X98751373Y-134211724D01*
X98670696Y-134220074D01*
X98691048Y-134180717D01*
X98703765Y-134145382D01*
X98710395Y-134105496D01*
X98710305Y-134070028D01*
X98702864Y-134047945D01*
X98700547Y-134045990D01*
X98685643Y-134049805D01*
X98663150Y-134067897D01*
X98659272Y-134071914D01*
X98614225Y-134108184D01*
X98550096Y-134143587D01*
X98473146Y-134175552D01*
X98389636Y-134201510D01*
X98305827Y-134218892D01*
X98298650Y-134219925D01*
X98247390Y-134225250D01*
X98201984Y-134226853D01*
X98168500Y-134224822D01*
X98153010Y-134219242D01*
X98152600Y-134217855D01*
X98161269Y-134201153D01*
X98170665Y-134191717D01*
X98188081Y-134168954D01*
X98201174Y-134141027D01*
X98213618Y-134105330D01*
X98103734Y-134111563D01*
X98020434Y-134112568D01*
X97920130Y-134107788D01*
X97810401Y-134097832D01*
X97698826Y-134083310D01*
X97646568Y-134074849D01*
X97609916Y-134067855D01*
X97587807Y-134060645D01*
X97581636Y-134051257D01*
X97592800Y-134037735D01*
X97622692Y-134018117D01*
X97672711Y-133990445D01*
X97727150Y-133961717D01*
X97843168Y-133896962D01*
X97934825Y-133837021D01*
X98002628Y-133781529D01*
X98044855Y-133733405D01*
X98072283Y-133699184D01*
X98111595Y-133656654D01*
X98149523Y-133619492D01*
X97898600Y-133619492D01*
X97888285Y-133636031D01*
X97859347Y-133663717D01*
X97814803Y-133700391D01*
X97757667Y-133743896D01*
X97690954Y-133792073D01*
X97617680Y-133842764D01*
X97540859Y-133893812D01*
X97463506Y-133943057D01*
X97388636Y-133988343D01*
X97360834Y-134004423D01*
X97262165Y-134060659D01*
X97320010Y-134097204D01*
X97352171Y-134118842D01*
X97373183Y-134135508D01*
X97377878Y-134141526D01*
X97375899Y-134144396D01*
X97368506Y-134147311D01*
X97353535Y-134150519D01*
X97328827Y-134154266D01*
X97292218Y-134158801D01*
X97241547Y-134164370D01*
X97174653Y-134171221D01*
X97089374Y-134179601D01*
X96983548Y-134189759D01*
X96855013Y-134201941D01*
X96826973Y-134204587D01*
X96720366Y-134214778D01*
X96615332Y-134225067D01*
X96516303Y-134235002D01*
X96427707Y-134244130D01*
X96353975Y-134252000D01*
X96299537Y-134258160D01*
X96285700Y-134259848D01*
X96209512Y-134269134D01*
X96153330Y-134274707D01*
X96111997Y-134276328D01*
X96080358Y-134273758D01*
X96053257Y-134266758D01*
X96025538Y-134255091D01*
X96009071Y-134247051D01*
X95964385Y-134219533D01*
X95923443Y-134185741D01*
X95906832Y-134167676D01*
X95885122Y-134138648D01*
X95877579Y-134119893D01*
X95882689Y-134101705D01*
X95893645Y-134083035D01*
X95924629Y-134040678D01*
X95964996Y-133996121D01*
X96007149Y-133957024D01*
X96043490Y-133931048D01*
X96045416Y-133930024D01*
X96074722Y-133918461D01*
X96119374Y-133904794D01*
X96169821Y-133891943D01*
X96170903Y-133891697D01*
X96213209Y-133882781D01*
X96248408Y-133878037D01*
X96284028Y-133877462D01*
X96327599Y-133881055D01*
X96386648Y-133888814D01*
X96406393Y-133891648D01*
X96523641Y-133906040D01*
X96623253Y-133912076D01*
X96711600Y-133909703D01*
X96795050Y-133898865D01*
X96847134Y-133887868D01*
X96905354Y-133872437D01*
X96968099Y-133853325D01*
X97030208Y-133832408D01*
X97086520Y-133811559D01*
X97131873Y-133792654D01*
X97161106Y-133777569D01*
X97168849Y-133770993D01*
X97167884Y-133753187D01*
X97155992Y-133724870D01*
X97153209Y-133719928D01*
X97135657Y-133698277D01*
X97106033Y-133675357D01*
X97060512Y-133648663D01*
X96995272Y-133615693D01*
X96990550Y-133613415D01*
X96874754Y-133552560D01*
X96780057Y-133490963D01*
X96702276Y-133425484D01*
X96637223Y-133352986D01*
X96629158Y-133342451D01*
X96583120Y-133276228D01*
X96537464Y-133201945D01*
X96497202Y-133128317D01*
X96467349Y-133064061D01*
X96463773Y-133054965D01*
X96457751Y-133037052D01*
X96459864Y-133031482D01*
X96473387Y-133039514D01*
X96501595Y-133062407D01*
X96517072Y-133075457D01*
X96608837Y-133147951D01*
X96698000Y-133206417D01*
X96793072Y-133255668D01*
X96902561Y-133300516D01*
X96937358Y-133313079D01*
X97022350Y-133339610D01*
X97121867Y-133365280D01*
X97225085Y-133387608D01*
X97321182Y-133404114D01*
X97352500Y-133408218D01*
X97387040Y-133412341D01*
X97408531Y-133415059D01*
X97411745Y-133415554D01*
X97420065Y-133424994D01*
X97439806Y-133449073D01*
X97465720Y-133481358D01*
X97496385Y-133523603D01*
X97512381Y-133557530D01*
X97517674Y-133592082D01*
X97517795Y-133598833D01*
X97522848Y-133647692D01*
X97538004Y-133674910D01*
X97563924Y-133680466D01*
X97601267Y-133664338D01*
X97650695Y-133626507D01*
X97686289Y-133593515D01*
X97721869Y-133559306D01*
X97749847Y-133533140D01*
X97765822Y-133519103D01*
X97767845Y-133517800D01*
X97781862Y-133525001D01*
X97807956Y-133543113D01*
X97839395Y-133566898D01*
X97869445Y-133591121D01*
X97891372Y-133610543D01*
X97898600Y-133619492D01*
X98149523Y-133619492D01*
X98155252Y-133613879D01*
X98164690Y-133605236D01*
X98203731Y-133569617D01*
X98225773Y-133547597D01*
X98232812Y-133535913D01*
X98226846Y-133531302D01*
X98210409Y-133530500D01*
X98175038Y-133524762D01*
X98133545Y-133510219D01*
X98094544Y-133490871D01*
X98066649Y-133470722D01*
X98058901Y-133460112D01*
X98064788Y-133441538D01*
X98095571Y-133419534D01*
X98104017Y-133415069D01*
X98134284Y-133395532D01*
X98176591Y-133362839D01*
X98225004Y-133321784D01*
X98267299Y-133283159D01*
X98340891Y-133216804D01*
X98405697Y-133167720D01*
X98468284Y-133132942D01*
X98535216Y-133109504D01*
X98613058Y-133094439D01*
X98706032Y-133084960D01*
X98773157Y-133079125D01*
X98835746Y-133072327D01*
X98886941Y-133065396D01*
X98919885Y-133059162D01*
X98920630Y-133058965D01*
X98987448Y-133035118D01*
X99056100Y-133000854D01*
X99117043Y-132961468D01*
X99154279Y-132929367D01*
X99197108Y-132884734D01*
X99169914Y-132846544D01*
X99121111Y-132793403D01*
X99052941Y-132741425D01*
X98981647Y-132700283D01*
X98915343Y-132666848D01*
X98946381Y-132608473D01*
X98966558Y-132564939D01*
X98981744Y-132522256D01*
X98985523Y-132506899D01*
X98994128Y-132478082D01*
X99004617Y-132463982D01*
X99006094Y-132463700D01*
X99023177Y-132466106D01*
X99059157Y-132472589D01*
X99108064Y-132482041D01*
X99143598Y-132489181D01*
X99293686Y-132526637D01*
X99438313Y-132575859D01*
X99568491Y-132633716D01*
X99587700Y-132643738D01*
X99637368Y-132672552D01*
X99689605Y-132706639D01*
X99740352Y-132742849D01*
X99785550Y-132778030D01*
X99821140Y-132809032D01*
X99843064Y-132832704D01*
X99847575Y-132845468D01*
X99831665Y-132852311D01*
X99798979Y-132856818D01*
X99774276Y-132857802D01*
X99708350Y-132858204D01*
X99746450Y-132885215D01*
X99772594Y-132906531D01*
X99809744Y-132940294D01*
X99851418Y-132980533D01*
X99867982Y-132997184D01*
X99945676Y-133092080D01*
X100011060Y-133203898D01*
X100060353Y-133325637D01*
X100076811Y-133383975D01*
X100089205Y-133454914D01*
X100096313Y-133538258D01*
X100098104Y-133625828D01*
X100308306Y-133625828D01*
X100307357Y-133594000D01*
X100288891Y-133431420D01*
X100248740Y-133277571D01*
X100185578Y-133128273D01*
X100126543Y-133023554D01*
X100107648Y-132989747D01*
X100104787Y-132974854D01*
X100111143Y-132974908D01*
X100134835Y-132981165D01*
X100172459Y-132988431D01*
X100191676Y-132991522D01*
X100252799Y-133000688D01*
X100221875Y-132948652D01*
X100171157Y-132873170D01*
X100105466Y-132790055D01*
X100030749Y-132706073D01*
X99952956Y-132627993D01*
X99893868Y-132575457D01*
X99747565Y-132464294D01*
X99603432Y-132376404D01*
X99458437Y-132310202D01*
X99309544Y-132264099D01*
X99289766Y-132259505D01*
X99232693Y-132240976D01*
X99195229Y-132212562D01*
X99172715Y-132169083D01*
X99161982Y-132117385D01*
X99133420Y-131984203D01*
X99086530Y-131852421D01*
X98866352Y-131852421D01*
X98866273Y-131901115D01*
X98858803Y-131963495D01*
X98857253Y-131973948D01*
X98828112Y-132114942D01*
X98783688Y-132258996D01*
X98726463Y-132400838D01*
X98658922Y-132535198D01*
X98583546Y-132656803D01*
X98502819Y-132760382D01*
X98470831Y-132794345D01*
X98370393Y-132879459D01*
X98250397Y-132955329D01*
X98115704Y-133019701D01*
X97971175Y-133070323D01*
X97821670Y-133104943D01*
X97789574Y-133110045D01*
X97714899Y-133117572D01*
X97625008Y-133121472D01*
X97528459Y-133121827D01*
X97433811Y-133118716D01*
X97349620Y-133112219D01*
X97300189Y-133105473D01*
X97222067Y-133090326D01*
X97148285Y-133072420D01*
X97077316Y-133050636D01*
X97007636Y-133023857D01*
X96937721Y-132990964D01*
X96866043Y-132950841D01*
X96791080Y-132902369D01*
X96711305Y-132844430D01*
X96625193Y-132775906D01*
X96531219Y-132695680D01*
X96427859Y-132602633D01*
X96313587Y-132495649D01*
X96265926Y-132449744D01*
X95123241Y-132449744D01*
X95117483Y-132552472D01*
X95110334Y-132604817D01*
X95103852Y-132652212D01*
X95099384Y-132684812D01*
X95099228Y-132685950D01*
X95096343Y-132718616D01*
X95094047Y-132765766D01*
X95092945Y-132810845D01*
X95091900Y-132897641D01*
X95015881Y-132931240D01*
X94974070Y-132950946D01*
X94948617Y-132968736D01*
X94932280Y-132992094D01*
X94917821Y-133028505D01*
X94915579Y-133034944D01*
X94906258Y-133062040D01*
X94889754Y-133110224D01*
X94867076Y-133176539D01*
X94839234Y-133258031D01*
X94807237Y-133351744D01*
X94772095Y-133454723D01*
X94734817Y-133564012D01*
X94718369Y-133612248D01*
X94680876Y-133721292D01*
X94645141Y-133823470D01*
X94612134Y-133916132D01*
X94582826Y-133996629D01*
X94558187Y-134062311D01*
X94539190Y-134110530D01*
X94526803Y-134138636D01*
X94523396Y-134144315D01*
X94501642Y-134165468D01*
X94467871Y-134194790D01*
X94437850Y-134219195D01*
X94397565Y-134254385D01*
X94360798Y-134292264D01*
X94342385Y-134315192D01*
X94309760Y-134353753D01*
X94269178Y-134383694D01*
X94214907Y-134408280D01*
X94141213Y-134430778D01*
X94138029Y-134431616D01*
X94084006Y-134445495D01*
X94046425Y-134453237D01*
X94017134Y-134455040D01*
X93987977Y-134451101D01*
X93950800Y-134441617D01*
X93932795Y-134436577D01*
X93886275Y-134420786D01*
X93857123Y-134401582D01*
X93843393Y-134374208D01*
X93843139Y-134333905D01*
X93854413Y-134275914D01*
X93859180Y-134256612D01*
X93869509Y-134218262D01*
X93880745Y-134186963D01*
X93895809Y-134159821D01*
X93917621Y-134133940D01*
X93949101Y-134106428D01*
X93993171Y-134074389D01*
X94052751Y-134034931D01*
X94130762Y-133985157D01*
X94137272Y-133981032D01*
X94199106Y-133941673D01*
X94242982Y-133912606D01*
X94272408Y-133890547D01*
X94290892Y-133872207D01*
X94301942Y-133854302D01*
X94309066Y-133833544D01*
X94313504Y-133815932D01*
X94320849Y-133782590D01*
X94332008Y-133727883D01*
X94346303Y-133655443D01*
X94363053Y-133568906D01*
X94381578Y-133471903D01*
X94401201Y-133368070D01*
X94421240Y-133261039D01*
X94441018Y-133154444D01*
X94459853Y-133051919D01*
X94477067Y-132957098D01*
X94491981Y-132873614D01*
X94503915Y-132805100D01*
X94512189Y-132755192D01*
X94513835Y-132744531D01*
X94522978Y-132670522D01*
X94525040Y-132607714D01*
X94518949Y-132548783D01*
X94503629Y-132486408D01*
X94478005Y-132413264D01*
X94457773Y-132362467D01*
X94433172Y-132296896D01*
X94410055Y-132225856D01*
X94392203Y-132161292D01*
X94387456Y-132140310D01*
X94377163Y-132084312D01*
X94366566Y-132016235D01*
X94356066Y-131939963D01*
X94346062Y-131859378D01*
X94336956Y-131778363D01*
X94329148Y-131700801D01*
X94323039Y-131630573D01*
X94319029Y-131571564D01*
X94317518Y-131527655D01*
X94318908Y-131502729D01*
X94321245Y-131498500D01*
X94334605Y-131501811D01*
X94364908Y-131510366D01*
X94394270Y-131518966D01*
X94484116Y-131552052D01*
X94569975Y-131595317D01*
X94635967Y-131639414D01*
X94657935Y-131657738D01*
X94671864Y-131674922D01*
X94680132Y-131697554D01*
X94685123Y-131732218D01*
X94689216Y-131785501D01*
X94689317Y-131786980D01*
X94700966Y-131878500D01*
X94723837Y-131985287D01*
X94743383Y-132057300D01*
X94769513Y-132156742D01*
X94787736Y-132247815D01*
X94796338Y-132319631D01*
X94802860Y-132423212D01*
X94839106Y-132410576D01*
X94888894Y-132380509D01*
X94934958Y-132327473D01*
X94975513Y-132253826D01*
X94994926Y-132205094D01*
X95007071Y-132191107D01*
X95025927Y-132200075D01*
X95052025Y-132232417D01*
X95073491Y-132266797D01*
X95109022Y-132351858D01*
X95123241Y-132449744D01*
X96265926Y-132449744D01*
X96186877Y-132373608D01*
X96046205Y-132235394D01*
X95890046Y-132079887D01*
X95860250Y-132050049D01*
X95749083Y-131938859D01*
X95653722Y-131844087D01*
X95572209Y-131763999D01*
X95502587Y-131696858D01*
X95442898Y-131640929D01*
X95391184Y-131594477D01*
X95345487Y-131555764D01*
X95303850Y-131523057D01*
X95264315Y-131494618D01*
X95224924Y-131468712D01*
X95183719Y-131443604D01*
X95161750Y-131430764D01*
X95118415Y-131407710D01*
X95063065Y-131381173D01*
X95000928Y-131353325D01*
X94937234Y-131326340D01*
X94877212Y-131302391D01*
X94826089Y-131283652D01*
X94789095Y-131272296D01*
X94774754Y-131269900D01*
X94776439Y-131261153D01*
X94792265Y-131237604D01*
X94819331Y-131203283D01*
X94840954Y-131177825D01*
X94885263Y-131124817D01*
X94940063Y-131055968D01*
X95001499Y-130976400D01*
X95065716Y-130891232D01*
X95128859Y-130805584D01*
X95187072Y-130724577D01*
X95236502Y-130653331D01*
X95242117Y-130645000D01*
X95274841Y-130597769D01*
X95299205Y-130567802D01*
X95319986Y-130550626D01*
X95341965Y-130541769D01*
X95355424Y-130538972D01*
X95478135Y-130511758D01*
X95555924Y-130486376D01*
X94972989Y-130486376D01*
X94972866Y-130503385D01*
X94958711Y-130538048D01*
X94931890Y-130587821D01*
X94893772Y-130650157D01*
X94848014Y-130719167D01*
X94769426Y-130820426D01*
X94684642Y-130905076D01*
X94596767Y-130970526D01*
X94508907Y-131014182D01*
X94485475Y-131021930D01*
X94465061Y-131024529D01*
X94457655Y-131011359D01*
X94456900Y-130994181D01*
X94449785Y-130956318D01*
X94437130Y-130929825D01*
X94414406Y-130909945D01*
X94380867Y-130902657D01*
X94333627Y-130908197D01*
X94269799Y-130926802D01*
X94212513Y-130948197D01*
X94116331Y-130994681D01*
X94040732Y-131050532D01*
X93985211Y-131117150D01*
X93949263Y-131195937D01*
X93932383Y-131288294D01*
X93934066Y-131395622D01*
X93953807Y-131519322D01*
X93975333Y-131606450D01*
X94005129Y-131737656D01*
X94017723Y-131855503D01*
X94013189Y-131965252D01*
X93991599Y-132072166D01*
X93982210Y-132103232D01*
X93964935Y-132163352D01*
X93950335Y-132226203D01*
X93941286Y-132279232D01*
X93940724Y-132284207D01*
X93935078Y-132324852D01*
X93928493Y-132353035D01*
X93923138Y-132362100D01*
X93916269Y-132350616D01*
X93904632Y-132319381D01*
X93889874Y-132273220D01*
X93874271Y-132219225D01*
X93854940Y-132143347D01*
X93835049Y-132055619D01*
X93817524Y-131969350D01*
X93809382Y-131923950D01*
X93800231Y-131863438D01*
X93791274Y-131793992D01*
X93782929Y-131720247D01*
X93775616Y-131646835D01*
X93769751Y-131578391D01*
X93765755Y-131519548D01*
X93764045Y-131474941D01*
X93765040Y-131449204D01*
X93766154Y-131445428D01*
X93762726Y-131431991D01*
X93758870Y-131428940D01*
X93737002Y-131428772D01*
X93704259Y-131443624D01*
X93667417Y-131470251D01*
X93661315Y-131475642D01*
X93640064Y-131489968D01*
X93627379Y-131489567D01*
X93619446Y-131468679D01*
X93608181Y-131428740D01*
X93594964Y-131375658D01*
X93581176Y-131315341D01*
X93568199Y-131253695D01*
X93557413Y-131196628D01*
X93553743Y-131174650D01*
X93546151Y-131107208D01*
X93541085Y-131021719D01*
X93538549Y-130925408D01*
X93538546Y-130825502D01*
X93541077Y-130729226D01*
X93546144Y-130643807D01*
X93553549Y-130577750D01*
X93562303Y-130529801D01*
X93575408Y-130467796D01*
X93591299Y-130398209D01*
X93608405Y-130327519D01*
X93625160Y-130262204D01*
X93639996Y-130208739D01*
X93651344Y-130173603D01*
X93651458Y-130173303D01*
X93650434Y-130156281D01*
X93630373Y-130153060D01*
X93593416Y-130163421D01*
X93547828Y-130183996D01*
X93513220Y-130201391D01*
X93489655Y-130212927D01*
X93483302Y-130215746D01*
X93484856Y-130204535D01*
X93490945Y-130175275D01*
X93499007Y-130139695D01*
X93527293Y-130047717D01*
X93571664Y-129947509D01*
X93633653Y-129835782D01*
X93661170Y-129791165D01*
X93684823Y-129751784D01*
X93715067Y-129698555D01*
X93749946Y-129635230D01*
X93787498Y-129565557D01*
X93825767Y-129493287D01*
X93862792Y-129422171D01*
X93896616Y-129355958D01*
X93925279Y-129298398D01*
X93946823Y-129253241D01*
X93959289Y-129224238D01*
X93961600Y-129215984D01*
X93950142Y-129208245D01*
X93918781Y-129195230D01*
X93872044Y-129178629D01*
X93814453Y-129160132D01*
X93802087Y-129156372D01*
X93642574Y-129108306D01*
X93398862Y-129113828D01*
X93256309Y-129115327D01*
X93133754Y-129112986D01*
X93032156Y-129106903D01*
X92952474Y-129097173D01*
X92895666Y-129083893D01*
X92862692Y-129067160D01*
X92856325Y-129059399D01*
X92852439Y-129049800D01*
X92855348Y-129043297D01*
X92868740Y-129039392D01*
X92896305Y-129037584D01*
X92941730Y-129037374D01*
X93008705Y-129038264D01*
X93012066Y-129038318D01*
X93091600Y-129038680D01*
X93156287Y-129036145D01*
X93216510Y-129029679D01*
X93282649Y-129018248D01*
X93345650Y-129005081D01*
X93430991Y-128987323D01*
X93499006Y-128975877D01*
X93556904Y-128970477D01*
X93611892Y-128970859D01*
X93671178Y-128976756D01*
X93741971Y-128987904D01*
X93754186Y-128990041D01*
X93810253Y-128998883D01*
X93858285Y-129004535D01*
X93891968Y-129006359D01*
X93903411Y-129005106D01*
X93916026Y-128988504D01*
X93922891Y-128957149D01*
X93923159Y-128921210D01*
X93915981Y-128890858D01*
X93913336Y-128885967D01*
X93886896Y-128864230D01*
X93841224Y-128846771D01*
X93782357Y-128835298D01*
X93720964Y-128831499D01*
X93681640Y-128833237D01*
X93636405Y-128839006D01*
X93581184Y-128849643D01*
X93511904Y-128865981D01*
X93424489Y-128888857D01*
X93374481Y-128902518D01*
X93288434Y-128926145D01*
X93222144Y-128943752D01*
X93170896Y-128956113D01*
X93129973Y-128964005D01*
X93094661Y-128968204D01*
X93060241Y-128969486D01*
X93022000Y-128968627D01*
X92983700Y-128966831D01*
X92918072Y-128962570D01*
X92869755Y-128956393D01*
X92830663Y-128946594D01*
X92792708Y-128931468D01*
X92774249Y-128922669D01*
X92698147Y-128885212D01*
X92747225Y-128864706D01*
X92780420Y-128851868D01*
X92803691Y-128844725D01*
X92807451Y-128844200D01*
X92817004Y-128833691D01*
X92818792Y-128821975D01*
X92822964Y-128796205D01*
X92833108Y-128759596D01*
X92836633Y-128749031D01*
X92846841Y-128704446D01*
X92842873Y-128676992D01*
X92840188Y-128659334D01*
X92855668Y-128641850D01*
X92872656Y-128630583D01*
X92908961Y-128610147D01*
X92964291Y-128581168D01*
X93034574Y-128545673D01*
X93115738Y-128505683D01*
X93203711Y-128463225D01*
X93294420Y-128420323D01*
X93313900Y-128411230D01*
X93393899Y-128372639D01*
X93455873Y-128338535D01*
X93505553Y-128304415D01*
X93548670Y-128265777D01*
X93590956Y-128218120D01*
X93638141Y-128156941D01*
X93638876Y-128155951D01*
X93676185Y-128107250D01*
X93709312Y-128069126D01*
X93744219Y-128036152D01*
X93786869Y-128002900D01*
X93843224Y-127963945D01*
X93867670Y-127947708D01*
X93940713Y-127901375D01*
X94013613Y-127858541D01*
X94082244Y-127821331D01*
X94142481Y-127791874D01*
X94190201Y-127772296D01*
X94221277Y-127764725D01*
X94222532Y-127764699D01*
X94236566Y-127759593D01*
X94239034Y-127739996D01*
X94236735Y-127723425D01*
X94222656Y-127600515D01*
X94226143Y-127491636D01*
X94247956Y-127391778D01*
X94288853Y-127295931D01*
X94306011Y-127265426D01*
X94332587Y-127223576D01*
X94356618Y-127190807D01*
X94373679Y-127173043D01*
X94376002Y-127171758D01*
X94393230Y-127172245D01*
X94412423Y-127188410D01*
X94435622Y-127222823D01*
X94464869Y-127278053D01*
X94471995Y-127292588D01*
X94510997Y-127372927D01*
X94458696Y-127483088D01*
X94429586Y-127548175D01*
X94399709Y-127621100D01*
X94374651Y-127688107D01*
X94370479Y-127700274D01*
X94334562Y-127807299D01*
X94266609Y-127830398D01*
X94197375Y-127856953D01*
X94127590Y-127888943D01*
X94063542Y-127923037D01*
X94011516Y-127955903D01*
X93979234Y-127982659D01*
X93942550Y-128021529D01*
X93980650Y-128014065D01*
X94010533Y-128009074D01*
X94057241Y-128002224D01*
X94112386Y-127994727D01*
X94133050Y-127992057D01*
X94208496Y-127979469D01*
X94272184Y-127960852D01*
X94337684Y-127932157D01*
X94343515Y-127929251D01*
X94439680Y-127880989D01*
X94473897Y-127749819D01*
X94508230Y-127638431D01*
X94551326Y-127530645D01*
X94600556Y-127431642D01*
X94653291Y-127346604D01*
X94706903Y-127280714D01*
X94716844Y-127270907D01*
X94752495Y-127239692D01*
X94781150Y-127219272D01*
X94797975Y-127212982D01*
X94799604Y-127213820D01*
X94806706Y-127230073D01*
X94817787Y-127265572D01*
X94831231Y-127314791D01*
X94843118Y-127362491D01*
X94867438Y-127490129D01*
X94875431Y-127600718D01*
X94867137Y-127693570D01*
X94842596Y-127767997D01*
X94816717Y-127807651D01*
X94785714Y-127844496D01*
X94795893Y-127807773D01*
X94802884Y-127768059D01*
X94805121Y-127726600D01*
X94803091Y-127682080D01*
X94799040Y-127626952D01*
X94793656Y-127567955D01*
X94787623Y-127511826D01*
X94781631Y-127465305D01*
X94776364Y-127435128D01*
X94774878Y-127429837D01*
X94768573Y-127427339D01*
X94756212Y-127441114D01*
X94736798Y-127472820D01*
X94709336Y-127524117D01*
X94672828Y-127596663D01*
X94664295Y-127613987D01*
X94622935Y-127698582D01*
X94591993Y-127763844D01*
X94570603Y-127813195D01*
X94557897Y-127850056D01*
X94553007Y-127877848D01*
X94555066Y-127899994D01*
X94563207Y-127919916D01*
X94576561Y-127941034D01*
X94580089Y-127946146D01*
X94598857Y-127976807D01*
X94610294Y-128007654D01*
X94616614Y-128047256D01*
X94619868Y-128100147D01*
X94620206Y-128153657D01*
X94617255Y-128201543D01*
X94611634Y-128234762D01*
X94610394Y-128238466D01*
X94584112Y-128272751D01*
X94534416Y-128302213D01*
X94462934Y-128326281D01*
X94371294Y-128344381D01*
X94279928Y-128354557D01*
X94233751Y-128358831D01*
X94198529Y-128363227D01*
X94180948Y-128366888D01*
X94180240Y-128367327D01*
X94187697Y-128375280D01*
X94212385Y-128390665D01*
X94242841Y-128406982D01*
X94300070Y-128437688D01*
X94362857Y-128474142D01*
X94425361Y-128512659D01*
X94481739Y-128549557D01*
X94526148Y-128581152D01*
X94548975Y-128599986D01*
X94570224Y-128626271D01*
X94581392Y-128658282D01*
X94582671Y-128700603D01*
X94574254Y-128757815D01*
X94558426Y-128826293D01*
X94533685Y-128910291D01*
X94505674Y-128982344D01*
X94476127Y-129039091D01*
X94446772Y-129077170D01*
X94421203Y-129092872D01*
X94374942Y-129104677D01*
X94319459Y-129121242D01*
X94263450Y-129139713D01*
X94215613Y-129157238D01*
X94186980Y-129169715D01*
X94139916Y-129199522D01*
X94113238Y-129233050D01*
X94102207Y-129277743D01*
X94101080Y-129304575D01*
X94096678Y-129370564D01*
X94085180Y-129442353D01*
X94068547Y-129511103D01*
X94048743Y-129567980D01*
X94037623Y-129590303D01*
X94022560Y-129619421D01*
X94016727Y-129638281D01*
X94017412Y-129640844D01*
X94034840Y-129642061D01*
X94068366Y-129632272D01*
X94112686Y-129614153D01*
X94162498Y-129590379D01*
X94212499Y-129563626D01*
X94257386Y-129536570D01*
X94291857Y-129511886D01*
X94310067Y-129493167D01*
X94325574Y-129480022D01*
X94329841Y-129479200D01*
X94335208Y-129489916D01*
X94331145Y-129519217D01*
X94319294Y-129562825D01*
X94301297Y-129616464D01*
X94278797Y-129675860D01*
X94253436Y-129736735D01*
X94226858Y-129794815D01*
X94200704Y-129845824D01*
X94176617Y-129885485D01*
X94170543Y-129893875D01*
X94138625Y-129935721D01*
X94167588Y-129942190D01*
X94194400Y-129948165D01*
X94236810Y-129957601D01*
X94285450Y-129968414D01*
X94357922Y-129987633D01*
X94416808Y-130009473D01*
X94458697Y-130032295D01*
X94480182Y-130054461D01*
X94482300Y-130063055D01*
X94470749Y-130090694D01*
X94437654Y-130125183D01*
X94385353Y-130164726D01*
X94316187Y-130207524D01*
X94244357Y-130245886D01*
X94126088Y-130310320D01*
X94029875Y-130374755D01*
X93952541Y-130442081D01*
X93890905Y-130515186D01*
X93841790Y-130596960D01*
X93829211Y-130623198D01*
X93805407Y-130689228D01*
X93786180Y-130768440D01*
X93774074Y-130848697D01*
X93771196Y-130899923D01*
X93771100Y-130942696D01*
X93818725Y-130884212D01*
X93903583Y-130796683D01*
X94009044Y-130715121D01*
X94130555Y-130641986D01*
X94263562Y-130579739D01*
X94403513Y-130530841D01*
X94527863Y-130500982D01*
X94575681Y-130493957D01*
X94635660Y-130488003D01*
X94702754Y-130483287D01*
X94771915Y-130479972D01*
X94838095Y-130478226D01*
X94896248Y-130478214D01*
X94941325Y-130480102D01*
X94968280Y-130484054D01*
X94972989Y-130486376D01*
X95555924Y-130486376D01*
X95591515Y-130474763D01*
X95634091Y-130456916D01*
X95673599Y-130440188D01*
X95702215Y-130430333D01*
X95714141Y-130429325D01*
X95714200Y-130429649D01*
X95706902Y-130448048D01*
X95686138Y-130484333D01*
X95653605Y-130536013D01*
X95611001Y-130600596D01*
X95560022Y-130675592D01*
X95502366Y-130758507D01*
X95439728Y-130846852D01*
X95373807Y-130938135D01*
X95306300Y-131029863D01*
X95295582Y-131044258D01*
X95208450Y-131161081D01*
X95369250Y-131267828D01*
X95432058Y-131310346D01*
X95493192Y-131353191D01*
X95546698Y-131392093D01*
X95586623Y-131422781D01*
X95595135Y-131429810D01*
X95616332Y-131449155D01*
X95653552Y-131484640D01*
X95704897Y-131534400D01*
X95768473Y-131596573D01*
X95842382Y-131669295D01*
X95924730Y-131750703D01*
X96013619Y-131838933D01*
X96107153Y-131932121D01*
X96160285Y-131985209D01*
X96294366Y-132118860D01*
X96412400Y-132235446D01*
X96515859Y-132336292D01*
X96606218Y-132422722D01*
X96684952Y-132496058D01*
X96753533Y-132557626D01*
X96813438Y-132608749D01*
X96866138Y-132650751D01*
X96913110Y-132684955D01*
X96955826Y-132712687D01*
X96994971Y-132734855D01*
X97126708Y-132791475D01*
X97272584Y-132832043D01*
X97426616Y-132856009D01*
X97582825Y-132862823D01*
X97735227Y-132851936D01*
X97877841Y-132822798D01*
X97895517Y-132817590D01*
X98025231Y-132767338D01*
X98148760Y-132699293D01*
X98260092Y-132617343D01*
X98353210Y-132525374D01*
X98359941Y-132517402D01*
X98432712Y-132413799D01*
X98497603Y-132288620D01*
X98553618Y-132144741D01*
X98599765Y-131985034D01*
X98635049Y-131812373D01*
X98642304Y-131758657D01*
X97602248Y-131758657D01*
X97599514Y-131782264D01*
X97587387Y-131807761D01*
X97573184Y-131810806D01*
X97566462Y-131812222D01*
X97561651Y-131824553D01*
X97558461Y-131850980D01*
X97556607Y-131894680D01*
X97555801Y-131958833D01*
X97555700Y-132004358D01*
X97556450Y-132075180D01*
X97558528Y-132136186D01*
X97561680Y-132182960D01*
X97565650Y-132211084D01*
X97567985Y-132216904D01*
X97574754Y-132236824D01*
X97571033Y-132262546D01*
X97559789Y-132282023D01*
X97551044Y-132285711D01*
X97533649Y-132277938D01*
X97505380Y-132258346D01*
X97488006Y-132244360D01*
X97458859Y-132217261D01*
X97446513Y-132196500D01*
X97446819Y-132174055D01*
X97448298Y-132167591D01*
X97460439Y-132141843D01*
X97474717Y-132138693D01*
X97487217Y-132135977D01*
X97492014Y-132112653D01*
X97492200Y-132103069D01*
X97489142Y-132077164D01*
X97476883Y-132054673D01*
X97450795Y-132029041D01*
X97425525Y-132008601D01*
X97358850Y-131956467D01*
X97337506Y-131984453D01*
X97325293Y-132007926D01*
X97328473Y-132020048D01*
X97332643Y-132035165D01*
X97328266Y-132060729D01*
X97318694Y-132084791D01*
X97307327Y-132095400D01*
X97294056Y-132087978D01*
X97267892Y-132068831D01*
X97244442Y-132050181D01*
X97213268Y-132023308D01*
X97198642Y-132004499D01*
X97196876Y-131986472D01*
X97202413Y-131967224D01*
X97213669Y-131942558D01*
X97225458Y-131939082D01*
X97233773Y-131944595D01*
X97253827Y-131952289D01*
X97261794Y-131948176D01*
X97273881Y-131934361D01*
X97298861Y-131906049D01*
X97332760Y-131867739D01*
X97361737Y-131835050D01*
X97403796Y-131786139D01*
X97430299Y-131751006D01*
X97443801Y-131725623D01*
X97446858Y-131705961D01*
X97446331Y-131701700D01*
X97446484Y-131670228D01*
X97452716Y-131651904D01*
X97462742Y-131643277D01*
X97477888Y-131645101D01*
X97501902Y-131659333D01*
X97538535Y-131687929D01*
X97566156Y-131711115D01*
X97592800Y-131737070D01*
X97602248Y-131758657D01*
X98642304Y-131758657D01*
X98655088Y-131664012D01*
X98663736Y-131581875D01*
X98748115Y-131670362D01*
X98799920Y-131726385D01*
X98835407Y-131771264D01*
X98856807Y-131811207D01*
X98866352Y-131852421D01*
X99086530Y-131852421D01*
X99083977Y-131845247D01*
X99016032Y-131704945D01*
X98931966Y-131567722D01*
X98834161Y-131438005D01*
X98742502Y-131337455D01*
X98724750Y-131320609D01*
X97902619Y-131320609D01*
X97901606Y-131334641D01*
X97892820Y-131366734D01*
X97878247Y-131411500D01*
X97859876Y-131463550D01*
X97839692Y-131517496D01*
X97819685Y-131567948D01*
X97801840Y-131609520D01*
X97788146Y-131636821D01*
X97783606Y-131643301D01*
X97769986Y-131640879D01*
X97743026Y-131625398D01*
X97708049Y-131601023D01*
X97670382Y-131571919D01*
X97635350Y-131542253D01*
X97608278Y-131516190D01*
X97594492Y-131497897D01*
X97593738Y-131494777D01*
X97597751Y-131474554D01*
X97608034Y-131440273D01*
X97615193Y-131419413D01*
X97626481Y-131384327D01*
X97631695Y-131360601D01*
X97631131Y-131355054D01*
X97619546Y-131346014D01*
X97591956Y-131324461D01*
X97552368Y-131293525D01*
X97504787Y-131256337D01*
X97499851Y-131252479D01*
X97374152Y-131154225D01*
X97294970Y-131393037D01*
X97262973Y-131486952D01*
X97225916Y-131591574D01*
X97187306Y-131697244D01*
X97150652Y-131794305D01*
X97130534Y-131845706D01*
X97100403Y-131921718D01*
X97078923Y-131977640D01*
X97065169Y-132016909D01*
X97058221Y-132042962D01*
X97057155Y-132059236D01*
X97061048Y-132069168D01*
X97068716Y-132076012D01*
X97096615Y-132096704D01*
X97121427Y-132116205D01*
X97150704Y-132139950D01*
X97105873Y-132238325D01*
X97084675Y-132282892D01*
X97066795Y-132316930D01*
X97055117Y-132335082D01*
X97052912Y-132336700D01*
X97040831Y-132329148D01*
X97012323Y-132308191D01*
X96970726Y-132276379D01*
X96919380Y-132236259D01*
X96869457Y-132196645D01*
X96694132Y-132056591D01*
X96733412Y-131958520D01*
X96751908Y-131912903D01*
X96766806Y-131877202D01*
X96775636Y-131857302D01*
X96776795Y-131855209D01*
X96788503Y-131858700D01*
X96813470Y-131873539D01*
X96828140Y-131883583D01*
X96858130Y-131901695D01*
X96879820Y-131908958D01*
X96884928Y-131907652D01*
X96895041Y-131889437D01*
X96911347Y-131850383D01*
X96932703Y-131793966D01*
X96957969Y-131723666D01*
X96986000Y-131642961D01*
X97015656Y-131555328D01*
X97045793Y-131464245D01*
X97075270Y-131373191D01*
X97102945Y-131285644D01*
X97113534Y-131251146D01*
X96994081Y-131251146D01*
X96992642Y-131263330D01*
X96984379Y-131288479D01*
X96968903Y-131313137D01*
X96953604Y-131316549D01*
X96942181Y-131324752D01*
X96924879Y-131351849D01*
X96903873Y-131392650D01*
X96881340Y-131441960D01*
X96859456Y-131494588D01*
X96840399Y-131545340D01*
X96826345Y-131589024D01*
X96819470Y-131620447D01*
X96820762Y-131633480D01*
X96825441Y-131657099D01*
X96819439Y-131681760D01*
X96806531Y-131715710D01*
X96749316Y-131676344D01*
X96717712Y-131653084D01*
X96697008Y-131634935D01*
X96692274Y-131628064D01*
X96698428Y-131594725D01*
X96712409Y-131571101D01*
X96727380Y-131564970D01*
X96740773Y-131557943D01*
X96758260Y-131531485D01*
X96780997Y-131483630D01*
X96795653Y-131448716D01*
X96815690Y-131398511D01*
X96831053Y-131357995D01*
X96839858Y-131332262D01*
X96841110Y-131325776D01*
X96831037Y-131332397D01*
X96806471Y-131352890D01*
X96771475Y-131383781D01*
X96742727Y-131409931D01*
X96702012Y-131446626D01*
X96668007Y-131475858D01*
X96645112Y-131493926D01*
X96638125Y-131497947D01*
X96634368Y-131486313D01*
X96631309Y-131454283D01*
X96629278Y-131406857D01*
X96628600Y-131353199D01*
X96627761Y-131295084D01*
X96625479Y-131246876D01*
X96622114Y-131213895D01*
X96618406Y-131201598D01*
X96610450Y-131210105D01*
X96597149Y-131238077D01*
X96580609Y-131280698D01*
X96568733Y-131315148D01*
X96553237Y-131365459D01*
X96542991Y-131405370D01*
X96539175Y-131429808D01*
X96540828Y-131435000D01*
X96550448Y-131445091D01*
X96550925Y-131468404D01*
X96542341Y-131494491D01*
X96540332Y-131497913D01*
X96525392Y-131507750D01*
X96500565Y-131501718D01*
X96462800Y-131478733D01*
X96440598Y-131462436D01*
X96420607Y-131442317D01*
X96419702Y-131419941D01*
X96424316Y-131406101D01*
X96439623Y-131382015D01*
X96454685Y-131378661D01*
X96465556Y-131370391D01*
X96480128Y-131342642D01*
X96496801Y-131300775D01*
X96513970Y-131250152D01*
X96530034Y-131196134D01*
X96543390Y-131144082D01*
X96552437Y-131099358D01*
X96555571Y-131067321D01*
X96551823Y-131053643D01*
X96541831Y-131037870D01*
X96546092Y-131007649D01*
X96547074Y-131004265D01*
X96558750Y-130965039D01*
X96615900Y-131002976D01*
X96646166Y-131025879D01*
X96667057Y-131050874D01*
X96680307Y-131083144D01*
X96687649Y-131127870D01*
X96690817Y-131190235D01*
X96691369Y-131228625D01*
X96692963Y-131273309D01*
X96696493Y-131306035D01*
X96701236Y-131320491D01*
X96701898Y-131320700D01*
X96715120Y-131312703D01*
X96742060Y-131291346D01*
X96777844Y-131260575D01*
X96793973Y-131246125D01*
X96876250Y-131171551D01*
X96933400Y-131210084D01*
X96965677Y-131231870D01*
X96987963Y-131246962D01*
X96994081Y-131251146D01*
X97113534Y-131251146D01*
X97127675Y-131205082D01*
X97148318Y-131134982D01*
X97163731Y-131078823D01*
X97172773Y-131040083D01*
X97174700Y-131025295D01*
X97164999Y-131009920D01*
X97139338Y-130984473D01*
X97102885Y-130952982D01*
X97060808Y-130919477D01*
X97018274Y-130887987D01*
X96980451Y-130862540D01*
X96952504Y-130847165D01*
X96942759Y-130844450D01*
X96931397Y-130855621D01*
X96919152Y-130883934D01*
X96914043Y-130901600D01*
X96903305Y-130935519D01*
X96889521Y-130952569D01*
X96868716Y-130952758D01*
X96836912Y-130936094D01*
X96790135Y-130902587D01*
X96789168Y-130901857D01*
X96749937Y-130870167D01*
X96729014Y-130847016D01*
X96722848Y-130828008D01*
X96723672Y-130820788D01*
X96728133Y-130798010D01*
X96735857Y-130756216D01*
X96745748Y-130701413D01*
X96756422Y-130641250D01*
X96766911Y-130582518D01*
X96775899Y-130533861D01*
X96782456Y-130500184D01*
X96785655Y-130486395D01*
X96785707Y-130486319D01*
X96798089Y-130491044D01*
X96828319Y-130509682D01*
X96874175Y-130540573D01*
X96933439Y-130582059D01*
X97003890Y-130632481D01*
X97083307Y-130690182D01*
X97169470Y-130753502D01*
X97260160Y-130820783D01*
X97353154Y-130890367D01*
X97446235Y-130960596D01*
X97537180Y-131029810D01*
X97623770Y-131096351D01*
X97703784Y-131158561D01*
X97775003Y-131214781D01*
X97835205Y-131263353D01*
X97882171Y-131302619D01*
X97902619Y-131320609D01*
X98724750Y-131320609D01*
X98684631Y-131282539D01*
X98623980Y-131231774D01*
X98557137Y-131182987D01*
X98480687Y-131134008D01*
X98391215Y-131082667D01*
X98285308Y-131026794D01*
X98159551Y-130964216D01*
X98142079Y-130955724D01*
X98045678Y-130908408D01*
X97959967Y-130864859D01*
X97880644Y-130822560D01*
X97803409Y-130778995D01*
X97723960Y-130731646D01*
X97637998Y-130677996D01*
X97541221Y-130615530D01*
X97429328Y-130541729D01*
X97390626Y-130515973D01*
X97202283Y-130379712D01*
X97037599Y-130237570D01*
X96895275Y-130088377D01*
X96838427Y-130018950D01*
X96794430Y-129961630D01*
X96764147Y-129919262D01*
X96745073Y-129887247D01*
X96734706Y-129860987D01*
X96730541Y-129835883D01*
X96729980Y-129819759D01*
X96724177Y-129757656D01*
X96709074Y-129683595D01*
X96687308Y-129608043D01*
X96661514Y-129541465D01*
X96658064Y-129534144D01*
X96642259Y-129508233D01*
X96209500Y-129508233D01*
X96209500Y-129584275D01*
X96145732Y-129524627D01*
X96102906Y-129488868D01*
X96057831Y-129458121D01*
X96017354Y-129436570D01*
X95988324Y-129428400D01*
X95988222Y-129428400D01*
X95988535Y-129438952D01*
X95996405Y-129465696D01*
X96002394Y-129482375D01*
X96013066Y-129525013D01*
X96020234Y-129582164D01*
X96023714Y-129645970D01*
X96023321Y-129708573D01*
X96018870Y-129762115D01*
X96010176Y-129798736D01*
X96009852Y-129799480D01*
X95994529Y-129834011D01*
X95908340Y-129800816D01*
X95835098Y-129778610D01*
X95762109Y-129767078D01*
X95695720Y-129766523D01*
X95642276Y-129777248D01*
X95622073Y-129787143D01*
X95597888Y-129808831D01*
X95566966Y-129844418D01*
X95535975Y-129886226D01*
X95535783Y-129886509D01*
X95442540Y-130007192D01*
X95342971Y-130104224D01*
X95237574Y-130177282D01*
X95126852Y-130226045D01*
X95011303Y-130250191D01*
X94966429Y-130252841D01*
X94910808Y-130253900D01*
X94994752Y-130169955D01*
X95064208Y-130089289D01*
X95115307Y-130005871D01*
X95146679Y-129923043D01*
X95156950Y-129844144D01*
X95150358Y-129791038D01*
X95133268Y-129765765D01*
X95102056Y-129756905D01*
X95061444Y-129763840D01*
X95016154Y-129785954D01*
X94980775Y-129813200D01*
X94952200Y-129839227D01*
X94952200Y-129809273D01*
X94963278Y-129757629D01*
X94994032Y-129700242D01*
X95040744Y-129641263D01*
X95099693Y-129584838D01*
X95167161Y-129535117D01*
X95228317Y-129501276D01*
X95326033Y-129468249D01*
X95433198Y-129454035D01*
X95541677Y-129459119D01*
X95624755Y-129477664D01*
X95666208Y-129490288D01*
X95696558Y-129498638D01*
X95709335Y-129500935D01*
X95709362Y-129500911D01*
X95707034Y-129488498D01*
X95698433Y-129458495D01*
X95685415Y-129417375D01*
X95685300Y-129417026D01*
X95644925Y-129332351D01*
X95582984Y-129253730D01*
X95503238Y-129185291D01*
X95437443Y-129144919D01*
X95386112Y-129114346D01*
X95348548Y-129084701D01*
X95332496Y-129065064D01*
X95323744Y-129037023D01*
X95317632Y-128995636D01*
X95314515Y-128949107D01*
X95314751Y-128905642D01*
X95318699Y-128873449D01*
X95323658Y-128862208D01*
X95339371Y-128861362D01*
X95371998Y-128867764D01*
X95414561Y-128880036D01*
X95415769Y-128880431D01*
X95467030Y-128894125D01*
X95520867Y-128903480D01*
X95570440Y-128907874D01*
X95608909Y-128906688D01*
X95628989Y-128899777D01*
X95624349Y-128888810D01*
X95603484Y-128870195D01*
X95589831Y-128860503D01*
X95539402Y-128821677D01*
X95481020Y-128768383D01*
X95419065Y-128705516D01*
X95357917Y-128637967D01*
X95301953Y-128570629D01*
X95255553Y-128508394D01*
X95223096Y-128456156D01*
X95217177Y-128444150D01*
X95202785Y-128399034D01*
X95194433Y-128346869D01*
X95193629Y-128329850D01*
X95182598Y-128232665D01*
X95150371Y-128126981D01*
X95112188Y-128041376D01*
X95091579Y-127998627D01*
X95076991Y-127965573D01*
X95070881Y-127947876D01*
X95071019Y-127946448D01*
X95082665Y-127950807D01*
X95107863Y-127966486D01*
X95126193Y-127979302D01*
X95168076Y-128018363D01*
X95213849Y-128075669D01*
X95259536Y-128145314D01*
X95301160Y-128221393D01*
X95326100Y-128276160D01*
X95355670Y-128335517D01*
X95393285Y-128385972D01*
X95443105Y-128431322D01*
X95509292Y-128475367D01*
X95594468Y-128521136D01*
X95657180Y-128553262D01*
X95698134Y-128576358D01*
X95718848Y-128591566D01*
X95720841Y-128600026D01*
X95705629Y-128602879D01*
X95703289Y-128602900D01*
X95670932Y-128606932D01*
X95657517Y-128610828D01*
X95644914Y-128618585D01*
X95652410Y-128629288D01*
X95662641Y-128636817D01*
X95679231Y-128654067D01*
X95705801Y-128688041D01*
X95738803Y-128733962D01*
X95774688Y-128787058D01*
X95777718Y-128791688D01*
X95813533Y-128845595D01*
X95843992Y-128887600D01*
X95873723Y-128922147D01*
X95907354Y-128953681D01*
X95949510Y-128986647D01*
X96004820Y-129025489D01*
X96059466Y-129062319D01*
X96110876Y-129100502D01*
X96148530Y-129136200D01*
X96168852Y-129165759D01*
X96171400Y-129176712D01*
X96159693Y-129181434D01*
X96128536Y-129185802D01*
X96083877Y-129189068D01*
X96067635Y-129189761D01*
X95963869Y-129193450D01*
X96048584Y-129235938D01*
X96117478Y-129277999D01*
X96165197Y-129326589D01*
X96194430Y-129386258D01*
X96207865Y-129461556D01*
X96209500Y-129508233D01*
X96642259Y-129508233D01*
X96622445Y-129475750D01*
X96569006Y-129409084D01*
X96524234Y-129361341D01*
X96474085Y-129308484D01*
X96440503Y-129266893D01*
X96420156Y-129232046D01*
X96411923Y-129208941D01*
X96396133Y-129157530D01*
X96376212Y-129110620D01*
X96349707Y-129065120D01*
X96314166Y-129017943D01*
X96267136Y-128965999D01*
X96206166Y-128906200D01*
X96128801Y-128835456D01*
X96083412Y-128795198D01*
X96029632Y-128742012D01*
X95989524Y-128686406D01*
X95962443Y-128635041D01*
X95932269Y-128575467D01*
X95902519Y-128528235D01*
X95868201Y-128487967D01*
X95824324Y-128449286D01*
X95765898Y-128406816D01*
X95725418Y-128379672D01*
X95626404Y-128307096D01*
X95546405Y-128230654D01*
X95479211Y-128143508D01*
X95422390Y-128046141D01*
X95360172Y-127944587D01*
X95290480Y-127865852D01*
X95211429Y-127807977D01*
X95175491Y-127789649D01*
X95095926Y-127753572D01*
X95081683Y-127598665D01*
X95075268Y-127537081D01*
X95067475Y-127483658D01*
X95056770Y-127431968D01*
X95041624Y-127375579D01*
X95020506Y-127308061D01*
X94993055Y-127226404D01*
X94966293Y-127148875D01*
X94945879Y-127092157D01*
X94930211Y-127052940D01*
X94917686Y-127027911D01*
X94906700Y-127013759D01*
X94895650Y-127007174D01*
X94885944Y-127005157D01*
X94841389Y-127009060D01*
X94790324Y-127031624D01*
X94730379Y-127074117D01*
X94687554Y-127111172D01*
X94607057Y-127184661D01*
X94518067Y-127087129D01*
X94478370Y-127044882D01*
X94442633Y-127009114D01*
X94415683Y-126984539D01*
X94405004Y-126976712D01*
X94372723Y-126972910D01*
X94334774Y-126990161D01*
G37*
X94334774Y-126990161D02*
X94293431Y-127025393D01*
X94250969Y-127075535D01*
X94209661Y-127137513D01*
X94171783Y-127208254D01*
X94139607Y-127284688D01*
X94115409Y-127363740D01*
X94113909Y-127369987D01*
X94104694Y-127415582D01*
X94094639Y-127475324D01*
X94085578Y-127538101D01*
X94083595Y-127553675D01*
X94076376Y-127608398D01*
X94069583Y-127643575D01*
X94060994Y-127664921D01*
X94048391Y-127678152D01*
X94031406Y-127688038D01*
X93931383Y-127743933D01*
X93829252Y-127809300D01*
X93730241Y-127880209D01*
X93639579Y-127952728D01*
X93562497Y-128022929D01*
X93509607Y-128080205D01*
X93475896Y-128114404D01*
X93434638Y-128147547D01*
X93422903Y-128155422D01*
X93391583Y-128173920D01*
X93340906Y-128202273D01*
X93274117Y-128238748D01*
X93194461Y-128281608D01*
X93105181Y-128329120D01*
X93009523Y-128379547D01*
X92910731Y-128431155D01*
X92812049Y-128482210D01*
X92805900Y-128485373D01*
X92702375Y-128540996D01*
X92621448Y-128590181D01*
X92561560Y-128634347D01*
X92521157Y-128674914D01*
X92498680Y-128713299D01*
X92492573Y-128750923D01*
X92494937Y-128768849D01*
X92511342Y-128808383D01*
X92545373Y-128861557D01*
X92595217Y-128925661D01*
X92617189Y-128951476D01*
X92637501Y-128978192D01*
X92665514Y-129019340D01*
X92696163Y-129067391D01*
X92705842Y-129083232D01*
X92737768Y-129133851D01*
X92766561Y-129170992D01*
X92797114Y-129197092D01*
X92834322Y-129214586D01*
X92883081Y-129225911D01*
X92948283Y-129233502D01*
X93018181Y-129238699D01*
X93158946Y-129248164D01*
X93276484Y-129256285D01*
X93372921Y-129263302D01*
X93450379Y-129269450D01*
X93510983Y-129274966D01*
X93556858Y-129280088D01*
X93590127Y-129285054D01*
X93612915Y-129290099D01*
X93627347Y-129295460D01*
X93635545Y-129301376D01*
X93639623Y-129308048D01*
X93638621Y-129330508D01*
X93627736Y-129370387D01*
X93609066Y-129422705D01*
X93584710Y-129482487D01*
X93556767Y-129544753D01*
X93527334Y-129604527D01*
X93498512Y-129656830D01*
X93480626Y-129685160D01*
X93393559Y-129831380D01*
X93328068Y-129981884D01*
X93285337Y-130133472D01*
X93267895Y-130259358D01*
X93264019Y-130334971D01*
X93265106Y-130388299D01*
X93271738Y-130422076D01*
X93284497Y-130439034D01*
X93303967Y-130441910D01*
X93306710Y-130441452D01*
X93336449Y-130435767D01*
X93342759Y-130779808D01*
X93346102Y-130918587D01*
X93350664Y-131033930D01*
X93356558Y-131127779D01*
X93363899Y-131202075D01*
X93370136Y-131244500D01*
X93377749Y-131285253D01*
X93388764Y-131340497D01*
X93402227Y-131405820D01*
X93417184Y-131476808D01*
X93432681Y-131549050D01*
X93447763Y-131618132D01*
X93461477Y-131679642D01*
X93472868Y-131729168D01*
X93480983Y-131762297D01*
X93484738Y-131774507D01*
X93497077Y-131773430D01*
X93524050Y-131766838D01*
X93527078Y-131765980D01*
X93545096Y-131761369D01*
X93557925Y-131762028D01*
X93566898Y-131771579D01*
X93573350Y-131793644D01*
X93578612Y-131831846D01*
X93584018Y-131889807D01*
X93587407Y-131929896D01*
X93597800Y-132007899D01*
X93616087Y-132100359D01*
X93640050Y-132198434D01*
X93667468Y-132293280D01*
X93696123Y-132376056D01*
X93704845Y-132397730D01*
X93731756Y-132456642D01*
X93764924Y-132521633D01*
X93800852Y-132586564D01*
X93836043Y-132645296D01*
X93866998Y-132691691D01*
X93885636Y-132715027D01*
X93912335Y-132743684D01*
X93958717Y-132705452D01*
X93992696Y-132681659D01*
X94013734Y-132677515D01*
X94018275Y-132680403D01*
X94023051Y-132697863D01*
X94026554Y-132736742D01*
X94028840Y-132793096D01*
X94029966Y-132862977D01*
X94029988Y-132942442D01*
X94028963Y-133027545D01*
X94026947Y-133114339D01*
X94023996Y-133198880D01*
X94020167Y-133277221D01*
X94015516Y-133345418D01*
X94010099Y-133399524D01*
X94007765Y-133416118D01*
X93997065Y-133476774D01*
X93986608Y-133517640D01*
X93974551Y-133544236D01*
X93959047Y-133562086D01*
X93958952Y-133562168D01*
X93938146Y-133576616D01*
X93899354Y-133600511D01*
X93846958Y-133631268D01*
X93785343Y-133666301D01*
X93736126Y-133693603D01*
X93651050Y-133741534D01*
X93585396Y-133782058D01*
X93535489Y-133818345D01*
X93497656Y-133853563D01*
X93468224Y-133890881D01*
X93443521Y-133933469D01*
X93433004Y-133955119D01*
X93409744Y-134013301D01*
X93403172Y-134058324D01*
X93414414Y-134097106D01*
X93444595Y-134136561D01*
X93465950Y-134157593D01*
X93517234Y-134201267D01*
X93561291Y-134227459D01*
X93605251Y-134239643D01*
X93638577Y-134241700D01*
X93661722Y-134242470D01*
X93675097Y-134247927D01*
X93679717Y-134262790D01*
X93676597Y-134291777D01*
X93666750Y-134339608D01*
X93663150Y-134356000D01*
X93650391Y-134417813D01*
X93645189Y-134460747D01*
X93648873Y-134490545D01*
X93662775Y-134512954D01*
X93688224Y-134533716D01*
X93707204Y-134546245D01*
X93812521Y-134602149D01*
X93915384Y-134632977D01*
X94016359Y-134638869D01*
X94056850Y-134634193D01*
X94116594Y-134621001D01*
X94187854Y-134600362D01*
X94262165Y-134575203D01*
X94331060Y-134548447D01*
X94386076Y-134523021D01*
X94398570Y-134516113D01*
X94433117Y-134492709D01*
X94478744Y-134457490D01*
X94528179Y-134416204D01*
X94554845Y-134392551D01*
X94593364Y-134356063D01*
X94626783Y-134320246D01*
X94656884Y-134281901D01*
X94685454Y-134237830D01*
X94714278Y-134184835D01*
X94745141Y-134119717D01*
X94779828Y-134039277D01*
X94820124Y-133940318D01*
X94851685Y-133860700D01*
X94886934Y-133771200D01*
X94923941Y-133677285D01*
X94959977Y-133585873D01*
X94992315Y-133503883D01*
X95018228Y-133438231D01*
X95019406Y-133435250D01*
X95059501Y-133340594D01*
X95102102Y-133255773D01*
X95152925Y-133170013D01*
X95191237Y-133111400D01*
X95233325Y-133047253D01*
X95274184Y-132982364D01*
X95309742Y-132923369D01*
X95335926Y-132876909D01*
X95340612Y-132867869D01*
X95363144Y-132825595D01*
X95382993Y-132792579D01*
X95396262Y-132775246D01*
X95397264Y-132774501D01*
X95411755Y-132779107D01*
X95439576Y-132798561D01*
X95476317Y-132829536D01*
X95502355Y-132853756D01*
X95575976Y-132921161D01*
X95643469Y-132973962D01*
X95713629Y-133018106D01*
X95795255Y-133059542D01*
X95830089Y-133075363D01*
X95895967Y-133106243D01*
X95970376Y-133143631D01*
X96040143Y-133180846D01*
X96059209Y-133191555D01*
X96122097Y-133229620D01*
X96190270Y-133274585D01*
X96260909Y-133324190D01*
X96331200Y-133376174D01*
X96398327Y-133428276D01*
X96459472Y-133478235D01*
X96511821Y-133523790D01*
X96552556Y-133562680D01*
X96578862Y-133592645D01*
X96587923Y-133611423D01*
X96586523Y-133614910D01*
X96563549Y-133624591D01*
X96515524Y-133632927D01*
X96442762Y-133639894D01*
X96345578Y-133645464D01*
X96224287Y-133649613D01*
X96148415Y-133651261D01*
X96015650Y-133655151D01*
X95905211Y-133662122D01*
X95814122Y-133672976D01*
X95739412Y-133688514D01*
X95678106Y-133709539D01*
X95627232Y-133736851D01*
X95583818Y-133771252D01*
X95544888Y-133813545D01*
X95544432Y-133814108D01*
X95508251Y-133860895D01*
X95487480Y-133894683D01*
X95480150Y-133921001D01*
X95484295Y-133945377D01*
X95491803Y-133962013D01*
X95526478Y-134015411D01*
X95570304Y-134063680D01*
X95615828Y-134099143D01*
X95633998Y-134108512D01*
X95664890Y-134127370D01*
X95689477Y-134158605D01*
X95707143Y-134193638D01*
X95733986Y-134241693D01*
X95768397Y-134288260D01*
X95786012Y-134307111D01*
X95835302Y-134349955D01*
X95889919Y-134391125D01*
X95943827Y-134426630D01*
X95990992Y-134452479D01*
X96023929Y-134464432D01*
X96048185Y-134465141D01*
X96093204Y-134462908D01*
X96154561Y-134458093D01*
X96227835Y-134451054D01*
X96308603Y-134442150D01*
X96330150Y-134439590D01*
X96418414Y-134429953D01*
X96524985Y-134419934D01*
X96642788Y-134410101D01*
X96764747Y-134401020D01*
X96883789Y-134393258D01*
X96965150Y-134388731D01*
X97077165Y-134382820D01*
X97167366Y-134377438D01*
X97239324Y-134372218D01*
X97296609Y-134366791D01*
X97342793Y-134360789D01*
X97381445Y-134353845D01*
X97416137Y-134345589D01*
X97435050Y-134340290D01*
X97478278Y-134328417D01*
X97516635Y-134320426D01*
X97556525Y-134315769D01*
X97604349Y-134313901D01*
X97666511Y-134314275D01*
X97723975Y-134315632D01*
X97789677Y-134318077D01*
X97845309Y-134321402D01*
X97886444Y-134325244D01*
X97908656Y-134329239D01*
X97911300Y-134331037D01*
X97903801Y-134346559D01*
X97885187Y-134372205D01*
X97879223Y-134379473D01*
X97859639Y-134406616D01*
X97857792Y-134422510D01*
X97863348Y-134428072D01*
X97880566Y-134431507D01*
X97919024Y-134434916D01*
X97974562Y-134438070D01*
X98043021Y-134440737D01*
X98120241Y-134442689D01*
X98130654Y-134442877D01*
X98219646Y-134444148D01*
X98287874Y-134444284D01*
X98339962Y-134442991D01*
X98380530Y-134439971D01*
X98414202Y-134434929D01*
X98445600Y-134427570D01*
X98467204Y-134421336D01*
X98524316Y-134407237D01*
X98586692Y-134398994D01*
X98662871Y-134395624D01*
X98692350Y-134395414D01*
X98820067Y-134389640D01*
X98940719Y-134371127D01*
X99066107Y-134337929D01*
X99092400Y-134329485D01*
X99123283Y-134320357D01*
X99156660Y-134313100D01*
X99196502Y-134307323D01*
X99246777Y-134302639D01*
X99311457Y-134298657D01*
X99394510Y-134294988D01*
X99473400Y-134292135D01*
X99588943Y-134287538D01*
X99681633Y-134282316D01*
X99754015Y-134276258D01*
X99808634Y-134269149D01*
X99848035Y-134260777D01*
X99848050Y-134260773D01*
X99974550Y-134216115D01*
X100080008Y-134157965D01*
X100164912Y-134085616D01*
X100229750Y-133998361D01*
X100275007Y-133895494D01*
X100301172Y-133776308D01*
X100308730Y-133640095D01*
X100308306Y-133625828D01*
X100098104Y-133625828D01*
X100094548Y-133709446D01*
X100085615Y-133780932D01*
X100078390Y-133812147D01*
X100042516Y-133891149D01*
X99984859Y-133959774D01*
X99907201Y-134017119D01*
X99811325Y-134062283D01*
X99699013Y-134094364D01*
X99572048Y-134112460D01*
X99476943Y-134116322D01*
X99418688Y-134115826D01*
X99369663Y-134114229D01*
X99335531Y-134111790D01*
X99322427Y-134109231D01*
X99304776Y-134105610D01*
X99268733Y-134102660D01*
X99221306Y-134100907D01*
X99209083Y-134100724D01*
X99146175Y-134102177D01*
X99098340Y-134109218D01*
X99055557Y-134123504D01*
X99046100Y-134127660D01*
X98937104Y-134169967D01*
X98826647Y-134199732D01*
X98751373Y-134211724D01*
X98670696Y-134220074D01*
X98691048Y-134180717D01*
X98703765Y-134145382D01*
X98710395Y-134105496D01*
X98710305Y-134070028D01*
X98702864Y-134047945D01*
X98700547Y-134045990D01*
X98685643Y-134049805D01*
X98663150Y-134067897D01*
X98659272Y-134071914D01*
X98614225Y-134108184D01*
X98550096Y-134143587D01*
X98473146Y-134175552D01*
X98389636Y-134201510D01*
X98305827Y-134218892D01*
X98298650Y-134219925D01*
X98247390Y-134225250D01*
X98201984Y-134226853D01*
X98168500Y-134224822D01*
X98153010Y-134219242D01*
X98152600Y-134217855D01*
X98161269Y-134201153D01*
X98170665Y-134191717D01*
X98188081Y-134168954D01*
X98201174Y-134141027D01*
X98213618Y-134105330D01*
X98103734Y-134111563D01*
X98020434Y-134112568D01*
X97920130Y-134107788D01*
X97810401Y-134097832D01*
X97698826Y-134083310D01*
X97646568Y-134074849D01*
X97609916Y-134067855D01*
X97587807Y-134060645D01*
X97581636Y-134051257D01*
X97592800Y-134037735D01*
X97622692Y-134018117D01*
X97672711Y-133990445D01*
X97727150Y-133961717D01*
X97843168Y-133896962D01*
X97934825Y-133837021D01*
X98002628Y-133781529D01*
X98044855Y-133733405D01*
X98072283Y-133699184D01*
X98111595Y-133656654D01*
X98149523Y-133619492D01*
X97898600Y-133619492D01*
X97888285Y-133636031D01*
X97859347Y-133663717D01*
X97814803Y-133700391D01*
X97757667Y-133743896D01*
X97690954Y-133792073D01*
X97617680Y-133842764D01*
X97540859Y-133893812D01*
X97463506Y-133943057D01*
X97388636Y-133988343D01*
X97360834Y-134004423D01*
X97262165Y-134060659D01*
X97320010Y-134097204D01*
X97352171Y-134118842D01*
X97373183Y-134135508D01*
X97377878Y-134141526D01*
X97375899Y-134144396D01*
X97368506Y-134147311D01*
X97353535Y-134150519D01*
X97328827Y-134154266D01*
X97292218Y-134158801D01*
X97241547Y-134164370D01*
X97174653Y-134171221D01*
X97089374Y-134179601D01*
X96983548Y-134189759D01*
X96855013Y-134201941D01*
X96826973Y-134204587D01*
X96720366Y-134214778D01*
X96615332Y-134225067D01*
X96516303Y-134235002D01*
X96427707Y-134244130D01*
X96353975Y-134252000D01*
X96299537Y-134258160D01*
X96285700Y-134259848D01*
X96209512Y-134269134D01*
X96153330Y-134274707D01*
X96111997Y-134276328D01*
X96080358Y-134273758D01*
X96053257Y-134266758D01*
X96025538Y-134255091D01*
X96009071Y-134247051D01*
X95964385Y-134219533D01*
X95923443Y-134185741D01*
X95906832Y-134167676D01*
X95885122Y-134138648D01*
X95877579Y-134119893D01*
X95882689Y-134101705D01*
X95893645Y-134083035D01*
X95924629Y-134040678D01*
X95964996Y-133996121D01*
X96007149Y-133957024D01*
X96043490Y-133931048D01*
X96045416Y-133930024D01*
X96074722Y-133918461D01*
X96119374Y-133904794D01*
X96169821Y-133891943D01*
X96170903Y-133891697D01*
X96213209Y-133882781D01*
X96248408Y-133878037D01*
X96284028Y-133877462D01*
X96327599Y-133881055D01*
X96386648Y-133888814D01*
X96406393Y-133891648D01*
X96523641Y-133906040D01*
X96623253Y-133912076D01*
X96711600Y-133909703D01*
X96795050Y-133898865D01*
X96847134Y-133887868D01*
X96905354Y-133872437D01*
X96968099Y-133853325D01*
X97030208Y-133832408D01*
X97086520Y-133811559D01*
X97131873Y-133792654D01*
X97161106Y-133777569D01*
X97168849Y-133770993D01*
X97167884Y-133753187D01*
X97155992Y-133724870D01*
X97153209Y-133719928D01*
X97135657Y-133698277D01*
X97106033Y-133675357D01*
X97060512Y-133648663D01*
X96995272Y-133615693D01*
X96990550Y-133613415D01*
X96874754Y-133552560D01*
X96780057Y-133490963D01*
X96702276Y-133425484D01*
X96637223Y-133352986D01*
X96629158Y-133342451D01*
X96583120Y-133276228D01*
X96537464Y-133201945D01*
X96497202Y-133128317D01*
X96467349Y-133064061D01*
X96463773Y-133054965D01*
X96457751Y-133037052D01*
X96459864Y-133031482D01*
X96473387Y-133039514D01*
X96501595Y-133062407D01*
X96517072Y-133075457D01*
X96608837Y-133147951D01*
X96698000Y-133206417D01*
X96793072Y-133255668D01*
X96902561Y-133300516D01*
X96937358Y-133313079D01*
X97022350Y-133339610D01*
X97121867Y-133365280D01*
X97225085Y-133387608D01*
X97321182Y-133404114D01*
X97352500Y-133408218D01*
X97387040Y-133412341D01*
X97408531Y-133415059D01*
X97411745Y-133415554D01*
X97420065Y-133424994D01*
X97439806Y-133449073D01*
X97465720Y-133481358D01*
X97496385Y-133523603D01*
X97512381Y-133557530D01*
X97517674Y-133592082D01*
X97517795Y-133598833D01*
X97522848Y-133647692D01*
X97538004Y-133674910D01*
X97563924Y-133680466D01*
X97601267Y-133664338D01*
X97650695Y-133626507D01*
X97686289Y-133593515D01*
X97721869Y-133559306D01*
X97749847Y-133533140D01*
X97765822Y-133519103D01*
X97767845Y-133517800D01*
X97781862Y-133525001D01*
X97807956Y-133543113D01*
X97839395Y-133566898D01*
X97869445Y-133591121D01*
X97891372Y-133610543D01*
X97898600Y-133619492D01*
X98149523Y-133619492D01*
X98155252Y-133613879D01*
X98164690Y-133605236D01*
X98203731Y-133569617D01*
X98225773Y-133547597D01*
X98232812Y-133535913D01*
X98226846Y-133531302D01*
X98210409Y-133530500D01*
X98175038Y-133524762D01*
X98133545Y-133510219D01*
X98094544Y-133490871D01*
X98066649Y-133470722D01*
X98058901Y-133460112D01*
X98064788Y-133441538D01*
X98095571Y-133419534D01*
X98104017Y-133415069D01*
X98134284Y-133395532D01*
X98176591Y-133362839D01*
X98225004Y-133321784D01*
X98267299Y-133283159D01*
X98340891Y-133216804D01*
X98405697Y-133167720D01*
X98468284Y-133132942D01*
X98535216Y-133109504D01*
X98613058Y-133094439D01*
X98706032Y-133084960D01*
X98773157Y-133079125D01*
X98835746Y-133072327D01*
X98886941Y-133065396D01*
X98919885Y-133059162D01*
X98920630Y-133058965D01*
X98987448Y-133035118D01*
X99056100Y-133000854D01*
X99117043Y-132961468D01*
X99154279Y-132929367D01*
X99197108Y-132884734D01*
X99169914Y-132846544D01*
X99121111Y-132793403D01*
X99052941Y-132741425D01*
X98981647Y-132700283D01*
X98915343Y-132666848D01*
X98946381Y-132608473D01*
X98966558Y-132564939D01*
X98981744Y-132522256D01*
X98985523Y-132506899D01*
X98994128Y-132478082D01*
X99004617Y-132463982D01*
X99006094Y-132463700D01*
X99023177Y-132466106D01*
X99059157Y-132472589D01*
X99108064Y-132482041D01*
X99143598Y-132489181D01*
X99293686Y-132526637D01*
X99438313Y-132575859D01*
X99568491Y-132633716D01*
X99587700Y-132643738D01*
X99637368Y-132672552D01*
X99689605Y-132706639D01*
X99740352Y-132742849D01*
X99785550Y-132778030D01*
X99821140Y-132809032D01*
X99843064Y-132832704D01*
X99847575Y-132845468D01*
X99831665Y-132852311D01*
X99798979Y-132856818D01*
X99774276Y-132857802D01*
X99708350Y-132858204D01*
X99746450Y-132885215D01*
X99772594Y-132906531D01*
X99809744Y-132940294D01*
X99851418Y-132980533D01*
X99867982Y-132997184D01*
X99945676Y-133092080D01*
X100011060Y-133203898D01*
X100060353Y-133325637D01*
X100076811Y-133383975D01*
X100089205Y-133454914D01*
X100096313Y-133538258D01*
X100098104Y-133625828D01*
X100308306Y-133625828D01*
X100307357Y-133594000D01*
X100288891Y-133431420D01*
X100248740Y-133277571D01*
X100185578Y-133128273D01*
X100126543Y-133023554D01*
X100107648Y-132989747D01*
X100104787Y-132974854D01*
X100111143Y-132974908D01*
X100134835Y-132981165D01*
X100172459Y-132988431D01*
X100191676Y-132991522D01*
X100252799Y-133000688D01*
X100221875Y-132948652D01*
X100171157Y-132873170D01*
X100105466Y-132790055D01*
X100030749Y-132706073D01*
X99952956Y-132627993D01*
X99893868Y-132575457D01*
X99747565Y-132464294D01*
X99603432Y-132376404D01*
X99458437Y-132310202D01*
X99309544Y-132264099D01*
X99289766Y-132259505D01*
X99232693Y-132240976D01*
X99195229Y-132212562D01*
X99172715Y-132169083D01*
X99161982Y-132117385D01*
X99133420Y-131984203D01*
X99086530Y-131852421D01*
X98866352Y-131852421D01*
X98866273Y-131901115D01*
X98858803Y-131963495D01*
X98857253Y-131973948D01*
X98828112Y-132114942D01*
X98783688Y-132258996D01*
X98726463Y-132400838D01*
X98658922Y-132535198D01*
X98583546Y-132656803D01*
X98502819Y-132760382D01*
X98470831Y-132794345D01*
X98370393Y-132879459D01*
X98250397Y-132955329D01*
X98115704Y-133019701D01*
X97971175Y-133070323D01*
X97821670Y-133104943D01*
X97789574Y-133110045D01*
X97714899Y-133117572D01*
X97625008Y-133121472D01*
X97528459Y-133121827D01*
X97433811Y-133118716D01*
X97349620Y-133112219D01*
X97300189Y-133105473D01*
X97222067Y-133090326D01*
X97148285Y-133072420D01*
X97077316Y-133050636D01*
X97007636Y-133023857D01*
X96937721Y-132990964D01*
X96866043Y-132950841D01*
X96791080Y-132902369D01*
X96711305Y-132844430D01*
X96625193Y-132775906D01*
X96531219Y-132695680D01*
X96427859Y-132602633D01*
X96313587Y-132495649D01*
X96265926Y-132449744D01*
X95123241Y-132449744D01*
X95117483Y-132552472D01*
X95110334Y-132604817D01*
X95103852Y-132652212D01*
X95099384Y-132684812D01*
X95099228Y-132685950D01*
X95096343Y-132718616D01*
X95094047Y-132765766D01*
X95092945Y-132810845D01*
X95091900Y-132897641D01*
X95015881Y-132931240D01*
X94974070Y-132950946D01*
X94948617Y-132968736D01*
X94932280Y-132992094D01*
X94917821Y-133028505D01*
X94915579Y-133034944D01*
X94906258Y-133062040D01*
X94889754Y-133110224D01*
X94867076Y-133176539D01*
X94839234Y-133258031D01*
X94807237Y-133351744D01*
X94772095Y-133454723D01*
X94734817Y-133564012D01*
X94718369Y-133612248D01*
X94680876Y-133721292D01*
X94645141Y-133823470D01*
X94612134Y-133916132D01*
X94582826Y-133996629D01*
X94558187Y-134062311D01*
X94539190Y-134110530D01*
X94526803Y-134138636D01*
X94523396Y-134144315D01*
X94501642Y-134165468D01*
X94467871Y-134194790D01*
X94437850Y-134219195D01*
X94397565Y-134254385D01*
X94360798Y-134292264D01*
X94342385Y-134315192D01*
X94309760Y-134353753D01*
X94269178Y-134383694D01*
X94214907Y-134408280D01*
X94141213Y-134430778D01*
X94138029Y-134431616D01*
X94084006Y-134445495D01*
X94046425Y-134453237D01*
X94017134Y-134455040D01*
X93987977Y-134451101D01*
X93950800Y-134441617D01*
X93932795Y-134436577D01*
X93886275Y-134420786D01*
X93857123Y-134401582D01*
X93843393Y-134374208D01*
X93843139Y-134333905D01*
X93854413Y-134275914D01*
X93859180Y-134256612D01*
X93869509Y-134218262D01*
X93880745Y-134186963D01*
X93895809Y-134159821D01*
X93917621Y-134133940D01*
X93949101Y-134106428D01*
X93993171Y-134074389D01*
X94052751Y-134034931D01*
X94130762Y-133985157D01*
X94137272Y-133981032D01*
X94199106Y-133941673D01*
X94242982Y-133912606D01*
X94272408Y-133890547D01*
X94290892Y-133872207D01*
X94301942Y-133854302D01*
X94309066Y-133833544D01*
X94313504Y-133815932D01*
X94320849Y-133782590D01*
X94332008Y-133727883D01*
X94346303Y-133655443D01*
X94363053Y-133568906D01*
X94381578Y-133471903D01*
X94401201Y-133368070D01*
X94421240Y-133261039D01*
X94441018Y-133154444D01*
X94459853Y-133051919D01*
X94477067Y-132957098D01*
X94491981Y-132873614D01*
X94503915Y-132805100D01*
X94512189Y-132755192D01*
X94513835Y-132744531D01*
X94522978Y-132670522D01*
X94525040Y-132607714D01*
X94518949Y-132548783D01*
X94503629Y-132486408D01*
X94478005Y-132413264D01*
X94457773Y-132362467D01*
X94433172Y-132296896D01*
X94410055Y-132225856D01*
X94392203Y-132161292D01*
X94387456Y-132140310D01*
X94377163Y-132084312D01*
X94366566Y-132016235D01*
X94356066Y-131939963D01*
X94346062Y-131859378D01*
X94336956Y-131778363D01*
X94329148Y-131700801D01*
X94323039Y-131630573D01*
X94319029Y-131571564D01*
X94317518Y-131527655D01*
X94318908Y-131502729D01*
X94321245Y-131498500D01*
X94334605Y-131501811D01*
X94364908Y-131510366D01*
X94394270Y-131518966D01*
X94484116Y-131552052D01*
X94569975Y-131595317D01*
X94635967Y-131639414D01*
X94657935Y-131657738D01*
X94671864Y-131674922D01*
X94680132Y-131697554D01*
X94685123Y-131732218D01*
X94689216Y-131785501D01*
X94689317Y-131786980D01*
X94700966Y-131878500D01*
X94723837Y-131985287D01*
X94743383Y-132057300D01*
X94769513Y-132156742D01*
X94787736Y-132247815D01*
X94796338Y-132319631D01*
X94802860Y-132423212D01*
X94839106Y-132410576D01*
X94888894Y-132380509D01*
X94934958Y-132327473D01*
X94975513Y-132253826D01*
X94994926Y-132205094D01*
X95007071Y-132191107D01*
X95025927Y-132200075D01*
X95052025Y-132232417D01*
X95073491Y-132266797D01*
X95109022Y-132351858D01*
X95123241Y-132449744D01*
X96265926Y-132449744D01*
X96186877Y-132373608D01*
X96046205Y-132235394D01*
X95890046Y-132079887D01*
X95860250Y-132050049D01*
X95749083Y-131938859D01*
X95653722Y-131844087D01*
X95572209Y-131763999D01*
X95502587Y-131696858D01*
X95442898Y-131640929D01*
X95391184Y-131594477D01*
X95345487Y-131555764D01*
X95303850Y-131523057D01*
X95264315Y-131494618D01*
X95224924Y-131468712D01*
X95183719Y-131443604D01*
X95161750Y-131430764D01*
X95118415Y-131407710D01*
X95063065Y-131381173D01*
X95000928Y-131353325D01*
X94937234Y-131326340D01*
X94877212Y-131302391D01*
X94826089Y-131283652D01*
X94789095Y-131272296D01*
X94774754Y-131269900D01*
X94776439Y-131261153D01*
X94792265Y-131237604D01*
X94819331Y-131203283D01*
X94840954Y-131177825D01*
X94885263Y-131124817D01*
X94940063Y-131055968D01*
X95001499Y-130976400D01*
X95065716Y-130891232D01*
X95128859Y-130805584D01*
X95187072Y-130724577D01*
X95236502Y-130653331D01*
X95242117Y-130645000D01*
X95274841Y-130597769D01*
X95299205Y-130567802D01*
X95319986Y-130550626D01*
X95341965Y-130541769D01*
X95355424Y-130538972D01*
X95478135Y-130511758D01*
X95555924Y-130486376D01*
X94972989Y-130486376D01*
X94972866Y-130503385D01*
X94958711Y-130538048D01*
X94931890Y-130587821D01*
X94893772Y-130650157D01*
X94848014Y-130719167D01*
X94769426Y-130820426D01*
X94684642Y-130905076D01*
X94596767Y-130970526D01*
X94508907Y-131014182D01*
X94485475Y-131021930D01*
X94465061Y-131024529D01*
X94457655Y-131011359D01*
X94456900Y-130994181D01*
X94449785Y-130956318D01*
X94437130Y-130929825D01*
X94414406Y-130909945D01*
X94380867Y-130902657D01*
X94333627Y-130908197D01*
X94269799Y-130926802D01*
X94212513Y-130948197D01*
X94116331Y-130994681D01*
X94040732Y-131050532D01*
X93985211Y-131117150D01*
X93949263Y-131195937D01*
X93932383Y-131288294D01*
X93934066Y-131395622D01*
X93953807Y-131519322D01*
X93975333Y-131606450D01*
X94005129Y-131737656D01*
X94017723Y-131855503D01*
X94013189Y-131965252D01*
X93991599Y-132072166D01*
X93982210Y-132103232D01*
X93964935Y-132163352D01*
X93950335Y-132226203D01*
X93941286Y-132279232D01*
X93940724Y-132284207D01*
X93935078Y-132324852D01*
X93928493Y-132353035D01*
X93923138Y-132362100D01*
X93916269Y-132350616D01*
X93904632Y-132319381D01*
X93889874Y-132273220D01*
X93874271Y-132219225D01*
X93854940Y-132143347D01*
X93835049Y-132055619D01*
X93817524Y-131969350D01*
X93809382Y-131923950D01*
X93800231Y-131863438D01*
X93791274Y-131793992D01*
X93782929Y-131720247D01*
X93775616Y-131646835D01*
X93769751Y-131578391D01*
X93765755Y-131519548D01*
X93764045Y-131474941D01*
X93765040Y-131449204D01*
X93766154Y-131445428D01*
X93762726Y-131431991D01*
X93758870Y-131428940D01*
X93737002Y-131428772D01*
X93704259Y-131443624D01*
X93667417Y-131470251D01*
X93661315Y-131475642D01*
X93640064Y-131489968D01*
X93627379Y-131489567D01*
X93619446Y-131468679D01*
X93608181Y-131428740D01*
X93594964Y-131375658D01*
X93581176Y-131315341D01*
X93568199Y-131253695D01*
X93557413Y-131196628D01*
X93553743Y-131174650D01*
X93546151Y-131107208D01*
X93541085Y-131021719D01*
X93538549Y-130925408D01*
X93538546Y-130825502D01*
X93541077Y-130729226D01*
X93546144Y-130643807D01*
X93553549Y-130577750D01*
X93562303Y-130529801D01*
X93575408Y-130467796D01*
X93591299Y-130398209D01*
X93608405Y-130327519D01*
X93625160Y-130262204D01*
X93639996Y-130208739D01*
X93651344Y-130173603D01*
X93651458Y-130173303D01*
X93650434Y-130156281D01*
X93630373Y-130153060D01*
X93593416Y-130163421D01*
X93547828Y-130183996D01*
X93513220Y-130201391D01*
X93489655Y-130212927D01*
X93483302Y-130215746D01*
X93484856Y-130204535D01*
X93490945Y-130175275D01*
X93499007Y-130139695D01*
X93527293Y-130047717D01*
X93571664Y-129947509D01*
X93633653Y-129835782D01*
X93661170Y-129791165D01*
X93684823Y-129751784D01*
X93715067Y-129698555D01*
X93749946Y-129635230D01*
X93787498Y-129565557D01*
X93825767Y-129493287D01*
X93862792Y-129422171D01*
X93896616Y-129355958D01*
X93925279Y-129298398D01*
X93946823Y-129253241D01*
X93959289Y-129224238D01*
X93961600Y-129215984D01*
X93950142Y-129208245D01*
X93918781Y-129195230D01*
X93872044Y-129178629D01*
X93814453Y-129160132D01*
X93802087Y-129156372D01*
X93642574Y-129108306D01*
X93398862Y-129113828D01*
X93256309Y-129115327D01*
X93133754Y-129112986D01*
X93032156Y-129106903D01*
X92952474Y-129097173D01*
X92895666Y-129083893D01*
X92862692Y-129067160D01*
X92856325Y-129059399D01*
X92852439Y-129049800D01*
X92855348Y-129043297D01*
X92868740Y-129039392D01*
X92896305Y-129037584D01*
X92941730Y-129037374D01*
X93008705Y-129038264D01*
X93012066Y-129038318D01*
X93091600Y-129038680D01*
X93156287Y-129036145D01*
X93216510Y-129029679D01*
X93282649Y-129018248D01*
X93345650Y-129005081D01*
X93430991Y-128987323D01*
X93499006Y-128975877D01*
X93556904Y-128970477D01*
X93611892Y-128970859D01*
X93671178Y-128976756D01*
X93741971Y-128987904D01*
X93754186Y-128990041D01*
X93810253Y-128998883D01*
X93858285Y-129004535D01*
X93891968Y-129006359D01*
X93903411Y-129005106D01*
X93916026Y-128988504D01*
X93922891Y-128957149D01*
X93923159Y-128921210D01*
X93915981Y-128890858D01*
X93913336Y-128885967D01*
X93886896Y-128864230D01*
X93841224Y-128846771D01*
X93782357Y-128835298D01*
X93720964Y-128831499D01*
X93681640Y-128833237D01*
X93636405Y-128839006D01*
X93581184Y-128849643D01*
X93511904Y-128865981D01*
X93424489Y-128888857D01*
X93374481Y-128902518D01*
X93288434Y-128926145D01*
X93222144Y-128943752D01*
X93170896Y-128956113D01*
X93129973Y-128964005D01*
X93094661Y-128968204D01*
X93060241Y-128969486D01*
X93022000Y-128968627D01*
X92983700Y-128966831D01*
X92918072Y-128962570D01*
X92869755Y-128956393D01*
X92830663Y-128946594D01*
X92792708Y-128931468D01*
X92774249Y-128922669D01*
X92698147Y-128885212D01*
X92747225Y-128864706D01*
X92780420Y-128851868D01*
X92803691Y-128844725D01*
X92807451Y-128844200D01*
X92817004Y-128833691D01*
X92818792Y-128821975D01*
X92822964Y-128796205D01*
X92833108Y-128759596D01*
X92836633Y-128749031D01*
X92846841Y-128704446D01*
X92842873Y-128676992D01*
X92840188Y-128659334D01*
X92855668Y-128641850D01*
X92872656Y-128630583D01*
X92908961Y-128610147D01*
X92964291Y-128581168D01*
X93034574Y-128545673D01*
X93115738Y-128505683D01*
X93203711Y-128463225D01*
X93294420Y-128420323D01*
X93313900Y-128411230D01*
X93393899Y-128372639D01*
X93455873Y-128338535D01*
X93505553Y-128304415D01*
X93548670Y-128265777D01*
X93590956Y-128218120D01*
X93638141Y-128156941D01*
X93638876Y-128155951D01*
X93676185Y-128107250D01*
X93709312Y-128069126D01*
X93744219Y-128036152D01*
X93786869Y-128002900D01*
X93843224Y-127963945D01*
X93867670Y-127947708D01*
X93940713Y-127901375D01*
X94013613Y-127858541D01*
X94082244Y-127821331D01*
X94142481Y-127791874D01*
X94190201Y-127772296D01*
X94221277Y-127764725D01*
X94222532Y-127764699D01*
X94236566Y-127759593D01*
X94239034Y-127739996D01*
X94236735Y-127723425D01*
X94222656Y-127600515D01*
X94226143Y-127491636D01*
X94247956Y-127391778D01*
X94288853Y-127295931D01*
X94306011Y-127265426D01*
X94332587Y-127223576D01*
X94356618Y-127190807D01*
X94373679Y-127173043D01*
X94376002Y-127171758D01*
X94393230Y-127172245D01*
X94412423Y-127188410D01*
X94435622Y-127222823D01*
X94464869Y-127278053D01*
X94471995Y-127292588D01*
X94510997Y-127372927D01*
X94458696Y-127483088D01*
X94429586Y-127548175D01*
X94399709Y-127621100D01*
X94374651Y-127688107D01*
X94370479Y-127700274D01*
X94334562Y-127807299D01*
X94266609Y-127830398D01*
X94197375Y-127856953D01*
X94127590Y-127888943D01*
X94063542Y-127923037D01*
X94011516Y-127955903D01*
X93979234Y-127982659D01*
X93942550Y-128021529D01*
X93980650Y-128014065D01*
X94010533Y-128009074D01*
X94057241Y-128002224D01*
X94112386Y-127994727D01*
X94133050Y-127992057D01*
X94208496Y-127979469D01*
X94272184Y-127960852D01*
X94337684Y-127932157D01*
X94343515Y-127929251D01*
X94439680Y-127880989D01*
X94473897Y-127749819D01*
X94508230Y-127638431D01*
X94551326Y-127530645D01*
X94600556Y-127431642D01*
X94653291Y-127346604D01*
X94706903Y-127280714D01*
X94716844Y-127270907D01*
X94752495Y-127239692D01*
X94781150Y-127219272D01*
X94797975Y-127212982D01*
X94799604Y-127213820D01*
X94806706Y-127230073D01*
X94817787Y-127265572D01*
X94831231Y-127314791D01*
X94843118Y-127362491D01*
X94867438Y-127490129D01*
X94875431Y-127600718D01*
X94867137Y-127693570D01*
X94842596Y-127767997D01*
X94816717Y-127807651D01*
X94785714Y-127844496D01*
X94795893Y-127807773D01*
X94802884Y-127768059D01*
X94805121Y-127726600D01*
X94803091Y-127682080D01*
X94799040Y-127626952D01*
X94793656Y-127567955D01*
X94787623Y-127511826D01*
X94781631Y-127465305D01*
X94776364Y-127435128D01*
X94774878Y-127429837D01*
X94768573Y-127427339D01*
X94756212Y-127441114D01*
X94736798Y-127472820D01*
X94709336Y-127524117D01*
X94672828Y-127596663D01*
X94664295Y-127613987D01*
X94622935Y-127698582D01*
X94591993Y-127763844D01*
X94570603Y-127813195D01*
X94557897Y-127850056D01*
X94553007Y-127877848D01*
X94555066Y-127899994D01*
X94563207Y-127919916D01*
X94576561Y-127941034D01*
X94580089Y-127946146D01*
X94598857Y-127976807D01*
X94610294Y-128007654D01*
X94616614Y-128047256D01*
X94619868Y-128100147D01*
X94620206Y-128153657D01*
X94617255Y-128201543D01*
X94611634Y-128234762D01*
X94610394Y-128238466D01*
X94584112Y-128272751D01*
X94534416Y-128302213D01*
X94462934Y-128326281D01*
X94371294Y-128344381D01*
X94279928Y-128354557D01*
X94233751Y-128358831D01*
X94198529Y-128363227D01*
X94180948Y-128366888D01*
X94180240Y-128367327D01*
X94187697Y-128375280D01*
X94212385Y-128390665D01*
X94242841Y-128406982D01*
X94300070Y-128437688D01*
X94362857Y-128474142D01*
X94425361Y-128512659D01*
X94481739Y-128549557D01*
X94526148Y-128581152D01*
X94548975Y-128599986D01*
X94570224Y-128626271D01*
X94581392Y-128658282D01*
X94582671Y-128700603D01*
X94574254Y-128757815D01*
X94558426Y-128826293D01*
X94533685Y-128910291D01*
X94505674Y-128982344D01*
X94476127Y-129039091D01*
X94446772Y-129077170D01*
X94421203Y-129092872D01*
X94374942Y-129104677D01*
X94319459Y-129121242D01*
X94263450Y-129139713D01*
X94215613Y-129157238D01*
X94186980Y-129169715D01*
X94139916Y-129199522D01*
X94113238Y-129233050D01*
X94102207Y-129277743D01*
X94101080Y-129304575D01*
X94096678Y-129370564D01*
X94085180Y-129442353D01*
X94068547Y-129511103D01*
X94048743Y-129567980D01*
X94037623Y-129590303D01*
X94022560Y-129619421D01*
X94016727Y-129638281D01*
X94017412Y-129640844D01*
X94034840Y-129642061D01*
X94068366Y-129632272D01*
X94112686Y-129614153D01*
X94162498Y-129590379D01*
X94212499Y-129563626D01*
X94257386Y-129536570D01*
X94291857Y-129511886D01*
X94310067Y-129493167D01*
X94325574Y-129480022D01*
X94329841Y-129479200D01*
X94335208Y-129489916D01*
X94331145Y-129519217D01*
X94319294Y-129562825D01*
X94301297Y-129616464D01*
X94278797Y-129675860D01*
X94253436Y-129736735D01*
X94226858Y-129794815D01*
X94200704Y-129845824D01*
X94176617Y-129885485D01*
X94170543Y-129893875D01*
X94138625Y-129935721D01*
X94167588Y-129942190D01*
X94194400Y-129948165D01*
X94236810Y-129957601D01*
X94285450Y-129968414D01*
X94357922Y-129987633D01*
X94416808Y-130009473D01*
X94458697Y-130032295D01*
X94480182Y-130054461D01*
X94482300Y-130063055D01*
X94470749Y-130090694D01*
X94437654Y-130125183D01*
X94385353Y-130164726D01*
X94316187Y-130207524D01*
X94244357Y-130245886D01*
X94126088Y-130310320D01*
X94029875Y-130374755D01*
X93952541Y-130442081D01*
X93890905Y-130515186D01*
X93841790Y-130596960D01*
X93829211Y-130623198D01*
X93805407Y-130689228D01*
X93786180Y-130768440D01*
X93774074Y-130848697D01*
X93771196Y-130899923D01*
X93771100Y-130942696D01*
X93818725Y-130884212D01*
X93903583Y-130796683D01*
X94009044Y-130715121D01*
X94130555Y-130641986D01*
X94263562Y-130579739D01*
X94403513Y-130530841D01*
X94527863Y-130500982D01*
X94575681Y-130493957D01*
X94635660Y-130488003D01*
X94702754Y-130483287D01*
X94771915Y-130479972D01*
X94838095Y-130478226D01*
X94896248Y-130478214D01*
X94941325Y-130480102D01*
X94968280Y-130484054D01*
X94972989Y-130486376D01*
X95555924Y-130486376D01*
X95591515Y-130474763D01*
X95634091Y-130456916D01*
X95673599Y-130440188D01*
X95702215Y-130430333D01*
X95714141Y-130429325D01*
X95714200Y-130429649D01*
X95706902Y-130448048D01*
X95686138Y-130484333D01*
X95653605Y-130536013D01*
X95611001Y-130600596D01*
X95560022Y-130675592D01*
X95502366Y-130758507D01*
X95439728Y-130846852D01*
X95373807Y-130938135D01*
X95306300Y-131029863D01*
X95295582Y-131044258D01*
X95208450Y-131161081D01*
X95369250Y-131267828D01*
X95432058Y-131310346D01*
X95493192Y-131353191D01*
X95546698Y-131392093D01*
X95586623Y-131422781D01*
X95595135Y-131429810D01*
X95616332Y-131449155D01*
X95653552Y-131484640D01*
X95704897Y-131534400D01*
X95768473Y-131596573D01*
X95842382Y-131669295D01*
X95924730Y-131750703D01*
X96013619Y-131838933D01*
X96107153Y-131932121D01*
X96160285Y-131985209D01*
X96294366Y-132118860D01*
X96412400Y-132235446D01*
X96515859Y-132336292D01*
X96606218Y-132422722D01*
X96684952Y-132496058D01*
X96753533Y-132557626D01*
X96813438Y-132608749D01*
X96866138Y-132650751D01*
X96913110Y-132684955D01*
X96955826Y-132712687D01*
X96994971Y-132734855D01*
X97126708Y-132791475D01*
X97272584Y-132832043D01*
X97426616Y-132856009D01*
X97582825Y-132862823D01*
X97735227Y-132851936D01*
X97877841Y-132822798D01*
X97895517Y-132817590D01*
X98025231Y-132767338D01*
X98148760Y-132699293D01*
X98260092Y-132617343D01*
X98353210Y-132525374D01*
X98359941Y-132517402D01*
X98432712Y-132413799D01*
X98497603Y-132288620D01*
X98553618Y-132144741D01*
X98599765Y-131985034D01*
X98635049Y-131812373D01*
X98642304Y-131758657D01*
X97602248Y-131758657D01*
X97599514Y-131782264D01*
X97587387Y-131807761D01*
X97573184Y-131810806D01*
X97566462Y-131812222D01*
X97561651Y-131824553D01*
X97558461Y-131850980D01*
X97556607Y-131894680D01*
X97555801Y-131958833D01*
X97555700Y-132004358D01*
X97556450Y-132075180D01*
X97558528Y-132136186D01*
X97561680Y-132182960D01*
X97565650Y-132211084D01*
X97567985Y-132216904D01*
X97574754Y-132236824D01*
X97571033Y-132262546D01*
X97559789Y-132282023D01*
X97551044Y-132285711D01*
X97533649Y-132277938D01*
X97505380Y-132258346D01*
X97488006Y-132244360D01*
X97458859Y-132217261D01*
X97446513Y-132196500D01*
X97446819Y-132174055D01*
X97448298Y-132167591D01*
X97460439Y-132141843D01*
X97474717Y-132138693D01*
X97487217Y-132135977D01*
X97492014Y-132112653D01*
X97492200Y-132103069D01*
X97489142Y-132077164D01*
X97476883Y-132054673D01*
X97450795Y-132029041D01*
X97425525Y-132008601D01*
X97358850Y-131956467D01*
X97337506Y-131984453D01*
X97325293Y-132007926D01*
X97328473Y-132020048D01*
X97332643Y-132035165D01*
X97328266Y-132060729D01*
X97318694Y-132084791D01*
X97307327Y-132095400D01*
X97294056Y-132087978D01*
X97267892Y-132068831D01*
X97244442Y-132050181D01*
X97213268Y-132023308D01*
X97198642Y-132004499D01*
X97196876Y-131986472D01*
X97202413Y-131967224D01*
X97213669Y-131942558D01*
X97225458Y-131939082D01*
X97233773Y-131944595D01*
X97253827Y-131952289D01*
X97261794Y-131948176D01*
X97273881Y-131934361D01*
X97298861Y-131906049D01*
X97332760Y-131867739D01*
X97361737Y-131835050D01*
X97403796Y-131786139D01*
X97430299Y-131751006D01*
X97443801Y-131725623D01*
X97446858Y-131705961D01*
X97446331Y-131701700D01*
X97446484Y-131670228D01*
X97452716Y-131651904D01*
X97462742Y-131643277D01*
X97477888Y-131645101D01*
X97501902Y-131659333D01*
X97538535Y-131687929D01*
X97566156Y-131711115D01*
X97592800Y-131737070D01*
X97602248Y-131758657D01*
X98642304Y-131758657D01*
X98655088Y-131664012D01*
X98663736Y-131581875D01*
X98748115Y-131670362D01*
X98799920Y-131726385D01*
X98835407Y-131771264D01*
X98856807Y-131811207D01*
X98866352Y-131852421D01*
X99086530Y-131852421D01*
X99083977Y-131845247D01*
X99016032Y-131704945D01*
X98931966Y-131567722D01*
X98834161Y-131438005D01*
X98742502Y-131337455D01*
X98724750Y-131320609D01*
X97902619Y-131320609D01*
X97901606Y-131334641D01*
X97892820Y-131366734D01*
X97878247Y-131411500D01*
X97859876Y-131463550D01*
X97839692Y-131517496D01*
X97819685Y-131567948D01*
X97801840Y-131609520D01*
X97788146Y-131636821D01*
X97783606Y-131643301D01*
X97769986Y-131640879D01*
X97743026Y-131625398D01*
X97708049Y-131601023D01*
X97670382Y-131571919D01*
X97635350Y-131542253D01*
X97608278Y-131516190D01*
X97594492Y-131497897D01*
X97593738Y-131494777D01*
X97597751Y-131474554D01*
X97608034Y-131440273D01*
X97615193Y-131419413D01*
X97626481Y-131384327D01*
X97631695Y-131360601D01*
X97631131Y-131355054D01*
X97619546Y-131346014D01*
X97591956Y-131324461D01*
X97552368Y-131293525D01*
X97504787Y-131256337D01*
X97499851Y-131252479D01*
X97374152Y-131154225D01*
X97294970Y-131393037D01*
X97262973Y-131486952D01*
X97225916Y-131591574D01*
X97187306Y-131697244D01*
X97150652Y-131794305D01*
X97130534Y-131845706D01*
X97100403Y-131921718D01*
X97078923Y-131977640D01*
X97065169Y-132016909D01*
X97058221Y-132042962D01*
X97057155Y-132059236D01*
X97061048Y-132069168D01*
X97068716Y-132076012D01*
X97096615Y-132096704D01*
X97121427Y-132116205D01*
X97150704Y-132139950D01*
X97105873Y-132238325D01*
X97084675Y-132282892D01*
X97066795Y-132316930D01*
X97055117Y-132335082D01*
X97052912Y-132336700D01*
X97040831Y-132329148D01*
X97012323Y-132308191D01*
X96970726Y-132276379D01*
X96919380Y-132236259D01*
X96869457Y-132196645D01*
X96694132Y-132056591D01*
X96733412Y-131958520D01*
X96751908Y-131912903D01*
X96766806Y-131877202D01*
X96775636Y-131857302D01*
X96776795Y-131855209D01*
X96788503Y-131858700D01*
X96813470Y-131873539D01*
X96828140Y-131883583D01*
X96858130Y-131901695D01*
X96879820Y-131908958D01*
X96884928Y-131907652D01*
X96895041Y-131889437D01*
X96911347Y-131850383D01*
X96932703Y-131793966D01*
X96957969Y-131723666D01*
X96986000Y-131642961D01*
X97015656Y-131555328D01*
X97045793Y-131464245D01*
X97075270Y-131373191D01*
X97102945Y-131285644D01*
X97113534Y-131251146D01*
X96994081Y-131251146D01*
X96992642Y-131263330D01*
X96984379Y-131288479D01*
X96968903Y-131313137D01*
X96953604Y-131316549D01*
X96942181Y-131324752D01*
X96924879Y-131351849D01*
X96903873Y-131392650D01*
X96881340Y-131441960D01*
X96859456Y-131494588D01*
X96840399Y-131545340D01*
X96826345Y-131589024D01*
X96819470Y-131620447D01*
X96820762Y-131633480D01*
X96825441Y-131657099D01*
X96819439Y-131681760D01*
X96806531Y-131715710D01*
X96749316Y-131676344D01*
X96717712Y-131653084D01*
X96697008Y-131634935D01*
X96692274Y-131628064D01*
X96698428Y-131594725D01*
X96712409Y-131571101D01*
X96727380Y-131564970D01*
X96740773Y-131557943D01*
X96758260Y-131531485D01*
X96780997Y-131483630D01*
X96795653Y-131448716D01*
X96815690Y-131398511D01*
X96831053Y-131357995D01*
X96839858Y-131332262D01*
X96841110Y-131325776D01*
X96831037Y-131332397D01*
X96806471Y-131352890D01*
X96771475Y-131383781D01*
X96742727Y-131409931D01*
X96702012Y-131446626D01*
X96668007Y-131475858D01*
X96645112Y-131493926D01*
X96638125Y-131497947D01*
X96634368Y-131486313D01*
X96631309Y-131454283D01*
X96629278Y-131406857D01*
X96628600Y-131353199D01*
X96627761Y-131295084D01*
X96625479Y-131246876D01*
X96622114Y-131213895D01*
X96618406Y-131201598D01*
X96610450Y-131210105D01*
X96597149Y-131238077D01*
X96580609Y-131280698D01*
X96568733Y-131315148D01*
X96553237Y-131365459D01*
X96542991Y-131405370D01*
X96539175Y-131429808D01*
X96540828Y-131435000D01*
X96550448Y-131445091D01*
X96550925Y-131468404D01*
X96542341Y-131494491D01*
X96540332Y-131497913D01*
X96525392Y-131507750D01*
X96500565Y-131501718D01*
X96462800Y-131478733D01*
X96440598Y-131462436D01*
X96420607Y-131442317D01*
X96419702Y-131419941D01*
X96424316Y-131406101D01*
X96439623Y-131382015D01*
X96454685Y-131378661D01*
X96465556Y-131370391D01*
X96480128Y-131342642D01*
X96496801Y-131300775D01*
X96513970Y-131250152D01*
X96530034Y-131196134D01*
X96543390Y-131144082D01*
X96552437Y-131099358D01*
X96555571Y-131067321D01*
X96551823Y-131053643D01*
X96541831Y-131037870D01*
X96546092Y-131007649D01*
X96547074Y-131004265D01*
X96558750Y-130965039D01*
X96615900Y-131002976D01*
X96646166Y-131025879D01*
X96667057Y-131050874D01*
X96680307Y-131083144D01*
X96687649Y-131127870D01*
X96690817Y-131190235D01*
X96691369Y-131228625D01*
X96692963Y-131273309D01*
X96696493Y-131306035D01*
X96701236Y-131320491D01*
X96701898Y-131320700D01*
X96715120Y-131312703D01*
X96742060Y-131291346D01*
X96777844Y-131260575D01*
X96793973Y-131246125D01*
X96876250Y-131171551D01*
X96933400Y-131210084D01*
X96965677Y-131231870D01*
X96987963Y-131246962D01*
X96994081Y-131251146D01*
X97113534Y-131251146D01*
X97127675Y-131205082D01*
X97148318Y-131134982D01*
X97163731Y-131078823D01*
X97172773Y-131040083D01*
X97174700Y-131025295D01*
X97164999Y-131009920D01*
X97139338Y-130984473D01*
X97102885Y-130952982D01*
X97060808Y-130919477D01*
X97018274Y-130887987D01*
X96980451Y-130862540D01*
X96952504Y-130847165D01*
X96942759Y-130844450D01*
X96931397Y-130855621D01*
X96919152Y-130883934D01*
X96914043Y-130901600D01*
X96903305Y-130935519D01*
X96889521Y-130952569D01*
X96868716Y-130952758D01*
X96836912Y-130936094D01*
X96790135Y-130902587D01*
X96789168Y-130901857D01*
X96749937Y-130870167D01*
X96729014Y-130847016D01*
X96722848Y-130828008D01*
X96723672Y-130820788D01*
X96728133Y-130798010D01*
X96735857Y-130756216D01*
X96745748Y-130701413D01*
X96756422Y-130641250D01*
X96766911Y-130582518D01*
X96775899Y-130533861D01*
X96782456Y-130500184D01*
X96785655Y-130486395D01*
X96785707Y-130486319D01*
X96798089Y-130491044D01*
X96828319Y-130509682D01*
X96874175Y-130540573D01*
X96933439Y-130582059D01*
X97003890Y-130632481D01*
X97083307Y-130690182D01*
X97169470Y-130753502D01*
X97260160Y-130820783D01*
X97353154Y-130890367D01*
X97446235Y-130960596D01*
X97537180Y-131029810D01*
X97623770Y-131096351D01*
X97703784Y-131158561D01*
X97775003Y-131214781D01*
X97835205Y-131263353D01*
X97882171Y-131302619D01*
X97902619Y-131320609D01*
X98724750Y-131320609D01*
X98684631Y-131282539D01*
X98623980Y-131231774D01*
X98557137Y-131182987D01*
X98480687Y-131134008D01*
X98391215Y-131082667D01*
X98285308Y-131026794D01*
X98159551Y-130964216D01*
X98142079Y-130955724D01*
X98045678Y-130908408D01*
X97959967Y-130864859D01*
X97880644Y-130822560D01*
X97803409Y-130778995D01*
X97723960Y-130731646D01*
X97637998Y-130677996D01*
X97541221Y-130615530D01*
X97429328Y-130541729D01*
X97390626Y-130515973D01*
X97202283Y-130379712D01*
X97037599Y-130237570D01*
X96895275Y-130088377D01*
X96838427Y-130018950D01*
X96794430Y-129961630D01*
X96764147Y-129919262D01*
X96745073Y-129887247D01*
X96734706Y-129860987D01*
X96730541Y-129835883D01*
X96729980Y-129819759D01*
X96724177Y-129757656D01*
X96709074Y-129683595D01*
X96687308Y-129608043D01*
X96661514Y-129541465D01*
X96658064Y-129534144D01*
X96642259Y-129508233D01*
X96209500Y-129508233D01*
X96209500Y-129584275D01*
X96145732Y-129524627D01*
X96102906Y-129488868D01*
X96057831Y-129458121D01*
X96017354Y-129436570D01*
X95988324Y-129428400D01*
X95988222Y-129428400D01*
X95988535Y-129438952D01*
X95996405Y-129465696D01*
X96002394Y-129482375D01*
X96013066Y-129525013D01*
X96020234Y-129582164D01*
X96023714Y-129645970D01*
X96023321Y-129708573D01*
X96018870Y-129762115D01*
X96010176Y-129798736D01*
X96009852Y-129799480D01*
X95994529Y-129834011D01*
X95908340Y-129800816D01*
X95835098Y-129778610D01*
X95762109Y-129767078D01*
X95695720Y-129766523D01*
X95642276Y-129777248D01*
X95622073Y-129787143D01*
X95597888Y-129808831D01*
X95566966Y-129844418D01*
X95535975Y-129886226D01*
X95535783Y-129886509D01*
X95442540Y-130007192D01*
X95342971Y-130104224D01*
X95237574Y-130177282D01*
X95126852Y-130226045D01*
X95011303Y-130250191D01*
X94966429Y-130252841D01*
X94910808Y-130253900D01*
X94994752Y-130169955D01*
X95064208Y-130089289D01*
X95115307Y-130005871D01*
X95146679Y-129923043D01*
X95156950Y-129844144D01*
X95150358Y-129791038D01*
X95133268Y-129765765D01*
X95102056Y-129756905D01*
X95061444Y-129763840D01*
X95016154Y-129785954D01*
X94980775Y-129813200D01*
X94952200Y-129839227D01*
X94952200Y-129809273D01*
X94963278Y-129757629D01*
X94994032Y-129700242D01*
X95040744Y-129641263D01*
X95099693Y-129584838D01*
X95167161Y-129535117D01*
X95228317Y-129501276D01*
X95326033Y-129468249D01*
X95433198Y-129454035D01*
X95541677Y-129459119D01*
X95624755Y-129477664D01*
X95666208Y-129490288D01*
X95696558Y-129498638D01*
X95709335Y-129500935D01*
X95709362Y-129500911D01*
X95707034Y-129488498D01*
X95698433Y-129458495D01*
X95685415Y-129417375D01*
X95685300Y-129417026D01*
X95644925Y-129332351D01*
X95582984Y-129253730D01*
X95503238Y-129185291D01*
X95437443Y-129144919D01*
X95386112Y-129114346D01*
X95348548Y-129084701D01*
X95332496Y-129065064D01*
X95323744Y-129037023D01*
X95317632Y-128995636D01*
X95314515Y-128949107D01*
X95314751Y-128905642D01*
X95318699Y-128873449D01*
X95323658Y-128862208D01*
X95339371Y-128861362D01*
X95371998Y-128867764D01*
X95414561Y-128880036D01*
X95415769Y-128880431D01*
X95467030Y-128894125D01*
X95520867Y-128903480D01*
X95570440Y-128907874D01*
X95608909Y-128906688D01*
X95628989Y-128899777D01*
X95624349Y-128888810D01*
X95603484Y-128870195D01*
X95589831Y-128860503D01*
X95539402Y-128821677D01*
X95481020Y-128768383D01*
X95419065Y-128705516D01*
X95357917Y-128637967D01*
X95301953Y-128570629D01*
X95255553Y-128508394D01*
X95223096Y-128456156D01*
X95217177Y-128444150D01*
X95202785Y-128399034D01*
X95194433Y-128346869D01*
X95193629Y-128329850D01*
X95182598Y-128232665D01*
X95150371Y-128126981D01*
X95112188Y-128041376D01*
X95091579Y-127998627D01*
X95076991Y-127965573D01*
X95070881Y-127947876D01*
X95071019Y-127946448D01*
X95082665Y-127950807D01*
X95107863Y-127966486D01*
X95126193Y-127979302D01*
X95168076Y-128018363D01*
X95213849Y-128075669D01*
X95259536Y-128145314D01*
X95301160Y-128221393D01*
X95326100Y-128276160D01*
X95355670Y-128335517D01*
X95393285Y-128385972D01*
X95443105Y-128431322D01*
X95509292Y-128475367D01*
X95594468Y-128521136D01*
X95657180Y-128553262D01*
X95698134Y-128576358D01*
X95718848Y-128591566D01*
X95720841Y-128600026D01*
X95705629Y-128602879D01*
X95703289Y-128602900D01*
X95670932Y-128606932D01*
X95657517Y-128610828D01*
X95644914Y-128618585D01*
X95652410Y-128629288D01*
X95662641Y-128636817D01*
X95679231Y-128654067D01*
X95705801Y-128688041D01*
X95738803Y-128733962D01*
X95774688Y-128787058D01*
X95777718Y-128791688D01*
X95813533Y-128845595D01*
X95843992Y-128887600D01*
X95873723Y-128922147D01*
X95907354Y-128953681D01*
X95949510Y-128986647D01*
X96004820Y-129025489D01*
X96059466Y-129062319D01*
X96110876Y-129100502D01*
X96148530Y-129136200D01*
X96168852Y-129165759D01*
X96171400Y-129176712D01*
X96159693Y-129181434D01*
X96128536Y-129185802D01*
X96083877Y-129189068D01*
X96067635Y-129189761D01*
X95963869Y-129193450D01*
X96048584Y-129235938D01*
X96117478Y-129277999D01*
X96165197Y-129326589D01*
X96194430Y-129386258D01*
X96207865Y-129461556D01*
X96209500Y-129508233D01*
X96642259Y-129508233D01*
X96622445Y-129475750D01*
X96569006Y-129409084D01*
X96524234Y-129361341D01*
X96474085Y-129308484D01*
X96440503Y-129266893D01*
X96420156Y-129232046D01*
X96411923Y-129208941D01*
X96396133Y-129157530D01*
X96376212Y-129110620D01*
X96349707Y-129065120D01*
X96314166Y-129017943D01*
X96267136Y-128965999D01*
X96206166Y-128906200D01*
X96128801Y-128835456D01*
X96083412Y-128795198D01*
X96029632Y-128742012D01*
X95989524Y-128686406D01*
X95962443Y-128635041D01*
X95932269Y-128575467D01*
X95902519Y-128528235D01*
X95868201Y-128487967D01*
X95824324Y-128449286D01*
X95765898Y-128406816D01*
X95725418Y-128379672D01*
X95626404Y-128307096D01*
X95546405Y-128230654D01*
X95479211Y-128143508D01*
X95422390Y-128046141D01*
X95360172Y-127944587D01*
X95290480Y-127865852D01*
X95211429Y-127807977D01*
X95175491Y-127789649D01*
X95095926Y-127753572D01*
X95081683Y-127598665D01*
X95075268Y-127537081D01*
X95067475Y-127483658D01*
X95056770Y-127431968D01*
X95041624Y-127375579D01*
X95020506Y-127308061D01*
X94993055Y-127226404D01*
X94966293Y-127148875D01*
X94945879Y-127092157D01*
X94930211Y-127052940D01*
X94917686Y-127027911D01*
X94906700Y-127013759D01*
X94895650Y-127007174D01*
X94885944Y-127005157D01*
X94841389Y-127009060D01*
X94790324Y-127031624D01*
X94730379Y-127074117D01*
X94687554Y-127111172D01*
X94607057Y-127184661D01*
X94518067Y-127087129D01*
X94478370Y-127044882D01*
X94442633Y-127009114D01*
X94415683Y-126984539D01*
X94405004Y-126976712D01*
X94372723Y-126972910D01*
X94334774Y-126990161D01*
G36*
X99505414Y-132957367D02*
G01*
X99489650Y-132985421D01*
X99473747Y-133019541D01*
X99442253Y-133074529D01*
X99393369Y-133137675D01*
X99331634Y-133204317D01*
X99261583Y-133269790D01*
X99187753Y-133329433D01*
X99139528Y-133363096D01*
X99040605Y-133427422D01*
X98988706Y-133409111D01*
X98918595Y-133391334D01*
X98854787Y-133391379D01*
X98793941Y-133410583D01*
X98732714Y-133450283D01*
X98667765Y-133511814D01*
X98632482Y-133551620D01*
X98556444Y-133636979D01*
X98477835Y-133717576D01*
X98402023Y-133788186D01*
X98334375Y-133843582D01*
X98326999Y-133849004D01*
X98301019Y-133871138D01*
X98290124Y-133887566D01*
X98291870Y-133892184D01*
X98318770Y-133900694D01*
X98364827Y-133907125D01*
X98423854Y-133911118D01*
X98489666Y-133912315D01*
X98556077Y-133910358D01*
X98578978Y-133908809D01*
X98711602Y-133888177D01*
X98807479Y-133861127D01*
X98856793Y-133844464D01*
X98895989Y-133831428D01*
X98919624Y-133823820D01*
X98924027Y-133822600D01*
X98927450Y-133831894D01*
X98916644Y-133857202D01*
X98896214Y-133890264D01*
X98865128Y-133936072D01*
X98912089Y-133949115D01*
X98969457Y-133959751D01*
X99026542Y-133957186D01*
X99067000Y-133949155D01*
X99105015Y-133938030D01*
X99148793Y-133920757D01*
X99202684Y-133895336D01*
X99271034Y-133859769D01*
X99323925Y-133831005D01*
X99393715Y-133795527D01*
X99450563Y-133773758D01*
X99501087Y-133763200D01*
X99504900Y-133762781D01*
X99543101Y-133760296D01*
X99568563Y-133761431D01*
X99575000Y-133764508D01*
X99566990Y-133789069D01*
X99546408Y-133823368D01*
X99518425Y-133858970D01*
X99514378Y-133863400D01*
X99482258Y-133897850D01*
X99538154Y-133892023D01*
X99628850Y-133881062D01*
X99698393Y-133868649D01*
X99751033Y-133853378D01*
X99791016Y-133833840D01*
X99822591Y-133808627D01*
X99836914Y-133793026D01*
X99855555Y-133767854D01*
X99864538Y-133743490D01*
X99866097Y-133710327D01*
X99863964Y-133676701D01*
X99852701Y-133610706D01*
X99828174Y-133543825D01*
X99788080Y-133471006D01*
X99735133Y-133393975D01*
X99709374Y-133356908D01*
X99692992Y-133329088D01*
X99688710Y-133315297D01*
X99689957Y-133314600D01*
X99719916Y-133323365D01*
X99761574Y-133347318D01*
X99809442Y-133382947D01*
X99843893Y-133413129D01*
X99875788Y-133441452D01*
X99900008Y-133460144D01*
X99911278Y-133465155D01*
X99912345Y-133448817D01*
X99905365Y-133415657D01*
X99892351Y-133372179D01*
X99875315Y-133324883D01*
X99856269Y-133280273D01*
X99850300Y-133268063D01*
X99811606Y-133206491D01*
X99757243Y-133139427D01*
X99693664Y-133073851D01*
X99627328Y-133016745D01*
X99598593Y-132995872D01*
X99560776Y-132971153D01*
X99531003Y-132953461D01*
X99515552Y-132946519D01*
X99515372Y-132946516D01*
X99505414Y-132957367D01*
G37*
X99505414Y-132957367D02*
X99489650Y-132985421D01*
X99473747Y-133019541D01*
X99442253Y-133074529D01*
X99393369Y-133137675D01*
X99331634Y-133204317D01*
X99261583Y-133269790D01*
X99187753Y-133329433D01*
X99139528Y-133363096D01*
X99040605Y-133427422D01*
X98988706Y-133409111D01*
X98918595Y-133391334D01*
X98854787Y-133391379D01*
X98793941Y-133410583D01*
X98732714Y-133450283D01*
X98667765Y-133511814D01*
X98632482Y-133551620D01*
X98556444Y-133636979D01*
X98477835Y-133717576D01*
X98402023Y-133788186D01*
X98334375Y-133843582D01*
X98326999Y-133849004D01*
X98301019Y-133871138D01*
X98290124Y-133887566D01*
X98291870Y-133892184D01*
X98318770Y-133900694D01*
X98364827Y-133907125D01*
X98423854Y-133911118D01*
X98489666Y-133912315D01*
X98556077Y-133910358D01*
X98578978Y-133908809D01*
X98711602Y-133888177D01*
X98807479Y-133861127D01*
X98856793Y-133844464D01*
X98895989Y-133831428D01*
X98919624Y-133823820D01*
X98924027Y-133822600D01*
X98927450Y-133831894D01*
X98916644Y-133857202D01*
X98896214Y-133890264D01*
X98865128Y-133936072D01*
X98912089Y-133949115D01*
X98969457Y-133959751D01*
X99026542Y-133957186D01*
X99067000Y-133949155D01*
X99105015Y-133938030D01*
X99148793Y-133920757D01*
X99202684Y-133895336D01*
X99271034Y-133859769D01*
X99323925Y-133831005D01*
X99393715Y-133795527D01*
X99450563Y-133773758D01*
X99501087Y-133763200D01*
X99504900Y-133762781D01*
X99543101Y-133760296D01*
X99568563Y-133761431D01*
X99575000Y-133764508D01*
X99566990Y-133789069D01*
X99546408Y-133823368D01*
X99518425Y-133858970D01*
X99514378Y-133863400D01*
X99482258Y-133897850D01*
X99538154Y-133892023D01*
X99628850Y-133881062D01*
X99698393Y-133868649D01*
X99751033Y-133853378D01*
X99791016Y-133833840D01*
X99822591Y-133808627D01*
X99836914Y-133793026D01*
X99855555Y-133767854D01*
X99864538Y-133743490D01*
X99866097Y-133710327D01*
X99863964Y-133676701D01*
X99852701Y-133610706D01*
X99828174Y-133543825D01*
X99788080Y-133471006D01*
X99735133Y-133393975D01*
X99709374Y-133356908D01*
X99692992Y-133329088D01*
X99688710Y-133315297D01*
X99689957Y-133314600D01*
X99719916Y-133323365D01*
X99761574Y-133347318D01*
X99809442Y-133382947D01*
X99843893Y-133413129D01*
X99875788Y-133441452D01*
X99900008Y-133460144D01*
X99911278Y-133465155D01*
X99912345Y-133448817D01*
X99905365Y-133415657D01*
X99892351Y-133372179D01*
X99875315Y-133324883D01*
X99856269Y-133280273D01*
X99850300Y-133268063D01*
X99811606Y-133206491D01*
X99757243Y-133139427D01*
X99693664Y-133073851D01*
X99627328Y-133016745D01*
X99598593Y-132995872D01*
X99560776Y-132971153D01*
X99531003Y-132953461D01*
X99515552Y-132946519D01*
X99515372Y-132946516D01*
X99505414Y-132957367D01*
G36*
X93802900Y-128233613D02*
G01*
X93789948Y-128239914D01*
X93751032Y-128277980D01*
X93734993Y-128324943D01*
X93735393Y-128346353D01*
X93743164Y-128371591D01*
X93764010Y-128381586D01*
X93777450Y-128382950D01*
X93810211Y-128380341D01*
X93855524Y-128371213D01*
X93891750Y-128361130D01*
X93939232Y-128346786D01*
X93982729Y-128334792D01*
X94005931Y-128329245D01*
X94043911Y-128321482D01*
X93999581Y-128284890D01*
X93952428Y-128255291D01*
X93898734Y-128235763D01*
X93846293Y-128227980D01*
X93802900Y-128233613D01*
G37*
X93802900Y-128233613D02*
X93789948Y-128239914D01*
X93751032Y-128277980D01*
X93734993Y-128324943D01*
X93735393Y-128346353D01*
X93743164Y-128371591D01*
X93764010Y-128381586D01*
X93777450Y-128382950D01*
X93810211Y-128380341D01*
X93855524Y-128371213D01*
X93891750Y-128361130D01*
X93939232Y-128346786D01*
X93982729Y-128334792D01*
X94005931Y-128329245D01*
X94043911Y-128321482D01*
X93999581Y-128284890D01*
X93952428Y-128255291D01*
X93898734Y-128235763D01*
X93846293Y-128227980D01*
X93802900Y-128233613D01*
G36*
X97416020Y-131896933D02*
G01*
X97443624Y-131926316D01*
X97468260Y-131949068D01*
X97483066Y-131951681D01*
X97490295Y-131932464D01*
X97492200Y-131889823D01*
X97492200Y-131823947D01*
X97416020Y-131896933D01*
G37*
X97416020Y-131896933D02*
X97443624Y-131926316D01*
X97468260Y-131949068D01*
X97483066Y-131951681D01*
X97490295Y-131932464D01*
X97492200Y-131889823D01*
X97492200Y-131823947D01*
X97416020Y-131896933D01*
D10*
X94237142Y-105733333D02*
X94284761Y-105685714D01*
X94332380Y-105542857D01*
X94332380Y-105447619D01*
X94284761Y-105304761D01*
X94189523Y-105209523D01*
X94094285Y-105161904D01*
X93903809Y-105114285D01*
X93760952Y-105114285D01*
X93570476Y-105161904D01*
X93475238Y-105209523D01*
X93380000Y-105304761D01*
X93332380Y-105447619D01*
X93332380Y-105542857D01*
X93380000Y-105685714D01*
X93427619Y-105733333D01*
X93332380Y-106066666D02*
X93332380Y-106733333D01*
X94332380Y-106304761D01*
X98187142Y-109833333D02*
X98234761Y-109785714D01*
X98282380Y-109642857D01*
X98282380Y-109547619D01*
X98234761Y-109404761D01*
X98139523Y-109309523D01*
X98044285Y-109261904D01*
X97853809Y-109214285D01*
X97710952Y-109214285D01*
X97520476Y-109261904D01*
X97425238Y-109309523D01*
X97330000Y-109404761D01*
X97282380Y-109547619D01*
X97282380Y-109642857D01*
X97330000Y-109785714D01*
X97377619Y-109833333D01*
X97282380Y-110738095D02*
X97282380Y-110261904D01*
X97758571Y-110214285D01*
X97710952Y-110261904D01*
X97663333Y-110357142D01*
X97663333Y-110595238D01*
X97710952Y-110690476D01*
X97758571Y-110738095D01*
X97853809Y-110785714D01*
X98091904Y-110785714D01*
X98187142Y-110738095D01*
X98234761Y-110690476D01*
X98282380Y-110595238D01*
X98282380Y-110357142D01*
X98234761Y-110261904D01*
X98187142Y-110214285D01*
X90807142Y-103333333D02*
X90854761Y-103285714D01*
X90902380Y-103142857D01*
X90902380Y-103047619D01*
X90854761Y-102904761D01*
X90759523Y-102809523D01*
X90664285Y-102761904D01*
X90473809Y-102714285D01*
X90330952Y-102714285D01*
X90140476Y-102761904D01*
X90045238Y-102809523D01*
X89950000Y-102904761D01*
X89902380Y-103047619D01*
X89902380Y-103142857D01*
X89950000Y-103285714D01*
X89997619Y-103333333D01*
X90330952Y-103904761D02*
X90283333Y-103809523D01*
X90235714Y-103761904D01*
X90140476Y-103714285D01*
X90092857Y-103714285D01*
X89997619Y-103761904D01*
X89950000Y-103809523D01*
X89902380Y-103904761D01*
X89902380Y-104095238D01*
X89950000Y-104190476D01*
X89997619Y-104238095D01*
X90092857Y-104285714D01*
X90140476Y-104285714D01*
X90235714Y-104238095D01*
X90283333Y-104190476D01*
X90330952Y-104095238D01*
X90330952Y-103904761D01*
X90378571Y-103809523D01*
X90426190Y-103761904D01*
X90521428Y-103714285D01*
X90711904Y-103714285D01*
X90807142Y-103761904D01*
X90854761Y-103809523D01*
X90902380Y-103904761D01*
X90902380Y-104095238D01*
X90854761Y-104190476D01*
X90807142Y-104238095D01*
X90711904Y-104285714D01*
X90521428Y-104285714D01*
X90426190Y-104238095D01*
X90378571Y-104190476D01*
X90330952Y-104095238D01*
X99707142Y-109883333D02*
X99754761Y-109835714D01*
X99802380Y-109692857D01*
X99802380Y-109597619D01*
X99754761Y-109454761D01*
X99659523Y-109359523D01*
X99564285Y-109311904D01*
X99373809Y-109264285D01*
X99230952Y-109264285D01*
X99040476Y-109311904D01*
X98945238Y-109359523D01*
X98850000Y-109454761D01*
X98802380Y-109597619D01*
X98802380Y-109692857D01*
X98850000Y-109835714D01*
X98897619Y-109883333D01*
X98802380Y-110740476D02*
X98802380Y-110550000D01*
X98850000Y-110454761D01*
X98897619Y-110407142D01*
X99040476Y-110311904D01*
X99230952Y-110264285D01*
X99611904Y-110264285D01*
X99707142Y-110311904D01*
X99754761Y-110359523D01*
X99802380Y-110454761D01*
X99802380Y-110645238D01*
X99754761Y-110740476D01*
X99707142Y-110788095D01*
X99611904Y-110835714D01*
X99373809Y-110835714D01*
X99278571Y-110788095D01*
X99230952Y-110740476D01*
X99183333Y-110645238D01*
X99183333Y-110454761D01*
X99230952Y-110359523D01*
X99278571Y-110311904D01*
X99373809Y-110264285D01*
%LPC*%
G36*
G01*
X92675000Y-105450000D02*
X91725000Y-105450000D01*
G75*
G02*
X91475000Y-105200000I0J250000D01*
G01*
X91475000Y-104700000D01*
G75*
G02*
X91725000Y-104450000I250000J0D01*
G01*
X92675000Y-104450000D01*
G75*
G02*
X92925000Y-104700000I0J-250000D01*
G01*
X92925000Y-105200000D01*
G75*
G02*
X92675000Y-105450000I-250000J0D01*
G01*
G37*
G36*
G01*
X92675000Y-107350000D02*
X91725000Y-107350000D01*
G75*
G02*
X91475000Y-107100000I0J250000D01*
G01*
X91475000Y-106600000D01*
G75*
G02*
X91725000Y-106350000I250000J0D01*
G01*
X92675000Y-106350000D01*
G75*
G02*
X92925000Y-106600000I0J-250000D01*
G01*
X92925000Y-107100000D01*
G75*
G02*
X92675000Y-107350000I-250000J0D01*
G01*
G37*
G36*
G01*
X96625000Y-109550000D02*
X95675000Y-109550000D01*
G75*
G02*
X95425000Y-109300000I0J250000D01*
G01*
X95425000Y-108800000D01*
G75*
G02*
X95675000Y-108550000I250000J0D01*
G01*
X96625000Y-108550000D01*
G75*
G02*
X96875000Y-108800000I0J-250000D01*
G01*
X96875000Y-109300000D01*
G75*
G02*
X96625000Y-109550000I-250000J0D01*
G01*
G37*
G36*
G01*
X96625000Y-111450000D02*
X95675000Y-111450000D01*
G75*
G02*
X95425000Y-111200000I0J250000D01*
G01*
X95425000Y-110700000D01*
G75*
G02*
X95675000Y-110450000I250000J0D01*
G01*
X96625000Y-110450000D01*
G75*
G02*
X96875000Y-110700000I0J-250000D01*
G01*
X96875000Y-111200000D01*
G75*
G02*
X96625000Y-111450000I-250000J0D01*
G01*
G37*
G36*
G01*
X90650000Y-105600000D02*
X90150000Y-105600000D01*
G75*
G02*
X89925000Y-105375000I0J225000D01*
G01*
X89925000Y-104925000D01*
G75*
G02*
X90150000Y-104700000I225000J0D01*
G01*
X90650000Y-104700000D01*
G75*
G02*
X90875000Y-104925000I0J-225000D01*
G01*
X90875000Y-105375000D01*
G75*
G02*
X90650000Y-105600000I-225000J0D01*
G01*
G37*
G36*
G01*
X90650000Y-107150000D02*
X90150000Y-107150000D01*
G75*
G02*
X89925000Y-106925000I0J225000D01*
G01*
X89925000Y-106475000D01*
G75*
G02*
X90150000Y-106250000I225000J0D01*
G01*
X90650000Y-106250000D01*
G75*
G02*
X90875000Y-106475000I0J-225000D01*
G01*
X90875000Y-106925000D01*
G75*
G02*
X90650000Y-107150000I-225000J0D01*
G01*
G37*
G36*
G01*
X98150000Y-109800000D02*
X97650000Y-109800000D01*
G75*
G02*
X97425000Y-109575000I0J225000D01*
G01*
X97425000Y-109125000D01*
G75*
G02*
X97650000Y-108900000I225000J0D01*
G01*
X98150000Y-108900000D01*
G75*
G02*
X98375000Y-109125000I0J-225000D01*
G01*
X98375000Y-109575000D01*
G75*
G02*
X98150000Y-109800000I-225000J0D01*
G01*
G37*
G36*
G01*
X98150000Y-111350000D02*
X97650000Y-111350000D01*
G75*
G02*
X97425000Y-111125000I0J225000D01*
G01*
X97425000Y-110675000D01*
G75*
G02*
X97650000Y-110450000I225000J0D01*
G01*
X98150000Y-110450000D01*
G75*
G02*
X98375000Y-110675000I0J-225000D01*
G01*
X98375000Y-111125000D01*
G75*
G02*
X98150000Y-111350000I-225000J0D01*
G01*
G37*
D15*
X136697056Y-101302944D03*
X135000000Y-100600000D03*
X133302944Y-101302944D03*
X132600000Y-103000000D03*
X133302944Y-104697056D03*
X135000000Y-105400000D03*
X136697056Y-104697056D03*
X137400000Y-103000000D03*
D16*
X135000000Y-103000000D03*
D15*
X136697056Y-129302944D03*
X135000000Y-128600000D03*
X133302944Y-129302944D03*
X132600000Y-131000000D03*
X133302944Y-132697056D03*
X135000000Y-133400000D03*
X136697056Y-132697056D03*
X137400000Y-131000000D03*
D16*
X135000000Y-131000000D03*
D15*
X87697056Y-129302944D03*
X86000000Y-128600000D03*
X84302944Y-129302944D03*
X83600000Y-131000000D03*
X84302944Y-132697056D03*
X86000000Y-133400000D03*
X87697056Y-132697056D03*
X88400000Y-131000000D03*
D16*
X86000000Y-131000000D03*
D15*
X87697056Y-101302944D03*
X86000000Y-100600000D03*
X84302944Y-101302944D03*
X83600000Y-103000000D03*
X84302944Y-104697056D03*
X86000000Y-105400000D03*
X87697056Y-104697056D03*
X88400000Y-103000000D03*
D16*
X86000000Y-103000000D03*
D17*
X117500000Y-126420000D03*
X117500000Y-122460000D03*
X117500000Y-118500000D03*
X117500000Y-114540000D03*
X117500000Y-110580000D03*
D18*
X89000000Y-110001780D03*
X89000000Y-111998220D03*
D17*
X129500000Y-110580000D03*
X129500000Y-114540000D03*
X129500000Y-118500000D03*
X129500000Y-122460000D03*
X129500000Y-126420000D03*
M02*
