G04 #@! TF.GenerationSoftware,KiCad,Pcbnew,5.1.10-88a1d61d58~90~ubuntu20.04.1*
G04 #@! TF.CreationDate,2021-10-22T15:45:46-05:00*
G04 #@! TF.ProjectId,power-share,706f7765-722d-4736-9861-72652e6b6963,rev?*
G04 #@! TF.SameCoordinates,Original*
G04 #@! TF.FileFunction,Paste,Top*
G04 #@! TF.FilePolarity,Positive*
%FSLAX46Y46*%
G04 Gerber Fmt 4.6, Leading zero omitted, Abs format (unit mm)*
G04 Created by KiCad (PCBNEW 5.1.10-88a1d61d58~90~ubuntu20.04.1) date 2021-10-22 15:45:46*
%MOMM*%
%LPD*%
G01*
G04 APERTURE LIST*
%ADD10R,2.600000X1.910000*%
%ADD11R,0.600000X1.550000*%
%ADD12R,5.400000X2.900000*%
%ADD13R,1.400000X2.100000*%
%ADD14R,2.100000X1.400000*%
G04 APERTURE END LIST*
D10*
X89000000Y-118500000D03*
D11*
X87095000Y-115800000D03*
X87095000Y-121200000D03*
X88365000Y-115800000D03*
X88365000Y-121200000D03*
X89635000Y-115800000D03*
X89635000Y-121200000D03*
X90905000Y-115800000D03*
X90905000Y-121200000D03*
D12*
X101900000Y-121100000D03*
X101900000Y-111400000D03*
G36*
G01*
X92867500Y-115145000D02*
X92867500Y-115455000D01*
G75*
G02*
X92712500Y-115610000I-155000J0D01*
G01*
X92287500Y-115610000D01*
G75*
G02*
X92132500Y-115455000I0J155000D01*
G01*
X92132500Y-115145000D01*
G75*
G02*
X92287500Y-114990000I155000J0D01*
G01*
X92712500Y-114990000D01*
G75*
G02*
X92867500Y-115145000I0J-155000D01*
G01*
G37*
G36*
G01*
X94002500Y-115145000D02*
X94002500Y-115455000D01*
G75*
G02*
X93847500Y-115610000I-155000J0D01*
G01*
X93422500Y-115610000D01*
G75*
G02*
X93267500Y-115455000I0J155000D01*
G01*
X93267500Y-115145000D01*
G75*
G02*
X93422500Y-114990000I155000J0D01*
G01*
X93847500Y-114990000D01*
G75*
G02*
X94002500Y-115145000I0J-155000D01*
G01*
G37*
G36*
G01*
X89849999Y-127000000D02*
X92750001Y-127000000D01*
G75*
G02*
X93000000Y-127249999I0J-249999D01*
G01*
X93000000Y-128150001D01*
G75*
G02*
X92750001Y-128400000I-249999J0D01*
G01*
X89849999Y-128400000D01*
G75*
G02*
X89600000Y-128150001I0J249999D01*
G01*
X89600000Y-127249999D01*
G75*
G02*
X89849999Y-127000000I249999J0D01*
G01*
G37*
G36*
G01*
X89849999Y-122900000D02*
X92750001Y-122900000D01*
G75*
G02*
X93000000Y-123149999I0J-249999D01*
G01*
X93000000Y-124050001D01*
G75*
G02*
X92750001Y-124300000I-249999J0D01*
G01*
X89849999Y-124300000D01*
G75*
G02*
X89600000Y-124050001I0J249999D01*
G01*
X89600000Y-123149999D01*
G75*
G02*
X89849999Y-122900000I249999J0D01*
G01*
G37*
G36*
G01*
X98500000Y-130100000D02*
X100500000Y-130100000D01*
G75*
G02*
X100750000Y-130350000I0J-250000D01*
G01*
X100750000Y-133850000D01*
G75*
G02*
X100500000Y-134100000I-250000J0D01*
G01*
X98500000Y-134100000D01*
G75*
G02*
X98250000Y-133850000I0J250000D01*
G01*
X98250000Y-130350000D01*
G75*
G02*
X98500000Y-130100000I250000J0D01*
G01*
G37*
G36*
G01*
X98500000Y-124000000D02*
X100500000Y-124000000D01*
G75*
G02*
X100750000Y-124250000I0J-250000D01*
G01*
X100750000Y-127750000D01*
G75*
G02*
X100500000Y-128000000I-250000J0D01*
G01*
X98500000Y-128000000D01*
G75*
G02*
X98250000Y-127750000I0J250000D01*
G01*
X98250000Y-124250000D01*
G75*
G02*
X98500000Y-124000000I250000J0D01*
G01*
G37*
G36*
G01*
X92675000Y-110750000D02*
X92125000Y-110750000D01*
G75*
G02*
X91925000Y-110550000I0J200000D01*
G01*
X91925000Y-110150000D01*
G75*
G02*
X92125000Y-109950000I200000J0D01*
G01*
X92675000Y-109950000D01*
G75*
G02*
X92875000Y-110150000I0J-200000D01*
G01*
X92875000Y-110550000D01*
G75*
G02*
X92675000Y-110750000I-200000J0D01*
G01*
G37*
G36*
G01*
X92675000Y-112400000D02*
X92125000Y-112400000D01*
G75*
G02*
X91925000Y-112200000I0J200000D01*
G01*
X91925000Y-111800000D01*
G75*
G02*
X92125000Y-111600000I200000J0D01*
G01*
X92675000Y-111600000D01*
G75*
G02*
X92875000Y-111800000I0J-200000D01*
G01*
X92875000Y-112200000D01*
G75*
G02*
X92675000Y-112400000I-200000J0D01*
G01*
G37*
G36*
G01*
X93725000Y-111600000D02*
X94275000Y-111600000D01*
G75*
G02*
X94475000Y-111800000I0J-200000D01*
G01*
X94475000Y-112200000D01*
G75*
G02*
X94275000Y-112400000I-200000J0D01*
G01*
X93725000Y-112400000D01*
G75*
G02*
X93525000Y-112200000I0J200000D01*
G01*
X93525000Y-111800000D01*
G75*
G02*
X93725000Y-111600000I200000J0D01*
G01*
G37*
G36*
G01*
X93725000Y-109950000D02*
X94275000Y-109950000D01*
G75*
G02*
X94475000Y-110150000I0J-200000D01*
G01*
X94475000Y-110550000D01*
G75*
G02*
X94275000Y-110750000I-200000J0D01*
G01*
X93725000Y-110750000D01*
G75*
G02*
X93525000Y-110550000I0J200000D01*
G01*
X93525000Y-110150000D01*
G75*
G02*
X93725000Y-109950000I200000J0D01*
G01*
G37*
G36*
G01*
X87050000Y-122825000D02*
X87050000Y-123375000D01*
G75*
G02*
X86850000Y-123575000I-200000J0D01*
G01*
X86450000Y-123575000D01*
G75*
G02*
X86250000Y-123375000I0J200000D01*
G01*
X86250000Y-122825000D01*
G75*
G02*
X86450000Y-122625000I200000J0D01*
G01*
X86850000Y-122625000D01*
G75*
G02*
X87050000Y-122825000I0J-200000D01*
G01*
G37*
G36*
G01*
X88700000Y-122825000D02*
X88700000Y-123375000D01*
G75*
G02*
X88500000Y-123575000I-200000J0D01*
G01*
X88100000Y-123575000D01*
G75*
G02*
X87900000Y-123375000I0J200000D01*
G01*
X87900000Y-122825000D01*
G75*
G02*
X88100000Y-122625000I200000J0D01*
G01*
X88500000Y-122625000D01*
G75*
G02*
X88700000Y-122825000I0J-200000D01*
G01*
G37*
G36*
G01*
X87100000Y-124825000D02*
X87100000Y-125375000D01*
G75*
G02*
X86900000Y-125575000I-200000J0D01*
G01*
X86500000Y-125575000D01*
G75*
G02*
X86300000Y-125375000I0J200000D01*
G01*
X86300000Y-124825000D01*
G75*
G02*
X86500000Y-124625000I200000J0D01*
G01*
X86900000Y-124625000D01*
G75*
G02*
X87100000Y-124825000I0J-200000D01*
G01*
G37*
G36*
G01*
X88750000Y-124825000D02*
X88750000Y-125375000D01*
G75*
G02*
X88550000Y-125575000I-200000J0D01*
G01*
X88150000Y-125575000D01*
G75*
G02*
X87950000Y-125375000I0J200000D01*
G01*
X87950000Y-124825000D01*
G75*
G02*
X88150000Y-124625000I200000J0D01*
G01*
X88550000Y-124625000D01*
G75*
G02*
X88750000Y-124825000I0J-200000D01*
G01*
G37*
D13*
X100000000Y-106500000D03*
X95600000Y-106500000D03*
D14*
X93500000Y-117100000D03*
X93500000Y-121500000D03*
G36*
G01*
X105525000Y-107550000D02*
X105525000Y-106450000D01*
G75*
G02*
X105775000Y-106200000I250000J0D01*
G01*
X107925000Y-106200000D01*
G75*
G02*
X108175000Y-106450000I0J-250000D01*
G01*
X108175000Y-107550000D01*
G75*
G02*
X107925000Y-107800000I-250000J0D01*
G01*
X105775000Y-107800000D01*
G75*
G02*
X105525000Y-107550000I0J250000D01*
G01*
G37*
G36*
G01*
X102175000Y-107550000D02*
X102175000Y-106450000D01*
G75*
G02*
X102425000Y-106200000I250000J0D01*
G01*
X104575000Y-106200000D01*
G75*
G02*
X104825000Y-106450000I0J-250000D01*
G01*
X104825000Y-107550000D01*
G75*
G02*
X104575000Y-107800000I-250000J0D01*
G01*
X102425000Y-107800000D01*
G75*
G02*
X102175000Y-107550000I0J250000D01*
G01*
G37*
M02*
