%TF.GenerationSoftware,KiCad,Pcbnew,5.1.10-88a1d61d58~88~ubuntu20.04.1*%
%TF.CreationDate,2021-06-25T13:29:56-05:00*%
%TF.ProjectId,MiOrigin,4d694f72-6967-4696-9e2e-6b696361645f,rev?*%
%TF.SameCoordinates,Original*%
%TF.FileFunction,Soldermask,Bot*%
%TF.FilePolarity,Negative*%
%FSLAX46Y46*%
G04 Gerber Fmt 4.6, Leading zero omitted, Abs format (unit mm)*
G04 Created by KiCad (PCBNEW 5.1.10-88a1d61d58~88~ubuntu20.04.1) date 2021-06-25 13:29:56*
%MOMM*%
%LPD*%
G01*
G04 APERTURE LIST*
%TA.AperFunction,Profile*%
%ADD10C,0.010000*%
%TD*%
%ADD11R,1.310000X0.550000*%
%ADD12R,1.310000X0.940000*%
%ADD13C,1.700000*%
%ADD14R,1.700000X1.700000*%
%ADD15C,2.000000*%
%ADD16C,5.600000*%
%ADD17C,3.600000*%
%ADD18C,1.800860*%
%ADD19C,2.082800*%
%ADD20C,5.283200*%
%ADD21O,0.900000X1.700000*%
%ADD22O,0.900000X2.400000*%
%ADD23C,0.700000*%
%ADD24C,1.524000*%
%ADD25O,1.750000X2.500000*%
G04 APERTURE END LIST*
D10*
X125580000Y-143500000D02*
G75*
G02*
X124580000Y-142500000I0J1000000D01*
G01*
X180920000Y-142500000D02*
G75*
G02*
X179920000Y-143500000I-1000000J0D01*
G01*
X179920000Y-45500000D02*
G75*
G02*
X180920000Y-46500000I0J-1000000D01*
G01*
X124580000Y-46500000D02*
G75*
G02*
X125580000Y-45500000I1000000J0D01*
G01*
X124580000Y-142500000D02*
X124580000Y-46500000D01*
X180920000Y-142500000D02*
X180920000Y-46500000D01*
X179920000Y-143500000D02*
X125580000Y-143500000D01*
X125580000Y-45500000D02*
X179920000Y-45500000D01*
X125580000Y-143500000D02*
G75*
G02*
X124580000Y-142500000I0J1000000D01*
G01*
X180920000Y-142500000D02*
G75*
G02*
X179920000Y-143500000I-1000000J0D01*
G01*
X179920000Y-45500000D02*
G75*
G02*
X180920000Y-46500000I0J-1000000D01*
G01*
X124580000Y-46500000D02*
G75*
G02*
X125580000Y-45500000I1000000J0D01*
G01*
X124580000Y-142500000D02*
X124580000Y-46500000D01*
X180920000Y-142500000D02*
X180920000Y-46500000D01*
X179920000Y-143500000D02*
X125580000Y-143500000D01*
X125580000Y-45500000D02*
X179920000Y-45500000D01*
%TO.C,C1*%
G36*
G01*
X141300000Y-56825000D02*
X140800000Y-56825000D01*
G75*
G02*
X140575000Y-56600000I0J225000D01*
G01*
X140575000Y-56150000D01*
G75*
G02*
X140800000Y-55925000I225000J0D01*
G01*
X141300000Y-55925000D01*
G75*
G02*
X141525000Y-56150000I0J-225000D01*
G01*
X141525000Y-56600000D01*
G75*
G02*
X141300000Y-56825000I-225000J0D01*
G01*
G37*
G36*
G01*
X141300000Y-58375000D02*
X140800000Y-58375000D01*
G75*
G02*
X140575000Y-58150000I0J225000D01*
G01*
X140575000Y-57700000D01*
G75*
G02*
X140800000Y-57475000I225000J0D01*
G01*
X141300000Y-57475000D01*
G75*
G02*
X141525000Y-57700000I0J-225000D01*
G01*
X141525000Y-58150000D01*
G75*
G02*
X141300000Y-58375000I-225000J0D01*
G01*
G37*
%TD*%
D11*
%TO.C,D1*%
X144250000Y-57020000D03*
X146250000Y-57020000D03*
D12*
X146250000Y-55300000D03*
D11*
X144250000Y-55100000D03*
%TD*%
D13*
%TO.C,U4*%
X154020000Y-47500000D03*
X151480000Y-47500000D03*
X148940000Y-47500000D03*
D14*
X156560000Y-47500000D03*
X169260000Y-141490000D03*
D13*
X166720000Y-141490000D03*
X164180000Y-141490000D03*
X161640000Y-141490000D03*
X159100000Y-141490000D03*
X156560000Y-141490000D03*
X154020000Y-141490000D03*
X151480000Y-141490000D03*
X148940000Y-141490000D03*
X146400000Y-141490000D03*
X143860000Y-141490000D03*
X141320000Y-141490000D03*
X138780000Y-141500000D03*
X136240000Y-141500000D03*
%TD*%
D15*
%TO.C,TP4*%
X132050000Y-99900000D03*
%TD*%
%TO.C,R6*%
G36*
G01*
X141385600Y-122317200D02*
X141385600Y-122867200D01*
G75*
G02*
X141185600Y-123067200I-200000J0D01*
G01*
X140785600Y-123067200D01*
G75*
G02*
X140585600Y-122867200I0J200000D01*
G01*
X140585600Y-122317200D01*
G75*
G02*
X140785600Y-122117200I200000J0D01*
G01*
X141185600Y-122117200D01*
G75*
G02*
X141385600Y-122317200I0J-200000D01*
G01*
G37*
G36*
G01*
X143035600Y-122317200D02*
X143035600Y-122867200D01*
G75*
G02*
X142835600Y-123067200I-200000J0D01*
G01*
X142435600Y-123067200D01*
G75*
G02*
X142235600Y-122867200I0J200000D01*
G01*
X142235600Y-122317200D01*
G75*
G02*
X142435600Y-122117200I200000J0D01*
G01*
X142835600Y-122117200D01*
G75*
G02*
X143035600Y-122317200I0J-200000D01*
G01*
G37*
%TD*%
%TO.C,R4*%
G36*
G01*
X141385600Y-120767800D02*
X141385600Y-121317800D01*
G75*
G02*
X141185600Y-121517800I-200000J0D01*
G01*
X140785600Y-121517800D01*
G75*
G02*
X140585600Y-121317800I0J200000D01*
G01*
X140585600Y-120767800D01*
G75*
G02*
X140785600Y-120567800I200000J0D01*
G01*
X141185600Y-120567800D01*
G75*
G02*
X141385600Y-120767800I0J-200000D01*
G01*
G37*
G36*
G01*
X143035600Y-120767800D02*
X143035600Y-121317800D01*
G75*
G02*
X142835600Y-121517800I-200000J0D01*
G01*
X142435600Y-121517800D01*
G75*
G02*
X142235600Y-121317800I0J200000D01*
G01*
X142235600Y-120767800D01*
G75*
G02*
X142435600Y-120567800I200000J0D01*
G01*
X142835600Y-120567800D01*
G75*
G02*
X143035600Y-120767800I0J-200000D01*
G01*
G37*
%TD*%
%TO.C,C6*%
G36*
G01*
X141485400Y-124323400D02*
X141485400Y-124823400D01*
G75*
G02*
X141260400Y-125048400I-225000J0D01*
G01*
X140810400Y-125048400D01*
G75*
G02*
X140585400Y-124823400I0J225000D01*
G01*
X140585400Y-124323400D01*
G75*
G02*
X140810400Y-124098400I225000J0D01*
G01*
X141260400Y-124098400D01*
G75*
G02*
X141485400Y-124323400I0J-225000D01*
G01*
G37*
G36*
G01*
X143035400Y-124323400D02*
X143035400Y-124823400D01*
G75*
G02*
X142810400Y-125048400I-225000J0D01*
G01*
X142360400Y-125048400D01*
G75*
G02*
X142135400Y-124823400I0J225000D01*
G01*
X142135400Y-124323400D01*
G75*
G02*
X142360400Y-124098400I225000J0D01*
G01*
X142810400Y-124098400D01*
G75*
G02*
X143035400Y-124323400I0J-225000D01*
G01*
G37*
%TD*%
D16*
%TO.C,H4*%
X177500000Y-140480000D03*
D17*
X177500000Y-140480000D03*
%TD*%
%TO.C,H3*%
X177500000Y-48520000D03*
D16*
X177500000Y-48520000D03*
%TD*%
%TO.C,H2*%
X128000000Y-140480000D03*
D17*
X128000000Y-140480000D03*
%TD*%
D16*
%TO.C,H1*%
X128000000Y-48520000D03*
D17*
X128000000Y-48520000D03*
%TD*%
%TO.C,R5*%
G36*
G01*
X142235600Y-129217200D02*
X142235600Y-128667200D01*
G75*
G02*
X142435600Y-128467200I200000J0D01*
G01*
X142835600Y-128467200D01*
G75*
G02*
X143035600Y-128667200I0J-200000D01*
G01*
X143035600Y-129217200D01*
G75*
G02*
X142835600Y-129417200I-200000J0D01*
G01*
X142435600Y-129417200D01*
G75*
G02*
X142235600Y-129217200I0J200000D01*
G01*
G37*
G36*
G01*
X140585600Y-129217200D02*
X140585600Y-128667200D01*
G75*
G02*
X140785600Y-128467200I200000J0D01*
G01*
X141185600Y-128467200D01*
G75*
G02*
X141385600Y-128667200I0J-200000D01*
G01*
X141385600Y-129217200D01*
G75*
G02*
X141185600Y-129417200I-200000J0D01*
G01*
X140785600Y-129417200D01*
G75*
G02*
X140585600Y-129217200I0J200000D01*
G01*
G37*
%TD*%
D18*
%TO.C,J4*%
X160000000Y-56001780D03*
X160000000Y-57998220D03*
%TD*%
D19*
%TO.C,J5*%
X132750000Y-65645600D03*
X132750000Y-68416740D03*
X132750000Y-71185340D03*
X132750000Y-73953940D03*
G36*
G01*
X133689800Y-77766480D02*
X131810200Y-77766480D01*
G75*
G02*
X131708600Y-77664880I0J101600D01*
G01*
X131708600Y-75785280D01*
G75*
G02*
X131810200Y-75683680I101600J0D01*
G01*
X133689800Y-75683680D01*
G75*
G02*
X133791400Y-75785280I0J-101600D01*
G01*
X133791400Y-77664880D01*
G75*
G02*
X133689800Y-77766480I-101600J0D01*
G01*
G37*
X129910280Y-67037520D03*
X129910280Y-69806120D03*
X129910280Y-72564560D03*
X129910280Y-75333160D03*
D20*
X131330140Y-83684680D03*
X131330140Y-58686000D03*
%TD*%
D21*
%TO.C,J2*%
X134450000Y-47140000D03*
X143100000Y-47140000D03*
D22*
X134450000Y-50520000D03*
X143100000Y-50520000D03*
D23*
X138350000Y-50150000D03*
X135800000Y-50150000D03*
X136650000Y-50150000D03*
X137500000Y-50150000D03*
X141750000Y-50150000D03*
X140050000Y-50150000D03*
X139200000Y-50150000D03*
X140900000Y-50150000D03*
X135800000Y-51500000D03*
X136650000Y-51500000D03*
X137500000Y-51500000D03*
X138350000Y-51500000D03*
X139200000Y-51500000D03*
X140050000Y-51500000D03*
X140900000Y-51500000D03*
X141750000Y-51500000D03*
%TD*%
D24*
%TO.C,S1*%
X166750000Y-48000000D03*
X170750000Y-48000000D03*
X168750000Y-48000000D03*
D25*
X164650000Y-48000000D03*
X172850000Y-48000000D03*
%TD*%
M02*
