%TF.GenerationSoftware,KiCad,Pcbnew,5.1.10-88a1d61d58~88~ubuntu20.04.1*%
%TF.CreationDate,2021-06-25T13:29:56-05:00*%
%TF.ProjectId,MiOrigin,4d694f72-6967-4696-9e2e-6b696361645f,rev?*%
%TF.SameCoordinates,Original*%
%TF.FileFunction,Legend,Top*%
%TF.FilePolarity,Positive*%
%FSLAX46Y46*%
G04 Gerber Fmt 4.6, Leading zero omitted, Abs format (unit mm)*
G04 Created by KiCad (PCBNEW 5.1.10-88a1d61d58~88~ubuntu20.04.1) date 2021-06-25 13:29:56*
%MOMM*%
%LPD*%
G01*
G04 APERTURE LIST*
%ADD10C,0.200000*%
%ADD11C,0.150000*%
%ADD12C,0.125000*%
%ADD13C,0.300000*%
%ADD14C,0.250000*%
%TA.AperFunction,Profile*%
%ADD15C,0.010000*%
%TD*%
%ADD16C,0.010000*%
%ADD17C,0.120000*%
%ADD18C,0.127000*%
%ADD19C,0.240000*%
%ADD20C,0.203200*%
%ADD21C,0.100000*%
G04 APERTURE END LIST*
D10*
X179078571Y-134836666D02*
X179726190Y-134836666D01*
X179802380Y-134874761D01*
X179840476Y-134912857D01*
X179878571Y-134989047D01*
X179878571Y-135103333D01*
X179840476Y-135179523D01*
X179573809Y-134836666D02*
X179611904Y-134912857D01*
X179611904Y-135065238D01*
X179573809Y-135141428D01*
X179535714Y-135179523D01*
X179459523Y-135217619D01*
X179230952Y-135217619D01*
X179154761Y-135179523D01*
X179116666Y-135141428D01*
X179078571Y-135065238D01*
X179078571Y-134912857D01*
X179116666Y-134836666D01*
X179611904Y-134455714D02*
X179078571Y-134455714D01*
X178811904Y-134455714D02*
X178850000Y-134493809D01*
X178888095Y-134455714D01*
X178850000Y-134417619D01*
X178811904Y-134455714D01*
X178888095Y-134455714D01*
X179078571Y-134189047D02*
X179078571Y-133884285D01*
X178811904Y-134074761D02*
X179497619Y-134074761D01*
X179573809Y-134036666D01*
X179611904Y-133960476D01*
X179611904Y-133884285D01*
X179611904Y-133617619D02*
X178811904Y-133617619D01*
X179611904Y-133274761D02*
X179192857Y-133274761D01*
X179116666Y-133312857D01*
X179078571Y-133389047D01*
X179078571Y-133503333D01*
X179116666Y-133579523D01*
X179154761Y-133617619D01*
X179078571Y-132550952D02*
X179611904Y-132550952D01*
X179078571Y-132893809D02*
X179497619Y-132893809D01*
X179573809Y-132855714D01*
X179611904Y-132779523D01*
X179611904Y-132665238D01*
X179573809Y-132589047D01*
X179535714Y-132550952D01*
X179611904Y-132170000D02*
X178811904Y-132170000D01*
X179116666Y-132170000D02*
X179078571Y-132093809D01*
X179078571Y-131941428D01*
X179116666Y-131865238D01*
X179154761Y-131827142D01*
X179230952Y-131789047D01*
X179459523Y-131789047D01*
X179535714Y-131827142D01*
X179573809Y-131865238D01*
X179611904Y-131941428D01*
X179611904Y-132093809D01*
X179573809Y-132170000D01*
X179535714Y-131446190D02*
X179573809Y-131408095D01*
X179611904Y-131446190D01*
X179573809Y-131484285D01*
X179535714Y-131446190D01*
X179611904Y-131446190D01*
X179573809Y-130722380D02*
X179611904Y-130798571D01*
X179611904Y-130950952D01*
X179573809Y-131027142D01*
X179535714Y-131065238D01*
X179459523Y-131103333D01*
X179230952Y-131103333D01*
X179154761Y-131065238D01*
X179116666Y-131027142D01*
X179078571Y-130950952D01*
X179078571Y-130798571D01*
X179116666Y-130722380D01*
X179611904Y-130265238D02*
X179573809Y-130341428D01*
X179535714Y-130379523D01*
X179459523Y-130417619D01*
X179230952Y-130417619D01*
X179154761Y-130379523D01*
X179116666Y-130341428D01*
X179078571Y-130265238D01*
X179078571Y-130150952D01*
X179116666Y-130074761D01*
X179154761Y-130036666D01*
X179230952Y-129998571D01*
X179459523Y-129998571D01*
X179535714Y-130036666D01*
X179573809Y-130074761D01*
X179611904Y-130150952D01*
X179611904Y-130265238D01*
X179611904Y-129655714D02*
X179078571Y-129655714D01*
X179154761Y-129655714D02*
X179116666Y-129617619D01*
X179078571Y-129541428D01*
X179078571Y-129427142D01*
X179116666Y-129350952D01*
X179192857Y-129312857D01*
X179611904Y-129312857D01*
X179192857Y-129312857D02*
X179116666Y-129274761D01*
X179078571Y-129198571D01*
X179078571Y-129084285D01*
X179116666Y-129008095D01*
X179192857Y-128970000D01*
X179611904Y-128970000D01*
X178773809Y-128017619D02*
X179802380Y-128703333D01*
X179573809Y-127408095D02*
X179611904Y-127484285D01*
X179611904Y-127636666D01*
X179573809Y-127712857D01*
X179535714Y-127750952D01*
X179459523Y-127789047D01*
X179230952Y-127789047D01*
X179154761Y-127750952D01*
X179116666Y-127712857D01*
X179078571Y-127636666D01*
X179078571Y-127484285D01*
X179116666Y-127408095D01*
X179611904Y-127065238D02*
X179078571Y-127065238D01*
X179154761Y-127065238D02*
X179116666Y-127027142D01*
X179078571Y-126950952D01*
X179078571Y-126836666D01*
X179116666Y-126760476D01*
X179192857Y-126722380D01*
X179611904Y-126722380D01*
X179192857Y-126722380D02*
X179116666Y-126684285D01*
X179078571Y-126608095D01*
X179078571Y-126493809D01*
X179116666Y-126417619D01*
X179192857Y-126379523D01*
X179611904Y-126379523D01*
X179611904Y-125655714D02*
X179192857Y-125655714D01*
X179116666Y-125693809D01*
X179078571Y-125770000D01*
X179078571Y-125922380D01*
X179116666Y-125998571D01*
X179573809Y-125655714D02*
X179611904Y-125731904D01*
X179611904Y-125922380D01*
X179573809Y-125998571D01*
X179497619Y-126036666D01*
X179421428Y-126036666D01*
X179345238Y-125998571D01*
X179307142Y-125922380D01*
X179307142Y-125731904D01*
X179269047Y-125655714D01*
X179573809Y-125312857D02*
X179611904Y-125236666D01*
X179611904Y-125084285D01*
X179573809Y-125008095D01*
X179497619Y-124970000D01*
X179459523Y-124970000D01*
X179383333Y-125008095D01*
X179345238Y-125084285D01*
X179345238Y-125198571D01*
X179307142Y-125274761D01*
X179230952Y-125312857D01*
X179192857Y-125312857D01*
X179116666Y-125274761D01*
X179078571Y-125198571D01*
X179078571Y-125084285D01*
X179116666Y-125008095D01*
X179078571Y-124741428D02*
X179078571Y-124436666D01*
X178811904Y-124627142D02*
X179497619Y-124627142D01*
X179573809Y-124589047D01*
X179611904Y-124512857D01*
X179611904Y-124436666D01*
X179573809Y-123865238D02*
X179611904Y-123941428D01*
X179611904Y-124093809D01*
X179573809Y-124170000D01*
X179497619Y-124208095D01*
X179192857Y-124208095D01*
X179116666Y-124170000D01*
X179078571Y-124093809D01*
X179078571Y-123941428D01*
X179116666Y-123865238D01*
X179192857Y-123827142D01*
X179269047Y-123827142D01*
X179345238Y-124208095D01*
X179611904Y-123484285D02*
X179078571Y-123484285D01*
X179230952Y-123484285D02*
X179154761Y-123446190D01*
X179116666Y-123408095D01*
X179078571Y-123331904D01*
X179078571Y-123255714D01*
X179611904Y-123065238D02*
X179078571Y-122646190D01*
X179078571Y-123065238D02*
X179611904Y-122646190D01*
X178773809Y-121770000D02*
X179802380Y-122455714D01*
X179611904Y-121503333D02*
X179078571Y-121503333D01*
X179154761Y-121503333D02*
X179116666Y-121465238D01*
X179078571Y-121389047D01*
X179078571Y-121274761D01*
X179116666Y-121198571D01*
X179192857Y-121160476D01*
X179611904Y-121160476D01*
X179192857Y-121160476D02*
X179116666Y-121122380D01*
X179078571Y-121046190D01*
X179078571Y-120931904D01*
X179116666Y-120855714D01*
X179192857Y-120817619D01*
X179611904Y-120817619D01*
X179611904Y-120436666D02*
X179078571Y-120436666D01*
X178811904Y-120436666D02*
X178850000Y-120474761D01*
X178888095Y-120436666D01*
X178850000Y-120398571D01*
X178811904Y-120436666D01*
X178888095Y-120436666D01*
X179611904Y-119941428D02*
X179573809Y-120017619D01*
X179535714Y-120055714D01*
X179459523Y-120093809D01*
X179230952Y-120093809D01*
X179154761Y-120055714D01*
X179116666Y-120017619D01*
X179078571Y-119941428D01*
X179078571Y-119827142D01*
X179116666Y-119750952D01*
X179154761Y-119712857D01*
X179230952Y-119674761D01*
X179459523Y-119674761D01*
X179535714Y-119712857D01*
X179573809Y-119750952D01*
X179611904Y-119827142D01*
X179611904Y-119941428D01*
X179611904Y-119331904D02*
X179078571Y-119331904D01*
X179230952Y-119331904D02*
X179154761Y-119293809D01*
X179116666Y-119255714D01*
X179078571Y-119179523D01*
X179078571Y-119103333D01*
X179611904Y-118836666D02*
X179078571Y-118836666D01*
X178811904Y-118836666D02*
X178850000Y-118874761D01*
X178888095Y-118836666D01*
X178850000Y-118798571D01*
X178811904Y-118836666D01*
X178888095Y-118836666D01*
X179078571Y-118112857D02*
X179726190Y-118112857D01*
X179802380Y-118150952D01*
X179840476Y-118189047D01*
X179878571Y-118265238D01*
X179878571Y-118379523D01*
X179840476Y-118455714D01*
X179573809Y-118112857D02*
X179611904Y-118189047D01*
X179611904Y-118341428D01*
X179573809Y-118417619D01*
X179535714Y-118455714D01*
X179459523Y-118493809D01*
X179230952Y-118493809D01*
X179154761Y-118455714D01*
X179116666Y-118417619D01*
X179078571Y-118341428D01*
X179078571Y-118189047D01*
X179116666Y-118112857D01*
X179611904Y-117731904D02*
X179078571Y-117731904D01*
X178811904Y-117731904D02*
X178850000Y-117770000D01*
X178888095Y-117731904D01*
X178850000Y-117693809D01*
X178811904Y-117731904D01*
X178888095Y-117731904D01*
X179078571Y-117350952D02*
X179611904Y-117350952D01*
X179154761Y-117350952D02*
X179116666Y-117312857D01*
X179078571Y-117236666D01*
X179078571Y-117122380D01*
X179116666Y-117046190D01*
X179192857Y-117008095D01*
X179611904Y-117008095D01*
D11*
X130336904Y-129312023D02*
X129536904Y-129312023D01*
X129536904Y-129121547D01*
X129575000Y-129007261D01*
X129651190Y-128931071D01*
X129727380Y-128892976D01*
X129879761Y-128854880D01*
X129994047Y-128854880D01*
X130146428Y-128892976D01*
X130222619Y-128931071D01*
X130298809Y-129007261D01*
X130336904Y-129121547D01*
X130336904Y-129312023D01*
X129536904Y-128359642D02*
X129536904Y-128207261D01*
X129575000Y-128131071D01*
X129651190Y-128054880D01*
X129803571Y-128016785D01*
X130070238Y-128016785D01*
X130222619Y-128054880D01*
X130298809Y-128131071D01*
X130336904Y-128207261D01*
X130336904Y-128359642D01*
X130298809Y-128435833D01*
X130222619Y-128512023D01*
X130070238Y-128550119D01*
X129803571Y-128550119D01*
X129651190Y-128512023D01*
X129575000Y-128435833D01*
X129536904Y-128359642D01*
X130336904Y-127064404D02*
X129536904Y-127064404D01*
X130336904Y-126607261D01*
X129536904Y-126607261D01*
X129536904Y-126073928D02*
X129536904Y-125921547D01*
X129575000Y-125845357D01*
X129651190Y-125769166D01*
X129803571Y-125731071D01*
X130070238Y-125731071D01*
X130222619Y-125769166D01*
X130298809Y-125845357D01*
X130336904Y-125921547D01*
X130336904Y-126073928D01*
X130298809Y-126150119D01*
X130222619Y-126226309D01*
X130070238Y-126264404D01*
X129803571Y-126264404D01*
X129651190Y-126226309D01*
X129575000Y-126150119D01*
X129536904Y-126073928D01*
X129536904Y-125502500D02*
X129536904Y-125045357D01*
X130336904Y-125273928D02*
X129536904Y-125273928D01*
X130336904Y-123712023D02*
X129955952Y-123978690D01*
X130336904Y-124169166D02*
X129536904Y-124169166D01*
X129536904Y-123864404D01*
X129575000Y-123788214D01*
X129613095Y-123750119D01*
X129689285Y-123712023D01*
X129803571Y-123712023D01*
X129879761Y-123750119D01*
X129917857Y-123788214D01*
X129955952Y-123864404D01*
X129955952Y-124169166D01*
X129917857Y-123369166D02*
X129917857Y-123102500D01*
X130336904Y-122988214D02*
X130336904Y-123369166D01*
X129536904Y-123369166D01*
X129536904Y-122988214D01*
X130336904Y-122645357D02*
X129536904Y-122645357D01*
X129536904Y-122340595D01*
X129575000Y-122264404D01*
X129613095Y-122226309D01*
X129689285Y-122188214D01*
X129803571Y-122188214D01*
X129879761Y-122226309D01*
X129917857Y-122264404D01*
X129955952Y-122340595D01*
X129955952Y-122645357D01*
X130336904Y-121464404D02*
X130336904Y-121845357D01*
X129536904Y-121845357D01*
X130108333Y-121235833D02*
X130108333Y-120854880D01*
X130336904Y-121312023D02*
X129536904Y-121045357D01*
X130336904Y-120778690D01*
X130260714Y-120054880D02*
X130298809Y-120092976D01*
X130336904Y-120207261D01*
X130336904Y-120283452D01*
X130298809Y-120397738D01*
X130222619Y-120473928D01*
X130146428Y-120512023D01*
X129994047Y-120550119D01*
X129879761Y-120550119D01*
X129727380Y-120512023D01*
X129651190Y-120473928D01*
X129575000Y-120397738D01*
X129536904Y-120283452D01*
X129536904Y-120207261D01*
X129575000Y-120092976D01*
X129613095Y-120054880D01*
X129917857Y-119712023D02*
X129917857Y-119445357D01*
X130336904Y-119331071D02*
X130336904Y-119712023D01*
X129536904Y-119712023D01*
X129536904Y-119331071D01*
X131686904Y-129312023D02*
X130886904Y-129312023D01*
X131458333Y-129045357D01*
X130886904Y-128778690D01*
X131686904Y-128778690D01*
X131686904Y-128397738D02*
X130886904Y-128397738D01*
X131610714Y-127559642D02*
X131648809Y-127597738D01*
X131686904Y-127712023D01*
X131686904Y-127788214D01*
X131648809Y-127902500D01*
X131572619Y-127978690D01*
X131496428Y-128016785D01*
X131344047Y-128054880D01*
X131229761Y-128054880D01*
X131077380Y-128016785D01*
X131001190Y-127978690D01*
X130925000Y-127902500D01*
X130886904Y-127788214D01*
X130886904Y-127712023D01*
X130925000Y-127597738D01*
X130963095Y-127559642D01*
X131686904Y-126759642D02*
X131305952Y-127026309D01*
X131686904Y-127216785D02*
X130886904Y-127216785D01*
X130886904Y-126912023D01*
X130925000Y-126835833D01*
X130963095Y-126797738D01*
X131039285Y-126759642D01*
X131153571Y-126759642D01*
X131229761Y-126797738D01*
X131267857Y-126835833D01*
X131305952Y-126912023D01*
X131305952Y-127216785D01*
X130886904Y-126264404D02*
X130886904Y-126112023D01*
X130925000Y-126035833D01*
X131001190Y-125959642D01*
X131153571Y-125921547D01*
X131420238Y-125921547D01*
X131572619Y-125959642D01*
X131648809Y-126035833D01*
X131686904Y-126112023D01*
X131686904Y-126264404D01*
X131648809Y-126340595D01*
X131572619Y-126416785D01*
X131420238Y-126454880D01*
X131153571Y-126454880D01*
X131001190Y-126416785D01*
X130925000Y-126340595D01*
X130886904Y-126264404D01*
X131648809Y-125007261D02*
X131686904Y-124892976D01*
X131686904Y-124702500D01*
X131648809Y-124626309D01*
X131610714Y-124588214D01*
X131534523Y-124550119D01*
X131458333Y-124550119D01*
X131382142Y-124588214D01*
X131344047Y-124626309D01*
X131305952Y-124702500D01*
X131267857Y-124854880D01*
X131229761Y-124931071D01*
X131191666Y-124969166D01*
X131115476Y-125007261D01*
X131039285Y-125007261D01*
X130963095Y-124969166D01*
X130925000Y-124931071D01*
X130886904Y-124854880D01*
X130886904Y-124664404D01*
X130925000Y-124550119D01*
X131686904Y-124207261D02*
X130886904Y-124207261D01*
X130886904Y-124016785D01*
X130925000Y-123902500D01*
X131001190Y-123826309D01*
X131077380Y-123788214D01*
X131229761Y-123750119D01*
X131344047Y-123750119D01*
X131496428Y-123788214D01*
X131572619Y-123826309D01*
X131648809Y-123902500D01*
X131686904Y-124016785D01*
X131686904Y-124207261D01*
X131610714Y-122340595D02*
X131648809Y-122378690D01*
X131686904Y-122492976D01*
X131686904Y-122569166D01*
X131648809Y-122683452D01*
X131572619Y-122759642D01*
X131496428Y-122797738D01*
X131344047Y-122835833D01*
X131229761Y-122835833D01*
X131077380Y-122797738D01*
X131001190Y-122759642D01*
X130925000Y-122683452D01*
X130886904Y-122569166D01*
X130886904Y-122492976D01*
X130925000Y-122378690D01*
X130963095Y-122340595D01*
X131458333Y-122035833D02*
X131458333Y-121654880D01*
X131686904Y-122112023D02*
X130886904Y-121845357D01*
X131686904Y-121578690D01*
X131686904Y-120854880D02*
X131305952Y-121121547D01*
X131686904Y-121312023D02*
X130886904Y-121312023D01*
X130886904Y-121007261D01*
X130925000Y-120931071D01*
X130963095Y-120892976D01*
X131039285Y-120854880D01*
X131153571Y-120854880D01*
X131229761Y-120892976D01*
X131267857Y-120931071D01*
X131305952Y-121007261D01*
X131305952Y-121312023D01*
X131686904Y-120512023D02*
X130886904Y-120512023D01*
X130886904Y-120321547D01*
X130925000Y-120207261D01*
X131001190Y-120131071D01*
X131077380Y-120092976D01*
X131229761Y-120054880D01*
X131344047Y-120054880D01*
X131496428Y-120092976D01*
X131572619Y-120131071D01*
X131648809Y-120207261D01*
X131686904Y-120321547D01*
X131686904Y-120512023D01*
X131610714Y-119712023D02*
X131648809Y-119673928D01*
X131686904Y-119712023D01*
X131648809Y-119750119D01*
X131610714Y-119712023D01*
X131686904Y-119712023D01*
X131382142Y-119712023D02*
X130925000Y-119750119D01*
X130886904Y-119712023D01*
X130925000Y-119673928D01*
X131382142Y-119712023D01*
X130886904Y-119712023D01*
D12*
X166611904Y-111664285D02*
X166778571Y-111664285D01*
X166850000Y-111926190D02*
X166611904Y-111926190D01*
X166611904Y-111426190D01*
X166850000Y-111426190D01*
X167040476Y-111902380D02*
X167111904Y-111926190D01*
X167230952Y-111926190D01*
X167278571Y-111902380D01*
X167302380Y-111878571D01*
X167326190Y-111830952D01*
X167326190Y-111783333D01*
X167302380Y-111735714D01*
X167278571Y-111711904D01*
X167230952Y-111688095D01*
X167135714Y-111664285D01*
X167088095Y-111640476D01*
X167064285Y-111616666D01*
X167040476Y-111569047D01*
X167040476Y-111521428D01*
X167064285Y-111473809D01*
X167088095Y-111450000D01*
X167135714Y-111426190D01*
X167254761Y-111426190D01*
X167326190Y-111450000D01*
X167540476Y-111926190D02*
X167540476Y-111426190D01*
X167730952Y-111426190D01*
X167778571Y-111450000D01*
X167802380Y-111473809D01*
X167826190Y-111521428D01*
X167826190Y-111592857D01*
X167802380Y-111640476D01*
X167778571Y-111664285D01*
X167730952Y-111688095D01*
X167540476Y-111688095D01*
X167992857Y-111426190D02*
X168302380Y-111426190D01*
X168135714Y-111616666D01*
X168207142Y-111616666D01*
X168254761Y-111640476D01*
X168278571Y-111664285D01*
X168302380Y-111711904D01*
X168302380Y-111830952D01*
X168278571Y-111878571D01*
X168254761Y-111902380D01*
X168207142Y-111926190D01*
X168064285Y-111926190D01*
X168016666Y-111902380D01*
X167992857Y-111878571D01*
X168492857Y-111473809D02*
X168516666Y-111450000D01*
X168564285Y-111426190D01*
X168683333Y-111426190D01*
X168730952Y-111450000D01*
X168754761Y-111473809D01*
X168778571Y-111521428D01*
X168778571Y-111569047D01*
X168754761Y-111640476D01*
X168469047Y-111926190D01*
X168778571Y-111926190D01*
X168992857Y-111735714D02*
X169373809Y-111735714D01*
X169564285Y-111426190D02*
X169683333Y-111926190D01*
X169778571Y-111569047D01*
X169873809Y-111926190D01*
X169992857Y-111426190D01*
X170469047Y-111926190D02*
X170302380Y-111688095D01*
X170183333Y-111926190D02*
X170183333Y-111426190D01*
X170373809Y-111426190D01*
X170421428Y-111450000D01*
X170445238Y-111473809D01*
X170469047Y-111521428D01*
X170469047Y-111592857D01*
X170445238Y-111640476D01*
X170421428Y-111664285D01*
X170373809Y-111688095D01*
X170183333Y-111688095D01*
X170778571Y-111426190D02*
X170873809Y-111426190D01*
X170921428Y-111450000D01*
X170969047Y-111497619D01*
X170992857Y-111592857D01*
X170992857Y-111759523D01*
X170969047Y-111854761D01*
X170921428Y-111902380D01*
X170873809Y-111926190D01*
X170778571Y-111926190D01*
X170730952Y-111902380D01*
X170683333Y-111854761D01*
X170659523Y-111759523D01*
X170659523Y-111592857D01*
X170683333Y-111497619D01*
X170730952Y-111450000D01*
X170778571Y-111426190D01*
X171302380Y-111426190D02*
X171397619Y-111426190D01*
X171445238Y-111450000D01*
X171492857Y-111497619D01*
X171516666Y-111592857D01*
X171516666Y-111759523D01*
X171492857Y-111854761D01*
X171445238Y-111902380D01*
X171397619Y-111926190D01*
X171302380Y-111926190D01*
X171254761Y-111902380D01*
X171207142Y-111854761D01*
X171183333Y-111759523D01*
X171183333Y-111592857D01*
X171207142Y-111497619D01*
X171254761Y-111450000D01*
X171302380Y-111426190D01*
X171730952Y-111926190D02*
X171730952Y-111426190D01*
X171897619Y-111783333D01*
X172064285Y-111426190D01*
X172064285Y-111926190D01*
X172302380Y-111735714D02*
X172683333Y-111735714D01*
X172873809Y-111426190D02*
X173183333Y-111426190D01*
X173016666Y-111616666D01*
X173088095Y-111616666D01*
X173135714Y-111640476D01*
X173159523Y-111664285D01*
X173183333Y-111711904D01*
X173183333Y-111830952D01*
X173159523Y-111878571D01*
X173135714Y-111902380D01*
X173088095Y-111926190D01*
X172945238Y-111926190D01*
X172897619Y-111902380D01*
X172873809Y-111878571D01*
X173373809Y-111473809D02*
X173397619Y-111450000D01*
X173445238Y-111426190D01*
X173564285Y-111426190D01*
X173611904Y-111450000D01*
X173635714Y-111473809D01*
X173659523Y-111521428D01*
X173659523Y-111569047D01*
X173635714Y-111640476D01*
X173350000Y-111926190D01*
X173659523Y-111926190D01*
X173873809Y-111664285D02*
X174040476Y-111664285D01*
X174111904Y-111926190D02*
X173873809Y-111926190D01*
X173873809Y-111426190D01*
X174111904Y-111426190D01*
D11*
X141978571Y-115257142D02*
X142026190Y-115114285D01*
X142073809Y-115066666D01*
X142169047Y-115019047D01*
X142311904Y-115019047D01*
X142407142Y-115066666D01*
X142454761Y-115114285D01*
X142502380Y-115209523D01*
X142502380Y-115590476D01*
X141502380Y-115590476D01*
X141502380Y-115257142D01*
X141550000Y-115161904D01*
X141597619Y-115114285D01*
X141692857Y-115066666D01*
X141788095Y-115066666D01*
X141883333Y-115114285D01*
X141930952Y-115161904D01*
X141978571Y-115257142D01*
X141978571Y-115590476D01*
X142502380Y-114590476D02*
X141835714Y-114590476D01*
X141502380Y-114590476D02*
X141550000Y-114638095D01*
X141597619Y-114590476D01*
X141550000Y-114542857D01*
X141502380Y-114590476D01*
X141597619Y-114590476D01*
X142502380Y-113971428D02*
X142454761Y-114066666D01*
X142407142Y-114114285D01*
X142311904Y-114161904D01*
X142026190Y-114161904D01*
X141930952Y-114114285D01*
X141883333Y-114066666D01*
X141835714Y-113971428D01*
X141835714Y-113828571D01*
X141883333Y-113733333D01*
X141930952Y-113685714D01*
X142026190Y-113638095D01*
X142311904Y-113638095D01*
X142407142Y-113685714D01*
X142454761Y-113733333D01*
X142502380Y-113828571D01*
X142502380Y-113971428D01*
X142502380Y-113066666D02*
X142454761Y-113161904D01*
X142359523Y-113209523D01*
X141502380Y-113209523D01*
X142502380Y-112542857D02*
X142454761Y-112638095D01*
X142407142Y-112685714D01*
X142311904Y-112733333D01*
X142026190Y-112733333D01*
X141930952Y-112685714D01*
X141883333Y-112638095D01*
X141835714Y-112542857D01*
X141835714Y-112400000D01*
X141883333Y-112304761D01*
X141930952Y-112257142D01*
X142026190Y-112209523D01*
X142311904Y-112209523D01*
X142407142Y-112257142D01*
X142454761Y-112304761D01*
X142502380Y-112400000D01*
X142502380Y-112542857D01*
X141835714Y-111352380D02*
X142645238Y-111352380D01*
X142740476Y-111400000D01*
X142788095Y-111447619D01*
X142835714Y-111542857D01*
X142835714Y-111685714D01*
X142788095Y-111780952D01*
X142454761Y-111352380D02*
X142502380Y-111447619D01*
X142502380Y-111638095D01*
X142454761Y-111733333D01*
X142407142Y-111780952D01*
X142311904Y-111828571D01*
X142026190Y-111828571D01*
X141930952Y-111780952D01*
X141883333Y-111733333D01*
X141835714Y-111638095D01*
X141835714Y-111447619D01*
X141883333Y-111352380D01*
X142502380Y-110876190D02*
X141835714Y-110876190D01*
X141502380Y-110876190D02*
X141550000Y-110923809D01*
X141597619Y-110876190D01*
X141550000Y-110828571D01*
X141502380Y-110876190D01*
X141597619Y-110876190D01*
X142454761Y-109971428D02*
X142502380Y-110066666D01*
X142502380Y-110257142D01*
X142454761Y-110352380D01*
X142407142Y-110400000D01*
X142311904Y-110447619D01*
X142026190Y-110447619D01*
X141930952Y-110400000D01*
X141883333Y-110352380D01*
X141835714Y-110257142D01*
X141835714Y-110066666D01*
X141883333Y-109971428D01*
X142502380Y-109114285D02*
X141978571Y-109114285D01*
X141883333Y-109161904D01*
X141835714Y-109257142D01*
X141835714Y-109447619D01*
X141883333Y-109542857D01*
X142454761Y-109114285D02*
X142502380Y-109209523D01*
X142502380Y-109447619D01*
X142454761Y-109542857D01*
X142359523Y-109590476D01*
X142264285Y-109590476D01*
X142169047Y-109542857D01*
X142121428Y-109447619D01*
X142121428Y-109209523D01*
X142073809Y-109114285D01*
X142502380Y-108495238D02*
X142454761Y-108590476D01*
X142359523Y-108638095D01*
X141502380Y-108638095D01*
X142502380Y-106923809D02*
X141978571Y-106923809D01*
X141883333Y-106971428D01*
X141835714Y-107066666D01*
X141835714Y-107257142D01*
X141883333Y-107352380D01*
X142454761Y-106923809D02*
X142502380Y-107019047D01*
X142502380Y-107257142D01*
X142454761Y-107352380D01*
X142359523Y-107400000D01*
X142264285Y-107400000D01*
X142169047Y-107352380D01*
X142121428Y-107257142D01*
X142121428Y-107019047D01*
X142073809Y-106923809D01*
X141835714Y-106447619D02*
X142502380Y-106447619D01*
X141930952Y-106447619D02*
X141883333Y-106400000D01*
X141835714Y-106304761D01*
X141835714Y-106161904D01*
X141883333Y-106066666D01*
X141978571Y-106019047D01*
X142502380Y-106019047D01*
X142502380Y-105114285D02*
X141502380Y-105114285D01*
X142454761Y-105114285D02*
X142502380Y-105209523D01*
X142502380Y-105400000D01*
X142454761Y-105495238D01*
X142407142Y-105542857D01*
X142311904Y-105590476D01*
X142026190Y-105590476D01*
X141930952Y-105542857D01*
X141883333Y-105495238D01*
X141835714Y-105400000D01*
X141835714Y-105209523D01*
X141883333Y-105114285D01*
X142216666Y-103923809D02*
X142216666Y-103447619D01*
X142502380Y-104019047D02*
X141502380Y-103685714D01*
X142502380Y-103352380D01*
X141835714Y-102590476D02*
X142645238Y-102590476D01*
X142740476Y-102638095D01*
X142788095Y-102685714D01*
X142835714Y-102780952D01*
X142835714Y-102923809D01*
X142788095Y-103019047D01*
X142454761Y-102590476D02*
X142502380Y-102685714D01*
X142502380Y-102876190D01*
X142454761Y-102971428D01*
X142407142Y-103019047D01*
X142311904Y-103066666D01*
X142026190Y-103066666D01*
X141930952Y-103019047D01*
X141883333Y-102971428D01*
X141835714Y-102876190D01*
X141835714Y-102685714D01*
X141883333Y-102590476D01*
X142502380Y-102114285D02*
X141835714Y-102114285D01*
X142026190Y-102114285D02*
X141930952Y-102066666D01*
X141883333Y-102019047D01*
X141835714Y-101923809D01*
X141835714Y-101828571D01*
X142502380Y-101495238D02*
X141835714Y-101495238D01*
X141502380Y-101495238D02*
X141550000Y-101542857D01*
X141597619Y-101495238D01*
X141550000Y-101447619D01*
X141502380Y-101495238D01*
X141597619Y-101495238D01*
X142454761Y-100590476D02*
X142502380Y-100685714D01*
X142502380Y-100876190D01*
X142454761Y-100971428D01*
X142407142Y-101019047D01*
X142311904Y-101066666D01*
X142026190Y-101066666D01*
X141930952Y-101019047D01*
X141883333Y-100971428D01*
X141835714Y-100876190D01*
X141835714Y-100685714D01*
X141883333Y-100590476D01*
X141835714Y-99733333D02*
X142502380Y-99733333D01*
X141835714Y-100161904D02*
X142359523Y-100161904D01*
X142454761Y-100114285D01*
X142502380Y-100019047D01*
X142502380Y-99876190D01*
X142454761Y-99780952D01*
X142407142Y-99733333D01*
X142502380Y-99114285D02*
X142454761Y-99209523D01*
X142359523Y-99257142D01*
X141502380Y-99257142D01*
X141835714Y-98876190D02*
X141835714Y-98495238D01*
X141502380Y-98733333D02*
X142359523Y-98733333D01*
X142454761Y-98685714D01*
X142502380Y-98590476D01*
X142502380Y-98495238D01*
X141835714Y-97733333D02*
X142502380Y-97733333D01*
X141835714Y-98161904D02*
X142359523Y-98161904D01*
X142454761Y-98114285D01*
X142502380Y-98019047D01*
X142502380Y-97876190D01*
X142454761Y-97780952D01*
X142407142Y-97733333D01*
X142502380Y-97257142D02*
X141835714Y-97257142D01*
X142026190Y-97257142D02*
X141930952Y-97209523D01*
X141883333Y-97161904D01*
X141835714Y-97066666D01*
X141835714Y-96971428D01*
X142502380Y-96209523D02*
X141978571Y-96209523D01*
X141883333Y-96257142D01*
X141835714Y-96352380D01*
X141835714Y-96542857D01*
X141883333Y-96638095D01*
X142454761Y-96209523D02*
X142502380Y-96304761D01*
X142502380Y-96542857D01*
X142454761Y-96638095D01*
X142359523Y-96685714D01*
X142264285Y-96685714D01*
X142169047Y-96638095D01*
X142121428Y-96542857D01*
X142121428Y-96304761D01*
X142073809Y-96209523D01*
X142502380Y-95590476D02*
X142454761Y-95685714D01*
X142359523Y-95733333D01*
X141502380Y-95733333D01*
X141978571Y-94447619D02*
X141978571Y-94114285D01*
X142502380Y-93971428D02*
X142502380Y-94447619D01*
X141502380Y-94447619D01*
X141502380Y-93971428D01*
X141835714Y-93542857D02*
X142502380Y-93542857D01*
X141930952Y-93542857D02*
X141883333Y-93495238D01*
X141835714Y-93400000D01*
X141835714Y-93257142D01*
X141883333Y-93161904D01*
X141978571Y-93114285D01*
X142502380Y-93114285D01*
X141835714Y-92209523D02*
X142645238Y-92209523D01*
X142740476Y-92257142D01*
X142788095Y-92304761D01*
X142835714Y-92400000D01*
X142835714Y-92542857D01*
X142788095Y-92638095D01*
X142454761Y-92209523D02*
X142502380Y-92304761D01*
X142502380Y-92495238D01*
X142454761Y-92590476D01*
X142407142Y-92638095D01*
X142311904Y-92685714D01*
X142026190Y-92685714D01*
X141930952Y-92638095D01*
X141883333Y-92590476D01*
X141835714Y-92495238D01*
X141835714Y-92304761D01*
X141883333Y-92209523D01*
X142502380Y-91733333D02*
X141835714Y-91733333D01*
X141502380Y-91733333D02*
X141550000Y-91780952D01*
X141597619Y-91733333D01*
X141550000Y-91685714D01*
X141502380Y-91733333D01*
X141597619Y-91733333D01*
X141835714Y-91257142D02*
X142502380Y-91257142D01*
X141930952Y-91257142D02*
X141883333Y-91209523D01*
X141835714Y-91114285D01*
X141835714Y-90971428D01*
X141883333Y-90876190D01*
X141978571Y-90828571D01*
X142502380Y-90828571D01*
X142454761Y-89971428D02*
X142502380Y-90066666D01*
X142502380Y-90257142D01*
X142454761Y-90352380D01*
X142359523Y-90400000D01*
X141978571Y-90400000D01*
X141883333Y-90352380D01*
X141835714Y-90257142D01*
X141835714Y-90066666D01*
X141883333Y-89971428D01*
X141978571Y-89923809D01*
X142073809Y-89923809D01*
X142169047Y-90400000D01*
X142454761Y-89114285D02*
X142502380Y-89209523D01*
X142502380Y-89400000D01*
X142454761Y-89495238D01*
X142359523Y-89542857D01*
X141978571Y-89542857D01*
X141883333Y-89495238D01*
X141835714Y-89400000D01*
X141835714Y-89209523D01*
X141883333Y-89114285D01*
X141978571Y-89066666D01*
X142073809Y-89066666D01*
X142169047Y-89542857D01*
X142502380Y-88638095D02*
X141835714Y-88638095D01*
X142026190Y-88638095D02*
X141930952Y-88590476D01*
X141883333Y-88542857D01*
X141835714Y-88447619D01*
X141835714Y-88352380D01*
X142502380Y-88019047D02*
X141835714Y-88019047D01*
X141502380Y-88019047D02*
X141550000Y-88066666D01*
X141597619Y-88019047D01*
X141550000Y-87971428D01*
X141502380Y-88019047D01*
X141597619Y-88019047D01*
X141835714Y-87542857D02*
X142502380Y-87542857D01*
X141930952Y-87542857D02*
X141883333Y-87495238D01*
X141835714Y-87400000D01*
X141835714Y-87257142D01*
X141883333Y-87161904D01*
X141978571Y-87114285D01*
X142502380Y-87114285D01*
X141835714Y-86209523D02*
X142645238Y-86209523D01*
X142740476Y-86257142D01*
X142788095Y-86304761D01*
X142835714Y-86400000D01*
X142835714Y-86542857D01*
X142788095Y-86638095D01*
X142454761Y-86209523D02*
X142502380Y-86304761D01*
X142502380Y-86495238D01*
X142454761Y-86590476D01*
X142407142Y-86638095D01*
X142311904Y-86685714D01*
X142026190Y-86685714D01*
X141930952Y-86638095D01*
X141883333Y-86590476D01*
X141835714Y-86495238D01*
X141835714Y-86304761D01*
X141883333Y-86209523D01*
D13*
X178571428Y-93871428D02*
X177500000Y-93871428D01*
X177285714Y-93800000D01*
X177142857Y-93657142D01*
X177071428Y-93442857D01*
X177071428Y-93300000D01*
X177071428Y-95300000D02*
X177071428Y-94585714D01*
X178571428Y-94585714D01*
X177214285Y-96657142D02*
X177142857Y-96585714D01*
X177071428Y-96371428D01*
X177071428Y-96228571D01*
X177142857Y-96014285D01*
X177285714Y-95871428D01*
X177428571Y-95800000D01*
X177714285Y-95728571D01*
X177928571Y-95728571D01*
X178214285Y-95800000D01*
X178357142Y-95871428D01*
X178500000Y-96014285D01*
X178571428Y-96228571D01*
X178571428Y-96371428D01*
X178500000Y-96585714D01*
X178428571Y-96657142D01*
X178571428Y-97728571D02*
X177500000Y-97728571D01*
X177285714Y-97657142D01*
X177142857Y-97514285D01*
X177071428Y-97300000D01*
X177071428Y-97157142D01*
X177071428Y-99157142D02*
X177071428Y-98442857D01*
X178571428Y-98442857D01*
X177214285Y-100514285D02*
X177142857Y-100442857D01*
X177071428Y-100228571D01*
X177071428Y-100085714D01*
X177142857Y-99871428D01*
X177285714Y-99728571D01*
X177428571Y-99657142D01*
X177714285Y-99585714D01*
X177928571Y-99585714D01*
X178214285Y-99657142D01*
X178357142Y-99728571D01*
X178500000Y-99871428D01*
X178571428Y-100085714D01*
X178571428Y-100228571D01*
X178500000Y-100442857D01*
X178428571Y-100514285D01*
X178571428Y-101585714D02*
X177500000Y-101585714D01*
X177285714Y-101514285D01*
X177142857Y-101371428D01*
X177071428Y-101157142D01*
X177071428Y-101014285D01*
X177071428Y-103014285D02*
X177071428Y-102300000D01*
X178571428Y-102300000D01*
X177214285Y-104371428D02*
X177142857Y-104300000D01*
X177071428Y-104085714D01*
X177071428Y-103942857D01*
X177142857Y-103728571D01*
X177285714Y-103585714D01*
X177428571Y-103514285D01*
X177714285Y-103442857D01*
X177928571Y-103442857D01*
X178214285Y-103514285D01*
X178357142Y-103585714D01*
X178500000Y-103728571D01*
X178571428Y-103942857D01*
X178571428Y-104085714D01*
X178500000Y-104300000D01*
X178428571Y-104371428D01*
X178571428Y-105442857D02*
X177500000Y-105442857D01*
X177285714Y-105371428D01*
X177142857Y-105228571D01*
X177071428Y-105014285D01*
X177071428Y-104871428D01*
X177071428Y-106871428D02*
X177071428Y-106157142D01*
X178571428Y-106157142D01*
X177214285Y-108228571D02*
X177142857Y-108157142D01*
X177071428Y-107942857D01*
X177071428Y-107800000D01*
X177142857Y-107585714D01*
X177285714Y-107442857D01*
X177428571Y-107371428D01*
X177714285Y-107300000D01*
X177928571Y-107300000D01*
X178214285Y-107371428D01*
X178357142Y-107442857D01*
X178500000Y-107585714D01*
X178571428Y-107800000D01*
X178571428Y-107942857D01*
X178500000Y-108157142D01*
X178428571Y-108228571D01*
X139957142Y-135478571D02*
X139957142Y-133978571D01*
X140457142Y-135050000D01*
X140957142Y-133978571D01*
X140957142Y-135478571D01*
X142314285Y-135478571D02*
X142314285Y-134692857D01*
X142242857Y-134550000D01*
X142100000Y-134478571D01*
X141814285Y-134478571D01*
X141671428Y-134550000D01*
X142314285Y-135407142D02*
X142171428Y-135478571D01*
X141814285Y-135478571D01*
X141671428Y-135407142D01*
X141600000Y-135264285D01*
X141600000Y-135121428D01*
X141671428Y-134978571D01*
X141814285Y-134907142D01*
X142171428Y-134907142D01*
X142314285Y-134835714D01*
X143671428Y-135478571D02*
X143671428Y-133978571D01*
X143671428Y-135407142D02*
X143528571Y-135478571D01*
X143242857Y-135478571D01*
X143100000Y-135407142D01*
X143028571Y-135335714D01*
X142957142Y-135192857D01*
X142957142Y-134764285D01*
X143028571Y-134621428D01*
X143100000Y-134550000D01*
X143242857Y-134478571D01*
X143528571Y-134478571D01*
X143671428Y-134550000D01*
X144957142Y-135407142D02*
X144814285Y-135478571D01*
X144528571Y-135478571D01*
X144385714Y-135407142D01*
X144314285Y-135264285D01*
X144314285Y-134692857D01*
X144385714Y-134550000D01*
X144528571Y-134478571D01*
X144814285Y-134478571D01*
X144957142Y-134550000D01*
X145028571Y-134692857D01*
X145028571Y-134835714D01*
X144314285Y-134978571D01*
X146600000Y-134478571D02*
X147171428Y-134478571D01*
X146814285Y-135478571D02*
X146814285Y-134192857D01*
X146885714Y-134050000D01*
X147028571Y-133978571D01*
X147171428Y-133978571D01*
X147885714Y-135478571D02*
X147742857Y-135407142D01*
X147671428Y-135335714D01*
X147600000Y-135192857D01*
X147600000Y-134764285D01*
X147671428Y-134621428D01*
X147742857Y-134550000D01*
X147885714Y-134478571D01*
X148100000Y-134478571D01*
X148242857Y-134550000D01*
X148314285Y-134621428D01*
X148385714Y-134764285D01*
X148385714Y-135192857D01*
X148314285Y-135335714D01*
X148242857Y-135407142D01*
X148100000Y-135478571D01*
X147885714Y-135478571D01*
X149028571Y-135478571D02*
X149028571Y-134478571D01*
X149028571Y-134764285D02*
X149100000Y-134621428D01*
X149171428Y-134550000D01*
X149314285Y-134478571D01*
X149457142Y-134478571D01*
X150885714Y-134478571D02*
X151457142Y-134478571D01*
X151100000Y-133978571D02*
X151100000Y-135264285D01*
X151171428Y-135407142D01*
X151314285Y-135478571D01*
X151457142Y-135478571D01*
X151957142Y-135478571D02*
X151957142Y-133978571D01*
X152600000Y-135478571D02*
X152600000Y-134692857D01*
X152528571Y-134550000D01*
X152385714Y-134478571D01*
X152171428Y-134478571D01*
X152028571Y-134550000D01*
X151957142Y-134621428D01*
X153885714Y-135407142D02*
X153742857Y-135478571D01*
X153457142Y-135478571D01*
X153314285Y-135407142D01*
X153242857Y-135264285D01*
X153242857Y-134692857D01*
X153314285Y-134550000D01*
X153457142Y-134478571D01*
X153742857Y-134478571D01*
X153885714Y-134550000D01*
X153957142Y-134692857D01*
X153957142Y-134835714D01*
X153242857Y-134978571D01*
X156385714Y-135478571D02*
X156385714Y-134692857D01*
X156314285Y-134550000D01*
X156171428Y-134478571D01*
X155885714Y-134478571D01*
X155742857Y-134550000D01*
X156385714Y-135407142D02*
X156242857Y-135478571D01*
X155885714Y-135478571D01*
X155742857Y-135407142D01*
X155671428Y-135264285D01*
X155671428Y-135121428D01*
X155742857Y-134978571D01*
X155885714Y-134907142D01*
X156242857Y-134907142D01*
X156385714Y-134835714D01*
X157100000Y-135478571D02*
X157100000Y-134478571D01*
X157100000Y-134621428D02*
X157171428Y-134550000D01*
X157314285Y-134478571D01*
X157528571Y-134478571D01*
X157671428Y-134550000D01*
X157742857Y-134692857D01*
X157742857Y-135478571D01*
X157742857Y-134692857D02*
X157814285Y-134550000D01*
X157957142Y-134478571D01*
X158171428Y-134478571D01*
X158314285Y-134550000D01*
X158385714Y-134692857D01*
X158385714Y-135478571D01*
X159742857Y-135478571D02*
X159742857Y-134692857D01*
X159671428Y-134550000D01*
X159528571Y-134478571D01*
X159242857Y-134478571D01*
X159100000Y-134550000D01*
X159742857Y-135407142D02*
X159600000Y-135478571D01*
X159242857Y-135478571D01*
X159100000Y-135407142D01*
X159028571Y-135264285D01*
X159028571Y-135121428D01*
X159100000Y-134978571D01*
X159242857Y-134907142D01*
X159600000Y-134907142D01*
X159742857Y-134835714D01*
X160314285Y-134478571D02*
X161100000Y-134478571D01*
X160314285Y-135478571D01*
X161100000Y-135478571D01*
X161671428Y-135478571D02*
X161671428Y-134478571D01*
X161671428Y-133978571D02*
X161600000Y-134050000D01*
X161671428Y-134121428D01*
X161742857Y-134050000D01*
X161671428Y-133978571D01*
X161671428Y-134121428D01*
X162385714Y-134478571D02*
X162385714Y-135478571D01*
X162385714Y-134621428D02*
X162457142Y-134550000D01*
X162600000Y-134478571D01*
X162814285Y-134478571D01*
X162957142Y-134550000D01*
X163028571Y-134692857D01*
X163028571Y-135478571D01*
X164385714Y-134478571D02*
X164385714Y-135692857D01*
X164314285Y-135835714D01*
X164242857Y-135907142D01*
X164100000Y-135978571D01*
X163885714Y-135978571D01*
X163742857Y-135907142D01*
X164385714Y-135407142D02*
X164242857Y-135478571D01*
X163957142Y-135478571D01*
X163814285Y-135407142D01*
X163742857Y-135335714D01*
X163671428Y-135192857D01*
X163671428Y-134764285D01*
X163742857Y-134621428D01*
X163814285Y-134550000D01*
X163957142Y-134478571D01*
X164242857Y-134478571D01*
X164385714Y-134550000D01*
X166242857Y-135478571D02*
X166242857Y-133978571D01*
X166600000Y-133978571D01*
X166814285Y-134050000D01*
X166957142Y-134192857D01*
X167028571Y-134335714D01*
X167100000Y-134621428D01*
X167100000Y-134835714D01*
X167028571Y-135121428D01*
X166957142Y-135264285D01*
X166814285Y-135407142D01*
X166600000Y-135478571D01*
X166242857Y-135478571D01*
X167742857Y-135478571D02*
X167742857Y-134478571D01*
X167742857Y-134764285D02*
X167814285Y-134621428D01*
X167885714Y-134550000D01*
X168028571Y-134478571D01*
X168171428Y-134478571D01*
X168671428Y-135335714D02*
X168742857Y-135407142D01*
X168671428Y-135478571D01*
X168600000Y-135407142D01*
X168671428Y-135335714D01*
X168671428Y-135478571D01*
X170528571Y-135478571D02*
X170528571Y-133978571D01*
X171385714Y-135478571D02*
X170742857Y-134621428D01*
X171385714Y-133978571D02*
X170528571Y-134835714D01*
X172028571Y-135478571D02*
X172028571Y-134478571D01*
X172028571Y-133978571D02*
X171957142Y-134050000D01*
X172028571Y-134121428D01*
X172100000Y-134050000D01*
X172028571Y-133978571D01*
X172028571Y-134121428D01*
X172742857Y-134478571D02*
X172742857Y-135478571D01*
X172742857Y-134621428D02*
X172814285Y-134550000D01*
X172957142Y-134478571D01*
X173171428Y-134478571D01*
X173314285Y-134550000D01*
X173385714Y-134692857D01*
X173385714Y-135478571D01*
X174742857Y-134478571D02*
X174742857Y-135692857D01*
X174671428Y-135835714D01*
X174600000Y-135907142D01*
X174457142Y-135978571D01*
X174242857Y-135978571D01*
X174100000Y-135907142D01*
X174742857Y-135407142D02*
X174600000Y-135478571D01*
X174314285Y-135478571D01*
X174171428Y-135407142D01*
X174100000Y-135335714D01*
X174028571Y-135192857D01*
X174028571Y-134764285D01*
X174100000Y-134621428D01*
X174171428Y-134550000D01*
X174314285Y-134478571D01*
X174600000Y-134478571D01*
X174742857Y-134550000D01*
D11*
X134147619Y-102840595D02*
X133047619Y-102840595D01*
X133833333Y-102473928D01*
X133047619Y-102107261D01*
X134147619Y-102107261D01*
X134147619Y-101112023D02*
X133571428Y-101112023D01*
X133466666Y-101164404D01*
X133414285Y-101269166D01*
X133414285Y-101478690D01*
X133466666Y-101583452D01*
X134095238Y-101112023D02*
X134147619Y-101216785D01*
X134147619Y-101478690D01*
X134095238Y-101583452D01*
X133990476Y-101635833D01*
X133885714Y-101635833D01*
X133780952Y-101583452D01*
X133728571Y-101478690D01*
X133728571Y-101216785D01*
X133676190Y-101112023D01*
X134147619Y-100116785D02*
X133047619Y-100116785D01*
X134095238Y-100116785D02*
X134147619Y-100221547D01*
X134147619Y-100431071D01*
X134095238Y-100535833D01*
X134042857Y-100588214D01*
X133938095Y-100640595D01*
X133623809Y-100640595D01*
X133519047Y-100588214D01*
X133466666Y-100535833D01*
X133414285Y-100431071D01*
X133414285Y-100221547D01*
X133466666Y-100116785D01*
X134095238Y-99173928D02*
X134147619Y-99278690D01*
X134147619Y-99488214D01*
X134095238Y-99592976D01*
X133990476Y-99645357D01*
X133571428Y-99645357D01*
X133466666Y-99592976D01*
X133414285Y-99488214D01*
X133414285Y-99278690D01*
X133466666Y-99173928D01*
X133571428Y-99121547D01*
X133676190Y-99121547D01*
X133780952Y-99645357D01*
X134147619Y-97812023D02*
X133047619Y-97812023D01*
X133466666Y-97812023D02*
X133414285Y-97707261D01*
X133414285Y-97497738D01*
X133466666Y-97392976D01*
X133519047Y-97340595D01*
X133623809Y-97288214D01*
X133938095Y-97288214D01*
X134042857Y-97340595D01*
X134095238Y-97392976D01*
X134147619Y-97497738D01*
X134147619Y-97707261D01*
X134095238Y-97812023D01*
X133414285Y-96921547D02*
X134147619Y-96659642D01*
X133414285Y-96397738D02*
X134147619Y-96659642D01*
X134409523Y-96764404D01*
X134461904Y-96816785D01*
X134514285Y-96921547D01*
X134042857Y-95978690D02*
X134095238Y-95926309D01*
X134147619Y-95978690D01*
X134095238Y-96031071D01*
X134042857Y-95978690D01*
X134147619Y-95978690D01*
X133466666Y-95978690D02*
X133519047Y-95926309D01*
X133571428Y-95978690D01*
X133519047Y-96031071D01*
X133466666Y-95978690D01*
X133571428Y-95978690D01*
X135842857Y-102212023D02*
X135895238Y-102264404D01*
X135947619Y-102421547D01*
X135947619Y-102526309D01*
X135895238Y-102683452D01*
X135790476Y-102788214D01*
X135685714Y-102840595D01*
X135476190Y-102892976D01*
X135319047Y-102892976D01*
X135109523Y-102840595D01*
X135004761Y-102788214D01*
X134900000Y-102683452D01*
X134847619Y-102526309D01*
X134847619Y-102421547D01*
X134900000Y-102264404D01*
X134952380Y-102212023D01*
X135947619Y-101740595D02*
X134847619Y-101740595D01*
X135947619Y-101269166D02*
X135371428Y-101269166D01*
X135266666Y-101321547D01*
X135214285Y-101426309D01*
X135214285Y-101583452D01*
X135266666Y-101688214D01*
X135319047Y-101740595D01*
X135947619Y-100273928D02*
X135371428Y-100273928D01*
X135266666Y-100326309D01*
X135214285Y-100431071D01*
X135214285Y-100640595D01*
X135266666Y-100745357D01*
X135895238Y-100273928D02*
X135947619Y-100378690D01*
X135947619Y-100640595D01*
X135895238Y-100745357D01*
X135790476Y-100797738D01*
X135685714Y-100797738D01*
X135580952Y-100745357D01*
X135528571Y-100640595D01*
X135528571Y-100378690D01*
X135476190Y-100273928D01*
X135947619Y-99750119D02*
X135214285Y-99750119D01*
X135423809Y-99750119D02*
X135319047Y-99697738D01*
X135266666Y-99645357D01*
X135214285Y-99540595D01*
X135214285Y-99435833D01*
X135947619Y-98912023D02*
X135895238Y-99016785D01*
X135790476Y-99069166D01*
X134847619Y-99069166D01*
X135895238Y-98073928D02*
X135947619Y-98178690D01*
X135947619Y-98388214D01*
X135895238Y-98492976D01*
X135790476Y-98545357D01*
X135371428Y-98545357D01*
X135266666Y-98492976D01*
X135214285Y-98388214D01*
X135214285Y-98178690D01*
X135266666Y-98073928D01*
X135371428Y-98021547D01*
X135476190Y-98021547D01*
X135580952Y-98545357D01*
X135947619Y-97550119D02*
X135214285Y-97550119D01*
X135319047Y-97550119D02*
X135266666Y-97497738D01*
X135214285Y-97392976D01*
X135214285Y-97235833D01*
X135266666Y-97131071D01*
X135371428Y-97078690D01*
X135947619Y-97078690D01*
X135371428Y-97078690D02*
X135266666Y-97026309D01*
X135214285Y-96921547D01*
X135214285Y-96764404D01*
X135266666Y-96659642D01*
X135371428Y-96607261D01*
X135947619Y-96607261D01*
X135947619Y-95612023D02*
X135371428Y-95612023D01*
X135266666Y-95664404D01*
X135214285Y-95769166D01*
X135214285Y-95978690D01*
X135266666Y-96083452D01*
X135895238Y-95612023D02*
X135947619Y-95716785D01*
X135947619Y-95978690D01*
X135895238Y-96083452D01*
X135790476Y-96135833D01*
X135685714Y-96135833D01*
X135580952Y-96083452D01*
X135528571Y-95978690D01*
X135528571Y-95716785D01*
X135476190Y-95612023D01*
X135214285Y-94616785D02*
X136104761Y-94616785D01*
X136209523Y-94669166D01*
X136261904Y-94721547D01*
X136314285Y-94826309D01*
X136314285Y-94983452D01*
X136261904Y-95088214D01*
X135895238Y-94616785D02*
X135947619Y-94721547D01*
X135947619Y-94931071D01*
X135895238Y-95035833D01*
X135842857Y-95088214D01*
X135738095Y-95140595D01*
X135423809Y-95140595D01*
X135319047Y-95088214D01*
X135266666Y-95035833D01*
X135214285Y-94931071D01*
X135214285Y-94721547D01*
X135266666Y-94616785D01*
X135214285Y-94092976D02*
X135947619Y-94092976D01*
X135319047Y-94092976D02*
X135266666Y-94040595D01*
X135214285Y-93935833D01*
X135214285Y-93778690D01*
X135266666Y-93673928D01*
X135371428Y-93621547D01*
X135947619Y-93621547D01*
X135895238Y-92678690D02*
X135947619Y-92783452D01*
X135947619Y-92992976D01*
X135895238Y-93097738D01*
X135790476Y-93150119D01*
X135371428Y-93150119D01*
X135266666Y-93097738D01*
X135214285Y-92992976D01*
X135214285Y-92783452D01*
X135266666Y-92678690D01*
X135371428Y-92626309D01*
X135476190Y-92626309D01*
X135580952Y-93150119D01*
X134847619Y-91421547D02*
X135947619Y-91159642D01*
X135161904Y-90950119D01*
X135947619Y-90740595D01*
X134847619Y-90478690D01*
X135947619Y-89902500D02*
X135895238Y-90007261D01*
X135842857Y-90059642D01*
X135738095Y-90112023D01*
X135423809Y-90112023D01*
X135319047Y-90059642D01*
X135266666Y-90007261D01*
X135214285Y-89902500D01*
X135214285Y-89745357D01*
X135266666Y-89640595D01*
X135319047Y-89588214D01*
X135423809Y-89535833D01*
X135738095Y-89535833D01*
X135842857Y-89588214D01*
X135895238Y-89640595D01*
X135947619Y-89745357D01*
X135947619Y-89902500D01*
X135214285Y-89064404D02*
X135947619Y-89064404D01*
X135319047Y-89064404D02*
X135266666Y-89012023D01*
X135214285Y-88907261D01*
X135214285Y-88750119D01*
X135266666Y-88645357D01*
X135371428Y-88592976D01*
X135947619Y-88592976D01*
X135214285Y-87597738D02*
X136104761Y-87597738D01*
X136209523Y-87650119D01*
X136261904Y-87702500D01*
X136314285Y-87807261D01*
X136314285Y-87964404D01*
X136261904Y-88069166D01*
X135895238Y-87597738D02*
X135947619Y-87702500D01*
X135947619Y-87912023D01*
X135895238Y-88016785D01*
X135842857Y-88069166D01*
X135738095Y-88121547D01*
X135423809Y-88121547D01*
X135319047Y-88069166D01*
X135266666Y-88016785D01*
X135214285Y-87912023D01*
X135214285Y-87702500D01*
X135266666Y-87597738D01*
X137642857Y-102212023D02*
X137695238Y-102264404D01*
X137747619Y-102421547D01*
X137747619Y-102526309D01*
X137695238Y-102683452D01*
X137590476Y-102788214D01*
X137485714Y-102840595D01*
X137276190Y-102892976D01*
X137119047Y-102892976D01*
X136909523Y-102840595D01*
X136804761Y-102788214D01*
X136700000Y-102683452D01*
X136647619Y-102526309D01*
X136647619Y-102421547D01*
X136700000Y-102264404D01*
X136752380Y-102212023D01*
X137171428Y-101740595D02*
X137171428Y-101373928D01*
X137747619Y-101216785D02*
X137747619Y-101740595D01*
X136647619Y-101740595D01*
X136647619Y-101216785D01*
X137642857Y-100116785D02*
X137695238Y-100169166D01*
X137747619Y-100326309D01*
X137747619Y-100431071D01*
X137695238Y-100588214D01*
X137590476Y-100692976D01*
X137485714Y-100745357D01*
X137276190Y-100797738D01*
X137119047Y-100797738D01*
X136909523Y-100745357D01*
X136804761Y-100692976D01*
X136700000Y-100588214D01*
X136647619Y-100431071D01*
X136647619Y-100326309D01*
X136700000Y-100169166D01*
X136752380Y-100116785D01*
X137747619Y-99645357D02*
X136647619Y-99645357D01*
X137747619Y-99016785D01*
X136647619Y-99016785D01*
X136752380Y-97707261D02*
X136700000Y-97654880D01*
X136647619Y-97550119D01*
X136647619Y-97288214D01*
X136700000Y-97183452D01*
X136752380Y-97131071D01*
X136857142Y-97078690D01*
X136961904Y-97078690D01*
X137119047Y-97131071D01*
X137747619Y-97759642D01*
X137747619Y-97078690D01*
X137747619Y-96031071D02*
X137747619Y-96659642D01*
X137747619Y-96345357D02*
X136647619Y-96345357D01*
X136804761Y-96450119D01*
X136909523Y-96554880D01*
X136961904Y-96659642D01*
X136647619Y-95507261D02*
X136857142Y-95612023D01*
D14*
X129439285Y-102351785D02*
X129496428Y-102180357D01*
X129553571Y-102123214D01*
X129667857Y-102066071D01*
X129839285Y-102066071D01*
X129953571Y-102123214D01*
X130010714Y-102180357D01*
X130067857Y-102294642D01*
X130067857Y-102751785D01*
X128867857Y-102751785D01*
X128867857Y-102351785D01*
X128925000Y-102237500D01*
X128982142Y-102180357D01*
X129096428Y-102123214D01*
X129210714Y-102123214D01*
X129325000Y-102180357D01*
X129382142Y-102237500D01*
X129439285Y-102351785D01*
X129439285Y-102751785D01*
X130067857Y-101551785D02*
X129267857Y-101551785D01*
X128867857Y-101551785D02*
X128925000Y-101608928D01*
X128982142Y-101551785D01*
X128925000Y-101494642D01*
X128867857Y-101551785D01*
X128982142Y-101551785D01*
X130067857Y-100808928D02*
X130010714Y-100923214D01*
X129953571Y-100980357D01*
X129839285Y-101037500D01*
X129496428Y-101037500D01*
X129382142Y-100980357D01*
X129325000Y-100923214D01*
X129267857Y-100808928D01*
X129267857Y-100637500D01*
X129325000Y-100523214D01*
X129382142Y-100466071D01*
X129496428Y-100408928D01*
X129839285Y-100408928D01*
X129953571Y-100466071D01*
X130010714Y-100523214D01*
X130067857Y-100637500D01*
X130067857Y-100808928D01*
X130067857Y-99380357D02*
X129439285Y-99380357D01*
X129325000Y-99437500D01*
X129267857Y-99551785D01*
X129267857Y-99780357D01*
X129325000Y-99894642D01*
X130010714Y-99380357D02*
X130067857Y-99494642D01*
X130067857Y-99780357D01*
X130010714Y-99894642D01*
X129896428Y-99951785D01*
X129782142Y-99951785D01*
X129667857Y-99894642D01*
X129610714Y-99780357D01*
X129610714Y-99494642D01*
X129553571Y-99380357D01*
X130010714Y-98351785D02*
X130067857Y-98466071D01*
X130067857Y-98694642D01*
X130010714Y-98808928D01*
X129896428Y-98866071D01*
X129439285Y-98866071D01*
X129325000Y-98808928D01*
X129267857Y-98694642D01*
X129267857Y-98466071D01*
X129325000Y-98351785D01*
X129439285Y-98294642D01*
X129553571Y-98294642D01*
X129667857Y-98866071D01*
X130067857Y-97780357D02*
X129267857Y-97780357D01*
X129496428Y-97780357D02*
X129382142Y-97723214D01*
X129325000Y-97666071D01*
X129267857Y-97551785D01*
X129267857Y-97437500D01*
X130067857Y-96866071D02*
X130010714Y-96980357D01*
X129953571Y-97037500D01*
X129839285Y-97094642D01*
X129496428Y-97094642D01*
X129382142Y-97037500D01*
X129325000Y-96980357D01*
X129267857Y-96866071D01*
X129267857Y-96694642D01*
X129325000Y-96580357D01*
X129382142Y-96523214D01*
X129496428Y-96466071D01*
X129839285Y-96466071D01*
X129953571Y-96523214D01*
X130010714Y-96580357D01*
X130067857Y-96694642D01*
X130067857Y-96866071D01*
X130010714Y-96008928D02*
X130067857Y-95894642D01*
X130067857Y-95666071D01*
X130010714Y-95551785D01*
X129896428Y-95494642D01*
X129839285Y-95494642D01*
X129725000Y-95551785D01*
X129667857Y-95666071D01*
X129667857Y-95837500D01*
X129610714Y-95951785D01*
X129496428Y-96008928D01*
X129439285Y-96008928D01*
X129325000Y-95951785D01*
X129267857Y-95837500D01*
X129267857Y-95666071D01*
X129325000Y-95551785D01*
X130067857Y-94808928D02*
X130010714Y-94923214D01*
X129953571Y-94980357D01*
X129839285Y-95037500D01*
X129496428Y-95037500D01*
X129382142Y-94980357D01*
X129325000Y-94923214D01*
X129267857Y-94808928D01*
X129267857Y-94637500D01*
X129325000Y-94523214D01*
X129382142Y-94466071D01*
X129496428Y-94408928D01*
X129839285Y-94408928D01*
X129953571Y-94466071D01*
X130010714Y-94523214D01*
X130067857Y-94637500D01*
X130067857Y-94808928D01*
X130067857Y-93723214D02*
X130010714Y-93837500D01*
X129896428Y-93894642D01*
X128867857Y-93894642D01*
X132003571Y-102066071D02*
X132060714Y-102123214D01*
X132117857Y-102294642D01*
X132117857Y-102408928D01*
X132060714Y-102580357D01*
X131946428Y-102694642D01*
X131832142Y-102751785D01*
X131603571Y-102808928D01*
X131432142Y-102808928D01*
X131203571Y-102751785D01*
X131089285Y-102694642D01*
X130975000Y-102580357D01*
X130917857Y-102408928D01*
X130917857Y-102294642D01*
X130975000Y-102123214D01*
X131032142Y-102066071D01*
X132117857Y-101380357D02*
X132060714Y-101494642D01*
X132003571Y-101551785D01*
X131889285Y-101608928D01*
X131546428Y-101608928D01*
X131432142Y-101551785D01*
X131375000Y-101494642D01*
X131317857Y-101380357D01*
X131317857Y-101208928D01*
X131375000Y-101094642D01*
X131432142Y-101037500D01*
X131546428Y-100980357D01*
X131889285Y-100980357D01*
X132003571Y-101037500D01*
X132060714Y-101094642D01*
X132117857Y-101208928D01*
X132117857Y-101380357D01*
X132117857Y-100294642D02*
X132060714Y-100408928D01*
X131946428Y-100466071D01*
X130917857Y-100466071D01*
X132117857Y-99666071D02*
X132060714Y-99780357D01*
X131946428Y-99837500D01*
X130917857Y-99837500D01*
X132060714Y-98751785D02*
X132117857Y-98866071D01*
X132117857Y-99094642D01*
X132060714Y-99208928D01*
X131946428Y-99266071D01*
X131489285Y-99266071D01*
X131375000Y-99208928D01*
X131317857Y-99094642D01*
X131317857Y-98866071D01*
X131375000Y-98751785D01*
X131489285Y-98694642D01*
X131603571Y-98694642D01*
X131717857Y-99266071D01*
X132060714Y-97666071D02*
X132117857Y-97780357D01*
X132117857Y-98008928D01*
X132060714Y-98123214D01*
X132003571Y-98180357D01*
X131889285Y-98237500D01*
X131546428Y-98237500D01*
X131432142Y-98180357D01*
X131375000Y-98123214D01*
X131317857Y-98008928D01*
X131317857Y-97780357D01*
X131375000Y-97666071D01*
X131317857Y-97323214D02*
X131317857Y-96866071D01*
X130917857Y-97151785D02*
X131946428Y-97151785D01*
X132060714Y-97094642D01*
X132117857Y-96980357D01*
X132117857Y-96866071D01*
X132117857Y-96294642D02*
X132060714Y-96408928D01*
X132003571Y-96466071D01*
X131889285Y-96523214D01*
X131546428Y-96523214D01*
X131432142Y-96466071D01*
X131375000Y-96408928D01*
X131317857Y-96294642D01*
X131317857Y-96123214D01*
X131375000Y-96008928D01*
X131432142Y-95951785D01*
X131546428Y-95894642D01*
X131889285Y-95894642D01*
X132003571Y-95951785D01*
X132060714Y-96008928D01*
X132117857Y-96123214D01*
X132117857Y-96294642D01*
X132117857Y-95380357D02*
X131317857Y-95380357D01*
X131546428Y-95380357D02*
X131432142Y-95323214D01*
X131375000Y-95266071D01*
X131317857Y-95151785D01*
X131317857Y-95037500D01*
X132117857Y-93723214D02*
X130917857Y-93723214D01*
X131775000Y-93323214D01*
X130917857Y-92923214D01*
X132117857Y-92923214D01*
X132117857Y-92351785D02*
X131317857Y-92351785D01*
X130917857Y-92351785D02*
X130975000Y-92408928D01*
X131032142Y-92351785D01*
X130975000Y-92294642D01*
X130917857Y-92351785D01*
X131032142Y-92351785D01*
X132003571Y-91094642D02*
X132060714Y-91151785D01*
X132117857Y-91323214D01*
X132117857Y-91437500D01*
X132060714Y-91608928D01*
X131946428Y-91723214D01*
X131832142Y-91780357D01*
X131603571Y-91837500D01*
X131432142Y-91837500D01*
X131203571Y-91780357D01*
X131089285Y-91723214D01*
X130975000Y-91608928D01*
X130917857Y-91437500D01*
X130917857Y-91323214D01*
X130975000Y-91151785D01*
X131032142Y-91094642D01*
X132117857Y-90408928D02*
X132060714Y-90523214D01*
X131946428Y-90580357D01*
X130917857Y-90580357D01*
X132117857Y-89780357D02*
X132060714Y-89894642D01*
X132003571Y-89951785D01*
X131889285Y-90008928D01*
X131546428Y-90008928D01*
X131432142Y-89951785D01*
X131375000Y-89894642D01*
X131317857Y-89780357D01*
X131317857Y-89608928D01*
X131375000Y-89494642D01*
X131432142Y-89437500D01*
X131546428Y-89380357D01*
X131889285Y-89380357D01*
X132003571Y-89437500D01*
X132060714Y-89494642D01*
X132117857Y-89608928D01*
X132117857Y-89780357D01*
X131317857Y-88866071D02*
X132117857Y-88866071D01*
X131432142Y-88866071D02*
X131375000Y-88808928D01*
X131317857Y-88694642D01*
X131317857Y-88523214D01*
X131375000Y-88408928D01*
X131489285Y-88351785D01*
X132117857Y-88351785D01*
X132060714Y-87323214D02*
X132117857Y-87437500D01*
X132117857Y-87666071D01*
X132060714Y-87780357D01*
X131946428Y-87837500D01*
X131489285Y-87837500D01*
X131375000Y-87780357D01*
X131317857Y-87666071D01*
X131317857Y-87437500D01*
X131375000Y-87323214D01*
X131489285Y-87266071D01*
X131603571Y-87266071D01*
X131717857Y-87837500D01*
D13*
X139966666Y-115473571D02*
X139966666Y-114854523D01*
X140338095Y-115597380D02*
X139038095Y-115164047D01*
X140338095Y-114730714D01*
X140276190Y-113802142D02*
X140338095Y-113925952D01*
X140338095Y-114173571D01*
X140276190Y-114297380D01*
X140152380Y-114359285D01*
X139657142Y-114359285D01*
X139533333Y-114297380D01*
X139471428Y-114173571D01*
X139471428Y-113925952D01*
X139533333Y-113802142D01*
X139657142Y-113740238D01*
X139780952Y-113740238D01*
X139904761Y-114359285D01*
X140338095Y-113183095D02*
X139471428Y-113183095D01*
X139719047Y-113183095D02*
X139595238Y-113121190D01*
X139533333Y-113059285D01*
X139471428Y-112935476D01*
X139471428Y-112811666D01*
X140338095Y-112192619D02*
X140276190Y-112316428D01*
X140214285Y-112378333D01*
X140090476Y-112440238D01*
X139719047Y-112440238D01*
X139595238Y-112378333D01*
X139533333Y-112316428D01*
X139471428Y-112192619D01*
X139471428Y-112006904D01*
X139533333Y-111883095D01*
X139595238Y-111821190D01*
X139719047Y-111759285D01*
X140090476Y-111759285D01*
X140214285Y-111821190D01*
X140276190Y-111883095D01*
X140338095Y-112006904D01*
X140338095Y-112192619D01*
X140276190Y-111264047D02*
X140338095Y-111140238D01*
X140338095Y-110892619D01*
X140276190Y-110768809D01*
X140152380Y-110706904D01*
X140090476Y-110706904D01*
X139966666Y-110768809D01*
X139904761Y-110892619D01*
X139904761Y-111078333D01*
X139842857Y-111202142D01*
X139719047Y-111264047D01*
X139657142Y-111264047D01*
X139533333Y-111202142D01*
X139471428Y-111078333D01*
X139471428Y-110892619D01*
X139533333Y-110768809D01*
X140338095Y-109964047D02*
X140276190Y-110087857D01*
X140214285Y-110149761D01*
X140090476Y-110211666D01*
X139719047Y-110211666D01*
X139595238Y-110149761D01*
X139533333Y-110087857D01*
X139471428Y-109964047D01*
X139471428Y-109778333D01*
X139533333Y-109654523D01*
X139595238Y-109592619D01*
X139719047Y-109530714D01*
X140090476Y-109530714D01*
X140214285Y-109592619D01*
X140276190Y-109654523D01*
X140338095Y-109778333D01*
X140338095Y-109964047D01*
X140338095Y-108787857D02*
X140276190Y-108911666D01*
X140152380Y-108973571D01*
X139038095Y-108973571D01*
X139038095Y-107487857D02*
X139038095Y-106745000D01*
X140338095Y-107116428D02*
X139038095Y-107116428D01*
X140276190Y-105816428D02*
X140338095Y-105940238D01*
X140338095Y-106187857D01*
X140276190Y-106311666D01*
X140152380Y-106373571D01*
X139657142Y-106373571D01*
X139533333Y-106311666D01*
X139471428Y-106187857D01*
X139471428Y-105940238D01*
X139533333Y-105816428D01*
X139657142Y-105754523D01*
X139780952Y-105754523D01*
X139904761Y-106373571D01*
X140276190Y-104640238D02*
X140338095Y-104764047D01*
X140338095Y-105011666D01*
X140276190Y-105135476D01*
X140214285Y-105197380D01*
X140090476Y-105259285D01*
X139719047Y-105259285D01*
X139595238Y-105197380D01*
X139533333Y-105135476D01*
X139471428Y-105011666D01*
X139471428Y-104764047D01*
X139533333Y-104640238D01*
X140338095Y-104083095D02*
X139038095Y-104083095D01*
X140338095Y-103525952D02*
X139657142Y-103525952D01*
X139533333Y-103587857D01*
X139471428Y-103711666D01*
X139471428Y-103897380D01*
X139533333Y-104021190D01*
X139595238Y-104083095D01*
X139471428Y-102906904D02*
X140338095Y-102906904D01*
X139595238Y-102906904D02*
X139533333Y-102845000D01*
X139471428Y-102721190D01*
X139471428Y-102535476D01*
X139533333Y-102411666D01*
X139657142Y-102349761D01*
X140338095Y-102349761D01*
X140338095Y-101545000D02*
X140276190Y-101668809D01*
X140214285Y-101730714D01*
X140090476Y-101792619D01*
X139719047Y-101792619D01*
X139595238Y-101730714D01*
X139533333Y-101668809D01*
X139471428Y-101545000D01*
X139471428Y-101359285D01*
X139533333Y-101235476D01*
X139595238Y-101173571D01*
X139719047Y-101111666D01*
X140090476Y-101111666D01*
X140214285Y-101173571D01*
X140276190Y-101235476D01*
X140338095Y-101359285D01*
X140338095Y-101545000D01*
X140338095Y-100368809D02*
X140276190Y-100492619D01*
X140152380Y-100554523D01*
X139038095Y-100554523D01*
X140338095Y-99687857D02*
X140276190Y-99811666D01*
X140214285Y-99873571D01*
X140090476Y-99935476D01*
X139719047Y-99935476D01*
X139595238Y-99873571D01*
X139533333Y-99811666D01*
X139471428Y-99687857D01*
X139471428Y-99502142D01*
X139533333Y-99378333D01*
X139595238Y-99316428D01*
X139719047Y-99254523D01*
X140090476Y-99254523D01*
X140214285Y-99316428D01*
X140276190Y-99378333D01*
X140338095Y-99502142D01*
X140338095Y-99687857D01*
X139471428Y-98140238D02*
X140523809Y-98140238D01*
X140647619Y-98202142D01*
X140709523Y-98264047D01*
X140771428Y-98387857D01*
X140771428Y-98573571D01*
X140709523Y-98697380D01*
X140276190Y-98140238D02*
X140338095Y-98264047D01*
X140338095Y-98511666D01*
X140276190Y-98635476D01*
X140214285Y-98697380D01*
X140090476Y-98759285D01*
X139719047Y-98759285D01*
X139595238Y-98697380D01*
X139533333Y-98635476D01*
X139471428Y-98511666D01*
X139471428Y-98264047D01*
X139533333Y-98140238D01*
X139471428Y-97645000D02*
X140338095Y-97335476D01*
X139471428Y-97025952D02*
X140338095Y-97335476D01*
X140647619Y-97459285D01*
X140709523Y-97521190D01*
X140771428Y-97645000D01*
X140338095Y-94921190D02*
X140338095Y-95540238D01*
X139038095Y-95540238D01*
X140338095Y-93930714D02*
X139657142Y-93930714D01*
X139533333Y-93992619D01*
X139471428Y-94116428D01*
X139471428Y-94364047D01*
X139533333Y-94487857D01*
X140276190Y-93930714D02*
X140338095Y-94054523D01*
X140338095Y-94364047D01*
X140276190Y-94487857D01*
X140152380Y-94549761D01*
X140028571Y-94549761D01*
X139904761Y-94487857D01*
X139842857Y-94364047D01*
X139842857Y-94054523D01*
X139780952Y-93930714D01*
X140338095Y-93311666D02*
X139038095Y-93311666D01*
X139533333Y-93311666D02*
X139471428Y-93187857D01*
X139471428Y-92940238D01*
X139533333Y-92816428D01*
X139595238Y-92754523D01*
X139719047Y-92692619D01*
X140090476Y-92692619D01*
X140214285Y-92754523D01*
X140276190Y-92816428D01*
X140338095Y-92940238D01*
X140338095Y-93187857D01*
X140276190Y-93311666D01*
D11*
X178302380Y-134571428D02*
X177826190Y-134904761D01*
X178302380Y-135142857D02*
X177302380Y-135142857D01*
X177302380Y-134761904D01*
X177350000Y-134666666D01*
X177397619Y-134619047D01*
X177492857Y-134571428D01*
X177635714Y-134571428D01*
X177730952Y-134619047D01*
X177778571Y-134666666D01*
X177826190Y-134761904D01*
X177826190Y-135142857D01*
X178254761Y-133761904D02*
X178302380Y-133857142D01*
X178302380Y-134047619D01*
X178254761Y-134142857D01*
X178159523Y-134190476D01*
X177778571Y-134190476D01*
X177683333Y-134142857D01*
X177635714Y-134047619D01*
X177635714Y-133857142D01*
X177683333Y-133761904D01*
X177778571Y-133714285D01*
X177873809Y-133714285D01*
X177969047Y-134190476D01*
X177635714Y-133380952D02*
X178302380Y-133142857D01*
X177635714Y-132904761D01*
X178302380Y-131238095D02*
X178302380Y-131809523D01*
X178302380Y-131523809D02*
X177302380Y-131523809D01*
X177445238Y-131619047D01*
X177540476Y-131714285D01*
X177588095Y-131809523D01*
X178207142Y-130809523D02*
X178254761Y-130761904D01*
X178302380Y-130809523D01*
X178254761Y-130857142D01*
X178207142Y-130809523D01*
X178302380Y-130809523D01*
X177302380Y-130142857D02*
X177302380Y-130047619D01*
X177350000Y-129952380D01*
X177397619Y-129904761D01*
X177492857Y-129857142D01*
X177683333Y-129809523D01*
X177921428Y-129809523D01*
X178111904Y-129857142D01*
X178207142Y-129904761D01*
X178254761Y-129952380D01*
X178302380Y-130047619D01*
X178302380Y-130142857D01*
X178254761Y-130238095D01*
X178207142Y-130285714D01*
X178111904Y-130333333D01*
X177921428Y-130380952D01*
X177683333Y-130380952D01*
X177492857Y-130333333D01*
X177397619Y-130285714D01*
X177350000Y-130238095D01*
X177302380Y-130142857D01*
D15*
X125580000Y-143500000D02*
G75*
G02*
X124580000Y-142500000I0J1000000D01*
G01*
X180920000Y-142500000D02*
G75*
G02*
X179920000Y-143500000I-1000000J0D01*
G01*
X179920000Y-45500000D02*
G75*
G02*
X180920000Y-46500000I0J-1000000D01*
G01*
X124580000Y-46500000D02*
G75*
G02*
X125580000Y-45500000I1000000J0D01*
G01*
D13*
X178487342Y-57130085D02*
X178415914Y-57344371D01*
X178344485Y-57415800D01*
X178201628Y-57487228D01*
X177987342Y-57487228D01*
X177844485Y-57415800D01*
X177773057Y-57344371D01*
X177701628Y-57201514D01*
X177701628Y-56630085D01*
X179201628Y-56630085D01*
X179201628Y-57130085D01*
X179130200Y-57272942D01*
X179058771Y-57344371D01*
X178915914Y-57415800D01*
X178773057Y-57415800D01*
X178630200Y-57344371D01*
X178558771Y-57272942D01*
X178487342Y-57130085D01*
X178487342Y-56630085D01*
X179201628Y-58415800D02*
X179201628Y-58701514D01*
X179130200Y-58844371D01*
X178987342Y-58987228D01*
X178701628Y-59058657D01*
X178201628Y-59058657D01*
X177915914Y-58987228D01*
X177773057Y-58844371D01*
X177701628Y-58701514D01*
X177701628Y-58415800D01*
X177773057Y-58272942D01*
X177915914Y-58130085D01*
X178201628Y-58058657D01*
X178701628Y-58058657D01*
X178987342Y-58130085D01*
X179130200Y-58272942D01*
X179201628Y-58415800D01*
X179201628Y-59987228D02*
X179201628Y-60272942D01*
X179130200Y-60415800D01*
X178987342Y-60558657D01*
X178701628Y-60630085D01*
X178201628Y-60630085D01*
X177915914Y-60558657D01*
X177773057Y-60415800D01*
X177701628Y-60272942D01*
X177701628Y-59987228D01*
X177773057Y-59844371D01*
X177915914Y-59701514D01*
X178201628Y-59630085D01*
X178701628Y-59630085D01*
X178987342Y-59701514D01*
X179130200Y-59844371D01*
X179201628Y-59987228D01*
X179201628Y-61058657D02*
X179201628Y-61915800D01*
X177701628Y-61487228D02*
X179201628Y-61487228D01*
X165542857Y-64959514D02*
X165542857Y-64459514D01*
X166328571Y-64245228D02*
X166328571Y-64959514D01*
X164828571Y-64959514D01*
X164828571Y-64245228D01*
X166328571Y-63602371D02*
X164828571Y-63602371D01*
X166328571Y-62745228D01*
X164828571Y-62745228D01*
X164757142Y-60959514D02*
X166685714Y-62245228D01*
X166328571Y-59602371D02*
X165614285Y-60102371D01*
X166328571Y-60459514D02*
X164828571Y-60459514D01*
X164828571Y-59888085D01*
X164900000Y-59745228D01*
X164971428Y-59673800D01*
X165114285Y-59602371D01*
X165328571Y-59602371D01*
X165471428Y-59673800D01*
X165542857Y-59745228D01*
X165614285Y-59888085D01*
X165614285Y-60459514D01*
X165542857Y-58959514D02*
X165542857Y-58459514D01*
X166328571Y-58245228D02*
X166328571Y-58959514D01*
X164828571Y-58959514D01*
X164828571Y-58245228D01*
X166257142Y-57673800D02*
X166328571Y-57459514D01*
X166328571Y-57102371D01*
X166257142Y-56959514D01*
X166185714Y-56888085D01*
X166042857Y-56816657D01*
X165900000Y-56816657D01*
X165757142Y-56888085D01*
X165685714Y-56959514D01*
X165614285Y-57102371D01*
X165542857Y-57388085D01*
X165471428Y-57530942D01*
X165400000Y-57602371D01*
X165257142Y-57673800D01*
X165114285Y-57673800D01*
X164971428Y-57602371D01*
X164900000Y-57530942D01*
X164828571Y-57388085D01*
X164828571Y-57030942D01*
X164900000Y-56816657D01*
X165542857Y-56173800D02*
X165542857Y-55673800D01*
X166328571Y-55459514D02*
X166328571Y-56173800D01*
X164828571Y-56173800D01*
X164828571Y-55459514D01*
X164828571Y-55030942D02*
X164828571Y-54173800D01*
X166328571Y-54602371D02*
X164828571Y-54602371D01*
D11*
X163019047Y-58271428D02*
X163780952Y-58271428D01*
X163069047Y-55971428D02*
X163830952Y-55971428D01*
X163450000Y-56352380D02*
X163450000Y-55590476D01*
X152396085Y-94063380D02*
X152396085Y-93063380D01*
X152967514Y-94063380D01*
X152967514Y-93063380D01*
X154015133Y-93968142D02*
X153967514Y-94015761D01*
X153824657Y-94063380D01*
X153729419Y-94063380D01*
X153586561Y-94015761D01*
X153491323Y-93920523D01*
X153443704Y-93825285D01*
X153396085Y-93634809D01*
X153396085Y-93491952D01*
X153443704Y-93301476D01*
X153491323Y-93206238D01*
X153586561Y-93111000D01*
X153729419Y-93063380D01*
X153824657Y-93063380D01*
X153967514Y-93111000D01*
X154015133Y-93158619D01*
D15*
X124580000Y-142500000D02*
X124580000Y-46500000D01*
X180920000Y-142500000D02*
X180920000Y-46500000D01*
X179920000Y-143500000D02*
X125580000Y-143500000D01*
X125580000Y-45500000D02*
X179920000Y-45500000D01*
D16*
%TO.C,G\u002A\u002A\u002A*%
G36*
X132313251Y-112661591D02*
G01*
X132346203Y-112644786D01*
X132420337Y-112611465D01*
X132518407Y-112568954D01*
X132623163Y-112524580D01*
X132717358Y-112485668D01*
X132783743Y-112459544D01*
X132804949Y-112452750D01*
X132811136Y-112481821D01*
X132815618Y-112558321D01*
X132817490Y-112666189D01*
X132817500Y-112675000D01*
X132815942Y-112784555D01*
X132811842Y-112863936D01*
X132806060Y-112897077D01*
X132805588Y-112897250D01*
X132768543Y-112884937D01*
X132694240Y-112853005D01*
X132598372Y-112808963D01*
X132496631Y-112760325D01*
X132404707Y-112714599D01*
X132338292Y-112679298D01*
X132313079Y-112661931D01*
X132313251Y-112661591D01*
G37*
X132313251Y-112661591D02*
X132346203Y-112644786D01*
X132420337Y-112611465D01*
X132518407Y-112568954D01*
X132623163Y-112524580D01*
X132717358Y-112485668D01*
X132783743Y-112459544D01*
X132804949Y-112452750D01*
X132811136Y-112481821D01*
X132815618Y-112558321D01*
X132817490Y-112666189D01*
X132817500Y-112675000D01*
X132815942Y-112784555D01*
X132811842Y-112863936D01*
X132806060Y-112897077D01*
X132805588Y-112897250D01*
X132768543Y-112884937D01*
X132694240Y-112853005D01*
X132598372Y-112808963D01*
X132496631Y-112760325D01*
X132404707Y-112714599D01*
X132338292Y-112679298D01*
X132313079Y-112661931D01*
X132313251Y-112661591D01*
G36*
X129452000Y-107339132D02*
G01*
X129452000Y-112789113D01*
X129325000Y-112913125D01*
X129198000Y-113037138D01*
X129198000Y-107017798D01*
X129452000Y-107339132D01*
G37*
X129452000Y-107339132D02*
X129452000Y-112789113D01*
X129325000Y-112913125D01*
X129198000Y-113037138D01*
X129198000Y-107017798D01*
X129452000Y-107339132D01*
G36*
X129936187Y-106834354D02*
G01*
X130122729Y-106834677D01*
X130285345Y-106836386D01*
X130414217Y-106839261D01*
X130499531Y-106843079D01*
X130531469Y-106847620D01*
X130531500Y-106847771D01*
X130512411Y-106878222D01*
X130463984Y-106938683D01*
X130432960Y-106974771D01*
X130334421Y-107087000D01*
X129980523Y-107086915D01*
X129626625Y-107086829D01*
X129483750Y-106961268D01*
X129340875Y-106835708D01*
X129936187Y-106834354D01*
G37*
X129936187Y-106834354D02*
X130122729Y-106834677D01*
X130285345Y-106836386D01*
X130414217Y-106839261D01*
X130499531Y-106843079D01*
X130531469Y-106847620D01*
X130531500Y-106847771D01*
X130512411Y-106878222D01*
X130463984Y-106938683D01*
X130432960Y-106974771D01*
X130334421Y-107087000D01*
X129980523Y-107086915D01*
X129626625Y-107086829D01*
X129483750Y-106961268D01*
X129340875Y-106835708D01*
X129936187Y-106834354D01*
G36*
X129721875Y-109690500D02*
G01*
X129845887Y-109563500D01*
X135027112Y-109563500D01*
X135151125Y-109690500D01*
X135275137Y-109817500D01*
X129597862Y-109817500D01*
X129721875Y-109690500D01*
G37*
X129721875Y-109690500D02*
X129845887Y-109563500D01*
X135027112Y-109563500D01*
X135151125Y-109690500D01*
X135275137Y-109817500D01*
X129597862Y-109817500D01*
X129721875Y-109690500D01*
G36*
X135398681Y-108833250D02*
G01*
X135536964Y-108834536D01*
X135648144Y-108838017D01*
X135719230Y-108843129D01*
X135738500Y-108848021D01*
X135719411Y-108878472D01*
X135670984Y-108938933D01*
X135639960Y-108975021D01*
X135563065Y-109049291D01*
X135489702Y-109081821D01*
X135424154Y-109087250D01*
X135341915Y-109077244D01*
X135269386Y-109039208D01*
X135183718Y-108961114D01*
X135182875Y-108960250D01*
X135058862Y-108833250D01*
X135398681Y-108833250D01*
G37*
X135398681Y-108833250D02*
X135536964Y-108834536D01*
X135648144Y-108838017D01*
X135719230Y-108843129D01*
X135738500Y-108848021D01*
X135719411Y-108878472D01*
X135670984Y-108938933D01*
X135639960Y-108975021D01*
X135563065Y-109049291D01*
X135489702Y-109081821D01*
X135424154Y-109087250D01*
X135341915Y-109077244D01*
X135269386Y-109039208D01*
X135183718Y-108961114D01*
X135182875Y-108960250D01*
X135058862Y-108833250D01*
X135398681Y-108833250D01*
G36*
X138076470Y-103381077D02*
G01*
X138124092Y-103345756D01*
X138179553Y-103357176D01*
X138189253Y-103365554D01*
X138244710Y-103385138D01*
X138274431Y-103380261D01*
X138305094Y-103373814D01*
X138293022Y-103398179D01*
X138268166Y-103427577D01*
X138229539Y-103475940D01*
X138233747Y-103497393D01*
X138268166Y-103508653D01*
X138276271Y-103518174D01*
X138231136Y-103525360D01*
X138191187Y-103527317D01*
X138134684Y-103526516D01*
X138134684Y-103485918D01*
X138151500Y-103483375D01*
X138181755Y-103456218D01*
X138183250Y-103451625D01*
X138161105Y-103426383D01*
X138151500Y-103419875D01*
X138124601Y-103427415D01*
X138119750Y-103451625D01*
X138134684Y-103485918D01*
X138134684Y-103526516D01*
X138106316Y-103526113D01*
X138067258Y-103509682D01*
X138056547Y-103468098D01*
X138056250Y-103450629D01*
X138076470Y-103381077D01*
G37*
X138076470Y-103381077D02*
X138124092Y-103345756D01*
X138179553Y-103357176D01*
X138189253Y-103365554D01*
X138244710Y-103385138D01*
X138274431Y-103380261D01*
X138305094Y-103373814D01*
X138293022Y-103398179D01*
X138268166Y-103427577D01*
X138229539Y-103475940D01*
X138233747Y-103497393D01*
X138268166Y-103508653D01*
X138276271Y-103518174D01*
X138231136Y-103525360D01*
X138191187Y-103527317D01*
X138134684Y-103526516D01*
X138134684Y-103485918D01*
X138151500Y-103483375D01*
X138181755Y-103456218D01*
X138183250Y-103451625D01*
X138161105Y-103426383D01*
X138151500Y-103419875D01*
X138124601Y-103427415D01*
X138119750Y-103451625D01*
X138134684Y-103485918D01*
X138134684Y-103526516D01*
X138106316Y-103526113D01*
X138067258Y-103509682D01*
X138056547Y-103468098D01*
X138056250Y-103450629D01*
X138076470Y-103381077D01*
G36*
X138342000Y-104102500D02*
G01*
X138342000Y-115786500D01*
X133741568Y-115786500D01*
X133741568Y-114294250D01*
X134341500Y-114294250D01*
X134341500Y-113119500D01*
X134039875Y-113119500D01*
X133900142Y-113120052D01*
X133812016Y-113123792D01*
X133763601Y-113133852D01*
X133743002Y-113153361D01*
X133738326Y-113185449D01*
X133738250Y-113198875D01*
X133734648Y-113251226D01*
X133714918Y-113272666D01*
X133665674Y-113264947D01*
X133573528Y-113229818D01*
X133556140Y-113222688D01*
X133420988Y-113167125D01*
X133420750Y-112175467D01*
X133579500Y-112109493D01*
X133738250Y-112043520D01*
X133738250Y-112230500D01*
X134341500Y-112230500D01*
X134341500Y-111055750D01*
X133741568Y-111055750D01*
X133731971Y-111218703D01*
X133722375Y-111381656D01*
X132817500Y-111773495D01*
X132592432Y-111870447D01*
X132385242Y-111958723D01*
X132203328Y-112035248D01*
X132054089Y-112096947D01*
X131944922Y-112140743D01*
X131883225Y-112163562D01*
X131872937Y-112166167D01*
X131840760Y-112140402D01*
X131833250Y-112103500D01*
X131828475Y-112073331D01*
X131806094Y-112054584D01*
X131754020Y-112044574D01*
X131660167Y-112040615D01*
X131547500Y-112040000D01*
X131261750Y-112040000D01*
X131261750Y-113341750D01*
X131547500Y-113341750D01*
X131682779Y-113341076D01*
X131766776Y-113336842D01*
X131811708Y-113325736D01*
X131829789Y-113304444D01*
X131833239Y-113269653D01*
X131833250Y-113264249D01*
X131841881Y-113200045D01*
X131857062Y-113174030D01*
X131890946Y-113183132D01*
X131975784Y-113214916D01*
X132104427Y-113266443D01*
X132269726Y-113334776D01*
X132464532Y-113416979D01*
X132681696Y-113510113D01*
X132801625Y-113562124D01*
X133722375Y-113962935D01*
X133731971Y-114128593D01*
X133741568Y-114294250D01*
X133741568Y-115786500D01*
X128912250Y-115786500D01*
X128912250Y-113341750D01*
X130849000Y-113341750D01*
X130849000Y-112042016D01*
X130475937Y-112033071D01*
X130102875Y-112024125D01*
X130102875Y-110627125D01*
X132428562Y-110618982D01*
X134754250Y-110610838D01*
X134754250Y-111341500D01*
X136087750Y-111341500D01*
X136087750Y-108547500D01*
X134754250Y-108547500D01*
X134754250Y-109309913D01*
X132428562Y-109301769D01*
X131261750Y-109297684D01*
X131261750Y-108833250D01*
X131865000Y-108833250D01*
X131865000Y-108611000D01*
X133738250Y-108611000D01*
X133738250Y-108833250D01*
X134341500Y-108833250D01*
X134341500Y-107753750D01*
X133738250Y-107753750D01*
X133738250Y-108007750D01*
X133087375Y-108007750D01*
X132891852Y-108006929D01*
X132719828Y-108004634D01*
X132580691Y-108001123D01*
X132483829Y-107996649D01*
X132438630Y-107991469D01*
X132436500Y-107990034D01*
X132463372Y-107970053D01*
X132535899Y-107930174D01*
X132641947Y-107876816D01*
X132730187Y-107834623D01*
X132863849Y-107771352D01*
X133036209Y-107688877D01*
X133228973Y-107595998D01*
X133423849Y-107501515D01*
X133512403Y-107458355D01*
X134000932Y-107219781D01*
X133218716Y-106838309D01*
X133013902Y-106737786D01*
X132829118Y-106645863D01*
X132671682Y-106566283D01*
X132548916Y-106502787D01*
X132468138Y-106459114D01*
X132436668Y-106439007D01*
X132436500Y-106438544D01*
X132466684Y-106433049D01*
X132550980Y-106428214D01*
X132679998Y-106424303D01*
X132844351Y-106421581D01*
X133034651Y-106420310D01*
X133087375Y-106420250D01*
X133738250Y-106420250D01*
X133738250Y-106674250D01*
X134341500Y-106674250D01*
X134341500Y-105594750D01*
X133738250Y-105594750D01*
X133738250Y-105817000D01*
X131865000Y-105817000D01*
X131865000Y-105594750D01*
X131261750Y-105594750D01*
X131261750Y-106567087D01*
X131936437Y-106894263D01*
X132611125Y-107221439D01*
X131936437Y-107549479D01*
X131261750Y-107877519D01*
X131261750Y-108833250D01*
X131261750Y-109297684D01*
X130102875Y-109293625D01*
X130102875Y-107896625D01*
X130848999Y-107878735D01*
X130849000Y-107228868D01*
X130849000Y-106579000D01*
X128912250Y-106579000D01*
X128912250Y-113341750D01*
X128912250Y-115786500D01*
X126562750Y-115786500D01*
X126562750Y-104102500D01*
X138342000Y-104102500D01*
G37*
X138342000Y-104102500D02*
X138342000Y-115786500D01*
X133741568Y-115786500D01*
X133741568Y-114294250D01*
X134341500Y-114294250D01*
X134341500Y-113119500D01*
X134039875Y-113119500D01*
X133900142Y-113120052D01*
X133812016Y-113123792D01*
X133763601Y-113133852D01*
X133743002Y-113153361D01*
X133738326Y-113185449D01*
X133738250Y-113198875D01*
X133734648Y-113251226D01*
X133714918Y-113272666D01*
X133665674Y-113264947D01*
X133573528Y-113229818D01*
X133556140Y-113222688D01*
X133420988Y-113167125D01*
X133420750Y-112175467D01*
X133579500Y-112109493D01*
X133738250Y-112043520D01*
X133738250Y-112230500D01*
X134341500Y-112230500D01*
X134341500Y-111055750D01*
X133741568Y-111055750D01*
X133731971Y-111218703D01*
X133722375Y-111381656D01*
X132817500Y-111773495D01*
X132592432Y-111870447D01*
X132385242Y-111958723D01*
X132203328Y-112035248D01*
X132054089Y-112096947D01*
X131944922Y-112140743D01*
X131883225Y-112163562D01*
X131872937Y-112166167D01*
X131840760Y-112140402D01*
X131833250Y-112103500D01*
X131828475Y-112073331D01*
X131806094Y-112054584D01*
X131754020Y-112044574D01*
X131660167Y-112040615D01*
X131547500Y-112040000D01*
X131261750Y-112040000D01*
X131261750Y-113341750D01*
X131547500Y-113341750D01*
X131682779Y-113341076D01*
X131766776Y-113336842D01*
X131811708Y-113325736D01*
X131829789Y-113304444D01*
X131833239Y-113269653D01*
X131833250Y-113264249D01*
X131841881Y-113200045D01*
X131857062Y-113174030D01*
X131890946Y-113183132D01*
X131975784Y-113214916D01*
X132104427Y-113266443D01*
X132269726Y-113334776D01*
X132464532Y-113416979D01*
X132681696Y-113510113D01*
X132801625Y-113562124D01*
X133722375Y-113962935D01*
X133731971Y-114128593D01*
X133741568Y-114294250D01*
X133741568Y-115786500D01*
X128912250Y-115786500D01*
X128912250Y-113341750D01*
X130849000Y-113341750D01*
X130849000Y-112042016D01*
X130475937Y-112033071D01*
X130102875Y-112024125D01*
X130102875Y-110627125D01*
X132428562Y-110618982D01*
X134754250Y-110610838D01*
X134754250Y-111341500D01*
X136087750Y-111341500D01*
X136087750Y-108547500D01*
X134754250Y-108547500D01*
X134754250Y-109309913D01*
X132428562Y-109301769D01*
X131261750Y-109297684D01*
X131261750Y-108833250D01*
X131865000Y-108833250D01*
X131865000Y-108611000D01*
X133738250Y-108611000D01*
X133738250Y-108833250D01*
X134341500Y-108833250D01*
X134341500Y-107753750D01*
X133738250Y-107753750D01*
X133738250Y-108007750D01*
X133087375Y-108007750D01*
X132891852Y-108006929D01*
X132719828Y-108004634D01*
X132580691Y-108001123D01*
X132483829Y-107996649D01*
X132438630Y-107991469D01*
X132436500Y-107990034D01*
X132463372Y-107970053D01*
X132535899Y-107930174D01*
X132641947Y-107876816D01*
X132730187Y-107834623D01*
X132863849Y-107771352D01*
X133036209Y-107688877D01*
X133228973Y-107595998D01*
X133423849Y-107501515D01*
X133512403Y-107458355D01*
X134000932Y-107219781D01*
X133218716Y-106838309D01*
X133013902Y-106737786D01*
X132829118Y-106645863D01*
X132671682Y-106566283D01*
X132548916Y-106502787D01*
X132468138Y-106459114D01*
X132436668Y-106439007D01*
X132436500Y-106438544D01*
X132466684Y-106433049D01*
X132550980Y-106428214D01*
X132679998Y-106424303D01*
X132844351Y-106421581D01*
X133034651Y-106420310D01*
X133087375Y-106420250D01*
X133738250Y-106420250D01*
X133738250Y-106674250D01*
X134341500Y-106674250D01*
X134341500Y-105594750D01*
X133738250Y-105594750D01*
X133738250Y-105817000D01*
X131865000Y-105817000D01*
X131865000Y-105594750D01*
X131261750Y-105594750D01*
X131261750Y-106567087D01*
X131936437Y-106894263D01*
X132611125Y-107221439D01*
X131936437Y-107549479D01*
X131261750Y-107877519D01*
X131261750Y-108833250D01*
X131261750Y-109297684D01*
X130102875Y-109293625D01*
X130102875Y-107896625D01*
X130848999Y-107878735D01*
X130849000Y-107228868D01*
X130849000Y-106579000D01*
X128912250Y-106579000D01*
X128912250Y-113341750D01*
X128912250Y-115786500D01*
X126562750Y-115786500D01*
X126562750Y-104102500D01*
X138342000Y-104102500D01*
G36*
X137982738Y-103356507D02*
G01*
X138040484Y-103281046D01*
X138122264Y-103231282D01*
X138218981Y-103218526D01*
X138321542Y-103254090D01*
X138334935Y-103262926D01*
X138383099Y-103314253D01*
X138403249Y-103392411D01*
X138405500Y-103451625D01*
X138396587Y-103552930D01*
X138364138Y-103615429D01*
X138334935Y-103640325D01*
X138225666Y-103685612D01*
X138195941Y-103680796D01*
X138195941Y-103624337D01*
X138287707Y-103595077D01*
X138315687Y-103573705D01*
X138367110Y-103490515D01*
X138360343Y-103397237D01*
X138321204Y-103335063D01*
X138239776Y-103283929D01*
X138150368Y-103282828D01*
X138071970Y-103324491D01*
X138023575Y-103401653D01*
X138016562Y-103451625D01*
X138042462Y-103545303D01*
X138108224Y-103605309D01*
X138195941Y-103624337D01*
X138195941Y-103680796D01*
X138115611Y-103667780D01*
X138044656Y-103623946D01*
X137975729Y-103539269D01*
X137958122Y-103446352D01*
X137982738Y-103356507D01*
G37*
X137982738Y-103356507D02*
X138040484Y-103281046D01*
X138122264Y-103231282D01*
X138218981Y-103218526D01*
X138321542Y-103254090D01*
X138334935Y-103262926D01*
X138383099Y-103314253D01*
X138403249Y-103392411D01*
X138405500Y-103451625D01*
X138396587Y-103552930D01*
X138364138Y-103615429D01*
X138334935Y-103640325D01*
X138225666Y-103685612D01*
X138195941Y-103680796D01*
X138195941Y-103624337D01*
X138287707Y-103595077D01*
X138315687Y-103573705D01*
X138367110Y-103490515D01*
X138360343Y-103397237D01*
X138321204Y-103335063D01*
X138239776Y-103283929D01*
X138150368Y-103282828D01*
X138071970Y-103324491D01*
X138023575Y-103401653D01*
X138016562Y-103451625D01*
X138042462Y-103545303D01*
X138108224Y-103605309D01*
X138195941Y-103624337D01*
X138195941Y-103680796D01*
X138115611Y-103667780D01*
X138044656Y-103623946D01*
X137975729Y-103539269D01*
X137958122Y-103446352D01*
X137982738Y-103356507D01*
D17*
%TO.C,C19*%
X143638748Y-58665000D02*
X144161252Y-58665000D01*
X143638748Y-60135000D02*
X144161252Y-60135000D01*
D18*
%TO.C,U2*%
X141550000Y-64700000D02*
X141550000Y-64150000D01*
X141550000Y-59700000D02*
X141550000Y-60250000D01*
X136550000Y-64700000D02*
X136550000Y-64150000D01*
X136550000Y-59700000D02*
X136550000Y-60250000D01*
X141550000Y-64700000D02*
X141000000Y-64700000D01*
X141550000Y-59700000D02*
X141000000Y-59700000D01*
X136550000Y-64700000D02*
X137100000Y-64700000D01*
X136550000Y-59700000D02*
X137100000Y-59700000D01*
D10*
X142690000Y-63700000D02*
G75*
G03*
X142690000Y-63700000I-100000J0D01*
G01*
D17*
%TO.C,C18*%
X143634420Y-60690000D02*
X143915580Y-60690000D01*
X143634420Y-61710000D02*
X143915580Y-61710000D01*
%TO.C,C10*%
X140840000Y-57665580D02*
X140840000Y-57384420D01*
X141860000Y-57665580D02*
X141860000Y-57384420D01*
%TO.C,TP6*%
X161800000Y-50200000D02*
G75*
G03*
X161800000Y-50200000I-1200000J0D01*
G01*
%TO.C,JP2*%
X149050000Y-104200000D02*
X146250000Y-104200000D01*
X145600000Y-103500000D02*
X145600000Y-102900000D01*
X146250000Y-102200000D02*
X149050000Y-102200000D01*
X149700000Y-102900000D02*
X149700000Y-103500000D01*
X148850000Y-102000000D02*
X149150000Y-101700000D01*
X149150000Y-101700000D02*
X148550000Y-101700000D01*
X148850000Y-102000000D02*
X148550000Y-101700000D01*
X149700000Y-103500000D02*
G75*
G02*
X149000000Y-104200000I-700000J0D01*
G01*
X149000000Y-102200000D02*
G75*
G02*
X149700000Y-102900000I0J-700000D01*
G01*
X145600000Y-102900000D02*
G75*
G02*
X146300000Y-102200000I700000J0D01*
G01*
X146300000Y-104200000D02*
G75*
G02*
X145600000Y-103500000I0J700000D01*
G01*
%TO.C,JP1*%
X149050000Y-99900000D02*
X146250000Y-99900000D01*
X145600000Y-99200000D02*
X145600000Y-98600000D01*
X146250000Y-97900000D02*
X149050000Y-97900000D01*
X149700000Y-98600000D02*
X149700000Y-99200000D01*
X148850000Y-97700000D02*
X149150000Y-97400000D01*
X149150000Y-97400000D02*
X148550000Y-97400000D01*
X148850000Y-97700000D02*
X148550000Y-97400000D01*
X149700000Y-99200000D02*
G75*
G02*
X149000000Y-99900000I-700000J0D01*
G01*
X149000000Y-97900000D02*
G75*
G02*
X149700000Y-98600000I0J-700000D01*
G01*
X145600000Y-98600000D02*
G75*
G02*
X146300000Y-97900000I700000J0D01*
G01*
X146300000Y-99900000D02*
G75*
G02*
X145600000Y-99200000I0J700000D01*
G01*
%TO.C,TP5*%
X167350000Y-70900000D02*
G75*
G03*
X167350000Y-70900000I-1200000J0D01*
G01*
%TO.C,TP3*%
X156050000Y-67800000D02*
G75*
G03*
X156050000Y-67800000I-1200000J0D01*
G01*
%TO.C,TP2*%
X149150000Y-92800000D02*
G75*
G03*
X149150000Y-92800000I-1200000J0D01*
G01*
%TO.C,TP1*%
X173750000Y-86200000D02*
G75*
G03*
X173750000Y-86200000I-1200000J0D01*
G01*
%TO.C,U7*%
X161640000Y-119680000D02*
X165240000Y-119680000D01*
X161640000Y-119680000D02*
X159440000Y-119680000D01*
X161640000Y-114460000D02*
X163840000Y-114460000D01*
X161640000Y-114460000D02*
X159440000Y-114460000D01*
D10*
%TO.C,U6*%
X166130000Y-66700000D02*
G75*
G03*
X166130000Y-66700000I-100000J0D01*
G01*
D18*
X166925000Y-66245000D02*
X169025000Y-66245000D01*
X166925000Y-68655000D02*
X169025000Y-68655000D01*
D11*
%TO.C,S3*%
X171110800Y-56016600D02*
X170210800Y-56016600D01*
X167310800Y-56016600D02*
X168210800Y-56016600D01*
X171110800Y-62416600D02*
X170210800Y-62416600D01*
X167310800Y-62416600D02*
X168210800Y-62416600D01*
X171110800Y-62416600D02*
X171110800Y-56016600D01*
X167310800Y-62416600D02*
X167310800Y-56016600D01*
%TO.C,S2*%
X176495600Y-56011400D02*
X175595600Y-56011400D01*
X172695600Y-56011400D02*
X173595600Y-56011400D01*
X176495600Y-62411400D02*
X175595600Y-62411400D01*
X172695600Y-62411400D02*
X173595600Y-62411400D01*
X176495600Y-62411400D02*
X176495600Y-56011400D01*
X172695600Y-62411400D02*
X172695600Y-56011400D01*
D18*
%TO.C,J3*%
X143736800Y-131146400D02*
X132486800Y-131146400D01*
X132486800Y-117346400D02*
X143736800Y-117346400D01*
X132486800Y-131146400D02*
X132486800Y-129272400D01*
X132486800Y-117346400D02*
X132486800Y-118746400D01*
D19*
X147556800Y-120646400D02*
G75*
G03*
X147556800Y-120646400I-120000J0D01*
G01*
D17*
%TO.C,C11*%
X159084420Y-120490000D02*
X159365580Y-120490000D01*
X159084420Y-121510000D02*
X159365580Y-121510000D01*
%TO.C,C8*%
X164584420Y-67240000D02*
X164865580Y-67240000D01*
X164584420Y-68260000D02*
X164865580Y-68260000D01*
%TO.C,C4*%
X155540000Y-75015580D02*
X155540000Y-74734420D01*
X156560000Y-75015580D02*
X156560000Y-74734420D01*
%TO.C,C2*%
X155891000Y-62634748D02*
X155891000Y-63157252D01*
X154421000Y-62634748D02*
X154421000Y-63157252D01*
D18*
%TO.C,U8*%
X140300000Y-83105000D02*
X147800000Y-83105000D01*
X140300000Y-72805000D02*
X147800000Y-72805000D01*
D10*
X137850000Y-73110000D02*
G75*
G03*
X137850000Y-73110000I-100000J0D01*
G01*
D17*
%TO.C,C7*%
X173363748Y-73940000D02*
X174786252Y-73940000D01*
X173363748Y-75760000D02*
X174786252Y-75760000D01*
%TO.C,C3*%
X162241000Y-62512748D02*
X162241000Y-63035252D01*
X160771000Y-62512748D02*
X160771000Y-63035252D01*
%TO.C,R17*%
X162162500Y-138243342D02*
X162162500Y-138717858D01*
X161117500Y-138243342D02*
X161117500Y-138717858D01*
%TO.C,R16*%
X152002500Y-138230142D02*
X152002500Y-138704658D01*
X150957500Y-138230142D02*
X150957500Y-138704658D01*
%TO.C,Q1*%
X147524800Y-64512600D02*
X147524800Y-66412600D01*
X149844800Y-65912600D02*
X149844800Y-64512600D01*
%TO.C,C9*%
X168750000Y-138569580D02*
X168750000Y-138288420D01*
X169770000Y-138569580D02*
X169770000Y-138288420D01*
%TO.C,R7*%
X145627100Y-50866342D02*
X145627100Y-51340858D01*
X144582100Y-50866342D02*
X144582100Y-51340858D01*
%TO.C,R14*%
X168162258Y-52577500D02*
X167687742Y-52577500D01*
X168162258Y-53622500D02*
X167687742Y-53622500D01*
%TO.C,C17*%
X136740000Y-81109420D02*
X136740000Y-81390580D01*
X137760000Y-81109420D02*
X137760000Y-81390580D01*
%TO.C,C16*%
X137770000Y-74425580D02*
X137770000Y-74144420D01*
X136750000Y-74425580D02*
X136750000Y-74144420D01*
%TO.C,C15*%
X136750000Y-77674420D02*
X136750000Y-77955580D01*
X137770000Y-77674420D02*
X137770000Y-77955580D01*
%TO.C,C14*%
X139392420Y-71988000D02*
X139673580Y-71988000D01*
X139392420Y-70968000D02*
X139673580Y-70968000D01*
%TO.C,C13*%
X150440000Y-74144420D02*
X150440000Y-74425580D01*
X151460000Y-74144420D02*
X151460000Y-74425580D01*
%TO.C,C12*%
X172437000Y-89687580D02*
X172437000Y-89406420D01*
X171417000Y-89687580D02*
X171417000Y-89406420D01*
%TO.C,U3*%
X159358000Y-61352000D02*
X157558000Y-61352000D01*
X157558000Y-64572000D02*
X160008000Y-64572000D01*
%TO.C,R12*%
X153805900Y-96045858D02*
X153805900Y-95571342D01*
X152760900Y-96045858D02*
X152760900Y-95571342D01*
%TO.C,R9*%
X158157742Y-66278500D02*
X158632258Y-66278500D01*
X158157742Y-65233500D02*
X158632258Y-65233500D01*
%TO.C,R3*%
X169118500Y-89372742D02*
X169118500Y-89847258D01*
X170163500Y-89372742D02*
X170163500Y-89847258D01*
D20*
%TO.C,J4*%
X161597660Y-54701300D02*
X160000000Y-54701300D01*
X161597660Y-59298700D02*
X160000000Y-59298700D01*
X161597660Y-54051060D02*
X161597660Y-54701300D01*
X161597660Y-59948940D02*
X161597660Y-59298700D01*
X154000520Y-54051060D02*
X161597660Y-54051060D01*
X154000520Y-59948940D02*
X154000520Y-54051060D01*
X161597660Y-59948940D02*
X154000520Y-59948940D01*
%TO.C,J5*%
X134129220Y-86582820D02*
X134129220Y-55787860D01*
X134129220Y-55787860D02*
X128790140Y-55787860D01*
X134129220Y-86582820D02*
X128790140Y-86582820D01*
D17*
%TO.C,J2*%
X143370000Y-49100000D02*
X143370000Y-48200000D01*
X134180000Y-49100000D02*
X134180000Y-48200000D01*
X143370000Y-45500000D02*
X143370000Y-42770000D01*
X134180000Y-45500000D02*
X134180000Y-42770000D01*
X143250000Y-52180000D02*
X134300000Y-52180000D01*
X143370000Y-42770000D02*
X134180000Y-42770000D01*
D11*
%TO.C,S1*%
X167480000Y-41800000D02*
X167480000Y-45800000D01*
X166210000Y-41800000D02*
X167480000Y-41800000D01*
D17*
X166210000Y-45800000D02*
X166210000Y-41800000D01*
X173050000Y-45800000D02*
X164450000Y-45800000D01*
D11*
X173050000Y-50200000D02*
X164450000Y-50200000D01*
D21*
%TO.C,Q5*%
X166375000Y-73350000D02*
X166375000Y-73650000D01*
X166000000Y-73350000D02*
X166375000Y-73350000D01*
X166375000Y-76650000D02*
X165925000Y-76650000D01*
X166375000Y-76350000D02*
X166375000Y-76650000D01*
X166375000Y-76425000D02*
X166375000Y-76300000D01*
X164725000Y-76650000D02*
X164725000Y-76300000D01*
X165200000Y-76650000D02*
X164725000Y-76650000D01*
X164725000Y-73675000D02*
X163950000Y-73675000D01*
X164725000Y-73625000D02*
X164725000Y-73675000D01*
X165100000Y-73350000D02*
X164725000Y-73625000D01*
X165375000Y-73350000D02*
X165100000Y-73350000D01*
D17*
%TO.C,C5*%
X173134420Y-72140000D02*
X173415580Y-72140000D01*
X173134420Y-73160000D02*
X173415580Y-73160000D01*
%TO.C,D3*%
X163080000Y-77260000D02*
X158100000Y-77260000D01*
X163080000Y-74540000D02*
X158100000Y-74540000D01*
X163080000Y-77260000D02*
X163080000Y-74540000D01*
D21*
%TO.C,Q2*%
X159350000Y-72125000D02*
X159350000Y-72400000D01*
X159350000Y-72400000D02*
X159625000Y-72775000D01*
X159625000Y-72775000D02*
X159675000Y-72775000D01*
X159675000Y-72775000D02*
X159675000Y-73550000D01*
X162650000Y-72300000D02*
X162650000Y-72775000D01*
X162650000Y-72775000D02*
X162300000Y-72775000D01*
X162425000Y-71125000D02*
X162300000Y-71125000D01*
X162350000Y-71125000D02*
X162650000Y-71125000D01*
X162650000Y-71125000D02*
X162650000Y-71575000D01*
X159350000Y-71500000D02*
X159350000Y-71125000D01*
X159350000Y-71125000D02*
X159650000Y-71125000D01*
D17*
%TO.C,R1*%
X148384542Y-68315700D02*
X148859058Y-68315700D01*
X148384542Y-67270700D02*
X148859058Y-67270700D01*
%TO.C,R2*%
X148384542Y-62139900D02*
X148859058Y-62139900D01*
X148384542Y-63184900D02*
X148859058Y-63184900D01*
%TO.C,R8*%
X147172500Y-50412258D02*
X147172500Y-49937742D01*
X146127500Y-50412258D02*
X146127500Y-49937742D01*
%TO.C,R10*%
X157277500Y-72137258D02*
X157277500Y-71662742D01*
X158322500Y-72137258D02*
X158322500Y-71662742D01*
%TO.C,R11*%
X169512258Y-75777500D02*
X169037742Y-75777500D01*
X169512258Y-76822500D02*
X169037742Y-76822500D01*
%TO.C,U1*%
X174394000Y-91968000D02*
X174394000Y-91588000D01*
X180814000Y-91968000D02*
X174394000Y-91968000D01*
X180814000Y-110208000D02*
X174394000Y-110208000D01*
X180814000Y-91968000D02*
X180814000Y-110208000D01*
X155069000Y-110208000D02*
X155069000Y-109208000D01*
X155849000Y-110208000D02*
X155069000Y-110208000D01*
X155069000Y-91968000D02*
X155069000Y-92968000D01*
X155849000Y-91968000D02*
X155069000Y-91968000D01*
%TO.C,U5*%
X168800000Y-75210000D02*
X170600000Y-75210000D01*
X170600000Y-71990000D02*
X168150000Y-71990000D01*
%TD*%
%TO.C,C19*%
D11*
X143257142Y-58077142D02*
X143209523Y-58124761D01*
X143066666Y-58172380D01*
X142971428Y-58172380D01*
X142828571Y-58124761D01*
X142733333Y-58029523D01*
X142685714Y-57934285D01*
X142638095Y-57743809D01*
X142638095Y-57600952D01*
X142685714Y-57410476D01*
X142733333Y-57315238D01*
X142828571Y-57220000D01*
X142971428Y-57172380D01*
X143066666Y-57172380D01*
X143209523Y-57220000D01*
X143257142Y-57267619D01*
X144209523Y-58172380D02*
X143638095Y-58172380D01*
X143923809Y-58172380D02*
X143923809Y-57172380D01*
X143828571Y-57315238D01*
X143733333Y-57410476D01*
X143638095Y-57458095D01*
X144685714Y-58172380D02*
X144876190Y-58172380D01*
X144971428Y-58124761D01*
X145019047Y-58077142D01*
X145114285Y-57934285D01*
X145161904Y-57743809D01*
X145161904Y-57362857D01*
X145114285Y-57267619D01*
X145066666Y-57220000D01*
X144971428Y-57172380D01*
X144780952Y-57172380D01*
X144685714Y-57220000D01*
X144638095Y-57267619D01*
X144590476Y-57362857D01*
X144590476Y-57600952D01*
X144638095Y-57696190D01*
X144685714Y-57743809D01*
X144780952Y-57791428D01*
X144971428Y-57791428D01*
X145066666Y-57743809D01*
X145114285Y-57696190D01*
X145161904Y-57600952D01*
%TO.C,U2*%
X138583095Y-66392380D02*
X138583095Y-67201904D01*
X138630714Y-67297142D01*
X138678333Y-67344761D01*
X138773571Y-67392380D01*
X138964047Y-67392380D01*
X139059285Y-67344761D01*
X139106904Y-67297142D01*
X139154523Y-67201904D01*
X139154523Y-66392380D01*
X139583095Y-66487619D02*
X139630714Y-66440000D01*
X139725952Y-66392380D01*
X139964047Y-66392380D01*
X140059285Y-66440000D01*
X140106904Y-66487619D01*
X140154523Y-66582857D01*
X140154523Y-66678095D01*
X140106904Y-66820952D01*
X139535476Y-67392380D01*
X140154523Y-67392380D01*
%TO.C,C18*%
X143407142Y-63057142D02*
X143359523Y-63104761D01*
X143216666Y-63152380D01*
X143121428Y-63152380D01*
X142978571Y-63104761D01*
X142883333Y-63009523D01*
X142835714Y-62914285D01*
X142788095Y-62723809D01*
X142788095Y-62580952D01*
X142835714Y-62390476D01*
X142883333Y-62295238D01*
X142978571Y-62200000D01*
X143121428Y-62152380D01*
X143216666Y-62152380D01*
X143359523Y-62200000D01*
X143407142Y-62247619D01*
X144359523Y-63152380D02*
X143788095Y-63152380D01*
X144073809Y-63152380D02*
X144073809Y-62152380D01*
X143978571Y-62295238D01*
X143883333Y-62390476D01*
X143788095Y-62438095D01*
X144930952Y-62580952D02*
X144835714Y-62533333D01*
X144788095Y-62485714D01*
X144740476Y-62390476D01*
X144740476Y-62342857D01*
X144788095Y-62247619D01*
X144835714Y-62200000D01*
X144930952Y-62152380D01*
X145121428Y-62152380D01*
X145216666Y-62200000D01*
X145264285Y-62247619D01*
X145311904Y-62342857D01*
X145311904Y-62390476D01*
X145264285Y-62485714D01*
X145216666Y-62533333D01*
X145121428Y-62580952D01*
X144930952Y-62580952D01*
X144835714Y-62628571D01*
X144788095Y-62676190D01*
X144740476Y-62771428D01*
X144740476Y-62961904D01*
X144788095Y-63057142D01*
X144835714Y-63104761D01*
X144930952Y-63152380D01*
X145121428Y-63152380D01*
X145216666Y-63104761D01*
X145264285Y-63057142D01*
X145311904Y-62961904D01*
X145311904Y-62771428D01*
X145264285Y-62676190D01*
X145216666Y-62628571D01*
X145121428Y-62580952D01*
%TO.C,C10*%
X140277142Y-58167857D02*
X140324761Y-58215476D01*
X140372380Y-58358333D01*
X140372380Y-58453571D01*
X140324761Y-58596428D01*
X140229523Y-58691666D01*
X140134285Y-58739285D01*
X139943809Y-58786904D01*
X139800952Y-58786904D01*
X139610476Y-58739285D01*
X139515238Y-58691666D01*
X139420000Y-58596428D01*
X139372380Y-58453571D01*
X139372380Y-58358333D01*
X139420000Y-58215476D01*
X139467619Y-58167857D01*
X140372380Y-57215476D02*
X140372380Y-57786904D01*
X140372380Y-57501190D02*
X139372380Y-57501190D01*
X139515238Y-57596428D01*
X139610476Y-57691666D01*
X139658095Y-57786904D01*
X139372380Y-56596428D02*
X139372380Y-56501190D01*
X139420000Y-56405952D01*
X139467619Y-56358333D01*
X139562857Y-56310714D01*
X139753333Y-56263095D01*
X139991428Y-56263095D01*
X140181904Y-56310714D01*
X140277142Y-56358333D01*
X140324761Y-56405952D01*
X140372380Y-56501190D01*
X140372380Y-56596428D01*
X140324761Y-56691666D01*
X140277142Y-56739285D01*
X140181904Y-56786904D01*
X139991428Y-56834523D01*
X139753333Y-56834523D01*
X139562857Y-56786904D01*
X139467619Y-56739285D01*
X139420000Y-56691666D01*
X139372380Y-56596428D01*
%TO.C,TP6*%
X155166666Y-49652380D02*
X155500000Y-50652380D01*
X155833333Y-49652380D01*
X156166666Y-49652380D02*
X156166666Y-50461904D01*
X156214285Y-50557142D01*
X156261904Y-50604761D01*
X156357142Y-50652380D01*
X156547619Y-50652380D01*
X156642857Y-50604761D01*
X156690476Y-50557142D01*
X156738095Y-50461904D01*
X156738095Y-49652380D01*
X157166666Y-50604761D02*
X157309523Y-50652380D01*
X157547619Y-50652380D01*
X157642857Y-50604761D01*
X157690476Y-50557142D01*
X157738095Y-50461904D01*
X157738095Y-50366666D01*
X157690476Y-50271428D01*
X157642857Y-50223809D01*
X157547619Y-50176190D01*
X157357142Y-50128571D01*
X157261904Y-50080952D01*
X157214285Y-50033333D01*
X157166666Y-49938095D01*
X157166666Y-49842857D01*
X157214285Y-49747619D01*
X157261904Y-49700000D01*
X157357142Y-49652380D01*
X157595238Y-49652380D01*
X157738095Y-49700000D01*
X158500000Y-50128571D02*
X158642857Y-50176190D01*
X158690476Y-50223809D01*
X158738095Y-50319047D01*
X158738095Y-50461904D01*
X158690476Y-50557142D01*
X158642857Y-50604761D01*
X158547619Y-50652380D01*
X158166666Y-50652380D01*
X158166666Y-49652380D01*
X158500000Y-49652380D01*
X158595238Y-49700000D01*
X158642857Y-49747619D01*
X158690476Y-49842857D01*
X158690476Y-49938095D01*
X158642857Y-50033333D01*
X158595238Y-50080952D01*
X158500000Y-50128571D01*
X158166666Y-50128571D01*
%TO.C,JP2*%
X146816666Y-104452380D02*
X146816666Y-105166666D01*
X146769047Y-105309523D01*
X146673809Y-105404761D01*
X146530952Y-105452380D01*
X146435714Y-105452380D01*
X147292857Y-105452380D02*
X147292857Y-104452380D01*
X147673809Y-104452380D01*
X147769047Y-104500000D01*
X147816666Y-104547619D01*
X147864285Y-104642857D01*
X147864285Y-104785714D01*
X147816666Y-104880952D01*
X147769047Y-104928571D01*
X147673809Y-104976190D01*
X147292857Y-104976190D01*
X148245238Y-104547619D02*
X148292857Y-104500000D01*
X148388095Y-104452380D01*
X148626190Y-104452380D01*
X148721428Y-104500000D01*
X148769047Y-104547619D01*
X148816666Y-104642857D01*
X148816666Y-104738095D01*
X148769047Y-104880952D01*
X148197619Y-105452380D01*
X148816666Y-105452380D01*
%TO.C,JP1*%
X146816666Y-100152380D02*
X146816666Y-100866666D01*
X146769047Y-101009523D01*
X146673809Y-101104761D01*
X146530952Y-101152380D01*
X146435714Y-101152380D01*
X147292857Y-101152380D02*
X147292857Y-100152380D01*
X147673809Y-100152380D01*
X147769047Y-100200000D01*
X147816666Y-100247619D01*
X147864285Y-100342857D01*
X147864285Y-100485714D01*
X147816666Y-100580952D01*
X147769047Y-100628571D01*
X147673809Y-100676190D01*
X147292857Y-100676190D01*
X148816666Y-101152380D02*
X148245238Y-101152380D01*
X148530952Y-101152380D02*
X148530952Y-100152380D01*
X148435714Y-100295238D01*
X148340476Y-100390476D01*
X148245238Y-100438095D01*
%TO.C,TP5*%
X167952380Y-71395238D02*
X168952380Y-71061904D01*
X167952380Y-70728571D01*
X168952380Y-70395238D02*
X167952380Y-70395238D01*
X168952380Y-69919047D02*
X167952380Y-69919047D01*
X168952380Y-69347619D01*
X167952380Y-69347619D01*
%TO.C,TP3*%
X156880952Y-67728571D02*
X157023809Y-67776190D01*
X157071428Y-67823809D01*
X157119047Y-67919047D01*
X157119047Y-68061904D01*
X157071428Y-68157142D01*
X157023809Y-68204761D01*
X156928571Y-68252380D01*
X156547619Y-68252380D01*
X156547619Y-67252380D01*
X156880952Y-67252380D01*
X156976190Y-67300000D01*
X157023809Y-67347619D01*
X157071428Y-67442857D01*
X157071428Y-67538095D01*
X157023809Y-67633333D01*
X156976190Y-67680952D01*
X156880952Y-67728571D01*
X156547619Y-67728571D01*
X157500000Y-67966666D02*
X157976190Y-67966666D01*
X157404761Y-68252380D02*
X157738095Y-67252380D01*
X158071428Y-68252380D01*
X158261904Y-67252380D02*
X158833333Y-67252380D01*
X158547619Y-68252380D02*
X158547619Y-67252380D01*
X159023809Y-67252380D02*
X159595238Y-67252380D01*
X159309523Y-68252380D02*
X159309523Y-67252380D01*
%TO.C,TP2*%
X147238095Y-94600000D02*
X147142857Y-94552380D01*
X147000000Y-94552380D01*
X146857142Y-94600000D01*
X146761904Y-94695238D01*
X146714285Y-94790476D01*
X146666666Y-94980952D01*
X146666666Y-95123809D01*
X146714285Y-95314285D01*
X146761904Y-95409523D01*
X146857142Y-95504761D01*
X147000000Y-95552380D01*
X147095238Y-95552380D01*
X147238095Y-95504761D01*
X147285714Y-95457142D01*
X147285714Y-95123809D01*
X147095238Y-95123809D01*
X147714285Y-95552380D02*
X147714285Y-94552380D01*
X148285714Y-95552380D01*
X148285714Y-94552380D01*
X148761904Y-95552380D02*
X148761904Y-94552380D01*
X149000000Y-94552380D01*
X149142857Y-94600000D01*
X149238095Y-94695238D01*
X149285714Y-94790476D01*
X149333333Y-94980952D01*
X149333333Y-95123809D01*
X149285714Y-95314285D01*
X149238095Y-95409523D01*
X149142857Y-95504761D01*
X149000000Y-95552380D01*
X148761904Y-95552380D01*
%TO.C,TP1*%
X174200000Y-85871428D02*
X174961904Y-85871428D01*
X174580952Y-86252380D02*
X174580952Y-85490476D01*
X175342857Y-85252380D02*
X175961904Y-85252380D01*
X175628571Y-85633333D01*
X175771428Y-85633333D01*
X175866666Y-85680952D01*
X175914285Y-85728571D01*
X175961904Y-85823809D01*
X175961904Y-86061904D01*
X175914285Y-86157142D01*
X175866666Y-86204761D01*
X175771428Y-86252380D01*
X175485714Y-86252380D01*
X175390476Y-86204761D01*
X175342857Y-86157142D01*
X176390476Y-86157142D02*
X176438095Y-86204761D01*
X176390476Y-86252380D01*
X176342857Y-86204761D01*
X176390476Y-86157142D01*
X176390476Y-86252380D01*
X176771428Y-85252380D02*
X177390476Y-85252380D01*
X177057142Y-85633333D01*
X177200000Y-85633333D01*
X177295238Y-85680952D01*
X177342857Y-85728571D01*
X177390476Y-85823809D01*
X177390476Y-86061904D01*
X177342857Y-86157142D01*
X177295238Y-86204761D01*
X177200000Y-86252380D01*
X176914285Y-86252380D01*
X176819047Y-86204761D01*
X176771428Y-86157142D01*
X177676190Y-85252380D02*
X178009523Y-86252380D01*
X178342857Y-85252380D01*
%TO.C,U7*%
X160688095Y-113052380D02*
X160688095Y-113861904D01*
X160735714Y-113957142D01*
X160783333Y-114004761D01*
X160878571Y-114052380D01*
X161069047Y-114052380D01*
X161164285Y-114004761D01*
X161211904Y-113957142D01*
X161259523Y-113861904D01*
X161259523Y-113052380D01*
X161640476Y-113052380D02*
X162307142Y-113052380D01*
X161878571Y-114052380D01*
%TO.C,U6*%
X169888095Y-67202380D02*
X169888095Y-68011904D01*
X169935714Y-68107142D01*
X169983333Y-68154761D01*
X170078571Y-68202380D01*
X170269047Y-68202380D01*
X170364285Y-68154761D01*
X170411904Y-68107142D01*
X170459523Y-68011904D01*
X170459523Y-67202380D01*
X171364285Y-67202380D02*
X171173809Y-67202380D01*
X171078571Y-67250000D01*
X171030952Y-67297619D01*
X170935714Y-67440476D01*
X170888095Y-67630952D01*
X170888095Y-68011904D01*
X170935714Y-68107142D01*
X170983333Y-68154761D01*
X171078571Y-68202380D01*
X171269047Y-68202380D01*
X171364285Y-68154761D01*
X171411904Y-68107142D01*
X171459523Y-68011904D01*
X171459523Y-67773809D01*
X171411904Y-67678571D01*
X171364285Y-67630952D01*
X171269047Y-67583333D01*
X171078571Y-67583333D01*
X170983333Y-67630952D01*
X170935714Y-67678571D01*
X170888095Y-67773809D01*
%TO.C,S3*%
X168398095Y-65107761D02*
X168540952Y-65155380D01*
X168779047Y-65155380D01*
X168874285Y-65107761D01*
X168921904Y-65060142D01*
X168969523Y-64964904D01*
X168969523Y-64869666D01*
X168921904Y-64774428D01*
X168874285Y-64726809D01*
X168779047Y-64679190D01*
X168588571Y-64631571D01*
X168493333Y-64583952D01*
X168445714Y-64536333D01*
X168398095Y-64441095D01*
X168398095Y-64345857D01*
X168445714Y-64250619D01*
X168493333Y-64203000D01*
X168588571Y-64155380D01*
X168826666Y-64155380D01*
X168969523Y-64203000D01*
X169302857Y-64155380D02*
X169921904Y-64155380D01*
X169588571Y-64536333D01*
X169731428Y-64536333D01*
X169826666Y-64583952D01*
X169874285Y-64631571D01*
X169921904Y-64726809D01*
X169921904Y-64964904D01*
X169874285Y-65060142D01*
X169826666Y-65107761D01*
X169731428Y-65155380D01*
X169445714Y-65155380D01*
X169350476Y-65107761D01*
X169302857Y-65060142D01*
%TO.C,S2*%
X173681295Y-65006161D02*
X173824152Y-65053780D01*
X174062247Y-65053780D01*
X174157485Y-65006161D01*
X174205104Y-64958542D01*
X174252723Y-64863304D01*
X174252723Y-64768066D01*
X174205104Y-64672828D01*
X174157485Y-64625209D01*
X174062247Y-64577590D01*
X173871771Y-64529971D01*
X173776533Y-64482352D01*
X173728914Y-64434733D01*
X173681295Y-64339495D01*
X173681295Y-64244257D01*
X173728914Y-64149019D01*
X173776533Y-64101400D01*
X173871771Y-64053780D01*
X174109866Y-64053780D01*
X174252723Y-64101400D01*
X174633676Y-64149019D02*
X174681295Y-64101400D01*
X174776533Y-64053780D01*
X175014628Y-64053780D01*
X175109866Y-64101400D01*
X175157485Y-64149019D01*
X175205104Y-64244257D01*
X175205104Y-64339495D01*
X175157485Y-64482352D01*
X174586057Y-65053780D01*
X175205104Y-65053780D01*
%TO.C,J3*%
X132700194Y-133134664D02*
X133417332Y-133134664D01*
X133560759Y-133182473D01*
X133656377Y-133278091D01*
X133704186Y-133421518D01*
X133704186Y-133517137D01*
X132700194Y-132752190D02*
X132700194Y-132130672D01*
X133082668Y-132465336D01*
X133082668Y-132321908D01*
X133130477Y-132226290D01*
X133178286Y-132178481D01*
X133273904Y-132130672D01*
X133512950Y-132130672D01*
X133608568Y-132178481D01*
X133656377Y-132226290D01*
X133704186Y-132321908D01*
X133704186Y-132608763D01*
X133656377Y-132704381D01*
X133608568Y-132752190D01*
%TO.C,C11*%
X161707142Y-121357142D02*
X161659523Y-121404761D01*
X161516666Y-121452380D01*
X161421428Y-121452380D01*
X161278571Y-121404761D01*
X161183333Y-121309523D01*
X161135714Y-121214285D01*
X161088095Y-121023809D01*
X161088095Y-120880952D01*
X161135714Y-120690476D01*
X161183333Y-120595238D01*
X161278571Y-120500000D01*
X161421428Y-120452380D01*
X161516666Y-120452380D01*
X161659523Y-120500000D01*
X161707142Y-120547619D01*
X162659523Y-121452380D02*
X162088095Y-121452380D01*
X162373809Y-121452380D02*
X162373809Y-120452380D01*
X162278571Y-120595238D01*
X162183333Y-120690476D01*
X162088095Y-120738095D01*
X163611904Y-121452380D02*
X163040476Y-121452380D01*
X163326190Y-121452380D02*
X163326190Y-120452380D01*
X163230952Y-120595238D01*
X163135714Y-120690476D01*
X163040476Y-120738095D01*
%TO.C,C8*%
X163983333Y-66757142D02*
X163935714Y-66804761D01*
X163792857Y-66852380D01*
X163697619Y-66852380D01*
X163554761Y-66804761D01*
X163459523Y-66709523D01*
X163411904Y-66614285D01*
X163364285Y-66423809D01*
X163364285Y-66280952D01*
X163411904Y-66090476D01*
X163459523Y-65995238D01*
X163554761Y-65900000D01*
X163697619Y-65852380D01*
X163792857Y-65852380D01*
X163935714Y-65900000D01*
X163983333Y-65947619D01*
X164554761Y-66280952D02*
X164459523Y-66233333D01*
X164411904Y-66185714D01*
X164364285Y-66090476D01*
X164364285Y-66042857D01*
X164411904Y-65947619D01*
X164459523Y-65900000D01*
X164554761Y-65852380D01*
X164745238Y-65852380D01*
X164840476Y-65900000D01*
X164888095Y-65947619D01*
X164935714Y-66042857D01*
X164935714Y-66090476D01*
X164888095Y-66185714D01*
X164840476Y-66233333D01*
X164745238Y-66280952D01*
X164554761Y-66280952D01*
X164459523Y-66328571D01*
X164411904Y-66376190D01*
X164364285Y-66471428D01*
X164364285Y-66661904D01*
X164411904Y-66757142D01*
X164459523Y-66804761D01*
X164554761Y-66852380D01*
X164745238Y-66852380D01*
X164840476Y-66804761D01*
X164888095Y-66757142D01*
X164935714Y-66661904D01*
X164935714Y-66471428D01*
X164888095Y-66376190D01*
X164840476Y-66328571D01*
X164745238Y-66280952D01*
%TO.C,C4*%
X155057142Y-74916666D02*
X155104761Y-74964285D01*
X155152380Y-75107142D01*
X155152380Y-75202380D01*
X155104761Y-75345238D01*
X155009523Y-75440476D01*
X154914285Y-75488095D01*
X154723809Y-75535714D01*
X154580952Y-75535714D01*
X154390476Y-75488095D01*
X154295238Y-75440476D01*
X154200000Y-75345238D01*
X154152380Y-75202380D01*
X154152380Y-75107142D01*
X154200000Y-74964285D01*
X154247619Y-74916666D01*
X154485714Y-74059523D02*
X155152380Y-74059523D01*
X154104761Y-74297619D02*
X154819047Y-74535714D01*
X154819047Y-73916666D01*
%TO.C,C2*%
X153735142Y-63128666D02*
X153782761Y-63176285D01*
X153830380Y-63319142D01*
X153830380Y-63414380D01*
X153782761Y-63557238D01*
X153687523Y-63652476D01*
X153592285Y-63700095D01*
X153401809Y-63747714D01*
X153258952Y-63747714D01*
X153068476Y-63700095D01*
X152973238Y-63652476D01*
X152878000Y-63557238D01*
X152830380Y-63414380D01*
X152830380Y-63319142D01*
X152878000Y-63176285D01*
X152925619Y-63128666D01*
X152925619Y-62747714D02*
X152878000Y-62700095D01*
X152830380Y-62604857D01*
X152830380Y-62366761D01*
X152878000Y-62271523D01*
X152925619Y-62223904D01*
X153020857Y-62176285D01*
X153116095Y-62176285D01*
X153258952Y-62223904D01*
X153830380Y-62795333D01*
X153830380Y-62176285D01*
%TO.C,U8*%
X142594095Y-71245380D02*
X142594095Y-72054904D01*
X142641714Y-72150142D01*
X142689333Y-72197761D01*
X142784571Y-72245380D01*
X142975047Y-72245380D01*
X143070285Y-72197761D01*
X143117904Y-72150142D01*
X143165523Y-72054904D01*
X143165523Y-71245380D01*
X143784571Y-71673952D02*
X143689333Y-71626333D01*
X143641714Y-71578714D01*
X143594095Y-71483476D01*
X143594095Y-71435857D01*
X143641714Y-71340619D01*
X143689333Y-71293000D01*
X143784571Y-71245380D01*
X143975047Y-71245380D01*
X144070285Y-71293000D01*
X144117904Y-71340619D01*
X144165523Y-71435857D01*
X144165523Y-71483476D01*
X144117904Y-71578714D01*
X144070285Y-71626333D01*
X143975047Y-71673952D01*
X143784571Y-71673952D01*
X143689333Y-71721571D01*
X143641714Y-71769190D01*
X143594095Y-71864428D01*
X143594095Y-72054904D01*
X143641714Y-72150142D01*
X143689333Y-72197761D01*
X143784571Y-72245380D01*
X143975047Y-72245380D01*
X144070285Y-72197761D01*
X144117904Y-72150142D01*
X144165523Y-72054904D01*
X144165523Y-71864428D01*
X144117904Y-71769190D01*
X144070285Y-71721571D01*
X143975047Y-71673952D01*
%TO.C,C7*%
X173633333Y-77257142D02*
X173585714Y-77304761D01*
X173442857Y-77352380D01*
X173347619Y-77352380D01*
X173204761Y-77304761D01*
X173109523Y-77209523D01*
X173061904Y-77114285D01*
X173014285Y-76923809D01*
X173014285Y-76780952D01*
X173061904Y-76590476D01*
X173109523Y-76495238D01*
X173204761Y-76400000D01*
X173347619Y-76352380D01*
X173442857Y-76352380D01*
X173585714Y-76400000D01*
X173633333Y-76447619D01*
X173966666Y-76352380D02*
X174633333Y-76352380D01*
X174204761Y-77352380D01*
%TO.C,C3*%
X163543142Y-62940666D02*
X163590761Y-62988285D01*
X163638380Y-63131142D01*
X163638380Y-63226380D01*
X163590761Y-63369238D01*
X163495523Y-63464476D01*
X163400285Y-63512095D01*
X163209809Y-63559714D01*
X163066952Y-63559714D01*
X162876476Y-63512095D01*
X162781238Y-63464476D01*
X162686000Y-63369238D01*
X162638380Y-63226380D01*
X162638380Y-63131142D01*
X162686000Y-62988285D01*
X162733619Y-62940666D01*
X162638380Y-62607333D02*
X162638380Y-61988285D01*
X163019333Y-62321619D01*
X163019333Y-62178761D01*
X163066952Y-62083523D01*
X163114571Y-62035904D01*
X163209809Y-61988285D01*
X163447904Y-61988285D01*
X163543142Y-62035904D01*
X163590761Y-62083523D01*
X163638380Y-62178761D01*
X163638380Y-62464476D01*
X163590761Y-62559714D01*
X163543142Y-62607333D01*
%TO.C,R17*%
X163522380Y-139123457D02*
X163046190Y-139456790D01*
X163522380Y-139694885D02*
X162522380Y-139694885D01*
X162522380Y-139313933D01*
X162570000Y-139218695D01*
X162617619Y-139171076D01*
X162712857Y-139123457D01*
X162855714Y-139123457D01*
X162950952Y-139171076D01*
X162998571Y-139218695D01*
X163046190Y-139313933D01*
X163046190Y-139694885D01*
X163522380Y-138171076D02*
X163522380Y-138742504D01*
X163522380Y-138456790D02*
X162522380Y-138456790D01*
X162665238Y-138552028D01*
X162760476Y-138647266D01*
X162808095Y-138742504D01*
X162522380Y-137837742D02*
X162522380Y-137171076D01*
X163522380Y-137599647D01*
%TO.C,R16*%
X153362380Y-139110257D02*
X152886190Y-139443590D01*
X153362380Y-139681685D02*
X152362380Y-139681685D01*
X152362380Y-139300733D01*
X152410000Y-139205495D01*
X152457619Y-139157876D01*
X152552857Y-139110257D01*
X152695714Y-139110257D01*
X152790952Y-139157876D01*
X152838571Y-139205495D01*
X152886190Y-139300733D01*
X152886190Y-139681685D01*
X153362380Y-138157876D02*
X153362380Y-138729304D01*
X153362380Y-138443590D02*
X152362380Y-138443590D01*
X152505238Y-138538828D01*
X152600476Y-138634066D01*
X152648095Y-138729304D01*
X152362380Y-137300733D02*
X152362380Y-137491209D01*
X152410000Y-137586447D01*
X152457619Y-137634066D01*
X152600476Y-137729304D01*
X152790952Y-137776923D01*
X153171904Y-137776923D01*
X153267142Y-137729304D01*
X153314761Y-137681685D01*
X153362380Y-137586447D01*
X153362380Y-137395971D01*
X153314761Y-137300733D01*
X153267142Y-137253114D01*
X153171904Y-137205495D01*
X152933809Y-137205495D01*
X152838571Y-137253114D01*
X152790952Y-137300733D01*
X152743333Y-137395971D01*
X152743333Y-137586447D01*
X152790952Y-137681685D01*
X152838571Y-137729304D01*
X152933809Y-137776923D01*
%TO.C,Q1*%
X147232419Y-65307838D02*
X147184800Y-65403076D01*
X147089561Y-65498314D01*
X146946704Y-65641171D01*
X146899085Y-65736409D01*
X146899085Y-65831647D01*
X147137180Y-65784028D02*
X147089561Y-65879266D01*
X146994323Y-65974504D01*
X146803847Y-66022123D01*
X146470514Y-66022123D01*
X146280038Y-65974504D01*
X146184800Y-65879266D01*
X146137180Y-65784028D01*
X146137180Y-65593552D01*
X146184800Y-65498314D01*
X146280038Y-65403076D01*
X146470514Y-65355457D01*
X146803847Y-65355457D01*
X146994323Y-65403076D01*
X147089561Y-65498314D01*
X147137180Y-65593552D01*
X147137180Y-65784028D01*
X147137180Y-64403076D02*
X147137180Y-64974504D01*
X147137180Y-64688790D02*
X146137180Y-64688790D01*
X146280038Y-64784028D01*
X146375276Y-64879266D01*
X146422895Y-64974504D01*
%TO.C,C9*%
X168187142Y-138595666D02*
X168234761Y-138643285D01*
X168282380Y-138786142D01*
X168282380Y-138881380D01*
X168234761Y-139024238D01*
X168139523Y-139119476D01*
X168044285Y-139167095D01*
X167853809Y-139214714D01*
X167710952Y-139214714D01*
X167520476Y-139167095D01*
X167425238Y-139119476D01*
X167330000Y-139024238D01*
X167282380Y-138881380D01*
X167282380Y-138786142D01*
X167330000Y-138643285D01*
X167377619Y-138595666D01*
X168282380Y-138119476D02*
X168282380Y-137929000D01*
X168234761Y-137833761D01*
X168187142Y-137786142D01*
X168044285Y-137690904D01*
X167853809Y-137643285D01*
X167472857Y-137643285D01*
X167377619Y-137690904D01*
X167330000Y-137738523D01*
X167282380Y-137833761D01*
X167282380Y-138024238D01*
X167330000Y-138119476D01*
X167377619Y-138167095D01*
X167472857Y-138214714D01*
X167710952Y-138214714D01*
X167806190Y-138167095D01*
X167853809Y-138119476D01*
X167901428Y-138024238D01*
X167901428Y-137833761D01*
X167853809Y-137738523D01*
X167806190Y-137690904D01*
X167710952Y-137643285D01*
%TO.C,R7*%
X144887133Y-53727180D02*
X144553800Y-53250990D01*
X144315704Y-53727180D02*
X144315704Y-52727180D01*
X144696657Y-52727180D01*
X144791895Y-52774800D01*
X144839514Y-52822419D01*
X144887133Y-52917657D01*
X144887133Y-53060514D01*
X144839514Y-53155752D01*
X144791895Y-53203371D01*
X144696657Y-53250990D01*
X144315704Y-53250990D01*
X145220466Y-52727180D02*
X145887133Y-52727180D01*
X145458561Y-53727180D01*
%TO.C,R14*%
X167357142Y-52152380D02*
X167023809Y-51676190D01*
X166785714Y-52152380D02*
X166785714Y-51152380D01*
X167166666Y-51152380D01*
X167261904Y-51200000D01*
X167309523Y-51247619D01*
X167357142Y-51342857D01*
X167357142Y-51485714D01*
X167309523Y-51580952D01*
X167261904Y-51628571D01*
X167166666Y-51676190D01*
X166785714Y-51676190D01*
X168309523Y-52152380D02*
X167738095Y-52152380D01*
X168023809Y-52152380D02*
X168023809Y-51152380D01*
X167928571Y-51295238D01*
X167833333Y-51390476D01*
X167738095Y-51438095D01*
X169166666Y-51485714D02*
X169166666Y-52152380D01*
X168928571Y-51104761D02*
X168690476Y-51819047D01*
X169309523Y-51819047D01*
%TO.C,C17*%
X136107142Y-81892857D02*
X136154761Y-81940476D01*
X136202380Y-82083333D01*
X136202380Y-82178571D01*
X136154761Y-82321428D01*
X136059523Y-82416666D01*
X135964285Y-82464285D01*
X135773809Y-82511904D01*
X135630952Y-82511904D01*
X135440476Y-82464285D01*
X135345238Y-82416666D01*
X135250000Y-82321428D01*
X135202380Y-82178571D01*
X135202380Y-82083333D01*
X135250000Y-81940476D01*
X135297619Y-81892857D01*
X136202380Y-80940476D02*
X136202380Y-81511904D01*
X136202380Y-81226190D02*
X135202380Y-81226190D01*
X135345238Y-81321428D01*
X135440476Y-81416666D01*
X135488095Y-81511904D01*
X135202380Y-80607142D02*
X135202380Y-79940476D01*
X136202380Y-80369047D01*
%TO.C,C16*%
X136187142Y-74927857D02*
X136234761Y-74975476D01*
X136282380Y-75118333D01*
X136282380Y-75213571D01*
X136234761Y-75356428D01*
X136139523Y-75451666D01*
X136044285Y-75499285D01*
X135853809Y-75546904D01*
X135710952Y-75546904D01*
X135520476Y-75499285D01*
X135425238Y-75451666D01*
X135330000Y-75356428D01*
X135282380Y-75213571D01*
X135282380Y-75118333D01*
X135330000Y-74975476D01*
X135377619Y-74927857D01*
X136282380Y-73975476D02*
X136282380Y-74546904D01*
X136282380Y-74261190D02*
X135282380Y-74261190D01*
X135425238Y-74356428D01*
X135520476Y-74451666D01*
X135568095Y-74546904D01*
X135282380Y-73118333D02*
X135282380Y-73308809D01*
X135330000Y-73404047D01*
X135377619Y-73451666D01*
X135520476Y-73546904D01*
X135710952Y-73594523D01*
X136091904Y-73594523D01*
X136187142Y-73546904D01*
X136234761Y-73499285D01*
X136282380Y-73404047D01*
X136282380Y-73213571D01*
X136234761Y-73118333D01*
X136187142Y-73070714D01*
X136091904Y-73023095D01*
X135853809Y-73023095D01*
X135758571Y-73070714D01*
X135710952Y-73118333D01*
X135663333Y-73213571D01*
X135663333Y-73404047D01*
X135710952Y-73499285D01*
X135758571Y-73546904D01*
X135853809Y-73594523D01*
%TO.C,C15*%
X136093142Y-78457857D02*
X136140761Y-78505476D01*
X136188380Y-78648333D01*
X136188380Y-78743571D01*
X136140761Y-78886428D01*
X136045523Y-78981666D01*
X135950285Y-79029285D01*
X135759809Y-79076904D01*
X135616952Y-79076904D01*
X135426476Y-79029285D01*
X135331238Y-78981666D01*
X135236000Y-78886428D01*
X135188380Y-78743571D01*
X135188380Y-78648333D01*
X135236000Y-78505476D01*
X135283619Y-78457857D01*
X136188380Y-77505476D02*
X136188380Y-78076904D01*
X136188380Y-77791190D02*
X135188380Y-77791190D01*
X135331238Y-77886428D01*
X135426476Y-77981666D01*
X135474095Y-78076904D01*
X135188380Y-76600714D02*
X135188380Y-77076904D01*
X135664571Y-77124523D01*
X135616952Y-77076904D01*
X135569333Y-76981666D01*
X135569333Y-76743571D01*
X135616952Y-76648333D01*
X135664571Y-76600714D01*
X135759809Y-76553095D01*
X135997904Y-76553095D01*
X136093142Y-76600714D01*
X136140761Y-76648333D01*
X136188380Y-76743571D01*
X136188380Y-76981666D01*
X136140761Y-77076904D01*
X136093142Y-77124523D01*
%TO.C,C14*%
X138890142Y-70405142D02*
X138842523Y-70452761D01*
X138699666Y-70500380D01*
X138604428Y-70500380D01*
X138461571Y-70452761D01*
X138366333Y-70357523D01*
X138318714Y-70262285D01*
X138271095Y-70071809D01*
X138271095Y-69928952D01*
X138318714Y-69738476D01*
X138366333Y-69643238D01*
X138461571Y-69548000D01*
X138604428Y-69500380D01*
X138699666Y-69500380D01*
X138842523Y-69548000D01*
X138890142Y-69595619D01*
X139842523Y-70500380D02*
X139271095Y-70500380D01*
X139556809Y-70500380D02*
X139556809Y-69500380D01*
X139461571Y-69643238D01*
X139366333Y-69738476D01*
X139271095Y-69786095D01*
X140699666Y-69833714D02*
X140699666Y-70500380D01*
X140461571Y-69452761D02*
X140223476Y-70167047D01*
X140842523Y-70167047D01*
%TO.C,C13*%
X152737142Y-74927857D02*
X152784761Y-74975476D01*
X152832380Y-75118333D01*
X152832380Y-75213571D01*
X152784761Y-75356428D01*
X152689523Y-75451666D01*
X152594285Y-75499285D01*
X152403809Y-75546904D01*
X152260952Y-75546904D01*
X152070476Y-75499285D01*
X151975238Y-75451666D01*
X151880000Y-75356428D01*
X151832380Y-75213571D01*
X151832380Y-75118333D01*
X151880000Y-74975476D01*
X151927619Y-74927857D01*
X152832380Y-73975476D02*
X152832380Y-74546904D01*
X152832380Y-74261190D02*
X151832380Y-74261190D01*
X151975238Y-74356428D01*
X152070476Y-74451666D01*
X152118095Y-74546904D01*
X151832380Y-73642142D02*
X151832380Y-73023095D01*
X152213333Y-73356428D01*
X152213333Y-73213571D01*
X152260952Y-73118333D01*
X152308571Y-73070714D01*
X152403809Y-73023095D01*
X152641904Y-73023095D01*
X152737142Y-73070714D01*
X152784761Y-73118333D01*
X152832380Y-73213571D01*
X152832380Y-73499285D01*
X152784761Y-73594523D01*
X152737142Y-73642142D01*
%TO.C,C12*%
X173808142Y-90189857D02*
X173855761Y-90237476D01*
X173903380Y-90380333D01*
X173903380Y-90475571D01*
X173855761Y-90618428D01*
X173760523Y-90713666D01*
X173665285Y-90761285D01*
X173474809Y-90808904D01*
X173331952Y-90808904D01*
X173141476Y-90761285D01*
X173046238Y-90713666D01*
X172951000Y-90618428D01*
X172903380Y-90475571D01*
X172903380Y-90380333D01*
X172951000Y-90237476D01*
X172998619Y-90189857D01*
X173903380Y-89237476D02*
X173903380Y-89808904D01*
X173903380Y-89523190D02*
X172903380Y-89523190D01*
X173046238Y-89618428D01*
X173141476Y-89713666D01*
X173189095Y-89808904D01*
X172998619Y-88856523D02*
X172951000Y-88808904D01*
X172903380Y-88713666D01*
X172903380Y-88475571D01*
X172951000Y-88380333D01*
X172998619Y-88332714D01*
X173093857Y-88285095D01*
X173189095Y-88285095D01*
X173331952Y-88332714D01*
X173903380Y-88904142D01*
X173903380Y-88285095D01*
%TO.C,U3*%
X152088095Y-54202380D02*
X152088095Y-55011904D01*
X152135714Y-55107142D01*
X152183333Y-55154761D01*
X152278571Y-55202380D01*
X152469047Y-55202380D01*
X152564285Y-55154761D01*
X152611904Y-55107142D01*
X152659523Y-55011904D01*
X152659523Y-54202380D01*
X153040476Y-54202380D02*
X153659523Y-54202380D01*
X153326190Y-54583333D01*
X153469047Y-54583333D01*
X153564285Y-54630952D01*
X153611904Y-54678571D01*
X153659523Y-54773809D01*
X153659523Y-55011904D01*
X153611904Y-55107142D01*
X153564285Y-55154761D01*
X153469047Y-55202380D01*
X153183333Y-55202380D01*
X153088095Y-55154761D01*
X153040476Y-55107142D01*
%TO.C,R12*%
X152305780Y-96451457D02*
X151829590Y-96784790D01*
X152305780Y-97022885D02*
X151305780Y-97022885D01*
X151305780Y-96641933D01*
X151353400Y-96546695D01*
X151401019Y-96499076D01*
X151496257Y-96451457D01*
X151639114Y-96451457D01*
X151734352Y-96499076D01*
X151781971Y-96546695D01*
X151829590Y-96641933D01*
X151829590Y-97022885D01*
X152305780Y-95499076D02*
X152305780Y-96070504D01*
X152305780Y-95784790D02*
X151305780Y-95784790D01*
X151448638Y-95880028D01*
X151543876Y-95975266D01*
X151591495Y-96070504D01*
X151401019Y-95118123D02*
X151353400Y-95070504D01*
X151305780Y-94975266D01*
X151305780Y-94737171D01*
X151353400Y-94641933D01*
X151401019Y-94594314D01*
X151496257Y-94546695D01*
X151591495Y-94546695D01*
X151734352Y-94594314D01*
X152305780Y-95165742D01*
X152305780Y-94546695D01*
%TO.C,R9*%
X161196380Y-65922666D02*
X160720190Y-66256000D01*
X161196380Y-66494095D02*
X160196380Y-66494095D01*
X160196380Y-66113142D01*
X160244000Y-66017904D01*
X160291619Y-65970285D01*
X160386857Y-65922666D01*
X160529714Y-65922666D01*
X160624952Y-65970285D01*
X160672571Y-66017904D01*
X160720190Y-66113142D01*
X160720190Y-66494095D01*
X161196380Y-65446476D02*
X161196380Y-65256000D01*
X161148761Y-65160761D01*
X161101142Y-65113142D01*
X160958285Y-65017904D01*
X160767809Y-64970285D01*
X160386857Y-64970285D01*
X160291619Y-65017904D01*
X160244000Y-65065523D01*
X160196380Y-65160761D01*
X160196380Y-65351238D01*
X160244000Y-65446476D01*
X160291619Y-65494095D01*
X160386857Y-65541714D01*
X160624952Y-65541714D01*
X160720190Y-65494095D01*
X160767809Y-65446476D01*
X160815428Y-65351238D01*
X160815428Y-65160761D01*
X160767809Y-65065523D01*
X160720190Y-65017904D01*
X160624952Y-64970285D01*
%TO.C,R3*%
X168569380Y-89827466D02*
X168093190Y-90160800D01*
X168569380Y-90398895D02*
X167569380Y-90398895D01*
X167569380Y-90017942D01*
X167617000Y-89922704D01*
X167664619Y-89875085D01*
X167759857Y-89827466D01*
X167902714Y-89827466D01*
X167997952Y-89875085D01*
X168045571Y-89922704D01*
X168093190Y-90017942D01*
X168093190Y-90398895D01*
X167569380Y-89494133D02*
X167569380Y-88875085D01*
X167950333Y-89208419D01*
X167950333Y-89065561D01*
X167997952Y-88970323D01*
X168045571Y-88922704D01*
X168140809Y-88875085D01*
X168378904Y-88875085D01*
X168474142Y-88922704D01*
X168521761Y-88970323D01*
X168569380Y-89065561D01*
X168569380Y-89351276D01*
X168521761Y-89446514D01*
X168474142Y-89494133D01*
%TO.C,J4*%
D18*
X159796800Y-60222171D02*
X159796800Y-60657600D01*
X159767771Y-60744685D01*
X159709714Y-60802742D01*
X159622628Y-60831771D01*
X159564571Y-60831771D01*
X160348342Y-60425371D02*
X160348342Y-60831771D01*
X160203200Y-60193142D02*
X160058057Y-60628571D01*
X160435428Y-60628571D01*
X153729828Y-53643934D02*
X153700800Y-53672962D01*
X153613714Y-53701991D01*
X153555657Y-53701991D01*
X153468571Y-53672962D01*
X153410514Y-53614905D01*
X153381485Y-53556848D01*
X153352457Y-53440734D01*
X153352457Y-53353648D01*
X153381485Y-53237534D01*
X153410514Y-53179477D01*
X153468571Y-53121420D01*
X153555657Y-53092391D01*
X153613714Y-53092391D01*
X153700800Y-53121420D01*
X153729828Y-53150448D01*
X154107200Y-53092391D02*
X154223314Y-53092391D01*
X154281371Y-53121420D01*
X154339428Y-53179477D01*
X154368457Y-53295591D01*
X154368457Y-53498791D01*
X154339428Y-53614905D01*
X154281371Y-53672962D01*
X154223314Y-53701991D01*
X154107200Y-53701991D01*
X154049142Y-53672962D01*
X153991085Y-53614905D01*
X153962057Y-53498791D01*
X153962057Y-53295591D01*
X153991085Y-53179477D01*
X154049142Y-53121420D01*
X154107200Y-53092391D01*
X154629714Y-53701991D02*
X154629714Y-53092391D01*
X154978057Y-53701991D01*
X154978057Y-53092391D01*
X155268342Y-53701991D02*
X155268342Y-53092391D01*
X155616685Y-53701991D01*
X155616685Y-53092391D01*
X155761828Y-53760048D02*
X156226285Y-53760048D01*
X156487542Y-53092391D02*
X156545600Y-53092391D01*
X156603657Y-53121420D01*
X156632685Y-53150448D01*
X156661714Y-53208505D01*
X156690742Y-53324620D01*
X156690742Y-53469762D01*
X156661714Y-53585877D01*
X156632685Y-53643934D01*
X156603657Y-53672962D01*
X156545600Y-53701991D01*
X156487542Y-53701991D01*
X156429485Y-53672962D01*
X156400457Y-53643934D01*
X156371428Y-53585877D01*
X156342400Y-53469762D01*
X156342400Y-53324620D01*
X156371428Y-53208505D01*
X156400457Y-53150448D01*
X156429485Y-53121420D01*
X156487542Y-53092391D01*
X156922971Y-53150448D02*
X156952000Y-53121420D01*
X157010057Y-53092391D01*
X157155200Y-53092391D01*
X157213257Y-53121420D01*
X157242285Y-53150448D01*
X157271314Y-53208505D01*
X157271314Y-53266562D01*
X157242285Y-53353648D01*
X156893942Y-53701991D01*
X157271314Y-53701991D01*
X157706742Y-53092391D02*
X157706742Y-53527820D01*
X157677714Y-53614905D01*
X157619657Y-53672962D01*
X157532571Y-53701991D01*
X157474514Y-53701991D01*
X157968000Y-53672962D02*
X158055085Y-53701991D01*
X158200228Y-53701991D01*
X158258285Y-53672962D01*
X158287314Y-53643934D01*
X158316342Y-53585877D01*
X158316342Y-53527820D01*
X158287314Y-53469762D01*
X158258285Y-53440734D01*
X158200228Y-53411705D01*
X158084114Y-53382677D01*
X158026057Y-53353648D01*
X157997028Y-53324620D01*
X157968000Y-53266562D01*
X157968000Y-53208505D01*
X157997028Y-53150448D01*
X158026057Y-53121420D01*
X158084114Y-53092391D01*
X158229257Y-53092391D01*
X158316342Y-53121420D01*
X158490514Y-53092391D02*
X158838857Y-53092391D01*
X158664685Y-53701991D02*
X158664685Y-53092391D01*
X159042057Y-53469762D02*
X159506514Y-53469762D01*
X159796800Y-53701991D02*
X159796800Y-53092391D01*
X160029028Y-53092391D01*
X160087085Y-53121420D01*
X160116114Y-53150448D01*
X160145142Y-53208505D01*
X160145142Y-53295591D01*
X160116114Y-53353648D01*
X160087085Y-53382677D01*
X160029028Y-53411705D01*
X159796800Y-53411705D01*
X160319314Y-53092391D02*
X160667657Y-53092391D01*
X160493485Y-53701991D02*
X160493485Y-53092391D01*
X160870857Y-53701991D02*
X160870857Y-53092391D01*
X160870857Y-53382677D02*
X161219200Y-53382677D01*
X161219200Y-53701991D02*
X161219200Y-53092391D01*
X161509485Y-53469762D02*
X161973942Y-53469762D01*
X162235200Y-53150448D02*
X162264228Y-53121420D01*
X162322285Y-53092391D01*
X162467428Y-53092391D01*
X162525485Y-53121420D01*
X162554514Y-53150448D01*
X162583542Y-53208505D01*
X162583542Y-53266562D01*
X162554514Y-53353648D01*
X162206171Y-53701991D01*
X162583542Y-53701991D01*
%TO.C,J5*%
X134946800Y-85666171D02*
X134946800Y-86101600D01*
X134917771Y-86188685D01*
X134859714Y-86246742D01*
X134772628Y-86275771D01*
X134714571Y-86275771D01*
X135527371Y-85666171D02*
X135237085Y-85666171D01*
X135208057Y-85956457D01*
X135237085Y-85927428D01*
X135295142Y-85898400D01*
X135440285Y-85898400D01*
X135498342Y-85927428D01*
X135527371Y-85956457D01*
X135556400Y-86014514D01*
X135556400Y-86159657D01*
X135527371Y-86217714D01*
X135498342Y-86246742D01*
X135440285Y-86275771D01*
X135295142Y-86275771D01*
X135237085Y-86246742D01*
X135208057Y-86217714D01*
X125756654Y-55332111D02*
X125756654Y-54722511D01*
X125901797Y-54722511D01*
X125988882Y-54751540D01*
X126046940Y-54809597D01*
X126075968Y-54867654D01*
X126104997Y-54983768D01*
X126104997Y-55070854D01*
X126075968Y-55186968D01*
X126046940Y-55245025D01*
X125988882Y-55303082D01*
X125901797Y-55332111D01*
X125756654Y-55332111D01*
X126569454Y-55012797D02*
X126656540Y-55041825D01*
X126685568Y-55070854D01*
X126714597Y-55128911D01*
X126714597Y-55215997D01*
X126685568Y-55274054D01*
X126656540Y-55303082D01*
X126598482Y-55332111D01*
X126366254Y-55332111D01*
X126366254Y-54722511D01*
X126569454Y-54722511D01*
X126627511Y-54751540D01*
X126656540Y-54780568D01*
X126685568Y-54838625D01*
X126685568Y-54896682D01*
X126656540Y-54954740D01*
X126627511Y-54983768D01*
X126569454Y-55012797D01*
X126366254Y-55012797D01*
X127004882Y-55332111D02*
X127120997Y-55332111D01*
X127179054Y-55303082D01*
X127208082Y-55274054D01*
X127266140Y-55186968D01*
X127295168Y-55070854D01*
X127295168Y-54838625D01*
X127266140Y-54780568D01*
X127237111Y-54751540D01*
X127179054Y-54722511D01*
X127062940Y-54722511D01*
X127004882Y-54751540D01*
X126975854Y-54780568D01*
X126946825Y-54838625D01*
X126946825Y-54983768D01*
X126975854Y-55041825D01*
X127004882Y-55070854D01*
X127062940Y-55099882D01*
X127179054Y-55099882D01*
X127237111Y-55070854D01*
X127266140Y-55041825D01*
X127295168Y-54983768D01*
X127411282Y-55390168D02*
X127875740Y-55390168D01*
X128020882Y-55332111D02*
X128020882Y-54722511D01*
X128224082Y-55157940D01*
X128427282Y-54722511D01*
X128427282Y-55332111D01*
X128978825Y-55332111D02*
X128978825Y-55012797D01*
X128949797Y-54954740D01*
X128891740Y-54925711D01*
X128775625Y-54925711D01*
X128717568Y-54954740D01*
X128978825Y-55303082D02*
X128920768Y-55332111D01*
X128775625Y-55332111D01*
X128717568Y-55303082D01*
X128688540Y-55245025D01*
X128688540Y-55186968D01*
X128717568Y-55128911D01*
X128775625Y-55099882D01*
X128920768Y-55099882D01*
X128978825Y-55070854D01*
X129356197Y-55332111D02*
X129298140Y-55303082D01*
X129269111Y-55245025D01*
X129269111Y-54722511D01*
X129820654Y-55303082D02*
X129762597Y-55332111D01*
X129646482Y-55332111D01*
X129588425Y-55303082D01*
X129559397Y-55245025D01*
X129559397Y-55012797D01*
X129588425Y-54954740D01*
X129646482Y-54925711D01*
X129762597Y-54925711D01*
X129820654Y-54954740D01*
X129849682Y-55012797D01*
X129849682Y-55070854D01*
X129559397Y-55128911D01*
X129965797Y-55390168D02*
X130430254Y-55390168D01*
X130575397Y-55332111D02*
X130575397Y-54722511D01*
X130778597Y-55157940D01*
X130981797Y-54722511D01*
X130981797Y-55332111D01*
X131359168Y-55332111D02*
X131301111Y-55303082D01*
X131272082Y-55274054D01*
X131243054Y-55215997D01*
X131243054Y-55041825D01*
X131272082Y-54983768D01*
X131301111Y-54954740D01*
X131359168Y-54925711D01*
X131446254Y-54925711D01*
X131504311Y-54954740D01*
X131533340Y-54983768D01*
X131562368Y-55041825D01*
X131562368Y-55215997D01*
X131533340Y-55274054D01*
X131504311Y-55303082D01*
X131446254Y-55332111D01*
X131359168Y-55332111D01*
X132084882Y-54925711D02*
X132084882Y-55332111D01*
X131823625Y-54925711D02*
X131823625Y-55245025D01*
X131852654Y-55303082D01*
X131910711Y-55332111D01*
X131997797Y-55332111D01*
X132055854Y-55303082D01*
X132084882Y-55274054D01*
X132375168Y-54925711D02*
X132375168Y-55332111D01*
X132375168Y-54983768D02*
X132404197Y-54954740D01*
X132462254Y-54925711D01*
X132549340Y-54925711D01*
X132607397Y-54954740D01*
X132636425Y-55012797D01*
X132636425Y-55332111D01*
X132839625Y-54925711D02*
X133071854Y-54925711D01*
X132926711Y-54722511D02*
X132926711Y-55245025D01*
X132955740Y-55303082D01*
X133013797Y-55332111D01*
X133071854Y-55332111D01*
X133275054Y-55332111D02*
X133275054Y-54925711D01*
X133275054Y-54722511D02*
X133246025Y-54751540D01*
X133275054Y-54780568D01*
X133304082Y-54751540D01*
X133275054Y-54722511D01*
X133275054Y-54780568D01*
X133565340Y-54925711D02*
X133565340Y-55332111D01*
X133565340Y-54983768D02*
X133594368Y-54954740D01*
X133652425Y-54925711D01*
X133739511Y-54925711D01*
X133797568Y-54954740D01*
X133826597Y-55012797D01*
X133826597Y-55332111D01*
X134378140Y-54925711D02*
X134378140Y-55419197D01*
X134349111Y-55477254D01*
X134320082Y-55506282D01*
X134262025Y-55535311D01*
X134174940Y-55535311D01*
X134116882Y-55506282D01*
X134378140Y-55303082D02*
X134320082Y-55332111D01*
X134203968Y-55332111D01*
X134145911Y-55303082D01*
X134116882Y-55274054D01*
X134087854Y-55215997D01*
X134087854Y-55041825D01*
X134116882Y-54983768D01*
X134145911Y-54954740D01*
X134203968Y-54925711D01*
X134320082Y-54925711D01*
X134378140Y-54954740D01*
X134668425Y-55332111D02*
X134668425Y-54722511D01*
X134668425Y-55012797D02*
X135016768Y-55012797D01*
X135016768Y-55332111D02*
X135016768Y-54722511D01*
X135394140Y-55332111D02*
X135336082Y-55303082D01*
X135307054Y-55274054D01*
X135278025Y-55215997D01*
X135278025Y-55041825D01*
X135307054Y-54983768D01*
X135336082Y-54954740D01*
X135394140Y-54925711D01*
X135481225Y-54925711D01*
X135539282Y-54954740D01*
X135568311Y-54983768D01*
X135597340Y-55041825D01*
X135597340Y-55215997D01*
X135568311Y-55274054D01*
X135539282Y-55303082D01*
X135481225Y-55332111D01*
X135394140Y-55332111D01*
X135945682Y-55332111D02*
X135887625Y-55303082D01*
X135858597Y-55245025D01*
X135858597Y-54722511D01*
X136410140Y-55303082D02*
X136352082Y-55332111D01*
X136235968Y-55332111D01*
X136177911Y-55303082D01*
X136148882Y-55245025D01*
X136148882Y-55012797D01*
X136177911Y-54954740D01*
X136235968Y-54925711D01*
X136352082Y-54925711D01*
X136410140Y-54954740D01*
X136439168Y-55012797D01*
X136439168Y-55070854D01*
X136148882Y-55128911D01*
X136671397Y-55303082D02*
X136729454Y-55332111D01*
X136845568Y-55332111D01*
X136903625Y-55303082D01*
X136932654Y-55245025D01*
X136932654Y-55215997D01*
X136903625Y-55157940D01*
X136845568Y-55128911D01*
X136758482Y-55128911D01*
X136700425Y-55099882D01*
X136671397Y-55041825D01*
X136671397Y-55012797D01*
X136700425Y-54954740D01*
X136758482Y-54925711D01*
X136845568Y-54925711D01*
X136903625Y-54954740D01*
%TO.C,J2*%
D11*
X138441666Y-52752380D02*
X138441666Y-53466666D01*
X138394047Y-53609523D01*
X138298809Y-53704761D01*
X138155952Y-53752380D01*
X138060714Y-53752380D01*
X138870238Y-52847619D02*
X138917857Y-52800000D01*
X139013095Y-52752380D01*
X139251190Y-52752380D01*
X139346428Y-52800000D01*
X139394047Y-52847619D01*
X139441666Y-52942857D01*
X139441666Y-53038095D01*
X139394047Y-53180952D01*
X138822619Y-53752380D01*
X139441666Y-53752380D01*
%TO.C,S1*%
X161738095Y-47904761D02*
X161880952Y-47952380D01*
X162119047Y-47952380D01*
X162214285Y-47904761D01*
X162261904Y-47857142D01*
X162309523Y-47761904D01*
X162309523Y-47666666D01*
X162261904Y-47571428D01*
X162214285Y-47523809D01*
X162119047Y-47476190D01*
X161928571Y-47428571D01*
X161833333Y-47380952D01*
X161785714Y-47333333D01*
X161738095Y-47238095D01*
X161738095Y-47142857D01*
X161785714Y-47047619D01*
X161833333Y-47000000D01*
X161928571Y-46952380D01*
X162166666Y-46952380D01*
X162309523Y-47000000D01*
X163261904Y-47952380D02*
X162690476Y-47952380D01*
X162976190Y-47952380D02*
X162976190Y-46952380D01*
X162880952Y-47095238D01*
X162785714Y-47190476D01*
X162690476Y-47238095D01*
%TO.C,Q5*%
X164504761Y-78397619D02*
X164409523Y-78350000D01*
X164314285Y-78254761D01*
X164171428Y-78111904D01*
X164076190Y-78064285D01*
X163980952Y-78064285D01*
X164028571Y-78302380D02*
X163933333Y-78254761D01*
X163838095Y-78159523D01*
X163790476Y-77969047D01*
X163790476Y-77635714D01*
X163838095Y-77445238D01*
X163933333Y-77350000D01*
X164028571Y-77302380D01*
X164219047Y-77302380D01*
X164314285Y-77350000D01*
X164409523Y-77445238D01*
X164457142Y-77635714D01*
X164457142Y-77969047D01*
X164409523Y-78159523D01*
X164314285Y-78254761D01*
X164219047Y-78302380D01*
X164028571Y-78302380D01*
X165361904Y-77302380D02*
X164885714Y-77302380D01*
X164838095Y-77778571D01*
X164885714Y-77730952D01*
X164980952Y-77683333D01*
X165219047Y-77683333D01*
X165314285Y-77730952D01*
X165361904Y-77778571D01*
X165409523Y-77873809D01*
X165409523Y-78111904D01*
X165361904Y-78207142D01*
X165314285Y-78254761D01*
X165219047Y-78302380D01*
X164980952Y-78302380D01*
X164885714Y-78254761D01*
X164838095Y-78207142D01*
%TO.C,C5*%
X173033333Y-71507142D02*
X172985714Y-71554761D01*
X172842857Y-71602380D01*
X172747619Y-71602380D01*
X172604761Y-71554761D01*
X172509523Y-71459523D01*
X172461904Y-71364285D01*
X172414285Y-71173809D01*
X172414285Y-71030952D01*
X172461904Y-70840476D01*
X172509523Y-70745238D01*
X172604761Y-70650000D01*
X172747619Y-70602380D01*
X172842857Y-70602380D01*
X172985714Y-70650000D01*
X173033333Y-70697619D01*
X173938095Y-70602380D02*
X173461904Y-70602380D01*
X173414285Y-71078571D01*
X173461904Y-71030952D01*
X173557142Y-70983333D01*
X173795238Y-70983333D01*
X173890476Y-71030952D01*
X173938095Y-71078571D01*
X173985714Y-71173809D01*
X173985714Y-71411904D01*
X173938095Y-71507142D01*
X173890476Y-71554761D01*
X173795238Y-71602380D01*
X173557142Y-71602380D01*
X173461904Y-71554761D01*
X173414285Y-71507142D01*
%TO.C,D3*%
X159161904Y-78802380D02*
X159161904Y-77802380D01*
X159400000Y-77802380D01*
X159542857Y-77850000D01*
X159638095Y-77945238D01*
X159685714Y-78040476D01*
X159733333Y-78230952D01*
X159733333Y-78373809D01*
X159685714Y-78564285D01*
X159638095Y-78659523D01*
X159542857Y-78754761D01*
X159400000Y-78802380D01*
X159161904Y-78802380D01*
X160066666Y-77802380D02*
X160685714Y-77802380D01*
X160352380Y-78183333D01*
X160495238Y-78183333D01*
X160590476Y-78230952D01*
X160638095Y-78278571D01*
X160685714Y-78373809D01*
X160685714Y-78611904D01*
X160638095Y-78707142D01*
X160590476Y-78754761D01*
X160495238Y-78802380D01*
X160209523Y-78802380D01*
X160114285Y-78754761D01*
X160066666Y-78707142D01*
%TO.C,Q2*%
X160904761Y-69797619D02*
X160809523Y-69750000D01*
X160714285Y-69654761D01*
X160571428Y-69511904D01*
X160476190Y-69464285D01*
X160380952Y-69464285D01*
X160428571Y-69702380D02*
X160333333Y-69654761D01*
X160238095Y-69559523D01*
X160190476Y-69369047D01*
X160190476Y-69035714D01*
X160238095Y-68845238D01*
X160333333Y-68750000D01*
X160428571Y-68702380D01*
X160619047Y-68702380D01*
X160714285Y-68750000D01*
X160809523Y-68845238D01*
X160857142Y-69035714D01*
X160857142Y-69369047D01*
X160809523Y-69559523D01*
X160714285Y-69654761D01*
X160619047Y-69702380D01*
X160428571Y-69702380D01*
X161238095Y-68797619D02*
X161285714Y-68750000D01*
X161380952Y-68702380D01*
X161619047Y-68702380D01*
X161714285Y-68750000D01*
X161761904Y-68797619D01*
X161809523Y-68892857D01*
X161809523Y-68988095D01*
X161761904Y-69130952D01*
X161190476Y-69702380D01*
X161809523Y-69702380D01*
%TO.C,R1*%
X148433333Y-69852380D02*
X148100000Y-69376190D01*
X147861904Y-69852380D02*
X147861904Y-68852380D01*
X148242857Y-68852380D01*
X148338095Y-68900000D01*
X148385714Y-68947619D01*
X148433333Y-69042857D01*
X148433333Y-69185714D01*
X148385714Y-69280952D01*
X148338095Y-69328571D01*
X148242857Y-69376190D01*
X147861904Y-69376190D01*
X149385714Y-69852380D02*
X148814285Y-69852380D01*
X149100000Y-69852380D02*
X149100000Y-68852380D01*
X149004761Y-68995238D01*
X148909523Y-69090476D01*
X148814285Y-69138095D01*
%TO.C,R2*%
X148543533Y-61692380D02*
X148210200Y-61216190D01*
X147972104Y-61692380D02*
X147972104Y-60692380D01*
X148353057Y-60692380D01*
X148448295Y-60740000D01*
X148495914Y-60787619D01*
X148543533Y-60882857D01*
X148543533Y-61025714D01*
X148495914Y-61120952D01*
X148448295Y-61168571D01*
X148353057Y-61216190D01*
X147972104Y-61216190D01*
X148924485Y-60787619D02*
X148972104Y-60740000D01*
X149067342Y-60692380D01*
X149305438Y-60692380D01*
X149400676Y-60740000D01*
X149448295Y-60787619D01*
X149495914Y-60882857D01*
X149495914Y-60978095D01*
X149448295Y-61120952D01*
X148876866Y-61692380D01*
X149495914Y-61692380D01*
%TO.C,R8*%
X148333333Y-50452380D02*
X148000000Y-49976190D01*
X147761904Y-50452380D02*
X147761904Y-49452380D01*
X148142857Y-49452380D01*
X148238095Y-49500000D01*
X148285714Y-49547619D01*
X148333333Y-49642857D01*
X148333333Y-49785714D01*
X148285714Y-49880952D01*
X148238095Y-49928571D01*
X148142857Y-49976190D01*
X147761904Y-49976190D01*
X148904761Y-49880952D02*
X148809523Y-49833333D01*
X148761904Y-49785714D01*
X148714285Y-49690476D01*
X148714285Y-49642857D01*
X148761904Y-49547619D01*
X148809523Y-49500000D01*
X148904761Y-49452380D01*
X149095238Y-49452380D01*
X149190476Y-49500000D01*
X149238095Y-49547619D01*
X149285714Y-49642857D01*
X149285714Y-49690476D01*
X149238095Y-49785714D01*
X149190476Y-49833333D01*
X149095238Y-49880952D01*
X148904761Y-49880952D01*
X148809523Y-49928571D01*
X148761904Y-49976190D01*
X148714285Y-50071428D01*
X148714285Y-50261904D01*
X148761904Y-50357142D01*
X148809523Y-50404761D01*
X148904761Y-50452380D01*
X149095238Y-50452380D01*
X149190476Y-50404761D01*
X149238095Y-50357142D01*
X149285714Y-50261904D01*
X149285714Y-50071428D01*
X149238095Y-49976190D01*
X149190476Y-49928571D01*
X149095238Y-49880952D01*
%TO.C,R10*%
X155057142Y-71352380D02*
X154723809Y-70876190D01*
X154485714Y-71352380D02*
X154485714Y-70352380D01*
X154866666Y-70352380D01*
X154961904Y-70400000D01*
X155009523Y-70447619D01*
X155057142Y-70542857D01*
X155057142Y-70685714D01*
X155009523Y-70780952D01*
X154961904Y-70828571D01*
X154866666Y-70876190D01*
X154485714Y-70876190D01*
X156009523Y-71352380D02*
X155438095Y-71352380D01*
X155723809Y-71352380D02*
X155723809Y-70352380D01*
X155628571Y-70495238D01*
X155533333Y-70590476D01*
X155438095Y-70638095D01*
X156628571Y-70352380D02*
X156723809Y-70352380D01*
X156819047Y-70400000D01*
X156866666Y-70447619D01*
X156914285Y-70542857D01*
X156961904Y-70733333D01*
X156961904Y-70971428D01*
X156914285Y-71161904D01*
X156866666Y-71257142D01*
X156819047Y-71304761D01*
X156723809Y-71352380D01*
X156628571Y-71352380D01*
X156533333Y-71304761D01*
X156485714Y-71257142D01*
X156438095Y-71161904D01*
X156390476Y-70971428D01*
X156390476Y-70733333D01*
X156438095Y-70542857D01*
X156485714Y-70447619D01*
X156533333Y-70400000D01*
X156628571Y-70352380D01*
%TO.C,R11*%
X168507142Y-78252380D02*
X168173809Y-77776190D01*
X167935714Y-78252380D02*
X167935714Y-77252380D01*
X168316666Y-77252380D01*
X168411904Y-77300000D01*
X168459523Y-77347619D01*
X168507142Y-77442857D01*
X168507142Y-77585714D01*
X168459523Y-77680952D01*
X168411904Y-77728571D01*
X168316666Y-77776190D01*
X167935714Y-77776190D01*
X169459523Y-78252380D02*
X168888095Y-78252380D01*
X169173809Y-78252380D02*
X169173809Y-77252380D01*
X169078571Y-77395238D01*
X168983333Y-77490476D01*
X168888095Y-77538095D01*
X170411904Y-78252380D02*
X169840476Y-78252380D01*
X170126190Y-78252380D02*
X170126190Y-77252380D01*
X170030952Y-77395238D01*
X169935714Y-77490476D01*
X169840476Y-77538095D01*
%TO.C,U1*%
X155757095Y-89930380D02*
X155757095Y-90739904D01*
X155804714Y-90835142D01*
X155852333Y-90882761D01*
X155947571Y-90930380D01*
X156138047Y-90930380D01*
X156233285Y-90882761D01*
X156280904Y-90835142D01*
X156328523Y-90739904D01*
X156328523Y-89930380D01*
X157328523Y-90930380D02*
X156757095Y-90930380D01*
X157042809Y-90930380D02*
X157042809Y-89930380D01*
X156947571Y-90073238D01*
X156852333Y-90168476D01*
X156757095Y-90216095D01*
%TO.C,U5*%
X169838095Y-70402380D02*
X169838095Y-71211904D01*
X169885714Y-71307142D01*
X169933333Y-71354761D01*
X170028571Y-71402380D01*
X170219047Y-71402380D01*
X170314285Y-71354761D01*
X170361904Y-71307142D01*
X170409523Y-71211904D01*
X170409523Y-70402380D01*
X171361904Y-70402380D02*
X170885714Y-70402380D01*
X170838095Y-70878571D01*
X170885714Y-70830952D01*
X170980952Y-70783333D01*
X171219047Y-70783333D01*
X171314285Y-70830952D01*
X171361904Y-70878571D01*
X171409523Y-70973809D01*
X171409523Y-71211904D01*
X171361904Y-71307142D01*
X171314285Y-71354761D01*
X171219047Y-71402380D01*
X170980952Y-71402380D01*
X170885714Y-71354761D01*
X170838095Y-71307142D01*
%TD*%
M02*
