%TF.GenerationSoftware,KiCad,Pcbnew,5.1.10-88a1d61d58~88~ubuntu20.04.1*%
%TF.CreationDate,2021-06-24T14:50:30-05:00*%
%TF.ProjectId,MiOrigin,4d694f72-6967-4696-9e2e-6b696361645f,rev?*%
%TF.SameCoordinates,Original*%
%TF.FileFunction,Legend,Top*%
%TF.FilePolarity,Positive*%
%FSLAX46Y46*%
G04 Gerber Fmt 4.6, Leading zero omitted, Abs format (unit mm)*
G04 Created by KiCad (PCBNEW 5.1.10-88a1d61d58~88~ubuntu20.04.1) date 2021-06-24 14:50:30*
%MOMM*%
%LPD*%
G01*
G04 APERTURE LIST*
%ADD10C,0.300000*%
%ADD11C,0.150000*%
%ADD12C,0.250000*%
%ADD13C,0.350000*%
%TA.AperFunction,Profile*%
%ADD14C,0.010000*%
%TD*%
%ADD15C,0.010000*%
%ADD16C,0.120000*%
%ADD17C,0.127000*%
%ADD18C,0.200000*%
%ADD19C,0.240000*%
%ADD20C,0.203200*%
%ADD21C,0.100000*%
G04 APERTURE END LIST*
D10*
X178571428Y-93871428D02*
X177500000Y-93871428D01*
X177285714Y-93800000D01*
X177142857Y-93657142D01*
X177071428Y-93442857D01*
X177071428Y-93300000D01*
X177071428Y-95300000D02*
X177071428Y-94585714D01*
X178571428Y-94585714D01*
X177214285Y-96657142D02*
X177142857Y-96585714D01*
X177071428Y-96371428D01*
X177071428Y-96228571D01*
X177142857Y-96014285D01*
X177285714Y-95871428D01*
X177428571Y-95800000D01*
X177714285Y-95728571D01*
X177928571Y-95728571D01*
X178214285Y-95800000D01*
X178357142Y-95871428D01*
X178500000Y-96014285D01*
X178571428Y-96228571D01*
X178571428Y-96371428D01*
X178500000Y-96585714D01*
X178428571Y-96657142D01*
X178571428Y-97728571D02*
X177500000Y-97728571D01*
X177285714Y-97657142D01*
X177142857Y-97514285D01*
X177071428Y-97300000D01*
X177071428Y-97157142D01*
X177071428Y-99157142D02*
X177071428Y-98442857D01*
X178571428Y-98442857D01*
X177214285Y-100514285D02*
X177142857Y-100442857D01*
X177071428Y-100228571D01*
X177071428Y-100085714D01*
X177142857Y-99871428D01*
X177285714Y-99728571D01*
X177428571Y-99657142D01*
X177714285Y-99585714D01*
X177928571Y-99585714D01*
X178214285Y-99657142D01*
X178357142Y-99728571D01*
X178500000Y-99871428D01*
X178571428Y-100085714D01*
X178571428Y-100228571D01*
X178500000Y-100442857D01*
X178428571Y-100514285D01*
X178571428Y-101585714D02*
X177500000Y-101585714D01*
X177285714Y-101514285D01*
X177142857Y-101371428D01*
X177071428Y-101157142D01*
X177071428Y-101014285D01*
X177071428Y-103014285D02*
X177071428Y-102300000D01*
X178571428Y-102300000D01*
X177214285Y-104371428D02*
X177142857Y-104300000D01*
X177071428Y-104085714D01*
X177071428Y-103942857D01*
X177142857Y-103728571D01*
X177285714Y-103585714D01*
X177428571Y-103514285D01*
X177714285Y-103442857D01*
X177928571Y-103442857D01*
X178214285Y-103514285D01*
X178357142Y-103585714D01*
X178500000Y-103728571D01*
X178571428Y-103942857D01*
X178571428Y-104085714D01*
X178500000Y-104300000D01*
X178428571Y-104371428D01*
X178571428Y-105442857D02*
X177500000Y-105442857D01*
X177285714Y-105371428D01*
X177142857Y-105228571D01*
X177071428Y-105014285D01*
X177071428Y-104871428D01*
X177071428Y-106871428D02*
X177071428Y-106157142D01*
X178571428Y-106157142D01*
X177214285Y-108228571D02*
X177142857Y-108157142D01*
X177071428Y-107942857D01*
X177071428Y-107800000D01*
X177142857Y-107585714D01*
X177285714Y-107442857D01*
X177428571Y-107371428D01*
X177714285Y-107300000D01*
X177928571Y-107300000D01*
X178214285Y-107371428D01*
X178357142Y-107442857D01*
X178500000Y-107585714D01*
X178571428Y-107800000D01*
X178571428Y-107942857D01*
X178500000Y-108157142D01*
X178428571Y-108228571D01*
X139957142Y-135478571D02*
X139957142Y-133978571D01*
X140457142Y-135050000D01*
X140957142Y-133978571D01*
X140957142Y-135478571D01*
X142314285Y-135478571D02*
X142314285Y-134692857D01*
X142242857Y-134550000D01*
X142100000Y-134478571D01*
X141814285Y-134478571D01*
X141671428Y-134550000D01*
X142314285Y-135407142D02*
X142171428Y-135478571D01*
X141814285Y-135478571D01*
X141671428Y-135407142D01*
X141600000Y-135264285D01*
X141600000Y-135121428D01*
X141671428Y-134978571D01*
X141814285Y-134907142D01*
X142171428Y-134907142D01*
X142314285Y-134835714D01*
X143671428Y-135478571D02*
X143671428Y-133978571D01*
X143671428Y-135407142D02*
X143528571Y-135478571D01*
X143242857Y-135478571D01*
X143100000Y-135407142D01*
X143028571Y-135335714D01*
X142957142Y-135192857D01*
X142957142Y-134764285D01*
X143028571Y-134621428D01*
X143100000Y-134550000D01*
X143242857Y-134478571D01*
X143528571Y-134478571D01*
X143671428Y-134550000D01*
X144957142Y-135407142D02*
X144814285Y-135478571D01*
X144528571Y-135478571D01*
X144385714Y-135407142D01*
X144314285Y-135264285D01*
X144314285Y-134692857D01*
X144385714Y-134550000D01*
X144528571Y-134478571D01*
X144814285Y-134478571D01*
X144957142Y-134550000D01*
X145028571Y-134692857D01*
X145028571Y-134835714D01*
X144314285Y-134978571D01*
X146600000Y-134478571D02*
X147171428Y-134478571D01*
X146814285Y-135478571D02*
X146814285Y-134192857D01*
X146885714Y-134050000D01*
X147028571Y-133978571D01*
X147171428Y-133978571D01*
X147885714Y-135478571D02*
X147742857Y-135407142D01*
X147671428Y-135335714D01*
X147600000Y-135192857D01*
X147600000Y-134764285D01*
X147671428Y-134621428D01*
X147742857Y-134550000D01*
X147885714Y-134478571D01*
X148100000Y-134478571D01*
X148242857Y-134550000D01*
X148314285Y-134621428D01*
X148385714Y-134764285D01*
X148385714Y-135192857D01*
X148314285Y-135335714D01*
X148242857Y-135407142D01*
X148100000Y-135478571D01*
X147885714Y-135478571D01*
X149028571Y-135478571D02*
X149028571Y-134478571D01*
X149028571Y-134764285D02*
X149100000Y-134621428D01*
X149171428Y-134550000D01*
X149314285Y-134478571D01*
X149457142Y-134478571D01*
X150885714Y-134478571D02*
X151457142Y-134478571D01*
X151100000Y-133978571D02*
X151100000Y-135264285D01*
X151171428Y-135407142D01*
X151314285Y-135478571D01*
X151457142Y-135478571D01*
X151957142Y-135478571D02*
X151957142Y-133978571D01*
X152600000Y-135478571D02*
X152600000Y-134692857D01*
X152528571Y-134550000D01*
X152385714Y-134478571D01*
X152171428Y-134478571D01*
X152028571Y-134550000D01*
X151957142Y-134621428D01*
X153885714Y-135407142D02*
X153742857Y-135478571D01*
X153457142Y-135478571D01*
X153314285Y-135407142D01*
X153242857Y-135264285D01*
X153242857Y-134692857D01*
X153314285Y-134550000D01*
X153457142Y-134478571D01*
X153742857Y-134478571D01*
X153885714Y-134550000D01*
X153957142Y-134692857D01*
X153957142Y-134835714D01*
X153242857Y-134978571D01*
X156385714Y-135478571D02*
X156385714Y-134692857D01*
X156314285Y-134550000D01*
X156171428Y-134478571D01*
X155885714Y-134478571D01*
X155742857Y-134550000D01*
X156385714Y-135407142D02*
X156242857Y-135478571D01*
X155885714Y-135478571D01*
X155742857Y-135407142D01*
X155671428Y-135264285D01*
X155671428Y-135121428D01*
X155742857Y-134978571D01*
X155885714Y-134907142D01*
X156242857Y-134907142D01*
X156385714Y-134835714D01*
X157100000Y-135478571D02*
X157100000Y-134478571D01*
X157100000Y-134621428D02*
X157171428Y-134550000D01*
X157314285Y-134478571D01*
X157528571Y-134478571D01*
X157671428Y-134550000D01*
X157742857Y-134692857D01*
X157742857Y-135478571D01*
X157742857Y-134692857D02*
X157814285Y-134550000D01*
X157957142Y-134478571D01*
X158171428Y-134478571D01*
X158314285Y-134550000D01*
X158385714Y-134692857D01*
X158385714Y-135478571D01*
X159742857Y-135478571D02*
X159742857Y-134692857D01*
X159671428Y-134550000D01*
X159528571Y-134478571D01*
X159242857Y-134478571D01*
X159100000Y-134550000D01*
X159742857Y-135407142D02*
X159600000Y-135478571D01*
X159242857Y-135478571D01*
X159100000Y-135407142D01*
X159028571Y-135264285D01*
X159028571Y-135121428D01*
X159100000Y-134978571D01*
X159242857Y-134907142D01*
X159600000Y-134907142D01*
X159742857Y-134835714D01*
X160314285Y-134478571D02*
X161100000Y-134478571D01*
X160314285Y-135478571D01*
X161100000Y-135478571D01*
X161671428Y-135478571D02*
X161671428Y-134478571D01*
X161671428Y-133978571D02*
X161600000Y-134050000D01*
X161671428Y-134121428D01*
X161742857Y-134050000D01*
X161671428Y-133978571D01*
X161671428Y-134121428D01*
X162385714Y-134478571D02*
X162385714Y-135478571D01*
X162385714Y-134621428D02*
X162457142Y-134550000D01*
X162600000Y-134478571D01*
X162814285Y-134478571D01*
X162957142Y-134550000D01*
X163028571Y-134692857D01*
X163028571Y-135478571D01*
X164385714Y-134478571D02*
X164385714Y-135692857D01*
X164314285Y-135835714D01*
X164242857Y-135907142D01*
X164100000Y-135978571D01*
X163885714Y-135978571D01*
X163742857Y-135907142D01*
X164385714Y-135407142D02*
X164242857Y-135478571D01*
X163957142Y-135478571D01*
X163814285Y-135407142D01*
X163742857Y-135335714D01*
X163671428Y-135192857D01*
X163671428Y-134764285D01*
X163742857Y-134621428D01*
X163814285Y-134550000D01*
X163957142Y-134478571D01*
X164242857Y-134478571D01*
X164385714Y-134550000D01*
X166242857Y-135478571D02*
X166242857Y-133978571D01*
X166600000Y-133978571D01*
X166814285Y-134050000D01*
X166957142Y-134192857D01*
X167028571Y-134335714D01*
X167100000Y-134621428D01*
X167100000Y-134835714D01*
X167028571Y-135121428D01*
X166957142Y-135264285D01*
X166814285Y-135407142D01*
X166600000Y-135478571D01*
X166242857Y-135478571D01*
X167742857Y-135478571D02*
X167742857Y-134478571D01*
X167742857Y-134764285D02*
X167814285Y-134621428D01*
X167885714Y-134550000D01*
X168028571Y-134478571D01*
X168171428Y-134478571D01*
X168671428Y-135335714D02*
X168742857Y-135407142D01*
X168671428Y-135478571D01*
X168600000Y-135407142D01*
X168671428Y-135335714D01*
X168671428Y-135478571D01*
X170528571Y-135478571D02*
X170528571Y-133978571D01*
X171385714Y-135478571D02*
X170742857Y-134621428D01*
X171385714Y-133978571D02*
X170528571Y-134835714D01*
X172028571Y-135478571D02*
X172028571Y-134478571D01*
X172028571Y-133978571D02*
X171957142Y-134050000D01*
X172028571Y-134121428D01*
X172100000Y-134050000D01*
X172028571Y-133978571D01*
X172028571Y-134121428D01*
X172742857Y-134478571D02*
X172742857Y-135478571D01*
X172742857Y-134621428D02*
X172814285Y-134550000D01*
X172957142Y-134478571D01*
X173171428Y-134478571D01*
X173314285Y-134550000D01*
X173385714Y-134692857D01*
X173385714Y-135478571D01*
X174742857Y-134478571D02*
X174742857Y-135692857D01*
X174671428Y-135835714D01*
X174600000Y-135907142D01*
X174457142Y-135978571D01*
X174242857Y-135978571D01*
X174100000Y-135907142D01*
X174742857Y-135407142D02*
X174600000Y-135478571D01*
X174314285Y-135478571D01*
X174171428Y-135407142D01*
X174100000Y-135335714D01*
X174028571Y-135192857D01*
X174028571Y-134764285D01*
X174100000Y-134621428D01*
X174171428Y-134550000D01*
X174314285Y-134478571D01*
X174600000Y-134478571D01*
X174742857Y-134550000D01*
D11*
X133647619Y-102840595D02*
X132547619Y-102840595D01*
X133333333Y-102473928D01*
X132547619Y-102107261D01*
X133647619Y-102107261D01*
X133647619Y-101112023D02*
X133071428Y-101112023D01*
X132966666Y-101164404D01*
X132914285Y-101269166D01*
X132914285Y-101478690D01*
X132966666Y-101583452D01*
X133595238Y-101112023D02*
X133647619Y-101216785D01*
X133647619Y-101478690D01*
X133595238Y-101583452D01*
X133490476Y-101635833D01*
X133385714Y-101635833D01*
X133280952Y-101583452D01*
X133228571Y-101478690D01*
X133228571Y-101216785D01*
X133176190Y-101112023D01*
X133647619Y-100116785D02*
X132547619Y-100116785D01*
X133595238Y-100116785D02*
X133647619Y-100221547D01*
X133647619Y-100431071D01*
X133595238Y-100535833D01*
X133542857Y-100588214D01*
X133438095Y-100640595D01*
X133123809Y-100640595D01*
X133019047Y-100588214D01*
X132966666Y-100535833D01*
X132914285Y-100431071D01*
X132914285Y-100221547D01*
X132966666Y-100116785D01*
X133595238Y-99173928D02*
X133647619Y-99278690D01*
X133647619Y-99488214D01*
X133595238Y-99592976D01*
X133490476Y-99645357D01*
X133071428Y-99645357D01*
X132966666Y-99592976D01*
X132914285Y-99488214D01*
X132914285Y-99278690D01*
X132966666Y-99173928D01*
X133071428Y-99121547D01*
X133176190Y-99121547D01*
X133280952Y-99645357D01*
X133647619Y-97812023D02*
X132547619Y-97812023D01*
X132966666Y-97812023D02*
X132914285Y-97707261D01*
X132914285Y-97497738D01*
X132966666Y-97392976D01*
X133019047Y-97340595D01*
X133123809Y-97288214D01*
X133438095Y-97288214D01*
X133542857Y-97340595D01*
X133595238Y-97392976D01*
X133647619Y-97497738D01*
X133647619Y-97707261D01*
X133595238Y-97812023D01*
X132914285Y-96921547D02*
X133647619Y-96659642D01*
X132914285Y-96397738D02*
X133647619Y-96659642D01*
X133909523Y-96764404D01*
X133961904Y-96816785D01*
X134014285Y-96921547D01*
X133542857Y-95978690D02*
X133595238Y-95926309D01*
X133647619Y-95978690D01*
X133595238Y-96031071D01*
X133542857Y-95978690D01*
X133647619Y-95978690D01*
X132966666Y-95978690D02*
X133019047Y-95926309D01*
X133071428Y-95978690D01*
X133019047Y-96031071D01*
X132966666Y-95978690D01*
X133071428Y-95978690D01*
X135342857Y-102212023D02*
X135395238Y-102264404D01*
X135447619Y-102421547D01*
X135447619Y-102526309D01*
X135395238Y-102683452D01*
X135290476Y-102788214D01*
X135185714Y-102840595D01*
X134976190Y-102892976D01*
X134819047Y-102892976D01*
X134609523Y-102840595D01*
X134504761Y-102788214D01*
X134400000Y-102683452D01*
X134347619Y-102526309D01*
X134347619Y-102421547D01*
X134400000Y-102264404D01*
X134452380Y-102212023D01*
X135447619Y-101740595D02*
X134347619Y-101740595D01*
X135447619Y-101269166D02*
X134871428Y-101269166D01*
X134766666Y-101321547D01*
X134714285Y-101426309D01*
X134714285Y-101583452D01*
X134766666Y-101688214D01*
X134819047Y-101740595D01*
X135447619Y-100273928D02*
X134871428Y-100273928D01*
X134766666Y-100326309D01*
X134714285Y-100431071D01*
X134714285Y-100640595D01*
X134766666Y-100745357D01*
X135395238Y-100273928D02*
X135447619Y-100378690D01*
X135447619Y-100640595D01*
X135395238Y-100745357D01*
X135290476Y-100797738D01*
X135185714Y-100797738D01*
X135080952Y-100745357D01*
X135028571Y-100640595D01*
X135028571Y-100378690D01*
X134976190Y-100273928D01*
X135447619Y-99750119D02*
X134714285Y-99750119D01*
X134923809Y-99750119D02*
X134819047Y-99697738D01*
X134766666Y-99645357D01*
X134714285Y-99540595D01*
X134714285Y-99435833D01*
X135447619Y-98912023D02*
X135395238Y-99016785D01*
X135290476Y-99069166D01*
X134347619Y-99069166D01*
X135395238Y-98073928D02*
X135447619Y-98178690D01*
X135447619Y-98388214D01*
X135395238Y-98492976D01*
X135290476Y-98545357D01*
X134871428Y-98545357D01*
X134766666Y-98492976D01*
X134714285Y-98388214D01*
X134714285Y-98178690D01*
X134766666Y-98073928D01*
X134871428Y-98021547D01*
X134976190Y-98021547D01*
X135080952Y-98545357D01*
X135447619Y-97550119D02*
X134714285Y-97550119D01*
X134819047Y-97550119D02*
X134766666Y-97497738D01*
X134714285Y-97392976D01*
X134714285Y-97235833D01*
X134766666Y-97131071D01*
X134871428Y-97078690D01*
X135447619Y-97078690D01*
X134871428Y-97078690D02*
X134766666Y-97026309D01*
X134714285Y-96921547D01*
X134714285Y-96764404D01*
X134766666Y-96659642D01*
X134871428Y-96607261D01*
X135447619Y-96607261D01*
X135447619Y-95612023D02*
X134871428Y-95612023D01*
X134766666Y-95664404D01*
X134714285Y-95769166D01*
X134714285Y-95978690D01*
X134766666Y-96083452D01*
X135395238Y-95612023D02*
X135447619Y-95716785D01*
X135447619Y-95978690D01*
X135395238Y-96083452D01*
X135290476Y-96135833D01*
X135185714Y-96135833D01*
X135080952Y-96083452D01*
X135028571Y-95978690D01*
X135028571Y-95716785D01*
X134976190Y-95612023D01*
X134714285Y-94616785D02*
X135604761Y-94616785D01*
X135709523Y-94669166D01*
X135761904Y-94721547D01*
X135814285Y-94826309D01*
X135814285Y-94983452D01*
X135761904Y-95088214D01*
X135395238Y-94616785D02*
X135447619Y-94721547D01*
X135447619Y-94931071D01*
X135395238Y-95035833D01*
X135342857Y-95088214D01*
X135238095Y-95140595D01*
X134923809Y-95140595D01*
X134819047Y-95088214D01*
X134766666Y-95035833D01*
X134714285Y-94931071D01*
X134714285Y-94721547D01*
X134766666Y-94616785D01*
X134714285Y-94092976D02*
X135447619Y-94092976D01*
X134819047Y-94092976D02*
X134766666Y-94040595D01*
X134714285Y-93935833D01*
X134714285Y-93778690D01*
X134766666Y-93673928D01*
X134871428Y-93621547D01*
X135447619Y-93621547D01*
X135395238Y-92678690D02*
X135447619Y-92783452D01*
X135447619Y-92992976D01*
X135395238Y-93097738D01*
X135290476Y-93150119D01*
X134871428Y-93150119D01*
X134766666Y-93097738D01*
X134714285Y-92992976D01*
X134714285Y-92783452D01*
X134766666Y-92678690D01*
X134871428Y-92626309D01*
X134976190Y-92626309D01*
X135080952Y-93150119D01*
X134347619Y-91421547D02*
X135447619Y-91159642D01*
X134661904Y-90950119D01*
X135447619Y-90740595D01*
X134347619Y-90478690D01*
X135447619Y-89902500D02*
X135395238Y-90007261D01*
X135342857Y-90059642D01*
X135238095Y-90112023D01*
X134923809Y-90112023D01*
X134819047Y-90059642D01*
X134766666Y-90007261D01*
X134714285Y-89902500D01*
X134714285Y-89745357D01*
X134766666Y-89640595D01*
X134819047Y-89588214D01*
X134923809Y-89535833D01*
X135238095Y-89535833D01*
X135342857Y-89588214D01*
X135395238Y-89640595D01*
X135447619Y-89745357D01*
X135447619Y-89902500D01*
X134714285Y-89064404D02*
X135447619Y-89064404D01*
X134819047Y-89064404D02*
X134766666Y-89012023D01*
X134714285Y-88907261D01*
X134714285Y-88750119D01*
X134766666Y-88645357D01*
X134871428Y-88592976D01*
X135447619Y-88592976D01*
X134714285Y-87597738D02*
X135604761Y-87597738D01*
X135709523Y-87650119D01*
X135761904Y-87702500D01*
X135814285Y-87807261D01*
X135814285Y-87964404D01*
X135761904Y-88069166D01*
X135395238Y-87597738D02*
X135447619Y-87702500D01*
X135447619Y-87912023D01*
X135395238Y-88016785D01*
X135342857Y-88069166D01*
X135238095Y-88121547D01*
X134923809Y-88121547D01*
X134819047Y-88069166D01*
X134766666Y-88016785D01*
X134714285Y-87912023D01*
X134714285Y-87702500D01*
X134766666Y-87597738D01*
X137142857Y-102212023D02*
X137195238Y-102264404D01*
X137247619Y-102421547D01*
X137247619Y-102526309D01*
X137195238Y-102683452D01*
X137090476Y-102788214D01*
X136985714Y-102840595D01*
X136776190Y-102892976D01*
X136619047Y-102892976D01*
X136409523Y-102840595D01*
X136304761Y-102788214D01*
X136200000Y-102683452D01*
X136147619Y-102526309D01*
X136147619Y-102421547D01*
X136200000Y-102264404D01*
X136252380Y-102212023D01*
X136671428Y-101740595D02*
X136671428Y-101373928D01*
X137247619Y-101216785D02*
X137247619Y-101740595D01*
X136147619Y-101740595D01*
X136147619Y-101216785D01*
X137142857Y-100116785D02*
X137195238Y-100169166D01*
X137247619Y-100326309D01*
X137247619Y-100431071D01*
X137195238Y-100588214D01*
X137090476Y-100692976D01*
X136985714Y-100745357D01*
X136776190Y-100797738D01*
X136619047Y-100797738D01*
X136409523Y-100745357D01*
X136304761Y-100692976D01*
X136200000Y-100588214D01*
X136147619Y-100431071D01*
X136147619Y-100326309D01*
X136200000Y-100169166D01*
X136252380Y-100116785D01*
X137247619Y-99645357D02*
X136147619Y-99645357D01*
X137247619Y-99016785D01*
X136147619Y-99016785D01*
X136252380Y-97707261D02*
X136200000Y-97654880D01*
X136147619Y-97550119D01*
X136147619Y-97288214D01*
X136200000Y-97183452D01*
X136252380Y-97131071D01*
X136357142Y-97078690D01*
X136461904Y-97078690D01*
X136619047Y-97131071D01*
X137247619Y-97759642D01*
X137247619Y-97078690D01*
X137247619Y-96031071D02*
X137247619Y-96659642D01*
X137247619Y-96345357D02*
X136147619Y-96345357D01*
X136304761Y-96450119D01*
X136409523Y-96554880D01*
X136461904Y-96659642D01*
X136147619Y-95507261D02*
X136357142Y-95612023D01*
D12*
X128939285Y-102351785D02*
X128996428Y-102180357D01*
X129053571Y-102123214D01*
X129167857Y-102066071D01*
X129339285Y-102066071D01*
X129453571Y-102123214D01*
X129510714Y-102180357D01*
X129567857Y-102294642D01*
X129567857Y-102751785D01*
X128367857Y-102751785D01*
X128367857Y-102351785D01*
X128425000Y-102237500D01*
X128482142Y-102180357D01*
X128596428Y-102123214D01*
X128710714Y-102123214D01*
X128825000Y-102180357D01*
X128882142Y-102237500D01*
X128939285Y-102351785D01*
X128939285Y-102751785D01*
X129567857Y-101551785D02*
X128767857Y-101551785D01*
X128367857Y-101551785D02*
X128425000Y-101608928D01*
X128482142Y-101551785D01*
X128425000Y-101494642D01*
X128367857Y-101551785D01*
X128482142Y-101551785D01*
X129567857Y-100808928D02*
X129510714Y-100923214D01*
X129453571Y-100980357D01*
X129339285Y-101037500D01*
X128996428Y-101037500D01*
X128882142Y-100980357D01*
X128825000Y-100923214D01*
X128767857Y-100808928D01*
X128767857Y-100637500D01*
X128825000Y-100523214D01*
X128882142Y-100466071D01*
X128996428Y-100408928D01*
X129339285Y-100408928D01*
X129453571Y-100466071D01*
X129510714Y-100523214D01*
X129567857Y-100637500D01*
X129567857Y-100808928D01*
X129567857Y-99380357D02*
X128939285Y-99380357D01*
X128825000Y-99437500D01*
X128767857Y-99551785D01*
X128767857Y-99780357D01*
X128825000Y-99894642D01*
X129510714Y-99380357D02*
X129567857Y-99494642D01*
X129567857Y-99780357D01*
X129510714Y-99894642D01*
X129396428Y-99951785D01*
X129282142Y-99951785D01*
X129167857Y-99894642D01*
X129110714Y-99780357D01*
X129110714Y-99494642D01*
X129053571Y-99380357D01*
X129510714Y-98351785D02*
X129567857Y-98466071D01*
X129567857Y-98694642D01*
X129510714Y-98808928D01*
X129396428Y-98866071D01*
X128939285Y-98866071D01*
X128825000Y-98808928D01*
X128767857Y-98694642D01*
X128767857Y-98466071D01*
X128825000Y-98351785D01*
X128939285Y-98294642D01*
X129053571Y-98294642D01*
X129167857Y-98866071D01*
X129567857Y-97780357D02*
X128767857Y-97780357D01*
X128996428Y-97780357D02*
X128882142Y-97723214D01*
X128825000Y-97666071D01*
X128767857Y-97551785D01*
X128767857Y-97437500D01*
X129567857Y-96866071D02*
X129510714Y-96980357D01*
X129453571Y-97037500D01*
X129339285Y-97094642D01*
X128996428Y-97094642D01*
X128882142Y-97037500D01*
X128825000Y-96980357D01*
X128767857Y-96866071D01*
X128767857Y-96694642D01*
X128825000Y-96580357D01*
X128882142Y-96523214D01*
X128996428Y-96466071D01*
X129339285Y-96466071D01*
X129453571Y-96523214D01*
X129510714Y-96580357D01*
X129567857Y-96694642D01*
X129567857Y-96866071D01*
X129510714Y-96008928D02*
X129567857Y-95894642D01*
X129567857Y-95666071D01*
X129510714Y-95551785D01*
X129396428Y-95494642D01*
X129339285Y-95494642D01*
X129225000Y-95551785D01*
X129167857Y-95666071D01*
X129167857Y-95837500D01*
X129110714Y-95951785D01*
X128996428Y-96008928D01*
X128939285Y-96008928D01*
X128825000Y-95951785D01*
X128767857Y-95837500D01*
X128767857Y-95666071D01*
X128825000Y-95551785D01*
X129567857Y-94808928D02*
X129510714Y-94923214D01*
X129453571Y-94980357D01*
X129339285Y-95037500D01*
X128996428Y-95037500D01*
X128882142Y-94980357D01*
X128825000Y-94923214D01*
X128767857Y-94808928D01*
X128767857Y-94637500D01*
X128825000Y-94523214D01*
X128882142Y-94466071D01*
X128996428Y-94408928D01*
X129339285Y-94408928D01*
X129453571Y-94466071D01*
X129510714Y-94523214D01*
X129567857Y-94637500D01*
X129567857Y-94808928D01*
X129567857Y-93723214D02*
X129510714Y-93837500D01*
X129396428Y-93894642D01*
X128367857Y-93894642D01*
X131503571Y-102066071D02*
X131560714Y-102123214D01*
X131617857Y-102294642D01*
X131617857Y-102408928D01*
X131560714Y-102580357D01*
X131446428Y-102694642D01*
X131332142Y-102751785D01*
X131103571Y-102808928D01*
X130932142Y-102808928D01*
X130703571Y-102751785D01*
X130589285Y-102694642D01*
X130475000Y-102580357D01*
X130417857Y-102408928D01*
X130417857Y-102294642D01*
X130475000Y-102123214D01*
X130532142Y-102066071D01*
X131617857Y-101380357D02*
X131560714Y-101494642D01*
X131503571Y-101551785D01*
X131389285Y-101608928D01*
X131046428Y-101608928D01*
X130932142Y-101551785D01*
X130875000Y-101494642D01*
X130817857Y-101380357D01*
X130817857Y-101208928D01*
X130875000Y-101094642D01*
X130932142Y-101037500D01*
X131046428Y-100980357D01*
X131389285Y-100980357D01*
X131503571Y-101037500D01*
X131560714Y-101094642D01*
X131617857Y-101208928D01*
X131617857Y-101380357D01*
X131617857Y-100294642D02*
X131560714Y-100408928D01*
X131446428Y-100466071D01*
X130417857Y-100466071D01*
X131617857Y-99666071D02*
X131560714Y-99780357D01*
X131446428Y-99837500D01*
X130417857Y-99837500D01*
X131560714Y-98751785D02*
X131617857Y-98866071D01*
X131617857Y-99094642D01*
X131560714Y-99208928D01*
X131446428Y-99266071D01*
X130989285Y-99266071D01*
X130875000Y-99208928D01*
X130817857Y-99094642D01*
X130817857Y-98866071D01*
X130875000Y-98751785D01*
X130989285Y-98694642D01*
X131103571Y-98694642D01*
X131217857Y-99266071D01*
X131560714Y-97666071D02*
X131617857Y-97780357D01*
X131617857Y-98008928D01*
X131560714Y-98123214D01*
X131503571Y-98180357D01*
X131389285Y-98237500D01*
X131046428Y-98237500D01*
X130932142Y-98180357D01*
X130875000Y-98123214D01*
X130817857Y-98008928D01*
X130817857Y-97780357D01*
X130875000Y-97666071D01*
X130817857Y-97323214D02*
X130817857Y-96866071D01*
X130417857Y-97151785D02*
X131446428Y-97151785D01*
X131560714Y-97094642D01*
X131617857Y-96980357D01*
X131617857Y-96866071D01*
X131617857Y-96294642D02*
X131560714Y-96408928D01*
X131503571Y-96466071D01*
X131389285Y-96523214D01*
X131046428Y-96523214D01*
X130932142Y-96466071D01*
X130875000Y-96408928D01*
X130817857Y-96294642D01*
X130817857Y-96123214D01*
X130875000Y-96008928D01*
X130932142Y-95951785D01*
X131046428Y-95894642D01*
X131389285Y-95894642D01*
X131503571Y-95951785D01*
X131560714Y-96008928D01*
X131617857Y-96123214D01*
X131617857Y-96294642D01*
X131617857Y-95380357D02*
X130817857Y-95380357D01*
X131046428Y-95380357D02*
X130932142Y-95323214D01*
X130875000Y-95266071D01*
X130817857Y-95151785D01*
X130817857Y-95037500D01*
D10*
X140166666Y-115488095D02*
X140166666Y-114869047D01*
X140538095Y-115611904D02*
X139238095Y-115178571D01*
X140538095Y-114745238D01*
X140476190Y-113816666D02*
X140538095Y-113940476D01*
X140538095Y-114188095D01*
X140476190Y-114311904D01*
X140352380Y-114373809D01*
X139857142Y-114373809D01*
X139733333Y-114311904D01*
X139671428Y-114188095D01*
X139671428Y-113940476D01*
X139733333Y-113816666D01*
X139857142Y-113754761D01*
X139980952Y-113754761D01*
X140104761Y-114373809D01*
X140538095Y-113197619D02*
X139671428Y-113197619D01*
X139919047Y-113197619D02*
X139795238Y-113135714D01*
X139733333Y-113073809D01*
X139671428Y-112950000D01*
X139671428Y-112826190D01*
X140538095Y-112207142D02*
X140476190Y-112330952D01*
X140414285Y-112392857D01*
X140290476Y-112454761D01*
X139919047Y-112454761D01*
X139795238Y-112392857D01*
X139733333Y-112330952D01*
X139671428Y-112207142D01*
X139671428Y-112021428D01*
X139733333Y-111897619D01*
X139795238Y-111835714D01*
X139919047Y-111773809D01*
X140290476Y-111773809D01*
X140414285Y-111835714D01*
X140476190Y-111897619D01*
X140538095Y-112021428D01*
X140538095Y-112207142D01*
X140476190Y-111278571D02*
X140538095Y-111154761D01*
X140538095Y-110907142D01*
X140476190Y-110783333D01*
X140352380Y-110721428D01*
X140290476Y-110721428D01*
X140166666Y-110783333D01*
X140104761Y-110907142D01*
X140104761Y-111092857D01*
X140042857Y-111216666D01*
X139919047Y-111278571D01*
X139857142Y-111278571D01*
X139733333Y-111216666D01*
X139671428Y-111092857D01*
X139671428Y-110907142D01*
X139733333Y-110783333D01*
X140538095Y-109978571D02*
X140476190Y-110102380D01*
X140414285Y-110164285D01*
X140290476Y-110226190D01*
X139919047Y-110226190D01*
X139795238Y-110164285D01*
X139733333Y-110102380D01*
X139671428Y-109978571D01*
X139671428Y-109792857D01*
X139733333Y-109669047D01*
X139795238Y-109607142D01*
X139919047Y-109545238D01*
X140290476Y-109545238D01*
X140414285Y-109607142D01*
X140476190Y-109669047D01*
X140538095Y-109792857D01*
X140538095Y-109978571D01*
X140538095Y-108802380D02*
X140476190Y-108926190D01*
X140352380Y-108988095D01*
X139238095Y-108988095D01*
X139238095Y-107502380D02*
X139238095Y-106759523D01*
X140538095Y-107130952D02*
X139238095Y-107130952D01*
X140476190Y-105830952D02*
X140538095Y-105954761D01*
X140538095Y-106202380D01*
X140476190Y-106326190D01*
X140352380Y-106388095D01*
X139857142Y-106388095D01*
X139733333Y-106326190D01*
X139671428Y-106202380D01*
X139671428Y-105954761D01*
X139733333Y-105830952D01*
X139857142Y-105769047D01*
X139980952Y-105769047D01*
X140104761Y-106388095D01*
X140476190Y-104654761D02*
X140538095Y-104778571D01*
X140538095Y-105026190D01*
X140476190Y-105150000D01*
X140414285Y-105211904D01*
X140290476Y-105273809D01*
X139919047Y-105273809D01*
X139795238Y-105211904D01*
X139733333Y-105150000D01*
X139671428Y-105026190D01*
X139671428Y-104778571D01*
X139733333Y-104654761D01*
X140538095Y-104097619D02*
X139238095Y-104097619D01*
X140538095Y-103540476D02*
X139857142Y-103540476D01*
X139733333Y-103602380D01*
X139671428Y-103726190D01*
X139671428Y-103911904D01*
X139733333Y-104035714D01*
X139795238Y-104097619D01*
X139671428Y-102921428D02*
X140538095Y-102921428D01*
X139795238Y-102921428D02*
X139733333Y-102859523D01*
X139671428Y-102735714D01*
X139671428Y-102550000D01*
X139733333Y-102426190D01*
X139857142Y-102364285D01*
X140538095Y-102364285D01*
X140538095Y-101559523D02*
X140476190Y-101683333D01*
X140414285Y-101745238D01*
X140290476Y-101807142D01*
X139919047Y-101807142D01*
X139795238Y-101745238D01*
X139733333Y-101683333D01*
X139671428Y-101559523D01*
X139671428Y-101373809D01*
X139733333Y-101250000D01*
X139795238Y-101188095D01*
X139919047Y-101126190D01*
X140290476Y-101126190D01*
X140414285Y-101188095D01*
X140476190Y-101250000D01*
X140538095Y-101373809D01*
X140538095Y-101559523D01*
X140538095Y-100383333D02*
X140476190Y-100507142D01*
X140352380Y-100569047D01*
X139238095Y-100569047D01*
X140538095Y-99702380D02*
X140476190Y-99826190D01*
X140414285Y-99888095D01*
X140290476Y-99950000D01*
X139919047Y-99950000D01*
X139795238Y-99888095D01*
X139733333Y-99826190D01*
X139671428Y-99702380D01*
X139671428Y-99516666D01*
X139733333Y-99392857D01*
X139795238Y-99330952D01*
X139919047Y-99269047D01*
X140290476Y-99269047D01*
X140414285Y-99330952D01*
X140476190Y-99392857D01*
X140538095Y-99516666D01*
X140538095Y-99702380D01*
X139671428Y-98154761D02*
X140723809Y-98154761D01*
X140847619Y-98216666D01*
X140909523Y-98278571D01*
X140971428Y-98402380D01*
X140971428Y-98588095D01*
X140909523Y-98711904D01*
X140476190Y-98154761D02*
X140538095Y-98278571D01*
X140538095Y-98526190D01*
X140476190Y-98650000D01*
X140414285Y-98711904D01*
X140290476Y-98773809D01*
X139919047Y-98773809D01*
X139795238Y-98711904D01*
X139733333Y-98650000D01*
X139671428Y-98526190D01*
X139671428Y-98278571D01*
X139733333Y-98154761D01*
X140538095Y-97535714D02*
X139671428Y-97535714D01*
X139238095Y-97535714D02*
X139300000Y-97597619D01*
X139361904Y-97535714D01*
X139300000Y-97473809D01*
X139238095Y-97535714D01*
X139361904Y-97535714D01*
X140476190Y-96421428D02*
X140538095Y-96545238D01*
X140538095Y-96792857D01*
X140476190Y-96916666D01*
X140352380Y-96978571D01*
X139857142Y-96978571D01*
X139733333Y-96916666D01*
X139671428Y-96792857D01*
X139671428Y-96545238D01*
X139733333Y-96421428D01*
X139857142Y-96359523D01*
X139980952Y-96359523D01*
X140104761Y-96978571D01*
X140476190Y-95864285D02*
X140538095Y-95740476D01*
X140538095Y-95492857D01*
X140476190Y-95369047D01*
X140352380Y-95307142D01*
X140290476Y-95307142D01*
X140166666Y-95369047D01*
X140104761Y-95492857D01*
X140104761Y-95678571D01*
X140042857Y-95802380D01*
X139919047Y-95864285D01*
X139857142Y-95864285D01*
X139733333Y-95802380D01*
X139671428Y-95678571D01*
X139671428Y-95492857D01*
X139733333Y-95369047D01*
X140538095Y-93140476D02*
X140538095Y-93759523D01*
X139238095Y-93759523D01*
X140538095Y-92150000D02*
X139857142Y-92150000D01*
X139733333Y-92211904D01*
X139671428Y-92335714D01*
X139671428Y-92583333D01*
X139733333Y-92707142D01*
X140476190Y-92150000D02*
X140538095Y-92273809D01*
X140538095Y-92583333D01*
X140476190Y-92707142D01*
X140352380Y-92769047D01*
X140228571Y-92769047D01*
X140104761Y-92707142D01*
X140042857Y-92583333D01*
X140042857Y-92273809D01*
X139980952Y-92150000D01*
X140538095Y-91530952D02*
X139238095Y-91530952D01*
X139733333Y-91530952D02*
X139671428Y-91407142D01*
X139671428Y-91159523D01*
X139733333Y-91035714D01*
X139795238Y-90973809D01*
X139919047Y-90911904D01*
X140290476Y-90911904D01*
X140414285Y-90973809D01*
X140476190Y-91035714D01*
X140538095Y-91159523D01*
X140538095Y-91407142D01*
X140476190Y-91530952D01*
D13*
X179454761Y-133042857D02*
X178502380Y-133709523D01*
X179454761Y-134185714D02*
X177454761Y-134185714D01*
X177454761Y-133423809D01*
X177550000Y-133233333D01*
X177645238Y-133138095D01*
X177835714Y-133042857D01*
X178121428Y-133042857D01*
X178311904Y-133138095D01*
X178407142Y-133233333D01*
X178502380Y-133423809D01*
X178502380Y-134185714D01*
X179359523Y-131423809D02*
X179454761Y-131614285D01*
X179454761Y-131995238D01*
X179359523Y-132185714D01*
X179169047Y-132280952D01*
X178407142Y-132280952D01*
X178216666Y-132185714D01*
X178121428Y-131995238D01*
X178121428Y-131614285D01*
X178216666Y-131423809D01*
X178407142Y-131328571D01*
X178597619Y-131328571D01*
X178788095Y-132280952D01*
X178121428Y-130661904D02*
X179454761Y-130185714D01*
X178121428Y-129709523D01*
X179454761Y-126376190D02*
X179454761Y-127519047D01*
X179454761Y-126947619D02*
X177454761Y-126947619D01*
X177740476Y-127138095D01*
X177930952Y-127328571D01*
X178026190Y-127519047D01*
X179264285Y-125519047D02*
X179359523Y-125423809D01*
X179454761Y-125519047D01*
X179359523Y-125614285D01*
X179264285Y-125519047D01*
X179454761Y-125519047D01*
X177454761Y-124185714D02*
X177454761Y-123995238D01*
X177550000Y-123804761D01*
X177645238Y-123709523D01*
X177835714Y-123614285D01*
X178216666Y-123519047D01*
X178692857Y-123519047D01*
X179073809Y-123614285D01*
X179264285Y-123709523D01*
X179359523Y-123804761D01*
X179454761Y-123995238D01*
X179454761Y-124185714D01*
X179359523Y-124376190D01*
X179264285Y-124471428D01*
X179073809Y-124566666D01*
X178692857Y-124661904D01*
X178216666Y-124661904D01*
X177835714Y-124566666D01*
X177645238Y-124471428D01*
X177550000Y-124376190D01*
X177454761Y-124185714D01*
D14*
X125580000Y-143500000D02*
G75*
G02*
X124580000Y-142500000I0J1000000D01*
G01*
X180920000Y-142500000D02*
G75*
G02*
X179920000Y-143500000I-1000000J0D01*
G01*
X179920000Y-45500000D02*
G75*
G02*
X180920000Y-46500000I0J-1000000D01*
G01*
X124580000Y-46500000D02*
G75*
G02*
X125580000Y-45500000I1000000J0D01*
G01*
D10*
X178487342Y-57130085D02*
X178415914Y-57344371D01*
X178344485Y-57415800D01*
X178201628Y-57487228D01*
X177987342Y-57487228D01*
X177844485Y-57415800D01*
X177773057Y-57344371D01*
X177701628Y-57201514D01*
X177701628Y-56630085D01*
X179201628Y-56630085D01*
X179201628Y-57130085D01*
X179130200Y-57272942D01*
X179058771Y-57344371D01*
X178915914Y-57415800D01*
X178773057Y-57415800D01*
X178630200Y-57344371D01*
X178558771Y-57272942D01*
X178487342Y-57130085D01*
X178487342Y-56630085D01*
X179201628Y-58415800D02*
X179201628Y-58701514D01*
X179130200Y-58844371D01*
X178987342Y-58987228D01*
X178701628Y-59058657D01*
X178201628Y-59058657D01*
X177915914Y-58987228D01*
X177773057Y-58844371D01*
X177701628Y-58701514D01*
X177701628Y-58415800D01*
X177773057Y-58272942D01*
X177915914Y-58130085D01*
X178201628Y-58058657D01*
X178701628Y-58058657D01*
X178987342Y-58130085D01*
X179130200Y-58272942D01*
X179201628Y-58415800D01*
X179201628Y-59987228D02*
X179201628Y-60272942D01*
X179130200Y-60415800D01*
X178987342Y-60558657D01*
X178701628Y-60630085D01*
X178201628Y-60630085D01*
X177915914Y-60558657D01*
X177773057Y-60415800D01*
X177701628Y-60272942D01*
X177701628Y-59987228D01*
X177773057Y-59844371D01*
X177915914Y-59701514D01*
X178201628Y-59630085D01*
X178701628Y-59630085D01*
X178987342Y-59701514D01*
X179130200Y-59844371D01*
X179201628Y-59987228D01*
X179201628Y-61058657D02*
X179201628Y-61915800D01*
X177701628Y-61487228D02*
X179201628Y-61487228D01*
X165542857Y-64959514D02*
X165542857Y-64459514D01*
X166328571Y-64245228D02*
X166328571Y-64959514D01*
X164828571Y-64959514D01*
X164828571Y-64245228D01*
X166328571Y-63602371D02*
X164828571Y-63602371D01*
X166328571Y-62745228D01*
X164828571Y-62745228D01*
X164757142Y-60959514D02*
X166685714Y-62245228D01*
X166328571Y-59602371D02*
X165614285Y-60102371D01*
X166328571Y-60459514D02*
X164828571Y-60459514D01*
X164828571Y-59888085D01*
X164900000Y-59745228D01*
X164971428Y-59673800D01*
X165114285Y-59602371D01*
X165328571Y-59602371D01*
X165471428Y-59673800D01*
X165542857Y-59745228D01*
X165614285Y-59888085D01*
X165614285Y-60459514D01*
X165542857Y-58959514D02*
X165542857Y-58459514D01*
X166328571Y-58245228D02*
X166328571Y-58959514D01*
X164828571Y-58959514D01*
X164828571Y-58245228D01*
X166257142Y-57673800D02*
X166328571Y-57459514D01*
X166328571Y-57102371D01*
X166257142Y-56959514D01*
X166185714Y-56888085D01*
X166042857Y-56816657D01*
X165900000Y-56816657D01*
X165757142Y-56888085D01*
X165685714Y-56959514D01*
X165614285Y-57102371D01*
X165542857Y-57388085D01*
X165471428Y-57530942D01*
X165400000Y-57602371D01*
X165257142Y-57673800D01*
X165114285Y-57673800D01*
X164971428Y-57602371D01*
X164900000Y-57530942D01*
X164828571Y-57388085D01*
X164828571Y-57030942D01*
X164900000Y-56816657D01*
X165542857Y-56173800D02*
X165542857Y-55673800D01*
X166328571Y-55459514D02*
X166328571Y-56173800D01*
X164828571Y-56173800D01*
X164828571Y-55459514D01*
X164828571Y-55030942D02*
X164828571Y-54173800D01*
X166328571Y-54602371D02*
X164828571Y-54602371D01*
D11*
X163069047Y-56671428D02*
X163830952Y-56671428D01*
X163069047Y-55671428D02*
X163830952Y-55671428D01*
X163450000Y-56052380D02*
X163450000Y-55290476D01*
X152396085Y-94063380D02*
X152396085Y-93063380D01*
X152967514Y-94063380D01*
X152967514Y-93063380D01*
X154015133Y-93968142D02*
X153967514Y-94015761D01*
X153824657Y-94063380D01*
X153729419Y-94063380D01*
X153586561Y-94015761D01*
X153491323Y-93920523D01*
X153443704Y-93825285D01*
X153396085Y-93634809D01*
X153396085Y-93491952D01*
X153443704Y-93301476D01*
X153491323Y-93206238D01*
X153586561Y-93111000D01*
X153729419Y-93063380D01*
X153824657Y-93063380D01*
X153967514Y-93111000D01*
X154015133Y-93158619D01*
D14*
X124580000Y-142500000D02*
X124580000Y-46500000D01*
X180920000Y-142500000D02*
X180920000Y-46500000D01*
X179920000Y-143500000D02*
X125580000Y-143500000D01*
X125580000Y-45500000D02*
X179920000Y-45500000D01*
D15*
%TO.C,G\u002A\u002A\u002A*%
G36*
X137532738Y-103456507D02*
G01*
X137590484Y-103381046D01*
X137672264Y-103331282D01*
X137768981Y-103318526D01*
X137871542Y-103354090D01*
X137884935Y-103362926D01*
X137933099Y-103414253D01*
X137953249Y-103492411D01*
X137955500Y-103551625D01*
X137946587Y-103652930D01*
X137914138Y-103715429D01*
X137884935Y-103740325D01*
X137775666Y-103785612D01*
X137745941Y-103780796D01*
X137745941Y-103724337D01*
X137837707Y-103695077D01*
X137865687Y-103673705D01*
X137917110Y-103590515D01*
X137910343Y-103497237D01*
X137871204Y-103435063D01*
X137789776Y-103383929D01*
X137700368Y-103382828D01*
X137621970Y-103424491D01*
X137573575Y-103501653D01*
X137566562Y-103551625D01*
X137592462Y-103645303D01*
X137658224Y-103705309D01*
X137745941Y-103724337D01*
X137745941Y-103780796D01*
X137665611Y-103767780D01*
X137594656Y-103723946D01*
X137525729Y-103639269D01*
X137508122Y-103546352D01*
X137532738Y-103456507D01*
G37*
X137532738Y-103456507D02*
X137590484Y-103381046D01*
X137672264Y-103331282D01*
X137768981Y-103318526D01*
X137871542Y-103354090D01*
X137884935Y-103362926D01*
X137933099Y-103414253D01*
X137953249Y-103492411D01*
X137955500Y-103551625D01*
X137946587Y-103652930D01*
X137914138Y-103715429D01*
X137884935Y-103740325D01*
X137775666Y-103785612D01*
X137745941Y-103780796D01*
X137745941Y-103724337D01*
X137837707Y-103695077D01*
X137865687Y-103673705D01*
X137917110Y-103590515D01*
X137910343Y-103497237D01*
X137871204Y-103435063D01*
X137789776Y-103383929D01*
X137700368Y-103382828D01*
X137621970Y-103424491D01*
X137573575Y-103501653D01*
X137566562Y-103551625D01*
X137592462Y-103645303D01*
X137658224Y-103705309D01*
X137745941Y-103724337D01*
X137745941Y-103780796D01*
X137665611Y-103767780D01*
X137594656Y-103723946D01*
X137525729Y-103639269D01*
X137508122Y-103546352D01*
X137532738Y-103456507D01*
G36*
X137892000Y-104202500D02*
G01*
X137892000Y-115886500D01*
X133291568Y-115886500D01*
X133291568Y-114394250D01*
X133891500Y-114394250D01*
X133891500Y-113219500D01*
X133589875Y-113219500D01*
X133450142Y-113220052D01*
X133362016Y-113223792D01*
X133313601Y-113233852D01*
X133293002Y-113253361D01*
X133288326Y-113285449D01*
X133288250Y-113298875D01*
X133284648Y-113351226D01*
X133264918Y-113372666D01*
X133215674Y-113364947D01*
X133123528Y-113329818D01*
X133106140Y-113322688D01*
X132970988Y-113267125D01*
X132970750Y-112275467D01*
X133129500Y-112209493D01*
X133288250Y-112143520D01*
X133288250Y-112330500D01*
X133891500Y-112330500D01*
X133891500Y-111155750D01*
X133291568Y-111155750D01*
X133281971Y-111318703D01*
X133272375Y-111481656D01*
X132367500Y-111873495D01*
X132142432Y-111970447D01*
X131935242Y-112058723D01*
X131753328Y-112135248D01*
X131604089Y-112196947D01*
X131494922Y-112240743D01*
X131433225Y-112263562D01*
X131422937Y-112266167D01*
X131390760Y-112240402D01*
X131383250Y-112203500D01*
X131378475Y-112173331D01*
X131356094Y-112154584D01*
X131304020Y-112144574D01*
X131210167Y-112140615D01*
X131097500Y-112140000D01*
X130811750Y-112140000D01*
X130811750Y-113441750D01*
X131097500Y-113441750D01*
X131232779Y-113441076D01*
X131316776Y-113436842D01*
X131361708Y-113425736D01*
X131379789Y-113404444D01*
X131383239Y-113369653D01*
X131383250Y-113364249D01*
X131391881Y-113300045D01*
X131407062Y-113274030D01*
X131440946Y-113283132D01*
X131525784Y-113314916D01*
X131654427Y-113366443D01*
X131819726Y-113434776D01*
X132014532Y-113516979D01*
X132231696Y-113610113D01*
X132351625Y-113662124D01*
X133272375Y-114062935D01*
X133281971Y-114228593D01*
X133291568Y-114394250D01*
X133291568Y-115886500D01*
X128462250Y-115886500D01*
X128462250Y-113441750D01*
X130399000Y-113441750D01*
X130399000Y-112142016D01*
X130025937Y-112133071D01*
X129652875Y-112124125D01*
X129652875Y-110727125D01*
X131978562Y-110718982D01*
X134304250Y-110710838D01*
X134304250Y-111441500D01*
X135637750Y-111441500D01*
X135637750Y-108647500D01*
X134304250Y-108647500D01*
X134304250Y-109409913D01*
X131978562Y-109401769D01*
X130811750Y-109397684D01*
X130811750Y-108933250D01*
X131415000Y-108933250D01*
X131415000Y-108711000D01*
X133288250Y-108711000D01*
X133288250Y-108933250D01*
X133891500Y-108933250D01*
X133891500Y-107853750D01*
X133288250Y-107853750D01*
X133288250Y-108107750D01*
X132637375Y-108107750D01*
X132441852Y-108106929D01*
X132269828Y-108104634D01*
X132130691Y-108101123D01*
X132033829Y-108096649D01*
X131988630Y-108091469D01*
X131986500Y-108090034D01*
X132013372Y-108070053D01*
X132085899Y-108030174D01*
X132191947Y-107976816D01*
X132280187Y-107934623D01*
X132413849Y-107871352D01*
X132586209Y-107788877D01*
X132778973Y-107695998D01*
X132973849Y-107601515D01*
X133062403Y-107558355D01*
X133550932Y-107319781D01*
X132768716Y-106938309D01*
X132563902Y-106837786D01*
X132379118Y-106745863D01*
X132221682Y-106666283D01*
X132098916Y-106602787D01*
X132018138Y-106559114D01*
X131986668Y-106539007D01*
X131986500Y-106538544D01*
X132016684Y-106533049D01*
X132100980Y-106528214D01*
X132229998Y-106524303D01*
X132394351Y-106521581D01*
X132584651Y-106520310D01*
X132637375Y-106520250D01*
X133288250Y-106520250D01*
X133288250Y-106774250D01*
X133891500Y-106774250D01*
X133891500Y-105694750D01*
X133288250Y-105694750D01*
X133288250Y-105917000D01*
X131415000Y-105917000D01*
X131415000Y-105694750D01*
X130811750Y-105694750D01*
X130811750Y-106667087D01*
X131486437Y-106994263D01*
X132161125Y-107321439D01*
X131486437Y-107649479D01*
X130811750Y-107977519D01*
X130811750Y-108933250D01*
X130811750Y-109397684D01*
X129652875Y-109393625D01*
X129652875Y-107996625D01*
X130398999Y-107978735D01*
X130399000Y-107328868D01*
X130399000Y-106679000D01*
X128462250Y-106679000D01*
X128462250Y-113441750D01*
X128462250Y-115886500D01*
X126112750Y-115886500D01*
X126112750Y-104202500D01*
X137892000Y-104202500D01*
G37*
X137892000Y-104202500D02*
X137892000Y-115886500D01*
X133291568Y-115886500D01*
X133291568Y-114394250D01*
X133891500Y-114394250D01*
X133891500Y-113219500D01*
X133589875Y-113219500D01*
X133450142Y-113220052D01*
X133362016Y-113223792D01*
X133313601Y-113233852D01*
X133293002Y-113253361D01*
X133288326Y-113285449D01*
X133288250Y-113298875D01*
X133284648Y-113351226D01*
X133264918Y-113372666D01*
X133215674Y-113364947D01*
X133123528Y-113329818D01*
X133106140Y-113322688D01*
X132970988Y-113267125D01*
X132970750Y-112275467D01*
X133129500Y-112209493D01*
X133288250Y-112143520D01*
X133288250Y-112330500D01*
X133891500Y-112330500D01*
X133891500Y-111155750D01*
X133291568Y-111155750D01*
X133281971Y-111318703D01*
X133272375Y-111481656D01*
X132367500Y-111873495D01*
X132142432Y-111970447D01*
X131935242Y-112058723D01*
X131753328Y-112135248D01*
X131604089Y-112196947D01*
X131494922Y-112240743D01*
X131433225Y-112263562D01*
X131422937Y-112266167D01*
X131390760Y-112240402D01*
X131383250Y-112203500D01*
X131378475Y-112173331D01*
X131356094Y-112154584D01*
X131304020Y-112144574D01*
X131210167Y-112140615D01*
X131097500Y-112140000D01*
X130811750Y-112140000D01*
X130811750Y-113441750D01*
X131097500Y-113441750D01*
X131232779Y-113441076D01*
X131316776Y-113436842D01*
X131361708Y-113425736D01*
X131379789Y-113404444D01*
X131383239Y-113369653D01*
X131383250Y-113364249D01*
X131391881Y-113300045D01*
X131407062Y-113274030D01*
X131440946Y-113283132D01*
X131525784Y-113314916D01*
X131654427Y-113366443D01*
X131819726Y-113434776D01*
X132014532Y-113516979D01*
X132231696Y-113610113D01*
X132351625Y-113662124D01*
X133272375Y-114062935D01*
X133281971Y-114228593D01*
X133291568Y-114394250D01*
X133291568Y-115886500D01*
X128462250Y-115886500D01*
X128462250Y-113441750D01*
X130399000Y-113441750D01*
X130399000Y-112142016D01*
X130025937Y-112133071D01*
X129652875Y-112124125D01*
X129652875Y-110727125D01*
X131978562Y-110718982D01*
X134304250Y-110710838D01*
X134304250Y-111441500D01*
X135637750Y-111441500D01*
X135637750Y-108647500D01*
X134304250Y-108647500D01*
X134304250Y-109409913D01*
X131978562Y-109401769D01*
X130811750Y-109397684D01*
X130811750Y-108933250D01*
X131415000Y-108933250D01*
X131415000Y-108711000D01*
X133288250Y-108711000D01*
X133288250Y-108933250D01*
X133891500Y-108933250D01*
X133891500Y-107853750D01*
X133288250Y-107853750D01*
X133288250Y-108107750D01*
X132637375Y-108107750D01*
X132441852Y-108106929D01*
X132269828Y-108104634D01*
X132130691Y-108101123D01*
X132033829Y-108096649D01*
X131988630Y-108091469D01*
X131986500Y-108090034D01*
X132013372Y-108070053D01*
X132085899Y-108030174D01*
X132191947Y-107976816D01*
X132280187Y-107934623D01*
X132413849Y-107871352D01*
X132586209Y-107788877D01*
X132778973Y-107695998D01*
X132973849Y-107601515D01*
X133062403Y-107558355D01*
X133550932Y-107319781D01*
X132768716Y-106938309D01*
X132563902Y-106837786D01*
X132379118Y-106745863D01*
X132221682Y-106666283D01*
X132098916Y-106602787D01*
X132018138Y-106559114D01*
X131986668Y-106539007D01*
X131986500Y-106538544D01*
X132016684Y-106533049D01*
X132100980Y-106528214D01*
X132229998Y-106524303D01*
X132394351Y-106521581D01*
X132584651Y-106520310D01*
X132637375Y-106520250D01*
X133288250Y-106520250D01*
X133288250Y-106774250D01*
X133891500Y-106774250D01*
X133891500Y-105694750D01*
X133288250Y-105694750D01*
X133288250Y-105917000D01*
X131415000Y-105917000D01*
X131415000Y-105694750D01*
X130811750Y-105694750D01*
X130811750Y-106667087D01*
X131486437Y-106994263D01*
X132161125Y-107321439D01*
X131486437Y-107649479D01*
X130811750Y-107977519D01*
X130811750Y-108933250D01*
X130811750Y-109397684D01*
X129652875Y-109393625D01*
X129652875Y-107996625D01*
X130398999Y-107978735D01*
X130399000Y-107328868D01*
X130399000Y-106679000D01*
X128462250Y-106679000D01*
X128462250Y-113441750D01*
X128462250Y-115886500D01*
X126112750Y-115886500D01*
X126112750Y-104202500D01*
X137892000Y-104202500D01*
G36*
X137626470Y-103481077D02*
G01*
X137674092Y-103445756D01*
X137729553Y-103457176D01*
X137739253Y-103465554D01*
X137794710Y-103485138D01*
X137824431Y-103480261D01*
X137855094Y-103473814D01*
X137843022Y-103498179D01*
X137818166Y-103527577D01*
X137779539Y-103575940D01*
X137783747Y-103597393D01*
X137818166Y-103608653D01*
X137826271Y-103618174D01*
X137781136Y-103625360D01*
X137741187Y-103627317D01*
X137684684Y-103626516D01*
X137684684Y-103585918D01*
X137701500Y-103583375D01*
X137731755Y-103556218D01*
X137733250Y-103551625D01*
X137711105Y-103526383D01*
X137701500Y-103519875D01*
X137674601Y-103527415D01*
X137669750Y-103551625D01*
X137684684Y-103585918D01*
X137684684Y-103626516D01*
X137656316Y-103626113D01*
X137617258Y-103609682D01*
X137606547Y-103568098D01*
X137606250Y-103550629D01*
X137626470Y-103481077D01*
G37*
X137626470Y-103481077D02*
X137674092Y-103445756D01*
X137729553Y-103457176D01*
X137739253Y-103465554D01*
X137794710Y-103485138D01*
X137824431Y-103480261D01*
X137855094Y-103473814D01*
X137843022Y-103498179D01*
X137818166Y-103527577D01*
X137779539Y-103575940D01*
X137783747Y-103597393D01*
X137818166Y-103608653D01*
X137826271Y-103618174D01*
X137781136Y-103625360D01*
X137741187Y-103627317D01*
X137684684Y-103626516D01*
X137684684Y-103585918D01*
X137701500Y-103583375D01*
X137731755Y-103556218D01*
X137733250Y-103551625D01*
X137711105Y-103526383D01*
X137701500Y-103519875D01*
X137674601Y-103527415D01*
X137669750Y-103551625D01*
X137684684Y-103585918D01*
X137684684Y-103626516D01*
X137656316Y-103626113D01*
X137617258Y-103609682D01*
X137606547Y-103568098D01*
X137606250Y-103550629D01*
X137626470Y-103481077D01*
G36*
X134948681Y-108933250D02*
G01*
X135086964Y-108934536D01*
X135198144Y-108938017D01*
X135269230Y-108943129D01*
X135288500Y-108948021D01*
X135269411Y-108978472D01*
X135220984Y-109038933D01*
X135189960Y-109075021D01*
X135113065Y-109149291D01*
X135039702Y-109181821D01*
X134974154Y-109187250D01*
X134891915Y-109177244D01*
X134819386Y-109139208D01*
X134733718Y-109061114D01*
X134732875Y-109060250D01*
X134608862Y-108933250D01*
X134948681Y-108933250D01*
G37*
X134948681Y-108933250D02*
X135086964Y-108934536D01*
X135198144Y-108938017D01*
X135269230Y-108943129D01*
X135288500Y-108948021D01*
X135269411Y-108978472D01*
X135220984Y-109038933D01*
X135189960Y-109075021D01*
X135113065Y-109149291D01*
X135039702Y-109181821D01*
X134974154Y-109187250D01*
X134891915Y-109177244D01*
X134819386Y-109139208D01*
X134733718Y-109061114D01*
X134732875Y-109060250D01*
X134608862Y-108933250D01*
X134948681Y-108933250D01*
G36*
X129271875Y-109790500D02*
G01*
X129395887Y-109663500D01*
X134577112Y-109663500D01*
X134701125Y-109790500D01*
X134825137Y-109917500D01*
X129147862Y-109917500D01*
X129271875Y-109790500D01*
G37*
X129271875Y-109790500D02*
X129395887Y-109663500D01*
X134577112Y-109663500D01*
X134701125Y-109790500D01*
X134825137Y-109917500D01*
X129147862Y-109917500D01*
X129271875Y-109790500D01*
G36*
X129486187Y-106934354D02*
G01*
X129672729Y-106934677D01*
X129835345Y-106936386D01*
X129964217Y-106939261D01*
X130049531Y-106943079D01*
X130081469Y-106947620D01*
X130081500Y-106947771D01*
X130062411Y-106978222D01*
X130013984Y-107038683D01*
X129982960Y-107074771D01*
X129884421Y-107187000D01*
X129530523Y-107186915D01*
X129176625Y-107186829D01*
X129033750Y-107061268D01*
X128890875Y-106935708D01*
X129486187Y-106934354D01*
G37*
X129486187Y-106934354D02*
X129672729Y-106934677D01*
X129835345Y-106936386D01*
X129964217Y-106939261D01*
X130049531Y-106943079D01*
X130081469Y-106947620D01*
X130081500Y-106947771D01*
X130062411Y-106978222D01*
X130013984Y-107038683D01*
X129982960Y-107074771D01*
X129884421Y-107187000D01*
X129530523Y-107186915D01*
X129176625Y-107186829D01*
X129033750Y-107061268D01*
X128890875Y-106935708D01*
X129486187Y-106934354D01*
G36*
X129002000Y-107439132D02*
G01*
X129002000Y-112889113D01*
X128875000Y-113013125D01*
X128748000Y-113137138D01*
X128748000Y-107117798D01*
X129002000Y-107439132D01*
G37*
X129002000Y-107439132D02*
X129002000Y-112889113D01*
X128875000Y-113013125D01*
X128748000Y-113137138D01*
X128748000Y-107117798D01*
X129002000Y-107439132D01*
G36*
X131863251Y-112761591D02*
G01*
X131896203Y-112744786D01*
X131970337Y-112711465D01*
X132068407Y-112668954D01*
X132173163Y-112624580D01*
X132267358Y-112585668D01*
X132333743Y-112559544D01*
X132354949Y-112552750D01*
X132361136Y-112581821D01*
X132365618Y-112658321D01*
X132367490Y-112766189D01*
X132367500Y-112775000D01*
X132365942Y-112884555D01*
X132361842Y-112963936D01*
X132356060Y-112997077D01*
X132355588Y-112997250D01*
X132318543Y-112984937D01*
X132244240Y-112953005D01*
X132148372Y-112908963D01*
X132046631Y-112860325D01*
X131954707Y-112814599D01*
X131888292Y-112779298D01*
X131863079Y-112761931D01*
X131863251Y-112761591D01*
G37*
X131863251Y-112761591D02*
X131896203Y-112744786D01*
X131970337Y-112711465D01*
X132068407Y-112668954D01*
X132173163Y-112624580D01*
X132267358Y-112585668D01*
X132333743Y-112559544D01*
X132354949Y-112552750D01*
X132361136Y-112581821D01*
X132365618Y-112658321D01*
X132367490Y-112766189D01*
X132367500Y-112775000D01*
X132365942Y-112884555D01*
X132361842Y-112963936D01*
X132356060Y-112997077D01*
X132355588Y-112997250D01*
X132318543Y-112984937D01*
X132244240Y-112953005D01*
X132148372Y-112908963D01*
X132046631Y-112860325D01*
X131954707Y-112814599D01*
X131888292Y-112779298D01*
X131863079Y-112761931D01*
X131863251Y-112761591D01*
D16*
%TO.C,TP6*%
X161800000Y-50200000D02*
G75*
G03*
X161800000Y-50200000I-1200000J0D01*
G01*
%TO.C,JP2*%
X149700000Y-103500000D02*
G75*
G02*
X149000000Y-104200000I-700000J0D01*
G01*
X149000000Y-102200000D02*
G75*
G02*
X149700000Y-102900000I0J-700000D01*
G01*
X145600000Y-102900000D02*
G75*
G02*
X146300000Y-102200000I700000J0D01*
G01*
X146300000Y-104200000D02*
G75*
G02*
X145600000Y-103500000I0J700000D01*
G01*
X148850000Y-102000000D02*
X148550000Y-101700000D01*
X149150000Y-101700000D02*
X148550000Y-101700000D01*
X148850000Y-102000000D02*
X149150000Y-101700000D01*
X149700000Y-102900000D02*
X149700000Y-103500000D01*
X146250000Y-102200000D02*
X149050000Y-102200000D01*
X145600000Y-103500000D02*
X145600000Y-102900000D01*
X149050000Y-104200000D02*
X146250000Y-104200000D01*
%TO.C,JP1*%
X149700000Y-99200000D02*
G75*
G02*
X149000000Y-99900000I-700000J0D01*
G01*
X149000000Y-97900000D02*
G75*
G02*
X149700000Y-98600000I0J-700000D01*
G01*
X145600000Y-98600000D02*
G75*
G02*
X146300000Y-97900000I700000J0D01*
G01*
X146300000Y-99900000D02*
G75*
G02*
X145600000Y-99200000I0J700000D01*
G01*
X148850000Y-97700000D02*
X148550000Y-97400000D01*
X149150000Y-97400000D02*
X148550000Y-97400000D01*
X148850000Y-97700000D02*
X149150000Y-97400000D01*
X149700000Y-98600000D02*
X149700000Y-99200000D01*
X146250000Y-97900000D02*
X149050000Y-97900000D01*
X145600000Y-99200000D02*
X145600000Y-98600000D01*
X149050000Y-99900000D02*
X146250000Y-99900000D01*
%TO.C,TP5*%
X167350000Y-70900000D02*
G75*
G03*
X167350000Y-70900000I-1200000J0D01*
G01*
%TO.C,TP3*%
X156050000Y-67800000D02*
G75*
G03*
X156050000Y-67800000I-1200000J0D01*
G01*
%TO.C,TP2*%
X149150000Y-92800000D02*
G75*
G03*
X149150000Y-92800000I-1200000J0D01*
G01*
%TO.C,TP1*%
X173750000Y-86200000D02*
G75*
G03*
X173750000Y-86200000I-1200000J0D01*
G01*
%TO.C,U7*%
X161640000Y-119680000D02*
X165240000Y-119680000D01*
X161640000Y-119680000D02*
X159440000Y-119680000D01*
X161640000Y-114460000D02*
X163840000Y-114460000D01*
X161640000Y-114460000D02*
X159440000Y-114460000D01*
D17*
%TO.C,U6*%
X166925000Y-68655000D02*
X169025000Y-68655000D01*
X166925000Y-66245000D02*
X169025000Y-66245000D01*
D18*
X166130000Y-66700000D02*
G75*
G03*
X166130000Y-66700000I-100000J0D01*
G01*
D11*
%TO.C,S3*%
X167310800Y-62416600D02*
X167310800Y-56016600D01*
X171110800Y-62416600D02*
X171110800Y-56016600D01*
X167310800Y-62416600D02*
X168210800Y-62416600D01*
X171110800Y-62416600D02*
X170210800Y-62416600D01*
X167310800Y-56016600D02*
X168210800Y-56016600D01*
X171110800Y-56016600D02*
X170210800Y-56016600D01*
%TO.C,S2*%
X172695600Y-62411400D02*
X172695600Y-56011400D01*
X176495600Y-62411400D02*
X176495600Y-56011400D01*
X172695600Y-62411400D02*
X173595600Y-62411400D01*
X176495600Y-62411400D02*
X175595600Y-62411400D01*
X172695600Y-56011400D02*
X173595600Y-56011400D01*
X176495600Y-56011400D02*
X175595600Y-56011400D01*
D17*
%TO.C,J3*%
X143736800Y-131146400D02*
X132486800Y-131146400D01*
X132486800Y-117346400D02*
X143736800Y-117346400D01*
X132486800Y-131146400D02*
X132486800Y-129272400D01*
X132486800Y-117346400D02*
X132486800Y-118746400D01*
D19*
X147556800Y-120646400D02*
G75*
G03*
X147556800Y-120646400I-120000J0D01*
G01*
D16*
%TO.C,C11*%
X159084420Y-121510000D02*
X159365580Y-121510000D01*
X159084420Y-120490000D02*
X159365580Y-120490000D01*
%TO.C,C8*%
X164584420Y-68260000D02*
X164865580Y-68260000D01*
X164584420Y-67240000D02*
X164865580Y-67240000D01*
%TO.C,C4*%
X156560000Y-75015580D02*
X156560000Y-74734420D01*
X155540000Y-75015580D02*
X155540000Y-74734420D01*
%TO.C,C2*%
X154421000Y-62634748D02*
X154421000Y-63157252D01*
X155891000Y-62634748D02*
X155891000Y-63157252D01*
D18*
%TO.C,U8*%
X137850000Y-73110000D02*
G75*
G03*
X137850000Y-73110000I-100000J0D01*
G01*
D17*
X140300000Y-72805000D02*
X147800000Y-72805000D01*
X140300000Y-83105000D02*
X147800000Y-83105000D01*
D16*
%TO.C,C7*%
X173363748Y-75760000D02*
X174786252Y-75760000D01*
X173363748Y-73940000D02*
X174786252Y-73940000D01*
%TO.C,C3*%
X160771000Y-62512748D02*
X160771000Y-63035252D01*
X162241000Y-62512748D02*
X162241000Y-63035252D01*
%TO.C,R17*%
X161117500Y-138243342D02*
X161117500Y-138717858D01*
X162162500Y-138243342D02*
X162162500Y-138717858D01*
%TO.C,R16*%
X150957500Y-138230142D02*
X150957500Y-138704658D01*
X152002500Y-138230142D02*
X152002500Y-138704658D01*
%TO.C,Q1*%
X149844800Y-65912600D02*
X149844800Y-64512600D01*
X147524800Y-64512600D02*
X147524800Y-66412600D01*
%TO.C,C9*%
X169770000Y-138569580D02*
X169770000Y-138288420D01*
X168750000Y-138569580D02*
X168750000Y-138288420D01*
%TO.C,R7*%
X144582100Y-50866342D02*
X144582100Y-51340858D01*
X145627100Y-50866342D02*
X145627100Y-51340858D01*
%TO.C,R14*%
X169272500Y-51587742D02*
X169272500Y-52062258D01*
X168227500Y-51587742D02*
X168227500Y-52062258D01*
%TO.C,C17*%
X137760000Y-81109420D02*
X137760000Y-81390580D01*
X136740000Y-81109420D02*
X136740000Y-81390580D01*
%TO.C,C16*%
X136750000Y-74425580D02*
X136750000Y-74144420D01*
X137770000Y-74425580D02*
X137770000Y-74144420D01*
%TO.C,C15*%
X137770000Y-77674420D02*
X137770000Y-77955580D01*
X136750000Y-77674420D02*
X136750000Y-77955580D01*
%TO.C,C14*%
X139392420Y-70968000D02*
X139673580Y-70968000D01*
X139392420Y-71988000D02*
X139673580Y-71988000D01*
%TO.C,C13*%
X151460000Y-74144420D02*
X151460000Y-74425580D01*
X150440000Y-74144420D02*
X150440000Y-74425580D01*
%TO.C,C12*%
X171417000Y-89687580D02*
X171417000Y-89406420D01*
X172437000Y-89687580D02*
X172437000Y-89406420D01*
%TO.C,U3*%
X159358000Y-61352000D02*
X157558000Y-61352000D01*
X157558000Y-64572000D02*
X160008000Y-64572000D01*
%TO.C,R12*%
X152760900Y-96045858D02*
X152760900Y-95571342D01*
X153805900Y-96045858D02*
X153805900Y-95571342D01*
%TO.C,R9*%
X158157742Y-65233500D02*
X158632258Y-65233500D01*
X158157742Y-66278500D02*
X158632258Y-66278500D01*
%TO.C,R3*%
X170163500Y-89372742D02*
X170163500Y-89847258D01*
X169118500Y-89372742D02*
X169118500Y-89847258D01*
D20*
%TO.C,J4*%
X161597660Y-59948940D02*
X154000520Y-59948940D01*
X154000520Y-59948940D02*
X154000520Y-54051060D01*
X154000520Y-54051060D02*
X161597660Y-54051060D01*
X161597660Y-59948940D02*
X161597660Y-59298700D01*
X161597660Y-54051060D02*
X161597660Y-54701300D01*
X161597660Y-59298700D02*
X160000000Y-59298700D01*
X161597660Y-54701300D02*
X160000000Y-54701300D01*
%TO.C,J5*%
X134129220Y-86582820D02*
X134129220Y-55787860D01*
X134129220Y-55787860D02*
X128790140Y-55787860D01*
X134129220Y-86582820D02*
X128790140Y-86582820D01*
D16*
%TO.C,J2*%
X143370000Y-42770000D02*
X134180000Y-42770000D01*
X143250000Y-52180000D02*
X134300000Y-52180000D01*
X134180000Y-45500000D02*
X134180000Y-42770000D01*
X143370000Y-45500000D02*
X143370000Y-42770000D01*
X134180000Y-49100000D02*
X134180000Y-48200000D01*
X143370000Y-49100000D02*
X143370000Y-48200000D01*
D11*
%TO.C,S1*%
X167480000Y-41800000D02*
X167480000Y-45800000D01*
X166210000Y-41800000D02*
X167480000Y-41800000D01*
D16*
X166210000Y-45800000D02*
X166210000Y-41800000D01*
X173050000Y-45800000D02*
X164450000Y-45800000D01*
D11*
X173050000Y-50200000D02*
X164450000Y-50200000D01*
D21*
%TO.C,Q5*%
X165375000Y-73350000D02*
X165100000Y-73350000D01*
X165100000Y-73350000D02*
X164725000Y-73625000D01*
X164725000Y-73625000D02*
X164725000Y-73675000D01*
X164725000Y-73675000D02*
X163950000Y-73675000D01*
X165200000Y-76650000D02*
X164725000Y-76650000D01*
X164725000Y-76650000D02*
X164725000Y-76300000D01*
X166375000Y-76425000D02*
X166375000Y-76300000D01*
X166375000Y-76350000D02*
X166375000Y-76650000D01*
X166375000Y-76650000D02*
X165925000Y-76650000D01*
X166000000Y-73350000D02*
X166375000Y-73350000D01*
X166375000Y-73350000D02*
X166375000Y-73650000D01*
D16*
%TO.C,C1*%
X146427400Y-57442580D02*
X146427400Y-57161420D01*
X145407400Y-57442580D02*
X145407400Y-57161420D01*
%TO.C,C5*%
X173134420Y-73160000D02*
X173415580Y-73160000D01*
X173134420Y-72140000D02*
X173415580Y-72140000D01*
%TO.C,D3*%
X163080000Y-77260000D02*
X163080000Y-74540000D01*
X163080000Y-74540000D02*
X158100000Y-74540000D01*
X163080000Y-77260000D02*
X158100000Y-77260000D01*
D21*
%TO.C,Q2*%
X159350000Y-71125000D02*
X159650000Y-71125000D01*
X159350000Y-71500000D02*
X159350000Y-71125000D01*
X162650000Y-71125000D02*
X162650000Y-71575000D01*
X162350000Y-71125000D02*
X162650000Y-71125000D01*
X162425000Y-71125000D02*
X162300000Y-71125000D01*
X162650000Y-72775000D02*
X162300000Y-72775000D01*
X162650000Y-72300000D02*
X162650000Y-72775000D01*
X159675000Y-72775000D02*
X159675000Y-73550000D01*
X159625000Y-72775000D02*
X159675000Y-72775000D01*
X159350000Y-72400000D02*
X159625000Y-72775000D01*
X159350000Y-72125000D02*
X159350000Y-72400000D01*
D16*
%TO.C,R1*%
X148859058Y-68315700D02*
X148384542Y-68315700D01*
X148859058Y-67270700D02*
X148384542Y-67270700D01*
%TO.C,R2*%
X148384542Y-63184900D02*
X148859058Y-63184900D01*
X148384542Y-62139900D02*
X148859058Y-62139900D01*
%TO.C,R8*%
X146258500Y-51366258D02*
X146258500Y-50891742D01*
X147303500Y-51366258D02*
X147303500Y-50891742D01*
%TO.C,R10*%
X158322500Y-72137258D02*
X158322500Y-71662742D01*
X157277500Y-72137258D02*
X157277500Y-71662742D01*
%TO.C,R11*%
X169512258Y-76822500D02*
X169037742Y-76822500D01*
X169512258Y-75777500D02*
X169037742Y-75777500D01*
%TO.C,U1*%
X155849000Y-91968000D02*
X155069000Y-91968000D01*
X155069000Y-91968000D02*
X155069000Y-92968000D01*
X155849000Y-110208000D02*
X155069000Y-110208000D01*
X155069000Y-110208000D02*
X155069000Y-109208000D01*
X180814000Y-91968000D02*
X180814000Y-110208000D01*
X180814000Y-110208000D02*
X174394000Y-110208000D01*
X180814000Y-91968000D02*
X174394000Y-91968000D01*
X174394000Y-91968000D02*
X174394000Y-91588000D01*
%TO.C,U2*%
X141250000Y-66060000D02*
X143200000Y-66060000D01*
X141250000Y-66060000D02*
X139300000Y-66060000D01*
X141250000Y-55940000D02*
X143200000Y-55940000D01*
X141250000Y-55940000D02*
X137800000Y-55940000D01*
%TO.C,U5*%
X170600000Y-71990000D02*
X168150000Y-71990000D01*
X168800000Y-75210000D02*
X170600000Y-75210000D01*
%TD*%
%TO.C,TP6*%
D11*
X159338095Y-47654380D02*
X159909523Y-47654380D01*
X159623809Y-48654380D02*
X159623809Y-47654380D01*
X160242857Y-48654380D02*
X160242857Y-47654380D01*
X160623809Y-47654380D01*
X160719047Y-47702000D01*
X160766666Y-47749619D01*
X160814285Y-47844857D01*
X160814285Y-47987714D01*
X160766666Y-48082952D01*
X160719047Y-48130571D01*
X160623809Y-48178190D01*
X160242857Y-48178190D01*
X161671428Y-47654380D02*
X161480952Y-47654380D01*
X161385714Y-47702000D01*
X161338095Y-47749619D01*
X161242857Y-47892476D01*
X161195238Y-48082952D01*
X161195238Y-48463904D01*
X161242857Y-48559142D01*
X161290476Y-48606761D01*
X161385714Y-48654380D01*
X161576190Y-48654380D01*
X161671428Y-48606761D01*
X161719047Y-48559142D01*
X161766666Y-48463904D01*
X161766666Y-48225809D01*
X161719047Y-48130571D01*
X161671428Y-48082952D01*
X161576190Y-48035333D01*
X161385714Y-48035333D01*
X161290476Y-48082952D01*
X161242857Y-48130571D01*
X161195238Y-48225809D01*
%TO.C,JP2*%
X146816666Y-104452380D02*
X146816666Y-105166666D01*
X146769047Y-105309523D01*
X146673809Y-105404761D01*
X146530952Y-105452380D01*
X146435714Y-105452380D01*
X147292857Y-105452380D02*
X147292857Y-104452380D01*
X147673809Y-104452380D01*
X147769047Y-104500000D01*
X147816666Y-104547619D01*
X147864285Y-104642857D01*
X147864285Y-104785714D01*
X147816666Y-104880952D01*
X147769047Y-104928571D01*
X147673809Y-104976190D01*
X147292857Y-104976190D01*
X148245238Y-104547619D02*
X148292857Y-104500000D01*
X148388095Y-104452380D01*
X148626190Y-104452380D01*
X148721428Y-104500000D01*
X148769047Y-104547619D01*
X148816666Y-104642857D01*
X148816666Y-104738095D01*
X148769047Y-104880952D01*
X148197619Y-105452380D01*
X148816666Y-105452380D01*
%TO.C,JP1*%
X146816666Y-100152380D02*
X146816666Y-100866666D01*
X146769047Y-101009523D01*
X146673809Y-101104761D01*
X146530952Y-101152380D01*
X146435714Y-101152380D01*
X147292857Y-101152380D02*
X147292857Y-100152380D01*
X147673809Y-100152380D01*
X147769047Y-100200000D01*
X147816666Y-100247619D01*
X147864285Y-100342857D01*
X147864285Y-100485714D01*
X147816666Y-100580952D01*
X147769047Y-100628571D01*
X147673809Y-100676190D01*
X147292857Y-100676190D01*
X148816666Y-101152380D02*
X148245238Y-101152380D01*
X148530952Y-101152380D02*
X148530952Y-100152380D01*
X148435714Y-100295238D01*
X148340476Y-100390476D01*
X148245238Y-100438095D01*
%TO.C,TP5*%
X167952380Y-71561904D02*
X167952380Y-70990476D01*
X168952380Y-71276190D02*
X167952380Y-71276190D01*
X168952380Y-70657142D02*
X167952380Y-70657142D01*
X167952380Y-70276190D01*
X168000000Y-70180952D01*
X168047619Y-70133333D01*
X168142857Y-70085714D01*
X168285714Y-70085714D01*
X168380952Y-70133333D01*
X168428571Y-70180952D01*
X168476190Y-70276190D01*
X168476190Y-70657142D01*
X167952380Y-69180952D02*
X167952380Y-69657142D01*
X168428571Y-69704761D01*
X168380952Y-69657142D01*
X168333333Y-69561904D01*
X168333333Y-69323809D01*
X168380952Y-69228571D01*
X168428571Y-69180952D01*
X168523809Y-69133333D01*
X168761904Y-69133333D01*
X168857142Y-69180952D01*
X168904761Y-69228571D01*
X168952380Y-69323809D01*
X168952380Y-69561904D01*
X168904761Y-69657142D01*
X168857142Y-69704761D01*
%TO.C,TP3*%
X150588095Y-67352380D02*
X151159523Y-67352380D01*
X150873809Y-68352380D02*
X150873809Y-67352380D01*
X151492857Y-68352380D02*
X151492857Y-67352380D01*
X151873809Y-67352380D01*
X151969047Y-67400000D01*
X152016666Y-67447619D01*
X152064285Y-67542857D01*
X152064285Y-67685714D01*
X152016666Y-67780952D01*
X151969047Y-67828571D01*
X151873809Y-67876190D01*
X151492857Y-67876190D01*
X152397619Y-67352380D02*
X153016666Y-67352380D01*
X152683333Y-67733333D01*
X152826190Y-67733333D01*
X152921428Y-67780952D01*
X152969047Y-67828571D01*
X153016666Y-67923809D01*
X153016666Y-68161904D01*
X152969047Y-68257142D01*
X152921428Y-68304761D01*
X152826190Y-68352380D01*
X152540476Y-68352380D01*
X152445238Y-68304761D01*
X152397619Y-68257142D01*
%TO.C,TP2*%
X146688095Y-94250380D02*
X147259523Y-94250380D01*
X146973809Y-95250380D02*
X146973809Y-94250380D01*
X147592857Y-95250380D02*
X147592857Y-94250380D01*
X147973809Y-94250380D01*
X148069047Y-94298000D01*
X148116666Y-94345619D01*
X148164285Y-94440857D01*
X148164285Y-94583714D01*
X148116666Y-94678952D01*
X148069047Y-94726571D01*
X147973809Y-94774190D01*
X147592857Y-94774190D01*
X148545238Y-94345619D02*
X148592857Y-94298000D01*
X148688095Y-94250380D01*
X148926190Y-94250380D01*
X149021428Y-94298000D01*
X149069047Y-94345619D01*
X149116666Y-94440857D01*
X149116666Y-94536095D01*
X149069047Y-94678952D01*
X148497619Y-95250380D01*
X149116666Y-95250380D01*
%TO.C,TP1*%
X170004380Y-87461904D02*
X170004380Y-86890476D01*
X171004380Y-87176190D02*
X170004380Y-87176190D01*
X171004380Y-86557142D02*
X170004380Y-86557142D01*
X170004380Y-86176190D01*
X170052000Y-86080952D01*
X170099619Y-86033333D01*
X170194857Y-85985714D01*
X170337714Y-85985714D01*
X170432952Y-86033333D01*
X170480571Y-86080952D01*
X170528190Y-86176190D01*
X170528190Y-86557142D01*
X171004380Y-85033333D02*
X171004380Y-85604761D01*
X171004380Y-85319047D02*
X170004380Y-85319047D01*
X170147238Y-85414285D01*
X170242476Y-85509523D01*
X170290095Y-85604761D01*
%TO.C,U7*%
X160688095Y-113052380D02*
X160688095Y-113861904D01*
X160735714Y-113957142D01*
X160783333Y-114004761D01*
X160878571Y-114052380D01*
X161069047Y-114052380D01*
X161164285Y-114004761D01*
X161211904Y-113957142D01*
X161259523Y-113861904D01*
X161259523Y-113052380D01*
X161640476Y-113052380D02*
X162307142Y-113052380D01*
X161878571Y-114052380D01*
%TO.C,U6*%
X169888095Y-67202380D02*
X169888095Y-68011904D01*
X169935714Y-68107142D01*
X169983333Y-68154761D01*
X170078571Y-68202380D01*
X170269047Y-68202380D01*
X170364285Y-68154761D01*
X170411904Y-68107142D01*
X170459523Y-68011904D01*
X170459523Y-67202380D01*
X171364285Y-67202380D02*
X171173809Y-67202380D01*
X171078571Y-67250000D01*
X171030952Y-67297619D01*
X170935714Y-67440476D01*
X170888095Y-67630952D01*
X170888095Y-68011904D01*
X170935714Y-68107142D01*
X170983333Y-68154761D01*
X171078571Y-68202380D01*
X171269047Y-68202380D01*
X171364285Y-68154761D01*
X171411904Y-68107142D01*
X171459523Y-68011904D01*
X171459523Y-67773809D01*
X171411904Y-67678571D01*
X171364285Y-67630952D01*
X171269047Y-67583333D01*
X171078571Y-67583333D01*
X170983333Y-67630952D01*
X170935714Y-67678571D01*
X170888095Y-67773809D01*
%TO.C,S3*%
X168398095Y-65107761D02*
X168540952Y-65155380D01*
X168779047Y-65155380D01*
X168874285Y-65107761D01*
X168921904Y-65060142D01*
X168969523Y-64964904D01*
X168969523Y-64869666D01*
X168921904Y-64774428D01*
X168874285Y-64726809D01*
X168779047Y-64679190D01*
X168588571Y-64631571D01*
X168493333Y-64583952D01*
X168445714Y-64536333D01*
X168398095Y-64441095D01*
X168398095Y-64345857D01*
X168445714Y-64250619D01*
X168493333Y-64203000D01*
X168588571Y-64155380D01*
X168826666Y-64155380D01*
X168969523Y-64203000D01*
X169302857Y-64155380D02*
X169921904Y-64155380D01*
X169588571Y-64536333D01*
X169731428Y-64536333D01*
X169826666Y-64583952D01*
X169874285Y-64631571D01*
X169921904Y-64726809D01*
X169921904Y-64964904D01*
X169874285Y-65060142D01*
X169826666Y-65107761D01*
X169731428Y-65155380D01*
X169445714Y-65155380D01*
X169350476Y-65107761D01*
X169302857Y-65060142D01*
%TO.C,S2*%
X173681295Y-65006161D02*
X173824152Y-65053780D01*
X174062247Y-65053780D01*
X174157485Y-65006161D01*
X174205104Y-64958542D01*
X174252723Y-64863304D01*
X174252723Y-64768066D01*
X174205104Y-64672828D01*
X174157485Y-64625209D01*
X174062247Y-64577590D01*
X173871771Y-64529971D01*
X173776533Y-64482352D01*
X173728914Y-64434733D01*
X173681295Y-64339495D01*
X173681295Y-64244257D01*
X173728914Y-64149019D01*
X173776533Y-64101400D01*
X173871771Y-64053780D01*
X174109866Y-64053780D01*
X174252723Y-64101400D01*
X174633676Y-64149019D02*
X174681295Y-64101400D01*
X174776533Y-64053780D01*
X175014628Y-64053780D01*
X175109866Y-64101400D01*
X175157485Y-64149019D01*
X175205104Y-64244257D01*
X175205104Y-64339495D01*
X175157485Y-64482352D01*
X174586057Y-65053780D01*
X175205104Y-65053780D01*
%TO.C,J3*%
X130317499Y-128621359D02*
X131034637Y-128621359D01*
X131178064Y-128669168D01*
X131273682Y-128764786D01*
X131321491Y-128908213D01*
X131321491Y-129003832D01*
X130317499Y-128238885D02*
X130317499Y-127617367D01*
X130699973Y-127952031D01*
X130699973Y-127808603D01*
X130747782Y-127712985D01*
X130795591Y-127665176D01*
X130891209Y-127617367D01*
X131130255Y-127617367D01*
X131225873Y-127665176D01*
X131273682Y-127712985D01*
X131321491Y-127808603D01*
X131321491Y-128095458D01*
X131273682Y-128191076D01*
X131225873Y-128238885D01*
%TO.C,C11*%
X161707142Y-121357142D02*
X161659523Y-121404761D01*
X161516666Y-121452380D01*
X161421428Y-121452380D01*
X161278571Y-121404761D01*
X161183333Y-121309523D01*
X161135714Y-121214285D01*
X161088095Y-121023809D01*
X161088095Y-120880952D01*
X161135714Y-120690476D01*
X161183333Y-120595238D01*
X161278571Y-120500000D01*
X161421428Y-120452380D01*
X161516666Y-120452380D01*
X161659523Y-120500000D01*
X161707142Y-120547619D01*
X162659523Y-121452380D02*
X162088095Y-121452380D01*
X162373809Y-121452380D02*
X162373809Y-120452380D01*
X162278571Y-120595238D01*
X162183333Y-120690476D01*
X162088095Y-120738095D01*
X163611904Y-121452380D02*
X163040476Y-121452380D01*
X163326190Y-121452380D02*
X163326190Y-120452380D01*
X163230952Y-120595238D01*
X163135714Y-120690476D01*
X163040476Y-120738095D01*
%TO.C,C8*%
X163983333Y-69607142D02*
X163935714Y-69654761D01*
X163792857Y-69702380D01*
X163697619Y-69702380D01*
X163554761Y-69654761D01*
X163459523Y-69559523D01*
X163411904Y-69464285D01*
X163364285Y-69273809D01*
X163364285Y-69130952D01*
X163411904Y-68940476D01*
X163459523Y-68845238D01*
X163554761Y-68750000D01*
X163697619Y-68702380D01*
X163792857Y-68702380D01*
X163935714Y-68750000D01*
X163983333Y-68797619D01*
X164554761Y-69130952D02*
X164459523Y-69083333D01*
X164411904Y-69035714D01*
X164364285Y-68940476D01*
X164364285Y-68892857D01*
X164411904Y-68797619D01*
X164459523Y-68750000D01*
X164554761Y-68702380D01*
X164745238Y-68702380D01*
X164840476Y-68750000D01*
X164888095Y-68797619D01*
X164935714Y-68892857D01*
X164935714Y-68940476D01*
X164888095Y-69035714D01*
X164840476Y-69083333D01*
X164745238Y-69130952D01*
X164554761Y-69130952D01*
X164459523Y-69178571D01*
X164411904Y-69226190D01*
X164364285Y-69321428D01*
X164364285Y-69511904D01*
X164411904Y-69607142D01*
X164459523Y-69654761D01*
X164554761Y-69702380D01*
X164745238Y-69702380D01*
X164840476Y-69654761D01*
X164888095Y-69607142D01*
X164935714Y-69511904D01*
X164935714Y-69321428D01*
X164888095Y-69226190D01*
X164840476Y-69178571D01*
X164745238Y-69130952D01*
%TO.C,C4*%
X155057142Y-74916666D02*
X155104761Y-74964285D01*
X155152380Y-75107142D01*
X155152380Y-75202380D01*
X155104761Y-75345238D01*
X155009523Y-75440476D01*
X154914285Y-75488095D01*
X154723809Y-75535714D01*
X154580952Y-75535714D01*
X154390476Y-75488095D01*
X154295238Y-75440476D01*
X154200000Y-75345238D01*
X154152380Y-75202380D01*
X154152380Y-75107142D01*
X154200000Y-74964285D01*
X154247619Y-74916666D01*
X154485714Y-74059523D02*
X155152380Y-74059523D01*
X154104761Y-74297619D02*
X154819047Y-74535714D01*
X154819047Y-73916666D01*
%TO.C,C2*%
X153735142Y-63128666D02*
X153782761Y-63176285D01*
X153830380Y-63319142D01*
X153830380Y-63414380D01*
X153782761Y-63557238D01*
X153687523Y-63652476D01*
X153592285Y-63700095D01*
X153401809Y-63747714D01*
X153258952Y-63747714D01*
X153068476Y-63700095D01*
X152973238Y-63652476D01*
X152878000Y-63557238D01*
X152830380Y-63414380D01*
X152830380Y-63319142D01*
X152878000Y-63176285D01*
X152925619Y-63128666D01*
X152925619Y-62747714D02*
X152878000Y-62700095D01*
X152830380Y-62604857D01*
X152830380Y-62366761D01*
X152878000Y-62271523D01*
X152925619Y-62223904D01*
X153020857Y-62176285D01*
X153116095Y-62176285D01*
X153258952Y-62223904D01*
X153830380Y-62795333D01*
X153830380Y-62176285D01*
%TO.C,U8*%
X142594095Y-71245380D02*
X142594095Y-72054904D01*
X142641714Y-72150142D01*
X142689333Y-72197761D01*
X142784571Y-72245380D01*
X142975047Y-72245380D01*
X143070285Y-72197761D01*
X143117904Y-72150142D01*
X143165523Y-72054904D01*
X143165523Y-71245380D01*
X143784571Y-71673952D02*
X143689333Y-71626333D01*
X143641714Y-71578714D01*
X143594095Y-71483476D01*
X143594095Y-71435857D01*
X143641714Y-71340619D01*
X143689333Y-71293000D01*
X143784571Y-71245380D01*
X143975047Y-71245380D01*
X144070285Y-71293000D01*
X144117904Y-71340619D01*
X144165523Y-71435857D01*
X144165523Y-71483476D01*
X144117904Y-71578714D01*
X144070285Y-71626333D01*
X143975047Y-71673952D01*
X143784571Y-71673952D01*
X143689333Y-71721571D01*
X143641714Y-71769190D01*
X143594095Y-71864428D01*
X143594095Y-72054904D01*
X143641714Y-72150142D01*
X143689333Y-72197761D01*
X143784571Y-72245380D01*
X143975047Y-72245380D01*
X144070285Y-72197761D01*
X144117904Y-72150142D01*
X144165523Y-72054904D01*
X144165523Y-71864428D01*
X144117904Y-71769190D01*
X144070285Y-71721571D01*
X143975047Y-71673952D01*
%TO.C,C7*%
X173633333Y-77257142D02*
X173585714Y-77304761D01*
X173442857Y-77352380D01*
X173347619Y-77352380D01*
X173204761Y-77304761D01*
X173109523Y-77209523D01*
X173061904Y-77114285D01*
X173014285Y-76923809D01*
X173014285Y-76780952D01*
X173061904Y-76590476D01*
X173109523Y-76495238D01*
X173204761Y-76400000D01*
X173347619Y-76352380D01*
X173442857Y-76352380D01*
X173585714Y-76400000D01*
X173633333Y-76447619D01*
X173966666Y-76352380D02*
X174633333Y-76352380D01*
X174204761Y-77352380D01*
%TO.C,C3*%
X163543142Y-62940666D02*
X163590761Y-62988285D01*
X163638380Y-63131142D01*
X163638380Y-63226380D01*
X163590761Y-63369238D01*
X163495523Y-63464476D01*
X163400285Y-63512095D01*
X163209809Y-63559714D01*
X163066952Y-63559714D01*
X162876476Y-63512095D01*
X162781238Y-63464476D01*
X162686000Y-63369238D01*
X162638380Y-63226380D01*
X162638380Y-63131142D01*
X162686000Y-62988285D01*
X162733619Y-62940666D01*
X162638380Y-62607333D02*
X162638380Y-61988285D01*
X163019333Y-62321619D01*
X163019333Y-62178761D01*
X163066952Y-62083523D01*
X163114571Y-62035904D01*
X163209809Y-61988285D01*
X163447904Y-61988285D01*
X163543142Y-62035904D01*
X163590761Y-62083523D01*
X163638380Y-62178761D01*
X163638380Y-62464476D01*
X163590761Y-62559714D01*
X163543142Y-62607333D01*
%TO.C,H4*%
X176738095Y-137132380D02*
X176738095Y-136132380D01*
X176738095Y-136608571D02*
X177309523Y-136608571D01*
X177309523Y-137132380D02*
X177309523Y-136132380D01*
X178214285Y-136465714D02*
X178214285Y-137132380D01*
X177976190Y-136084761D02*
X177738095Y-136799047D01*
X178357142Y-136799047D01*
%TO.C,H3*%
X176738095Y-45172380D02*
X176738095Y-44172380D01*
X176738095Y-44648571D02*
X177309523Y-44648571D01*
X177309523Y-45172380D02*
X177309523Y-44172380D01*
X177690476Y-44172380D02*
X178309523Y-44172380D01*
X177976190Y-44553333D01*
X178119047Y-44553333D01*
X178214285Y-44600952D01*
X178261904Y-44648571D01*
X178309523Y-44743809D01*
X178309523Y-44981904D01*
X178261904Y-45077142D01*
X178214285Y-45124761D01*
X178119047Y-45172380D01*
X177833333Y-45172380D01*
X177738095Y-45124761D01*
X177690476Y-45077142D01*
%TO.C,H2*%
X127238095Y-137132380D02*
X127238095Y-136132380D01*
X127238095Y-136608571D02*
X127809523Y-136608571D01*
X127809523Y-137132380D02*
X127809523Y-136132380D01*
X128238095Y-136227619D02*
X128285714Y-136180000D01*
X128380952Y-136132380D01*
X128619047Y-136132380D01*
X128714285Y-136180000D01*
X128761904Y-136227619D01*
X128809523Y-136322857D01*
X128809523Y-136418095D01*
X128761904Y-136560952D01*
X128190476Y-137132380D01*
X128809523Y-137132380D01*
%TO.C,H1*%
X127238095Y-45172380D02*
X127238095Y-44172380D01*
X127238095Y-44648571D02*
X127809523Y-44648571D01*
X127809523Y-45172380D02*
X127809523Y-44172380D01*
X128809523Y-45172380D02*
X128238095Y-45172380D01*
X128523809Y-45172380D02*
X128523809Y-44172380D01*
X128428571Y-44315238D01*
X128333333Y-44410476D01*
X128238095Y-44458095D01*
%TO.C,R17*%
X163522380Y-139123457D02*
X163046190Y-139456790D01*
X163522380Y-139694885D02*
X162522380Y-139694885D01*
X162522380Y-139313933D01*
X162570000Y-139218695D01*
X162617619Y-139171076D01*
X162712857Y-139123457D01*
X162855714Y-139123457D01*
X162950952Y-139171076D01*
X162998571Y-139218695D01*
X163046190Y-139313933D01*
X163046190Y-139694885D01*
X163522380Y-138171076D02*
X163522380Y-138742504D01*
X163522380Y-138456790D02*
X162522380Y-138456790D01*
X162665238Y-138552028D01*
X162760476Y-138647266D01*
X162808095Y-138742504D01*
X162522380Y-137837742D02*
X162522380Y-137171076D01*
X163522380Y-137599647D01*
%TO.C,R16*%
X153362380Y-139110257D02*
X152886190Y-139443590D01*
X153362380Y-139681685D02*
X152362380Y-139681685D01*
X152362380Y-139300733D01*
X152410000Y-139205495D01*
X152457619Y-139157876D01*
X152552857Y-139110257D01*
X152695714Y-139110257D01*
X152790952Y-139157876D01*
X152838571Y-139205495D01*
X152886190Y-139300733D01*
X152886190Y-139681685D01*
X153362380Y-138157876D02*
X153362380Y-138729304D01*
X153362380Y-138443590D02*
X152362380Y-138443590D01*
X152505238Y-138538828D01*
X152600476Y-138634066D01*
X152648095Y-138729304D01*
X152362380Y-137300733D02*
X152362380Y-137491209D01*
X152410000Y-137586447D01*
X152457619Y-137634066D01*
X152600476Y-137729304D01*
X152790952Y-137776923D01*
X153171904Y-137776923D01*
X153267142Y-137729304D01*
X153314761Y-137681685D01*
X153362380Y-137586447D01*
X153362380Y-137395971D01*
X153314761Y-137300733D01*
X153267142Y-137253114D01*
X153171904Y-137205495D01*
X152933809Y-137205495D01*
X152838571Y-137253114D01*
X152790952Y-137300733D01*
X152743333Y-137395971D01*
X152743333Y-137586447D01*
X152790952Y-137681685D01*
X152838571Y-137729304D01*
X152933809Y-137776923D01*
%TO.C,Q1*%
X147232419Y-65307838D02*
X147184800Y-65403076D01*
X147089561Y-65498314D01*
X146946704Y-65641171D01*
X146899085Y-65736409D01*
X146899085Y-65831647D01*
X147137180Y-65784028D02*
X147089561Y-65879266D01*
X146994323Y-65974504D01*
X146803847Y-66022123D01*
X146470514Y-66022123D01*
X146280038Y-65974504D01*
X146184800Y-65879266D01*
X146137180Y-65784028D01*
X146137180Y-65593552D01*
X146184800Y-65498314D01*
X146280038Y-65403076D01*
X146470514Y-65355457D01*
X146803847Y-65355457D01*
X146994323Y-65403076D01*
X147089561Y-65498314D01*
X147137180Y-65593552D01*
X147137180Y-65784028D01*
X147137180Y-64403076D02*
X147137180Y-64974504D01*
X147137180Y-64688790D02*
X146137180Y-64688790D01*
X146280038Y-64784028D01*
X146375276Y-64879266D01*
X146422895Y-64974504D01*
%TO.C,C9*%
X168187142Y-138595666D02*
X168234761Y-138643285D01*
X168282380Y-138786142D01*
X168282380Y-138881380D01*
X168234761Y-139024238D01*
X168139523Y-139119476D01*
X168044285Y-139167095D01*
X167853809Y-139214714D01*
X167710952Y-139214714D01*
X167520476Y-139167095D01*
X167425238Y-139119476D01*
X167330000Y-139024238D01*
X167282380Y-138881380D01*
X167282380Y-138786142D01*
X167330000Y-138643285D01*
X167377619Y-138595666D01*
X168282380Y-138119476D02*
X168282380Y-137929000D01*
X168234761Y-137833761D01*
X168187142Y-137786142D01*
X168044285Y-137690904D01*
X167853809Y-137643285D01*
X167472857Y-137643285D01*
X167377619Y-137690904D01*
X167330000Y-137738523D01*
X167282380Y-137833761D01*
X167282380Y-138024238D01*
X167330000Y-138119476D01*
X167377619Y-138167095D01*
X167472857Y-138214714D01*
X167710952Y-138214714D01*
X167806190Y-138167095D01*
X167853809Y-138119476D01*
X167901428Y-138024238D01*
X167901428Y-137833761D01*
X167853809Y-137738523D01*
X167806190Y-137690904D01*
X167710952Y-137643285D01*
%TO.C,R7*%
X144887133Y-53727180D02*
X144553800Y-53250990D01*
X144315704Y-53727180D02*
X144315704Y-52727180D01*
X144696657Y-52727180D01*
X144791895Y-52774800D01*
X144839514Y-52822419D01*
X144887133Y-52917657D01*
X144887133Y-53060514D01*
X144839514Y-53155752D01*
X144791895Y-53203371D01*
X144696657Y-53250990D01*
X144315704Y-53250990D01*
X145220466Y-52727180D02*
X145887133Y-52727180D01*
X145458561Y-53727180D01*
%TO.C,R14*%
X165607142Y-52452380D02*
X165273809Y-51976190D01*
X165035714Y-52452380D02*
X165035714Y-51452380D01*
X165416666Y-51452380D01*
X165511904Y-51500000D01*
X165559523Y-51547619D01*
X165607142Y-51642857D01*
X165607142Y-51785714D01*
X165559523Y-51880952D01*
X165511904Y-51928571D01*
X165416666Y-51976190D01*
X165035714Y-51976190D01*
X166559523Y-52452380D02*
X165988095Y-52452380D01*
X166273809Y-52452380D02*
X166273809Y-51452380D01*
X166178571Y-51595238D01*
X166083333Y-51690476D01*
X165988095Y-51738095D01*
X167416666Y-51785714D02*
X167416666Y-52452380D01*
X167178571Y-51404761D02*
X166940476Y-52119047D01*
X167559523Y-52119047D01*
%TO.C,C17*%
X136107142Y-81892857D02*
X136154761Y-81940476D01*
X136202380Y-82083333D01*
X136202380Y-82178571D01*
X136154761Y-82321428D01*
X136059523Y-82416666D01*
X135964285Y-82464285D01*
X135773809Y-82511904D01*
X135630952Y-82511904D01*
X135440476Y-82464285D01*
X135345238Y-82416666D01*
X135250000Y-82321428D01*
X135202380Y-82178571D01*
X135202380Y-82083333D01*
X135250000Y-81940476D01*
X135297619Y-81892857D01*
X136202380Y-80940476D02*
X136202380Y-81511904D01*
X136202380Y-81226190D02*
X135202380Y-81226190D01*
X135345238Y-81321428D01*
X135440476Y-81416666D01*
X135488095Y-81511904D01*
X135202380Y-80607142D02*
X135202380Y-79940476D01*
X136202380Y-80369047D01*
%TO.C,C16*%
X136187142Y-74927857D02*
X136234761Y-74975476D01*
X136282380Y-75118333D01*
X136282380Y-75213571D01*
X136234761Y-75356428D01*
X136139523Y-75451666D01*
X136044285Y-75499285D01*
X135853809Y-75546904D01*
X135710952Y-75546904D01*
X135520476Y-75499285D01*
X135425238Y-75451666D01*
X135330000Y-75356428D01*
X135282380Y-75213571D01*
X135282380Y-75118333D01*
X135330000Y-74975476D01*
X135377619Y-74927857D01*
X136282380Y-73975476D02*
X136282380Y-74546904D01*
X136282380Y-74261190D02*
X135282380Y-74261190D01*
X135425238Y-74356428D01*
X135520476Y-74451666D01*
X135568095Y-74546904D01*
X135282380Y-73118333D02*
X135282380Y-73308809D01*
X135330000Y-73404047D01*
X135377619Y-73451666D01*
X135520476Y-73546904D01*
X135710952Y-73594523D01*
X136091904Y-73594523D01*
X136187142Y-73546904D01*
X136234761Y-73499285D01*
X136282380Y-73404047D01*
X136282380Y-73213571D01*
X136234761Y-73118333D01*
X136187142Y-73070714D01*
X136091904Y-73023095D01*
X135853809Y-73023095D01*
X135758571Y-73070714D01*
X135710952Y-73118333D01*
X135663333Y-73213571D01*
X135663333Y-73404047D01*
X135710952Y-73499285D01*
X135758571Y-73546904D01*
X135853809Y-73594523D01*
%TO.C,C15*%
X136093142Y-78457857D02*
X136140761Y-78505476D01*
X136188380Y-78648333D01*
X136188380Y-78743571D01*
X136140761Y-78886428D01*
X136045523Y-78981666D01*
X135950285Y-79029285D01*
X135759809Y-79076904D01*
X135616952Y-79076904D01*
X135426476Y-79029285D01*
X135331238Y-78981666D01*
X135236000Y-78886428D01*
X135188380Y-78743571D01*
X135188380Y-78648333D01*
X135236000Y-78505476D01*
X135283619Y-78457857D01*
X136188380Y-77505476D02*
X136188380Y-78076904D01*
X136188380Y-77791190D02*
X135188380Y-77791190D01*
X135331238Y-77886428D01*
X135426476Y-77981666D01*
X135474095Y-78076904D01*
X135188380Y-76600714D02*
X135188380Y-77076904D01*
X135664571Y-77124523D01*
X135616952Y-77076904D01*
X135569333Y-76981666D01*
X135569333Y-76743571D01*
X135616952Y-76648333D01*
X135664571Y-76600714D01*
X135759809Y-76553095D01*
X135997904Y-76553095D01*
X136093142Y-76600714D01*
X136140761Y-76648333D01*
X136188380Y-76743571D01*
X136188380Y-76981666D01*
X136140761Y-77076904D01*
X136093142Y-77124523D01*
%TO.C,C14*%
X138890142Y-70405142D02*
X138842523Y-70452761D01*
X138699666Y-70500380D01*
X138604428Y-70500380D01*
X138461571Y-70452761D01*
X138366333Y-70357523D01*
X138318714Y-70262285D01*
X138271095Y-70071809D01*
X138271095Y-69928952D01*
X138318714Y-69738476D01*
X138366333Y-69643238D01*
X138461571Y-69548000D01*
X138604428Y-69500380D01*
X138699666Y-69500380D01*
X138842523Y-69548000D01*
X138890142Y-69595619D01*
X139842523Y-70500380D02*
X139271095Y-70500380D01*
X139556809Y-70500380D02*
X139556809Y-69500380D01*
X139461571Y-69643238D01*
X139366333Y-69738476D01*
X139271095Y-69786095D01*
X140699666Y-69833714D02*
X140699666Y-70500380D01*
X140461571Y-69452761D02*
X140223476Y-70167047D01*
X140842523Y-70167047D01*
%TO.C,C13*%
X152737142Y-74927857D02*
X152784761Y-74975476D01*
X152832380Y-75118333D01*
X152832380Y-75213571D01*
X152784761Y-75356428D01*
X152689523Y-75451666D01*
X152594285Y-75499285D01*
X152403809Y-75546904D01*
X152260952Y-75546904D01*
X152070476Y-75499285D01*
X151975238Y-75451666D01*
X151880000Y-75356428D01*
X151832380Y-75213571D01*
X151832380Y-75118333D01*
X151880000Y-74975476D01*
X151927619Y-74927857D01*
X152832380Y-73975476D02*
X152832380Y-74546904D01*
X152832380Y-74261190D02*
X151832380Y-74261190D01*
X151975238Y-74356428D01*
X152070476Y-74451666D01*
X152118095Y-74546904D01*
X151832380Y-73642142D02*
X151832380Y-73023095D01*
X152213333Y-73356428D01*
X152213333Y-73213571D01*
X152260952Y-73118333D01*
X152308571Y-73070714D01*
X152403809Y-73023095D01*
X152641904Y-73023095D01*
X152737142Y-73070714D01*
X152784761Y-73118333D01*
X152832380Y-73213571D01*
X152832380Y-73499285D01*
X152784761Y-73594523D01*
X152737142Y-73642142D01*
%TO.C,C12*%
X173808142Y-90189857D02*
X173855761Y-90237476D01*
X173903380Y-90380333D01*
X173903380Y-90475571D01*
X173855761Y-90618428D01*
X173760523Y-90713666D01*
X173665285Y-90761285D01*
X173474809Y-90808904D01*
X173331952Y-90808904D01*
X173141476Y-90761285D01*
X173046238Y-90713666D01*
X172951000Y-90618428D01*
X172903380Y-90475571D01*
X172903380Y-90380333D01*
X172951000Y-90237476D01*
X172998619Y-90189857D01*
X173903380Y-89237476D02*
X173903380Y-89808904D01*
X173903380Y-89523190D02*
X172903380Y-89523190D01*
X173046238Y-89618428D01*
X173141476Y-89713666D01*
X173189095Y-89808904D01*
X172998619Y-88856523D02*
X172951000Y-88808904D01*
X172903380Y-88713666D01*
X172903380Y-88475571D01*
X172951000Y-88380333D01*
X172998619Y-88332714D01*
X173093857Y-88285095D01*
X173189095Y-88285095D01*
X173331952Y-88332714D01*
X173903380Y-88904142D01*
X173903380Y-88285095D01*
%TO.C,U3*%
X152088095Y-54202380D02*
X152088095Y-55011904D01*
X152135714Y-55107142D01*
X152183333Y-55154761D01*
X152278571Y-55202380D01*
X152469047Y-55202380D01*
X152564285Y-55154761D01*
X152611904Y-55107142D01*
X152659523Y-55011904D01*
X152659523Y-54202380D01*
X153040476Y-54202380D02*
X153659523Y-54202380D01*
X153326190Y-54583333D01*
X153469047Y-54583333D01*
X153564285Y-54630952D01*
X153611904Y-54678571D01*
X153659523Y-54773809D01*
X153659523Y-55011904D01*
X153611904Y-55107142D01*
X153564285Y-55154761D01*
X153469047Y-55202380D01*
X153183333Y-55202380D01*
X153088095Y-55154761D01*
X153040476Y-55107142D01*
%TO.C,R12*%
X152305780Y-96451457D02*
X151829590Y-96784790D01*
X152305780Y-97022885D02*
X151305780Y-97022885D01*
X151305780Y-96641933D01*
X151353400Y-96546695D01*
X151401019Y-96499076D01*
X151496257Y-96451457D01*
X151639114Y-96451457D01*
X151734352Y-96499076D01*
X151781971Y-96546695D01*
X151829590Y-96641933D01*
X151829590Y-97022885D01*
X152305780Y-95499076D02*
X152305780Y-96070504D01*
X152305780Y-95784790D02*
X151305780Y-95784790D01*
X151448638Y-95880028D01*
X151543876Y-95975266D01*
X151591495Y-96070504D01*
X151401019Y-95118123D02*
X151353400Y-95070504D01*
X151305780Y-94975266D01*
X151305780Y-94737171D01*
X151353400Y-94641933D01*
X151401019Y-94594314D01*
X151496257Y-94546695D01*
X151591495Y-94546695D01*
X151734352Y-94594314D01*
X152305780Y-95165742D01*
X152305780Y-94546695D01*
%TO.C,R9*%
X161196380Y-65922666D02*
X160720190Y-66256000D01*
X161196380Y-66494095D02*
X160196380Y-66494095D01*
X160196380Y-66113142D01*
X160244000Y-66017904D01*
X160291619Y-65970285D01*
X160386857Y-65922666D01*
X160529714Y-65922666D01*
X160624952Y-65970285D01*
X160672571Y-66017904D01*
X160720190Y-66113142D01*
X160720190Y-66494095D01*
X161196380Y-65446476D02*
X161196380Y-65256000D01*
X161148761Y-65160761D01*
X161101142Y-65113142D01*
X160958285Y-65017904D01*
X160767809Y-64970285D01*
X160386857Y-64970285D01*
X160291619Y-65017904D01*
X160244000Y-65065523D01*
X160196380Y-65160761D01*
X160196380Y-65351238D01*
X160244000Y-65446476D01*
X160291619Y-65494095D01*
X160386857Y-65541714D01*
X160624952Y-65541714D01*
X160720190Y-65494095D01*
X160767809Y-65446476D01*
X160815428Y-65351238D01*
X160815428Y-65160761D01*
X160767809Y-65065523D01*
X160720190Y-65017904D01*
X160624952Y-64970285D01*
%TO.C,R3*%
X168569380Y-89827466D02*
X168093190Y-90160800D01*
X168569380Y-90398895D02*
X167569380Y-90398895D01*
X167569380Y-90017942D01*
X167617000Y-89922704D01*
X167664619Y-89875085D01*
X167759857Y-89827466D01*
X167902714Y-89827466D01*
X167997952Y-89875085D01*
X168045571Y-89922704D01*
X168093190Y-90017942D01*
X168093190Y-90398895D01*
X167569380Y-89494133D02*
X167569380Y-88875085D01*
X167950333Y-89208419D01*
X167950333Y-89065561D01*
X167997952Y-88970323D01*
X168045571Y-88922704D01*
X168140809Y-88875085D01*
X168378904Y-88875085D01*
X168474142Y-88922704D01*
X168521761Y-88970323D01*
X168569380Y-89065561D01*
X168569380Y-89351276D01*
X168521761Y-89446514D01*
X168474142Y-89494133D01*
%TO.C,J4*%
D17*
X159796800Y-60222171D02*
X159796800Y-60657600D01*
X159767771Y-60744685D01*
X159709714Y-60802742D01*
X159622628Y-60831771D01*
X159564571Y-60831771D01*
X160348342Y-60425371D02*
X160348342Y-60831771D01*
X160203200Y-60193142D02*
X160058057Y-60628571D01*
X160435428Y-60628571D01*
X153729828Y-53643934D02*
X153700800Y-53672962D01*
X153613714Y-53701991D01*
X153555657Y-53701991D01*
X153468571Y-53672962D01*
X153410514Y-53614905D01*
X153381485Y-53556848D01*
X153352457Y-53440734D01*
X153352457Y-53353648D01*
X153381485Y-53237534D01*
X153410514Y-53179477D01*
X153468571Y-53121420D01*
X153555657Y-53092391D01*
X153613714Y-53092391D01*
X153700800Y-53121420D01*
X153729828Y-53150448D01*
X154107200Y-53092391D02*
X154223314Y-53092391D01*
X154281371Y-53121420D01*
X154339428Y-53179477D01*
X154368457Y-53295591D01*
X154368457Y-53498791D01*
X154339428Y-53614905D01*
X154281371Y-53672962D01*
X154223314Y-53701991D01*
X154107200Y-53701991D01*
X154049142Y-53672962D01*
X153991085Y-53614905D01*
X153962057Y-53498791D01*
X153962057Y-53295591D01*
X153991085Y-53179477D01*
X154049142Y-53121420D01*
X154107200Y-53092391D01*
X154629714Y-53701991D02*
X154629714Y-53092391D01*
X154978057Y-53701991D01*
X154978057Y-53092391D01*
X155268342Y-53701991D02*
X155268342Y-53092391D01*
X155616685Y-53701991D01*
X155616685Y-53092391D01*
X155761828Y-53760048D02*
X156226285Y-53760048D01*
X156487542Y-53092391D02*
X156545600Y-53092391D01*
X156603657Y-53121420D01*
X156632685Y-53150448D01*
X156661714Y-53208505D01*
X156690742Y-53324620D01*
X156690742Y-53469762D01*
X156661714Y-53585877D01*
X156632685Y-53643934D01*
X156603657Y-53672962D01*
X156545600Y-53701991D01*
X156487542Y-53701991D01*
X156429485Y-53672962D01*
X156400457Y-53643934D01*
X156371428Y-53585877D01*
X156342400Y-53469762D01*
X156342400Y-53324620D01*
X156371428Y-53208505D01*
X156400457Y-53150448D01*
X156429485Y-53121420D01*
X156487542Y-53092391D01*
X156922971Y-53150448D02*
X156952000Y-53121420D01*
X157010057Y-53092391D01*
X157155200Y-53092391D01*
X157213257Y-53121420D01*
X157242285Y-53150448D01*
X157271314Y-53208505D01*
X157271314Y-53266562D01*
X157242285Y-53353648D01*
X156893942Y-53701991D01*
X157271314Y-53701991D01*
X157706742Y-53092391D02*
X157706742Y-53527820D01*
X157677714Y-53614905D01*
X157619657Y-53672962D01*
X157532571Y-53701991D01*
X157474514Y-53701991D01*
X157968000Y-53672962D02*
X158055085Y-53701991D01*
X158200228Y-53701991D01*
X158258285Y-53672962D01*
X158287314Y-53643934D01*
X158316342Y-53585877D01*
X158316342Y-53527820D01*
X158287314Y-53469762D01*
X158258285Y-53440734D01*
X158200228Y-53411705D01*
X158084114Y-53382677D01*
X158026057Y-53353648D01*
X157997028Y-53324620D01*
X157968000Y-53266562D01*
X157968000Y-53208505D01*
X157997028Y-53150448D01*
X158026057Y-53121420D01*
X158084114Y-53092391D01*
X158229257Y-53092391D01*
X158316342Y-53121420D01*
X158490514Y-53092391D02*
X158838857Y-53092391D01*
X158664685Y-53701991D02*
X158664685Y-53092391D01*
X159042057Y-53469762D02*
X159506514Y-53469762D01*
X159796800Y-53701991D02*
X159796800Y-53092391D01*
X160029028Y-53092391D01*
X160087085Y-53121420D01*
X160116114Y-53150448D01*
X160145142Y-53208505D01*
X160145142Y-53295591D01*
X160116114Y-53353648D01*
X160087085Y-53382677D01*
X160029028Y-53411705D01*
X159796800Y-53411705D01*
X160319314Y-53092391D02*
X160667657Y-53092391D01*
X160493485Y-53701991D02*
X160493485Y-53092391D01*
X160870857Y-53701991D02*
X160870857Y-53092391D01*
X160870857Y-53382677D02*
X161219200Y-53382677D01*
X161219200Y-53701991D02*
X161219200Y-53092391D01*
X161509485Y-53469762D02*
X161973942Y-53469762D01*
X162235200Y-53150448D02*
X162264228Y-53121420D01*
X162322285Y-53092391D01*
X162467428Y-53092391D01*
X162525485Y-53121420D01*
X162554514Y-53150448D01*
X162583542Y-53208505D01*
X162583542Y-53266562D01*
X162554514Y-53353648D01*
X162206171Y-53701991D01*
X162583542Y-53701991D01*
%TO.C,J5*%
X131126940Y-86853511D02*
X131126940Y-87288940D01*
X131097911Y-87376025D01*
X131039854Y-87434082D01*
X130952768Y-87463111D01*
X130894711Y-87463111D01*
X131707511Y-86853511D02*
X131417225Y-86853511D01*
X131388197Y-87143797D01*
X131417225Y-87114768D01*
X131475282Y-87085740D01*
X131620425Y-87085740D01*
X131678482Y-87114768D01*
X131707511Y-87143797D01*
X131736540Y-87201854D01*
X131736540Y-87346997D01*
X131707511Y-87405054D01*
X131678482Y-87434082D01*
X131620425Y-87463111D01*
X131475282Y-87463111D01*
X131417225Y-87434082D01*
X131388197Y-87405054D01*
X125756654Y-55332111D02*
X125756654Y-54722511D01*
X125901797Y-54722511D01*
X125988882Y-54751540D01*
X126046940Y-54809597D01*
X126075968Y-54867654D01*
X126104997Y-54983768D01*
X126104997Y-55070854D01*
X126075968Y-55186968D01*
X126046940Y-55245025D01*
X125988882Y-55303082D01*
X125901797Y-55332111D01*
X125756654Y-55332111D01*
X126569454Y-55012797D02*
X126656540Y-55041825D01*
X126685568Y-55070854D01*
X126714597Y-55128911D01*
X126714597Y-55215997D01*
X126685568Y-55274054D01*
X126656540Y-55303082D01*
X126598482Y-55332111D01*
X126366254Y-55332111D01*
X126366254Y-54722511D01*
X126569454Y-54722511D01*
X126627511Y-54751540D01*
X126656540Y-54780568D01*
X126685568Y-54838625D01*
X126685568Y-54896682D01*
X126656540Y-54954740D01*
X126627511Y-54983768D01*
X126569454Y-55012797D01*
X126366254Y-55012797D01*
X127004882Y-55332111D02*
X127120997Y-55332111D01*
X127179054Y-55303082D01*
X127208082Y-55274054D01*
X127266140Y-55186968D01*
X127295168Y-55070854D01*
X127295168Y-54838625D01*
X127266140Y-54780568D01*
X127237111Y-54751540D01*
X127179054Y-54722511D01*
X127062940Y-54722511D01*
X127004882Y-54751540D01*
X126975854Y-54780568D01*
X126946825Y-54838625D01*
X126946825Y-54983768D01*
X126975854Y-55041825D01*
X127004882Y-55070854D01*
X127062940Y-55099882D01*
X127179054Y-55099882D01*
X127237111Y-55070854D01*
X127266140Y-55041825D01*
X127295168Y-54983768D01*
X127411282Y-55390168D02*
X127875740Y-55390168D01*
X128020882Y-55332111D02*
X128020882Y-54722511D01*
X128224082Y-55157940D01*
X128427282Y-54722511D01*
X128427282Y-55332111D01*
X128978825Y-55332111D02*
X128978825Y-55012797D01*
X128949797Y-54954740D01*
X128891740Y-54925711D01*
X128775625Y-54925711D01*
X128717568Y-54954740D01*
X128978825Y-55303082D02*
X128920768Y-55332111D01*
X128775625Y-55332111D01*
X128717568Y-55303082D01*
X128688540Y-55245025D01*
X128688540Y-55186968D01*
X128717568Y-55128911D01*
X128775625Y-55099882D01*
X128920768Y-55099882D01*
X128978825Y-55070854D01*
X129356197Y-55332111D02*
X129298140Y-55303082D01*
X129269111Y-55245025D01*
X129269111Y-54722511D01*
X129820654Y-55303082D02*
X129762597Y-55332111D01*
X129646482Y-55332111D01*
X129588425Y-55303082D01*
X129559397Y-55245025D01*
X129559397Y-55012797D01*
X129588425Y-54954740D01*
X129646482Y-54925711D01*
X129762597Y-54925711D01*
X129820654Y-54954740D01*
X129849682Y-55012797D01*
X129849682Y-55070854D01*
X129559397Y-55128911D01*
X129965797Y-55390168D02*
X130430254Y-55390168D01*
X130575397Y-55332111D02*
X130575397Y-54722511D01*
X130778597Y-55157940D01*
X130981797Y-54722511D01*
X130981797Y-55332111D01*
X131359168Y-55332111D02*
X131301111Y-55303082D01*
X131272082Y-55274054D01*
X131243054Y-55215997D01*
X131243054Y-55041825D01*
X131272082Y-54983768D01*
X131301111Y-54954740D01*
X131359168Y-54925711D01*
X131446254Y-54925711D01*
X131504311Y-54954740D01*
X131533340Y-54983768D01*
X131562368Y-55041825D01*
X131562368Y-55215997D01*
X131533340Y-55274054D01*
X131504311Y-55303082D01*
X131446254Y-55332111D01*
X131359168Y-55332111D01*
X132084882Y-54925711D02*
X132084882Y-55332111D01*
X131823625Y-54925711D02*
X131823625Y-55245025D01*
X131852654Y-55303082D01*
X131910711Y-55332111D01*
X131997797Y-55332111D01*
X132055854Y-55303082D01*
X132084882Y-55274054D01*
X132375168Y-54925711D02*
X132375168Y-55332111D01*
X132375168Y-54983768D02*
X132404197Y-54954740D01*
X132462254Y-54925711D01*
X132549340Y-54925711D01*
X132607397Y-54954740D01*
X132636425Y-55012797D01*
X132636425Y-55332111D01*
X132839625Y-54925711D02*
X133071854Y-54925711D01*
X132926711Y-54722511D02*
X132926711Y-55245025D01*
X132955740Y-55303082D01*
X133013797Y-55332111D01*
X133071854Y-55332111D01*
X133275054Y-55332111D02*
X133275054Y-54925711D01*
X133275054Y-54722511D02*
X133246025Y-54751540D01*
X133275054Y-54780568D01*
X133304082Y-54751540D01*
X133275054Y-54722511D01*
X133275054Y-54780568D01*
X133565340Y-54925711D02*
X133565340Y-55332111D01*
X133565340Y-54983768D02*
X133594368Y-54954740D01*
X133652425Y-54925711D01*
X133739511Y-54925711D01*
X133797568Y-54954740D01*
X133826597Y-55012797D01*
X133826597Y-55332111D01*
X134378140Y-54925711D02*
X134378140Y-55419197D01*
X134349111Y-55477254D01*
X134320082Y-55506282D01*
X134262025Y-55535311D01*
X134174940Y-55535311D01*
X134116882Y-55506282D01*
X134378140Y-55303082D02*
X134320082Y-55332111D01*
X134203968Y-55332111D01*
X134145911Y-55303082D01*
X134116882Y-55274054D01*
X134087854Y-55215997D01*
X134087854Y-55041825D01*
X134116882Y-54983768D01*
X134145911Y-54954740D01*
X134203968Y-54925711D01*
X134320082Y-54925711D01*
X134378140Y-54954740D01*
X134668425Y-55332111D02*
X134668425Y-54722511D01*
X134668425Y-55012797D02*
X135016768Y-55012797D01*
X135016768Y-55332111D02*
X135016768Y-54722511D01*
X135394140Y-55332111D02*
X135336082Y-55303082D01*
X135307054Y-55274054D01*
X135278025Y-55215997D01*
X135278025Y-55041825D01*
X135307054Y-54983768D01*
X135336082Y-54954740D01*
X135394140Y-54925711D01*
X135481225Y-54925711D01*
X135539282Y-54954740D01*
X135568311Y-54983768D01*
X135597340Y-55041825D01*
X135597340Y-55215997D01*
X135568311Y-55274054D01*
X135539282Y-55303082D01*
X135481225Y-55332111D01*
X135394140Y-55332111D01*
X135945682Y-55332111D02*
X135887625Y-55303082D01*
X135858597Y-55245025D01*
X135858597Y-54722511D01*
X136410140Y-55303082D02*
X136352082Y-55332111D01*
X136235968Y-55332111D01*
X136177911Y-55303082D01*
X136148882Y-55245025D01*
X136148882Y-55012797D01*
X136177911Y-54954740D01*
X136235968Y-54925711D01*
X136352082Y-54925711D01*
X136410140Y-54954740D01*
X136439168Y-55012797D01*
X136439168Y-55070854D01*
X136148882Y-55128911D01*
X136671397Y-55303082D02*
X136729454Y-55332111D01*
X136845568Y-55332111D01*
X136903625Y-55303082D01*
X136932654Y-55245025D01*
X136932654Y-55215997D01*
X136903625Y-55157940D01*
X136845568Y-55128911D01*
X136758482Y-55128911D01*
X136700425Y-55099882D01*
X136671397Y-55041825D01*
X136671397Y-55012797D01*
X136700425Y-54954740D01*
X136758482Y-54925711D01*
X136845568Y-54925711D01*
X136903625Y-54954740D01*
%TO.C,J2*%
D11*
X138441666Y-52752380D02*
X138441666Y-53466666D01*
X138394047Y-53609523D01*
X138298809Y-53704761D01*
X138155952Y-53752380D01*
X138060714Y-53752380D01*
X138870238Y-52847619D02*
X138917857Y-52800000D01*
X139013095Y-52752380D01*
X139251190Y-52752380D01*
X139346428Y-52800000D01*
X139394047Y-52847619D01*
X139441666Y-52942857D01*
X139441666Y-53038095D01*
X139394047Y-53180952D01*
X138822619Y-53752380D01*
X139441666Y-53752380D01*
%TO.C,S1*%
X171688095Y-51404761D02*
X171830952Y-51452380D01*
X172069047Y-51452380D01*
X172164285Y-51404761D01*
X172211904Y-51357142D01*
X172259523Y-51261904D01*
X172259523Y-51166666D01*
X172211904Y-51071428D01*
X172164285Y-51023809D01*
X172069047Y-50976190D01*
X171878571Y-50928571D01*
X171783333Y-50880952D01*
X171735714Y-50833333D01*
X171688095Y-50738095D01*
X171688095Y-50642857D01*
X171735714Y-50547619D01*
X171783333Y-50500000D01*
X171878571Y-50452380D01*
X172116666Y-50452380D01*
X172259523Y-50500000D01*
X173211904Y-51452380D02*
X172640476Y-51452380D01*
X172926190Y-51452380D02*
X172926190Y-50452380D01*
X172830952Y-50595238D01*
X172735714Y-50690476D01*
X172640476Y-50738095D01*
%TO.C,Q5*%
X164504761Y-78397619D02*
X164409523Y-78350000D01*
X164314285Y-78254761D01*
X164171428Y-78111904D01*
X164076190Y-78064285D01*
X163980952Y-78064285D01*
X164028571Y-78302380D02*
X163933333Y-78254761D01*
X163838095Y-78159523D01*
X163790476Y-77969047D01*
X163790476Y-77635714D01*
X163838095Y-77445238D01*
X163933333Y-77350000D01*
X164028571Y-77302380D01*
X164219047Y-77302380D01*
X164314285Y-77350000D01*
X164409523Y-77445238D01*
X164457142Y-77635714D01*
X164457142Y-77969047D01*
X164409523Y-78159523D01*
X164314285Y-78254761D01*
X164219047Y-78302380D01*
X164028571Y-78302380D01*
X165361904Y-77302380D02*
X164885714Y-77302380D01*
X164838095Y-77778571D01*
X164885714Y-77730952D01*
X164980952Y-77683333D01*
X165219047Y-77683333D01*
X165314285Y-77730952D01*
X165361904Y-77778571D01*
X165409523Y-77873809D01*
X165409523Y-78111904D01*
X165361904Y-78207142D01*
X165314285Y-78254761D01*
X165219047Y-78302380D01*
X164980952Y-78302380D01*
X164885714Y-78254761D01*
X164838095Y-78207142D01*
%TO.C,C1*%
X145750733Y-55436342D02*
X145703114Y-55483961D01*
X145560257Y-55531580D01*
X145465019Y-55531580D01*
X145322161Y-55483961D01*
X145226923Y-55388723D01*
X145179304Y-55293485D01*
X145131685Y-55103009D01*
X145131685Y-54960152D01*
X145179304Y-54769676D01*
X145226923Y-54674438D01*
X145322161Y-54579200D01*
X145465019Y-54531580D01*
X145560257Y-54531580D01*
X145703114Y-54579200D01*
X145750733Y-54626819D01*
X146703114Y-55531580D02*
X146131685Y-55531580D01*
X146417400Y-55531580D02*
X146417400Y-54531580D01*
X146322161Y-54674438D01*
X146226923Y-54769676D01*
X146131685Y-54817295D01*
%TO.C,C5*%
X173033333Y-71507142D02*
X172985714Y-71554761D01*
X172842857Y-71602380D01*
X172747619Y-71602380D01*
X172604761Y-71554761D01*
X172509523Y-71459523D01*
X172461904Y-71364285D01*
X172414285Y-71173809D01*
X172414285Y-71030952D01*
X172461904Y-70840476D01*
X172509523Y-70745238D01*
X172604761Y-70650000D01*
X172747619Y-70602380D01*
X172842857Y-70602380D01*
X172985714Y-70650000D01*
X173033333Y-70697619D01*
X173938095Y-70602380D02*
X173461904Y-70602380D01*
X173414285Y-71078571D01*
X173461904Y-71030952D01*
X173557142Y-70983333D01*
X173795238Y-70983333D01*
X173890476Y-71030952D01*
X173938095Y-71078571D01*
X173985714Y-71173809D01*
X173985714Y-71411904D01*
X173938095Y-71507142D01*
X173890476Y-71554761D01*
X173795238Y-71602380D01*
X173557142Y-71602380D01*
X173461904Y-71554761D01*
X173414285Y-71507142D01*
%TO.C,D3*%
X159161904Y-78802380D02*
X159161904Y-77802380D01*
X159400000Y-77802380D01*
X159542857Y-77850000D01*
X159638095Y-77945238D01*
X159685714Y-78040476D01*
X159733333Y-78230952D01*
X159733333Y-78373809D01*
X159685714Y-78564285D01*
X159638095Y-78659523D01*
X159542857Y-78754761D01*
X159400000Y-78802380D01*
X159161904Y-78802380D01*
X160066666Y-77802380D02*
X160685714Y-77802380D01*
X160352380Y-78183333D01*
X160495238Y-78183333D01*
X160590476Y-78230952D01*
X160638095Y-78278571D01*
X160685714Y-78373809D01*
X160685714Y-78611904D01*
X160638095Y-78707142D01*
X160590476Y-78754761D01*
X160495238Y-78802380D01*
X160209523Y-78802380D01*
X160114285Y-78754761D01*
X160066666Y-78707142D01*
%TO.C,Q2*%
X160904761Y-69797619D02*
X160809523Y-69750000D01*
X160714285Y-69654761D01*
X160571428Y-69511904D01*
X160476190Y-69464285D01*
X160380952Y-69464285D01*
X160428571Y-69702380D02*
X160333333Y-69654761D01*
X160238095Y-69559523D01*
X160190476Y-69369047D01*
X160190476Y-69035714D01*
X160238095Y-68845238D01*
X160333333Y-68750000D01*
X160428571Y-68702380D01*
X160619047Y-68702380D01*
X160714285Y-68750000D01*
X160809523Y-68845238D01*
X160857142Y-69035714D01*
X160857142Y-69369047D01*
X160809523Y-69559523D01*
X160714285Y-69654761D01*
X160619047Y-69702380D01*
X160428571Y-69702380D01*
X161238095Y-68797619D02*
X161285714Y-68750000D01*
X161380952Y-68702380D01*
X161619047Y-68702380D01*
X161714285Y-68750000D01*
X161761904Y-68797619D01*
X161809523Y-68892857D01*
X161809523Y-68988095D01*
X161761904Y-69130952D01*
X161190476Y-69702380D01*
X161809523Y-69702380D01*
%TO.C,R1*%
X148441933Y-69820380D02*
X148108600Y-69344190D01*
X147870504Y-69820380D02*
X147870504Y-68820380D01*
X148251457Y-68820380D01*
X148346695Y-68868000D01*
X148394314Y-68915619D01*
X148441933Y-69010857D01*
X148441933Y-69153714D01*
X148394314Y-69248952D01*
X148346695Y-69296571D01*
X148251457Y-69344190D01*
X147870504Y-69344190D01*
X149394314Y-69820380D02*
X148822885Y-69820380D01*
X149108600Y-69820380D02*
X149108600Y-68820380D01*
X149013361Y-68963238D01*
X148918123Y-69058476D01*
X148822885Y-69106095D01*
%TO.C,R2*%
X148543533Y-61692380D02*
X148210200Y-61216190D01*
X147972104Y-61692380D02*
X147972104Y-60692380D01*
X148353057Y-60692380D01*
X148448295Y-60740000D01*
X148495914Y-60787619D01*
X148543533Y-60882857D01*
X148543533Y-61025714D01*
X148495914Y-61120952D01*
X148448295Y-61168571D01*
X148353057Y-61216190D01*
X147972104Y-61216190D01*
X148924485Y-60787619D02*
X148972104Y-60740000D01*
X149067342Y-60692380D01*
X149305438Y-60692380D01*
X149400676Y-60740000D01*
X149448295Y-60787619D01*
X149495914Y-60882857D01*
X149495914Y-60978095D01*
X149448295Y-61120952D01*
X148876866Y-61692380D01*
X149495914Y-61692380D01*
%TO.C,R8*%
X146919133Y-49384780D02*
X146585800Y-48908590D01*
X146347704Y-49384780D02*
X146347704Y-48384780D01*
X146728657Y-48384780D01*
X146823895Y-48432400D01*
X146871514Y-48480019D01*
X146919133Y-48575257D01*
X146919133Y-48718114D01*
X146871514Y-48813352D01*
X146823895Y-48860971D01*
X146728657Y-48908590D01*
X146347704Y-48908590D01*
X147490561Y-48813352D02*
X147395323Y-48765733D01*
X147347704Y-48718114D01*
X147300085Y-48622876D01*
X147300085Y-48575257D01*
X147347704Y-48480019D01*
X147395323Y-48432400D01*
X147490561Y-48384780D01*
X147681038Y-48384780D01*
X147776276Y-48432400D01*
X147823895Y-48480019D01*
X147871514Y-48575257D01*
X147871514Y-48622876D01*
X147823895Y-48718114D01*
X147776276Y-48765733D01*
X147681038Y-48813352D01*
X147490561Y-48813352D01*
X147395323Y-48860971D01*
X147347704Y-48908590D01*
X147300085Y-49003828D01*
X147300085Y-49194304D01*
X147347704Y-49289542D01*
X147395323Y-49337161D01*
X147490561Y-49384780D01*
X147681038Y-49384780D01*
X147776276Y-49337161D01*
X147823895Y-49289542D01*
X147871514Y-49194304D01*
X147871514Y-49003828D01*
X147823895Y-48908590D01*
X147776276Y-48860971D01*
X147681038Y-48813352D01*
%TO.C,R10*%
X157057142Y-70052380D02*
X156723809Y-69576190D01*
X156485714Y-70052380D02*
X156485714Y-69052380D01*
X156866666Y-69052380D01*
X156961904Y-69100000D01*
X157009523Y-69147619D01*
X157057142Y-69242857D01*
X157057142Y-69385714D01*
X157009523Y-69480952D01*
X156961904Y-69528571D01*
X156866666Y-69576190D01*
X156485714Y-69576190D01*
X158009523Y-70052380D02*
X157438095Y-70052380D01*
X157723809Y-70052380D02*
X157723809Y-69052380D01*
X157628571Y-69195238D01*
X157533333Y-69290476D01*
X157438095Y-69338095D01*
X158628571Y-69052380D02*
X158723809Y-69052380D01*
X158819047Y-69100000D01*
X158866666Y-69147619D01*
X158914285Y-69242857D01*
X158961904Y-69433333D01*
X158961904Y-69671428D01*
X158914285Y-69861904D01*
X158866666Y-69957142D01*
X158819047Y-70004761D01*
X158723809Y-70052380D01*
X158628571Y-70052380D01*
X158533333Y-70004761D01*
X158485714Y-69957142D01*
X158438095Y-69861904D01*
X158390476Y-69671428D01*
X158390476Y-69433333D01*
X158438095Y-69242857D01*
X158485714Y-69147619D01*
X158533333Y-69100000D01*
X158628571Y-69052380D01*
%TO.C,R11*%
X168507142Y-78252380D02*
X168173809Y-77776190D01*
X167935714Y-78252380D02*
X167935714Y-77252380D01*
X168316666Y-77252380D01*
X168411904Y-77300000D01*
X168459523Y-77347619D01*
X168507142Y-77442857D01*
X168507142Y-77585714D01*
X168459523Y-77680952D01*
X168411904Y-77728571D01*
X168316666Y-77776190D01*
X167935714Y-77776190D01*
X169459523Y-78252380D02*
X168888095Y-78252380D01*
X169173809Y-78252380D02*
X169173809Y-77252380D01*
X169078571Y-77395238D01*
X168983333Y-77490476D01*
X168888095Y-77538095D01*
X170411904Y-78252380D02*
X169840476Y-78252380D01*
X170126190Y-78252380D02*
X170126190Y-77252380D01*
X170030952Y-77395238D01*
X169935714Y-77490476D01*
X169840476Y-77538095D01*
%TO.C,U1*%
X155757095Y-89930380D02*
X155757095Y-90739904D01*
X155804714Y-90835142D01*
X155852333Y-90882761D01*
X155947571Y-90930380D01*
X156138047Y-90930380D01*
X156233285Y-90882761D01*
X156280904Y-90835142D01*
X156328523Y-90739904D01*
X156328523Y-89930380D01*
X157328523Y-90930380D02*
X156757095Y-90930380D01*
X157042809Y-90930380D02*
X157042809Y-89930380D01*
X156947571Y-90073238D01*
X156852333Y-90168476D01*
X156757095Y-90216095D01*
%TO.C,U2*%
X140488095Y-54552380D02*
X140488095Y-55361904D01*
X140535714Y-55457142D01*
X140583333Y-55504761D01*
X140678571Y-55552380D01*
X140869047Y-55552380D01*
X140964285Y-55504761D01*
X141011904Y-55457142D01*
X141059523Y-55361904D01*
X141059523Y-54552380D01*
X141488095Y-54647619D02*
X141535714Y-54600000D01*
X141630952Y-54552380D01*
X141869047Y-54552380D01*
X141964285Y-54600000D01*
X142011904Y-54647619D01*
X142059523Y-54742857D01*
X142059523Y-54838095D01*
X142011904Y-54980952D01*
X141440476Y-55552380D01*
X142059523Y-55552380D01*
%TO.C,U5*%
X169838095Y-70402380D02*
X169838095Y-71211904D01*
X169885714Y-71307142D01*
X169933333Y-71354761D01*
X170028571Y-71402380D01*
X170219047Y-71402380D01*
X170314285Y-71354761D01*
X170361904Y-71307142D01*
X170409523Y-71211904D01*
X170409523Y-70402380D01*
X171361904Y-70402380D02*
X170885714Y-70402380D01*
X170838095Y-70878571D01*
X170885714Y-70830952D01*
X170980952Y-70783333D01*
X171219047Y-70783333D01*
X171314285Y-70830952D01*
X171361904Y-70878571D01*
X171409523Y-70973809D01*
X171409523Y-71211904D01*
X171361904Y-71307142D01*
X171314285Y-71354761D01*
X171219047Y-71402380D01*
X170980952Y-71402380D01*
X170885714Y-71354761D01*
X170838095Y-71307142D01*
%TD*%
M02*
