%TF.GenerationSoftware,KiCad,Pcbnew,5.1.10-88a1d61d58~88~ubuntu20.04.1*%
%TF.CreationDate,2021-06-25T13:29:56-05:00*%
%TF.ProjectId,MiOrigin,4d694f72-6967-4696-9e2e-6b696361645f,rev?*%
%TF.SameCoordinates,Original*%
%TF.FileFunction,Legend,Bot*%
%TF.FilePolarity,Positive*%
%FSLAX46Y46*%
G04 Gerber Fmt 4.6, Leading zero omitted, Abs format (unit mm)*
G04 Created by KiCad (PCBNEW 5.1.10-88a1d61d58~88~ubuntu20.04.1) date 2021-06-25 13:29:56*
%MOMM*%
%LPD*%
G01*
G04 APERTURE LIST*
%TA.AperFunction,Profile*%
%ADD10C,0.010000*%
%TD*%
%ADD11C,0.120000*%
%ADD12C,0.100000*%
%ADD13C,0.150000*%
G04 APERTURE END LIST*
D10*
X125580000Y-143500000D02*
G75*
G02*
X124580000Y-142500000I0J1000000D01*
G01*
X180920000Y-142500000D02*
G75*
G02*
X179920000Y-143500000I-1000000J0D01*
G01*
X179920000Y-45500000D02*
G75*
G02*
X180920000Y-46500000I0J-1000000D01*
G01*
X124580000Y-46500000D02*
G75*
G02*
X125580000Y-45500000I1000000J0D01*
G01*
X124580000Y-142500000D02*
X124580000Y-46500000D01*
X180920000Y-142500000D02*
X180920000Y-46500000D01*
X179920000Y-143500000D02*
X125580000Y-143500000D01*
X125580000Y-45500000D02*
X179920000Y-45500000D01*
D11*
%TO.C,C1*%
X141560000Y-57290580D02*
X141560000Y-57009420D01*
X140540000Y-57290580D02*
X140540000Y-57009420D01*
D12*
%TO.C,D1*%
X146050000Y-54760000D02*
X146050000Y-54460000D01*
X146050000Y-54460000D02*
X145650000Y-54460000D01*
X146050000Y-57360000D02*
X146050000Y-57660000D01*
X146050000Y-57660000D02*
X145550000Y-57660000D01*
X144450000Y-57360000D02*
X144450000Y-57660000D01*
X144450000Y-57660000D02*
X145050000Y-57660000D01*
X144450000Y-54760000D02*
X144450000Y-54460000D01*
X144450000Y-54460000D02*
X145050000Y-54460000D01*
X146050000Y-54760000D02*
X146520000Y-54760000D01*
D11*
%TO.C,TP4*%
X133250000Y-99900000D02*
G75*
G03*
X133250000Y-99900000I-1200000J0D01*
G01*
%TO.C,R6*%
X142047858Y-122069700D02*
X141573342Y-122069700D01*
X142047858Y-123114700D02*
X141573342Y-123114700D01*
%TO.C,R4*%
X142047858Y-120520300D02*
X141573342Y-120520300D01*
X142047858Y-121565300D02*
X141573342Y-121565300D01*
%TO.C,C6*%
X141950980Y-124063400D02*
X141669820Y-124063400D01*
X141950980Y-125083400D02*
X141669820Y-125083400D01*
%TO.C,R5*%
X141573342Y-128419700D02*
X142047858Y-128419700D01*
X141573342Y-129464700D02*
X142047858Y-129464700D01*
%TD*%
%TO.C,C1*%
D13*
X142837142Y-56983333D02*
X142884761Y-56935714D01*
X142932380Y-56792857D01*
X142932380Y-56697619D01*
X142884761Y-56554761D01*
X142789523Y-56459523D01*
X142694285Y-56411904D01*
X142503809Y-56364285D01*
X142360952Y-56364285D01*
X142170476Y-56411904D01*
X142075238Y-56459523D01*
X141980000Y-56554761D01*
X141932380Y-56697619D01*
X141932380Y-56792857D01*
X141980000Y-56935714D01*
X142027619Y-56983333D01*
X142932380Y-57935714D02*
X142932380Y-57364285D01*
X142932380Y-57650000D02*
X141932380Y-57650000D01*
X142075238Y-57554761D01*
X142170476Y-57459523D01*
X142218095Y-57364285D01*
%TO.C,D1*%
X145688095Y-59352380D02*
X145688095Y-58352380D01*
X145450000Y-58352380D01*
X145307142Y-58400000D01*
X145211904Y-58495238D01*
X145164285Y-58590476D01*
X145116666Y-58780952D01*
X145116666Y-58923809D01*
X145164285Y-59114285D01*
X145211904Y-59209523D01*
X145307142Y-59304761D01*
X145450000Y-59352380D01*
X145688095Y-59352380D01*
X144164285Y-59352380D02*
X144735714Y-59352380D01*
X144450000Y-59352380D02*
X144450000Y-58352380D01*
X144545238Y-58495238D01*
X144640476Y-58590476D01*
X144735714Y-58638095D01*
%TO.C,U4*%
X153511904Y-85570380D02*
X153511904Y-86379904D01*
X153464285Y-86475142D01*
X153416666Y-86522761D01*
X153321428Y-86570380D01*
X153130952Y-86570380D01*
X153035714Y-86522761D01*
X152988095Y-86475142D01*
X152940476Y-86379904D01*
X152940476Y-85570380D01*
X152035714Y-85903714D02*
X152035714Y-86570380D01*
X152273809Y-85522761D02*
X152511904Y-86237047D01*
X151892857Y-86237047D01*
%TO.C,TP4*%
X135961904Y-99500000D02*
X136057142Y-99452380D01*
X136200000Y-99452380D01*
X136342857Y-99500000D01*
X136438095Y-99595238D01*
X136485714Y-99690476D01*
X136533333Y-99880952D01*
X136533333Y-100023809D01*
X136485714Y-100214285D01*
X136438095Y-100309523D01*
X136342857Y-100404761D01*
X136200000Y-100452380D01*
X136104761Y-100452380D01*
X135961904Y-100404761D01*
X135914285Y-100357142D01*
X135914285Y-100023809D01*
X136104761Y-100023809D01*
X135485714Y-100452380D02*
X135485714Y-99452380D01*
X134914285Y-100452380D01*
X134914285Y-99452380D01*
X134438095Y-100452380D02*
X134438095Y-99452380D01*
X134200000Y-99452380D01*
X134057142Y-99500000D01*
X133961904Y-99595238D01*
X133914285Y-99690476D01*
X133866666Y-99880952D01*
X133866666Y-100023809D01*
X133914285Y-100214285D01*
X133961904Y-100309523D01*
X134057142Y-100404761D01*
X134200000Y-100452380D01*
X134438095Y-100452380D01*
%TO.C,R6*%
X139566666Y-123052380D02*
X139900000Y-122576190D01*
X140138095Y-123052380D02*
X140138095Y-122052380D01*
X139757142Y-122052380D01*
X139661904Y-122100000D01*
X139614285Y-122147619D01*
X139566666Y-122242857D01*
X139566666Y-122385714D01*
X139614285Y-122480952D01*
X139661904Y-122528571D01*
X139757142Y-122576190D01*
X140138095Y-122576190D01*
X138709523Y-122052380D02*
X138900000Y-122052380D01*
X138995238Y-122100000D01*
X139042857Y-122147619D01*
X139138095Y-122290476D01*
X139185714Y-122480952D01*
X139185714Y-122861904D01*
X139138095Y-122957142D01*
X139090476Y-123004761D01*
X138995238Y-123052380D01*
X138804761Y-123052380D01*
X138709523Y-123004761D01*
X138661904Y-122957142D01*
X138614285Y-122861904D01*
X138614285Y-122623809D01*
X138661904Y-122528571D01*
X138709523Y-122480952D01*
X138804761Y-122433333D01*
X138995238Y-122433333D01*
X139090476Y-122480952D01*
X139138095Y-122528571D01*
X139185714Y-122623809D01*
%TO.C,R4*%
X139566666Y-121452380D02*
X139900000Y-120976190D01*
X140138095Y-121452380D02*
X140138095Y-120452380D01*
X139757142Y-120452380D01*
X139661904Y-120500000D01*
X139614285Y-120547619D01*
X139566666Y-120642857D01*
X139566666Y-120785714D01*
X139614285Y-120880952D01*
X139661904Y-120928571D01*
X139757142Y-120976190D01*
X140138095Y-120976190D01*
X138709523Y-120785714D02*
X138709523Y-121452380D01*
X138947619Y-120404761D02*
X139185714Y-121119047D01*
X138566666Y-121119047D01*
%TO.C,C6*%
X139466666Y-125057142D02*
X139514285Y-125104761D01*
X139657142Y-125152380D01*
X139752380Y-125152380D01*
X139895238Y-125104761D01*
X139990476Y-125009523D01*
X140038095Y-124914285D01*
X140085714Y-124723809D01*
X140085714Y-124580952D01*
X140038095Y-124390476D01*
X139990476Y-124295238D01*
X139895238Y-124200000D01*
X139752380Y-124152380D01*
X139657142Y-124152380D01*
X139514285Y-124200000D01*
X139466666Y-124247619D01*
X138609523Y-124152380D02*
X138800000Y-124152380D01*
X138895238Y-124200000D01*
X138942857Y-124247619D01*
X139038095Y-124390476D01*
X139085714Y-124580952D01*
X139085714Y-124961904D01*
X139038095Y-125057142D01*
X138990476Y-125104761D01*
X138895238Y-125152380D01*
X138704761Y-125152380D01*
X138609523Y-125104761D01*
X138561904Y-125057142D01*
X138514285Y-124961904D01*
X138514285Y-124723809D01*
X138561904Y-124628571D01*
X138609523Y-124580952D01*
X138704761Y-124533333D01*
X138895238Y-124533333D01*
X138990476Y-124580952D01*
X139038095Y-124628571D01*
X139085714Y-124723809D01*
%TO.C,R5*%
X139566666Y-129452380D02*
X139900000Y-128976190D01*
X140138095Y-129452380D02*
X140138095Y-128452380D01*
X139757142Y-128452380D01*
X139661904Y-128500000D01*
X139614285Y-128547619D01*
X139566666Y-128642857D01*
X139566666Y-128785714D01*
X139614285Y-128880952D01*
X139661904Y-128928571D01*
X139757142Y-128976190D01*
X140138095Y-128976190D01*
X138661904Y-128452380D02*
X139138095Y-128452380D01*
X139185714Y-128928571D01*
X139138095Y-128880952D01*
X139042857Y-128833333D01*
X138804761Y-128833333D01*
X138709523Y-128880952D01*
X138661904Y-128928571D01*
X138614285Y-129023809D01*
X138614285Y-129261904D01*
X138661904Y-129357142D01*
X138709523Y-129404761D01*
X138804761Y-129452380D01*
X139042857Y-129452380D01*
X139138095Y-129404761D01*
X139185714Y-129357142D01*
%TD*%
M02*
