%TF.GenerationSoftware,KiCad,Pcbnew,5.1.10-88a1d61d58~88~ubuntu20.04.1*%
%TF.CreationDate,2021-06-24T14:50:30-05:00*%
%TF.ProjectId,MiOrigin,4d694f72-6967-4696-9e2e-6b696361645f,rev?*%
%TF.SameCoordinates,Original*%
%TF.FileFunction,Legend,Bot*%
%TF.FilePolarity,Positive*%
%FSLAX46Y46*%
G04 Gerber Fmt 4.6, Leading zero omitted, Abs format (unit mm)*
G04 Created by KiCad (PCBNEW 5.1.10-88a1d61d58~88~ubuntu20.04.1) date 2021-06-24 14:50:30*
%MOMM*%
%LPD*%
G01*
G04 APERTURE LIST*
%TA.AperFunction,Profile*%
%ADD10C,0.010000*%
%TD*%
%ADD11C,0.120000*%
%ADD12C,0.150000*%
G04 APERTURE END LIST*
D10*
X125580000Y-143500000D02*
G75*
G02*
X124580000Y-142500000I0J1000000D01*
G01*
X180920000Y-142500000D02*
G75*
G02*
X179920000Y-143500000I-1000000J0D01*
G01*
X179920000Y-45500000D02*
G75*
G02*
X180920000Y-46500000I0J-1000000D01*
G01*
X124580000Y-46500000D02*
G75*
G02*
X125580000Y-45500000I1000000J0D01*
G01*
X124580000Y-142500000D02*
X124580000Y-46500000D01*
X180920000Y-142500000D02*
X180920000Y-46500000D01*
X179920000Y-143500000D02*
X125580000Y-143500000D01*
X125580000Y-45500000D02*
X179920000Y-45500000D01*
D11*
%TO.C,TP4*%
X133250000Y-99900000D02*
G75*
G03*
X133250000Y-99900000I-1200000J0D01*
G01*
%TO.C,R6*%
X142047858Y-123114700D02*
X141573342Y-123114700D01*
X142047858Y-122069700D02*
X141573342Y-122069700D01*
%TO.C,R4*%
X142047858Y-121565300D02*
X141573342Y-121565300D01*
X142047858Y-120520300D02*
X141573342Y-120520300D01*
%TO.C,C6*%
X141950980Y-125083400D02*
X141669820Y-125083400D01*
X141950980Y-124063400D02*
X141669820Y-124063400D01*
%TO.C,R5*%
X141573342Y-129464700D02*
X142047858Y-129464700D01*
X141573342Y-128419700D02*
X142047858Y-128419700D01*
%TD*%
%TO.C,U4*%
D12*
X153511904Y-85570380D02*
X153511904Y-86379904D01*
X153464285Y-86475142D01*
X153416666Y-86522761D01*
X153321428Y-86570380D01*
X153130952Y-86570380D01*
X153035714Y-86522761D01*
X152988095Y-86475142D01*
X152940476Y-86379904D01*
X152940476Y-85570380D01*
X152035714Y-85903714D02*
X152035714Y-86570380D01*
X152273809Y-85522761D02*
X152511904Y-86237047D01*
X151892857Y-86237047D01*
%TO.C,TP4*%
X133311904Y-97354380D02*
X132740476Y-97354380D01*
X133026190Y-98354380D02*
X133026190Y-97354380D01*
X132407142Y-98354380D02*
X132407142Y-97354380D01*
X132026190Y-97354380D01*
X131930952Y-97402000D01*
X131883333Y-97449619D01*
X131835714Y-97544857D01*
X131835714Y-97687714D01*
X131883333Y-97782952D01*
X131930952Y-97830571D01*
X132026190Y-97878190D01*
X132407142Y-97878190D01*
X130978571Y-97687714D02*
X130978571Y-98354380D01*
X131216666Y-97306761D02*
X131454761Y-98021047D01*
X130835714Y-98021047D01*
%TO.C,R6*%
X140014580Y-122755733D02*
X139538390Y-122422400D01*
X140014580Y-122184304D02*
X139014580Y-122184304D01*
X139014580Y-122565257D01*
X139062200Y-122660495D01*
X139109819Y-122708114D01*
X139205057Y-122755733D01*
X139347914Y-122755733D01*
X139443152Y-122708114D01*
X139490771Y-122660495D01*
X139538390Y-122565257D01*
X139538390Y-122184304D01*
X139014580Y-123612876D02*
X139014580Y-123422400D01*
X139062200Y-123327161D01*
X139109819Y-123279542D01*
X139252676Y-123184304D01*
X139443152Y-123136685D01*
X139824104Y-123136685D01*
X139919342Y-123184304D01*
X139966961Y-123231923D01*
X140014580Y-123327161D01*
X140014580Y-123517638D01*
X139966961Y-123612876D01*
X139919342Y-123660495D01*
X139824104Y-123708114D01*
X139586009Y-123708114D01*
X139490771Y-123660495D01*
X139443152Y-123612876D01*
X139395533Y-123517638D01*
X139395533Y-123327161D01*
X139443152Y-123231923D01*
X139490771Y-123184304D01*
X139586009Y-123136685D01*
%TO.C,R4*%
X139989180Y-120723733D02*
X139512990Y-120390400D01*
X139989180Y-120152304D02*
X138989180Y-120152304D01*
X138989180Y-120533257D01*
X139036800Y-120628495D01*
X139084419Y-120676114D01*
X139179657Y-120723733D01*
X139322514Y-120723733D01*
X139417752Y-120676114D01*
X139465371Y-120628495D01*
X139512990Y-120533257D01*
X139512990Y-120152304D01*
X139322514Y-121580876D02*
X139989180Y-121580876D01*
X138941561Y-121342780D02*
X139655847Y-121104685D01*
X139655847Y-121723733D01*
%TO.C,C6*%
X142167542Y-126184733D02*
X142215161Y-126137114D01*
X142262780Y-125994257D01*
X142262780Y-125899019D01*
X142215161Y-125756161D01*
X142119923Y-125660923D01*
X142024685Y-125613304D01*
X141834209Y-125565685D01*
X141691352Y-125565685D01*
X141500876Y-125613304D01*
X141405638Y-125660923D01*
X141310400Y-125756161D01*
X141262780Y-125899019D01*
X141262780Y-125994257D01*
X141310400Y-126137114D01*
X141358019Y-126184733D01*
X141262780Y-127041876D02*
X141262780Y-126851400D01*
X141310400Y-126756161D01*
X141358019Y-126708542D01*
X141500876Y-126613304D01*
X141691352Y-126565685D01*
X142072304Y-126565685D01*
X142167542Y-126613304D01*
X142215161Y-126660923D01*
X142262780Y-126756161D01*
X142262780Y-126946638D01*
X142215161Y-127041876D01*
X142167542Y-127089495D01*
X142072304Y-127137114D01*
X141834209Y-127137114D01*
X141738971Y-127089495D01*
X141691352Y-127041876D01*
X141643733Y-126946638D01*
X141643733Y-126756161D01*
X141691352Y-126660923D01*
X141738971Y-126613304D01*
X141834209Y-126565685D01*
%TO.C,R5*%
X140065380Y-128724733D02*
X139589190Y-128391400D01*
X140065380Y-128153304D02*
X139065380Y-128153304D01*
X139065380Y-128534257D01*
X139113000Y-128629495D01*
X139160619Y-128677114D01*
X139255857Y-128724733D01*
X139398714Y-128724733D01*
X139493952Y-128677114D01*
X139541571Y-128629495D01*
X139589190Y-128534257D01*
X139589190Y-128153304D01*
X139065380Y-129629495D02*
X139065380Y-129153304D01*
X139541571Y-129105685D01*
X139493952Y-129153304D01*
X139446333Y-129248542D01*
X139446333Y-129486638D01*
X139493952Y-129581876D01*
X139541571Y-129629495D01*
X139636809Y-129677114D01*
X139874904Y-129677114D01*
X139970142Y-129629495D01*
X140017761Y-129581876D01*
X140065380Y-129486638D01*
X140065380Y-129248542D01*
X140017761Y-129153304D01*
X139970142Y-129105685D01*
%TD*%
M02*
