M48
; DRILL file {KiCad 5.1.10-88a1d61d58~88~ubuntu20.04.1} date Thu Jun 24 14:42:48 2021
; FORMAT={-:-/ absolute / inch / decimal}
; #@! TF.CreationDate,2021-06-24T14:42:48-05:00
; #@! TF.GenerationSoftware,Kicad,Pcbnew,5.1.10-88a1d61d58~88~ubuntu20.04.1
FMAT,2
INCH
T1C0.0118
T2C0.0157
T3C0.0236
T4C0.0275
T5C0.0315
T6C0.0374
T7C0.0394
T8C0.0400
T9C0.1260
T10C0.1300
%
G90
G05
T1
X5.6476Y-5.1201
X5.6634Y-4.9035
X5.665Y-3.4291
X5.6713Y-4.7657
X5.6713Y-4.8268
X5.6752Y-5.0315
X5.7067Y-2.0906
X5.7343Y-1.8583
X5.7637Y-2.4508
X5.7637Y-2.5866
X5.7657Y-5.2362
X5.7657Y-5.3386
X5.8445Y-4.8583
X5.8926Y-2.2421
X5.8966Y-2.0635
X5.8968Y-4.8651
X5.9134Y-2.0866
X5.9134Y-2.2087
X5.935Y-5.0315
X5.9587Y-3.5433
X6.003Y-4.6939
X6.0101Y-4.7641
X6.0335Y-3.3957
X6.0335Y-4.2008
X6.0647Y-4.6139
X6.0689Y-5.3819
X6.0696Y-3.4224
X6.0698Y-4.686
X6.0997Y-3.4494
X6.124Y-5.0827
X6.1271Y-4.563
X6.1479Y-4.7244
X6.1654Y-5.3622
X6.1831Y-4.5197
X6.2224Y-4.3819
X6.2233Y-3.7562
X6.2508Y-3.7238
X6.2776Y-3.7638
X6.3287Y-4.6299
X6.3524Y-4.122
X6.3917Y-3.5433
X6.4665Y-3.5433
X6.4744Y-2.0965
X6.4744Y-2.8622
X6.5374Y-4.6083
X6.5669Y-4.248
X6.6623Y-3.2979
X6.6831Y-3.2756
X6.7185Y-4.2283
X6.7205Y-2.1949
X6.7382Y-2.313
X6.7953Y-3.0236
T2
X5.0138Y-5.0984
X5.0177Y-5.1811
X5.0177Y-5.2677
X5.0492Y-3.6299
X5.1791Y-2.063
X5.1988Y-3.6299
X5.3465Y-1.9744
X5.3465Y-2.0276
X5.3484Y-2.5394
X5.3799Y-1.9744
X5.3799Y-2.0276
X5.3799Y-2.0709
X5.4134Y-1.9744
X5.4134Y-2.0276
X5.4469Y-1.9744
X5.4469Y-2.0276
X5.4469Y-3.8268
X5.4547Y-4.2008
X5.4803Y-1.9744
X5.4803Y-2.0276
X5.5138Y-1.9744
X5.5138Y-2.0276
X5.5315Y-2.374
X5.5453Y-2.1969
X5.5472Y-1.9744
X5.5472Y-2.0276
X5.561Y-3.376
X5.561Y-4.689
X5.5807Y-1.9744
X5.5807Y-2.0276
X5.5886Y-2.1378
X5.5945Y-2.2402
X5.6673Y-4.189
X5.813Y-4.9016
X5.8366Y-2.2756
X5.9016Y-5.4232
X5.9075Y-4.4331
X5.9075Y-4.563
X5.9429Y-3.0748
X5.9587Y-2.3583
X6.0059Y-2.7953
X6.0059Y-3.1398
X6.0059Y-4.9016
X6.0098Y-3.6614
X6.0571Y-3.6614
X6.1083Y-3.6614
X6.1201Y-2.2559
X6.1516Y-2.8268
X6.1909Y-2.7244
X6.1949Y-3.1575
X6.2067Y-3.8583
X6.2854Y-2.7244
X6.2972Y-3.378
X6.3091Y-5.189
X6.3248Y-4.8898
X6.3287Y-4.6969
X6.3327Y-1.8504
X6.3839Y-4.6969
X6.4232Y-2.7323
X6.4232Y-2.7913
X6.4272Y-4.4567
X6.5256Y-3.374
X6.5689Y-3.1575
X6.7815Y-4.7441
X6.7815Y-4.8937
X6.7815Y-5.1181
X6.8287Y-3.5551
X6.872Y-2.1024
X6.872Y-3.1535
X6.8957Y-5.1181
X6.9035Y-4.7441
X6.9035Y-4.8937
X6.9193Y-2.563
X7.0413Y-2.5669
X7.0453Y-2.1457
T4
X6.2992Y-2.2048
X6.2992Y-2.2834
T5
X6.565Y-1.8898
X6.6437Y-1.8898
X6.7224Y-1.8898
T6
X5.3638Y-5.5709
X5.4638Y-5.5709
X5.5638Y-5.5705
X5.6638Y-5.5705
X5.7638Y-5.5705
X5.8638Y-1.8701
X5.8638Y-5.5705
X5.9638Y-1.8701
X5.9638Y-5.5705
X6.0638Y-1.8701
X6.0638Y-5.5705
X6.1638Y-1.8701
X6.1638Y-5.5705
X6.2638Y-5.5705
X6.3638Y-5.5705
X6.4638Y-5.5705
X6.5638Y-5.5705
X6.6638Y-5.5705
T8
X5.1146Y-2.6393
X5.1146Y-2.7483
X5.1146Y-2.8569
X5.1146Y-2.9659
X5.2264Y-2.5845
X5.2264Y-2.6936
X5.2264Y-2.8026
X5.2264Y-2.9116
X5.2264Y-3.0207
T9
X5.0394Y-1.9102
X5.0394Y-5.5307
X6.9882Y-1.9102
X6.9882Y-5.5307
T10
X5.1705Y-2.3105
X5.1705Y-3.2947
T3
G00X5.2933Y-1.8717
M15
G01X5.2933Y-1.8402
M16
G05
G00X5.2933Y-2.0185
M15
G01X5.2933Y-1.9594
M16
G05
G00X5.6339Y-1.8717
M15
G01X5.6339Y-1.8402
M16
G05
G00X5.6339Y-2.0185
M15
G01X5.6339Y-1.9594
M16
G05
T7
G00X6.4823Y-1.8996
M15
G01X6.4823Y-1.8799
M16
G05
G00X6.8051Y-1.8996
M15
G01X6.8051Y-1.8799
M16
G05
T0
M30
