G04 #@! TF.GenerationSoftware,KiCad,Pcbnew,5.1.10-88a1d61d58~90~ubuntu20.04.1*
G04 #@! TF.CreationDate,2021-10-25T08:53:00-05:00*
G04 #@! TF.ProjectId,power-share,706f7765-722d-4736-9861-72652e6b6963,rev?*
G04 #@! TF.SameCoordinates,Original*
G04 #@! TF.FileFunction,Copper,L2,Bot*
G04 #@! TF.FilePolarity,Positive*
%FSLAX46Y46*%
G04 Gerber Fmt 4.6, Leading zero omitted, Abs format (unit mm)*
G04 Created by KiCad (PCBNEW 5.1.10-88a1d61d58~90~ubuntu20.04.1) date 2021-10-25 08:53:00*
%MOMM*%
%LPD*%
G01*
G04 APERTURE LIST*
G04 #@! TA.AperFunction,ComponentPad*
%ADD10C,0.800000*%
G04 #@! TD*
G04 #@! TA.AperFunction,ComponentPad*
%ADD11C,6.400000*%
G04 #@! TD*
G04 #@! TA.AperFunction,ComponentPad*
%ADD12C,0.400000*%
G04 #@! TD*
G04 #@! TA.AperFunction,ComponentPad*
%ADD13O,3.500000X3.100000*%
G04 #@! TD*
G04 #@! TA.AperFunction,ComponentPad*
%ADD14C,1.597660*%
G04 #@! TD*
G04 #@! TA.AperFunction,ViaPad*
%ADD15C,0.800000*%
G04 #@! TD*
G04 #@! TA.AperFunction,ViaPad*
%ADD16C,0.900000*%
G04 #@! TD*
G04 #@! TA.AperFunction,ViaPad*
%ADD17C,0.400000*%
G04 #@! TD*
G04 #@! TA.AperFunction,Conductor*
%ADD18C,3.000000*%
G04 #@! TD*
G04 #@! TA.AperFunction,Conductor*
%ADD19C,1.000000*%
G04 #@! TD*
G04 #@! TA.AperFunction,Conductor*
%ADD20C,0.200000*%
G04 #@! TD*
G04 #@! TA.AperFunction,Conductor*
%ADD21C,0.254000*%
G04 #@! TD*
G04 #@! TA.AperFunction,Conductor*
%ADD22C,0.100000*%
G04 #@! TD*
G04 APERTURE END LIST*
G04 #@! TA.AperFunction,SMDPad,CuDef*
G36*
G01*
X92675000Y-105450000D02*
X91725000Y-105450000D01*
G75*
G02*
X91475000Y-105200000I0J250000D01*
G01*
X91475000Y-104700000D01*
G75*
G02*
X91725000Y-104450000I250000J0D01*
G01*
X92675000Y-104450000D01*
G75*
G02*
X92925000Y-104700000I0J-250000D01*
G01*
X92925000Y-105200000D01*
G75*
G02*
X92675000Y-105450000I-250000J0D01*
G01*
G37*
G04 #@! TD.AperFunction*
G04 #@! TA.AperFunction,SMDPad,CuDef*
G36*
G01*
X92675000Y-107350000D02*
X91725000Y-107350000D01*
G75*
G02*
X91475000Y-107100000I0J250000D01*
G01*
X91475000Y-106600000D01*
G75*
G02*
X91725000Y-106350000I250000J0D01*
G01*
X92675000Y-106350000D01*
G75*
G02*
X92925000Y-106600000I0J-250000D01*
G01*
X92925000Y-107100000D01*
G75*
G02*
X92675000Y-107350000I-250000J0D01*
G01*
G37*
G04 #@! TD.AperFunction*
G04 #@! TA.AperFunction,SMDPad,CuDef*
G36*
G01*
X96625000Y-109550000D02*
X95675000Y-109550000D01*
G75*
G02*
X95425000Y-109300000I0J250000D01*
G01*
X95425000Y-108800000D01*
G75*
G02*
X95675000Y-108550000I250000J0D01*
G01*
X96625000Y-108550000D01*
G75*
G02*
X96875000Y-108800000I0J-250000D01*
G01*
X96875000Y-109300000D01*
G75*
G02*
X96625000Y-109550000I-250000J0D01*
G01*
G37*
G04 #@! TD.AperFunction*
G04 #@! TA.AperFunction,SMDPad,CuDef*
G36*
G01*
X96625000Y-111450000D02*
X95675000Y-111450000D01*
G75*
G02*
X95425000Y-111200000I0J250000D01*
G01*
X95425000Y-110700000D01*
G75*
G02*
X95675000Y-110450000I250000J0D01*
G01*
X96625000Y-110450000D01*
G75*
G02*
X96875000Y-110700000I0J-250000D01*
G01*
X96875000Y-111200000D01*
G75*
G02*
X96625000Y-111450000I-250000J0D01*
G01*
G37*
G04 #@! TD.AperFunction*
G04 #@! TA.AperFunction,SMDPad,CuDef*
G36*
G01*
X90650000Y-105600000D02*
X90150000Y-105600000D01*
G75*
G02*
X89925000Y-105375000I0J225000D01*
G01*
X89925000Y-104925000D01*
G75*
G02*
X90150000Y-104700000I225000J0D01*
G01*
X90650000Y-104700000D01*
G75*
G02*
X90875000Y-104925000I0J-225000D01*
G01*
X90875000Y-105375000D01*
G75*
G02*
X90650000Y-105600000I-225000J0D01*
G01*
G37*
G04 #@! TD.AperFunction*
G04 #@! TA.AperFunction,SMDPad,CuDef*
G36*
G01*
X90650000Y-107150000D02*
X90150000Y-107150000D01*
G75*
G02*
X89925000Y-106925000I0J225000D01*
G01*
X89925000Y-106475000D01*
G75*
G02*
X90150000Y-106250000I225000J0D01*
G01*
X90650000Y-106250000D01*
G75*
G02*
X90875000Y-106475000I0J-225000D01*
G01*
X90875000Y-106925000D01*
G75*
G02*
X90650000Y-107150000I-225000J0D01*
G01*
G37*
G04 #@! TD.AperFunction*
G04 #@! TA.AperFunction,SMDPad,CuDef*
G36*
G01*
X98150000Y-109800000D02*
X97650000Y-109800000D01*
G75*
G02*
X97425000Y-109575000I0J225000D01*
G01*
X97425000Y-109125000D01*
G75*
G02*
X97650000Y-108900000I225000J0D01*
G01*
X98150000Y-108900000D01*
G75*
G02*
X98375000Y-109125000I0J-225000D01*
G01*
X98375000Y-109575000D01*
G75*
G02*
X98150000Y-109800000I-225000J0D01*
G01*
G37*
G04 #@! TD.AperFunction*
G04 #@! TA.AperFunction,SMDPad,CuDef*
G36*
G01*
X98150000Y-111350000D02*
X97650000Y-111350000D01*
G75*
G02*
X97425000Y-111125000I0J225000D01*
G01*
X97425000Y-110675000D01*
G75*
G02*
X97650000Y-110450000I225000J0D01*
G01*
X98150000Y-110450000D01*
G75*
G02*
X98375000Y-110675000I0J-225000D01*
G01*
X98375000Y-111125000D01*
G75*
G02*
X98150000Y-111350000I-225000J0D01*
G01*
G37*
G04 #@! TD.AperFunction*
D10*
X136697056Y-101302944D03*
X135000000Y-100600000D03*
X133302944Y-101302944D03*
X132600000Y-103000000D03*
X133302944Y-104697056D03*
X135000000Y-105400000D03*
X136697056Y-104697056D03*
X137400000Y-103000000D03*
D11*
X135000000Y-103000000D03*
D12*
X90950000Y-119150000D03*
X89650000Y-119150000D03*
X89650000Y-117850000D03*
X88350000Y-117850000D03*
X88340000Y-119150000D03*
X87050000Y-117850000D03*
X87050000Y-119150000D03*
D10*
X136697056Y-129302944D03*
X135000000Y-128600000D03*
X133302944Y-129302944D03*
X132600000Y-131000000D03*
X133302944Y-132697056D03*
X135000000Y-133400000D03*
X136697056Y-132697056D03*
X137400000Y-131000000D03*
D11*
X135000000Y-131000000D03*
D10*
X87697056Y-129302944D03*
X86000000Y-128600000D03*
X84302944Y-129302944D03*
X83600000Y-131000000D03*
X84302944Y-132697056D03*
X86000000Y-133400000D03*
X87697056Y-132697056D03*
X88400000Y-131000000D03*
D11*
X86000000Y-131000000D03*
D10*
X87697056Y-101302944D03*
X86000000Y-100600000D03*
X84302944Y-101302944D03*
X83600000Y-103000000D03*
X84302944Y-104697056D03*
X86000000Y-105400000D03*
X87697056Y-104697056D03*
X88400000Y-103000000D03*
D11*
X86000000Y-103000000D03*
D13*
X117500000Y-126420000D03*
X117500000Y-122460000D03*
X117500000Y-118500000D03*
X117500000Y-114540000D03*
X117500000Y-110580000D03*
D14*
X89000000Y-110001780D03*
X89000000Y-111998220D03*
D13*
X129500000Y-110580000D03*
X129500000Y-114540000D03*
X129500000Y-118500000D03*
X129500000Y-122460000D03*
X129500000Y-126420000D03*
D15*
X93000000Y-119000000D03*
X94500000Y-119000000D03*
X96000000Y-117000000D03*
X96000000Y-118000000D03*
X97500000Y-118000000D03*
X97500000Y-117000000D03*
X99000000Y-117000000D03*
X99000000Y-118000000D03*
X107000000Y-111000000D03*
X109000000Y-111000000D03*
X111000000Y-111000000D03*
X111000000Y-113000000D03*
X109000000Y-113000000D03*
X107000000Y-113000000D03*
X107000000Y-115000000D03*
X109000000Y-115000000D03*
X111000000Y-115000000D03*
X111000000Y-117000000D03*
X109000000Y-117000000D03*
X107000000Y-117000000D03*
X107000000Y-119000000D03*
X109000000Y-119000000D03*
X111000000Y-119000000D03*
X111000000Y-121000000D03*
X109000000Y-121000000D03*
X107000000Y-121000000D03*
X84000000Y-109500000D03*
X84000000Y-111000000D03*
X84000000Y-112500000D03*
X84000000Y-114000000D03*
X84000000Y-115500000D03*
X85500000Y-115500000D03*
X85500000Y-114000000D03*
X85500000Y-112500000D03*
X85500000Y-111000000D03*
D16*
X108000000Y-129000000D03*
X110000000Y-129000000D03*
X112000000Y-129000000D03*
X114000000Y-129000000D03*
X106000000Y-131000000D03*
X106000000Y-133000000D03*
X102000000Y-129000000D03*
X97000000Y-129000000D03*
X93000000Y-131000000D03*
X93000000Y-133000000D03*
X91000000Y-133000000D03*
X91000000Y-131000000D03*
X84000000Y-121000000D03*
X84000000Y-123000000D03*
X84000000Y-125000000D03*
X129000000Y-101000000D03*
X126000000Y-101000000D03*
X123000000Y-101000000D03*
X120000000Y-101000000D03*
X117000000Y-101000000D03*
X114000000Y-101000000D03*
X133000000Y-120000000D03*
X133000000Y-124000000D03*
X133000000Y-122000000D03*
X121000000Y-123000000D03*
X121000000Y-121000000D03*
X121000000Y-119000000D03*
X121000000Y-117000000D03*
X121000000Y-110000000D03*
X121000000Y-112000000D03*
X122850000Y-122000000D03*
D17*
X96400000Y-111400000D03*
X97900000Y-111400000D03*
X91900000Y-107300000D03*
X90500000Y-107300000D03*
D18*
X117500000Y-122460000D02*
X114660000Y-122460000D01*
X117500000Y-122460000D02*
X119660000Y-122460000D01*
X129500000Y-114540000D02*
X126840000Y-114540000D01*
D19*
X115500000Y-118500000D02*
X117500000Y-118500000D01*
X114000000Y-117000000D02*
X115500000Y-118500000D01*
X133500000Y-110500000D02*
X131000000Y-108000000D01*
X114000000Y-109700000D02*
X114000000Y-117000000D01*
X115700000Y-108000000D02*
X114000000Y-109700000D01*
X133500000Y-117000000D02*
X133500000Y-110500000D01*
X131000000Y-108000000D02*
X115700000Y-108000000D01*
X132000000Y-118500000D02*
X133500000Y-117000000D01*
X129500000Y-118500000D02*
X132000000Y-118500000D01*
X123310000Y-122460000D02*
X122850000Y-122000000D01*
X129500000Y-122460000D02*
X123310000Y-122460000D01*
D20*
X96400000Y-110900000D02*
X96400000Y-111400000D01*
X97900000Y-110900000D02*
X97900000Y-111400000D01*
X91900000Y-106700000D02*
X91900000Y-107300000D01*
X90400000Y-107200000D02*
X90500000Y-107300000D01*
X90400000Y-106700000D02*
X90400000Y-107200000D01*
D21*
X132555330Y-100021161D02*
X132021161Y-100555330D01*
X131601467Y-101183446D01*
X131312377Y-101881372D01*
X131165000Y-102622285D01*
X131165000Y-103377715D01*
X131312377Y-104118628D01*
X131601467Y-104816554D01*
X132021161Y-105444670D01*
X132555330Y-105978839D01*
X133183446Y-106398533D01*
X133881372Y-106687623D01*
X134622285Y-106835000D01*
X135377715Y-106835000D01*
X136118628Y-106687623D01*
X136816554Y-106398533D01*
X137444670Y-105978839D01*
X137978839Y-105444670D01*
X138340001Y-104904153D01*
X138340000Y-129095845D01*
X137978839Y-128555330D01*
X137444670Y-128021161D01*
X136816554Y-127601467D01*
X136118628Y-127312377D01*
X135377715Y-127165000D01*
X134622285Y-127165000D01*
X133881372Y-127312377D01*
X133183446Y-127601467D01*
X132555330Y-128021161D01*
X132021161Y-128555330D01*
X131601467Y-129183446D01*
X131312377Y-129881372D01*
X131165000Y-130622285D01*
X131165000Y-131377715D01*
X131312377Y-132118628D01*
X131601467Y-132816554D01*
X132021161Y-133444670D01*
X132555330Y-133978839D01*
X133095845Y-134340000D01*
X87904155Y-134340000D01*
X88444670Y-133978839D01*
X88978839Y-133444670D01*
X89398533Y-132816554D01*
X89687623Y-132118628D01*
X89835000Y-131377715D01*
X89835000Y-130622285D01*
X89687623Y-129881372D01*
X89398533Y-129183446D01*
X88978839Y-128555330D01*
X88444670Y-128021161D01*
X87816554Y-127601467D01*
X87118628Y-127312377D01*
X86377715Y-127165000D01*
X85622285Y-127165000D01*
X84881372Y-127312377D01*
X84183446Y-127601467D01*
X83555330Y-128021161D01*
X83021161Y-128555330D01*
X82660000Y-129095845D01*
X82660000Y-126420000D01*
X115104428Y-126420000D01*
X115146615Y-126848335D01*
X115271556Y-127260209D01*
X115474449Y-127639794D01*
X115747496Y-127972504D01*
X116080206Y-128245551D01*
X116459791Y-128448444D01*
X116871665Y-128573385D01*
X117192660Y-128605000D01*
X117807340Y-128605000D01*
X118128335Y-128573385D01*
X118540209Y-128448444D01*
X118919794Y-128245551D01*
X119252504Y-127972504D01*
X119525551Y-127639794D01*
X119728444Y-127260209D01*
X119853385Y-126848335D01*
X119895572Y-126420000D01*
X119853385Y-125991665D01*
X119728444Y-125579791D01*
X119525551Y-125200206D01*
X119252504Y-124867496D01*
X118919794Y-124594449D01*
X118615441Y-124431769D01*
X118901518Y-124280985D01*
X119233688Y-124011591D01*
X119506919Y-123682570D01*
X119710711Y-123306566D01*
X119798481Y-123068770D01*
X119707775Y-122733000D01*
X117773000Y-122733000D01*
X117773000Y-122753000D01*
X117227000Y-122753000D01*
X117227000Y-122733000D01*
X115292225Y-122733000D01*
X115201519Y-123068770D01*
X115289289Y-123306566D01*
X115493081Y-123682570D01*
X115766312Y-124011591D01*
X116098482Y-124280985D01*
X116384559Y-124431769D01*
X116080206Y-124594449D01*
X115747496Y-124867496D01*
X115474449Y-125200206D01*
X115271556Y-125579791D01*
X115146615Y-125991665D01*
X115104428Y-126420000D01*
X82660000Y-126420000D01*
X82660000Y-119869131D01*
X86617753Y-119869131D01*
X86766354Y-119939640D01*
X86925855Y-119979805D01*
X87090128Y-119988079D01*
X87252858Y-119964147D01*
X87407792Y-119908928D01*
X87482247Y-119869131D01*
X87907753Y-119869131D01*
X88056354Y-119939640D01*
X88215855Y-119979805D01*
X88380128Y-119988079D01*
X88542858Y-119964147D01*
X88697792Y-119908928D01*
X88772247Y-119869131D01*
X89217753Y-119869131D01*
X89366354Y-119939640D01*
X89525855Y-119979805D01*
X89690128Y-119988079D01*
X89852858Y-119964147D01*
X90007792Y-119908928D01*
X90082247Y-119869131D01*
X90517753Y-119869131D01*
X90666354Y-119939640D01*
X90825855Y-119979805D01*
X90990128Y-119988079D01*
X91152858Y-119964147D01*
X91307792Y-119908928D01*
X91382247Y-119869131D01*
X91376641Y-119679879D01*
X90950000Y-119253238D01*
X90523359Y-119679879D01*
X90517753Y-119869131D01*
X90082247Y-119869131D01*
X90076641Y-119679879D01*
X89650000Y-119253238D01*
X89223359Y-119679879D01*
X89217753Y-119869131D01*
X88772247Y-119869131D01*
X88766641Y-119679879D01*
X88340000Y-119253238D01*
X87913359Y-119679879D01*
X87907753Y-119869131D01*
X87482247Y-119869131D01*
X87476641Y-119679879D01*
X87050000Y-119253238D01*
X86623359Y-119679879D01*
X86617753Y-119869131D01*
X82660000Y-119869131D01*
X82660000Y-119190128D01*
X86211921Y-119190128D01*
X86235853Y-119352858D01*
X86291072Y-119507792D01*
X86330869Y-119582247D01*
X86520121Y-119576641D01*
X86946762Y-119150000D01*
X87153238Y-119150000D01*
X87579879Y-119576641D01*
X87618484Y-119577785D01*
X87620869Y-119582247D01*
X87695000Y-119580051D01*
X87769131Y-119582247D01*
X87771245Y-119577793D01*
X87810121Y-119576641D01*
X88236762Y-119150000D01*
X88443238Y-119150000D01*
X88869879Y-119576641D01*
X88928806Y-119578387D01*
X88930869Y-119582247D01*
X88995000Y-119580347D01*
X89059131Y-119582247D01*
X89060959Y-119578393D01*
X89120121Y-119576641D01*
X89546762Y-119150000D01*
X89753238Y-119150000D01*
X90179879Y-119576641D01*
X90228645Y-119578086D01*
X90230869Y-119582247D01*
X90300000Y-119580199D01*
X90369131Y-119582247D01*
X90371102Y-119578093D01*
X90420121Y-119576641D01*
X90846762Y-119150000D01*
X91053238Y-119150000D01*
X91479879Y-119576641D01*
X91669131Y-119582247D01*
X91739640Y-119433646D01*
X91779805Y-119274145D01*
X91788079Y-119109872D01*
X91764147Y-118947142D01*
X91708928Y-118792208D01*
X91669131Y-118717753D01*
X91479879Y-118723359D01*
X91053238Y-119150000D01*
X90846762Y-119150000D01*
X90420121Y-118723359D01*
X90371355Y-118721914D01*
X90369131Y-118717753D01*
X90300000Y-118719801D01*
X90230869Y-118717753D01*
X90228898Y-118721907D01*
X90179879Y-118723359D01*
X89753238Y-119150000D01*
X89546762Y-119150000D01*
X89120121Y-118723359D01*
X89061194Y-118721613D01*
X89059131Y-118717753D01*
X88995000Y-118719653D01*
X88930869Y-118717753D01*
X88929041Y-118721607D01*
X88869879Y-118723359D01*
X88443238Y-119150000D01*
X88236762Y-119150000D01*
X87810121Y-118723359D01*
X87771516Y-118722215D01*
X87769131Y-118717753D01*
X87695000Y-118719949D01*
X87620869Y-118717753D01*
X87618755Y-118722207D01*
X87579879Y-118723359D01*
X87153238Y-119150000D01*
X86946762Y-119150000D01*
X86520121Y-118723359D01*
X86330869Y-118717753D01*
X86260360Y-118866354D01*
X86220195Y-119025855D01*
X86211921Y-119190128D01*
X82660000Y-119190128D01*
X82660000Y-118430869D01*
X86617753Y-118430869D01*
X86619801Y-118499999D01*
X86617753Y-118569131D01*
X86621907Y-118571102D01*
X86623359Y-118620121D01*
X87050000Y-119046762D01*
X87476641Y-118620121D01*
X87478086Y-118571355D01*
X87482247Y-118569131D01*
X87480199Y-118499999D01*
X87482247Y-118430869D01*
X87907753Y-118430869D01*
X87913359Y-118620121D01*
X88340000Y-119046762D01*
X88766641Y-118620121D01*
X88767925Y-118576786D01*
X88782247Y-118569131D01*
X88778152Y-118430869D01*
X89217753Y-118430869D01*
X89219801Y-118499999D01*
X89217753Y-118569131D01*
X89221907Y-118571102D01*
X89223359Y-118620121D01*
X89650000Y-119046762D01*
X90076641Y-118620121D01*
X90078086Y-118571355D01*
X90082247Y-118569131D01*
X90080199Y-118499999D01*
X90082247Y-118430869D01*
X90078093Y-118428898D01*
X90076641Y-118379879D01*
X89650000Y-117953238D01*
X89223359Y-118379879D01*
X89221914Y-118428645D01*
X89217753Y-118430869D01*
X88778152Y-118430869D01*
X88776641Y-118379879D01*
X88350000Y-117953238D01*
X87923359Y-118379879D01*
X87922075Y-118423214D01*
X87907753Y-118430869D01*
X87482247Y-118430869D01*
X87478093Y-118428898D01*
X87476641Y-118379879D01*
X87050000Y-117953238D01*
X86623359Y-118379879D01*
X86621914Y-118428645D01*
X86617753Y-118430869D01*
X82660000Y-118430869D01*
X82660000Y-117890128D01*
X86211921Y-117890128D01*
X86235853Y-118052858D01*
X86291072Y-118207792D01*
X86330869Y-118282247D01*
X86520121Y-118276641D01*
X86946762Y-117850000D01*
X87153238Y-117850000D01*
X87579879Y-118276641D01*
X87628645Y-118278086D01*
X87630869Y-118282247D01*
X87700000Y-118280199D01*
X87769131Y-118282247D01*
X87771102Y-118278093D01*
X87820121Y-118276641D01*
X88246762Y-117850000D01*
X88453238Y-117850000D01*
X88879879Y-118276641D01*
X88928645Y-118278086D01*
X88930869Y-118282247D01*
X89000000Y-118280199D01*
X89069131Y-118282247D01*
X89071102Y-118278093D01*
X89120121Y-118276641D01*
X89546762Y-117850000D01*
X89753238Y-117850000D01*
X90179879Y-118276641D01*
X90354553Y-118281815D01*
X90379088Y-118318535D01*
X90481465Y-118420912D01*
X90518185Y-118445447D01*
X90523359Y-118620121D01*
X90950000Y-119046762D01*
X91376641Y-118620121D01*
X91381815Y-118445447D01*
X91418535Y-118420912D01*
X91520912Y-118318535D01*
X91601348Y-118198153D01*
X91656754Y-118064391D01*
X91685000Y-117922391D01*
X91685000Y-117777609D01*
X91656754Y-117635609D01*
X91601348Y-117501847D01*
X91520912Y-117381465D01*
X91418535Y-117279088D01*
X91298153Y-117198652D01*
X91164391Y-117143246D01*
X91022391Y-117115000D01*
X90877609Y-117115000D01*
X90735609Y-117143246D01*
X90601847Y-117198652D01*
X90481465Y-117279088D01*
X90379088Y-117381465D01*
X90354553Y-117418185D01*
X90179879Y-117423359D01*
X89753238Y-117850000D01*
X89546762Y-117850000D01*
X89120121Y-117423359D01*
X89071355Y-117421914D01*
X89069131Y-117417753D01*
X89000000Y-117419801D01*
X88930869Y-117417753D01*
X88928898Y-117421907D01*
X88879879Y-117423359D01*
X88453238Y-117850000D01*
X88246762Y-117850000D01*
X87820121Y-117423359D01*
X87771355Y-117421914D01*
X87769131Y-117417753D01*
X87700000Y-117419801D01*
X87630869Y-117417753D01*
X87628898Y-117421907D01*
X87579879Y-117423359D01*
X87153238Y-117850000D01*
X86946762Y-117850000D01*
X86520121Y-117423359D01*
X86330869Y-117417753D01*
X86260360Y-117566354D01*
X86220195Y-117725855D01*
X86211921Y-117890128D01*
X82660000Y-117890128D01*
X82660000Y-117130869D01*
X86617753Y-117130869D01*
X86623359Y-117320121D01*
X87050000Y-117746762D01*
X87476641Y-117320121D01*
X87482247Y-117130869D01*
X87917753Y-117130869D01*
X87923359Y-117320121D01*
X88350000Y-117746762D01*
X88776641Y-117320121D01*
X88782247Y-117130869D01*
X89217753Y-117130869D01*
X89223359Y-117320121D01*
X89650000Y-117746762D01*
X90076641Y-117320121D01*
X90082247Y-117130869D01*
X89933646Y-117060360D01*
X89774145Y-117020195D01*
X89609872Y-117011921D01*
X89447142Y-117035853D01*
X89292208Y-117091072D01*
X89217753Y-117130869D01*
X88782247Y-117130869D01*
X88633646Y-117060360D01*
X88474145Y-117020195D01*
X88309872Y-117011921D01*
X88147142Y-117035853D01*
X87992208Y-117091072D01*
X87917753Y-117130869D01*
X87482247Y-117130869D01*
X87333646Y-117060360D01*
X87174145Y-117020195D01*
X87009872Y-117011921D01*
X86847142Y-117035853D01*
X86692208Y-117091072D01*
X86617753Y-117130869D01*
X82660000Y-117130869D01*
X82660000Y-113076992D01*
X88307308Y-113076992D01*
X88389342Y-113303175D01*
X88655660Y-113397234D01*
X88935211Y-113437530D01*
X89217251Y-113422514D01*
X89490944Y-113352763D01*
X89610658Y-113303175D01*
X89692692Y-113076992D01*
X89000000Y-112384300D01*
X88307308Y-113076992D01*
X82660000Y-113076992D01*
X82660000Y-111933431D01*
X87560690Y-111933431D01*
X87575706Y-112215471D01*
X87645457Y-112489164D01*
X87695045Y-112608878D01*
X87921228Y-112690912D01*
X88613920Y-111998220D01*
X88599778Y-111984078D01*
X88985858Y-111597998D01*
X89000000Y-111612140D01*
X89014143Y-111597998D01*
X89400223Y-111984078D01*
X89386080Y-111998220D01*
X90078772Y-112690912D01*
X90304955Y-112608878D01*
X90399014Y-112342560D01*
X90439310Y-112063009D01*
X90424294Y-111780969D01*
X90354543Y-111507276D01*
X90304955Y-111387562D01*
X90078775Y-111305529D01*
X90211384Y-111172920D01*
X90033994Y-110995530D01*
X90113729Y-110915794D01*
X90270644Y-110680953D01*
X90378729Y-110420013D01*
X90433830Y-110143000D01*
X90433830Y-109860560D01*
X90378729Y-109583547D01*
X90364834Y-109550000D01*
X94786928Y-109550000D01*
X94799188Y-109674482D01*
X94835498Y-109794180D01*
X94894463Y-109904494D01*
X94973815Y-110001185D01*
X95053594Y-110066658D01*
X95047038Y-110072038D01*
X94936595Y-110206614D01*
X94854528Y-110360150D01*
X94803992Y-110526746D01*
X94786928Y-110700000D01*
X94786928Y-111200000D01*
X94803992Y-111373254D01*
X94854528Y-111539850D01*
X94936595Y-111693386D01*
X95047038Y-111827962D01*
X95181614Y-111938405D01*
X95335150Y-112020472D01*
X95501746Y-112071008D01*
X95675000Y-112088072D01*
X95926813Y-112088072D01*
X96004479Y-112139967D01*
X96156440Y-112202911D01*
X96317760Y-112235000D01*
X96482240Y-112235000D01*
X96643560Y-112202911D01*
X96795521Y-112139967D01*
X96932281Y-112048587D01*
X96958457Y-112022411D01*
X96964850Y-112020472D01*
X97118386Y-111938405D01*
X97206944Y-111865728D01*
X97251413Y-111932281D01*
X97367719Y-112048587D01*
X97504479Y-112139967D01*
X97656440Y-112202911D01*
X97817760Y-112235000D01*
X97982240Y-112235000D01*
X98143560Y-112202911D01*
X98295521Y-112139967D01*
X98432281Y-112048587D01*
X98548587Y-111932281D01*
X98596831Y-111860078D01*
X98629497Y-111842618D01*
X98760284Y-111735284D01*
X98867618Y-111604497D01*
X98947375Y-111455283D01*
X98996488Y-111293377D01*
X99013072Y-111125000D01*
X99013072Y-110675000D01*
X98996488Y-110506623D01*
X98947375Y-110344717D01*
X98869300Y-110198649D01*
X98905537Y-110154494D01*
X98964502Y-110044180D01*
X99000812Y-109924482D01*
X99013072Y-109800000D01*
X99010000Y-109781750D01*
X98928250Y-109700000D01*
X112859509Y-109700000D01*
X112865000Y-109755752D01*
X112865001Y-116944239D01*
X112859509Y-117000000D01*
X112881423Y-117222498D01*
X112946324Y-117436446D01*
X112981282Y-117501847D01*
X113051717Y-117633623D01*
X113193552Y-117806449D01*
X113236860Y-117841991D01*
X114658008Y-119263140D01*
X114693551Y-119306449D01*
X114866377Y-119448284D01*
X115063553Y-119553676D01*
X115277501Y-119618577D01*
X115428285Y-119633428D01*
X115474449Y-119719794D01*
X115747496Y-120052504D01*
X116080206Y-120325551D01*
X116384559Y-120488231D01*
X116098482Y-120639015D01*
X115766312Y-120908409D01*
X115493081Y-121237430D01*
X115289289Y-121613434D01*
X115201519Y-121851230D01*
X115292225Y-122187000D01*
X117227000Y-122187000D01*
X117227000Y-122167000D01*
X117773000Y-122167000D01*
X117773000Y-122187000D01*
X119707775Y-122187000D01*
X119798481Y-121851230D01*
X119710711Y-121613434D01*
X119506919Y-121237430D01*
X119233688Y-120908409D01*
X118901518Y-120639015D01*
X118615441Y-120488231D01*
X118919794Y-120325551D01*
X119252504Y-120052504D01*
X119525551Y-119719794D01*
X119728444Y-119340209D01*
X119853385Y-118928335D01*
X119895572Y-118500000D01*
X119853385Y-118071665D01*
X119728444Y-117659791D01*
X119525551Y-117280206D01*
X119252504Y-116947496D01*
X118919794Y-116674449D01*
X118630841Y-116520000D01*
X118919794Y-116365551D01*
X119252504Y-116092504D01*
X119525551Y-115759794D01*
X119728444Y-115380209D01*
X119853385Y-114968335D01*
X119895572Y-114540000D01*
X119853385Y-114111665D01*
X119728444Y-113699791D01*
X119525551Y-113320206D01*
X119252504Y-112987496D01*
X118919794Y-112714449D01*
X118630841Y-112560000D01*
X118919794Y-112405551D01*
X119252504Y-112132504D01*
X119525551Y-111799794D01*
X119728444Y-111420209D01*
X119853385Y-111008335D01*
X119895572Y-110580000D01*
X119853385Y-110151665D01*
X119728444Y-109739791D01*
X119525551Y-109360206D01*
X119340730Y-109135000D01*
X127659270Y-109135000D01*
X127474449Y-109360206D01*
X127271556Y-109739791D01*
X127146615Y-110151665D01*
X127104428Y-110580000D01*
X127146615Y-111008335D01*
X127271556Y-111420209D01*
X127474449Y-111799794D01*
X127747496Y-112132504D01*
X128080206Y-112405551D01*
X128384559Y-112568231D01*
X128098482Y-112719015D01*
X127766312Y-112988409D01*
X127493081Y-113317430D01*
X127289289Y-113693434D01*
X127201519Y-113931230D01*
X127292225Y-114267000D01*
X129227000Y-114267000D01*
X129227000Y-114247000D01*
X129773000Y-114247000D01*
X129773000Y-114267000D01*
X131707775Y-114267000D01*
X131798481Y-113931230D01*
X131710711Y-113693434D01*
X131506919Y-113317430D01*
X131233688Y-112988409D01*
X130901518Y-112719015D01*
X130615441Y-112568231D01*
X130919794Y-112405551D01*
X131252504Y-112132504D01*
X131525551Y-111799794D01*
X131728444Y-111420209D01*
X131853385Y-111008335D01*
X131895572Y-110580000D01*
X131886909Y-110492040D01*
X132365001Y-110970133D01*
X132365000Y-116529868D01*
X131556591Y-117338278D01*
X131525551Y-117280206D01*
X131252504Y-116947496D01*
X130919794Y-116674449D01*
X130615441Y-116511769D01*
X130901518Y-116360985D01*
X131233688Y-116091591D01*
X131506919Y-115762570D01*
X131710711Y-115386566D01*
X131798481Y-115148770D01*
X131707775Y-114813000D01*
X129773000Y-114813000D01*
X129773000Y-114833000D01*
X129227000Y-114833000D01*
X129227000Y-114813000D01*
X127292225Y-114813000D01*
X127201519Y-115148770D01*
X127289289Y-115386566D01*
X127493081Y-115762570D01*
X127766312Y-116091591D01*
X128098482Y-116360985D01*
X128384559Y-116511769D01*
X128080206Y-116674449D01*
X127747496Y-116947496D01*
X127474449Y-117280206D01*
X127271556Y-117659791D01*
X127146615Y-118071665D01*
X127104428Y-118500000D01*
X127146615Y-118928335D01*
X127271556Y-119340209D01*
X127474449Y-119719794D01*
X127747496Y-120052504D01*
X128080206Y-120325551D01*
X128369159Y-120480000D01*
X128080206Y-120634449D01*
X127747496Y-120907496D01*
X127474449Y-121240206D01*
X127429126Y-121325000D01*
X123780131Y-121325000D01*
X123613143Y-121158012D01*
X123483622Y-121051717D01*
X123286446Y-120946324D01*
X123072498Y-120881423D01*
X122850000Y-120859509D01*
X122627502Y-120881423D01*
X122413554Y-120946324D01*
X122216378Y-121051717D01*
X122043552Y-121193552D01*
X121901717Y-121366378D01*
X121796324Y-121563554D01*
X121731423Y-121777502D01*
X121709509Y-122000000D01*
X121731423Y-122222498D01*
X121796324Y-122436446D01*
X121901717Y-122633622D01*
X122008012Y-122763143D01*
X122468004Y-123223135D01*
X122503551Y-123266449D01*
X122676377Y-123408284D01*
X122873553Y-123513676D01*
X123087501Y-123578577D01*
X123254248Y-123595000D01*
X123254257Y-123595000D01*
X123309999Y-123600490D01*
X123365741Y-123595000D01*
X127429126Y-123595000D01*
X127474449Y-123679794D01*
X127747496Y-124012504D01*
X128080206Y-124285551D01*
X128369159Y-124440000D01*
X128080206Y-124594449D01*
X127747496Y-124867496D01*
X127474449Y-125200206D01*
X127271556Y-125579791D01*
X127146615Y-125991665D01*
X127104428Y-126420000D01*
X127146615Y-126848335D01*
X127271556Y-127260209D01*
X127474449Y-127639794D01*
X127747496Y-127972504D01*
X128080206Y-128245551D01*
X128459791Y-128448444D01*
X128871665Y-128573385D01*
X129192660Y-128605000D01*
X129807340Y-128605000D01*
X130128335Y-128573385D01*
X130540209Y-128448444D01*
X130919794Y-128245551D01*
X131252504Y-127972504D01*
X131525551Y-127639794D01*
X131728444Y-127260209D01*
X131853385Y-126848335D01*
X131895572Y-126420000D01*
X131853385Y-125991665D01*
X131728444Y-125579791D01*
X131525551Y-125200206D01*
X131252504Y-124867496D01*
X130919794Y-124594449D01*
X130630841Y-124440000D01*
X130919794Y-124285551D01*
X131252504Y-124012504D01*
X131525551Y-123679794D01*
X131728444Y-123300209D01*
X131853385Y-122888335D01*
X131895572Y-122460000D01*
X131853385Y-122031665D01*
X131728444Y-121619791D01*
X131525551Y-121240206D01*
X131252504Y-120907496D01*
X130919794Y-120634449D01*
X130630841Y-120480000D01*
X130919794Y-120325551D01*
X131252504Y-120052504D01*
X131525551Y-119719794D01*
X131570874Y-119635000D01*
X131944249Y-119635000D01*
X132000000Y-119640491D01*
X132055751Y-119635000D01*
X132055752Y-119635000D01*
X132222499Y-119618577D01*
X132436447Y-119553676D01*
X132633623Y-119448284D01*
X132806449Y-119306449D01*
X132841996Y-119263135D01*
X134263140Y-117841992D01*
X134306449Y-117806449D01*
X134448284Y-117633623D01*
X134553676Y-117436447D01*
X134618577Y-117222499D01*
X134635000Y-117055752D01*
X134635000Y-117055743D01*
X134640490Y-117000001D01*
X134635000Y-116944259D01*
X134635000Y-110555751D01*
X134640491Y-110500000D01*
X134618577Y-110277501D01*
X134553676Y-110063553D01*
X134448284Y-109866377D01*
X134417209Y-109828512D01*
X134306449Y-109693551D01*
X134263141Y-109658009D01*
X131841996Y-107236865D01*
X131806449Y-107193551D01*
X131633623Y-107051716D01*
X131436447Y-106946324D01*
X131222499Y-106881423D01*
X131055752Y-106865000D01*
X131055751Y-106865000D01*
X131000000Y-106859509D01*
X130944249Y-106865000D01*
X115755751Y-106865000D01*
X115699999Y-106859509D01*
X115644248Y-106865000D01*
X115477501Y-106881423D01*
X115263553Y-106946324D01*
X115066377Y-107051716D01*
X114893551Y-107193551D01*
X114858009Y-107236860D01*
X113236865Y-108858004D01*
X113193551Y-108893551D01*
X113051716Y-109066377D01*
X112946325Y-109263553D01*
X112946324Y-109263554D01*
X112881423Y-109477502D01*
X112859509Y-109700000D01*
X98928250Y-109700000D01*
X98851250Y-109623000D01*
X98173000Y-109623000D01*
X98173000Y-109643000D01*
X97627000Y-109643000D01*
X97627000Y-109623000D01*
X97607000Y-109623000D01*
X97607000Y-109077000D01*
X97627000Y-109077000D01*
X97627000Y-108423750D01*
X98173000Y-108423750D01*
X98173000Y-109077000D01*
X98851250Y-109077000D01*
X99010000Y-108918250D01*
X99013072Y-108900000D01*
X99000812Y-108775518D01*
X98964502Y-108655820D01*
X98905537Y-108545506D01*
X98826185Y-108448815D01*
X98729494Y-108369463D01*
X98619180Y-108310498D01*
X98499482Y-108274188D01*
X98375000Y-108261928D01*
X98331750Y-108265000D01*
X98173000Y-108423750D01*
X97627000Y-108423750D01*
X97468250Y-108265000D01*
X97441674Y-108263112D01*
X97405537Y-108195506D01*
X97326185Y-108098815D01*
X97229494Y-108019463D01*
X97119180Y-107960498D01*
X96999482Y-107924188D01*
X96875000Y-107911928D01*
X96581750Y-107915000D01*
X96423000Y-108073750D01*
X96423000Y-108777000D01*
X96443000Y-108777000D01*
X96443000Y-109323000D01*
X96423000Y-109323000D01*
X96423000Y-109343000D01*
X95877000Y-109343000D01*
X95877000Y-109323000D01*
X94948750Y-109323000D01*
X94790000Y-109481750D01*
X94786928Y-109550000D01*
X90364834Y-109550000D01*
X90270644Y-109322607D01*
X90113729Y-109087766D01*
X89914014Y-108888051D01*
X89679173Y-108731136D01*
X89418233Y-108623051D01*
X89141220Y-108567950D01*
X88858780Y-108567950D01*
X88581767Y-108623051D01*
X88320827Y-108731136D01*
X88085986Y-108888051D01*
X87886271Y-109087766D01*
X87729356Y-109322607D01*
X87621271Y-109583547D01*
X87566170Y-109860560D01*
X87566170Y-110143000D01*
X87621271Y-110420013D01*
X87729356Y-110680953D01*
X87886271Y-110915794D01*
X87966007Y-110995530D01*
X87788616Y-111172920D01*
X87921225Y-111305529D01*
X87695045Y-111387562D01*
X87600986Y-111653880D01*
X87560690Y-111933431D01*
X82660000Y-111933431D01*
X82660000Y-108550000D01*
X94786928Y-108550000D01*
X94790000Y-108618250D01*
X94948750Y-108777000D01*
X95877000Y-108777000D01*
X95877000Y-108073750D01*
X95718250Y-107915000D01*
X95425000Y-107911928D01*
X95300518Y-107924188D01*
X95180820Y-107960498D01*
X95070506Y-108019463D01*
X94973815Y-108098815D01*
X94894463Y-108195506D01*
X94835498Y-108305820D01*
X94799188Y-108425518D01*
X94786928Y-108550000D01*
X82660000Y-108550000D01*
X82660000Y-104904155D01*
X83021161Y-105444670D01*
X83555330Y-105978839D01*
X84183446Y-106398533D01*
X84881372Y-106687623D01*
X85622285Y-106835000D01*
X86377715Y-106835000D01*
X87118628Y-106687623D01*
X87816554Y-106398533D01*
X88444670Y-105978839D01*
X88823509Y-105600000D01*
X89286928Y-105600000D01*
X89299188Y-105724482D01*
X89335498Y-105844180D01*
X89394463Y-105954494D01*
X89430700Y-105998649D01*
X89352625Y-106144717D01*
X89303512Y-106306623D01*
X89286928Y-106475000D01*
X89286928Y-106925000D01*
X89303512Y-107093377D01*
X89352625Y-107255283D01*
X89432382Y-107404497D01*
X89539716Y-107535284D01*
X89670503Y-107642618D01*
X89757348Y-107689038D01*
X89760033Y-107695521D01*
X89851413Y-107832281D01*
X89967719Y-107948587D01*
X90104479Y-108039967D01*
X90256440Y-108102911D01*
X90417760Y-108135000D01*
X90582240Y-108135000D01*
X90743560Y-108102911D01*
X90895521Y-108039967D01*
X91032281Y-107948587D01*
X91148587Y-107832281D01*
X91175349Y-107792229D01*
X91231614Y-107838405D01*
X91287304Y-107868172D01*
X91367719Y-107948587D01*
X91504479Y-108039967D01*
X91656440Y-108102911D01*
X91817760Y-108135000D01*
X91982240Y-108135000D01*
X92143560Y-108102911D01*
X92295521Y-108039967D01*
X92373187Y-107988072D01*
X92675000Y-107988072D01*
X92848254Y-107971008D01*
X93014850Y-107920472D01*
X93168386Y-107838405D01*
X93302962Y-107727962D01*
X93413405Y-107593386D01*
X93495472Y-107439850D01*
X93546008Y-107273254D01*
X93563072Y-107100000D01*
X93563072Y-106600000D01*
X93546008Y-106426746D01*
X93495472Y-106260150D01*
X93413405Y-106106614D01*
X93302962Y-105972038D01*
X93296406Y-105966658D01*
X93376185Y-105901185D01*
X93455537Y-105804494D01*
X93514502Y-105694180D01*
X93550812Y-105574482D01*
X93563072Y-105450000D01*
X93560000Y-105381750D01*
X93401250Y-105223000D01*
X92473000Y-105223000D01*
X92473000Y-105243000D01*
X91927000Y-105243000D01*
X91927000Y-105223000D01*
X90998750Y-105223000D01*
X90840000Y-105381750D01*
X90838143Y-105423000D01*
X90673000Y-105423000D01*
X90673000Y-105443000D01*
X90127000Y-105443000D01*
X90127000Y-105423000D01*
X89448750Y-105423000D01*
X89290000Y-105581750D01*
X89286928Y-105600000D01*
X88823509Y-105600000D01*
X88978839Y-105444670D01*
X89394436Y-104822686D01*
X89448750Y-104877000D01*
X90127000Y-104877000D01*
X90127000Y-104223750D01*
X90673000Y-104223750D01*
X90673000Y-104877000D01*
X91351250Y-104877000D01*
X91510000Y-104718250D01*
X91513072Y-104700000D01*
X91510807Y-104677000D01*
X91927000Y-104677000D01*
X91927000Y-103973750D01*
X92473000Y-103973750D01*
X92473000Y-104677000D01*
X93401250Y-104677000D01*
X93560000Y-104518250D01*
X93563072Y-104450000D01*
X93550812Y-104325518D01*
X93514502Y-104205820D01*
X93455537Y-104095506D01*
X93376185Y-103998815D01*
X93279494Y-103919463D01*
X93169180Y-103860498D01*
X93049482Y-103824188D01*
X92925000Y-103811928D01*
X92631750Y-103815000D01*
X92473000Y-103973750D01*
X91927000Y-103973750D01*
X91768250Y-103815000D01*
X91475000Y-103811928D01*
X91350518Y-103824188D01*
X91230820Y-103860498D01*
X91120506Y-103919463D01*
X91023815Y-103998815D01*
X90964764Y-104070769D01*
X90875000Y-104061928D01*
X90831750Y-104065000D01*
X90673000Y-104223750D01*
X90127000Y-104223750D01*
X89968250Y-104065000D01*
X89925000Y-104061928D01*
X89800518Y-104074188D01*
X89689781Y-104107780D01*
X89835000Y-103377715D01*
X89835000Y-102622285D01*
X89687623Y-101881372D01*
X89398533Y-101183446D01*
X88978839Y-100555330D01*
X88444670Y-100021161D01*
X87904155Y-99660000D01*
X133095845Y-99660000D01*
X132555330Y-100021161D01*
G04 #@! TA.AperFunction,Conductor*
D22*
G36*
X132555330Y-100021161D02*
G01*
X132021161Y-100555330D01*
X131601467Y-101183446D01*
X131312377Y-101881372D01*
X131165000Y-102622285D01*
X131165000Y-103377715D01*
X131312377Y-104118628D01*
X131601467Y-104816554D01*
X132021161Y-105444670D01*
X132555330Y-105978839D01*
X133183446Y-106398533D01*
X133881372Y-106687623D01*
X134622285Y-106835000D01*
X135377715Y-106835000D01*
X136118628Y-106687623D01*
X136816554Y-106398533D01*
X137444670Y-105978839D01*
X137978839Y-105444670D01*
X138340001Y-104904153D01*
X138340000Y-129095845D01*
X137978839Y-128555330D01*
X137444670Y-128021161D01*
X136816554Y-127601467D01*
X136118628Y-127312377D01*
X135377715Y-127165000D01*
X134622285Y-127165000D01*
X133881372Y-127312377D01*
X133183446Y-127601467D01*
X132555330Y-128021161D01*
X132021161Y-128555330D01*
X131601467Y-129183446D01*
X131312377Y-129881372D01*
X131165000Y-130622285D01*
X131165000Y-131377715D01*
X131312377Y-132118628D01*
X131601467Y-132816554D01*
X132021161Y-133444670D01*
X132555330Y-133978839D01*
X133095845Y-134340000D01*
X87904155Y-134340000D01*
X88444670Y-133978839D01*
X88978839Y-133444670D01*
X89398533Y-132816554D01*
X89687623Y-132118628D01*
X89835000Y-131377715D01*
X89835000Y-130622285D01*
X89687623Y-129881372D01*
X89398533Y-129183446D01*
X88978839Y-128555330D01*
X88444670Y-128021161D01*
X87816554Y-127601467D01*
X87118628Y-127312377D01*
X86377715Y-127165000D01*
X85622285Y-127165000D01*
X84881372Y-127312377D01*
X84183446Y-127601467D01*
X83555330Y-128021161D01*
X83021161Y-128555330D01*
X82660000Y-129095845D01*
X82660000Y-126420000D01*
X115104428Y-126420000D01*
X115146615Y-126848335D01*
X115271556Y-127260209D01*
X115474449Y-127639794D01*
X115747496Y-127972504D01*
X116080206Y-128245551D01*
X116459791Y-128448444D01*
X116871665Y-128573385D01*
X117192660Y-128605000D01*
X117807340Y-128605000D01*
X118128335Y-128573385D01*
X118540209Y-128448444D01*
X118919794Y-128245551D01*
X119252504Y-127972504D01*
X119525551Y-127639794D01*
X119728444Y-127260209D01*
X119853385Y-126848335D01*
X119895572Y-126420000D01*
X119853385Y-125991665D01*
X119728444Y-125579791D01*
X119525551Y-125200206D01*
X119252504Y-124867496D01*
X118919794Y-124594449D01*
X118615441Y-124431769D01*
X118901518Y-124280985D01*
X119233688Y-124011591D01*
X119506919Y-123682570D01*
X119710711Y-123306566D01*
X119798481Y-123068770D01*
X119707775Y-122733000D01*
X117773000Y-122733000D01*
X117773000Y-122753000D01*
X117227000Y-122753000D01*
X117227000Y-122733000D01*
X115292225Y-122733000D01*
X115201519Y-123068770D01*
X115289289Y-123306566D01*
X115493081Y-123682570D01*
X115766312Y-124011591D01*
X116098482Y-124280985D01*
X116384559Y-124431769D01*
X116080206Y-124594449D01*
X115747496Y-124867496D01*
X115474449Y-125200206D01*
X115271556Y-125579791D01*
X115146615Y-125991665D01*
X115104428Y-126420000D01*
X82660000Y-126420000D01*
X82660000Y-119869131D01*
X86617753Y-119869131D01*
X86766354Y-119939640D01*
X86925855Y-119979805D01*
X87090128Y-119988079D01*
X87252858Y-119964147D01*
X87407792Y-119908928D01*
X87482247Y-119869131D01*
X87907753Y-119869131D01*
X88056354Y-119939640D01*
X88215855Y-119979805D01*
X88380128Y-119988079D01*
X88542858Y-119964147D01*
X88697792Y-119908928D01*
X88772247Y-119869131D01*
X89217753Y-119869131D01*
X89366354Y-119939640D01*
X89525855Y-119979805D01*
X89690128Y-119988079D01*
X89852858Y-119964147D01*
X90007792Y-119908928D01*
X90082247Y-119869131D01*
X90517753Y-119869131D01*
X90666354Y-119939640D01*
X90825855Y-119979805D01*
X90990128Y-119988079D01*
X91152858Y-119964147D01*
X91307792Y-119908928D01*
X91382247Y-119869131D01*
X91376641Y-119679879D01*
X90950000Y-119253238D01*
X90523359Y-119679879D01*
X90517753Y-119869131D01*
X90082247Y-119869131D01*
X90076641Y-119679879D01*
X89650000Y-119253238D01*
X89223359Y-119679879D01*
X89217753Y-119869131D01*
X88772247Y-119869131D01*
X88766641Y-119679879D01*
X88340000Y-119253238D01*
X87913359Y-119679879D01*
X87907753Y-119869131D01*
X87482247Y-119869131D01*
X87476641Y-119679879D01*
X87050000Y-119253238D01*
X86623359Y-119679879D01*
X86617753Y-119869131D01*
X82660000Y-119869131D01*
X82660000Y-119190128D01*
X86211921Y-119190128D01*
X86235853Y-119352858D01*
X86291072Y-119507792D01*
X86330869Y-119582247D01*
X86520121Y-119576641D01*
X86946762Y-119150000D01*
X87153238Y-119150000D01*
X87579879Y-119576641D01*
X87618484Y-119577785D01*
X87620869Y-119582247D01*
X87695000Y-119580051D01*
X87769131Y-119582247D01*
X87771245Y-119577793D01*
X87810121Y-119576641D01*
X88236762Y-119150000D01*
X88443238Y-119150000D01*
X88869879Y-119576641D01*
X88928806Y-119578387D01*
X88930869Y-119582247D01*
X88995000Y-119580347D01*
X89059131Y-119582247D01*
X89060959Y-119578393D01*
X89120121Y-119576641D01*
X89546762Y-119150000D01*
X89753238Y-119150000D01*
X90179879Y-119576641D01*
X90228645Y-119578086D01*
X90230869Y-119582247D01*
X90300000Y-119580199D01*
X90369131Y-119582247D01*
X90371102Y-119578093D01*
X90420121Y-119576641D01*
X90846762Y-119150000D01*
X91053238Y-119150000D01*
X91479879Y-119576641D01*
X91669131Y-119582247D01*
X91739640Y-119433646D01*
X91779805Y-119274145D01*
X91788079Y-119109872D01*
X91764147Y-118947142D01*
X91708928Y-118792208D01*
X91669131Y-118717753D01*
X91479879Y-118723359D01*
X91053238Y-119150000D01*
X90846762Y-119150000D01*
X90420121Y-118723359D01*
X90371355Y-118721914D01*
X90369131Y-118717753D01*
X90300000Y-118719801D01*
X90230869Y-118717753D01*
X90228898Y-118721907D01*
X90179879Y-118723359D01*
X89753238Y-119150000D01*
X89546762Y-119150000D01*
X89120121Y-118723359D01*
X89061194Y-118721613D01*
X89059131Y-118717753D01*
X88995000Y-118719653D01*
X88930869Y-118717753D01*
X88929041Y-118721607D01*
X88869879Y-118723359D01*
X88443238Y-119150000D01*
X88236762Y-119150000D01*
X87810121Y-118723359D01*
X87771516Y-118722215D01*
X87769131Y-118717753D01*
X87695000Y-118719949D01*
X87620869Y-118717753D01*
X87618755Y-118722207D01*
X87579879Y-118723359D01*
X87153238Y-119150000D01*
X86946762Y-119150000D01*
X86520121Y-118723359D01*
X86330869Y-118717753D01*
X86260360Y-118866354D01*
X86220195Y-119025855D01*
X86211921Y-119190128D01*
X82660000Y-119190128D01*
X82660000Y-118430869D01*
X86617753Y-118430869D01*
X86619801Y-118499999D01*
X86617753Y-118569131D01*
X86621907Y-118571102D01*
X86623359Y-118620121D01*
X87050000Y-119046762D01*
X87476641Y-118620121D01*
X87478086Y-118571355D01*
X87482247Y-118569131D01*
X87480199Y-118499999D01*
X87482247Y-118430869D01*
X87907753Y-118430869D01*
X87913359Y-118620121D01*
X88340000Y-119046762D01*
X88766641Y-118620121D01*
X88767925Y-118576786D01*
X88782247Y-118569131D01*
X88778152Y-118430869D01*
X89217753Y-118430869D01*
X89219801Y-118499999D01*
X89217753Y-118569131D01*
X89221907Y-118571102D01*
X89223359Y-118620121D01*
X89650000Y-119046762D01*
X90076641Y-118620121D01*
X90078086Y-118571355D01*
X90082247Y-118569131D01*
X90080199Y-118499999D01*
X90082247Y-118430869D01*
X90078093Y-118428898D01*
X90076641Y-118379879D01*
X89650000Y-117953238D01*
X89223359Y-118379879D01*
X89221914Y-118428645D01*
X89217753Y-118430869D01*
X88778152Y-118430869D01*
X88776641Y-118379879D01*
X88350000Y-117953238D01*
X87923359Y-118379879D01*
X87922075Y-118423214D01*
X87907753Y-118430869D01*
X87482247Y-118430869D01*
X87478093Y-118428898D01*
X87476641Y-118379879D01*
X87050000Y-117953238D01*
X86623359Y-118379879D01*
X86621914Y-118428645D01*
X86617753Y-118430869D01*
X82660000Y-118430869D01*
X82660000Y-117890128D01*
X86211921Y-117890128D01*
X86235853Y-118052858D01*
X86291072Y-118207792D01*
X86330869Y-118282247D01*
X86520121Y-118276641D01*
X86946762Y-117850000D01*
X87153238Y-117850000D01*
X87579879Y-118276641D01*
X87628645Y-118278086D01*
X87630869Y-118282247D01*
X87700000Y-118280199D01*
X87769131Y-118282247D01*
X87771102Y-118278093D01*
X87820121Y-118276641D01*
X88246762Y-117850000D01*
X88453238Y-117850000D01*
X88879879Y-118276641D01*
X88928645Y-118278086D01*
X88930869Y-118282247D01*
X89000000Y-118280199D01*
X89069131Y-118282247D01*
X89071102Y-118278093D01*
X89120121Y-118276641D01*
X89546762Y-117850000D01*
X89753238Y-117850000D01*
X90179879Y-118276641D01*
X90354553Y-118281815D01*
X90379088Y-118318535D01*
X90481465Y-118420912D01*
X90518185Y-118445447D01*
X90523359Y-118620121D01*
X90950000Y-119046762D01*
X91376641Y-118620121D01*
X91381815Y-118445447D01*
X91418535Y-118420912D01*
X91520912Y-118318535D01*
X91601348Y-118198153D01*
X91656754Y-118064391D01*
X91685000Y-117922391D01*
X91685000Y-117777609D01*
X91656754Y-117635609D01*
X91601348Y-117501847D01*
X91520912Y-117381465D01*
X91418535Y-117279088D01*
X91298153Y-117198652D01*
X91164391Y-117143246D01*
X91022391Y-117115000D01*
X90877609Y-117115000D01*
X90735609Y-117143246D01*
X90601847Y-117198652D01*
X90481465Y-117279088D01*
X90379088Y-117381465D01*
X90354553Y-117418185D01*
X90179879Y-117423359D01*
X89753238Y-117850000D01*
X89546762Y-117850000D01*
X89120121Y-117423359D01*
X89071355Y-117421914D01*
X89069131Y-117417753D01*
X89000000Y-117419801D01*
X88930869Y-117417753D01*
X88928898Y-117421907D01*
X88879879Y-117423359D01*
X88453238Y-117850000D01*
X88246762Y-117850000D01*
X87820121Y-117423359D01*
X87771355Y-117421914D01*
X87769131Y-117417753D01*
X87700000Y-117419801D01*
X87630869Y-117417753D01*
X87628898Y-117421907D01*
X87579879Y-117423359D01*
X87153238Y-117850000D01*
X86946762Y-117850000D01*
X86520121Y-117423359D01*
X86330869Y-117417753D01*
X86260360Y-117566354D01*
X86220195Y-117725855D01*
X86211921Y-117890128D01*
X82660000Y-117890128D01*
X82660000Y-117130869D01*
X86617753Y-117130869D01*
X86623359Y-117320121D01*
X87050000Y-117746762D01*
X87476641Y-117320121D01*
X87482247Y-117130869D01*
X87917753Y-117130869D01*
X87923359Y-117320121D01*
X88350000Y-117746762D01*
X88776641Y-117320121D01*
X88782247Y-117130869D01*
X89217753Y-117130869D01*
X89223359Y-117320121D01*
X89650000Y-117746762D01*
X90076641Y-117320121D01*
X90082247Y-117130869D01*
X89933646Y-117060360D01*
X89774145Y-117020195D01*
X89609872Y-117011921D01*
X89447142Y-117035853D01*
X89292208Y-117091072D01*
X89217753Y-117130869D01*
X88782247Y-117130869D01*
X88633646Y-117060360D01*
X88474145Y-117020195D01*
X88309872Y-117011921D01*
X88147142Y-117035853D01*
X87992208Y-117091072D01*
X87917753Y-117130869D01*
X87482247Y-117130869D01*
X87333646Y-117060360D01*
X87174145Y-117020195D01*
X87009872Y-117011921D01*
X86847142Y-117035853D01*
X86692208Y-117091072D01*
X86617753Y-117130869D01*
X82660000Y-117130869D01*
X82660000Y-113076992D01*
X88307308Y-113076992D01*
X88389342Y-113303175D01*
X88655660Y-113397234D01*
X88935211Y-113437530D01*
X89217251Y-113422514D01*
X89490944Y-113352763D01*
X89610658Y-113303175D01*
X89692692Y-113076992D01*
X89000000Y-112384300D01*
X88307308Y-113076992D01*
X82660000Y-113076992D01*
X82660000Y-111933431D01*
X87560690Y-111933431D01*
X87575706Y-112215471D01*
X87645457Y-112489164D01*
X87695045Y-112608878D01*
X87921228Y-112690912D01*
X88613920Y-111998220D01*
X88599778Y-111984078D01*
X88985858Y-111597998D01*
X89000000Y-111612140D01*
X89014143Y-111597998D01*
X89400223Y-111984078D01*
X89386080Y-111998220D01*
X90078772Y-112690912D01*
X90304955Y-112608878D01*
X90399014Y-112342560D01*
X90439310Y-112063009D01*
X90424294Y-111780969D01*
X90354543Y-111507276D01*
X90304955Y-111387562D01*
X90078775Y-111305529D01*
X90211384Y-111172920D01*
X90033994Y-110995530D01*
X90113729Y-110915794D01*
X90270644Y-110680953D01*
X90378729Y-110420013D01*
X90433830Y-110143000D01*
X90433830Y-109860560D01*
X90378729Y-109583547D01*
X90364834Y-109550000D01*
X94786928Y-109550000D01*
X94799188Y-109674482D01*
X94835498Y-109794180D01*
X94894463Y-109904494D01*
X94973815Y-110001185D01*
X95053594Y-110066658D01*
X95047038Y-110072038D01*
X94936595Y-110206614D01*
X94854528Y-110360150D01*
X94803992Y-110526746D01*
X94786928Y-110700000D01*
X94786928Y-111200000D01*
X94803992Y-111373254D01*
X94854528Y-111539850D01*
X94936595Y-111693386D01*
X95047038Y-111827962D01*
X95181614Y-111938405D01*
X95335150Y-112020472D01*
X95501746Y-112071008D01*
X95675000Y-112088072D01*
X95926813Y-112088072D01*
X96004479Y-112139967D01*
X96156440Y-112202911D01*
X96317760Y-112235000D01*
X96482240Y-112235000D01*
X96643560Y-112202911D01*
X96795521Y-112139967D01*
X96932281Y-112048587D01*
X96958457Y-112022411D01*
X96964850Y-112020472D01*
X97118386Y-111938405D01*
X97206944Y-111865728D01*
X97251413Y-111932281D01*
X97367719Y-112048587D01*
X97504479Y-112139967D01*
X97656440Y-112202911D01*
X97817760Y-112235000D01*
X97982240Y-112235000D01*
X98143560Y-112202911D01*
X98295521Y-112139967D01*
X98432281Y-112048587D01*
X98548587Y-111932281D01*
X98596831Y-111860078D01*
X98629497Y-111842618D01*
X98760284Y-111735284D01*
X98867618Y-111604497D01*
X98947375Y-111455283D01*
X98996488Y-111293377D01*
X99013072Y-111125000D01*
X99013072Y-110675000D01*
X98996488Y-110506623D01*
X98947375Y-110344717D01*
X98869300Y-110198649D01*
X98905537Y-110154494D01*
X98964502Y-110044180D01*
X99000812Y-109924482D01*
X99013072Y-109800000D01*
X99010000Y-109781750D01*
X98928250Y-109700000D01*
X112859509Y-109700000D01*
X112865000Y-109755752D01*
X112865001Y-116944239D01*
X112859509Y-117000000D01*
X112881423Y-117222498D01*
X112946324Y-117436446D01*
X112981282Y-117501847D01*
X113051717Y-117633623D01*
X113193552Y-117806449D01*
X113236860Y-117841991D01*
X114658008Y-119263140D01*
X114693551Y-119306449D01*
X114866377Y-119448284D01*
X115063553Y-119553676D01*
X115277501Y-119618577D01*
X115428285Y-119633428D01*
X115474449Y-119719794D01*
X115747496Y-120052504D01*
X116080206Y-120325551D01*
X116384559Y-120488231D01*
X116098482Y-120639015D01*
X115766312Y-120908409D01*
X115493081Y-121237430D01*
X115289289Y-121613434D01*
X115201519Y-121851230D01*
X115292225Y-122187000D01*
X117227000Y-122187000D01*
X117227000Y-122167000D01*
X117773000Y-122167000D01*
X117773000Y-122187000D01*
X119707775Y-122187000D01*
X119798481Y-121851230D01*
X119710711Y-121613434D01*
X119506919Y-121237430D01*
X119233688Y-120908409D01*
X118901518Y-120639015D01*
X118615441Y-120488231D01*
X118919794Y-120325551D01*
X119252504Y-120052504D01*
X119525551Y-119719794D01*
X119728444Y-119340209D01*
X119853385Y-118928335D01*
X119895572Y-118500000D01*
X119853385Y-118071665D01*
X119728444Y-117659791D01*
X119525551Y-117280206D01*
X119252504Y-116947496D01*
X118919794Y-116674449D01*
X118630841Y-116520000D01*
X118919794Y-116365551D01*
X119252504Y-116092504D01*
X119525551Y-115759794D01*
X119728444Y-115380209D01*
X119853385Y-114968335D01*
X119895572Y-114540000D01*
X119853385Y-114111665D01*
X119728444Y-113699791D01*
X119525551Y-113320206D01*
X119252504Y-112987496D01*
X118919794Y-112714449D01*
X118630841Y-112560000D01*
X118919794Y-112405551D01*
X119252504Y-112132504D01*
X119525551Y-111799794D01*
X119728444Y-111420209D01*
X119853385Y-111008335D01*
X119895572Y-110580000D01*
X119853385Y-110151665D01*
X119728444Y-109739791D01*
X119525551Y-109360206D01*
X119340730Y-109135000D01*
X127659270Y-109135000D01*
X127474449Y-109360206D01*
X127271556Y-109739791D01*
X127146615Y-110151665D01*
X127104428Y-110580000D01*
X127146615Y-111008335D01*
X127271556Y-111420209D01*
X127474449Y-111799794D01*
X127747496Y-112132504D01*
X128080206Y-112405551D01*
X128384559Y-112568231D01*
X128098482Y-112719015D01*
X127766312Y-112988409D01*
X127493081Y-113317430D01*
X127289289Y-113693434D01*
X127201519Y-113931230D01*
X127292225Y-114267000D01*
X129227000Y-114267000D01*
X129227000Y-114247000D01*
X129773000Y-114247000D01*
X129773000Y-114267000D01*
X131707775Y-114267000D01*
X131798481Y-113931230D01*
X131710711Y-113693434D01*
X131506919Y-113317430D01*
X131233688Y-112988409D01*
X130901518Y-112719015D01*
X130615441Y-112568231D01*
X130919794Y-112405551D01*
X131252504Y-112132504D01*
X131525551Y-111799794D01*
X131728444Y-111420209D01*
X131853385Y-111008335D01*
X131895572Y-110580000D01*
X131886909Y-110492040D01*
X132365001Y-110970133D01*
X132365000Y-116529868D01*
X131556591Y-117338278D01*
X131525551Y-117280206D01*
X131252504Y-116947496D01*
X130919794Y-116674449D01*
X130615441Y-116511769D01*
X130901518Y-116360985D01*
X131233688Y-116091591D01*
X131506919Y-115762570D01*
X131710711Y-115386566D01*
X131798481Y-115148770D01*
X131707775Y-114813000D01*
X129773000Y-114813000D01*
X129773000Y-114833000D01*
X129227000Y-114833000D01*
X129227000Y-114813000D01*
X127292225Y-114813000D01*
X127201519Y-115148770D01*
X127289289Y-115386566D01*
X127493081Y-115762570D01*
X127766312Y-116091591D01*
X128098482Y-116360985D01*
X128384559Y-116511769D01*
X128080206Y-116674449D01*
X127747496Y-116947496D01*
X127474449Y-117280206D01*
X127271556Y-117659791D01*
X127146615Y-118071665D01*
X127104428Y-118500000D01*
X127146615Y-118928335D01*
X127271556Y-119340209D01*
X127474449Y-119719794D01*
X127747496Y-120052504D01*
X128080206Y-120325551D01*
X128369159Y-120480000D01*
X128080206Y-120634449D01*
X127747496Y-120907496D01*
X127474449Y-121240206D01*
X127429126Y-121325000D01*
X123780131Y-121325000D01*
X123613143Y-121158012D01*
X123483622Y-121051717D01*
X123286446Y-120946324D01*
X123072498Y-120881423D01*
X122850000Y-120859509D01*
X122627502Y-120881423D01*
X122413554Y-120946324D01*
X122216378Y-121051717D01*
X122043552Y-121193552D01*
X121901717Y-121366378D01*
X121796324Y-121563554D01*
X121731423Y-121777502D01*
X121709509Y-122000000D01*
X121731423Y-122222498D01*
X121796324Y-122436446D01*
X121901717Y-122633622D01*
X122008012Y-122763143D01*
X122468004Y-123223135D01*
X122503551Y-123266449D01*
X122676377Y-123408284D01*
X122873553Y-123513676D01*
X123087501Y-123578577D01*
X123254248Y-123595000D01*
X123254257Y-123595000D01*
X123309999Y-123600490D01*
X123365741Y-123595000D01*
X127429126Y-123595000D01*
X127474449Y-123679794D01*
X127747496Y-124012504D01*
X128080206Y-124285551D01*
X128369159Y-124440000D01*
X128080206Y-124594449D01*
X127747496Y-124867496D01*
X127474449Y-125200206D01*
X127271556Y-125579791D01*
X127146615Y-125991665D01*
X127104428Y-126420000D01*
X127146615Y-126848335D01*
X127271556Y-127260209D01*
X127474449Y-127639794D01*
X127747496Y-127972504D01*
X128080206Y-128245551D01*
X128459791Y-128448444D01*
X128871665Y-128573385D01*
X129192660Y-128605000D01*
X129807340Y-128605000D01*
X130128335Y-128573385D01*
X130540209Y-128448444D01*
X130919794Y-128245551D01*
X131252504Y-127972504D01*
X131525551Y-127639794D01*
X131728444Y-127260209D01*
X131853385Y-126848335D01*
X131895572Y-126420000D01*
X131853385Y-125991665D01*
X131728444Y-125579791D01*
X131525551Y-125200206D01*
X131252504Y-124867496D01*
X130919794Y-124594449D01*
X130630841Y-124440000D01*
X130919794Y-124285551D01*
X131252504Y-124012504D01*
X131525551Y-123679794D01*
X131728444Y-123300209D01*
X131853385Y-122888335D01*
X131895572Y-122460000D01*
X131853385Y-122031665D01*
X131728444Y-121619791D01*
X131525551Y-121240206D01*
X131252504Y-120907496D01*
X130919794Y-120634449D01*
X130630841Y-120480000D01*
X130919794Y-120325551D01*
X131252504Y-120052504D01*
X131525551Y-119719794D01*
X131570874Y-119635000D01*
X131944249Y-119635000D01*
X132000000Y-119640491D01*
X132055751Y-119635000D01*
X132055752Y-119635000D01*
X132222499Y-119618577D01*
X132436447Y-119553676D01*
X132633623Y-119448284D01*
X132806449Y-119306449D01*
X132841996Y-119263135D01*
X134263140Y-117841992D01*
X134306449Y-117806449D01*
X134448284Y-117633623D01*
X134553676Y-117436447D01*
X134618577Y-117222499D01*
X134635000Y-117055752D01*
X134635000Y-117055743D01*
X134640490Y-117000001D01*
X134635000Y-116944259D01*
X134635000Y-110555751D01*
X134640491Y-110500000D01*
X134618577Y-110277501D01*
X134553676Y-110063553D01*
X134448284Y-109866377D01*
X134417209Y-109828512D01*
X134306449Y-109693551D01*
X134263141Y-109658009D01*
X131841996Y-107236865D01*
X131806449Y-107193551D01*
X131633623Y-107051716D01*
X131436447Y-106946324D01*
X131222499Y-106881423D01*
X131055752Y-106865000D01*
X131055751Y-106865000D01*
X131000000Y-106859509D01*
X130944249Y-106865000D01*
X115755751Y-106865000D01*
X115699999Y-106859509D01*
X115644248Y-106865000D01*
X115477501Y-106881423D01*
X115263553Y-106946324D01*
X115066377Y-107051716D01*
X114893551Y-107193551D01*
X114858009Y-107236860D01*
X113236865Y-108858004D01*
X113193551Y-108893551D01*
X113051716Y-109066377D01*
X112946325Y-109263553D01*
X112946324Y-109263554D01*
X112881423Y-109477502D01*
X112859509Y-109700000D01*
X98928250Y-109700000D01*
X98851250Y-109623000D01*
X98173000Y-109623000D01*
X98173000Y-109643000D01*
X97627000Y-109643000D01*
X97627000Y-109623000D01*
X97607000Y-109623000D01*
X97607000Y-109077000D01*
X97627000Y-109077000D01*
X97627000Y-108423750D01*
X98173000Y-108423750D01*
X98173000Y-109077000D01*
X98851250Y-109077000D01*
X99010000Y-108918250D01*
X99013072Y-108900000D01*
X99000812Y-108775518D01*
X98964502Y-108655820D01*
X98905537Y-108545506D01*
X98826185Y-108448815D01*
X98729494Y-108369463D01*
X98619180Y-108310498D01*
X98499482Y-108274188D01*
X98375000Y-108261928D01*
X98331750Y-108265000D01*
X98173000Y-108423750D01*
X97627000Y-108423750D01*
X97468250Y-108265000D01*
X97441674Y-108263112D01*
X97405537Y-108195506D01*
X97326185Y-108098815D01*
X97229494Y-108019463D01*
X97119180Y-107960498D01*
X96999482Y-107924188D01*
X96875000Y-107911928D01*
X96581750Y-107915000D01*
X96423000Y-108073750D01*
X96423000Y-108777000D01*
X96443000Y-108777000D01*
X96443000Y-109323000D01*
X96423000Y-109323000D01*
X96423000Y-109343000D01*
X95877000Y-109343000D01*
X95877000Y-109323000D01*
X94948750Y-109323000D01*
X94790000Y-109481750D01*
X94786928Y-109550000D01*
X90364834Y-109550000D01*
X90270644Y-109322607D01*
X90113729Y-109087766D01*
X89914014Y-108888051D01*
X89679173Y-108731136D01*
X89418233Y-108623051D01*
X89141220Y-108567950D01*
X88858780Y-108567950D01*
X88581767Y-108623051D01*
X88320827Y-108731136D01*
X88085986Y-108888051D01*
X87886271Y-109087766D01*
X87729356Y-109322607D01*
X87621271Y-109583547D01*
X87566170Y-109860560D01*
X87566170Y-110143000D01*
X87621271Y-110420013D01*
X87729356Y-110680953D01*
X87886271Y-110915794D01*
X87966007Y-110995530D01*
X87788616Y-111172920D01*
X87921225Y-111305529D01*
X87695045Y-111387562D01*
X87600986Y-111653880D01*
X87560690Y-111933431D01*
X82660000Y-111933431D01*
X82660000Y-108550000D01*
X94786928Y-108550000D01*
X94790000Y-108618250D01*
X94948750Y-108777000D01*
X95877000Y-108777000D01*
X95877000Y-108073750D01*
X95718250Y-107915000D01*
X95425000Y-107911928D01*
X95300518Y-107924188D01*
X95180820Y-107960498D01*
X95070506Y-108019463D01*
X94973815Y-108098815D01*
X94894463Y-108195506D01*
X94835498Y-108305820D01*
X94799188Y-108425518D01*
X94786928Y-108550000D01*
X82660000Y-108550000D01*
X82660000Y-104904155D01*
X83021161Y-105444670D01*
X83555330Y-105978839D01*
X84183446Y-106398533D01*
X84881372Y-106687623D01*
X85622285Y-106835000D01*
X86377715Y-106835000D01*
X87118628Y-106687623D01*
X87816554Y-106398533D01*
X88444670Y-105978839D01*
X88823509Y-105600000D01*
X89286928Y-105600000D01*
X89299188Y-105724482D01*
X89335498Y-105844180D01*
X89394463Y-105954494D01*
X89430700Y-105998649D01*
X89352625Y-106144717D01*
X89303512Y-106306623D01*
X89286928Y-106475000D01*
X89286928Y-106925000D01*
X89303512Y-107093377D01*
X89352625Y-107255283D01*
X89432382Y-107404497D01*
X89539716Y-107535284D01*
X89670503Y-107642618D01*
X89757348Y-107689038D01*
X89760033Y-107695521D01*
X89851413Y-107832281D01*
X89967719Y-107948587D01*
X90104479Y-108039967D01*
X90256440Y-108102911D01*
X90417760Y-108135000D01*
X90582240Y-108135000D01*
X90743560Y-108102911D01*
X90895521Y-108039967D01*
X91032281Y-107948587D01*
X91148587Y-107832281D01*
X91175349Y-107792229D01*
X91231614Y-107838405D01*
X91287304Y-107868172D01*
X91367719Y-107948587D01*
X91504479Y-108039967D01*
X91656440Y-108102911D01*
X91817760Y-108135000D01*
X91982240Y-108135000D01*
X92143560Y-108102911D01*
X92295521Y-108039967D01*
X92373187Y-107988072D01*
X92675000Y-107988072D01*
X92848254Y-107971008D01*
X93014850Y-107920472D01*
X93168386Y-107838405D01*
X93302962Y-107727962D01*
X93413405Y-107593386D01*
X93495472Y-107439850D01*
X93546008Y-107273254D01*
X93563072Y-107100000D01*
X93563072Y-106600000D01*
X93546008Y-106426746D01*
X93495472Y-106260150D01*
X93413405Y-106106614D01*
X93302962Y-105972038D01*
X93296406Y-105966658D01*
X93376185Y-105901185D01*
X93455537Y-105804494D01*
X93514502Y-105694180D01*
X93550812Y-105574482D01*
X93563072Y-105450000D01*
X93560000Y-105381750D01*
X93401250Y-105223000D01*
X92473000Y-105223000D01*
X92473000Y-105243000D01*
X91927000Y-105243000D01*
X91927000Y-105223000D01*
X90998750Y-105223000D01*
X90840000Y-105381750D01*
X90838143Y-105423000D01*
X90673000Y-105423000D01*
X90673000Y-105443000D01*
X90127000Y-105443000D01*
X90127000Y-105423000D01*
X89448750Y-105423000D01*
X89290000Y-105581750D01*
X89286928Y-105600000D01*
X88823509Y-105600000D01*
X88978839Y-105444670D01*
X89394436Y-104822686D01*
X89448750Y-104877000D01*
X90127000Y-104877000D01*
X90127000Y-104223750D01*
X90673000Y-104223750D01*
X90673000Y-104877000D01*
X91351250Y-104877000D01*
X91510000Y-104718250D01*
X91513072Y-104700000D01*
X91510807Y-104677000D01*
X91927000Y-104677000D01*
X91927000Y-103973750D01*
X92473000Y-103973750D01*
X92473000Y-104677000D01*
X93401250Y-104677000D01*
X93560000Y-104518250D01*
X93563072Y-104450000D01*
X93550812Y-104325518D01*
X93514502Y-104205820D01*
X93455537Y-104095506D01*
X93376185Y-103998815D01*
X93279494Y-103919463D01*
X93169180Y-103860498D01*
X93049482Y-103824188D01*
X92925000Y-103811928D01*
X92631750Y-103815000D01*
X92473000Y-103973750D01*
X91927000Y-103973750D01*
X91768250Y-103815000D01*
X91475000Y-103811928D01*
X91350518Y-103824188D01*
X91230820Y-103860498D01*
X91120506Y-103919463D01*
X91023815Y-103998815D01*
X90964764Y-104070769D01*
X90875000Y-104061928D01*
X90831750Y-104065000D01*
X90673000Y-104223750D01*
X90127000Y-104223750D01*
X89968250Y-104065000D01*
X89925000Y-104061928D01*
X89800518Y-104074188D01*
X89689781Y-104107780D01*
X89835000Y-103377715D01*
X89835000Y-102622285D01*
X89687623Y-101881372D01*
X89398533Y-101183446D01*
X88978839Y-100555330D01*
X88444670Y-100021161D01*
X87904155Y-99660000D01*
X133095845Y-99660000D01*
X132555330Y-100021161D01*
G37*
G04 #@! TD.AperFunction*
M02*
