M48
; DRILL file {KiCad 5.1.10-88a1d61d58~90~ubuntu20.04.1} date Fri Oct 22 15:46:41 2021
; FORMAT={-:-/ absolute / metric / decimal}
; #@! TF.CreationDate,2021-10-22T15:46:41-05:00
; #@! TF.GenerationSoftware,Kicad,Pcbnew,5.1.10-88a1d61d58~90~ubuntu20.04.1
; #@! TF.FileFunction,Plated,1,2,PTH
FMAT,2
METRIC
T1C0.200
T2C0.400
T3C0.500
T4C0.699
T5C1.700
T6C3.200
%
G90
G05
T1
X87.05Y-117.85
X87.05Y-119.15
X88.34Y-119.15
X88.35Y-117.85
X89.65Y-117.85
X89.65Y-119.15
X90.5Y-107.3
X90.95Y-117.85
X90.95Y-119.15
X91.9Y-107.3
X96.4Y-111.4
X97.9Y-111.4
T2
X84.0Y-109.5
X84.0Y-111.0
X84.0Y-112.5
X84.0Y-114.0
X84.0Y-115.5
X84.0Y-121.0
X84.0Y-123.0
X84.0Y-125.0
X85.5Y-111.0
X85.5Y-112.5
X85.5Y-114.0
X85.5Y-115.5
X91.0Y-131.0
X91.0Y-133.0
X93.0Y-119.0
X93.0Y-131.0
X93.0Y-133.0
X94.5Y-119.0
X96.0Y-117.0
X96.0Y-118.0
X97.0Y-129.0
X97.5Y-117.0
X97.5Y-118.0
X99.0Y-117.0
X99.0Y-118.0
X102.0Y-129.0
X106.0Y-131.0
X106.0Y-133.0
X107.0Y-111.0
X107.0Y-113.0
X107.0Y-115.0
X107.0Y-117.0
X107.0Y-119.0
X107.0Y-121.0
X108.0Y-129.0
X109.0Y-111.0
X109.0Y-113.0
X109.0Y-115.0
X109.0Y-117.0
X109.0Y-119.0
X109.0Y-121.0
X110.0Y-129.0
X111.0Y-111.0
X111.0Y-113.0
X111.0Y-115.0
X111.0Y-117.0
X111.0Y-119.0
X111.0Y-121.0
X112.0Y-129.0
X114.0Y-101.0
X114.0Y-129.0
X117.0Y-101.0
X120.0Y-101.0
X121.0Y-110.0
X121.0Y-112.0
X121.0Y-117.0
X121.0Y-119.0
X121.0Y-121.0
X121.0Y-123.0
X122.85Y-122.0
X123.0Y-101.0
X126.0Y-101.0
X129.0Y-101.0
X133.0Y-120.0
X133.0Y-122.0
X133.0Y-124.0
T3
X83.6Y-103.0
X83.6Y-131.0
X84.303Y-101.303
X84.303Y-104.697
X84.303Y-129.303
X84.303Y-132.697
X86.0Y-100.6
X86.0Y-105.4
X86.0Y-128.6
X86.0Y-133.4
X87.697Y-101.303
X87.697Y-104.697
X87.697Y-129.303
X87.697Y-132.697
X88.4Y-103.0
X88.4Y-131.0
X132.6Y-103.0
X132.6Y-131.0
X133.303Y-101.303
X133.303Y-104.697
X133.303Y-129.303
X133.303Y-132.697
X135.0Y-100.6
X135.0Y-105.4
X135.0Y-128.6
X135.0Y-133.4
X136.697Y-101.303
X136.697Y-104.697
X136.697Y-129.303
X136.697Y-132.697
X137.4Y-103.0
X137.4Y-131.0
T4
X89.0Y-110.002
X89.0Y-111.998
T5
X117.5Y-110.58
X117.5Y-114.54
X117.5Y-118.5
X117.5Y-122.46
X117.5Y-126.42
X129.5Y-110.58
X129.5Y-114.54
X129.5Y-118.5
X129.5Y-122.46
X129.5Y-126.42
T6
X86.0Y-103.0
X86.0Y-131.0
X135.0Y-103.0
X135.0Y-131.0
T0
M30
