%TF.GenerationSoftware,KiCad,Pcbnew,5.1.10-88a1d61d58~88~ubuntu20.04.1*%
%TF.CreationDate,2021-06-25T13:29:56-05:00*%
%TF.ProjectId,MiOrigin,4d694f72-6967-4696-9e2e-6b696361645f,rev?*%
%TF.SameCoordinates,Original*%
%TF.FileFunction,Paste,Top*%
%TF.FilePolarity,Positive*%
%FSLAX46Y46*%
G04 Gerber Fmt 4.6, Leading zero omitted, Abs format (unit mm)*
G04 Created by KiCad (PCBNEW 5.1.10-88a1d61d58~88~ubuntu20.04.1) date 2021-06-25 13:29:56*
%MOMM*%
%LPD*%
G01*
G04 APERTURE LIST*
%TA.AperFunction,Profile*%
%ADD10C,0.010000*%
%TD*%
%ADD11C,0.010000*%
%ADD12R,0.260000X0.970000*%
%ADD13R,0.970000X0.260000*%
%ADD14R,0.760000X0.270000*%
%ADD15R,1.200000X1.400000*%
%ADD16R,2.000000X0.700000*%
%ADD17R,2.600000X1.000000*%
%ADD18R,2.600000X1.500000*%
%ADD19R,1.400000X2.700000*%
%ADD20R,1.200000X1.200000*%
%ADD21R,2.060000X0.600000*%
%ADD22R,0.400000X0.650000*%
%ADD23R,1.060000X0.650000*%
%ADD24R,1.300000X0.600000*%
%ADD25R,1.400000X2.100000*%
%ADD26R,0.600000X1.300000*%
%ADD27R,0.900000X2.000000*%
%ADD28R,2.000000X0.900000*%
%ADD29R,5.000000X5.000000*%
G04 APERTURE END LIST*
D10*
X125580000Y-143500000D02*
G75*
G02*
X124580000Y-142500000I0J1000000D01*
G01*
X180920000Y-142500000D02*
G75*
G02*
X179920000Y-143500000I-1000000J0D01*
G01*
X179920000Y-45500000D02*
G75*
G02*
X180920000Y-46500000I0J-1000000D01*
G01*
X124580000Y-46500000D02*
G75*
G02*
X125580000Y-45500000I1000000J0D01*
G01*
X124580000Y-142500000D02*
X124580000Y-46500000D01*
X180920000Y-142500000D02*
X180920000Y-46500000D01*
X179920000Y-143500000D02*
X125580000Y-143500000D01*
X125580000Y-45500000D02*
X179920000Y-45500000D01*
D11*
%TO.C,U2*%
G36*
X140050000Y-63200000D02*
G01*
X138050000Y-63200000D01*
X138050000Y-61200000D01*
X140050000Y-61200000D01*
X140050000Y-63200000D01*
G37*
X140050000Y-63200000D02*
X138050000Y-63200000D01*
X138050000Y-61200000D01*
X140050000Y-61200000D01*
X140050000Y-63200000D01*
%TO.C,U6*%
G36*
X167695000Y-67040000D02*
G01*
X168255000Y-67040000D01*
X168255000Y-67860000D01*
X167695000Y-67860000D01*
X167695000Y-67040000D01*
G37*
X167695000Y-67040000D02*
X168255000Y-67040000D01*
X168255000Y-67860000D01*
X167695000Y-67860000D01*
X167695000Y-67040000D01*
%TD*%
%TO.C,C19*%
G36*
G01*
X144350000Y-59875000D02*
X144350000Y-58925000D01*
G75*
G02*
X144600000Y-58675000I250000J0D01*
G01*
X145100000Y-58675000D01*
G75*
G02*
X145350000Y-58925000I0J-250000D01*
G01*
X145350000Y-59875000D01*
G75*
G02*
X145100000Y-60125000I-250000J0D01*
G01*
X144600000Y-60125000D01*
G75*
G02*
X144350000Y-59875000I0J250000D01*
G01*
G37*
G36*
G01*
X142450000Y-59875000D02*
X142450000Y-58925000D01*
G75*
G02*
X142700000Y-58675000I250000J0D01*
G01*
X143200000Y-58675000D01*
G75*
G02*
X143450000Y-58925000I0J-250000D01*
G01*
X143450000Y-59875000D01*
G75*
G02*
X143200000Y-60125000I-250000J0D01*
G01*
X142700000Y-60125000D01*
G75*
G02*
X142450000Y-59875000I0J250000D01*
G01*
G37*
%TD*%
D12*
%TO.C,U2*%
X140550000Y-59830000D03*
X140050000Y-59830000D03*
X139550000Y-59830000D03*
X139050000Y-59830000D03*
X138550000Y-59830000D03*
X138050000Y-59830000D03*
X137550000Y-59830000D03*
X137550000Y-64570000D03*
X138050000Y-64570000D03*
X138550000Y-64570000D03*
X139050000Y-64570000D03*
X139550000Y-64570000D03*
X140050000Y-64570000D03*
X140550000Y-64570000D03*
D13*
X141420000Y-63700000D03*
X141420000Y-63200000D03*
X141420000Y-62700000D03*
X141420000Y-62200000D03*
X141420000Y-61700000D03*
X141420000Y-61200000D03*
X141420000Y-60700000D03*
X136680000Y-60700000D03*
X136680000Y-61200000D03*
X136680000Y-61700000D03*
X136680000Y-62200000D03*
X136680000Y-62700000D03*
X136680000Y-63200000D03*
X136680000Y-63700000D03*
%TD*%
%TO.C,C18*%
G36*
G01*
X144100000Y-61450000D02*
X144100000Y-60950000D01*
G75*
G02*
X144325000Y-60725000I225000J0D01*
G01*
X144775000Y-60725000D01*
G75*
G02*
X145000000Y-60950000I0J-225000D01*
G01*
X145000000Y-61450000D01*
G75*
G02*
X144775000Y-61675000I-225000J0D01*
G01*
X144325000Y-61675000D01*
G75*
G02*
X144100000Y-61450000I0J225000D01*
G01*
G37*
G36*
G01*
X142550000Y-61450000D02*
X142550000Y-60950000D01*
G75*
G02*
X142775000Y-60725000I225000J0D01*
G01*
X143225000Y-60725000D01*
G75*
G02*
X143450000Y-60950000I0J-225000D01*
G01*
X143450000Y-61450000D01*
G75*
G02*
X143225000Y-61675000I-225000J0D01*
G01*
X142775000Y-61675000D01*
G75*
G02*
X142550000Y-61450000I0J225000D01*
G01*
G37*
%TD*%
%TO.C,C10*%
G36*
G01*
X141600000Y-57200000D02*
X141100000Y-57200000D01*
G75*
G02*
X140875000Y-56975000I0J225000D01*
G01*
X140875000Y-56525000D01*
G75*
G02*
X141100000Y-56300000I225000J0D01*
G01*
X141600000Y-56300000D01*
G75*
G02*
X141825000Y-56525000I0J-225000D01*
G01*
X141825000Y-56975000D01*
G75*
G02*
X141600000Y-57200000I-225000J0D01*
G01*
G37*
G36*
G01*
X141600000Y-58750000D02*
X141100000Y-58750000D01*
G75*
G02*
X140875000Y-58525000I0J225000D01*
G01*
X140875000Y-58075000D01*
G75*
G02*
X141100000Y-57850000I225000J0D01*
G01*
X141600000Y-57850000D01*
G75*
G02*
X141825000Y-58075000I0J-225000D01*
G01*
X141825000Y-58525000D01*
G75*
G02*
X141600000Y-58750000I-225000J0D01*
G01*
G37*
%TD*%
%TO.C,U7*%
G36*
G01*
X165240000Y-118920000D02*
X165240000Y-119120000D01*
G75*
G02*
X165140000Y-119220000I-100000J0D01*
G01*
X163865000Y-119220000D01*
G75*
G02*
X163765000Y-119120000I0J100000D01*
G01*
X163765000Y-118920000D01*
G75*
G02*
X163865000Y-118820000I100000J0D01*
G01*
X165140000Y-118820000D01*
G75*
G02*
X165240000Y-118920000I0J-100000D01*
G01*
G37*
G36*
G01*
X165240000Y-118270000D02*
X165240000Y-118470000D01*
G75*
G02*
X165140000Y-118570000I-100000J0D01*
G01*
X163865000Y-118570000D01*
G75*
G02*
X163765000Y-118470000I0J100000D01*
G01*
X163765000Y-118270000D01*
G75*
G02*
X163865000Y-118170000I100000J0D01*
G01*
X165140000Y-118170000D01*
G75*
G02*
X165240000Y-118270000I0J-100000D01*
G01*
G37*
G36*
G01*
X165240000Y-117620000D02*
X165240000Y-117820000D01*
G75*
G02*
X165140000Y-117920000I-100000J0D01*
G01*
X163865000Y-117920000D01*
G75*
G02*
X163765000Y-117820000I0J100000D01*
G01*
X163765000Y-117620000D01*
G75*
G02*
X163865000Y-117520000I100000J0D01*
G01*
X165140000Y-117520000D01*
G75*
G02*
X165240000Y-117620000I0J-100000D01*
G01*
G37*
G36*
G01*
X165240000Y-116970000D02*
X165240000Y-117170000D01*
G75*
G02*
X165140000Y-117270000I-100000J0D01*
G01*
X163865000Y-117270000D01*
G75*
G02*
X163765000Y-117170000I0J100000D01*
G01*
X163765000Y-116970000D01*
G75*
G02*
X163865000Y-116870000I100000J0D01*
G01*
X165140000Y-116870000D01*
G75*
G02*
X165240000Y-116970000I0J-100000D01*
G01*
G37*
G36*
G01*
X165240000Y-116320000D02*
X165240000Y-116520000D01*
G75*
G02*
X165140000Y-116620000I-100000J0D01*
G01*
X163865000Y-116620000D01*
G75*
G02*
X163765000Y-116520000I0J100000D01*
G01*
X163765000Y-116320000D01*
G75*
G02*
X163865000Y-116220000I100000J0D01*
G01*
X165140000Y-116220000D01*
G75*
G02*
X165240000Y-116320000I0J-100000D01*
G01*
G37*
G36*
G01*
X165240000Y-115670000D02*
X165240000Y-115870000D01*
G75*
G02*
X165140000Y-115970000I-100000J0D01*
G01*
X163865000Y-115970000D01*
G75*
G02*
X163765000Y-115870000I0J100000D01*
G01*
X163765000Y-115670000D01*
G75*
G02*
X163865000Y-115570000I100000J0D01*
G01*
X165140000Y-115570000D01*
G75*
G02*
X165240000Y-115670000I0J-100000D01*
G01*
G37*
G36*
G01*
X165240000Y-115020000D02*
X165240000Y-115220000D01*
G75*
G02*
X165140000Y-115320000I-100000J0D01*
G01*
X163865000Y-115320000D01*
G75*
G02*
X163765000Y-115220000I0J100000D01*
G01*
X163765000Y-115020000D01*
G75*
G02*
X163865000Y-114920000I100000J0D01*
G01*
X165140000Y-114920000D01*
G75*
G02*
X165240000Y-115020000I0J-100000D01*
G01*
G37*
G36*
G01*
X159515000Y-115020000D02*
X159515000Y-115220000D01*
G75*
G02*
X159415000Y-115320000I-100000J0D01*
G01*
X158140000Y-115320000D01*
G75*
G02*
X158040000Y-115220000I0J100000D01*
G01*
X158040000Y-115020000D01*
G75*
G02*
X158140000Y-114920000I100000J0D01*
G01*
X159415000Y-114920000D01*
G75*
G02*
X159515000Y-115020000I0J-100000D01*
G01*
G37*
G36*
G01*
X159515000Y-115670000D02*
X159515000Y-115870000D01*
G75*
G02*
X159415000Y-115970000I-100000J0D01*
G01*
X158140000Y-115970000D01*
G75*
G02*
X158040000Y-115870000I0J100000D01*
G01*
X158040000Y-115670000D01*
G75*
G02*
X158140000Y-115570000I100000J0D01*
G01*
X159415000Y-115570000D01*
G75*
G02*
X159515000Y-115670000I0J-100000D01*
G01*
G37*
G36*
G01*
X159515000Y-116320000D02*
X159515000Y-116520000D01*
G75*
G02*
X159415000Y-116620000I-100000J0D01*
G01*
X158140000Y-116620000D01*
G75*
G02*
X158040000Y-116520000I0J100000D01*
G01*
X158040000Y-116320000D01*
G75*
G02*
X158140000Y-116220000I100000J0D01*
G01*
X159415000Y-116220000D01*
G75*
G02*
X159515000Y-116320000I0J-100000D01*
G01*
G37*
G36*
G01*
X159515000Y-116970000D02*
X159515000Y-117170000D01*
G75*
G02*
X159415000Y-117270000I-100000J0D01*
G01*
X158140000Y-117270000D01*
G75*
G02*
X158040000Y-117170000I0J100000D01*
G01*
X158040000Y-116970000D01*
G75*
G02*
X158140000Y-116870000I100000J0D01*
G01*
X159415000Y-116870000D01*
G75*
G02*
X159515000Y-116970000I0J-100000D01*
G01*
G37*
G36*
G01*
X159515000Y-117620000D02*
X159515000Y-117820000D01*
G75*
G02*
X159415000Y-117920000I-100000J0D01*
G01*
X158140000Y-117920000D01*
G75*
G02*
X158040000Y-117820000I0J100000D01*
G01*
X158040000Y-117620000D01*
G75*
G02*
X158140000Y-117520000I100000J0D01*
G01*
X159415000Y-117520000D01*
G75*
G02*
X159515000Y-117620000I0J-100000D01*
G01*
G37*
G36*
G01*
X159515000Y-118270000D02*
X159515000Y-118470000D01*
G75*
G02*
X159415000Y-118570000I-100000J0D01*
G01*
X158140000Y-118570000D01*
G75*
G02*
X158040000Y-118470000I0J100000D01*
G01*
X158040000Y-118270000D01*
G75*
G02*
X158140000Y-118170000I100000J0D01*
G01*
X159415000Y-118170000D01*
G75*
G02*
X159515000Y-118270000I0J-100000D01*
G01*
G37*
G36*
G01*
X159515000Y-118920000D02*
X159515000Y-119120000D01*
G75*
G02*
X159415000Y-119220000I-100000J0D01*
G01*
X158140000Y-119220000D01*
G75*
G02*
X158040000Y-119120000I0J100000D01*
G01*
X158040000Y-118920000D01*
G75*
G02*
X158140000Y-118820000I100000J0D01*
G01*
X159415000Y-118820000D01*
G75*
G02*
X159515000Y-118920000I0J-100000D01*
G01*
G37*
%TD*%
D14*
%TO.C,U6*%
X168960000Y-66700000D03*
X168960000Y-67200000D03*
X168960000Y-67700000D03*
X168960000Y-68200000D03*
X166990000Y-68200000D03*
X166990000Y-67700000D03*
X166990000Y-67200000D03*
X166990000Y-66700000D03*
%TD*%
D15*
%TO.C,S3*%
X169210800Y-55716600D03*
X169210800Y-62716600D03*
%TD*%
%TO.C,S2*%
X174595600Y-55711400D03*
X174595600Y-62711400D03*
%TD*%
D16*
%TO.C,J3*%
X145886800Y-128946400D03*
X145886800Y-127846400D03*
X145886800Y-126746400D03*
X145886800Y-125646400D03*
X145886800Y-124546400D03*
X145886800Y-123446400D03*
X145886800Y-122346400D03*
X145886800Y-121246400D03*
D17*
X145386800Y-131046400D03*
D18*
X145386800Y-117696400D03*
D19*
X133186800Y-122646400D03*
X133186800Y-127546400D03*
D20*
X133086800Y-119596400D03*
%TD*%
%TO.C,C11*%
G36*
G01*
X159550000Y-121250000D02*
X159550000Y-120750000D01*
G75*
G02*
X159775000Y-120525000I225000J0D01*
G01*
X160225000Y-120525000D01*
G75*
G02*
X160450000Y-120750000I0J-225000D01*
G01*
X160450000Y-121250000D01*
G75*
G02*
X160225000Y-121475000I-225000J0D01*
G01*
X159775000Y-121475000D01*
G75*
G02*
X159550000Y-121250000I0J225000D01*
G01*
G37*
G36*
G01*
X158000000Y-121250000D02*
X158000000Y-120750000D01*
G75*
G02*
X158225000Y-120525000I225000J0D01*
G01*
X158675000Y-120525000D01*
G75*
G02*
X158900000Y-120750000I0J-225000D01*
G01*
X158900000Y-121250000D01*
G75*
G02*
X158675000Y-121475000I-225000J0D01*
G01*
X158225000Y-121475000D01*
G75*
G02*
X158000000Y-121250000I0J225000D01*
G01*
G37*
%TD*%
%TO.C,C8*%
G36*
G01*
X165050000Y-68000000D02*
X165050000Y-67500000D01*
G75*
G02*
X165275000Y-67275000I225000J0D01*
G01*
X165725000Y-67275000D01*
G75*
G02*
X165950000Y-67500000I0J-225000D01*
G01*
X165950000Y-68000000D01*
G75*
G02*
X165725000Y-68225000I-225000J0D01*
G01*
X165275000Y-68225000D01*
G75*
G02*
X165050000Y-68000000I0J225000D01*
G01*
G37*
G36*
G01*
X163500000Y-68000000D02*
X163500000Y-67500000D01*
G75*
G02*
X163725000Y-67275000I225000J0D01*
G01*
X164175000Y-67275000D01*
G75*
G02*
X164400000Y-67500000I0J-225000D01*
G01*
X164400000Y-68000000D01*
G75*
G02*
X164175000Y-68225000I-225000J0D01*
G01*
X163725000Y-68225000D01*
G75*
G02*
X163500000Y-68000000I0J225000D01*
G01*
G37*
%TD*%
%TO.C,C4*%
G36*
G01*
X156300000Y-74550000D02*
X155800000Y-74550000D01*
G75*
G02*
X155575000Y-74325000I0J225000D01*
G01*
X155575000Y-73875000D01*
G75*
G02*
X155800000Y-73650000I225000J0D01*
G01*
X156300000Y-73650000D01*
G75*
G02*
X156525000Y-73875000I0J-225000D01*
G01*
X156525000Y-74325000D01*
G75*
G02*
X156300000Y-74550000I-225000J0D01*
G01*
G37*
G36*
G01*
X156300000Y-76100000D02*
X155800000Y-76100000D01*
G75*
G02*
X155575000Y-75875000I0J225000D01*
G01*
X155575000Y-75425000D01*
G75*
G02*
X155800000Y-75200000I225000J0D01*
G01*
X156300000Y-75200000D01*
G75*
G02*
X156525000Y-75425000I0J-225000D01*
G01*
X156525000Y-75875000D01*
G75*
G02*
X156300000Y-76100000I-225000J0D01*
G01*
G37*
%TD*%
%TO.C,C2*%
G36*
G01*
X154681000Y-63346000D02*
X155631000Y-63346000D01*
G75*
G02*
X155881000Y-63596000I0J-250000D01*
G01*
X155881000Y-64096000D01*
G75*
G02*
X155631000Y-64346000I-250000J0D01*
G01*
X154681000Y-64346000D01*
G75*
G02*
X154431000Y-64096000I0J250000D01*
G01*
X154431000Y-63596000D01*
G75*
G02*
X154681000Y-63346000I250000J0D01*
G01*
G37*
G36*
G01*
X154681000Y-61446000D02*
X155631000Y-61446000D01*
G75*
G02*
X155881000Y-61696000I0J-250000D01*
G01*
X155881000Y-62196000D01*
G75*
G02*
X155631000Y-62446000I-250000J0D01*
G01*
X154681000Y-62446000D01*
G75*
G02*
X154431000Y-62196000I0J250000D01*
G01*
X154431000Y-61696000D01*
G75*
G02*
X154681000Y-61446000I250000J0D01*
G01*
G37*
%TD*%
D21*
%TO.C,U8*%
X148690000Y-73510000D03*
X148690000Y-74780000D03*
X148690000Y-76050000D03*
X148690000Y-77320000D03*
X148690000Y-78590000D03*
X148690000Y-79860000D03*
X148690000Y-81130000D03*
X148690000Y-82400000D03*
X139410000Y-82400000D03*
X139410000Y-81130000D03*
X139410000Y-79860000D03*
X139410000Y-78590000D03*
X139410000Y-77320000D03*
X139410000Y-76050000D03*
X139410000Y-74780000D03*
X139410000Y-73510000D03*
%TD*%
%TO.C,C7*%
G36*
G01*
X174975000Y-75500001D02*
X174975000Y-74199999D01*
G75*
G02*
X175224999Y-73950000I249999J0D01*
G01*
X175875001Y-73950000D01*
G75*
G02*
X176125000Y-74199999I0J-249999D01*
G01*
X176125000Y-75500001D01*
G75*
G02*
X175875001Y-75750000I-249999J0D01*
G01*
X175224999Y-75750000D01*
G75*
G02*
X174975000Y-75500001I0J249999D01*
G01*
G37*
G36*
G01*
X172025000Y-75500001D02*
X172025000Y-74199999D01*
G75*
G02*
X172274999Y-73950000I249999J0D01*
G01*
X172925001Y-73950000D01*
G75*
G02*
X173175000Y-74199999I0J-249999D01*
G01*
X173175000Y-75500001D01*
G75*
G02*
X172925001Y-75750000I-249999J0D01*
G01*
X172274999Y-75750000D01*
G75*
G02*
X172025000Y-75500001I0J249999D01*
G01*
G37*
%TD*%
%TO.C,C3*%
G36*
G01*
X161031000Y-63224000D02*
X161981000Y-63224000D01*
G75*
G02*
X162231000Y-63474000I0J-250000D01*
G01*
X162231000Y-63974000D01*
G75*
G02*
X161981000Y-64224000I-250000J0D01*
G01*
X161031000Y-64224000D01*
G75*
G02*
X160781000Y-63974000I0J250000D01*
G01*
X160781000Y-63474000D01*
G75*
G02*
X161031000Y-63224000I250000J0D01*
G01*
G37*
G36*
G01*
X161031000Y-61324000D02*
X161981000Y-61324000D01*
G75*
G02*
X162231000Y-61574000I0J-250000D01*
G01*
X162231000Y-62074000D01*
G75*
G02*
X161981000Y-62324000I-250000J0D01*
G01*
X161031000Y-62324000D01*
G75*
G02*
X160781000Y-62074000I0J250000D01*
G01*
X160781000Y-61574000D01*
G75*
G02*
X161031000Y-61324000I250000J0D01*
G01*
G37*
%TD*%
%TO.C,R17*%
G36*
G01*
X161365000Y-138905600D02*
X161915000Y-138905600D01*
G75*
G02*
X162115000Y-139105600I0J-200000D01*
G01*
X162115000Y-139505600D01*
G75*
G02*
X161915000Y-139705600I-200000J0D01*
G01*
X161365000Y-139705600D01*
G75*
G02*
X161165000Y-139505600I0J200000D01*
G01*
X161165000Y-139105600D01*
G75*
G02*
X161365000Y-138905600I200000J0D01*
G01*
G37*
G36*
G01*
X161365000Y-137255600D02*
X161915000Y-137255600D01*
G75*
G02*
X162115000Y-137455600I0J-200000D01*
G01*
X162115000Y-137855600D01*
G75*
G02*
X161915000Y-138055600I-200000J0D01*
G01*
X161365000Y-138055600D01*
G75*
G02*
X161165000Y-137855600I0J200000D01*
G01*
X161165000Y-137455600D01*
G75*
G02*
X161365000Y-137255600I200000J0D01*
G01*
G37*
%TD*%
%TO.C,R16*%
G36*
G01*
X151205000Y-138892400D02*
X151755000Y-138892400D01*
G75*
G02*
X151955000Y-139092400I0J-200000D01*
G01*
X151955000Y-139492400D01*
G75*
G02*
X151755000Y-139692400I-200000J0D01*
G01*
X151205000Y-139692400D01*
G75*
G02*
X151005000Y-139492400I0J200000D01*
G01*
X151005000Y-139092400D01*
G75*
G02*
X151205000Y-138892400I200000J0D01*
G01*
G37*
G36*
G01*
X151205000Y-137242400D02*
X151755000Y-137242400D01*
G75*
G02*
X151955000Y-137442400I0J-200000D01*
G01*
X151955000Y-137842400D01*
G75*
G02*
X151755000Y-138042400I-200000J0D01*
G01*
X151205000Y-138042400D01*
G75*
G02*
X151005000Y-137842400I0J200000D01*
G01*
X151005000Y-137442400D01*
G75*
G02*
X151205000Y-137242400I200000J0D01*
G01*
G37*
%TD*%
D22*
%TO.C,Q1*%
X148034800Y-64262600D03*
X149334800Y-64262600D03*
X148684800Y-66162600D03*
X148684800Y-64262600D03*
X149334800Y-66162600D03*
X148034800Y-66162600D03*
%TD*%
%TO.C,C9*%
G36*
G01*
X169510000Y-138104000D02*
X169010000Y-138104000D01*
G75*
G02*
X168785000Y-137879000I0J225000D01*
G01*
X168785000Y-137429000D01*
G75*
G02*
X169010000Y-137204000I225000J0D01*
G01*
X169510000Y-137204000D01*
G75*
G02*
X169735000Y-137429000I0J-225000D01*
G01*
X169735000Y-137879000D01*
G75*
G02*
X169510000Y-138104000I-225000J0D01*
G01*
G37*
G36*
G01*
X169510000Y-139654000D02*
X169010000Y-139654000D01*
G75*
G02*
X168785000Y-139429000I0J225000D01*
G01*
X168785000Y-138979000D01*
G75*
G02*
X169010000Y-138754000I225000J0D01*
G01*
X169510000Y-138754000D01*
G75*
G02*
X169735000Y-138979000I0J-225000D01*
G01*
X169735000Y-139429000D01*
G75*
G02*
X169510000Y-139654000I-225000J0D01*
G01*
G37*
%TD*%
%TO.C,R7*%
G36*
G01*
X144829600Y-49878600D02*
X145379600Y-49878600D01*
G75*
G02*
X145579600Y-50078600I0J-200000D01*
G01*
X145579600Y-50478600D01*
G75*
G02*
X145379600Y-50678600I-200000J0D01*
G01*
X144829600Y-50678600D01*
G75*
G02*
X144629600Y-50478600I0J200000D01*
G01*
X144629600Y-50078600D01*
G75*
G02*
X144829600Y-49878600I200000J0D01*
G01*
G37*
G36*
G01*
X144829600Y-51528600D02*
X145379600Y-51528600D01*
G75*
G02*
X145579600Y-51728600I0J-200000D01*
G01*
X145579600Y-52128600D01*
G75*
G02*
X145379600Y-52328600I-200000J0D01*
G01*
X144829600Y-52328600D01*
G75*
G02*
X144629600Y-52128600I0J200000D01*
G01*
X144629600Y-51728600D01*
G75*
G02*
X144829600Y-51528600I200000J0D01*
G01*
G37*
%TD*%
%TO.C,R14*%
G36*
G01*
X167500000Y-52825000D02*
X167500000Y-53375000D01*
G75*
G02*
X167300000Y-53575000I-200000J0D01*
G01*
X166900000Y-53575000D01*
G75*
G02*
X166700000Y-53375000I0J200000D01*
G01*
X166700000Y-52825000D01*
G75*
G02*
X166900000Y-52625000I200000J0D01*
G01*
X167300000Y-52625000D01*
G75*
G02*
X167500000Y-52825000I0J-200000D01*
G01*
G37*
G36*
G01*
X169150000Y-52825000D02*
X169150000Y-53375000D01*
G75*
G02*
X168950000Y-53575000I-200000J0D01*
G01*
X168550000Y-53575000D01*
G75*
G02*
X168350000Y-53375000I0J200000D01*
G01*
X168350000Y-52825000D01*
G75*
G02*
X168550000Y-52625000I200000J0D01*
G01*
X168950000Y-52625000D01*
G75*
G02*
X169150000Y-52825000I0J-200000D01*
G01*
G37*
%TD*%
%TO.C,C17*%
G36*
G01*
X137000000Y-81575000D02*
X137500000Y-81575000D01*
G75*
G02*
X137725000Y-81800000I0J-225000D01*
G01*
X137725000Y-82250000D01*
G75*
G02*
X137500000Y-82475000I-225000J0D01*
G01*
X137000000Y-82475000D01*
G75*
G02*
X136775000Y-82250000I0J225000D01*
G01*
X136775000Y-81800000D01*
G75*
G02*
X137000000Y-81575000I225000J0D01*
G01*
G37*
G36*
G01*
X137000000Y-80025000D02*
X137500000Y-80025000D01*
G75*
G02*
X137725000Y-80250000I0J-225000D01*
G01*
X137725000Y-80700000D01*
G75*
G02*
X137500000Y-80925000I-225000J0D01*
G01*
X137000000Y-80925000D01*
G75*
G02*
X136775000Y-80700000I0J225000D01*
G01*
X136775000Y-80250000D01*
G75*
G02*
X137000000Y-80025000I225000J0D01*
G01*
G37*
%TD*%
%TO.C,C16*%
G36*
G01*
X137510000Y-73960000D02*
X137010000Y-73960000D01*
G75*
G02*
X136785000Y-73735000I0J225000D01*
G01*
X136785000Y-73285000D01*
G75*
G02*
X137010000Y-73060000I225000J0D01*
G01*
X137510000Y-73060000D01*
G75*
G02*
X137735000Y-73285000I0J-225000D01*
G01*
X137735000Y-73735000D01*
G75*
G02*
X137510000Y-73960000I-225000J0D01*
G01*
G37*
G36*
G01*
X137510000Y-75510000D02*
X137010000Y-75510000D01*
G75*
G02*
X136785000Y-75285000I0J225000D01*
G01*
X136785000Y-74835000D01*
G75*
G02*
X137010000Y-74610000I225000J0D01*
G01*
X137510000Y-74610000D01*
G75*
G02*
X137735000Y-74835000I0J-225000D01*
G01*
X137735000Y-75285000D01*
G75*
G02*
X137510000Y-75510000I-225000J0D01*
G01*
G37*
%TD*%
%TO.C,C15*%
G36*
G01*
X137010000Y-78140000D02*
X137510000Y-78140000D01*
G75*
G02*
X137735000Y-78365000I0J-225000D01*
G01*
X137735000Y-78815000D01*
G75*
G02*
X137510000Y-79040000I-225000J0D01*
G01*
X137010000Y-79040000D01*
G75*
G02*
X136785000Y-78815000I0J225000D01*
G01*
X136785000Y-78365000D01*
G75*
G02*
X137010000Y-78140000I225000J0D01*
G01*
G37*
G36*
G01*
X137010000Y-76590000D02*
X137510000Y-76590000D01*
G75*
G02*
X137735000Y-76815000I0J-225000D01*
G01*
X137735000Y-77265000D01*
G75*
G02*
X137510000Y-77490000I-225000J0D01*
G01*
X137010000Y-77490000D01*
G75*
G02*
X136785000Y-77265000I0J225000D01*
G01*
X136785000Y-76815000D01*
G75*
G02*
X137010000Y-76590000I225000J0D01*
G01*
G37*
%TD*%
%TO.C,C14*%
G36*
G01*
X139858000Y-71728000D02*
X139858000Y-71228000D01*
G75*
G02*
X140083000Y-71003000I225000J0D01*
G01*
X140533000Y-71003000D01*
G75*
G02*
X140758000Y-71228000I0J-225000D01*
G01*
X140758000Y-71728000D01*
G75*
G02*
X140533000Y-71953000I-225000J0D01*
G01*
X140083000Y-71953000D01*
G75*
G02*
X139858000Y-71728000I0J225000D01*
G01*
G37*
G36*
G01*
X138308000Y-71728000D02*
X138308000Y-71228000D01*
G75*
G02*
X138533000Y-71003000I225000J0D01*
G01*
X138983000Y-71003000D01*
G75*
G02*
X139208000Y-71228000I0J-225000D01*
G01*
X139208000Y-71728000D01*
G75*
G02*
X138983000Y-71953000I-225000J0D01*
G01*
X138533000Y-71953000D01*
G75*
G02*
X138308000Y-71728000I0J225000D01*
G01*
G37*
%TD*%
%TO.C,C13*%
G36*
G01*
X150700000Y-74610000D02*
X151200000Y-74610000D01*
G75*
G02*
X151425000Y-74835000I0J-225000D01*
G01*
X151425000Y-75285000D01*
G75*
G02*
X151200000Y-75510000I-225000J0D01*
G01*
X150700000Y-75510000D01*
G75*
G02*
X150475000Y-75285000I0J225000D01*
G01*
X150475000Y-74835000D01*
G75*
G02*
X150700000Y-74610000I225000J0D01*
G01*
G37*
G36*
G01*
X150700000Y-73060000D02*
X151200000Y-73060000D01*
G75*
G02*
X151425000Y-73285000I0J-225000D01*
G01*
X151425000Y-73735000D01*
G75*
G02*
X151200000Y-73960000I-225000J0D01*
G01*
X150700000Y-73960000D01*
G75*
G02*
X150475000Y-73735000I0J225000D01*
G01*
X150475000Y-73285000D01*
G75*
G02*
X150700000Y-73060000I225000J0D01*
G01*
G37*
%TD*%
%TO.C,C12*%
G36*
G01*
X172177000Y-89222000D02*
X171677000Y-89222000D01*
G75*
G02*
X171452000Y-88997000I0J225000D01*
G01*
X171452000Y-88547000D01*
G75*
G02*
X171677000Y-88322000I225000J0D01*
G01*
X172177000Y-88322000D01*
G75*
G02*
X172402000Y-88547000I0J-225000D01*
G01*
X172402000Y-88997000D01*
G75*
G02*
X172177000Y-89222000I-225000J0D01*
G01*
G37*
G36*
G01*
X172177000Y-90772000D02*
X171677000Y-90772000D01*
G75*
G02*
X171452000Y-90547000I0J225000D01*
G01*
X171452000Y-90097000D01*
G75*
G02*
X171677000Y-89872000I225000J0D01*
G01*
X172177000Y-89872000D01*
G75*
G02*
X172402000Y-90097000I0J-225000D01*
G01*
X172402000Y-90547000D01*
G75*
G02*
X172177000Y-90772000I-225000J0D01*
G01*
G37*
%TD*%
D23*
%TO.C,U3*%
X159558000Y-63912000D03*
X159558000Y-62962000D03*
X159558000Y-62012000D03*
X157358000Y-62012000D03*
X157358000Y-63912000D03*
%TD*%
%TO.C,R12*%
G36*
G01*
X153558400Y-95383600D02*
X153008400Y-95383600D01*
G75*
G02*
X152808400Y-95183600I0J200000D01*
G01*
X152808400Y-94783600D01*
G75*
G02*
X153008400Y-94583600I200000J0D01*
G01*
X153558400Y-94583600D01*
G75*
G02*
X153758400Y-94783600I0J-200000D01*
G01*
X153758400Y-95183600D01*
G75*
G02*
X153558400Y-95383600I-200000J0D01*
G01*
G37*
G36*
G01*
X153558400Y-97033600D02*
X153008400Y-97033600D01*
G75*
G02*
X152808400Y-96833600I0J200000D01*
G01*
X152808400Y-96433600D01*
G75*
G02*
X153008400Y-96233600I200000J0D01*
G01*
X153558400Y-96233600D01*
G75*
G02*
X153758400Y-96433600I0J-200000D01*
G01*
X153758400Y-96833600D01*
G75*
G02*
X153558400Y-97033600I-200000J0D01*
G01*
G37*
%TD*%
%TO.C,R9*%
G36*
G01*
X158820000Y-66031000D02*
X158820000Y-65481000D01*
G75*
G02*
X159020000Y-65281000I200000J0D01*
G01*
X159420000Y-65281000D01*
G75*
G02*
X159620000Y-65481000I0J-200000D01*
G01*
X159620000Y-66031000D01*
G75*
G02*
X159420000Y-66231000I-200000J0D01*
G01*
X159020000Y-66231000D01*
G75*
G02*
X158820000Y-66031000I0J200000D01*
G01*
G37*
G36*
G01*
X157170000Y-66031000D02*
X157170000Y-65481000D01*
G75*
G02*
X157370000Y-65281000I200000J0D01*
G01*
X157770000Y-65281000D01*
G75*
G02*
X157970000Y-65481000I0J-200000D01*
G01*
X157970000Y-66031000D01*
G75*
G02*
X157770000Y-66231000I-200000J0D01*
G01*
X157370000Y-66231000D01*
G75*
G02*
X157170000Y-66031000I0J200000D01*
G01*
G37*
%TD*%
%TO.C,R3*%
G36*
G01*
X169366000Y-90035000D02*
X169916000Y-90035000D01*
G75*
G02*
X170116000Y-90235000I0J-200000D01*
G01*
X170116000Y-90635000D01*
G75*
G02*
X169916000Y-90835000I-200000J0D01*
G01*
X169366000Y-90835000D01*
G75*
G02*
X169166000Y-90635000I0J200000D01*
G01*
X169166000Y-90235000D01*
G75*
G02*
X169366000Y-90035000I200000J0D01*
G01*
G37*
G36*
G01*
X169366000Y-88385000D02*
X169916000Y-88385000D01*
G75*
G02*
X170116000Y-88585000I0J-200000D01*
G01*
X170116000Y-88985000D01*
G75*
G02*
X169916000Y-89185000I-200000J0D01*
G01*
X169366000Y-89185000D01*
G75*
G02*
X169166000Y-88985000I0J200000D01*
G01*
X169166000Y-88585000D01*
G75*
G02*
X169366000Y-88385000I200000J0D01*
G01*
G37*
%TD*%
D24*
%TO.C,Q5*%
X166600000Y-75000000D03*
X164500000Y-75950000D03*
X164500000Y-74050000D03*
%TD*%
%TO.C,C5*%
G36*
G01*
X172050000Y-72900000D02*
X172050000Y-72400000D01*
G75*
G02*
X172275000Y-72175000I225000J0D01*
G01*
X172725000Y-72175000D01*
G75*
G02*
X172950000Y-72400000I0J-225000D01*
G01*
X172950000Y-72900000D01*
G75*
G02*
X172725000Y-73125000I-225000J0D01*
G01*
X172275000Y-73125000D01*
G75*
G02*
X172050000Y-72900000I0J225000D01*
G01*
G37*
G36*
G01*
X173600000Y-72900000D02*
X173600000Y-72400000D01*
G75*
G02*
X173825000Y-72175000I225000J0D01*
G01*
X174275000Y-72175000D01*
G75*
G02*
X174500000Y-72400000I0J-225000D01*
G01*
X174500000Y-72900000D01*
G75*
G02*
X174275000Y-73125000I-225000J0D01*
G01*
X173825000Y-73125000D01*
G75*
G02*
X173600000Y-72900000I0J225000D01*
G01*
G37*
%TD*%
D25*
%TO.C,D3*%
X157800000Y-75900000D03*
X162200000Y-75900000D03*
%TD*%
D26*
%TO.C,Q2*%
X161000000Y-70900000D03*
X161950000Y-73000000D03*
X160050000Y-73000000D03*
%TD*%
%TO.C,R1*%
G36*
G01*
X149046800Y-68068200D02*
X149046800Y-67518200D01*
G75*
G02*
X149246800Y-67318200I200000J0D01*
G01*
X149646800Y-67318200D01*
G75*
G02*
X149846800Y-67518200I0J-200000D01*
G01*
X149846800Y-68068200D01*
G75*
G02*
X149646800Y-68268200I-200000J0D01*
G01*
X149246800Y-68268200D01*
G75*
G02*
X149046800Y-68068200I0J200000D01*
G01*
G37*
G36*
G01*
X147396800Y-68068200D02*
X147396800Y-67518200D01*
G75*
G02*
X147596800Y-67318200I200000J0D01*
G01*
X147996800Y-67318200D01*
G75*
G02*
X148196800Y-67518200I0J-200000D01*
G01*
X148196800Y-68068200D01*
G75*
G02*
X147996800Y-68268200I-200000J0D01*
G01*
X147596800Y-68268200D01*
G75*
G02*
X147396800Y-68068200I0J200000D01*
G01*
G37*
%TD*%
%TO.C,R2*%
G36*
G01*
X147396800Y-62937400D02*
X147396800Y-62387400D01*
G75*
G02*
X147596800Y-62187400I200000J0D01*
G01*
X147996800Y-62187400D01*
G75*
G02*
X148196800Y-62387400I0J-200000D01*
G01*
X148196800Y-62937400D01*
G75*
G02*
X147996800Y-63137400I-200000J0D01*
G01*
X147596800Y-63137400D01*
G75*
G02*
X147396800Y-62937400I0J200000D01*
G01*
G37*
G36*
G01*
X149046800Y-62937400D02*
X149046800Y-62387400D01*
G75*
G02*
X149246800Y-62187400I200000J0D01*
G01*
X149646800Y-62187400D01*
G75*
G02*
X149846800Y-62387400I0J-200000D01*
G01*
X149846800Y-62937400D01*
G75*
G02*
X149646800Y-63137400I-200000J0D01*
G01*
X149246800Y-63137400D01*
G75*
G02*
X149046800Y-62937400I0J200000D01*
G01*
G37*
%TD*%
%TO.C,R8*%
G36*
G01*
X146925000Y-49750000D02*
X146375000Y-49750000D01*
G75*
G02*
X146175000Y-49550000I0J200000D01*
G01*
X146175000Y-49150000D01*
G75*
G02*
X146375000Y-48950000I200000J0D01*
G01*
X146925000Y-48950000D01*
G75*
G02*
X147125000Y-49150000I0J-200000D01*
G01*
X147125000Y-49550000D01*
G75*
G02*
X146925000Y-49750000I-200000J0D01*
G01*
G37*
G36*
G01*
X146925000Y-51400000D02*
X146375000Y-51400000D01*
G75*
G02*
X146175000Y-51200000I0J200000D01*
G01*
X146175000Y-50800000D01*
G75*
G02*
X146375000Y-50600000I200000J0D01*
G01*
X146925000Y-50600000D01*
G75*
G02*
X147125000Y-50800000I0J-200000D01*
G01*
X147125000Y-51200000D01*
G75*
G02*
X146925000Y-51400000I-200000J0D01*
G01*
G37*
%TD*%
%TO.C,R10*%
G36*
G01*
X158075000Y-73125000D02*
X157525000Y-73125000D01*
G75*
G02*
X157325000Y-72925000I0J200000D01*
G01*
X157325000Y-72525000D01*
G75*
G02*
X157525000Y-72325000I200000J0D01*
G01*
X158075000Y-72325000D01*
G75*
G02*
X158275000Y-72525000I0J-200000D01*
G01*
X158275000Y-72925000D01*
G75*
G02*
X158075000Y-73125000I-200000J0D01*
G01*
G37*
G36*
G01*
X158075000Y-71475000D02*
X157525000Y-71475000D01*
G75*
G02*
X157325000Y-71275000I0J200000D01*
G01*
X157325000Y-70875000D01*
G75*
G02*
X157525000Y-70675000I200000J0D01*
G01*
X158075000Y-70675000D01*
G75*
G02*
X158275000Y-70875000I0J-200000D01*
G01*
X158275000Y-71275000D01*
G75*
G02*
X158075000Y-71475000I-200000J0D01*
G01*
G37*
%TD*%
%TO.C,R11*%
G36*
G01*
X168850000Y-76025000D02*
X168850000Y-76575000D01*
G75*
G02*
X168650000Y-76775000I-200000J0D01*
G01*
X168250000Y-76775000D01*
G75*
G02*
X168050000Y-76575000I0J200000D01*
G01*
X168050000Y-76025000D01*
G75*
G02*
X168250000Y-75825000I200000J0D01*
G01*
X168650000Y-75825000D01*
G75*
G02*
X168850000Y-76025000I0J-200000D01*
G01*
G37*
G36*
G01*
X170500000Y-76025000D02*
X170500000Y-76575000D01*
G75*
G02*
X170300000Y-76775000I-200000J0D01*
G01*
X169900000Y-76775000D01*
G75*
G02*
X169700000Y-76575000I0J200000D01*
G01*
X169700000Y-76025000D01*
G75*
G02*
X169900000Y-75825000I200000J0D01*
G01*
X170300000Y-75825000D01*
G75*
G02*
X170500000Y-76025000I0J-200000D01*
G01*
G37*
%TD*%
D27*
%TO.C,U1*%
X173204000Y-109588000D03*
X171934000Y-109588000D03*
X170664000Y-109588000D03*
X169394000Y-109588000D03*
X168124000Y-109588000D03*
X166854000Y-109588000D03*
X165584000Y-109588000D03*
X164314000Y-109588000D03*
X163044000Y-109588000D03*
X161774000Y-109588000D03*
X160504000Y-109588000D03*
X159234000Y-109588000D03*
X157964000Y-109588000D03*
X156694000Y-109588000D03*
D28*
X155694000Y-106803000D03*
X155694000Y-105533000D03*
X155694000Y-104263000D03*
X155694000Y-102993000D03*
X155694000Y-101723000D03*
X155694000Y-100453000D03*
X155694000Y-99183000D03*
X155694000Y-97913000D03*
X155694000Y-96643000D03*
X155694000Y-95373000D03*
D27*
X156694000Y-92588000D03*
X157964000Y-92588000D03*
X159234000Y-92588000D03*
X160504000Y-92588000D03*
X161774000Y-92588000D03*
X163044000Y-92588000D03*
X164314000Y-92588000D03*
X165584000Y-92588000D03*
X166854000Y-92588000D03*
X168124000Y-92588000D03*
X169394000Y-92588000D03*
X170664000Y-92588000D03*
X171934000Y-92588000D03*
X173204000Y-92588000D03*
D29*
X165704000Y-100088000D03*
%TD*%
D23*
%TO.C,U5*%
X168600000Y-72650000D03*
X168600000Y-73600000D03*
X168600000Y-74550000D03*
X170800000Y-74550000D03*
X170800000Y-72650000D03*
%TD*%
M02*
